<svg xmlns="http://www.w3.org/2000/svg" xmlns:xlink="http://www.w3.org/1999/xlink" width="207" height="400" viewBox="0 0 207 400">
  <defs>
    <clipPath id="clip-path">
      <rect id="Rectangle_24670" data-name="Rectangle 24670" width="207" height="400" transform="translate(1312 1076.438)" fill="none" stroke="#707070" stroke-width="1"/>
    </clipPath>
    <clipPath id="clip-path-2">
      <rect id="Rectangle_24633" data-name="Rectangle 24633" width="199" height="309" fill="none"/>
    </clipPath>
    <clipPath id="clip-path-3">
      <rect id="Rectangle_24632" data-name="Rectangle 24632" width="212.268" height="417.86" fill="none"/>
    </clipPath>
    <clipPath id="clip-path-4">
      <rect id="Rectangle_24629" data-name="Rectangle 24629" width="12.487" height="11.31" fill="none"/>
    </clipPath>
    <clipPath id="clip-path-5">
      <rect id="Rectangle_24630" data-name="Rectangle 24630" width="7.646" height="12.375" fill="none"/>
    </clipPath>
    <clipPath id="clip-path-6">
      <rect id="Rectangle_24631" data-name="Rectangle 24631" width="35.941" height="11.125" fill="none"/>
    </clipPath>
  </defs>
  <g id="Mask_Group_121602" data-name="Mask Group 121602" transform="translate(-1312 -1076.438)" clip-path="url(#clip-path)">
    <g id="Group_167964" data-name="Group 167964">
      <g id="Group_167963" data-name="Group 167963" transform="translate(1320 1167.377)">
        <g id="Group_167962" data-name="Group 167962" clip-path="url(#clip-path-2)">
          <g id="Group_167961" data-name="Group 167961">
            <g id="Group_167960" data-name="Group 167960" clip-path="url(#clip-path-3)">
              <path id="Path_126456" data-name="Path 126456" d="M99.462,346.809l-1.744,22.056s-21.792,7-21.919,11.085l42.63.561,1.26-33.748Z" transform="translate(5.636 25.783)" fill="#7c8691"/>
              <path id="Path_126457" data-name="Path 126457" d="M108.57,365.249a1.743,1.743,0,0,1,1.265,1.952,1.677,1.677,0,0,1-1.924,1.271,1.838,1.838,0,0,1-1.328-2.075,1.738,1.738,0,0,1,2.148-1.1" transform="translate(7.921 27.153)" fill="#ebebeb"/>
              <path id="Path_126458" data-name="Path 126458" d="M118.435,378.413l-.086-3.421-40.372.248s-2.315,1.378-2.253,2.708Z" transform="translate(5.63 27.882)" fill="#ebebeb"/>
              <path id="Path_126459" data-name="Path 126459" d="M95.551,367.168c.013.208,1.057.272,2.1.91,1.063.612,1.618,1.5,1.807,1.411.191-.046-.157-1.283-1.436-2.035s-2.524-.475-2.473-.286" transform="translate(7.104 27.284)" fill="#263238"/>
              <path id="Path_126460" data-name="Path 126460" d="M91.438,369.007c-.042.2.871.531,1.605,1.39.76.838.967,1.786,1.174,1.77.2.027.3-1.2-.63-2.25s-2.151-1.11-2.15-.911" transform="translate(6.799 27.43)" fill="#263238"/>
              <path id="Path_126461" data-name="Path 126461" d="M89.345,374.3c.191.039.449-1.011-.12-2.136s-1.557-1.549-1.641-1.373c-.112.174.539.768.993,1.7.475.92.561,1.8.768,1.81" transform="translate(6.511 27.566)" fill="#263238"/>
              <path id="Path_126462" data-name="Path 126462" d="M95.761,362.518c.093.187,1.04-.129,2.22-.085,1.182.02,2.11.389,2.212.206.117-.154-.8-.9-2.192-.932s-2.347.65-2.24.81" transform="translate(7.119 26.894)" fill="#263238"/>
              <path id="Path_126463" data-name="Path 126463" d="M95.564,358.584a4.01,4.01,0,0,0,2.137-.075,9.614,9.614,0,0,0,2.214-.754,10.1,10.1,0,0,0,1.208-.688,2.66,2.66,0,0,0,.631-.522.909.909,0,0,0,.061-1.111,1.143,1.143,0,0,0-.927-.449,2.776,2.776,0,0,0-.8.134,7.676,7.676,0,0,0-1.315.5,7.545,7.545,0,0,0-1.932,1.353c-.962.947-1.276,1.734-1.2,1.773.1.066.559-.6,1.544-1.388a8.528,8.528,0,0,1,1.873-1.131,7.928,7.928,0,0,1,1.216-.415c.448-.132.833-.147.954.051.044.075.05.105-.04.241a2.172,2.172,0,0,1-.463.381,11.509,11.509,0,0,1-1.11.679,11.924,11.924,0,0,1-2.041.854,14.687,14.687,0,0,0-2.008.572" transform="translate(7.105 26.394)" fill="#263238"/>
              <path id="Path_126464" data-name="Path 126464" d="M96.029,359.072a3.408,3.408,0,0,0,.5-2.081,6.914,6.914,0,0,0-.945-3.611,1.766,1.766,0,0,0-1.4-1.038,1,1,0,0,0-.875.622,2.914,2.914,0,0,0-.2.791,4.739,4.739,0,0,0,.042,1.439,4.905,4.905,0,0,0,.979,2.18c.867,1.081,1.744,1.3,1.76,1.232.066-.106-.673-.487-1.342-1.53a4.924,4.924,0,0,1-.737-1.988,4.415,4.415,0,0,1,0-1.237c.054-.454.213-.826.384-.784.212-.01.583.32.768.677a7.032,7.032,0,0,1,.564,1.142,7.651,7.651,0,0,1,.478,2.12c.1,1.251-.1,2.037.012,2.066" transform="translate(6.921 26.197)" fill="#263238"/>
              <path id="Path_126465" data-name="Path 126465" d="M184.9,343.389l4.927,25.759L199.6,388.4a2.688,2.688,0,0,1-3.8,3.509c-4.72-2.911-22.03-13.706-22.284-15.61-.3-2.207-7-26.825-7-26.825Z" transform="translate(12.381 25.532)" fill="#7c8691"/>
              <path id="Path_126466" data-name="Path 126466" d="M197.792,389.929l-25.11-17.522.234,1.086a4.042,4.042,0,0,0,1.489,2.363c2.039,1.562,7.765,5.755,20.856,13.91a2.684,2.684,0,0,0,2.53.163" transform="translate(12.839 27.689)" fill="#ebebeb"/>
              <path id="Path_126467" data-name="Path 126467" d="M176.088,365.378a1.624,1.624,0,0,1,.881,1.982,1.561,1.561,0,0,1-1.956.891,1.714,1.714,0,0,1-.923-2.1,1.621,1.621,0,0,1,2.139-.7" transform="translate(12.936 27.158)" fill="#ebebeb"/>
              <path id="Path_126468" data-name="Path 126468" d="M188.361,379.729a5.794,5.794,0,0,1,4.65-3.677c.009-.068-.359-.2-.977-.153a4.281,4.281,0,0,0-3.6,2.844c-.186.592-.144.979-.076.986" transform="translate(14.001 27.948)" fill="#263238"/>
              <path id="Path_126469" data-name="Path 126469" d="M190.746,382.475c.146.085.79-.926,2.034-1.591a22.018,22.018,0,0,1,2.434-.862,2.985,2.985,0,0,0-2.712.357c-1.414.767-1.9,2.056-1.757,2.1" transform="translate(14.181 28.243)" fill="#263238"/>
              <path id="Path_126470" data-name="Path 126470" d="M184.312,376.353a26.719,26.719,0,0,1,2.973-2.667,26.763,26.763,0,0,1,3.613-1.7,7.347,7.347,0,0,0-6.586,4.372" transform="translate(13.703 27.654)" fill="#263238"/>
              <path id="Path_126471" data-name="Path 126471" d="M182.308,369.015c.1.139,1.39-.757,3.22-1.22,1.822-.488,3.384-.334,3.406-.5a6.666,6.666,0,0,0-6.626,1.725" transform="translate(13.555 27.286)" fill="#263238"/>
              <path id="Path_126472" data-name="Path 126472" d="M180.784,362.011a13.171,13.171,0,0,1,3.318-1.36,13.194,13.194,0,0,1,3.583.122c.031-.062-.318-.323-.983-.538a5.858,5.858,0,0,0-5.183.929c-.548.432-.785.8-.735.847" transform="translate(13.441 26.766)" fill="#263238"/>
              <path id="Path_126473" data-name="Path 126473" d="M183.849,359.617a2.279,2.279,0,0,0-.174-.978,6.887,6.887,0,0,0-1.317-2.373,3.054,3.054,0,0,0-1.588-1.152,1.079,1.079,0,0,0-1.139.491,1.753,1.753,0,0,0-.157,1.245,3.8,3.8,0,0,0,3.993,2.735,4.406,4.406,0,0,0,3.746-3.163,1.531,1.531,0,0,0-.2-1.258,1.058,1.058,0,0,0-1.2-.315,3.76,3.76,0,0,0-1.5,1.241,7.677,7.677,0,0,0-1.32,2.369,2.344,2.344,0,0,0-.2.97,12.21,12.21,0,0,1,1.835-3.075,3.515,3.515,0,0,1,1.334-1.05.563.563,0,0,1,.655.168,1.046,1.046,0,0,1,.081.835,3.93,3.93,0,0,1-3.279,2.7,3.3,3.3,0,0,1-3.423-2.273,1.273,1.273,0,0,1,.072-.873.587.587,0,0,1,.625-.28,2.769,2.769,0,0,1,1.362.95,10.2,10.2,0,0,1,1.8,3.082" transform="translate(13.341 26.379)" fill="#263238"/>
              <path id="Path_126474" data-name="Path 126474" d="M97.8,158.663c-.272-.01-3.539,216.1-3.539,216.1l26.114-.9,9.039-106.248,2.171-78,17.77,72.141,22.162,113.226,26.079-6.547L164.4,157.256l-31.248-6.045Z" transform="translate(7.008 11.243)" fill="#49555c"/>
              <path id="Path_126475" data-name="Path 126475" d="M152.988,36.386c3.124-6.174,4.11-17.253.525-23.392S142.679,2.428,135.862.408a5.89,5.89,0,0,0-3.5-.223,2.351,2.351,0,0,0-1.657,2.743A14.882,14.882,0,0,0,126.449.468a5.049,5.049,0,0,0-4.688.663,3.1,3.1,0,0,0-.45,4.365c-1.879-.853-3.309,3.1-4.839,4.483s-2.666,2.5-2,4.452c.636,1.872,1.72,1.651,3.072,3.093s1.485,2.843,1.1,4.781" transform="translate(8.579 0)" fill="#263238"/>
              <path id="Path_126476" data-name="Path 126476" d="M127.1,86.858c.19-2.96.668-29.756.664-29.879,0,0-9.946-1.231-10.376-11.124-.208-4.779.165-14.655.607-23.588A18.447,18.447,0,0,1,135.848,4.741l.955-.03c10.316.281,15.84,9.2,15.273,19.5l-1.412,57.338" transform="translate(8.724 0.35)" fill="#cea28c"/>
              <path id="Path_126477" data-name="Path 126477" d="M127.047,53.653a23.921,23.921,0,0,0,12.768-4.21s-2.971,6.19-12.874,5.607Z" transform="translate(9.438 3.676)" fill="#91593c"/>
              <path id="Path_126478" data-name="Path 126478" d="M119.492,27.364a1.415,1.415,0,0,0,1.407,1.384,1.353,1.353,0,0,0,1.417-1.32,1.414,1.414,0,0,0-1.406-1.384,1.352,1.352,0,0,0-1.418,1.32" transform="translate(8.885 1.936)" fill="#263238"/>
              <path id="Path_126479" data-name="Path 126479" d="M120.069,25.61c.18.178,1.227-.647,2.748-.69,1.518-.066,2.659.682,2.818.491.078-.085-.11-.413-.607-.751a3.881,3.881,0,0,0-2.264-.621,3.729,3.729,0,0,0-2.18.779c-.457.374-.6.712-.516.792" transform="translate(8.926 1.787)" fill="#263238"/>
              <path id="Path_126480" data-name="Path 126480" d="M133.68,27.569a1.415,1.415,0,0,0,1.407,1.384,1.353,1.353,0,0,0,1.417-1.32,1.414,1.414,0,0,0-1.406-1.384,1.353,1.353,0,0,0-1.418,1.32" transform="translate(9.939 1.952)" fill="#263238"/>
              <path id="Path_126481" data-name="Path 126481" d="M133.992,25.441c.182.179,1.229-.647,2.748-.69,1.519-.066,2.66.682,2.819.491.078-.085-.109-.411-.608-.751a3.88,3.88,0,0,0-2.263-.621,3.729,3.729,0,0,0-2.181.779c-.456.374-.6.712-.516.792" transform="translate(9.961 1.775)" fill="#263238"/>
              <path id="Path_126482" data-name="Path 126482" d="M129.45,36.87a10.008,10.008,0,0,0-2.484-.369c-.39-.028-.76-.095-.834-.358a1.983,1.983,0,0,1,.223-1.159q.5-1.426,1.057-2.993c1.463-4.26,2.511-7.758,2.339-7.815s-1.5,3.349-2.963,7.609q-.527,1.576-1.008,3.009a2.259,2.259,0,0,0-.154,1.531.975.975,0,0,0,.656.548,2.649,2.649,0,0,0,.662.071,9.863,9.863,0,0,0,2.5-.074" transform="translate(9.334 1.797)" fill="#263238"/>
              <path id="Path_126483" data-name="Path 126483" d="M133.7,36.84c-.248-.006-.2,1.644-1.576,2.86s-3.139,1.089-3.146,1.32c-.019.1.4.308,1.145.305a4.116,4.116,0,0,0,2.629-1.009,3.587,3.587,0,0,0,1.216-2.395c.041-.692-.156-1.095-.269-1.082" transform="translate(9.59 2.739)" fill="#263238"/>
              <path id="Path_126484" data-name="Path 126484" d="M133.453,19.881c.163.409,1.676.164,3.466.326,1.8.124,3.25.6,3.476.222.1-.18-.163-.562-.757-.944a6.042,6.042,0,0,0-5.288-.417c-.647.283-.967.619-.9.813" transform="translate(9.922 1.386)" fill="#263238"/>
              <path id="Path_126485" data-name="Path 126485" d="M120.463,21.5c.278.337,1.315-.054,2.574-.111,1.257-.1,2.333.16,2.568-.208.1-.179-.076-.52-.552-.833a3.731,3.731,0,0,0-4.144.258c-.434.369-.569.729-.446.894" transform="translate(8.953 1.475)" fill="#263238"/>
              <path id="Path_126486" data-name="Path 126486" d="M149.137,29.736c.167-.078,6.737-2.223,6.732,4.55s-6.8,5.371-6.816,5.176.084-9.726.084-9.726" transform="translate(11.082 2.182)" fill="#cea28c"/>
              <path id="Path_126487" data-name="Path 126487" d="M150.981,36.746c.03-.021.118.083.317.174a1.179,1.179,0,0,0,.882.019,2.922,2.922,0,0,0,1.354-2.618,3.921,3.921,0,0,0-.329-1.69,1.36,1.36,0,0,0-.887-.906.6.6,0,0,0-.7.322c-.091.189-.048.324-.084.336-.019.017-.145-.114-.09-.393a.753.753,0,0,1,.266-.424.887.887,0,0,1,.652-.172,1.66,1.66,0,0,1,1.232,1.051,4,4,0,0,1,.407,1.889,3.065,3.065,0,0,1-1.723,2.923,1.266,1.266,0,0,1-1.08-.18c-.21-.168-.245-.318-.221-.331" transform="translate(11.225 2.334)" fill="#91593c"/>
              <path id="Path_126488" data-name="Path 126488" d="M115.513,13.5c1.148,6.089,7.954,8.529,12.7,3.619,2.195-2.27,4.109-5.109,7.1-6.131a8.038,8.038,0,0,1,6.173.65l.057.029c2.789,1.45,4.438,4.682,4.87,7.8.6,4.341-.092,8.17,1.035,12.157a2.693,2.693,0,0,0,.836,1.536c.82.591,2,.072,2.678-.679a8.356,8.356,0,0,0,1.7-4.469,27.849,27.849,0,0,0-.406-10.973,18.971,18.971,0,0,0-5.506-9.4,17.965,17.965,0,0,0-12.74-4.367,22.063,22.063,0,0,0-12.644,4.97,12.923,12.923,0,0,0-4.006,4.916" transform="translate(8.952 0.241)" fill="#263238"/>
              <path id="Path_126489" data-name="Path 126489" d="M120.386,4.647a1.756,1.756,0,0,0-.831.035,4.123,4.123,0,0,0-1.985,1.1,5.1,5.1,0,0,0-1.491,3.025,5.768,5.768,0,0,0,1.149,3.958,7.544,7.544,0,0,0,3.25,2.534,10.219,10.219,0,0,0,3.277.728A12.725,12.725,0,0,0,126,15.963a2.506,2.506,0,0,0,.808-.166c-.006-.085-1.174.085-3.03-.091a10.672,10.672,0,0,1-3.137-.793A7.358,7.358,0,0,1,117.6,12.5a5.46,5.46,0,0,1-1.1-3.643,4.906,4.906,0,0,1,1.3-2.84,4.3,4.3,0,0,1,1.8-1.16,7.429,7.429,0,0,0,.784-.209" transform="translate(10.002 1.802)" fill="#455a64"/>
              <path id="Path_126490" data-name="Path 126490" d="M124.942,1.763c0-.026-.248-.075-.646.114a2.138,2.138,0,0,0-1.056,1.446,3.941,3.941,0,0,0,.516,2.592,11.317,11.317,0,0,0,1.855,2.591,11.714,11.714,0,0,0,4.843,3.071,5.562,5.562,0,0,0,2.341.4c.016-.092-.884-.208-2.216-.745a12.854,12.854,0,0,1-4.591-3.082,11.948,11.948,0,0,1-1.808-2.456,3.744,3.744,0,0,1-.579-2.3,2.061,2.061,0,0,1,.8-1.341c.317-.218.55-.245.543-.288" transform="translate(9.159 0.129)" fill="#455a64"/>
              <path id="Path_126491" data-name="Path 126491" d="M75.124,84.092l-46.577-4.42L21.172,77.9S4.327,74.889,2.746,74.394C.919,73.822.2,74.565.039,75.253c-.258,1.072.8,2.22,2.356,2.759.537.187,9.123,2.789,9.123,2.789a21.234,21.234,0,0,0-2.829.938c-2,.767-3.842,3.456-4.695,6.54s-.821,4.021.362,4.409a1.583,1.583,0,0,0,1.339-.24,3.131,3.131,0,0,0,1.321-1.8c1.435-4.919,4.46-5.421,4.46-5.421l.965.232s-3.05,2.311-2.891,4.957a3.024,3.024,0,0,0,.288,1.126,4.007,4.007,0,0,0,4.673,5.095c.663-.142,1.37-.564,1.439-1.238a2.13,2.13,0,0,0-.256-1.029,3.3,3.3,0,0,1-.186-.536l2.793.271s6.308.273,9.04.7l43.9,11.363a11.244,11.244,0,1,0,3.879-22.08" transform="translate(0 5.516)" fill="#cea28c"/>
              <path id="Path_126492" data-name="Path 126492" d="M26.57,80.585a2.336,2.336,0,0,1-1.924,1.926c-.945.237-1.944.146-2.9.315-2.871.5-5.013,3.217-7.905,3.581-.4.051-.916-.013-1.052-.4-.126-.355.172-.708.444-.968l6.979-6.674" transform="translate(0.948 5.827)" fill="#cea28c"/>
              <path id="Path_126493" data-name="Path 126493" d="M20.226,78.369a3.837,3.837,0,0,0-.828.645c-.509.44-1.233,1.092-2.119,1.9l-3.093,2.876-.888.837c-.261.288-.731.546-.792,1.212a.812.812,0,0,0,.525.747,1.666,1.666,0,0,0,.784.1,6.346,6.346,0,0,0,1.385-.331,37.184,37.184,0,0,0,4.543-2.533,7.283,7.283,0,0,1,2.037-.767c.666-.128,1.326-.132,1.934-.2a3.4,3.4,0,0,0,2.6-1.245c.406-.6.3-1.041.278-1.025a2.825,2.825,0,0,1-.448.895,3.3,3.3,0,0,1-2.459.987c-.589.042-1.253.021-1.981.139a7.5,7.5,0,0,0-2.191.766,43.014,43.014,0,0,1-4.494,2.465,5.94,5.94,0,0,1-1.251.3c-.4.044-.748-.087-.72-.3-.005-.237.315-.545.616-.828l.876-.85c1.107-1.087,2.12-2.084,3.011-2.962.852-.849,1.535-1.543,2-2.031a3.872,3.872,0,0,0,.68-.8" transform="translate(0.93 5.827)" fill="#91593c"/>
              <path id="Path_126494" data-name="Path 126494" d="M12.256,84.607a3.969,3.969,0,0,0-1.823.047,3.081,3.081,0,0,0-1.545,1.153,7.9,7.9,0,0,0-1.055,2.21,12.53,12.53,0,0,1-.965,2.352A4.042,4.042,0,0,1,5.41,91.887a1.579,1.579,0,0,1-1.417.088c-.308-.149-.429-.3-.419-.307.018-.03.17.08.468.178a1.49,1.49,0,0,0,1.244-.178,4,4,0,0,0,1.3-1.462A13.734,13.734,0,0,0,7.5,87.9a7.657,7.657,0,0,1,1.131-2.293,3.221,3.221,0,0,1,1.735-1.195,2.862,2.862,0,0,1,1.418-.012c.324.085.482.187.475.205" transform="translate(0.266 6.269)" fill="#91593c"/>
              <path id="Path_126495" data-name="Path 126495" d="M1.675,77.545a10.106,10.106,0,0,1,1.71.506L7.47,79.373l4.105,1.261a10.217,10.217,0,0,1,1.691.566,7.957,7.957,0,0,1-1.758-.323c-1.072-.256-2.541-.66-4.145-1.165S4.325,78.694,3.3,78.288a8.011,8.011,0,0,1-1.625-.742" transform="translate(0.125 5.765)" fill="#91593c"/>
              <path id="Path_126496" data-name="Path 126496" d="M13.148,86.946c.018.019-.119.167-.349.437a1.655,1.655,0,0,0-.472,1.3.881.881,0,0,0,.573.665,4.68,4.68,0,0,0,1.132.265,1.994,1.994,0,0,1,1.275.621,1.7,1.7,0,0,1,.271,1.515,1.922,1.922,0,0,1-1,1.159,2.407,2.407,0,0,1-1.388.262,7.858,7.858,0,0,1-2.18-.718,4.593,4.593,0,0,1-1.274-.875c-.252-.272-.322-.472-.307-.478s.134.15.4.377a5.433,5.433,0,0,0,1.285.748,8.4,8.4,0,0,0,2.113.62,1.911,1.911,0,0,0,2-1.194,1.362,1.362,0,0,0-.2-1.2,1.707,1.707,0,0,0-1.067-.517,4.7,4.7,0,0,1-1.2-.32,1.154,1.154,0,0,1-.7-.893,1.74,1.74,0,0,1,.621-1.429c.269-.249.435-.358.45-.343" transform="translate(0.701 6.465)" fill="#91593c"/>
              <path id="Path_126497" data-name="Path 126497" d="M14.4,92.418c0-.017.2-.008.468.2a1.553,1.553,0,0,1,.569,1.269,2.069,2.069,0,0,1-1.164,1.694,3.389,3.389,0,0,1-2.514.134A4.1,4.1,0,0,1,9.7,94.268a3.911,3.911,0,0,1-.749-1.91,3.7,3.7,0,0,1,.1-1.372c.087-.314.176-.471.2-.463a6.485,6.485,0,0,0-.043,1.8,3.858,3.858,0,0,0,.76,1.746,3.909,3.909,0,0,0,1.9,1.3,3.148,3.148,0,0,0,2.262-.088,1.839,1.839,0,0,0,1.06-1.418,1.476,1.476,0,0,0-.41-1.147c-.215-.216-.389-.273-.377-.3" transform="translate(0.664 6.731)" fill="#91593c"/>
              <path id="Path_126498" data-name="Path 126498" d="M21.216,88.831a1.456,1.456,0,0,1,.266-.814,3.361,3.361,0,0,1,1.634-1.446l-.005.314a10.105,10.105,0,0,1-1.082-.545,7.657,7.657,0,0,1-3.024-2.88,19.346,19.346,0,0,0,3.2,2.573c.355.206.708.387,1.041.54l.367.17-.374.144a3.529,3.529,0,0,0-1.579,1.244c-.3.418-.4.716-.447.7" transform="translate(1.413 6.205)" fill="#91593c"/>
              <path id="Path_126499" data-name="Path 126499" d="M7.452,84.38c.066-.068.576.453.663,1.306s-.293,1.471-.372,1.418c-.095-.041.106-.639.018-1.381-.071-.742-.394-1.284-.309-1.344" transform="translate(0.553 6.273)" fill="#91593c"/>
              <path id="Path_126500" data-name="Path 126500" d="M72.958,108.281l30.378-7.012s-1.572,55.694-1.566,56.221-2.508,1.4-2.293,5.444l2.183,4.808,66.614.894,1.8-54.09L176.151,72.6l-13.974-8.646-4.918-6.674L138.044,77.55l-4.779-17.3.138-5.147-4.75,5.155L103.035,67.65,69.187,83.431,46.3,81.683,40.36,101.706Z" transform="translate(3.001 4.097)" fill="#fff"/>
              <path id="Path_126501" data-name="Path 126501" d="M129.252,70.934a3.094,3.094,0,0,0-1.375,1.534,6.185,6.185,0,0,0-.418,2.339,8.834,8.834,0,0,1-.453,3.187l-.229.557-.241-.555a30.5,30.5,0,0,1-1.5-4.927c-.81-3.481-1.328-6.667-1.674-8.977a22.443,22.443,0,0,1-.4-3.76,28.646,28.646,0,0,1,.793,3.695c.445,2.287,1.024,5.458,1.829,8.914A33.892,33.892,0,0,0,127,77.784l-.469,0a8.872,8.872,0,0,0,.5-3,6.13,6.13,0,0,1,.565-2.45,2.79,2.79,0,0,1,1.1-1.226c.343-.184.555-.2.56-.176" transform="translate(9.141 4.486)" fill="#263238"/>
              <path id="Path_126502" data-name="Path 126502" d="M152.905,62.292a4.455,4.455,0,0,1-.65.934c-.446.577-1.107,1.4-1.931,2.411-1.649,2.02-3.957,4.785-6.532,7.817-1.471,1.715-2.861,3.337-4.1,4.785l-.317.371-.118-.471c-.582-2.333-1.056-4.308-1.373-5.692-.129-.7-.517-1.093-.892-1.1a.82.82,0,0,0-.516.148c-.027.009.074-.284.521-.306a.962.962,0,0,1,.707.289,2.086,2.086,0,0,1,.468.888c.4,1.373.944,3.322,1.571,5.646l-.434-.1c1.227-1.459,2.6-3.094,4.058-4.822,2.575-3.032,4.93-5.756,6.657-7.711.863-.978,1.57-1.762,2.067-2.3a4.516,4.516,0,0,1,.815-.793" transform="translate(10.147 4.631)" fill="#263238"/>
              <path id="Path_126503" data-name="Path 126503" d="M125.4,149.984a3.5,3.5,0,0,1-.055-.721c-.012-.53-.027-1.216-.046-2.067-.033-1.8-.034-4.393,0-7.6.074-6.419.378-15.289,1.107-25.06s1.751-18.592,2.633-24.951c.439-3.181.826-5.75,1.126-7.519.146-.839.263-1.515.353-2.037a3.513,3.513,0,0,1,.161-.7,3.534,3.534,0,0,1-.049.722c-.063.525-.146,1.207-.249,2.051-.233,1.847-.555,4.406-.95,7.539-.78,6.368-1.735,15.18-2.468,24.942s-1.094,18.614-1.269,25.027c-.075,3.156-.138,5.735-.182,7.6-.025.851-.044,1.536-.059,2.066a3.51,3.51,0,0,1-.058.721" transform="translate(9.315 5.898)" fill="#263238"/>
              <path id="Path_126504" data-name="Path 126504" d="M120.38,157.9a12.52,12.52,0,0,1-.5-4.78,17.215,17.215,0,0,1,.554-4.769,25.989,25.989,0,0,1,.005,4.782c-.085,2.625.09,4.743-.062,4.767" transform="translate(8.913 11.031)" fill="#263238"/>
              <path id="Path_126505" data-name="Path 126505" d="M148.912,142.692a11.485,11.485,0,0,1-1.715.647c-1.114.387-2.742.9-4.767,1.487a157.2,157.2,0,0,1-16.045,3.728,157.232,157.232,0,0,1-16.351,2.028c-2.1.144-3.808.225-4.986.246a11.679,11.679,0,0,1-1.833-.016,11.485,11.485,0,0,1,1.821-.2l4.966-.422c4.189-.386,9.965-1.065,16.285-2.184s11.973-2.477,16.038-3.559l4.808-1.314a11.547,11.547,0,0,1,1.779-.438" transform="translate(7.674 10.609)" fill="#263238"/>
              <path id="Path_126506" data-name="Path 126506" d="M98.686,111.451c-.155,0-.251-7.9-.217-17.651s.187-17.651.342-17.649.252,7.9.217,17.652-.187,17.648-.342,17.648" transform="translate(7.321 5.662)" fill="#263238"/>
              <path id="Path_126507" data-name="Path 126507" d="M166.113,70.677s8.395,7.2,8.946,11.275c.425,3.152,8.681,32.752,12.4,46a19.331,19.331,0,0,1-.7,12.5l-10.725,26.539-17.354-10.267,8.676-24.891-7.185-21.119Z" transform="translate(11.798 5.255)" fill="#fff"/>
              <path id="Path_126508" data-name="Path 126508" d="M176.495,166.847a1.564,1.564,0,0,1-.327-.156l-.926-.511-3.509-2.009-12.7-7.4-.151-.089.058-.168,8.62-24.91,0,.187-3.164-8.493-7.173-19.332.009.02c-2.2-4.619-4.1-9.077-4.634-13.351a18.724,18.724,0,0,1,.178-6,17.7,17.7,0,0,1,1.743-4.826A20.055,20.055,0,0,1,159,74.15a16.012,16.012,0,0,1,1.507-1.195,3.825,3.825,0,0,1,.557-.36,3.789,3.789,0,0,1-.5.429c-.341.269-.839.678-1.445,1.252a20.7,20.7,0,0,0-4.315,5.679,17.541,17.541,0,0,0-1.65,4.752,18.48,18.48,0,0,0-.119,5.868c.552,4.186,2.453,8.58,4.67,13.184l0,.01,0,.012c2.221,5.95,4.657,12.479,7.211,19.318,1.081,2.91,2.142,5.764,3.158,8.5l.034.093-.032.093c-3.284,9.35-6.274,17.865-8.734,24.87l-.093-.257,12.606,7.568,3.45,2.109.894.564a1.572,1.572,0,0,1,.294.212" transform="translate(11.334 5.398)" fill="#263238"/>
              <g id="Group_167953" data-name="Group 167953" transform="translate(143.099 75.947)" opacity="0.3">
                <g id="Group_167952" data-name="Group 167952">
                  <g id="Group_167951" data-name="Group 167951" clip-path="url(#clip-path-4)">
                    <path id="Path_126509" data-name="Path 126509" d="M133.2,74.564a2.579,2.579,0,0,1,2.58,1.888c.215,1.158.054,2.37.357,3.509s1.337,2.246,2.489,2.007a3.077,3.077,0,0,0,1.648-1.3,40.287,40.287,0,0,0,5.411-9.98c-.03.083-5.948,6.832-5.948,6.832a19.852,19.852,0,0,0-1.337-4.971c-.2-.512-.426-1.389-.926-1.618-.808-.37-1.878.812-2.411,1.521a14.068,14.068,0,0,1-1.866,2" transform="translate(-133.196 -70.691)"/>
                  </g>
                </g>
              </g>
              <g id="Group_167956" data-name="Group 167956" transform="translate(133.387 73.591)" opacity="0.3">
                <g id="Group_167955" data-name="Group 167955">
                  <g id="Group_167954" data-name="Group 167954" clip-path="url(#clip-path-5)">
                    <path id="Path_126510" data-name="Path 126510" d="M124.168,68.6a34.821,34.821,0,0,0,2.167,11.048,2.472,2.472,0,0,0,.581.964.889.889,0,0,0,1.044.15,12.458,12.458,0,0,0,1.065-2.285c.551-1.534,2.778-1.676,2.778-1.676a40.179,40.179,0,0,0-1.455-5.114,1.418,1.418,0,0,0-1.385-.892,2.3,2.3,0,0,0-1.527,1.75c-.336,2.758-.3,4.022-.7,4.983-1.045-2.933-1.891-6.468-2.582-9.03" transform="translate(-124.156 -68.498)"/>
                  </g>
                </g>
              </g>
              <g id="Group_167959" data-name="Group 167959" transform="translate(114.904 150.457)" opacity="0.3">
                <g id="Group_167958" data-name="Group 167958">
                  <g id="Group_167957" data-name="Group 167957" clip-path="url(#clip-path-6)">
                    <path id="Path_126511" data-name="Path 126511" d="M141.925,144.666a2.344,2.344,0,0,0,.514-3.314,3.581,3.581,0,0,0-3.354-1.276,7.58,7.58,0,0,0-3.4,1.532c-1.018.736-1.96,1.58-3.03,2.238-2.632,1.619-5.839,1.986-8.929,2.036s-6.214-.175-9.248.414-6.065,2.152-7.528,4.873c0,0,26.409-1.921,34.973-6.5" transform="translate(-106.952 -140.044)"/>
                  </g>
                </g>
              </g>
              <path id="Path_126512" data-name="Path 126512" d="M156.562,182.5a21.845,21.845,0,0,1-6.919-7.13.278.278,0,0,0,.009-.233.384.384,0,0,0-.263-.159,37.394,37.394,0,0,1-2.025-3.55c2.156-1.4,4.973-3.524,1.909-3.959-3.771-.537-6.467-2.37-6.851-3.373s.872-1.9,1.866-1.263a13.874,13.874,0,0,0,3.63,1.253,9.05,9.05,0,0,0,3.074.2c.638-.071,2.887-1.613,5.29-2.742a1.878,1.878,0,0,1,1.095-.145l.919-.062a2.852,2.852,0,0,0,2.334-1.53l3.484-6.706,10.529,6.229-8.333,11.566a139.221,139.221,0,0,1-9.747,11.609" transform="translate(10.584 11.383)" fill="#cea28c"/>
              <path id="Path_126513" data-name="Path 126513" d="M158.422,182.507a8.617,8.617,0,0,1-2.428-1.145,21.985,21.985,0,0,1-8.552-9.565,8.642,8.642,0,0,1-.868-2.541c.171-.085,1.482,3.87,4.849,7.588,3.319,3.759,7.1,5.5,7,5.663" transform="translate(10.897 12.584)" fill="#455a64"/>
              <path id="Path_126514" data-name="Path 126514" d="M127.236,189.854c-.008.017-.107-.014-.294-.092a3.5,3.5,0,0,1-.747-.475,6.305,6.305,0,0,1-1.719-2.731,44.577,44.577,0,0,1-1.169-4.6c-.386-1.737-.789-3.653-1.183-5.669-.792-4.033-1.4-7.7-1.782-10.37-.191-1.332-.331-2.413-.411-3.162a4.707,4.707,0,0,1-.069-1.171,4.743,4.743,0,0,1,.284,1.138q.242,1.289.588,3.132c.486,2.645,1.15,6.3,1.94,10.326.4,2,.785,3.912,1.138,5.669.373,1.738.64,3.323,1.039,4.582a6.618,6.618,0,0,0,1.492,2.7c.529.51.919.681.894.728" transform="translate(8.911 12.014)" fill="#455a64"/>
              <path id="Path_126515" data-name="Path 126515" d="M126.062,165.476c0-.031.177-.064.476.034a1.9,1.9,0,0,1,.881,2.837,2.167,2.167,0,0,1-2.257.858,2.24,2.24,0,0,1-1.577-1.826,2.066,2.066,0,0,1,.676-1.846c.892-.767,1.694-.541,1.652-.491a3.346,3.346,0,0,0-1.373.771,1.7,1.7,0,0,0-.447,1.48,1.777,1.777,0,0,0,1.212,1.371,1.7,1.7,0,0,0,1.7-.622,1.448,1.448,0,0,0,.16-1.489c-.4-.9-1.141-1-1.1-1.079" transform="translate(9.187 12.266)" fill="#455a64"/>
              <path id="Path_126516" data-name="Path 126516" d="M105.145,161.426a6.252,6.252,0,0,1,.281,2.474,13.322,13.322,0,0,1-5.553,10.322,6.267,6.267,0,0,1-2.22,1.129c-.044-.089.806-.509,1.982-1.445a14.587,14.587,0,0,0,5.4-10.03c.133-1.5.015-2.439.114-2.451" transform="translate(7.261 12.002)" fill="#455a64"/>
            </g>
          </g>
        </g>
      </g>
      <g id="Group_2609384" data-name="Group 2609384" transform="translate(1438.284 1154.565) rotate(8)">
        <path id="Path_126517" data-name="Path 126517" d="M61.724,9.607l.265-2.086a2.031,2.031,0,0,0-1.818-2.269C49.648,4.22,2.475-.336,1.33.02-.042.445,0,2.768,0,2.768A7.415,7.415,0,0,0,.951,5.043Z" fill="#8591a0"/>
        <path id="Path_126518" data-name="Path 126518" d="M2.149.009l57.558,5.63a1.982,1.982,0,0,1,1.216,3.354l-9.194,9.473a1.946,1.946,0,0,1-1.542.589l-40.562-3.7a1.989,1.989,0,0,1-1.658-1.171L.221,2.874A1.965,1.965,0,0,1,2.149.009Z" transform="translate(0.932 1.951)" fill="#54667a"/>
        <path id="Path_126519" data-name="Path 126519" d="M40.234,17.393c-.052-.164-.2-1.63-.632-3.838-1.075-5.292-.413-5.838-2.258-8.161A12.3,12.3,0,0,0,29.631,1,72.572,72.572,0,0,0,13.422.122,13.817,13.817,0,0,0,5.677,3.094a12.129,12.129,0,0,0-4.3,6.668L0,15.571Z" transform="translate(9.779 7.619)" fill="#8591a0"/>
        <path id="Path_126520" data-name="Path 126520" d="M22.649,17.914a8.336,8.336,0,0,1-1.259.031A6.576,6.576,0,0,1,18.213,16.9a9.814,9.814,0,0,1-3.367-3.668,51.99,51.99,0,0,1-2.522-5.754A15.529,15.529,0,0,0,8.894,2.046,6.8,6.8,0,0,0,4.126,0,5.025,5.025,0,0,0,.785,1.15,2.31,2.31,0,0,0,0,2.181a5.71,5.71,0,0,1,.947-.819A5.155,5.155,0,0,1,4.124.486,6.448,6.448,0,0,1,8.518,2.481a15.65,15.65,0,0,1,3.233,5.243,47.905,47.905,0,0,0,2.609,5.81A9.865,9.865,0,0,0,18.033,17.3a6.338,6.338,0,0,0,3.418.888A2.459,2.459,0,0,0,22.649,17.914Z" transform="translate(44.438 2.172)" fill="#040e1a"/>
        <path id="Path_126521" data-name="Path 126521" d="M0,3.722C2.193,1.894,5.322,1.752,7.539,0A3.525,3.525,0,0,1,6.066,2.019a1.314,1.314,0,0,0,1.09-.089c.365-.113.805-.25,1.07.027a.939.939,0,0,1,.235.494A7.94,7.94,0,0,1,8.6,5.394C6.8,5.33,5,5.129,3.232,4.944,2.127,4.8.323,4.99.044,3.819" transform="translate(66.653 16.316)" fill="#040e1a"/>
      </g>
    </g>
    <g id="Group_167973" data-name="Group 167973" transform="translate(1358.995 1115.37)">
      <g id="Group_166592" data-name="Group 166592" transform="translate(3.791 0)">
        <path id="Path_124903" data-name="Path 124903" d="M403.372,130.333l-.983-1.217a1.5,1.5,0,0,1,.262-2.144c6.315-4.762,34.629-26.093,35.506-26.308,1.047-.258,1.928,1.22,1.928,1.22a5.437,5.437,0,0,1,.286,1.815Z" transform="translate(-402.053 -100.634)" fill="#cdd6bd"/>
      </g>
      <g id="Group_166593" data-name="Group 166593" transform="translate(4.622 1.095)">
        <path id="Path_124904" data-name="Path 124904" d="M437.939,101.952,403.4,127.992a1.465,1.465,0,0,0,.542,2.6l9.6,2.34a1.49,1.49,0,0,0,1.222-.237l26.224-18.871a1.463,1.463,0,0,0,.6-1.385l-1.287-9.508A1.483,1.483,0,0,0,437.939,101.952Z" transform="translate(-402.819 -101.652)" fill="#bcc6aa"/>
      </g>
      <g id="Group_166594" data-name="Group 166594" transform="translate(18.921 13.204)">
        <path id="Path_124905" data-name="Path 124905" d="M419.038,134.667c.07.079-1.088-1.605-1.145-1.674a8.543,8.543,0,0,1,1.339-12.01A53.706,53.706,0,0,1,429.3,114.1a10,10,0,0,1,11.623,1.524l2.155,2.007Z" transform="translate(-416.01 -112.908)" fill="#cdd6bd"/>
      </g>
      <g id="Group_166596" data-name="Group 166596" transform="translate(5.989 18.595)">
        <g id="Group_166595" data-name="Group 166595">
          <path id="Path_124906" data-name="Path 124906" d="M404.08,137.122c-.016-.047.313-.153.811-.487a4.923,4.923,0,0,0,1.608-1.9,7.189,7.189,0,0,0,.7-3.619,38.525,38.525,0,0,0-.651-4.622,11.579,11.579,0,0,1,.057-4.781,5.1,5.1,0,0,1,2.306-3.175,3.848,3.848,0,0,1,2.6-.574,1.673,1.673,0,0,1,.907.356c-.02.048-.336-.1-.932-.14a3.853,3.853,0,0,0-2.358.693,4.783,4.783,0,0,0-2.016,2.969,11.614,11.614,0,0,0,0,4.566,33.47,33.47,0,0,1,.615,4.695,7.322,7.322,0,0,1-.867,3.817,4.72,4.72,0,0,1-1.846,1.9A1.864,1.864,0,0,1,404.08,137.122Z" transform="translate(-404.079 -117.918)" fill="#aeb99b"/>
        </g>
      </g>
      <g id="Group_166597" data-name="Group 166597" transform="translate(0 37.59)">
        <path id="Path_124907" data-name="Path 124907" d="M404.821,135.629c-2.086-.309-4.169.834-6.266.6a2.649,2.649,0,0,0,1.725.658c-.126.253-.45.318-.73.368s-.606.157-.676.43a.724.724,0,0,0,.047.407,5.826,5.826,0,0,0,1.068,1.915q1.68-1.117,3.251-2.384c.644-.519,1.871-1.106,1.594-1.955" transform="translate(-398.555 -135.575)" fill="#bcc6aa"/>
      </g>
    </g>
    <g id="Group_167974" data-name="Group 167974" transform="translate(1364.488 1387.82) rotate(69)">
      <g id="Group_166599" data-name="Group 166599" transform="translate(5.176 0)">
        <path id="Path_124908" data-name="Path 124908" d="M1.8,40.547.459,38.886a2.045,2.045,0,0,1,.358-2.927C9.44,29.457,48.095.335,49.292.041c1.43-.352,2.633,1.666,2.633,1.666a7.423,7.423,0,0,1,.391,2.478Z" transform="translate(0 0)" fill="#cdd6bd"/>
      </g>
      <g id="Group_166600" data-name="Group 166600" transform="translate(6.31 1.495)">
        <path id="Path_124909" data-name="Path 124909" d="M47.948.41.8,35.961a2,2,0,0,0,.74,3.544l13.1,3.194a2.034,2.034,0,0,0,1.668-.323l35.8-25.764a2,2,0,0,0,.817-1.89L51.173,1.741A2.024,2.024,0,0,0,47.948.41Z" transform="translate(0)" fill="#bcc6aa"/>
      </g>
      <g id="Group_166601" data-name="Group 166601" transform="translate(25.832 18.027)">
        <path id="Path_124910" data-name="Path 124910" d="M4.134,29.707c.1.107-1.486-2.191-1.563-2.285C-1.462,22.485-.674,15.414,4.4,11.025a73.32,73.32,0,0,1,13.747-9.4A13.659,13.659,0,0,1,34.014,3.709L36.956,6.45Z" transform="translate(0 0)" fill="#cdd6bd"/>
      </g>
      <g id="Group_166603" data-name="Group 166603" transform="translate(8.176 25.386)">
        <g id="Group_166602" data-name="Group 166602" transform="translate(0 0)">
          <path id="Path_124911" data-name="Path 124911" d="M0,26.218c-.022-.065.428-.209,1.107-.665A6.721,6.721,0,0,0,3.3,22.958a9.815,9.815,0,0,0,.956-4.941,52.621,52.621,0,0,0-.889-6.31,15.807,15.807,0,0,1,.078-6.527A6.961,6.961,0,0,1,6.6.847,5.253,5.253,0,0,1,10.141.062,2.284,2.284,0,0,1,11.38.549c-.027.066-.459-.135-1.273-.191A5.259,5.259,0,0,0,6.889,1.3,6.53,6.53,0,0,0,4.136,5.357a15.858,15.858,0,0,0-.006,6.233A45.709,45.709,0,0,1,4.969,18a10,10,0,0,1-1.184,5.211A6.444,6.444,0,0,1,1.265,25.8,2.544,2.544,0,0,1,0,26.218Z" transform="translate(0 0)" fill="#bcc6aa"/>
        </g>
      </g>
      <g id="Group_166604" data-name="Group 166604" transform="translate(0 51.32)">
        <path id="Path_124912" data-name="Path 124912" d="M8.554.073C5.707-.349,2.862,1.211,0,.9a3.616,3.616,0,0,0,2.355.9c-.172.345-.614.435-1,.5s-.827.214-.924.587A.989.989,0,0,0,.5,3.442,7.955,7.955,0,0,0,1.957,6.056Q4.25,4.532,6.395,2.8C7.274,2.094,8.949,1.292,8.57.133" transform="translate(0 0)" fill="#bcc6aa"/>
      </g>
    </g>
  </g>
</svg>
