<svg xmlns="http://www.w3.org/2000/svg" xmlns:xlink="http://www.w3.org/1999/xlink" width="121" height="110" viewBox="0 0 121 110">
  <defs>
    <clipPath id="clip-path">
      <path id="Rectangle_23697" data-name="Rectangle 23697" d="M0,0H109a12,12,0,0,1,12,12v98a0,0,0,0,1,0,0H0a0,0,0,0,1,0,0V0A0,0,0,0,1,0,0Z" transform="translate(3.81 -1)" fill="#fff" stroke="#707070" stroke-width="1"/>
    </clipPath>
  </defs>
  <g id="Mask_Group_121484" data-name="Mask Group 121484" transform="translate(-3.81 1)" clip-path="url(#clip-path)">
    <g id="Group_166589" data-name="Group 166589" transform="translate(8.572 -7.828)">
      <g id="Group_166566" data-name="Group 166566" transform="translate(24.807 85.404)">
        <g id="Group_166565" data-name="Group 166565">
          <g id="Group_166564" data-name="Group 166564">
            <g id="Group_166563" data-name="Group 166563">
              <path id="Path_124879" data-name="Path 124879" d="M235.921,225.716a8.278,8.278,0,0,0-1.033-2.058,2.969,2.969,0,0,0-1.945-1.215,1.82,1.82,0,0,0-1.922,1.04,10.453,10.453,0,0,0-1.2-4.717,4.735,4.735,0,0,0-4.131-2.427,4.827,4.827,0,0,0-3.731,2.591,13.281,13.281,0,0,0-1.273,4.431,1.782,1.782,0,0,0-2.521.2,4.7,4.7,0,0,0-.928,2.576h19.085Z" transform="translate(-217.234 -216.332)" fill="#fff"/>
            </g>
          </g>
        </g>
      </g>
      <g id="Group_166568" data-name="Group 166568" transform="translate(0 61.261)">
        <g id="Group_166567" data-name="Group 166567">
          <path id="Path_124880" data-name="Path 124880" d="M245.248,229.487l3.67,1.326-3.187.868a3.266,3.266,0,0,0-2.251,2.078l-1.153,3.385-1.418-3.4a3.266,3.266,0,0,0-1.949-1.811l-3.223-1.124,3.491-1.378a3.254,3.254,0,0,0,1.838-1.805l1.262-3.148.9,2.927A3.246,3.246,0,0,0,245.248,229.487Z" transform="translate(-235.737 -224.482)" fill="#fff"/>
        </g>
      </g>
      <g id="Group_166570" data-name="Group 166570" transform="translate(94.025 81.047)">
        <g id="Group_166569" data-name="Group 166569">
          <path id="Path_124881" data-name="Path 124881" d="M86.334,63.071,90,64.4l-3.187.868a3.266,3.266,0,0,0-2.251,2.077l-1.153,3.385L82,67.332a3.265,3.265,0,0,0-1.95-1.811L76.823,64.4l3.491-1.378a3.257,3.257,0,0,0,1.838-1.805l1.261-3.148.9,2.927A3.247,3.247,0,0,0,86.334,63.071Z" transform="translate(-76.823 -58.066)" fill="#c5eaff"/>
        </g>
      </g>
      <g id="Group_166572" data-name="Group 166572" transform="translate(16.307 0.78)">
        <g id="Group_166571" data-name="Group 166571">
          <path id="Path_124882" data-name="Path 124882" d="M90.593,65.313l5.314,1.919-4.614,1.257A4.728,4.728,0,0,0,88.034,71.5l-1.669,4.9-2.053-4.916A4.727,4.727,0,0,0,81.49,68.86l-4.667-1.627,5.055-2a4.716,4.716,0,0,0,2.661-2.614l1.826-4.558,1.31,4.238A4.7,4.7,0,0,0,90.593,65.313Z" transform="translate(-76.823 -58.066)" fill="#c5eaff"/>
        </g>
      </g>
      <g id="Group_166588" data-name="Group 166588" transform="translate(13.182 0)">
        <g id="Group_166573" data-name="Group 166573" transform="translate(0 52.589)">
          <path id="Path_124883" data-name="Path 124883" d="M43.819,186.2c.027.174-1.1.532-2.984.753a26.187,26.187,0,0,1-3.334.159,29.7,29.7,0,0,1-8.065-1.245,25.773,25.773,0,0,1-3.115-1.154c-1.721-.778-2.671-1.455-2.588-1.612.187-.368,4.379,1.492,9.914,2.318C39.172,186.3,43.761,185.8,43.819,186.2Z" transform="translate(-23.729 -183.058)" fill="#5691c4"/>
        </g>
        <g id="Group_166577" data-name="Group 166577" transform="translate(0.091 43.35)">
          <path id="Path_124884" data-name="Path 124884" d="M23.968,171.26a6.189,6.189,0,0,1,2.419-3.574,5.579,5.579,0,0,0,3.489,3.731,11.5,11.5,0,0,1-1.314-3.6,1.369,1.369,0,0,1,.073-.959,1.525,1.525,0,0,1,.906-.548,22.108,22.108,0,0,1,4.4-.877,6.637,6.637,0,0,0,3,5.538,28.267,28.267,0,0,0,4.416,1.9,5.463,5.463,0,0,1,3.348,3.153l.049,1.646a16.137,16.137,0,0,1-10.67.207,32.47,32.47,0,0,1-9.5-5.035,1.755,1.755,0,0,1-.6-.6A1.474,1.474,0,0,1,23.968,171.26Z" transform="translate(-23.896 -165.433)" fill="#5691c4"/>
          <g id="Group_166574" data-name="Group 166574" transform="translate(15.658 10.294)">
            <path id="Path_124885" data-name="Path 124885" d="M52.588,185.09a13.973,13.973,0,0,1,2.434.262,13.887,13.887,0,0,1,2.41.42,9.265,9.265,0,0,1-2.451-.15A9.165,9.165,0,0,1,52.588,185.09Z" transform="translate(-52.588 -185.07)" fill="#263238"/>
          </g>
          <g id="Group_166575" data-name="Group 166575" transform="translate(9.955 9.616)">
            <path id="Path_124886" data-name="Path 124886" d="M42.139,183.781c.026-.039.559.279,1.47.688a16.575,16.575,0,0,0,3.719,1.157,16.762,16.762,0,0,0,3.9.24c1-.058,1.621-.165,1.63-.12a1.39,1.39,0,0,1-.424.125,9.866,9.866,0,0,1-1.19.187,14.25,14.25,0,0,1-3.972-.164,14.087,14.087,0,0,1-3.755-1.253,9.668,9.668,0,0,1-1.035-.594C42.251,183.891,42.128,183.8,42.139,183.781Z" transform="translate(-42.138 -183.778)" fill="#263238"/>
          </g>
          <g id="Group_166576" data-name="Group 166576" transform="translate(17.144 8.597)">
            <path id="Path_124887" data-name="Path 124887" d="M55.312,181.841a6.1,6.1,0,0,1,1.868.84,5.932,5.932,0,0,1,1.642,1.2,10.4,10.4,0,0,1-1.789-.966A10.275,10.275,0,0,1,55.312,181.841Z" transform="translate(-55.311 -181.832)" fill="#263238"/>
          </g>
        </g>
        <path id="Path_124888" data-name="Path 124888" d="M164.548,160.687a3.233,3.233,0,0,0-.295-.445c-.15-1.719-9.885-16.143-9.885-16.143l-57.9,31.4,9.516,15.443.041-.021c3.4,4.318,18.3,1.57,34.023-6.395C156.293,176.3,167.26,165.629,164.548,160.687Z" transform="translate(-56.773 -111.933)" fill="#263238"/>
        <path id="Path_124889" data-name="Path 124889" d="M169.394,170.08c-.086-.156-.524-1.286-.711-1.682a40.011,40.011,0,0,0-2.754-4.6c2.713,4.942-8.552,15.89-24.794,24.116-15.7,7.952-30.581,10.7-34.006,6.413l3.7,6.012.041-.02c3.4,4.318,18.3,1.569,34.023-6.395C161.14,185.7,172.107,175.022,169.394,170.08Z" transform="translate(-61.615 -121.305)" fill="#5691c4"/>
        <g id="Group_166578" data-name="Group 166578" transform="translate(40.434 53.464)" opacity="0.4">
          <path id="Path_124890" data-name="Path 124890" d="M106.367,209.91l-8.548-13.883,24.757-11.3a33.483,33.483,0,0,1-12.429,23.783,5.742,5.742,0,0,1-3.485,1.589" transform="translate(-97.819 -184.727)"/>
        </g>
        <g id="Group_166580" data-name="Group 166580" transform="translate(71.643 40.378)">
          <g id="Group_166579" data-name="Group 166579" opacity="0.1">
            <path id="Path_124891" data-name="Path 124891" d="M182.452,181.959c-3.788-7.736-8.592-14.981-13.379-22.195l-8.427,2.807-5.639,3.058,13.907,22.68a19.209,19.209,0,0,0,1.225,1.818A86.091,86.091,0,0,0,182.452,181.959Z" transform="translate(-155.007 -159.764)" fill="#fff"/>
          </g>
        </g>
        <path id="Path_124892" data-name="Path 124892" d="M61.961,120.166l-4.983,34.491,1.231,2.287,87.192-39.1L142.994,85.66l-2.079-2.923L63.67,117.928A2.933,2.933,0,0,0,61.961,120.166Z" transform="translate(-38.833 -82.737)" fill="#263238"/>
        <path id="Path_124893" data-name="Path 124893" d="M56.978,154.657l4.983-34.491a2.933,2.933,0,0,1,1.709-2.238l77.245-35.191,2.937,32.385Z" transform="translate(-38.833 -82.737)" fill="#fff" opacity="0.1"/>
        <g id="Group_166581" data-name="Group 166581" transform="translate(21.524 35.56)">
          <path id="Path_124894" data-name="Path 124894" d="M63.654,170.312c5.535,1.374,11.146.091,16.153-2.327A62.732,62.732,0,0,0,93.726,158.4a78.841,78.841,0,0,0,6.713-6.686c.569-.637-.392-1.568-.964-.926A76.308,76.308,0,0,1,87.5,161.7c-4.309,3.137-9.064,6.07-14.37,7.322a19.314,19.314,0,0,1-9.117.025.657.657,0,1,0-.363,1.264Z" transform="translate(-63.17 -150.573)" fill="#5691c4"/>
        </g>
        <path id="Path_124895" data-name="Path 124895" d="M210.783,82.737l2.079,2.924,2.407,32.187-1.549-2.725Z" transform="translate(-108.701 -82.737)" fill="#fff" opacity="0.3"/>
        <g id="Group_166582" data-name="Group 166582" transform="translate(19.916 35.11)" opacity="0.3">
          <path id="Path_124896" data-name="Path 124896" d="M146.875,149.715c.033.068-19.339,8.822-43.264,19.55s-43.355,19.372-43.388,19.3,19.335-8.82,43.268-19.552S146.842,149.647,146.875,149.715Z" transform="translate(-60.223 -149.714)" fill="#fff"/>
        </g>
        <g id="Group_166583" data-name="Group 166583" transform="translate(38.92 35.561)" opacity="0.3">
          <path id="Path_124897" data-name="Path 124897" d="M117.8,150.574a12.292,12.292,0,0,0-3.29,4.27c-5.237,9.154-10.861,16.242-19.46,22.636l10.681-4.838C108.984,168.346,116.126,157.682,117.8,150.574Z" transform="translate(-95.045 -150.574)"/>
        </g>
        <g id="Group_166584" data-name="Group 166584" transform="translate(56.887 31.803)">
          <path id="Path_124898" data-name="Path 124898" d="M138.194,143.41c.174.049.161.8-.37,1.866a7.523,7.523,0,0,1-3.347,3.262,7.963,7.963,0,0,1-4.7.755c-1.216-.2-1.86-.618-1.8-.782.059-.192.773-.121,1.86-.181a10.232,10.232,0,0,0,3.991-1,9.81,9.81,0,0,0,3.148-2.559C137.647,143.948,138,143.346,138.194,143.41Z" transform="translate(-127.968 -143.405)" fill="#5691c4"/>
        </g>
        <g id="Group_166585" data-name="Group 166585" transform="translate(56.659 29.496)">
          <path id="Path_124899" data-name="Path 124899" d="M137.742,142.891c.575,1.169-1.147,3.11-3.845,4.336s-5.353,1.272-5.928.1,1.147-3.11,3.845-4.336S137.167,141.722,137.742,142.891Z" transform="translate(-127.69 -140.45)" fill="#263238"/>
          <path id="Path_124900" data-name="Path 124900" d="M134.423,139.1a6.823,6.823,0,0,0-3.655.467,4.937,4.937,0,0,0-2.748,2.425,4.637,4.637,0,0,0-.2,3.579l9.786-4.123A5.289,5.289,0,0,0,134.423,139.1Z" transform="translate(-127.551 -139.004)" fill="#263238"/>
        </g>
        <g id="Group_166587" data-name="Group 166587" transform="translate(19.309 52.13)">
          <path id="Path_124901" data-name="Path 124901" d="M64.606,185.362a2.625,2.625,0,0,1-3.034,2.077,2.543,2.543,0,0,1-2.162-2.915,2.625,2.625,0,0,1,3.034-2.077A2.544,2.544,0,0,1,64.606,185.362Z" transform="translate(-59.229 -182.292)" fill="#5691c4"/>
          <g id="Group_166586" data-name="Group 166586">
            <path id="Path_124902" data-name="Path 124902" d="M64.486,185.253c-.028,0,.015-.226-.03-.618a2.484,2.484,0,0,0-.723-1.465,2.606,2.606,0,0,0-2.3-.7,2.476,2.476,0,0,0-2.006,1.966,2.4,2.4,0,0,0,1.228,2.488,2.631,2.631,0,0,0,2.409.06,2.571,2.571,0,0,0,1.181-1.158c.176-.356.211-.58.238-.575.01,0,.007.058-.008.164a1.866,1.866,0,0,1-.129.453,2.548,2.548,0,0,1-1.189,1.286,2.825,2.825,0,0,1-2.632-.011,2.633,2.633,0,0,1-1.38-2.753,2.721,2.721,0,0,1,2.239-2.169,2.791,2.791,0,0,1,2.491.814,2.465,2.465,0,0,1,.687,1.588,1.831,1.831,0,0,1-.032.47C64.512,185.2,64.5,185.254,64.486,185.253Z" transform="translate(-59.11 -182.183)" fill="#263238"/>
          </g>
        </g>
      </g>
    </g>
  </g>
</svg>
