<svg width="444" height="290" viewBox="0 0 444 290" fill="none" xmlns="http://www.w3.org/2000/svg">
<path d="M171.567 95.6894L114.752 0.614868H228.367L171.567 95.6894Z" fill="#7D7D7D" fill-opacity="0.1"/>
<path d="M228.946 1.45618L172.131 96.5307H285.746L228.946 1.45618Z" fill="#7D7D7D" fill-opacity="0.1"/>
<path d="M114.194 1.45618L57.3789 96.5307H170.994L114.194 1.45618Z" fill="#7D7D7D" fill-opacity="0.1"/>
<path d="M114.194 192.192L57.3789 97.3571H170.994L114.194 192.192Z" fill="#7D7D7D" fill-opacity="0.1"/>
<path d="M228.946 192.192L172.131 97.3571H285.746L228.946 192.192Z" fill="#7D7D7D" fill-opacity="0.1"/>
<path d="M56.8152 98.1981L0 193.033H113.615L56.8152 98.1981Z" fill="#7D7D7D" fill-opacity="0.1"/>
<path d="M286.323 98.1981L229.508 193.033H343.123L286.323 98.1981Z" fill="#7D7D7D" fill-opacity="0.1"/>
<path d="M56.9857 290L0 194.099H113.956L56.9857 290Z" fill="#7D7D7D" fill-opacity="0.1"/>
<path d="M287.12 288.934L230.305 194.099H343.92L287.12 288.934Z" fill="#7D7D7D" fill-opacity="0.1"/>
<path d="M171.339 194.099L113.955 290H228.708L171.339 194.099Z" fill="#7D7D7D" fill-opacity="0.1"/>
<path d="M344.493 194.94L287.678 289.775H401.293L344.493 194.94Z" fill="#7D7D7D" fill-opacity="0.1"/>
<path d="M345.057 194.099L402.201 290H402.431L443.872 194.099H345.057Z" fill="#7D7D7D" fill-opacity="0.1"/>
</svg>
