<svg width="270" height="296" viewBox="0 0 270 296" fill="none" xmlns="http://www.w3.org/2000/svg">
<path d="M187.23 168.889H136.262C135.544 168.889 134.961 169.472 134.961 170.191V191.449C134.961 192.168 135.544 192.75 136.262 192.75H187.23C187.949 192.75 188.532 192.168 188.532 191.449V170.191C188.532 169.472 187.949 168.889 187.23 168.889Z" fill="#0093C9"/>
<path opacity="0.6" d="M187.23 168.889H136.262C135.544 168.889 134.961 169.472 134.961 170.191V191.449C134.961 192.168 135.544 192.75 136.262 192.75H187.23C187.949 192.75 188.532 192.168 188.532 191.449V170.191C188.532 169.472 187.949 168.889 187.23 168.889Z" fill="white"/>
<path opacity="0.1" d="M187.222 168.889H136.237C135.892 168.889 135.561 169.026 135.317 169.27C135.073 169.514 134.936 169.845 134.936 170.191V177.007L161.467 182.23C161.629 182.263 161.796 182.263 161.959 182.23L188.498 177.007V170.191C188.498 169.85 188.365 169.522 188.126 169.279C187.887 169.036 187.563 168.896 187.222 168.889Z" fill="black"/>
<path d="M188.339 160.162H172.77V157.551C172.768 156.471 172.339 155.437 171.576 154.674C170.812 153.911 169.778 153.481 168.699 153.479H154.791C153.712 153.481 152.678 153.911 151.915 154.674C151.152 155.437 150.722 156.471 150.72 157.551V160.162H135.16C134.819 160.162 134.492 160.297 134.251 160.538C134.01 160.779 133.875 161.106 133.875 161.447V174.303C133.877 174.6 133.98 174.887 134.169 175.117C134.357 175.346 134.619 175.504 134.91 175.563L161.499 180.794C161.662 180.819 161.828 180.819 161.991 180.794L188.581 175.563C188.872 175.504 189.135 175.347 189.325 175.118C189.514 174.888 189.62 174.601 189.624 174.303V161.447C189.624 161.106 189.488 160.779 189.247 160.538C189.006 160.297 188.679 160.162 188.339 160.162ZM153.815 157.551C153.817 157.292 153.92 157.044 154.103 156.86C154.285 156.676 154.532 156.57 154.791 156.566H168.699C168.958 156.57 169.205 156.676 169.387 156.86C169.57 157.044 169.673 157.292 169.675 157.551V160.162H153.823L153.815 157.551Z" fill="#0093C9"/>
<path opacity="0.6" d="M188.339 160.162H172.77V157.551C172.768 156.471 172.339 155.437 171.576 154.674C170.812 153.911 169.778 153.481 168.699 153.479H154.791C153.712 153.481 152.678 153.911 151.915 154.674C151.152 155.437 150.722 156.471 150.72 157.551V160.162H135.16C134.819 160.162 134.492 160.297 134.251 160.538C134.01 160.779 133.875 161.106 133.875 161.447V174.303C133.877 174.6 133.98 174.887 134.169 175.117C134.357 175.346 134.619 175.504 134.91 175.563L161.499 180.794C161.662 180.819 161.828 180.819 161.991 180.794L188.581 175.563C188.872 175.504 189.135 175.347 189.325 175.118C189.514 174.888 189.62 174.601 189.624 174.303V161.447C189.624 161.106 189.488 160.779 189.247 160.538C189.006 160.297 188.679 160.162 188.339 160.162ZM153.815 157.551C153.817 157.292 153.92 157.044 154.103 156.86C154.285 156.676 154.532 156.57 154.791 156.566H168.699C168.958 156.57 169.205 156.676 169.387 156.86C169.57 157.044 169.673 157.292 169.675 157.551V160.162H153.823L153.815 157.551Z" fill="white"/>
<path d="M164.494 177.282H159.004C158.322 177.282 157.77 177.835 157.77 178.517V181.988C157.77 182.67 158.322 183.223 159.004 183.223H164.494C165.176 183.223 165.729 182.67 165.729 181.988V178.517C165.729 177.835 165.176 177.282 164.494 177.282Z" fill="#0093C9"/>
<path opacity="0.3" d="M164.494 177.282H159.004C158.322 177.282 157.77 177.835 157.77 178.517V181.988C157.77 182.67 158.322 183.223 159.004 183.223H164.494C165.176 183.223 165.729 182.67 165.729 181.988V178.517C165.729 177.835 165.176 177.282 164.494 177.282Z" fill="white"/>
<path d="M187.23 15.4101H136.262C135.544 15.4101 134.961 15.9928 134.961 16.7116V37.9698C134.961 38.6886 135.544 39.2713 136.262 39.2713H187.23C187.949 39.2713 188.532 38.6886 188.532 37.9698V16.7116C188.532 15.9928 187.949 15.4101 187.23 15.4101Z" fill="#0093C9"/>
<path opacity="0.6" d="M187.23 15.4101H136.262C135.544 15.4101 134.961 15.9928 134.961 16.7116V37.9698C134.961 38.6886 135.544 39.2713 136.262 39.2713H187.23C187.949 39.2713 188.532 38.6886 188.532 37.9698V16.7116C188.532 15.9928 187.949 15.4101 187.23 15.4101Z" fill="white"/>
<path opacity="0.1" d="M187.222 15.4101H136.237C135.892 15.4101 135.561 15.5472 135.317 15.7913C135.073 16.0354 134.936 16.3665 134.936 16.7116V23.5279L161.467 28.7507C161.629 28.784 161.796 28.784 161.959 28.7507L188.498 23.5279V16.7116C188.498 16.3707 188.365 16.0434 188.126 15.8001C187.887 15.5567 187.563 15.4167 187.222 15.4101Z" fill="black"/>
<path d="M188.339 6.68289H172.77V4.0715C172.768 2.99237 172.339 1.95807 171.576 1.19501C170.812 0.431943 169.778 0.00228086 168.699 7.62939e-05H154.791C153.712 0.00228086 152.678 0.431943 151.915 1.19501C151.152 1.95807 150.722 2.99237 150.72 4.0715V6.68289H135.16C134.819 6.68289 134.492 6.81826 134.251 7.05921C134.01 7.30016 133.875 7.62697 133.875 7.96773V20.8244C133.875 21.1217 133.978 21.4097 134.167 21.6394C134.356 21.8691 134.618 22.0263 134.91 22.0842L161.499 27.282C161.661 27.3152 161.829 27.3152 161.991 27.282L188.581 22.0509C188.869 21.9961 189.13 21.8449 189.321 21.622C189.512 21.3991 189.622 21.1178 189.632 20.8244V7.96773C189.632 7.79829 189.598 7.63053 189.533 7.4741C189.468 7.31768 189.373 7.17567 189.253 7.05625C189.132 6.93683 188.99 6.84236 188.833 6.77829C188.676 6.71421 188.508 6.68179 188.339 6.68289ZM153.815 4.0715C153.815 3.81184 153.918 3.56269 154.1 3.3783C154.283 3.19391 154.531 3.08922 154.791 3.08702H168.699C168.957 3.0892 169.204 3.19274 169.387 3.37533C169.569 3.55793 169.673 3.80494 169.675 4.06316V6.67455H153.823L153.815 4.0715Z" fill="#0093C9"/>
<path opacity="0.6" d="M188.339 6.68289H172.77V4.0715C172.768 2.99237 172.339 1.95807 171.576 1.19501C170.812 0.431943 169.778 0.00228086 168.699 7.62939e-05H154.791C153.712 0.00228086 152.678 0.431943 151.915 1.19501C151.152 1.95807 150.722 2.99237 150.72 4.0715V6.68289H135.16C134.819 6.68289 134.492 6.81826 134.251 7.05921C134.01 7.30016 133.875 7.62697 133.875 7.96773V20.8244C133.875 21.1217 133.978 21.4097 134.167 21.6394C134.356 21.8691 134.618 22.0263 134.91 22.0842L161.499 27.282C161.661 27.3152 161.829 27.3152 161.991 27.282L188.581 22.0509C188.869 21.9961 189.13 21.8449 189.321 21.622C189.512 21.3991 189.622 21.1178 189.632 20.8244V7.96773C189.632 7.79829 189.598 7.63053 189.533 7.4741C189.468 7.31768 189.373 7.17567 189.253 7.05625C189.132 6.93683 188.99 6.84236 188.833 6.77829C188.676 6.71421 188.508 6.68179 188.339 6.68289ZM153.815 4.0715C153.815 3.81184 153.918 3.56269 154.1 3.3783C154.283 3.19391 154.531 3.08922 154.791 3.08702H168.699C168.957 3.0892 169.204 3.19274 169.387 3.37533C169.569 3.55793 169.673 3.80494 169.675 4.06316V6.67455H153.823L153.815 4.0715Z" fill="white"/>
<path d="M164.494 23.8107H159.004C158.322 23.8107 157.77 24.3636 157.77 25.0455V28.5163C157.77 29.1982 158.322 29.751 159.004 29.751H164.494C165.176 29.751 165.729 29.1982 165.729 28.5163V25.0455C165.729 24.3636 165.176 23.8107 164.494 23.8107Z" fill="#0093C9"/>
<path opacity="0.3" d="M164.494 23.8107H159.004C158.322 23.8107 157.77 24.3636 157.77 25.0455V28.5163C157.77 29.1982 158.322 29.751 159.004 29.751H164.494C165.176 29.751 165.729 29.1982 165.729 28.5163V25.0455C165.729 24.3636 165.176 23.8107 164.494 23.8107Z" fill="white"/>
<path d="M107.838 168.889H56.8699C56.1511 168.889 55.5684 169.472 55.5684 170.191V191.449C55.5684 192.168 56.1511 192.75 56.8699 192.75H107.838C108.557 192.75 109.139 192.168 109.139 191.449V170.191C109.139 169.472 108.557 168.889 107.838 168.889Z" fill="#0093C9"/>
<path opacity="0.6" d="M107.838 168.889H56.8699C56.1511 168.889 55.5684 169.472 55.5684 170.191V191.449C55.5684 192.168 56.1511 192.75 56.8699 192.75H107.838C108.557 192.75 109.139 192.168 109.139 191.449V170.191C109.139 169.472 108.557 168.889 107.838 168.889Z" fill="white"/>
<path opacity="0.1" d="M107.871 168.889H56.8699C56.5247 168.889 56.1937 169.026 55.9496 169.27C55.7055 169.514 55.5684 169.845 55.5684 170.191V177.007L82.0994 182.23C82.2646 182.263 82.4348 182.263 82.6 182.23L109.139 177.007V170.191C109.139 169.851 109.007 169.525 108.77 169.282C108.533 169.039 108.211 168.898 107.871 168.889Z" fill="black"/>
<path d="M108.938 160.162H93.3701V157.551C93.3679 156.471 92.9382 155.437 92.1752 154.674C91.4121 153.911 90.3778 153.481 89.2987 153.479H75.3991C74.3199 153.481 73.2856 153.911 72.5226 154.674C71.7595 155.437 71.3299 156.471 71.3276 157.551V160.162H55.7594C55.4187 160.162 55.0919 160.297 54.8509 160.538C54.61 160.779 54.4746 161.106 54.4746 161.447V174.303C54.4763 174.6 54.58 174.887 54.7684 175.117C54.9568 175.346 55.2183 175.504 55.5092 175.563L82.0986 180.794C82.2645 180.82 82.4333 180.82 82.5992 180.794L109.189 175.563C109.479 175.504 109.741 175.346 109.929 175.117C110.118 174.887 110.221 174.6 110.223 174.303V161.447C110.223 161.106 110.088 160.779 109.847 160.538C109.606 160.297 109.279 160.162 108.938 160.162ZM74.4146 157.551C74.4189 157.291 74.524 157.043 74.7077 156.859C74.8914 156.675 75.1393 156.57 75.3991 156.566H89.2987C89.5584 156.57 89.8063 156.675 89.9901 156.859C90.1738 157.043 90.2789 157.291 90.2831 157.551V160.162H74.4313L74.4146 157.551Z" fill="#0093C9"/>
<path opacity="0.6" d="M108.938 160.162H93.3701V157.551C93.3679 156.471 92.9382 155.437 92.1752 154.674C91.4121 153.911 90.3778 153.481 89.2987 153.479H75.3991C74.3199 153.481 73.2856 153.911 72.5226 154.674C71.7595 155.437 71.3299 156.471 71.3276 157.551V160.162H55.7594C55.4187 160.162 55.0919 160.297 54.8509 160.538C54.61 160.779 54.4746 161.106 54.4746 161.447V174.303C54.4763 174.6 54.58 174.887 54.7684 175.117C54.9568 175.346 55.2183 175.504 55.5092 175.563L82.0986 180.794C82.2645 180.82 82.4333 180.82 82.5992 180.794L109.189 175.563C109.479 175.504 109.741 175.346 109.929 175.117C110.118 174.887 110.221 174.6 110.223 174.303V161.447C110.223 161.106 110.088 160.779 109.847 160.538C109.606 160.297 109.279 160.162 108.938 160.162ZM74.4146 157.551C74.4189 157.291 74.524 157.043 74.7077 156.859C74.8914 156.675 75.1393 156.57 75.3991 156.566H89.2987C89.5584 156.57 89.8063 156.675 89.9901 156.859C90.1738 157.043 90.2789 157.291 90.2831 157.551V160.162H74.4313L74.4146 157.551Z" fill="white"/>
<path d="M85.0937 177.282H79.6039C78.922 177.282 78.3691 177.835 78.3691 178.517V181.988C78.3691 182.67 78.922 183.223 79.6039 183.223H85.0937C85.7756 183.223 86.3284 182.67 86.3284 181.988V178.517C86.3284 177.835 85.7756 177.282 85.0937 177.282Z" fill="#0093C9"/>
<path opacity="0.3" d="M85.0937 177.282H79.6039C78.922 177.282 78.3691 177.835 78.3691 178.517V181.988C78.3691 182.67 78.922 183.223 79.6039 183.223H85.0937C85.7756 183.223 86.3284 182.67 86.3284 181.988V178.517C86.3284 177.835 85.7756 177.282 85.0937 177.282Z" fill="white"/>
<path d="M107.838 15.4101H56.8699C56.1511 15.4101 55.5684 15.9928 55.5684 16.7116V37.9698C55.5684 38.6886 56.1511 39.2713 56.8699 39.2713H107.838C108.557 39.2713 109.139 38.6886 109.139 37.9698V16.7116C109.139 15.9928 108.557 15.4101 107.838 15.4101Z" fill="#0093C9"/>
<path opacity="0.6" d="M107.838 15.4101H56.8699C56.1511 15.4101 55.5684 15.9928 55.5684 16.7116V37.9698C55.5684 38.6886 56.1511 39.2713 56.8699 39.2713H107.838C108.557 39.2713 109.139 38.6886 109.139 37.9698V16.7116C109.139 15.9928 108.557 15.4101 107.838 15.4101Z" fill="white"/>
<path opacity="0.1" d="M107.871 15.4101H56.8699C56.5247 15.4101 56.1937 15.5472 55.9496 15.7913C55.7055 16.0354 55.5684 16.3665 55.5684 16.7116V23.5279L82.0994 28.7507C82.2646 28.7842 82.4348 28.7842 82.6 28.7507L109.139 23.5279V16.7116C109.139 16.3722 109.007 16.0461 108.77 15.8029C108.533 15.5598 108.211 15.4188 107.871 15.4101Z" fill="black"/>
<path d="M108.938 6.68289H93.3701V4.0715C93.3679 2.99237 92.9382 1.95807 92.1752 1.19501C91.4121 0.431943 90.3778 0.00228086 89.2987 7.62939e-05H75.3991C74.3199 0.00228086 73.2856 0.431943 72.5226 1.19501C71.7595 1.95807 71.3299 2.99237 71.3276 4.0715V6.68289H55.7594C55.4187 6.68289 55.0919 6.81826 54.8509 7.05921C54.61 7.30016 54.4746 7.62697 54.4746 7.96772V20.8244C54.4747 21.1217 54.5779 21.4097 54.7665 21.6394C54.9551 21.8691 55.2176 22.0263 55.5092 22.0842L82.0986 27.282C82.2638 27.3155 82.434 27.3155 82.5992 27.282L109.189 22.0509C109.48 21.993 109.743 21.8357 109.931 21.606C110.12 21.3763 110.223 21.0883 110.223 20.7911V7.96772C110.223 7.62697 110.088 7.30016 109.847 7.05921C109.606 6.81826 109.279 6.68289 108.938 6.68289ZM74.4146 4.0715C74.4168 3.81108 74.5212 3.56193 74.7054 3.37778C74.8895 3.19362 75.1387 3.0892 75.3991 3.08702H89.2987C89.5577 3.08916 89.8056 3.19243 89.9895 3.3748C90.1734 3.55717 90.2788 3.80419 90.2831 4.06316V6.67455H74.4313L74.4146 4.0715Z" fill="#0093C9"/>
<path opacity="0.6" d="M108.938 6.68289H93.3701V4.0715C93.3679 2.99237 92.9382 1.95807 92.1752 1.19501C91.4121 0.431943 90.3778 0.00228086 89.2987 7.62939e-05H75.3991C74.3199 0.00228086 73.2856 0.431943 72.5226 1.19501C71.7595 1.95807 71.3299 2.99237 71.3276 4.0715V6.68289H55.7594C55.4187 6.68289 55.0919 6.81826 54.8509 7.05921C54.61 7.30016 54.4746 7.62697 54.4746 7.96772V20.8244C54.4747 21.1217 54.5779 21.4097 54.7665 21.6394C54.9551 21.8691 55.2176 22.0263 55.5092 22.0842L82.0986 27.282C82.2638 27.3155 82.434 27.3155 82.5992 27.282L109.189 22.0509C109.48 21.993 109.743 21.8357 109.931 21.606C110.12 21.3763 110.223 21.0883 110.223 20.7911V7.96772C110.223 7.62697 110.088 7.30016 109.847 7.05921C109.606 6.81826 109.279 6.68289 108.938 6.68289ZM74.4146 4.0715C74.4168 3.81108 74.5212 3.56193 74.7054 3.37778C74.8895 3.19362 75.1387 3.0892 75.3991 3.08702H89.2987C89.5577 3.08916 89.8056 3.19243 89.9895 3.3748C90.1734 3.55717 90.2788 3.80419 90.2831 4.06316V6.67455H74.4313L74.4146 4.0715Z" fill="white"/>
<path d="M85.0937 23.8107H79.6039C78.922 23.8107 78.3691 24.3636 78.3691 25.0455V28.5163C78.3691 29.1982 78.922 29.751 79.6039 29.751H85.0937C85.7756 29.751 86.3284 29.1982 86.3284 28.5163V25.0455C86.3284 24.3636 85.7756 23.8107 85.0937 23.8107Z" fill="#0093C9"/>
<path opacity="0.3" d="M85.0937 23.8107H79.6039C78.922 23.8107 78.3691 24.3636 78.3691 25.0455V28.5163C78.3691 29.1982 78.922 29.751 79.6039 29.751H85.0937C85.7756 29.751 86.3284 29.1982 86.3284 28.5163V25.0455C86.3284 24.3636 85.7756 23.8107 85.0937 23.8107Z" fill="white"/>
<path d="M101.195 116.011H56.8685C56.5211 116.011 56.1879 115.873 55.9422 115.627C55.6966 115.382 55.5586 115.049 55.5586 114.701V93.4513C55.5599 93.276 55.5968 93.1029 55.6671 92.9423C55.701 92.8674 55.74 92.795 55.7839 92.7254C55.8303 92.654 55.8865 92.5894 55.9507 92.5335C56.1937 92.2891 56.5238 92.1511 56.8685 92.1497H98.8259C98.4768 95.0615 98.3624 97.9966 98.4838 100.927C98.4838 101.402 98.4838 101.878 98.5589 102.345C98.6173 103.221 98.684 104.105 98.7841 104.981C99.2136 108.73 100.021 112.425 101.195 116.011Z" fill="#0093C9"/>
<path opacity="0.6" d="M101.195 116.011H56.8685C56.5211 116.011 56.1879 115.873 55.9422 115.627C55.6966 115.382 55.5586 115.049 55.5586 114.701V93.4513C55.5599 93.276 55.5968 93.1029 55.6671 92.9423C55.701 92.8674 55.74 92.795 55.7839 92.7254C55.8303 92.654 55.8865 92.5894 55.9507 92.5335C56.1937 92.2891 56.5238 92.1511 56.8685 92.1497H98.8259C98.4768 95.0615 98.3624 97.9966 98.4838 100.927C98.4838 101.402 98.4838 101.878 98.5589 102.345C98.6173 103.221 98.684 104.105 98.7841 104.981C99.2136 108.73 100.021 112.425 101.195 116.011Z" fill="white"/>
<path opacity="0.1" d="M98.8273 92.1497C98.4782 95.0615 98.3638 97.9966 98.4852 100.927C98.4852 101.402 98.4852 101.878 98.5603 102.345L86.3293 104.748L82.5916 105.482C82.4302 105.524 82.2608 105.524 82.0994 105.482L78.37 104.756L55.5684 100.268V93.4429C55.571 93.2714 55.6049 93.1017 55.6685 92.9423C55.7024 92.8674 55.7414 92.795 55.7853 92.7254C55.8317 92.654 55.8879 92.5894 55.9521 92.5335C56.1952 92.2891 56.5252 92.1511 56.8699 92.1497H98.8273Z" fill="black"/>
<path d="M100.57 83.4223H93.3784V80.8109C93.374 79.731 92.9425 78.6967 92.1781 77.9339C91.4137 77.171 90.3786 76.7417 89.2987 76.7395H75.3991C74.3193 76.7395 73.2837 77.1684 72.5201 77.932C71.7566 78.6955 71.3276 79.7311 71.3276 80.8109V83.4223H55.7594C55.5907 83.4223 55.4236 83.4555 55.2678 83.5201C55.1119 83.5846 54.9702 83.6793 54.8509 83.7986C54.7316 83.9179 54.637 84.0595 54.5724 84.2154C54.5078 84.3713 54.4746 84.5384 54.4746 84.7071V97.5555C54.4747 97.8549 54.5788 98.145 54.769 98.3763C54.9592 98.6075 55.2237 98.7657 55.5175 98.8236H55.5676L78.3692 103.321L82.0986 104.046C82.261 104.08 82.4284 104.08 82.5908 104.046L86.3285 103.312L98.4844 100.918C98.363 97.9876 98.4774 95.0526 98.8265 92.1408C99.173 89.1926 99.7561 86.277 100.57 83.4223ZM74.4146 80.8109C74.4189 80.5519 74.5243 80.3049 74.7082 80.1225C74.8922 79.9402 75.1401 79.8369 75.3991 79.8347H89.2987C89.5569 79.8369 89.8039 79.9405 89.9865 80.1231C90.1691 80.3056 90.2726 80.5527 90.2748 80.8109V83.4223H74.4229L74.4146 80.8109Z" fill="#0093C9"/>
<path opacity="0.6" d="M100.57 83.4223H93.3784V80.8109C93.374 79.731 92.9425 78.6967 92.1781 77.9339C91.4137 77.171 90.3786 76.7417 89.2987 76.7395H75.3991C74.3193 76.7395 73.2837 77.1684 72.5201 77.932C71.7566 78.6955 71.3276 79.7311 71.3276 80.8109V83.4223H55.7594C55.5907 83.4223 55.4236 83.4555 55.2678 83.5201C55.1119 83.5846 54.9702 83.6793 54.8509 83.7986C54.7316 83.9179 54.637 84.0595 54.5724 84.2154C54.5078 84.3713 54.4746 84.5384 54.4746 84.7071V97.5555C54.4747 97.8549 54.5788 98.145 54.769 98.3763C54.9592 98.6075 55.2237 98.7657 55.5175 98.8236H55.5676L78.3692 103.321L82.0986 104.046C82.261 104.08 82.4284 104.08 82.5908 104.046L86.3285 103.312L98.4844 100.918C98.363 97.9876 98.4774 95.0526 98.8265 92.1408C99.173 89.1926 99.7561 86.277 100.57 83.4223ZM74.4146 80.8109C74.4189 80.5519 74.5243 80.3049 74.7082 80.1225C74.8922 79.9402 75.1401 79.8369 75.3991 79.8347H89.2987C89.5569 79.8369 89.8039 79.9405 89.9865 80.1231C90.1691 80.3056 90.2726 80.5527 90.2748 80.8109V83.4223H74.4229L74.4146 80.8109Z" fill="white"/>
<path d="M85.0937 100.543H79.6039C78.922 100.543 78.3691 101.096 78.3691 101.777V105.248C78.3691 105.93 78.922 106.483 79.6039 106.483H85.0937C85.7756 106.483 86.3284 105.93 86.3284 105.248V101.777C86.3284 101.096 85.7756 100.543 85.0937 100.543Z" fill="#0093C9"/>
<path opacity="0.3" d="M85.0937 100.543H79.6039C78.922 100.543 78.3691 101.096 78.3691 101.777V105.248C78.3691 105.93 78.922 106.483 79.6039 106.483H85.0937C85.7756 106.483 86.3284 105.93 86.3284 105.248V101.777C86.3284 101.096 85.7756 100.543 85.0937 100.543Z" fill="white"/>
<path d="M215.654 192.743H266.622C267.341 192.743 267.924 192.16 267.924 191.441V170.183C267.924 169.464 267.341 168.882 266.622 168.882H215.654C214.936 168.882 214.353 169.464 214.353 170.183V191.441C214.353 192.16 214.936 192.743 215.654 192.743Z" fill="#0093C9"/>
<path opacity="0.6" d="M215.654 192.743H266.622C267.341 192.743 267.924 192.16 267.924 191.441V170.183C267.924 169.464 267.341 168.882 266.622 168.882H215.654C214.936 168.882 214.353 169.464 214.353 170.183V191.441C214.353 192.16 214.936 192.743 215.654 192.743Z" fill="white"/>
<path opacity="0.1" d="M215.663 168.89H266.623C266.968 168.89 267.299 169.027 267.543 169.271C267.787 169.515 267.924 169.846 267.924 170.191V177.007L241.36 182.23C241.197 182.263 241.03 182.263 240.867 182.23L214.328 177.007V170.191C214.328 170.017 214.363 169.845 214.43 169.685C214.498 169.525 214.597 169.38 214.721 169.259C214.845 169.137 214.993 169.042 215.155 168.979C215.316 168.915 215.489 168.885 215.663 168.89Z" fill="black"/>
<path d="M214.553 160.162H230.121V157.551C230.123 156.471 230.553 155.437 231.316 154.674C232.079 153.911 233.113 153.481 234.192 153.479H248.1C249.179 153.481 250.214 153.911 250.977 154.674C251.74 155.437 252.169 156.471 252.172 157.551V160.162H267.731C267.9 160.162 268.067 160.195 268.223 160.26C268.379 160.324 268.521 160.419 268.64 160.538C268.759 160.658 268.854 160.799 268.918 160.955C268.983 161.111 269.016 161.278 269.016 161.447V174.303C269.015 174.6 268.911 174.887 268.722 175.117C268.534 175.346 268.273 175.504 267.982 175.563L241.359 180.794C241.193 180.82 241.024 180.82 240.858 180.794L214.269 175.563C213.978 175.504 213.717 175.346 213.528 175.117C213.34 174.887 213.236 174.6 213.234 174.303V161.447C213.234 161.275 213.269 161.105 213.335 160.947C213.402 160.789 213.5 160.646 213.622 160.526C213.745 160.406 213.891 160.313 214.051 160.25C214.21 160.187 214.381 160.157 214.553 160.162ZM249.076 157.551C249.074 157.292 248.971 157.044 248.788 156.86C248.606 156.676 248.359 156.57 248.1 156.566H234.192C233.932 156.57 233.685 156.675 233.501 156.859C233.317 157.043 233.212 157.291 233.208 157.551V160.162H249.06L249.076 157.551Z" fill="#0093C9"/>
<path opacity="0.6" d="M214.553 160.162H230.121V157.551C230.123 156.471 230.553 155.437 231.316 154.674C232.079 153.911 233.113 153.481 234.192 153.479H248.1C249.179 153.481 250.214 153.911 250.977 154.674C251.74 155.437 252.169 156.471 252.172 157.551V160.162H267.731C267.9 160.162 268.067 160.195 268.223 160.26C268.379 160.324 268.521 160.419 268.64 160.538C268.759 160.658 268.854 160.799 268.918 160.955C268.983 161.111 269.016 161.278 269.016 161.447V174.303C269.015 174.6 268.911 174.887 268.722 175.117C268.534 175.346 268.273 175.504 267.982 175.563L241.359 180.794C241.193 180.82 241.024 180.82 240.858 180.794L214.269 175.563C213.978 175.504 213.717 175.346 213.528 175.117C213.34 174.887 213.236 174.6 213.234 174.303V161.447C213.234 161.275 213.269 161.105 213.335 160.947C213.402 160.789 213.5 160.646 213.622 160.526C213.745 160.406 213.891 160.313 214.051 160.25C214.21 160.187 214.381 160.157 214.553 160.162ZM249.076 157.551C249.074 157.292 248.971 157.044 248.788 156.86C248.606 156.676 248.359 156.57 248.1 156.566H234.192C233.932 156.57 233.685 156.675 233.501 156.859C233.317 157.043 233.212 157.291 233.208 157.551V160.162H249.06L249.076 157.551Z" fill="white"/>
<path d="M238.399 183.223H243.888C244.57 183.223 245.123 182.67 245.123 181.988V178.517C245.123 177.835 244.57 177.282 243.888 177.282H238.399C237.717 177.282 237.164 177.835 237.164 178.517V181.988C237.164 182.67 237.717 183.223 238.399 183.223Z" fill="#0093C9"/>
<path opacity="0.3" d="M238.399 183.223H243.888C244.57 183.223 245.123 182.67 245.123 181.988V178.517C245.123 177.835 244.57 177.282 243.888 177.282H238.399C237.717 177.282 237.164 177.835 237.164 178.517V181.988C237.164 182.67 237.717 183.223 238.399 183.223Z" fill="white"/>
<path d="M215.654 39.2625L266.622 39.2625C267.341 39.2625 267.924 38.6798 267.924 37.961V16.7028C267.924 15.984 267.341 15.4013 266.622 15.4013L215.654 15.4013C214.936 15.4013 214.353 15.984 214.353 16.7028V37.961C214.353 38.6798 214.936 39.2625 215.654 39.2625Z" fill="#0093C9"/>
<path opacity="0.6" d="M215.654 39.2625L266.622 39.2625C267.341 39.2625 267.924 38.6798 267.924 37.961V16.7028C267.924 15.984 267.341 15.4013 266.622 15.4013L215.654 15.4013C214.936 15.4013 214.353 15.984 214.353 16.7028V37.961C214.353 38.6798 214.936 39.2625 215.654 39.2625Z" fill="white"/>
<path opacity="0.1" d="M215.663 15.4101H266.622C266.968 15.4101 267.299 15.5472 267.543 15.7913C267.787 16.0354 267.924 16.3665 267.924 16.7116V23.5279L241.36 28.7507C241.197 28.784 241.03 28.784 240.867 28.7507L214.361 23.5279V16.7116C214.361 16.3665 214.498 16.0354 214.743 15.7913C214.987 15.5472 215.318 15.4101 215.663 15.4101Z" fill="black"/>
<path d="M214.553 6.68297H230.121V4.07158C230.123 2.99245 230.553 1.95815 231.316 1.19508C232.079 0.43202 233.113 0.0023577 234.192 0.000153128H248.1C248.637 -0.00314352 249.17 0.0996747 249.667 0.302704C250.164 0.505733 250.617 0.804977 250.998 1.18326C251.38 1.56155 251.683 2.01143 251.89 2.50708C252.097 3.00274 252.204 3.53441 252.205 4.07158V6.68297H267.765C268.106 6.68297 268.432 6.81833 268.673 7.05929C268.914 7.30024 269.05 7.62704 269.05 7.9678V20.8245C269.05 21.1217 268.946 21.4098 268.758 21.6395C268.569 21.8692 268.307 22.0264 268.015 22.0843L241.359 27.2821C241.194 27.3155 241.024 27.3155 240.858 27.2821L214.269 22.0509C213.977 21.993 213.715 21.8358 213.526 21.6061C213.338 21.3764 213.234 21.0884 213.234 20.7911V7.9678C213.234 7.79623 213.269 7.62639 213.335 7.46829C213.402 7.31019 213.5 7.16704 213.622 7.04728C213.745 6.92753 213.891 6.83359 214.051 6.77102C214.21 6.70845 214.381 6.67851 214.553 6.68297ZM249.076 4.07158C249.076 3.81192 248.974 3.56277 248.791 3.37838C248.608 3.19399 248.36 3.0893 248.1 3.0871H234.192C233.933 3.08924 233.685 3.19251 233.501 3.37488C233.317 3.55724 233.212 3.80426 233.208 4.06324V6.67463H249.06L249.076 4.07158Z" fill="#0093C9"/>
<path opacity="0.6" d="M214.553 6.68297H230.121V4.07158C230.123 2.99245 230.553 1.95815 231.316 1.19508C232.079 0.43202 233.113 0.0023577 234.192 0.000153128H248.1C248.637 -0.00314352 249.17 0.0996747 249.667 0.302704C250.164 0.505733 250.617 0.804977 250.998 1.18326C251.38 1.56155 251.683 2.01143 251.89 2.50708C252.097 3.00274 252.204 3.53441 252.205 4.07158V6.68297H267.765C268.106 6.68297 268.432 6.81833 268.673 7.05929C268.914 7.30024 269.05 7.62704 269.05 7.9678V20.8245C269.05 21.1217 268.946 21.4098 268.758 21.6395C268.569 21.8692 268.307 22.0264 268.015 22.0843L241.359 27.2821C241.194 27.3155 241.024 27.3155 240.858 27.2821L214.269 22.0509C213.977 21.993 213.715 21.8358 213.526 21.6061C213.338 21.3764 213.234 21.0884 213.234 20.7911V7.9678C213.234 7.79623 213.269 7.62639 213.335 7.46829C213.402 7.31019 213.5 7.16704 213.622 7.04728C213.745 6.92753 213.891 6.83359 214.051 6.77102C214.21 6.70845 214.381 6.67851 214.553 6.68297ZM249.076 4.07158C249.076 3.81192 248.974 3.56277 248.791 3.37838C248.608 3.19399 248.36 3.0893 248.1 3.0871H234.192C233.933 3.08924 233.685 3.19251 233.501 3.37488C233.317 3.55724 233.212 3.80426 233.208 4.06324V6.67463H249.06L249.076 4.07158Z" fill="white"/>
<path d="M238.399 29.7437H243.888C244.57 29.7437 245.123 29.1909 245.123 28.5089V25.0382C245.123 24.3563 244.57 23.8034 243.888 23.8034H238.399C237.717 23.8034 237.164 24.3563 237.164 25.0382V28.5089C237.164 29.1909 237.717 29.7437 238.399 29.7437Z" fill="#0093C9"/>
<path opacity="0.3" d="M238.399 29.7437H243.888C244.57 29.7437 245.123 29.1909 245.123 28.5089V25.0382C245.123 24.3563 244.57 23.8034 243.888 23.8034H238.399C237.717 23.8034 237.164 24.3563 237.164 25.0382V28.5089C237.164 29.1909 237.717 29.7437 238.399 29.7437Z" fill="white"/>
<path d="M222.33 116.011H266.632C266.978 116.009 267.309 115.87 267.553 115.624C267.797 115.379 267.933 115.047 267.933 114.701V93.4513C267.932 93.276 267.895 93.1029 267.825 92.9423C267.794 92.8658 267.755 92.793 267.708 92.7254C267.662 92.654 267.606 92.5894 267.541 92.5335C267.421 92.4118 267.279 92.3151 267.121 92.2492C266.963 92.1833 266.794 92.1495 266.624 92.1497H224.674C225.024 95.0615 225.138 97.9966 225.017 100.927C225.017 101.402 225.017 101.878 224.941 102.345C224.891 103.221 224.816 104.105 224.716 104.981C224.295 108.729 223.495 112.424 222.33 116.011Z" fill="#0093C9"/>
<path opacity="0.6" d="M222.33 116.011H266.632C266.978 116.009 267.309 115.87 267.553 115.624C267.797 115.379 267.933 115.047 267.933 114.701V93.4513C267.932 93.276 267.895 93.1029 267.825 92.9423C267.794 92.8658 267.755 92.793 267.708 92.7254C267.662 92.654 267.606 92.5894 267.541 92.5335C267.421 92.4118 267.279 92.3151 267.121 92.2492C266.963 92.1833 266.794 92.1495 266.624 92.1497H224.674C225.024 95.0615 225.138 97.9966 225.017 100.927C225.017 101.402 225.017 101.878 224.941 102.345C224.891 103.221 224.816 104.105 224.716 104.981C224.295 108.729 223.495 112.424 222.33 116.011Z" fill="white"/>
<path opacity="0.1" d="M224.674 92.1497C225.023 95.0615 225.137 97.9966 225.016 100.927C225.016 101.402 225.016 101.878 224.941 102.345L237.188 104.748L240.926 105.482C241.088 105.524 241.257 105.524 241.418 105.482L245.148 104.756L267.949 100.268V93.4429C267.947 93.2714 267.913 93.1017 267.849 92.9423C267.819 92.8658 267.78 92.793 267.732 92.7254C267.686 92.654 267.63 92.5894 267.566 92.5335C267.446 92.4118 267.303 92.3151 267.145 92.2492C266.988 92.1833 266.819 92.1495 266.648 92.1497H224.674Z" fill="black"/>
<path d="M222.922 83.4223H230.122V80.8109C230.124 79.7318 230.554 78.6974 231.317 77.9344C232.08 77.1713 233.114 76.7417 234.194 76.7395H248.093C249.174 76.7395 250.21 77.1681 250.975 77.9314C251.74 78.6947 252.171 79.7303 252.173 80.8109V83.4223H267.733C268.074 83.4223 268.4 83.5576 268.641 83.7986C268.882 84.0395 269.018 84.3663 269.018 84.7071V97.5555C269.018 97.8537 268.915 98.1429 268.726 98.374C268.538 98.6051 268.275 98.764 267.983 98.8236H267.925L245.123 103.321L241.36 104.038C241.198 104.071 241.03 104.071 240.868 104.038L237.13 103.304L224.974 100.909C225.211 94.9956 224.507 89.0818 222.889 83.3889L222.922 83.4223ZM249.078 80.8109C249.073 80.5519 248.968 80.3049 248.784 80.1225C248.6 79.9402 248.352 79.8369 248.093 79.8347H234.194C233.935 79.8369 233.688 79.9405 233.506 80.1231C233.323 80.3056 233.22 80.5527 233.217 80.8109V83.4223H249.069L249.078 80.8109Z" fill="#0093C9"/>
<path opacity="0.6" d="M222.922 83.4223H230.122V80.8109C230.124 79.7318 230.554 78.6974 231.317 77.9344C232.08 77.1713 233.114 76.7417 234.194 76.7395H248.093C249.174 76.7395 250.21 77.1681 250.975 77.9314C251.74 78.6947 252.171 79.7303 252.173 80.8109V83.4223H267.733C268.074 83.4223 268.4 83.5576 268.641 83.7986C268.882 84.0395 269.018 84.3663 269.018 84.7071V97.5555C269.018 97.8537 268.915 98.1429 268.726 98.374C268.538 98.6051 268.275 98.764 267.983 98.8236H267.925L245.123 103.321L241.36 104.038C241.198 104.071 241.03 104.071 240.868 104.038L237.13 103.304L224.974 100.909C225.211 94.9956 224.507 89.0818 222.889 83.3889L222.922 83.4223ZM249.078 80.8109C249.073 80.5519 248.968 80.3049 248.784 80.1225C248.6 79.9402 248.352 79.8369 248.093 79.8347H234.194C233.935 79.8369 233.688 79.9405 233.506 80.1231C233.323 80.3056 233.22 80.5527 233.217 80.8109V83.4223H249.069L249.078 80.8109Z" fill="white"/>
<path d="M238.399 106.492H243.888C244.57 106.492 245.123 105.939 245.123 105.257V101.786C245.123 101.104 244.57 100.552 243.888 100.552H238.399C237.717 100.552 237.164 101.104 237.164 101.786V105.257C237.164 105.939 237.717 106.492 238.399 106.492Z" fill="#0093C9"/>
<path opacity="0.3" d="M238.399 106.492H243.888C244.57 106.492 245.123 105.939 245.123 105.257V101.786C245.123 101.104 244.57 100.552 243.888 100.552H238.399C237.717 100.552 237.164 101.104 237.164 101.786V105.257C237.164 105.939 237.717 106.492 238.399 106.492Z" fill="white"/>
<path d="M201.063 86.9688H127.828C126.796 86.9688 125.959 87.8055 125.959 88.8377V119.382C125.959 120.414 126.796 121.251 127.828 121.251H201.063C202.096 121.251 202.932 120.414 202.932 119.382V88.8377C202.932 87.8055 202.096 86.9688 201.063 86.9688Z" fill="#0093C9"/>
<path d="M174.431 81.512H154.449C152.934 81.5098 151.482 80.907 150.411 79.8357C149.339 78.7644 148.737 77.3121 148.734 75.797V70.666C148.737 69.151 149.339 67.6986 150.411 66.6273C151.482 65.556 152.934 64.9532 154.449 64.951H174.431C175.947 64.951 177.4 65.5531 178.472 66.6249C179.544 67.6967 180.146 69.1503 180.146 70.666V75.772C180.149 76.5246 180.004 77.2705 179.718 77.9667C179.433 78.663 179.012 79.296 178.481 79.8293C177.95 80.3627 177.319 80.7859 176.624 81.0746C175.929 81.3634 175.184 81.512 174.431 81.512ZM154.449 69.1476C154.047 69.1519 153.663 69.313 153.377 69.5966C153.092 69.8802 152.929 70.2639 152.923 70.666V75.772C152.923 76.1813 153.085 76.5739 153.375 76.8634C153.664 77.1529 154.057 77.3155 154.466 77.3155H174.448C174.857 77.3155 175.25 77.1529 175.539 76.8634C175.829 76.5739 175.991 76.1813 175.991 75.772V70.666C175.991 70.2567 175.829 69.8641 175.539 69.5746C175.25 69.2852 174.857 69.1225 174.448 69.1225L154.449 69.1476Z" fill="#0093C9"/>
<path opacity="0.2" d="M201.055 86.9688H127.836C127.59 86.9677 127.346 87.0153 127.118 87.1087C126.891 87.2021 126.684 87.3396 126.509 87.5133C126.335 87.6869 126.196 87.8933 126.102 88.1206C126.008 88.3479 125.959 88.5916 125.959 88.8377V98.6408L164.087 106.15C164.321 106.2 164.562 106.2 164.796 106.15L202.932 98.6408V88.8377C202.932 88.5916 202.884 88.3479 202.789 88.1206C202.695 87.8933 202.556 87.6869 202.382 87.5133C202.208 87.3396 202.001 87.2021 201.773 87.1087C201.545 87.0153 201.301 86.9677 201.055 86.9688Z" fill="black"/>
<path d="M202.982 96.5291L164.779 104.038C164.542 104.08 164.299 104.08 164.062 104.038L125.859 96.5291C125.439 96.4462 125.061 96.2206 124.789 95.8906C124.516 95.5606 124.367 95.1465 124.365 94.7186V76.2804C124.365 76.0383 124.413 75.7985 124.506 75.5748C124.598 75.3511 124.734 75.1479 124.905 74.9766C125.076 74.8054 125.28 74.6696 125.503 74.577C125.727 74.4843 125.967 74.4366 126.209 74.4366H202.648C202.891 74.4366 203.13 74.4843 203.354 74.577C203.578 74.6696 203.781 74.8054 203.952 74.9766C204.123 75.1479 204.259 75.3511 204.352 75.5748C204.445 75.7985 204.492 76.0383 204.492 76.2804V94.752C204.484 95.1769 204.329 95.5858 204.054 95.9096C203.779 96.2334 203.4 96.4523 202.982 96.5291Z" fill="#0093C9"/>
<path d="M168.4 99.041H160.499C159.522 99.041 158.73 99.8329 158.73 100.81V105.807C158.73 106.784 159.522 107.576 160.499 107.576H168.4C169.377 107.576 170.169 106.784 170.169 105.807V100.81C170.169 99.8329 169.377 99.041 168.4 99.041Z" fill="#0093C9"/>
<path opacity="0.4" d="M168.4 99.041H160.499C159.522 99.041 158.73 99.8329 158.73 100.81V105.807C158.73 106.784 159.522 107.576 160.499 107.576H168.4C169.377 107.576 170.169 106.784 170.169 105.807V100.81C170.169 99.8329 169.377 99.041 168.4 99.041Z" fill="black"/>
<path d="M134.702 157.089C125.684 152.775 117.812 146.392 111.728 138.46C105.644 130.528 101.52 121.271 99.6905 111.443C97.8615 101.615 98.3798 91.4939 101.203 81.9041C104.026 72.3143 109.075 63.527 115.937 56.2579C122.8 48.9887 131.282 43.4433 140.694 40.0732C150.105 36.7032 160.18 35.6038 170.097 36.8646C180.014 38.1255 189.493 41.7109 197.761 47.3288C206.03 52.9467 212.855 60.4384 217.68 69.1935C224.179 80.9674 226.769 94.5013 225.077 107.843C223.385 121.184 217.498 133.643 208.266 143.422C199.034 153.201 186.934 159.794 173.713 162.25C160.491 164.707 146.83 162.899 134.702 157.089ZM187.62 46.4095C174.884 40.3296 160.393 39 146.763 42.6607C133.132 46.3213 121.258 54.7311 113.28 66.374C105.303 78.0169 101.748 92.1268 103.255 106.16C104.763 120.193 111.234 133.225 121.503 142.908C131.771 152.591 145.161 158.286 159.258 158.968C173.355 159.649 187.232 155.272 198.387 146.626C209.542 137.979 217.241 125.631 220.095 111.809C222.95 97.9875 220.772 83.6004 213.955 71.2422C207.986 60.4177 198.777 51.7339 187.62 46.4095Z" fill="#343C41"/>
<path d="M136.229 153.885C127.205 149.574 119.328 143.191 113.239 135.258C107.149 127.325 103.02 118.066 101.188 108.234C99.3556 98.4029 99.8719 88.2777 102.695 78.6836C105.518 69.0896 110.567 60.2982 117.432 53.0256C124.297 45.7531 132.782 40.2052 142.198 36.8341C151.613 33.4629 161.692 32.3638 171.612 33.6263C181.533 34.8888 191.015 38.4772 199.286 44.0991C207.557 49.7211 214.383 57.2175 219.207 65.9776C225.701 77.7522 228.288 91.285 226.594 104.625C224.901 117.964 219.015 130.421 209.785 140.2C200.555 149.978 188.457 156.573 175.237 159.032C162.018 161.492 148.358 159.69 136.229 153.885ZM189.147 43.206C176.41 37.126 161.92 35.7965 148.29 39.4571C134.659 43.1177 122.785 51.5276 114.807 63.1705C106.83 74.8134 103.274 88.9232 104.782 102.956C106.29 116.989 112.761 130.022 123.03 139.704C133.298 149.387 146.688 155.083 160.785 155.764C174.882 156.446 188.759 152.069 199.914 143.422C211.069 134.775 218.767 122.428 221.622 108.606C224.476 94.784 222.299 80.3969 215.482 68.0387C209.513 57.2142 200.303 48.5304 189.147 43.206Z" fill="#889AA7"/>
<path d="M116.215 81.5477C116.274 80.8849 116.39 80.2285 116.562 79.5859C116.709 78.8211 116.904 78.0664 117.146 77.3261C117.427 76.329 117.759 75.3468 118.139 74.3834L118.773 72.7072C119.009 72.1237 119.319 71.5525 119.605 70.9317C120.163 69.6901 120.921 68.4484 121.678 67.1447C123.44 64.3484 125.478 61.7361 127.762 59.3472C130.089 57.0054 132.642 54.9008 135.386 53.0646C136.59 52.2784 137.833 51.5532 139.111 50.8917C139.707 50.5813 140.278 50.2585 140.849 49.9977L142.513 49.29C143.461 48.8823 144.431 48.5258 145.418 48.2222C146.152 47.9578 146.903 47.7422 147.665 47.5766C148.305 47.3951 148.956 47.2582 149.615 47.1668C149.003 47.4253 148.372 47.637 147.728 47.8001C146.981 48.0057 146.247 48.2545 145.53 48.545C144.562 48.8753 143.613 49.2566 142.686 49.6873L141.06 50.4199C140.489 50.6806 139.93 51.0159 139.346 51.3263C138.105 51.9347 136.963 52.7293 135.684 53.524C133.006 55.3488 130.512 57.4278 128.234 59.7322C125.979 62.0878 123.955 64.653 122.187 67.393C121.43 68.6347 120.66 69.8763 120.089 71.1179C119.803 71.7139 119.48 72.2726 119.232 72.8438L118.537 74.4952C118.065 75.5257 117.779 76.519 117.469 77.3758C117.202 78.1029 116.978 78.845 116.798 79.5983C116.656 80.2626 116.461 80.9145 116.215 81.5477Z" fill="white"/>
<path d="M42.7949 283.129V295.988L68.7365 295.864C68.5507 293.257 54.31 288.053 54.31 288.053L54.595 283.098L42.7949 283.129Z" fill="#889AA7"/>
<g opacity="0.6">
<path d="M47.0011 286.886C46.7484 286.979 46.5377 287.16 46.4079 287.396C46.2781 287.631 46.2379 287.906 46.2947 288.169C46.3539 288.428 46.5126 288.653 46.7364 288.795C46.9602 288.938 47.2312 288.987 47.4907 288.931C47.7587 288.831 47.9814 288.637 48.1179 288.385C48.2545 288.134 48.2959 287.841 48.2343 287.562C48.1887 287.433 48.118 287.316 48.0264 287.215C47.9348 287.114 47.8241 287.032 47.7007 286.975C47.5774 286.917 47.4438 286.885 47.3077 286.879C47.1717 286.873 47.0359 286.895 46.9082 286.942" fill="white"/>
</g>
<path d="M42.7949 295.986V293.936L67.572 294.227C67.572 294.227 68.8604 295.001 68.7427 295.862L42.7949 295.986Z" fill="#343C41"/>
<path d="M54.324 288.3C54.324 288.437 53.7043 288.505 53.0846 288.92C52.4649 289.335 52.1489 289.924 52.0311 289.874C51.9134 289.825 52.0931 289.044 52.8429 288.53C53.5928 288.015 54.3488 288.176 54.324 288.3Z" fill="#343C41"/>
<path d="M57.7256 289.489C57.7256 289.619 57.2112 289.855 56.7898 290.425C56.3684 290.995 56.2569 291.596 56.1329 291.59C56.009 291.584 55.916 290.834 56.449 290.134C56.9819 289.433 57.7194 289.365 57.7256 289.489Z" fill="#343C41"/>
<path d="M59.253 292.767C59.1352 292.798 58.9493 292.147 59.253 291.397C59.5566 290.647 60.1515 290.362 60.2073 290.474C60.2631 290.586 59.9037 290.982 59.6558 291.589C59.4079 292.197 59.3769 292.754 59.253 292.767Z" fill="#343C41"/>
<path d="M54.0706 284.639C54.021 284.762 53.4509 284.589 52.7258 284.639C52.0008 284.688 51.4864 284.948 51.3997 284.831C51.3129 284.713 51.8582 284.211 52.6949 284.174C53.5315 284.137 54.1326 284.533 54.0706 284.639Z" fill="#343C41"/>
<path d="M54.2188 288.877C54.2889 288.621 54.3078 288.353 54.2745 288.09C54.2181 287.368 53.9817 286.672 53.587 286.065C53.3172 285.648 52.9728 285.285 52.5711 284.993C52.4526 284.892 52.3091 284.824 52.1555 284.796C52.0019 284.769 51.8439 284.784 51.6977 284.838C51.5458 284.923 51.4186 285.046 51.3284 285.194C51.2383 285.343 51.1884 285.513 51.1836 285.687C51.2236 286.358 51.4614 287.002 51.8671 287.537C52.2728 288.073 52.8282 288.477 53.4631 288.697C54.0845 288.894 54.7508 288.901 55.3758 288.715C56.0009 288.53 56.5558 288.161 56.969 287.657C57.172 287.424 57.3295 287.155 57.4336 286.864C57.4864 286.696 57.4864 286.517 57.4336 286.35C57.4047 286.266 57.3582 286.19 57.2973 286.125C57.2364 286.061 57.1625 286.011 57.0805 285.978C56.8119 285.898 56.5229 285.927 56.2753 286.058C56.0605 286.156 55.8535 286.27 55.6558 286.399C55.0732 286.789 54.5707 287.288 54.1754 287.867C54.0139 288.072 53.892 288.305 53.8162 288.555C54.3534 287.8 55.0229 287.15 55.7921 286.634C56.139 286.436 56.5974 286.151 56.9628 286.281C57.1239 286.343 57.1858 286.535 57.1115 286.758C57.0172 287.001 56.8786 287.223 56.7027 287.415C56.328 287.86 55.8296 288.185 55.2706 288.347C54.7115 288.509 54.117 288.501 53.5622 288.326C53.0074 288.13 52.52 287.78 52.1569 287.317C51.7938 286.854 51.5701 286.297 51.5119 285.712C51.5075 285.6 51.5334 285.489 51.5868 285.391C51.6402 285.293 51.7192 285.211 51.8154 285.154C51.914 285.122 52.019 285.116 52.1207 285.136C52.2224 285.155 52.3177 285.2 52.3977 285.266C52.7725 285.526 53.0977 285.851 53.3578 286.226C53.748 286.78 54.0084 287.415 54.1197 288.084C54.2002 288.598 54.1878 288.877 54.2188 288.877Z" fill="#343C41"/>
<path d="M33.3255 284.986L33.7653 288.3L33.4742 295.764L23.7492 295.999L23.4023 288.3L24.5049 283.722L33.3255 284.986Z" fill="#889AA7"/>
<path d="M28.6669 295.201C28.6049 295.201 28.7474 292.921 28.9766 290.103C29.2058 287.285 29.4473 284.993 29.5031 284.987C29.5588 284.98 29.4226 287.272 29.1934 290.091C28.9642 292.909 28.7226 295.201 28.6669 295.201Z" fill="#343C41"/>
<path d="M33.5096 294.519L23.6855 294.637V296L33.5158 295.994L33.5096 294.519Z" fill="#343C41"/>
<path d="M23.7109 290.225C23.7109 290.225 23.7791 290.07 23.9587 289.835C24.2162 289.497 24.5067 289.186 24.8259 288.906C25.2949 288.481 25.8227 288.127 26.3931 287.853C27.3905 287.365 28.5183 287.21 29.6102 287.412C30.7021 287.614 31.7002 288.162 32.4572 288.974C32.7432 289.292 32.983 289.648 33.1696 290.033C33.2486 290.169 33.3011 290.318 33.3244 290.473C33.0222 289.995 32.6825 289.541 32.3086 289.116C31.3359 288.158 30.0258 287.62 28.6601 287.617C27.2914 287.658 25.9786 288.17 24.9436 289.067C24.1445 289.73 23.7481 290.262 23.7109 290.225Z" fill="#343C41"/>
<path d="M28.6232 76.6425L28.5488 110.253L42.9753 110.94L43.3965 102.764C43.3965 102.764 48.5191 103.78 49.8385 99.0472C50.6871 96.0058 50.4579 72.5109 50.4579 72.5109L28.6232 76.6425Z" fill="#B78876"/>
<path d="M52.3408 74.8699C50.0675 75.5203 49.572 79.2059 49.572 79.2059L46.0103 87.0788C44.1953 85.6603 41.7548 85.7408 41.2964 88.9371C40.9619 91.2413 43.8299 91.7059 43.8299 91.7059C42.1574 94.5491 41.0301 96.8471 38.5957 99.5478C35.9818 102.49 34.4951 102.781 31.6458 102.818H28.4991C28.4991 102.818 26.9567 97.8196 24.1074 85.3258C20.9483 71.463 37.3383 73.247 40.3797 69.7101C45.3289 63.9556 59.5199 72.8196 52.3408 74.8699Z" fill="#343C41"/>
<path d="M56.3435 71.8479C56.218 71.1086 55.8327 70.4384 55.257 69.958C54.6812 69.4776 53.9528 69.2186 53.203 69.2277C53.4374 68.8326 53.5249 68.3676 53.4501 67.9143C53.3753 67.4611 53.1431 67.0488 52.7942 66.75C52.4319 66.4655 52.0123 66.2628 51.5643 66.1559C51.1163 66.049 50.6504 66.0403 50.1988 66.1306C49.2953 66.3134 48.4231 66.6264 47.6095 67.0597C47.3055 66.1613 46.7187 65.3855 45.9371 64.8483C45.0959 64.3554 44.1299 64.1166 43.1559 64.1608C38.727 64.1608 36.3979 67.1898 34.0193 70.2807C33.6724 70.8566 33.1757 71.3275 32.5823 71.6435C32.1504 71.7704 31.6997 71.8207 31.2505 71.7921C29.5584 71.8457 27.9103 72.3447 26.4726 73.2386C25.0348 74.1326 23.8583 75.3899 23.0617 76.8838C21.5131 79.8756 20.3548 86.7946 24.3687 91.1306L26.7844 96.5258L49.9076 78.2032C50.0749 78.2899 51.5243 78.996 52.6393 78.4138C55.4081 76.9519 54.2436 74.5238 54.2436 74.5238C54.4666 74.3689 56.5788 73.3345 56.3435 71.8479Z" fill="#343C41"/>
<path d="M34.9404 89.8792C35.1335 90.7227 35.1058 91.6017 34.8599 92.4313C34.7297 93.2877 34.3773 94.095 33.8378 94.7727C33.7387 94.7231 34.2033 93.6949 34.5006 92.3507C34.7979 91.0066 34.8351 89.8792 34.9404 89.8792Z" fill="#889AA7"/>
<path d="M36.6872 88.2259C36.8082 89.0526 36.7619 89.8952 36.551 90.7036C36.4588 91.5278 36.1995 92.3245 35.7891 93.045C35.8499 92.2313 35.9846 91.4248 36.1917 90.6355C36.2804 89.8184 36.4463 89.0116 36.6872 88.2259Z" fill="#889AA7"/>
<path d="M41.6812 82.6751C41.7184 82.7247 41.3095 83.022 40.7892 83.629C40.126 84.4331 39.6007 85.3415 39.2345 86.3173C38.8791 87.3042 38.5914 88.3141 38.3735 89.3402C38.3124 89.7679 38.1914 90.1849 38.0142 90.579C37.988 90.1365 38.0235 89.6924 38.1195 89.2596C38.2662 88.2026 38.5258 87.1643 38.8938 86.1625C39.2708 85.1464 39.8527 84.2187 40.6034 83.437C40.8971 83.1011 41.2666 82.84 41.6812 82.6751Z" fill="#889AA7"/>
<path d="M43.7003 78.9033C43.7436 78.9033 43.8923 79.2254 43.9852 79.8076C44.0897 80.5749 44.0456 81.3551 43.8551 82.1057C43.6738 82.8577 43.3431 83.5655 42.8826 84.187C42.5296 84.6639 42.2632 84.8931 42.2074 84.8622C42.1517 84.8312 43.0932 83.7038 43.5021 82.019C43.9109 80.3341 43.5888 78.9157 43.7003 78.9033Z" fill="#889AA7"/>
<path d="M26.4872 87.2969C26.4376 87.3898 25.9976 87.2349 25.5019 86.956C25.0061 86.6772 24.6405 86.3859 24.69 86.293C24.7396 86.2 25.1796 86.3611 25.6754 86.64C26.1711 86.9189 26.5368 87.2101 26.4872 87.2969Z" fill="#889AA7"/>
<path d="M33.4556 83.7105C33.5121 84.2324 33.3656 84.7561 33.0466 85.173C32.6005 85.9105 31.9993 86.2947 31.9374 86.2203C31.8754 86.146 32.3278 85.6626 32.7306 84.9809C33.1334 84.2992 33.3503 83.6857 33.4556 83.7105Z" fill="#889AA7"/>
<path d="M35.5989 82.5566C35.5914 83.1914 35.3736 83.8057 34.9795 84.3034C34.4034 85.183 33.6787 85.6537 33.6229 85.5422C33.5672 85.4307 34.1371 84.9228 34.676 84.0742C34.9539 83.5509 35.2621 83.0441 35.5989 82.5566Z" fill="#889AA7"/>
<path d="M46.2514 68.4719C46.2514 68.4719 45.9789 68.2674 45.4586 67.9701C44.7137 67.5752 43.8858 67.3629 43.0428 67.3507C41.793 67.3176 40.5604 67.6467 39.4935 68.2984C38.212 69.1402 37.1722 70.3016 36.4769 71.6681C35.9445 72.6681 35.5288 73.726 35.238 74.821L35.1761 75.0316L34.9841 74.9263C33.9907 74.4065 32.8902 74.1245 31.7692 74.1024C30.8795 74.0822 29.993 74.2163 29.1491 74.4989C28.398 74.7775 27.6794 75.1368 27.0059 75.5705C27.1448 75.4048 27.3076 75.2607 27.489 75.1431C27.9759 74.7884 28.5096 74.5028 29.0747 74.2945C29.9351 73.9668 30.8486 73.8009 31.7692 73.8051C32.9452 73.8022 34.1047 74.0804 35.1513 74.6166L34.8973 74.7281C35.1836 73.6059 35.5993 72.5208 36.1362 71.4947C36.8612 70.0722 37.9542 68.8701 39.3015 68.0135C40.4221 67.3458 41.7152 67.0247 43.018 67.0905C43.8955 67.1282 44.7487 67.3905 45.4957 67.8524C45.6949 67.9785 45.8798 68.126 46.047 68.2922C46.2019 68.4037 46.2576 68.4657 46.2514 68.4719Z" fill="#889AA7"/>
<path d="M53.8396 70.3043C53.8086 70.3043 54.236 70.1928 54.6634 70.6759C54.7868 70.8202 54.8799 70.9877 54.9374 71.1685C54.9949 71.3494 55.0154 71.54 54.9979 71.729C54.9604 71.9809 54.8647 72.2206 54.7185 72.4292C54.5723 72.6378 54.3795 72.8094 54.1555 72.9306C53.6236 73.2324 52.9962 73.3188 52.4025 73.1722C51.7497 73.0004 51.1372 72.7015 50.6 72.2926C50.0361 71.8428 49.4444 71.429 48.8284 71.0538C48.162 70.6934 47.4429 70.4404 46.6976 70.3043C45.2499 70.0436 43.7602 70.1457 42.3616 70.6016C41.2131 70.9801 40.129 71.5315 39.1468 72.2369C37.4619 73.4448 36.6319 74.4606 36.5762 74.4049C36.7428 74.148 36.9359 73.9092 37.1523 73.6925C37.7194 73.0814 38.3414 72.5237 39.0105 72.0263C39.9981 71.2729 41.1002 70.6832 42.2749 70.2795C43.7294 69.7864 45.2855 69.6713 46.7967 69.945C47.5794 70.089 48.3342 70.3566 49.0328 70.7379C49.6558 71.1116 50.2537 71.5254 50.823 71.9767C51.3213 72.3686 51.8916 72.659 52.5016 72.8315C53.0244 72.9752 53.5821 72.9155 54.0626 72.6643C54.2569 72.5651 54.4263 72.4234 54.5583 72.2497C54.6902 72.0759 54.7812 71.8746 54.8245 71.6608C54.869 71.3295 54.7823 70.9938 54.5829 70.7255C54.3929 70.5014 54.1294 70.3521 53.8396 70.3043Z" fill="#889AA7"/>
<path d="M121.048 96.1039C120.503 95.6207 113.156 98.6993 113.156 98.6993C113.156 98.6993 107.674 103.035 105.42 105.544L104.026 106.702L83.1761 122.913L57.5319 112.246L51.957 126.549C51.957 126.549 80.7479 138.014 85.1335 136.051C89.8969 133.92 107.643 115.343 107.687 115.281L110.251 112.804C110.251 112.804 111.608 112.804 112.636 112.717C113.664 112.63 116.675 110.654 116.675 110.654C116.96 110.104 117.157 109.513 117.257 108.901C117.32 108.658 117.299 108.4 117.198 108.17C117.097 107.939 116.921 107.75 116.699 107.631C116.804 107.155 116.821 106.664 116.749 106.182C116.631 105.364 115.51 104.417 115.51 104.417C115.86 104.061 116.098 103.611 116.198 103.122C116.445 102.174 115.225 101.264 115.225 101.264C115.225 101.264 119.493 98.3648 120.527 97.8507C121.562 97.3366 121.593 96.587 121.048 96.1039Z" fill="#B78876"/>
<path d="M61.3036 242.619C61.3903 241.677 61.4336 240.953 61.4336 240.5L64.3325 194.273C64.3325 194.273 61.8982 180.769 60.7461 177.189L50.3955 173.181L36.6008 178.552C36.5141 177.443 36.4584 176.755 36.4584 176.755L16.1598 183.78C16.1598 183.78 15.6333 197.636 16.1598 201.854C16.3332 203.211 16.8597 206.711 17.5039 210.836C17.5039 210.836 18.1605 219.799 18.2968 220.301C18.7862 222.128 18.9162 226.607 18.9162 231.091C18.9162 236.79 19.2259 243.573 19.5852 246.794C19.9445 250.015 20.1117 285.471 20.1117 285.471H35.1018L37.0282 229.004C37.3504 222.952 37.8335 213.698 38.1432 207.002L41.6616 227.852C41.6616 228.614 43.8048 240.538 43.8048 240.538C43.3099 244.29 43.0039 248.065 42.888 251.848C42.6402 262.379 41.4076 285.471 41.4076 285.471H56.0756C56.0756 285.471 60.4859 252.096 61.3407 242.619H61.3036Z" fill="#343C41"/>
<path d="M63.8556 191.502C63.374 191.32 62.918 191.076 62.4991 190.777C61.4585 190.109 60.4874 189.34 59.6001 188.479C58.7129 187.62 57.9121 186.676 57.2091 185.66C56.8925 185.255 56.6359 184.807 56.4473 184.329C56.787 184.706 57.1016 185.105 57.3888 185.524C58.1357 186.49 58.9491 187.403 59.8231 188.256C60.6976 189.1 61.6312 189.88 62.6167 190.591C63.0509 190.865 63.4649 191.169 63.8556 191.502Z" fill="#889AA7"/>
<path d="M37.6666 199.902C37.549 199.764 37.4529 199.61 37.3817 199.443C37.1514 199.009 36.9447 198.562 36.7623 198.105C36.1349 196.602 35.6757 195.033 35.3933 193.429C35.1177 191.824 35.018 190.193 35.096 188.566C35.1332 187.947 35.1827 187.445 35.2385 187.098C35.2493 186.916 35.2891 186.736 35.3561 186.566C35.4057 186.566 35.3562 187.34 35.3252 188.572C35.3066 190.181 35.4351 191.788 35.7092 193.373C35.9828 194.957 36.3974 196.514 36.9481 198.025C37.3879 199.183 37.71 199.877 37.6666 199.902Z" fill="#889AA7"/>
<path d="M39.8471 217.307C39.7555 217.046 39.6912 216.776 39.655 216.502C39.5477 215.916 39.4114 215.178 39.2462 214.291C38.9241 212.352 38.4905 209.8 38.0074 206.975C37.1773 201.791 36.6137 198.26 36.3535 196.618C36.6902 197.589 36.9268 198.591 37.0597 199.61C37.4189 201.468 37.8649 204.064 38.3357 206.919C38.8064 209.775 39.1967 212.377 39.4692 214.253C39.5869 215.145 39.6922 215.889 39.7727 216.483C39.8281 216.754 39.853 217.031 39.8471 217.307Z" fill="#889AA7"/>
<path d="M4.4727 140.202C4.4727 140.202 2.49673 154.133 2.12507 159.014C1.90208 161.956 4.88771 165.828 7.1672 166.144C9.44669 166.459 17.1276 166.887 17.1276 166.887L17.747 158.147L17.5488 156.406L15.164 155.96L15.8825 142.097L4.4727 140.202Z" fill="#B78876"/>
<path d="M15.5837 142.568C15.6451 142.815 15.6763 143.069 15.6766 143.324C15.7138 143.813 15.7385 144.519 15.7571 145.399C15.8005 147.146 15.7571 149.567 15.6085 152.212C15.4598 154.857 15.243 157.292 15.0758 159.026C14.9828 159.893 14.9085 160.599 14.8466 161.083C14.8326 161.337 14.789 161.588 14.7165 161.832C14.6883 161.579 14.6883 161.323 14.7165 161.07C14.7475 160.513 14.7908 159.831 14.8404 159.001C14.9581 157.186 15.1067 154.814 15.274 152.188C15.4412 149.561 15.5032 147.121 15.5217 145.374C15.5217 144.556 15.5217 143.863 15.5217 143.305C15.5166 143.058 15.5373 142.811 15.5837 142.568Z" fill="#AA6550"/>
<g opacity="0.3">
<path d="M16.3403 184.033C20.2427 185.482 24.5168 185.6 28.6607 185.241C32.8047 184.881 36.9053 184.045 41.0492 183.655C47.3295 183.068 53.6631 183.486 59.8117 184.894C60.2407 185.024 60.6915 185.066 61.1372 185.018C61.3585 184.989 61.5662 184.895 61.7331 184.747C61.8999 184.599 62.0183 184.404 62.0726 184.188C62.1841 183.494 61.4222 183.011 60.778 182.744C53.6882 179.812 46.0663 178.386 38.3962 178.557C30.726 178.728 23.175 180.491 16.2227 183.735" fill="black"/>
</g>
<path d="M76.0898 118.578L54.0878 107.627C50.6183 107.22 47.1237 107.067 43.6319 107.169H29.0692C29.0692 107.169 11.4279 112.372 8.51045 117.172L0.947266 139.843L15.9002 142.098L17.7585 158.389C17.7585 158.389 15.9002 177.25 15.9002 179.988C15.8597 181.256 15.9364 182.525 16.1294 183.779C16.1294 183.779 46.0477 179.233 53.4127 181.63C60.7776 184.027 62.766 183.779 62.766 183.779C62.766 183.779 62.1465 175.95 61.6076 171.391L59.9104 148.658L58.6716 131.314L72.5157 135.551L76.0898 118.578Z" fill="#F57621"/>
<path d="M15.764 142.277C15.7083 142.277 15.5596 141.342 15.2313 139.83C14.794 137.865 14.2144 135.933 13.4969 134.051C12.7643 132.155 11.9076 130.309 10.9325 128.526L10.0281 126.903C9.9001 126.711 9.79804 126.503 9.72461 126.284C9.88635 126.45 10.0277 126.635 10.1458 126.835C10.3998 127.2 10.7652 127.739 11.1431 128.421C12.1889 130.182 13.084 132.028 13.819 133.94C14.5437 135.835 15.0951 137.792 15.4667 139.787C15.603 140.549 15.6897 141.168 15.733 141.602C15.7712 141.825 15.7816 142.052 15.764 142.277Z" fill="#343C41"/>
<path d="M43.9794 148.713C43.9677 148.817 43.9406 148.92 43.8988 149.016L43.6201 149.853C43.4962 150.218 43.3413 150.658 43.1369 151.166C42.9325 151.674 42.7157 152.256 42.4308 152.875C41.8919 154.114 41.1919 155.613 40.3123 157.211C39.4328 158.809 38.3921 160.507 37.2152 162.229C36.0383 163.951 34.7375 165.505 33.5668 166.881C32.3961 168.256 31.2254 169.414 30.2219 170.356C29.7326 170.839 29.2556 171.241 28.853 171.594C28.4504 171.948 28.0849 172.263 27.7876 172.505L27.0938 173.05C27.0157 173.119 26.9306 173.179 26.8398 173.23C26.8398 173.23 26.908 173.143 27.0566 173.001L27.707 172.381C27.992 172.133 28.3265 171.817 28.7353 171.44C29.1441 171.062 29.5901 170.653 30.067 170.164C31.0457 169.21 32.1607 168.02 33.3438 166.658C34.5269 165.295 35.7534 163.722 36.9551 162.018C38.1568 160.315 39.185 158.611 40.0522 157.063C40.9194 155.514 41.6565 154.028 42.2202 152.782C42.5175 152.163 42.7467 151.587 42.9635 151.091C43.1803 150.596 43.3599 150.162 43.5024 149.803C43.6449 149.444 43.744 149.184 43.8369 148.985C43.8729 148.889 43.9207 148.797 43.9794 148.713Z" fill="#343C41"/>
<path d="M54.1441 109.124C53.5652 109.951 53.1702 110.893 52.9857 111.886C52.7999 112.963 52.7999 114.062 52.9857 115.138C53.2259 116.463 53.536 117.774 53.9149 119.066C54.6768 121.841 55.4758 124.312 56.0891 126.096C56.3802 126.939 56.6218 127.645 56.82 128.208C56.9226 128.463 57.0014 128.726 57.0554 128.995C56.9109 128.76 56.7905 128.511 56.6961 128.252C56.4917 127.769 56.2006 127.062 55.8661 126.177C55.1971 124.411 54.3547 121.934 53.5928 119.152C53.2224 117.855 52.9266 116.538 52.707 115.207C52.5251 114.1 52.5419 112.969 52.7565 111.868C52.9086 111.125 53.1985 110.417 53.6113 109.78C53.7475 109.531 53.928 109.308 54.1441 109.124Z" fill="#343C41"/>
<path d="M12.6294 132.992C12.3031 133.344 11.9005 133.617 11.4525 133.791C10.3999 134.274 9.22883 134.438 8.08397 134.263C6.93912 134.088 5.87062 133.581 5.01044 132.806C4.6356 132.509 4.33455 132.129 4.13086 131.697C4.17422 131.66 4.49632 132.1 5.15911 132.632C6.02131 133.329 7.05341 133.784 8.14955 133.951C9.24569 134.118 10.3664 133.99 11.3967 133.58C12.1586 133.27 12.5984 132.948 12.6294 132.992Z" fill="white"/>
<path d="M54.7934 122.763C54.7501 122.928 54.6899 123.087 54.6138 123.24C54.4775 123.55 54.2669 123.996 53.9634 124.553C53.0915 126.134 51.9892 127.577 50.6928 128.833C48.7548 130.714 46.3381 132.027 43.7057 132.63C42.1538 132.986 40.55 133.055 38.9733 132.835C37.286 132.566 35.6628 131.989 34.1851 131.131C31.1437 129.434 28.5731 127.285 25.7609 126.256C23.2734 125.337 20.5667 125.188 17.9933 125.829C16.2565 126.246 14.6176 126.997 13.168 128.04C12.1521 128.79 11.6752 129.316 11.6504 129.279C12.084 128.783 12.5677 128.332 13.0937 127.935C14.8919 126.572 17.0013 125.679 19.2314 125.336C21.4614 124.994 23.7417 125.212 25.8662 125.972C28.7465 127.012 31.3358 129.168 34.34 130.84C35.782 131.69 37.3668 132.269 39.0166 132.55C40.5576 132.767 42.1251 132.704 43.6437 132.364C46.2295 131.785 48.6099 130.515 50.5318 128.691C51.8327 127.465 52.9509 126.059 53.8519 124.516C54.1678 123.971 54.4032 123.531 54.5518 123.234C54.6199 123.071 54.7006 122.913 54.7934 122.763Z" fill="white"/>
<path d="M68.5699 114.818C68.6923 115.045 68.788 115.287 68.8548 115.536C69.059 116.207 69.1796 116.899 69.2141 117.599C69.3343 119.945 68.5918 122.254 67.1266 124.091C66.2756 125.033 65.3518 125.907 64.364 126.705C63.5888 127.355 62.9561 128.158 62.5057 129.065C62.2012 129.675 62.0584 130.353 62.0907 131.034C62.1278 131.518 62.2331 131.778 62.2022 131.784C62.1712 131.79 62.1588 131.728 62.1093 131.604C62.0392 131.425 61.9913 131.238 61.9668 131.047C61.8819 130.338 61.9956 129.62 62.2951 128.972C62.7306 128.023 63.3642 127.178 64.1534 126.494C65.1147 125.693 66.0192 124.825 66.8603 123.899C68.2747 122.115 69.0218 119.893 68.9725 117.618C68.925 116.674 68.7902 115.737 68.5699 114.818Z" fill="white"/>
<path d="M32.7859 167.041C32.5908 167.146 32.3824 167.223 32.1664 167.27C31.5692 167.441 30.9607 167.57 30.3453 167.654C29.4178 167.808 28.4677 167.753 27.5641 167.493C27.0282 167.323 26.5328 167.045 26.1085 166.676C25.6819 166.271 25.2845 165.836 24.9192 165.375C24.5608 164.936 24.144 164.548 23.6803 164.223C23.239 163.935 22.7622 163.706 22.2618 163.541C21.4045 163.267 20.4982 163.181 19.6045 163.288C18.9987 163.354 18.4083 163.522 17.8577 163.783C17.659 163.894 17.4519 163.989 17.2383 164.068C17.4004 163.905 17.5889 163.771 17.7958 163.672C18.344 163.355 18.9472 163.145 19.5735 163.052C20.501 162.903 21.4503 162.969 22.3485 163.244C22.881 163.408 23.3877 163.645 23.8537 163.95C24.3487 164.284 24.7912 164.689 25.1669 165.152C25.5225 165.6 25.9074 166.024 26.3191 166.422C26.712 166.767 27.1686 167.032 27.6632 167.202C28.5266 167.458 29.4335 167.531 30.3267 167.419C31.832 167.239 32.7735 166.986 32.7859 167.041Z" fill="white"/>
<path d="M61.2724 165.721C61.2135 165.785 61.1469 165.841 61.0742 165.889C60.876 166.037 60.6692 166.174 60.4547 166.297C59.6852 166.767 58.8502 167.12 57.977 167.344C56.6648 167.682 55.2996 167.762 53.9569 167.58C52.3009 167.356 50.7283 166.716 49.3856 165.721C48.1097 164.691 46.8897 163.593 45.731 162.432C44.7829 161.511 43.6854 160.757 42.4852 160.202C41.6795 159.829 40.8025 159.635 39.9146 159.632C39.2951 159.632 38.9359 159.738 38.9297 159.701C39.0086 159.664 39.0918 159.636 39.1775 159.62C39.4164 159.556 39.6613 159.516 39.9084 159.502C40.8239 159.461 41.7368 159.628 42.5781 159.992C43.8174 160.53 44.9518 161.283 45.9292 162.215C47.0627 163.219 48.1901 164.439 49.5776 165.461C50.8779 166.417 52.3957 167.035 53.9941 167.258C55.3016 167.447 56.6328 167.394 57.9213 167.103C58.7836 166.898 59.6162 166.583 60.399 166.167C60.6807 166.001 60.9723 165.852 61.2724 165.721Z" fill="white"/>
</svg>
