<svg width="298" height="81" viewBox="0 0 298 81" fill="none" xmlns="http://www.w3.org/2000/svg">
    <path d="M86.5945 37.5562C87.3235 37.8768 87.9415 38.4056 88.3712 39.0761C88.8008 39.7466 89.0229 40.5291 89.0096 41.3254C88.9762 42.2036 88.6599 43.045 88.5578 43.9207C88.4727 44.3522 88.5052 44.7986 88.6519 45.2132C88.7985 45.6278 89.054 45.9953 89.3914 46.2773C90.1908 46.7948 91.4673 46.6319 91.8911 47.488C91.9835 47.7616 91.9841 48.0578 91.8927 48.3317C91.8013 48.6056 91.6229 48.8421 91.3848 49.0054C90.9011 49.3213 90.3525 49.5245 89.7797 49.5998C89.9427 49.6207 90.0998 49.6748 90.2413 49.7586C90.3828 49.8423 90.5057 49.9541 90.6025 50.087C90.6993 50.2199 90.768 50.3711 90.8044 50.5315C90.8408 50.6918 90.8441 50.8579 90.8141 51.0196C90.7342 51.3399 90.5749 51.635 90.3511 51.8776C90.1272 52.1202 89.8459 52.3026 89.533 52.408C88.8968 52.608 88.2303 52.6942 87.5641 52.6626" fill="#263238"/>
    <path d="M87.3287 40.9948C88.91 38.725 86.9772 36.6296 85.3198 35.7488C83.6625 34.8681 80.8005 35.1792 78.9656 35.6034C77.3267 35.9877 75.7588 36.7372 74.0727 36.8096C72.3867 36.8821 70.6959 36.3389 69.3646 37.2582C68.8793 37.655 68.5028 38.1686 68.2703 38.7508C68.0377 39.333 67.9568 39.9647 68.0352 40.5867C68.2055 41.8264 68.4775 43.0499 68.8485 44.245C69.2218 45.4531 69.1563 46.7542 68.6634 47.9186C68.3458 48.4395 67.9699 48.9226 67.543 49.3585C67.1087 49.7968 66.7648 50.3162 66.5309 50.8873C66.4138 51.1727 66.3708 51.4831 66.4057 51.7896C66.4407 52.0961 66.5525 52.3888 66.7309 52.6405C66.9208 52.8819 67.1982 53.0388 67.5029 53.0772C67.8077 53.1155 68.1153 53.0323 68.3592 52.8455C68.1709 53.2597 68.131 53.7261 68.2461 54.1663C68.3612 54.6065 68.6243 54.9937 68.9913 55.2627C69.3687 55.5177 69.8027 55.6766 70.2555 55.7255C70.7084 55.7744 71.1663 55.7118 71.5894 55.5432C72.4363 55.1915 73.1641 54.6038 73.6863 53.85" fill="#263238"/>
    <path d="M74.1901 67.9517L85.0026 66.405C84.9905 65.1327 84.6117 60.2285 84.6117 60.2285C84.6117 60.2285 89.0885 59.2607 88.8625 54.7165C88.6366 50.1722 87.1905 39.8667 87.1905 39.8667C84.5519 38.9223 81.7088 38.7008 78.9558 39.2252C76.2029 39.7497 73.6403 41.0009 71.5338 42.8492L70.8848 43.4105L74.1901 67.9517Z" fill="#EC9681"/>
    <path d="M87.181 47.0534C87.118 47.1395 86.6468 46.8273 86.0263 46.8597C85.4059 46.8921 84.9769 47.2476 84.9036 47.1702C84.8303 47.0927 84.9264 46.9909 85.1145 46.8285C85.3683 46.6208 85.682 46.5003 86.0095 46.4845C86.3378 46.4667 86.6629 46.5566 86.9355 46.7406C87.1357 46.8784 87.2129 47.0172 87.181 47.0534Z" fill="#263238"/>
    <path d="M80.6691 47.7937C80.6061 47.8798 80.1417 47.5671 79.5144 47.6C78.8871 47.6329 78.465 47.9879 78.3916 47.9105C78.3183 47.833 78.4145 47.7312 78.6026 47.5688C78.8563 47.3612 79.1701 47.2406 79.4975 47.2248C79.8259 47.207 80.151 47.2969 80.4236 47.4809C80.617 47.6192 80.6669 47.7597 80.6691 47.7937Z" fill="#263238"/>
    <path d="M83.7071 52.5515C84.0192 52.3984 84.3563 52.3029 84.7023 52.2695C84.8659 52.2591 84.992 52.1964 84.9932 52.1073C84.9935 51.9439 84.9427 51.7844 84.848 51.6511L84.2773 50.4209C83.741 49.3814 83.314 48.289 83.0033 47.1614C83.6378 48.1424 84.1737 49.1838 84.6032 50.2703C84.788 50.7035 84.9711 51.1094 85.1474 51.5158C85.2697 51.7186 85.3163 51.9581 85.2792 52.1919C85.2605 52.2564 85.2271 52.3156 85.1815 52.3648C85.1359 52.4141 85.0794 52.452 85.0165 52.4755C84.9258 52.5011 84.833 52.5185 84.7391 52.5273C84.3987 52.5909 84.0502 52.5991 83.7071 52.5515Z" fill="#263238"/>
    <path d="M81.7605 53.3585C82.76 53.7344 83.8069 53.9699 84.8712 54.0583C84.6792 54.4008 84.3764 54.6678 84.0125 54.8152C83.6486 54.9627 83.2453 54.9818 82.8691 54.8695C81.4946 54.4568 81.7605 53.3585 81.7605 53.3585Z" fill="white"/>
    <path d="M84.5927 60.1617C82.5066 60.3323 80.4169 59.8785 78.5896 58.8578C78.5896 58.8578 80.1929 62.0212 84.6733 61.327L84.5927 60.1617Z" fill="#754330"/>
    <path d="M87.3309 40.9933C87.3309 40.9933 84.7824 42.6878 80.9839 41.395C78.494 40.5532 75.696 40.3607 75.1625 40.9078C74.629 41.4549 76.0743 46.7707 72.8419 47.5023C72.8419 47.5023 73.0667 50.5134 71.8737 50.5889C70.0194 50.7063 69.9029 42.3768 69.9029 42.3768L74.0724 39.5804L78.8175 37.9865L83.5068 37.9978L87.1994 38.4828L87.3309 40.9933Z" fill="#263238"/>
    <path d="M71.7223 48.0801C71.6473 48.0849 68.5626 47.3629 68.8534 50.4451C69.1443 53.5274 72.186 52.5956 72.1804 52.507C72.1748 52.4184 71.7223 48.0801 71.7223 48.0801Z" fill="#EC9681"/>
    <path d="M71.1218 51.3965C71.1218 51.3965 71.0762 51.4336 70.9838 51.4873C70.8577 51.5461 70.7141 51.5552 70.5816 51.5128C70.368 51.4069 70.1858 51.2469 70.0532 51.0487C69.9206 50.8506 69.8421 50.6212 69.8256 50.3833C69.7934 50.1188 69.8208 49.8505 69.906 49.598C69.9247 49.4986 69.9674 49.4053 70.0304 49.3262C70.0934 49.247 70.1747 49.1845 70.2674 49.1439C70.3289 49.1218 70.3962 49.122 70.4576 49.1444C70.5191 49.1668 70.5707 49.2099 70.6037 49.2663C70.6498 49.3456 70.6127 49.4095 70.6541 49.4137C70.6954 49.418 70.712 49.3553 70.6765 49.2275C70.6523 49.1537 70.6021 49.0913 70.5353 49.0516C70.4907 49.0227 70.4409 49.0028 70.3886 48.9932C70.3363 48.9836 70.2826 48.9844 70.2306 48.9956C70.1076 49.0348 69.9961 49.1039 69.9064 49.1968C69.8167 49.2897 69.7515 49.4034 69.7167 49.5278C69.6104 49.809 69.5755 50.1123 69.6151 50.4104C69.6268 50.6857 69.719 50.9516 69.8803 51.175C70.0417 51.3984 70.2651 51.5695 70.5229 51.6671C70.6085 51.6821 70.6963 51.6779 70.78 51.6548C70.8638 51.6318 70.9414 51.5904 71.0073 51.5338C71.1265 51.4715 71.1354 51.3956 71.1218 51.3965Z" fill="#754330"/>
    <path d="M84.4909 44.8016C84.5971 44.966 85.1726 44.7584 85.8885 44.7131C86.6043 44.6678 87.2085 44.6981 87.245 44.5178C87.2815 44.3375 86.6744 43.9379 85.784 44.0353C84.8935 44.1327 84.3791 44.6581 84.4909 44.8016Z" fill="#263238"/>
    <path d="M77.5839 45.6555C77.6901 45.8199 78.2656 45.6124 78.9814 45.5671C79.6973 45.5218 80.3015 45.552 80.3721 45.3696C80.4427 45.1871 79.8015 44.7897 78.911 44.8871C78.0206 44.9845 77.47 45.4779 77.5839 45.6555Z" fill="#263238"/>
    <path d="M92.696 29.3199L92.5823 28.2799C92.5678 28.1453 92.5263 28.0149 92.4605 27.8967C92.3946 27.7784 92.3056 27.6745 92.1988 27.5913C92.0921 27.508 91.9697 27.447 91.8389 27.412C91.7081 27.3769 91.5716 27.3685 91.4375 27.3872C86.1923 28.1093 62.695 31.3621 62.1805 31.6685C61.5608 32.0431 61.8506 33.161 61.8506 33.161C62.0417 33.5341 62.2945 33.8721 62.5983 34.1609L92.696 29.3199Z" fill="#94C4E8"/>
    <path d="M62.903 32.2457L91.5714 28.2892C91.7565 28.2637 91.945 28.2911 92.1152 28.3682C92.2855 28.4453 92.4304 28.5689 92.5333 28.7249C92.6362 28.8809 92.6929 29.0628 92.6969 29.2496C92.7008 29.4364 92.6518 29.6205 92.5555 29.7807L89.1481 35.4241C89.0775 35.5432 88.9828 35.6462 88.87 35.7265C88.7571 35.8067 88.6288 35.8624 88.4931 35.8899L67.1478 39.2941C66.9713 39.3225 66.7905 39.3022 66.6247 39.2355C66.4589 39.1688 66.3143 39.0582 66.2067 38.9156L62.2893 33.7972C62.1921 33.6625 62.1304 33.5054 62.1098 33.3405C62.0893 33.1756 62.1105 33.0081 62.1716 32.8536C62.2328 32.6991 62.3318 32.5624 62.4596 32.4562C62.5874 32.3499 62.7399 32.2776 62.903 32.2457Z" fill="#94C4E8"/>
    <g opacity="0.5">
        <path d="M62.903 32.2457L91.5714 28.2892C91.7565 28.2637 91.945 28.2911 92.1152 28.3682C92.2855 28.4453 92.4304 28.5689 92.5333 28.7249C92.6362 28.8809 92.6929 29.0628 92.6969 29.2496C92.7008 29.4364 92.6518 29.6205 92.5555 29.7807L89.1481 35.4241C89.0775 35.5432 88.9828 35.6462 88.87 35.7265C88.7571 35.8067 88.6288 35.8624 88.4931 35.8899L67.1478 39.2941C66.9713 39.3225 66.7905 39.3022 66.6247 39.2355C66.4589 39.1688 66.3143 39.0582 66.2067 38.9156L62.2893 33.7972C62.1921 33.6625 62.1304 33.5054 62.1098 33.3405C62.0893 33.1756 62.1105 33.0081 62.1716 32.8536C62.2328 32.6991 62.3318 32.5624 62.4596 32.4562C62.5874 32.3499 62.7399 32.2776 62.903 32.2457Z" fill="black"/>
    </g>
    <path d="M87.5308 37.7643C87.5351 37.8325 87.2788 36.4866 87.274 36.4117C87.0952 34.9007 86.3283 33.5211 85.1396 32.5714C83.9509 31.6218 82.4359 31.1786 80.9228 31.3378C78.193 31.5347 75.4947 32.043 72.8804 32.8529C71.5317 33.2503 70.3446 34.0668 69.491 35.1841C68.6375 36.3014 68.1619 37.6614 68.1332 39.0671L68.073 41.0353L87.5308 37.7643Z" fill="#94C4E8"/>
    <path d="M96.1412 33.5782C96.1412 33.5782 95.9206 33.6606 95.5282 33.7334C94.971 33.835 94.397 33.7887 93.8633 33.5992C93.0678 33.323 92.358 32.8442 91.8041 32.21C91.1219 31.4152 90.4885 30.5798 89.9073 29.7085C89.3044 28.81 88.5219 28.0462 87.6092 27.4651C86.8332 26.9908 85.9017 26.8407 85.016 27.0474C84.4199 27.1737 83.8895 27.5111 83.5224 27.9975C83.3785 28.1672 83.287 28.3752 83.2591 28.596C83.2932 28.5938 83.3689 28.3837 83.6307 28.0865C84.0144 27.6777 84.5211 27.4053 85.0738 27.3107C85.8934 27.1533 86.7422 27.3177 87.4437 27.7699C88.3104 28.3403 89.055 29.0772 89.6343 29.9379C90.2271 30.8192 90.8771 31.6607 91.5801 32.4568C92.1809 33.1164 92.9497 33.6001 93.8043 33.8562C94.3786 34.0343 94.9918 34.0453 95.5722 33.888C95.7872 33.8401 95.9843 33.7328 96.1412 33.5782Z" fill="#263238"/>
    <path d="M95.9344 33.6387C96.773 32.5042 98.2989 32.0654 99.1874 30.962C99.1644 31.3854 98.9878 31.786 98.6906 32.0885C98.7839 32.1039 98.8796 32.0966 98.9695 32.0671C99.0594 32.0375 99.1408 31.9867 99.2069 31.919C99.3644 31.8132 99.5702 31.7112 99.7334 31.8035C99.8087 31.8585 99.8678 31.9328 99.9045 32.0186C100.131 32.4606 100.271 32.9421 100.316 33.4368C99.4302 33.6092 98.5423 33.7475 97.6446 33.8385C97.0923 33.8735 96.2365 34.1946 95.9634 33.6643" fill="#263238"/>
    <path d="M68.1735 41.0351C68.5485 41.8239 68.7478 42.6847 68.7575 43.5581C68.7514 43.9935 68.6067 44.4157 68.3444 44.7634C68.0821 45.1111 67.7158 45.3661 67.2988 45.4916C66.9164 45.5317 66.5309 45.5308 66.1487 45.4891C65.9576 45.4676 65.7641 45.4888 65.5822 45.5512C65.4003 45.6136 65.2345 45.7156 65.0969 45.85C64.9617 46.0723 64.898 46.3308 64.9144 46.5905C64.9308 46.8502 65.0266 47.0986 65.1888 47.3021C65.4105 47.6594 65.708 47.9637 66.0603 48.1933C66.4126 48.4229 66.811 48.5723 67.2275 48.6308C67.6439 48.6894 68.0681 48.6557 68.47 48.5321C68.872 48.4085 69.2419 48.1981 69.5535 47.9157" fill="#263238"/>
    <path d="M85.1587 64.6362L85.3854 62.4863C85.3854 62.4863 79.5702 62.8543 79.0217 65.976C79.0217 65.976 77.3028 63.2579 72.8108 62.7961L73.0192 66.0889L79.4132 67.6213L85.1587 64.6362Z" fill="#E0E0E0"/>
    <path d="M68.8545 66.5852C70.402 66.4872 71.8007 65.55 73.5684 65.3628C77.4152 66.3155 81.462 66.0594 85.158 64.6294C88.7428 64.7169 92.3111 65.1466 95.8142 65.9127L117.437 71.4438L120.859 83.226L97.841 83.2315C97.841 83.2315 101.981 114.147 101.195 119.358L66.9015 120.631L67.2507 101.704L66.1021 89.9354L58.5899 102.101L45.8562 95.5698C45.8562 95.5698 58.6736 67.1884 68.8545 66.5852Z" fill="#E0E0E0"/>
    <path d="M84.1999 120.44C84.2098 120.255 84.2095 120.07 84.1991 119.885C84.1741 119.49 84.1408 118.965 84.1467 118.301C84.0604 116.937 83.9809 114.923 83.8252 112.462C83.5137 107.54 82.9877 100.742 82.2059 93.2557C81.4242 85.7692 80.5705 78.9854 79.9195 74.1052C79.5886 71.6895 79.3204 69.7215 79.1288 68.3168C79.0238 67.6663 78.9428 67.1444 78.886 66.751C78.8671 66.5658 78.8326 66.3825 78.7829 66.2031C78.7765 66.3879 78.7882 66.5728 78.8178 66.7553C78.8428 67.1507 78.9174 67.6799 78.9865 68.3395C79.1508 69.7459 79.3863 71.7365 79.6753 74.1412C80.2591 79.0393 81.0978 85.8035 81.8523 93.2918C82.6068 100.78 83.2082 107.58 83.5729 112.478C83.7269 114.912 83.9002 116.893 84.0031 118.303C84.0463 118.985 84.0786 119.496 84.1036 119.891C84.1167 120.077 84.1489 120.261 84.1999 120.44Z" fill="#263238"/>
    <path d="M79.0783 80.8244C79.0306 80.8274 78.9244 81.0941 78.5284 81.2149C78.4222 81.2501 78.3098 81.2628 78.1985 81.2522C78.0871 81.2416 77.9791 81.2079 77.8815 81.1532C77.7769 81.0797 77.695 80.9782 77.6452 80.8604C77.5954 80.7426 77.5797 80.6132 77.5999 80.487C77.6095 80.3569 77.6563 80.2323 77.7345 80.1279C77.8128 80.0235 77.9193 79.9438 78.0415 79.8981C78.1504 79.8705 78.2639 79.866 78.3747 79.8849C78.4854 79.9038 78.591 79.9457 78.6846 80.0079C79.0404 80.2248 79.0602 80.5382 79.1211 80.5275C79.182 80.5168 79.2482 80.1569 78.8361 79.8067C78.7181 79.7028 78.5773 79.6282 78.425 79.5891C78.2727 79.55 78.1134 79.5475 77.9599 79.5817C77.771 79.6415 77.6032 79.7541 77.4763 79.9063C77.3494 80.0584 77.2687 80.2437 77.2437 80.4402C77.2187 80.6368 77.2505 80.8364 77.3354 81.0154C77.4202 81.1945 77.5545 81.3455 77.7224 81.4506C77.8629 81.5194 78.0172 81.5555 78.1736 81.5562C78.33 81.557 78.4846 81.5224 78.6257 81.455C79.1097 81.2123 79.1252 80.8077 79.0783 80.8244Z" fill="#263238"/>
    <path d="M80.1914 64.5671C80.1463 64.611 80.4831 64.9593 80.8352 65.6557C81.2603 66.5939 81.5775 67.5773 81.7805 68.587L81.8643 68.9377L82.0929 68.6563L82.3917 68.2951C83.4708 67.079 84.4596 65.7857 85.3501 64.4255C84.1852 65.5562 83.1023 66.7684 82.1095 68.0529L81.8178 68.4204L82.1234 68.4901C81.9172 67.4521 81.5515 66.4524 81.0392 65.5265C80.8442 65.1389 80.5521 64.8084 80.1914 64.5671Z" fill="#263238"/>
    <path d="M73.2414 65.1846C74.126 66.1601 75.099 67.0517 76.1478 67.8481C76.2616 67.9162 76.3244 68.0422 76.5745 68.1017C76.6362 68.1104 76.699 68.1036 76.7573 68.082C76.8157 68.0604 76.8678 68.0246 76.9089 67.9779C76.9712 67.9039 77.0107 67.8134 77.0225 67.7174C77.0291 67.462 77.0129 67.2065 76.9742 66.9539C76.9678 66.5513 77.0256 66.1502 77.1454 65.7658C77.3503 65.1094 77.6291 64.7564 77.5788 64.7185C77.5285 64.6806 77.1925 64.9962 76.9076 65.685C76.7413 66.0878 76.6525 66.5184 76.6456 66.9541C76.6712 67.1805 76.6856 67.4081 76.6888 67.6359C76.6548 67.7475 76.6471 67.7343 76.6266 67.7356C76.6062 67.7369 76.4906 67.6416 76.3828 67.5594C75.4076 66.6768 74.3564 65.8822 73.2414 65.1846Z" fill="#263238"/>
    <path d="M71.4219 65.3006L73.0496 174.959C73.0496 174.959 60.9924 171.006 57.8042 172.002C54.616 172.997 51.2897 174.515 48.2738 173.583L65.2649 122.138L63.3225 94.4718L57.7908 104.404L59.6836 105.544L47.743 124.417C47.743 124.417 42.8932 116.353 41.7535 110.457C40.6137 104.56 47.8387 89.5857 47.8387 89.5857C47.8387 89.5857 57.6583 65.9662 71.4219 65.3006Z" fill="#94C4E8"/>
    <path d="M122.896 167.882C119.012 171.399 115.479 167.489 109.186 168.749C102.894 170.01 98.2659 170.645 98.2659 170.645L89.5218 64.9142C95.2823 63.2492 117.43 71.4507 117.43 71.4507L128.853 54.3486L141.652 59.6304C141.652 59.6304 127.677 84.5464 126.404 86.0575C125.131 87.5686 98.989 84.6164 98.989 84.6164C100.701 97.593 103.223 110.45 106.538 123.112L122.896 167.882Z" fill="#94C4E8"/>
    <path d="M97.3805 76.0664C97.5243 77.7302 97.7912 79.3812 98.179 81.0056C98.445 82.6523 98.8315 84.2773 99.3354 85.8674C99.1832 84.2066 98.9142 82.5585 98.5305 80.9354C98.2609 79.2876 97.8766 77.6607 97.3805 76.0664Z" fill="#263238"/>
    <g opacity="0.5">
        <path d="M141.68 59.6285L139.607 63.3189L126.562 57.8199L128.882 54.3466L141.68 59.6285Z" fill="black"/>
    </g>
    <path d="M122.136 76.5741C121.291 74.4421 119.75 72.6582 117.763 71.512C117.7 71.5981 118.907 72.5005 120.112 73.9027C121.316 75.305 122.036 76.6215 122.136 76.5741Z" fill="#263238"/>
    <path d="M119.939 76.905C119.956 75.8524 119.704 74.813 119.207 73.8849C118.816 72.9064 118.185 72.0423 117.371 71.3727C117.287 71.4396 118.182 72.4987 118.907 74.0134C119.633 75.528 119.83 76.9187 119.939 76.905Z" fill="#263238"/>
    <path d="M130.17 55.6748C130.17 55.6748 131.807 51.7998 132.03 51.2107C132.556 49.5233 132.993 47.8095 133.341 46.0764C133.341 46.0764 134.443 45.7602 134.526 48.2601C134.609 50.76 135.077 50.0391 135.077 50.0391C135.077 50.0391 139.859 43.412 141.14 43.7485C141.62 43.8755 141.067 45.4095 140.266 46.2747C139.654 46.971 139.099 47.7157 138.607 48.5015C138.607 48.5015 143.203 43.7959 144.365 44.4205C144.365 44.4205 144.945 44.815 143.472 46.2087C142.256 47.3636 141.125 48.6041 140.086 49.9206C140.086 49.9206 144.704 46.206 145.273 46.5397C146.218 47.0959 141.537 50.8829 140.807 52.2295C140.807 52.2295 144.278 49.2036 144.43 50.0907C144.582 50.9777 140.248 54.421 138.465 59.1266L130.17 55.6748Z" fill="#EC9681"/>
    <path d="M133.773 50.7386C133.743 50.7953 134.116 50.9634 134.559 51.3734C135.137 51.947 135.497 52.7033 135.578 53.5129L135.605 53.9424L135.878 53.6034C136.385 52.9572 137.067 52.4698 137.842 52.1992C138.446 51.9967 138.848 51.9781 138.852 51.9231C138.493 51.8423 138.12 51.866 137.775 51.9913C136.91 52.2088 136.144 52.7105 135.599 53.4157L135.906 53.5058C135.822 52.614 135.392 51.7908 134.707 51.2134C134.451 50.9635 134.126 50.7978 133.773 50.7386Z" fill="#754330"/>
    <path d="M91.3862 114.495C92.7815 118.698 97.0298 128.614 95.809 131.82C93.727 137.318 96.14 144.838 96.14 144.838L110.91 141.467C110.91 141.467 107.217 134.274 107.324 126.875C107.43 119.476 102.714 112.875 100.539 108.68C98.364 104.485 92.8929 69.5124 92.5556 66.4536C92.3259 64.3395 89.3829 63.369 87.5435 62.9652C86.7312 62.7839 86.1589 62.7174 86.1589 62.7174C86.1589 62.7174 88.9615 107.222 91.3862 114.495Z" fill="white"/>
    <path d="M71.4205 65.2992C71.4205 65.2992 67.7226 64.0821 65.8764 65.8417C64.9214 66.7577 63.5471 119.781 65.0837 130.328C66.6204 140.874 69.2048 145.912 69.2048 145.912L84.5077 142.206C84.5077 142.206 78.5658 126.511 76.5086 115.094C74.4514 103.677 71.4205 65.2992 71.4205 65.2992Z" fill="white"/>
    <path d="M178.845 79.7095L162.189 83.2569L163.859 63.0648L185.015 63.0648L229.088 61.1986L222.918 68.2509L178.845 79.7095Z" fill="#6798BB"/>
    <path d="M145.132 78.3018C147.136 82.8564 148.869 87.3139 150.872 91.8407C151.885 94.1215 153.028 96.5617 155.205 97.7818C156.086 98.2809 157.361 98.475 157.978 97.6708C158.595 96.8667 158.172 95.7367 157.708 94.8494C154.508 88.7864 150.437 83.2253 145.625 78.3434" fill="#6798BB"/>
    <g opacity="0.5">
        <path d="M145.133 78.3018C147.136 82.8563 148.869 87.3138 150.873 91.8407C151.885 94.1214 153.029 96.5616 155.206 97.7817C156.086 98.2808 157.362 98.4749 157.979 97.6708C158.596 96.8666 158.173 95.7366 157.708 94.8493C154.509 88.7864 150.438 83.2252 145.625 78.3434" fill="black"/>
    </g>
    <path d="M140.974 92.6932L139.29 84.0277C139.29 84.0277 148.302 78.6898 148.995 78.1491L139.498 63.8545L150.867 58.4334C150.867 58.4334 163.872 78.9324 162.548 82.045C160.593 86.662 148.371 90.5927 143.234 92.0623L146.368 96.4505L149.265 98.7313L148.794 100.277C148.794 100.277 141.591 97.8023 141.751 97.7469C141.91 97.6914 141.411 95.1749 140.981 92.6793L140.974 92.6932Z" fill="#A2675F"/>
    <path d="M130.665 38.2953L136.044 149.463C136.044 149.463 148.003 144.686 151.296 145.49C154.589 146.295 158.055 147.619 161.049 146.482L140.544 95.4665L140.738 67.3211L146.977 77.0264L145.133 78.3019L158.436 96.6519C158.436 96.6519 162.831 88.1736 163.608 82.1286C164.384 76.0836 156.107 61.38 156.107 61.38C156.107 61.38 144.648 38.0873 130.665 38.2953Z" fill="#6798BB"/>
    <path d="M155.678 87.2718C155.622 87.2718 155.269 86.6271 154.582 85.6081C153.681 84.2916 152.685 83.0428 151.601 81.8715C150.34 80.4851 149.134 79.2996 148.288 78.4053C147.996 78.0214 147.679 77.6578 147.338 77.317C147.088 77.0882 146.908 77.0327 146.915 77.005C146.922 76.9773 147.13 77.005 147.428 77.2061C147.81 77.5152 148.161 77.8612 148.475 78.239C149.342 79.0847 150.603 80.2563 151.865 81.6566C152.966 82.8372 153.949 84.1236 154.797 85.4972C155.17 86.0461 155.466 86.6432 155.678 87.2718Z" fill="#263238"/>
    <path d="M155.947 83.0643C155.878 83.1405 154.055 81.553 151.601 79.8823C149.146 78.2116 147.004 77.0747 147.06 76.9777C147.57 77.1251 148.059 77.3371 148.516 77.6085C149.65 78.2003 150.747 78.8601 151.802 79.5842C152.861 80.302 153.873 81.087 154.831 81.9343C155.253 82.2583 155.628 82.6385 155.947 83.0643Z" fill="#263238"/>
    <path d="M113.28 17.4095C113.28 17.4095 113.346 16.4827 113.313 13.8159L115.44 7.8155C115.44 7.8155 114.64 6.71543 113.493 9.42228C113.342 9.72279 113.091 9.96101 112.783 10.0957C112.475 10.2303 112.129 10.2529 111.806 10.1594C111.483 10.066 111.203 9.86248 111.014 9.58414C110.825 9.30581 110.74 8.97022 110.773 8.63555C110.809 8.18835 110.975 7.76142 111.25 7.40676C111.525 7.0521 111.897 6.78502 112.321 6.63805C112.745 6.49109 113.202 6.47057 113.638 6.57901C114.073 6.68745 114.468 6.92016 114.773 7.24879C114.773 7.24879 115.713 7.2488 115.72 6.48208C115.726 5.71536 113.406 4.24859 111.72 5.00198C111.024 5.32566 110.406 5.79388 109.906 6.3754C109.906 6.3754 109.493 0.375 109.006 0.375C108.519 0.375 107.893 0.841693 108.399 7.40213C108.399 7.40213 107.513 2.28846 107.326 1.64842C107.139 1.00838 106.193 0.675023 106.299 2.31513L106.666 7.59549C106.666 7.59549 105.646 4.3286 105.546 4.07525C105.286 3.40854 104.599 3.55521 104.659 4.50195C104.706 5.21533 104.879 8.2622 104.879 8.2622L105.692 17.6428H105.639" fill="#FFBE9D"/>
    <path d="M106.92 9.66846C106.886 9.71513 107.166 9.90181 107.466 10.3352C107.859 10.884 108.037 11.5576 107.966 12.2286L107.86 13.0554L108.286 12.3353L108.346 12.2353C108.664 11.5949 109.119 11.0325 109.68 10.5885C110.12 10.2818 110.473 10.2418 110.467 10.1885C110.46 10.1352 110.08 10.0952 109.553 10.3818C108.911 10.7945 108.394 11.3757 108.06 12.062L108 12.162L108.32 12.2686C108.359 11.8936 108.32 11.5145 108.205 11.1553C108.09 10.7961 107.902 10.4647 107.653 10.1818C107.273 9.75514 106.933 9.63513 106.92 9.66846Z" fill="#EB996E"/>
    <path d="M121.282 53.1348L146.69 69.266L134.026 83.2015L106.896 59.1579L103.216 14.6994L115.215 12.9544L121.282 53.1348Z" fill="#6798BB"/>
    <g opacity="0.5">
        <path d="M104.356 20.7662L117.858 18.2496L116.145 13.7867L102.152 15.9061L104.356 20.7662Z" fill="black"/>
    </g>
    <path d="M150.469 63.3951C150.469 63.3951 144.85 63.9888 140.585 64.3943C135.603 64.8722 130.448 69.9698 132.975 80.0926C134.3 85.4581 137.638 88.7817 136.885 95.2985L133.735 116.333L169.346 119.44L168.687 88.1082L169.882 75.5598C171.134 59.8326 159.071 62.5262 159.071 62.5262L150.454 63.4096" fill="#6798BB"/>
    <path d="M133.968 83.8073C138.008 109.65 124.707 133.045 109.805 151.582C118.056 160.307 128.236 166.978 139.529 171.06C141.875 171.922 144.402 172.668 146.849 172.161C150.108 171.487 152.49 168.772 155.372 167.092C165.249 161.372 178.999 168.613 188.774 162.747C175.646 133.914 170.947 105.479 169.455 73.8293" fill="#6798BB"/>
    <g opacity="0.5">
        <path d="M138.024 65.0749C138.024 65.0749 153.527 81.7289 153.563 81.6131C153.599 81.4972 163.353 62.5912 163.353 62.5912C162.933 61.744 139.835 63.3588 138.024 65.0749Z" fill="black"/>
    </g>
    <path d="M139.557 64.5607L153.09 77.2322L161.287 62.3232C153.995 62.4794 146.728 63.2277 139.557 64.5607Z" fill="white"/>
    <g opacity="0.2">
        <path d="M119.79 137.803L133.678 144.435C133.678 144.435 140.724 133.451 144.54 121.764C151.165 101.308 144.902 65.075 144.902 65.075C140.398 101.823 129.66 122.242 119.79 137.803Z" fill="black"/>
    </g>
    <path d="M153.547 32.8237C154.595 34.033 155.265 35.5236 155.473 37.1103C155.61 38.1457 155.603 39.326 156.371 40.0066C157.298 40.8611 158.92 40.5642 159.839 41.4548C161.164 42.7147 159.977 45.2273 161.135 46.6321C161.903 47.5661 163.308 47.5516 164.408 48.0802C165.156 48.4759 165.752 49.1085 166.102 49.879C166.451 50.6495 166.536 51.5143 166.341 52.3379C165.994 53.7861 164.893 54.9012 163.843 55.9583L161.439 58.3478C161.053 58.8189 160.52 59.1477 159.926 59.2819C158.847 59.3905 158.058 58.2392 157.03 58.0002C155.726 57.7034 154.575 58.8402 153.301 59.2384C152.827 59.3846 152.328 59.4285 151.836 59.3671C151.344 59.3057 150.871 59.1404 150.448 58.8823C150.025 58.6242 149.661 58.2791 149.382 57.8698C149.102 57.4606 148.912 56.9966 148.826 56.5086" fill="#263238"/>
    <path d="M157.573 63.2288C156.472 60.0501 155.401 56.712 155.401 56.712C155.401 56.712 159.253 54.6049 158.232 48.9715C157.262 43.606 152.316 32.1509 152.316 32.1509C149 31.9867 145.714 32.8426 142.899 34.6033C140.085 36.364 137.877 38.945 136.575 41.9985L145.988 67.653C146.277 68.3736 146.706 69.0296 147.251 69.5829C147.796 70.1362 148.445 70.5758 149.161 70.8762C149.877 71.1766 150.646 71.3319 151.422 71.3329C152.199 71.334 152.968 71.1809 153.685 70.8824C156.849 69.6805 158.616 66.2555 157.573 63.2288Z" fill="#FFBE9D"/>
    <path d="M154.177 41.5632C154.24 41.741 154.232 41.9366 154.154 42.1084C154.075 42.2802 153.933 42.4146 153.757 42.4828C153.585 42.5497 153.395 42.5487 153.224 42.4801C153.053 42.4115 152.915 42.2804 152.837 42.1135C152.773 41.9357 152.781 41.7401 152.86 41.5683C152.938 41.3965 153.081 41.2622 153.257 41.1939C153.428 41.1271 153.619 41.128 153.79 41.1966C153.961 41.2652 154.099 41.3963 154.177 41.5632Z" fill="#263238"/>
    <path d="M154.821 40.6807C154.77 40.7965 154.097 40.5938 153.373 40.8545C152.649 41.1151 152.229 41.6727 152.113 41.5786C151.997 41.4844 152.113 41.3613 152.265 41.1079C152.507 40.7727 152.845 40.5199 153.235 40.3838C153.621 40.2572 154.037 40.2572 154.423 40.3838C154.72 40.4924 154.85 40.601 154.821 40.6807Z" fill="#263238"/>
    <path d="M146.545 44.3954C146.609 44.5732 146.601 44.7688 146.522 44.9406C146.444 45.1124 146.301 45.2467 146.125 45.315C145.954 45.3818 145.763 45.3809 145.592 45.3123C145.421 45.2437 145.283 45.1126 145.205 44.9457C145.142 44.7679 145.15 44.5723 145.228 44.4005C145.307 44.2287 145.449 44.0943 145.625 44.0261C145.797 43.9592 145.987 43.9602 146.158 44.0288C146.329 44.0974 146.467 44.2285 146.545 44.3954Z" fill="#263238"/>
    <path d="M147.233 43.6354C147.182 43.7513 146.509 43.5485 145.785 43.8092C145.06 44.0699 144.641 44.6274 144.532 44.5333C144.423 44.4392 144.532 44.3161 144.684 44.0626C144.925 43.7306 145.265 43.4823 145.654 43.3525C146.044 43.2226 146.464 43.2178 146.856 43.3385C147.131 43.4399 147.262 43.5775 147.233 43.6354Z" fill="#263238"/>
    <path d="M151.816 48.1521C152.164 47.8984 152.54 47.6869 152.938 47.5221C153.119 47.4352 153.279 47.3339 153.271 47.1963C153.215 46.997 153.101 46.8185 152.945 46.6822L151.888 45.444C150.949 44.4135 150.095 43.3093 149.332 42.1422C150.352 43.0961 151.294 44.13 152.149 45.234L153.184 46.4867C153.388 46.6767 153.517 46.9337 153.546 47.2108C153.54 47.2867 153.518 47.3605 153.48 47.4268C153.443 47.4931 153.391 47.5503 153.329 47.5945C153.234 47.6587 153.132 47.7122 153.025 47.7538C152.641 47.9375 152.234 48.0714 151.816 48.1521Z" fill="#263238"/>
    <path d="M155.401 56.6902C152.901 57.6056 150.197 57.8111 147.588 57.2839C147.588 57.2839 150.607 60.3396 155.77 58.008L155.401 56.6902Z" fill="#EB996E"/>
    <path d="M152.128 50.0142C151.925 49.8913 151.694 49.8205 151.457 49.8078C151.219 49.7952 150.982 49.8412 150.767 49.9418C150.61 50.0104 150.47 50.1099 150.353 50.2344C150.236 50.3588 150.145 50.5056 150.086 50.6659C150.03 50.8227 150.024 50.9931 150.068 51.1537C150.112 51.3143 150.204 51.4575 150.332 51.5638C150.497 51.6547 150.685 51.6942 150.872 51.6775C151.059 51.6607 151.237 51.5883 151.382 51.4696C151.679 51.2227 151.925 50.9202 152.106 50.579C152.171 50.4933 152.215 50.3944 152.237 50.2894C152.25 50.2394 152.248 50.1865 152.232 50.1375C152.215 50.0885 152.184 50.0456 152.143 50.0142" fill="#EB996E"/>
    <path d="M149.825 49.42C149.948 49.3766 150.223 50.1441 151.106 50.4989C151.99 50.8537 152.808 50.441 152.851 50.5496C152.895 50.6582 152.721 50.7741 152.366 50.9117C151.898 51.0773 151.387 51.0773 150.918 50.9117C150.476 50.7525 150.111 50.4316 149.897 50.0138C149.752 49.6662 149.774 49.4345 149.825 49.42Z" fill="#263238"/>
    <path d="M140.622 47.1971C140.005 47.2751 139.423 47.5261 138.942 47.9212C138.457 48.3126 138.148 48.8802 138.081 49.4997C138.05 50.1234 138.26 50.735 138.667 51.2086C139.062 51.6772 139.557 52.0509 140.115 52.302C140.509 52.5094 140.945 52.621 141.39 52.6278C141.612 52.6286 141.831 52.5741 142.027 52.4692C142.223 52.3642 142.39 52.2122 142.512 52.0268" fill="#FFBE9D"/>
    <path d="M141.512 50.7381C141.584 50.7381 141.454 51.1726 140.889 51.216C140.573 51.2184 140.269 51.0962 140.042 50.8757C139.784 50.6378 139.577 50.3495 139.434 50.0285C139.265 49.6925 139.223 49.3065 139.318 48.9424C139.357 48.7851 139.43 48.6384 139.533 48.5131C139.636 48.3878 139.765 48.2871 139.912 48.2183C140.448 48.0228 140.744 48.3342 140.687 48.3704C140.629 48.4066 140.382 48.3052 140.064 48.5152C139.877 48.6719 139.753 48.8906 139.714 49.1313C139.676 49.372 139.725 49.6186 139.854 49.8258C140.122 50.3906 140.534 50.8467 140.897 50.8685C141.259 50.8902 141.461 50.7381 141.512 50.7381Z" fill="#EB996E"/>
    <path d="M150.526 31.1225C151.024 31.8558 151.273 32.7308 151.234 33.6168C151.194 34.5028 150.87 35.3525 150.308 36.039C149.15 37.3858 147.275 37.7986 145.638 38.5082C144.002 39.2178 142.358 40.6804 142.662 42.4544C142.843 43.5189 143.734 44.4457 143.589 45.5173C143.43 46.7628 141.952 47.4796 141.663 48.7106C141.207 50.6801 143.987 52.0486 144.132 54.0688C144.212 55.2708 143.335 56.3642 143.372 57.5662C143.43 59.275 145.319 60.8608 144.581 62.4031C144.009 63.5834 142.343 63.6413 141.076 63.3154C139.809 62.9896 138.397 62.49 137.246 63.1199C136.617 63.5947 136.042 64.1361 135.53 64.7347C134.993 65.2225 134.323 65.5382 133.605 65.6406C132.888 65.7431 132.156 65.6277 131.504 65.3094C130.853 64.9911 130.312 64.4846 129.952 63.8554C129.591 63.2262 129.428 62.5033 129.484 61.7804C129.644 60.7343 129.969 59.7201 130.447 58.7754C130.921 57.8178 130.996 56.7112 130.657 55.698C130.245 54.9972 129.713 54.3745 129.085 53.8588C128.772 53.5981 128.532 53.2616 128.386 52.8813C128.24 52.501 128.194 52.0896 128.253 51.6866C128.629 50.318 130.722 50.1587 131.323 48.8699C132.148 47.1031 129.476 45.3218 129.875 43.403C130.302 41.2307 134.045 41.1294 134.48 38.9643C134.639 38.1678 134.263 37.3713 134.241 36.5676C134.19 34.7284 135.95 33.3164 137.709 32.7734C139.469 32.2303 141.373 32.2231 143.082 31.5279C144.016 31.1514 144.856 30.5794 145.768 30.1449C146.652 29.6614 147.67 29.4833 148.665 29.6381C149.162 29.7335 149.612 29.9958 149.94 30.3816C150.267 30.7674 150.454 31.2536 150.468 31.7596" fill="#263238"/>
    <path d="M150.208 35.1041C150.848 35.94 151.671 36.618 152.614 37.0862C153.556 37.5544 154.594 37.8003 155.646 37.805C155.478 36.4213 155.137 35.064 154.633 33.7645C154.125 32.456 153.211 31.3445 152.026 30.593C151.43 30.2254 150.752 30.0147 150.053 29.9805C149.354 29.9463 148.657 30.0898 148.029 30.3975" fill="#263238"/>
    <path d="M133.982 64.9011C133.845 64.8432 133.723 64.7539 133.627 64.6404C133.501 64.4713 133.419 64.2743 133.386 64.0662C133.353 63.8581 133.371 63.6452 133.439 63.4457C133.54 63.1655 133.712 62.9161 133.938 62.7216C134.21 62.4778 134.506 62.2619 134.822 62.0772C135.189 61.8735 135.534 61.6307 135.85 61.3531C136.035 61.1918 136.185 60.9941 136.291 60.7725C136.397 60.5508 136.456 60.3097 136.465 60.0642C136.429 59.519 136.197 59.0051 135.814 58.616C135.459 58.196 135.032 57.8195 134.698 57.3489C134.353 56.84 134.132 56.2571 134.053 55.6472C133.973 55.0373 134.038 54.4173 134.242 53.837C134.446 53.2053 134.819 52.6417 135.321 52.2078C135.843 51.7661 136.48 51.4475 137.059 51.0058C137.348 50.782 137.593 50.5072 137.783 50.1949C137.976 49.8619 138.062 49.4777 138.029 49.0942C137.895 48.3388 137.651 47.607 137.305 46.922C137.035 46.2316 136.955 45.4815 137.073 44.7497C137.182 44.0381 137.428 43.3545 137.798 42.7367C138.535 41.5808 139.548 40.6256 140.745 39.9562C141.827 39.3385 142.946 38.7896 144.097 38.3126C145.096 37.8848 146.063 37.3888 146.994 36.8282C147.765 36.3616 148.465 35.786 149.072 35.1193C149.527 34.6101 149.9 34.0337 150.179 33.4105C150.354 33.0179 150.476 32.604 150.542 32.1795C150.566 32.031 150.581 31.881 150.585 31.7306C150.585 31.7306 150.585 31.8826 150.513 32.1723C150.435 32.5906 150.304 32.9971 150.122 33.3815C149.418 34.7947 148.306 35.963 146.928 36.734C145.997 37.2826 145.03 37.7665 144.032 38.1822C142.876 38.655 141.751 39.2016 140.665 39.8187C139.444 40.4976 138.409 41.4677 137.653 42.6426C137.281 43.28 137.035 43.9831 136.929 44.7135C136.807 45.4744 136.889 46.2541 137.168 46.9727C137.506 47.6327 137.75 48.3372 137.892 49.0653C137.919 49.4189 137.838 49.7723 137.66 50.079C137.474 50.3823 137.228 50.6437 136.936 50.8465C136.378 51.281 135.741 51.5706 135.205 52.0485C134.683 52.5038 134.292 53.0916 134.076 53.7501C133.87 54.3502 133.807 54.9901 133.893 55.6187C133.978 56.2473 134.21 56.8473 134.568 57.3706C134.916 57.8557 135.35 58.225 135.698 58.6377C136.06 58.9986 136.283 59.4755 136.328 59.9845C136.323 60.215 136.269 60.4419 136.171 60.6503C136.072 60.8587 135.931 61.0439 135.756 61.1938C135.448 61.4716 135.11 61.7145 134.749 61.9179C134.431 62.107 134.135 62.3304 133.866 62.584C133.63 62.7949 133.455 63.0649 133.359 63.366C133.291 63.5749 133.277 63.7973 133.316 64.0133C133.355 64.2293 133.447 64.4323 133.583 64.6042C133.677 64.747 133.818 64.8522 133.982 64.9011Z" fill="white"/>
    <path d="M131.165 47.6749H131.447C131.719 47.6624 131.989 47.6358 132.258 47.5952C132.686 47.5436 133.104 47.4264 133.496 47.2476C134.022 46.9962 134.448 46.5754 134.706 46.0529C134.995 45.4181 135.15 44.7303 135.162 44.0327C135.158 43.249 135.199 42.4656 135.285 41.6866C135.43 40.8377 135.78 40.0372 136.306 39.3551C136.875 38.6249 137.563 37.9958 138.341 37.4942C139.898 36.5959 141.562 35.8953 143.293 35.4088C144.083 35.1409 144.828 34.8802 145.509 34.5833C146.145 34.3126 146.758 33.9905 147.341 33.6203C148.192 33.0982 148.931 32.4114 149.513 31.6001C149.731 31.3064 149.909 30.985 150.042 30.6443L150.006 30.7022L149.904 30.8905C149.77 31.123 149.622 31.3478 149.463 31.5639C148.87 32.3502 148.133 33.0162 147.29 33.5262C146.712 33.888 146.104 34.2005 145.473 34.4602C144.792 34.7426 144.025 35.0033 143.257 35.264C141.513 35.7524 139.837 36.4579 138.268 37.3638C137.471 37.8712 136.768 38.5131 136.19 39.2609C135.653 39.9663 135.296 40.7912 135.147 41.6649C135.07 42.4517 135.034 43.2421 135.039 44.0327C135.04 44.7115 134.896 45.3828 134.619 46.0022C134.378 46.5074 133.975 46.9177 133.475 47.168C133.091 47.3463 132.684 47.4705 132.265 47.5373C131.918 47.5952 131.643 47.6242 131.462 47.6459C131.362 47.6494 131.263 47.6591 131.165 47.6749Z" fill="white"/>
    <path d="M163.539 55.2777L163.633 55.2125C163.725 55.1474 163.81 55.0721 163.886 54.988C164.181 54.694 164.41 54.3412 164.56 53.9526C164.787 53.3753 164.85 52.746 164.741 52.1351C164.588 51.3816 164.166 50.7096 163.553 50.2452C162.947 49.7719 162.193 49.5282 161.424 49.5573C160.831 49.6639 160.231 49.722 159.629 49.7311C159.431 49.714 159.24 49.6547 159.068 49.5573C158.895 49.4598 158.746 49.3265 158.629 49.1663C158.557 49.0383 158.508 48.8986 158.484 48.7536C158.484 48.7536 158.484 48.7898 158.484 48.8695C158.495 48.984 158.529 49.0951 158.586 49.1953C158.698 49.375 158.85 49.5269 159.029 49.6398C159.208 49.7526 159.411 49.8235 159.621 49.847C160.23 49.855 160.839 49.8065 161.439 49.7022C162.168 49.688 162.881 49.923 163.459 50.3683C164.045 50.817 164.449 51.4626 164.596 52.1858C164.708 52.7722 164.658 53.378 164.451 53.9381C164.317 54.3193 164.11 54.6709 163.843 54.9735C163.736 55.0694 163.634 55.1709 163.539 55.2777Z" fill="white"/>
    <path d="M124.749 34.6126L124.271 33.5626C124.21 33.4269 124.177 33.2804 124.174 33.1317C124.171 32.983 124.197 32.8352 124.252 32.6969C124.306 32.5586 124.388 32.4326 124.492 32.3263C124.596 32.2201 124.721 32.1357 124.858 32.0783C130.216 29.8263 154.248 19.7687 154.907 19.7687C155.697 19.7687 156.051 20.9924 156.051 20.9924C156.084 21.4455 156.04 21.9008 155.921 22.3393L124.749 34.6126Z" fill="#6798BB"/>
    <path d="M154.544 20.6957L125.233 33.0052C125.045 33.0849 124.883 33.2162 124.766 33.3839C124.649 33.5516 124.582 33.7489 124.572 33.9531C124.562 34.1574 124.61 34.3602 124.71 34.5384C124.811 34.7166 124.959 34.8628 125.139 34.9602L131.504 38.4286C131.641 38.5039 131.794 38.548 131.95 38.5581C132.106 38.5681 132.263 38.5437 132.409 38.4865L154.508 29.7975C154.69 29.7249 154.85 29.6045 154.969 29.4491C155.089 29.2937 155.165 29.1089 155.189 28.9141L156.021 21.8832C156.056 21.6923 156.038 21.4956 155.97 21.3139C155.903 21.1321 155.787 20.9721 155.636 20.8505C155.485 20.729 155.303 20.6504 155.111 20.6232C154.919 20.5959 154.723 20.621 154.544 20.6957Z" fill="#6798BB"/>
    <g opacity="0.5">
        <path d="M154.545 20.6957L125.233 33.0053C125.045 33.085 124.883 33.2162 124.766 33.3839C124.649 33.5516 124.582 33.749 124.572 33.9532C124.562 34.1574 124.61 34.3603 124.711 34.5385C124.811 34.7166 124.96 34.8629 125.139 34.9603L131.504 38.4287C131.642 38.5039 131.794 38.5481 131.95 38.5581C132.107 38.5681 132.263 38.5437 132.409 38.4866L154.508 29.7975C154.691 29.7249 154.85 29.6046 154.97 29.4491C155.09 29.2937 155.165 29.1089 155.189 28.9142L156.022 21.8832C156.056 21.6923 156.039 21.4957 155.971 21.3139C155.903 21.1322 155.787 20.9721 155.636 20.8506C155.485 20.729 155.304 20.6505 155.112 20.6232C154.919 20.596 154.724 20.621 154.545 20.6957Z" fill="black"/>
    </g>
    <path d="M135.967 40.3103C135.967 40.2162 135.511 39.2314 134.997 38.0294C134.368 36.5586 134.312 34.9057 134.84 33.3957C135.368 31.8857 136.441 30.6277 137.849 29.8689C140.247 28.5574 142.795 27.5411 145.438 26.8423C146.815 26.4861 148.272 26.6021 149.576 27.1719C150.879 27.7416 151.954 28.732 152.628 29.9848L154.163 32.8088L135.967 40.3103Z" fill="#6798BB"/>
    <path d="M123.881 40.6006C123.881 40.6006 124.135 40.5572 124.547 40.4123C125.13 40.1924 125.647 39.8258 126.046 39.3479C126.643 38.6394 127.047 37.789 127.219 36.8788C127.419 35.7461 127.549 34.6023 127.61 33.4539C127.676 32.2677 127.989 31.1085 128.53 30.0506C128.982 29.1727 129.763 28.5091 130.702 28.2042C131.335 27.9884 132.024 28.009 132.643 28.2621C132.871 28.3416 133.072 28.4848 133.222 28.6749C133.222 28.6749 133.005 28.5373 132.592 28.3997C131.999 28.2208 131.363 28.2412 130.782 28.4576C129.918 28.7657 129.207 29.3963 128.798 30.2172C128.301 31.2412 128.013 32.3537 127.951 33.49C127.885 34.6544 127.743 35.8131 127.523 36.9584C127.325 37.9188 126.87 38.8072 126.206 39.529C125.763 40.0185 125.19 40.3726 124.555 40.5499C124.338 40.6234 124.106 40.6409 123.881 40.6006Z" fill="#263238"/>
    <path d="M124.105 40.5069C122.656 39.9059 120.991 40.3403 119.543 39.7828C119.797 40.1808 120.189 40.4719 120.643 40.601C120.561 40.6634 120.466 40.7074 120.364 40.7299C120.263 40.7524 120.158 40.7529 120.057 40.7313C119.847 40.7313 119.593 40.7313 119.499 40.9196C119.456 41.012 119.441 41.1154 119.456 41.2165C119.492 41.7586 119.63 42.2891 119.861 42.7805C120.795 42.4547 121.708 42.0564 122.606 41.6726C123.163 41.4192 124.141 41.2237 124.097 40.5648" fill="#263238"/>
    <path d="M157.897 62.4309C157.897 62.4309 161.46 60.9828 163.393 62.6265C164.392 63.4664 169.055 115.673 168.201 126.165C167.347 136.657 165.109 141.798 165.109 141.798L149.787 139.119C149.787 139.119 154.66 123.262 155.978 111.879C157.296 100.496 157.897 62.4309 157.897 62.4309Z" fill="white"/>
    <path d="M144.626 61.9757C144.626 61.9757 138.073 63.6773 138.109 66.3202C138.145 68.9632 136.147 100.258 128.233 118.114C123.019 129.953 114.953 134.008 114.953 134.008L133.366 142.089C133.366 142.089 143.294 129.54 145.089 106.768C146.127 91.8486 145.972 76.8703 144.626 61.9757Z" fill="white"/>
    <path d="M223.541 39.5855C223.58 39.1204 223.443 38.6576 223.157 38.2892C222.87 37.9207 222.455 37.6735 221.995 37.5968L212.274 34.4912C209.134 33.962 206.791 37.7259 206.395 40.8852C205.953 44.3981 206.182 46.1487 206.432 48.8242C206.52 50.2867 207.303 53.1438 208.242 54.2679C209.182 55.392 208.224 56.9283 211.03 57.6079L210.576 61.1983L210.545 65.9087C212.065 65.7475 221.865 63.9716 221.865 63.9716L223.541 39.5855Z" fill="#936754"/>
    <path d="M210.742 41.6196C210.645 41.7929 210.049 41.6196 209.321 41.6196C208.593 41.6196 207.983 41.6889 207.934 41.5087C207.886 41.3285 208.475 40.8848 209.383 40.9264C210.291 40.968 210.846 41.4671 210.742 41.6196Z" fill="#263238"/>
    <path d="M217.79 42.0417C217.693 42.215 217.097 42.0417 216.369 42.0417C215.641 42.0417 215.031 42.111 214.947 41.9308C214.864 41.7505 215.488 41.3068 216.396 41.3484C217.304 41.39 217.894 41.8545 217.79 42.0417Z" fill="#263238"/>
    <path d="M211.376 49.0194C210.997 48.8754 210.602 48.7797 210.2 48.7346C210.019 48.6908 209.843 48.6481 209.806 48.5236C209.801 48.3301 209.856 48.1398 209.965 47.9794C210.169 47.5397 210.378 47.0791 210.602 46.5952C211.494 44.6189 212.156 42.9692 212.072 42.9489C211.988 42.9285 211.206 44.4868 210.332 46.463C210.116 46.9489 209.91 47.4148 209.718 47.8576C209.586 48.0746 209.534 48.3317 209.574 48.583C209.597 48.6503 209.635 48.7115 209.685 48.7621C209.735 48.8128 209.796 48.8515 209.863 48.8754C209.963 48.9137 210.068 48.939 210.174 48.9507C210.571 49.0219 210.974 49.0449 211.376 49.0194Z" fill="#263238"/>
    <path d="M211.029 57.607C211.029 57.607 213.882 58.0754 217.536 56.172C217.536 56.172 216.443 60.0608 210.934 59.4338L211.029 57.607Z" fill="#7A4A45"/>
    <path d="M202.718 43.0844C202.74 42.2431 203.076 41.4473 203.673 40.8297C204.05 40.5436 204.41 40.2389 204.751 39.9167C205.403 39.1541 205.304 38.0584 205.577 37.115C205.758 36.505 206.1 35.9505 206.571 35.4978C207.043 35.045 207.632 34.7071 208.289 34.5122C209.38 34.1939 210.622 34.29 211.644 33.8304C212.4 33.4932 212.978 32.8771 213.757 32.5634C215.276 31.984 217.046 32.764 218.488 33.6021C218.779 34.6555 218.061 35.5267 217.37 36.3687C217.019 36.787 216.571 37.1268 216.054 37.3648C215.538 37.6028 214.966 37.7334 214.378 37.7476C213.468 37.763 212.401 37.5357 211.766 38.1025C211.132 38.6693 211.353 39.808 210.814 40.509C210.028 41.5014 208.224 41.0424 207.042 41.6324C206.131 42.0831 205.755 43.0681 205.297 43.9223C204.839 44.7764 204.05 45.657 202.989 45.5868C202.795 44.7603 202.705 43.9208 202.718 43.0844Z" fill="#263238"/>
    <path d="M216.409 35.4738C218.835 35.4826 221.236 35.9585 223.482 36.8755C224.174 37.0928 224.778 37.5259 225.207 38.1113C225.496 38.6859 225.613 39.332 225.543 39.9716C225.506 41.9594 224.643 44.3696 223.859 46.1899L221.354 47.6289C219.456 47.1471 220.388 43.8685 220.508 42.2165C219.849 41.9027 219.292 41.4098 218.9 40.7943C218.508 40.1788 218.297 39.4655 218.291 38.7358C217.752 38.3694 217.302 37.8856 216.976 37.3207C216.65 36.7557 216.456 36.1243 216.409 35.4738Z" fill="#263238"/>
    <path d="M221.404 46.9026C221.496 45.7687 222.897 45.5697 223.864 46.1642C224.394 46.4926 224.786 47.1344 224.694 48.3396C224.455 51.546 221.289 50.628 221.285 50.5515C221.282 50.475 221.292 48.2274 221.404 46.9026Z" fill="#936754"/>
    <path d="M222.351 49.4178C222.351 49.4178 222.407 49.4624 222.498 49.511C222.563 49.5478 222.635 49.571 222.71 49.579C222.784 49.5871 222.859 49.58 222.931 49.5581C223.148 49.4414 223.33 49.2691 223.459 49.059C223.588 48.8489 223.66 48.6083 223.665 48.3619C223.693 48.0878 223.66 47.8109 223.568 47.5512C223.545 47.4486 223.497 47.3532 223.429 47.2732C223.361 47.1932 223.275 47.1309 223.177 47.0918C223.115 47.0691 223.046 47.0694 222.985 47.0928C222.923 47.1161 222.871 47.1609 222.839 47.219C222.788 47.3043 222.803 47.3703 222.801 47.3787C222.799 47.3871 222.739 47.3194 222.775 47.1902C222.797 47.1111 222.847 47.0427 222.915 46.9973C223.009 46.9384 223.123 46.9181 223.231 46.9404C223.361 46.9769 223.479 47.0457 223.574 47.1404C223.669 47.2351 223.739 47.3525 223.776 47.4815C223.894 47.7727 223.937 48.0889 223.901 48.401C223.833 49.0472 223.457 49.6276 222.984 49.7265C222.895 49.7453 222.803 49.744 222.715 49.7227C222.628 49.7014 222.545 49.6607 222.475 49.6034C222.354 49.4985 222.341 49.4241 222.351 49.4178Z" fill="#7A4A45"/>
    <path d="M206.226 43.2109C206.252 43.1896 206.274 43.1631 206.29 43.1333C206.305 43.1034 206.315 43.0708 206.318 43.0378C206.326 42.957 206.313 42.8769 206.281 42.8053C206.234 42.7108 206.169 42.6278 206.089 42.561C205.989 42.4828 205.903 42.3884 205.833 42.2813C205.764 42.145 205.74 41.9864 205.767 41.8288C205.794 41.6482 205.856 41.4724 205.947 41.3112C206.037 41.1363 206.15 40.9593 206.246 40.7566C206.408 40.3027 206.519 39.8349 206.579 39.3623C206.634 39.1054 206.738 38.8587 206.885 38.6365C206.959 38.5195 207.056 38.4187 207.17 38.3414C207.283 38.264 207.41 38.2119 207.542 38.1888C207.825 38.1692 208.107 38.1862 208.381 38.2397C208.531 38.2573 208.685 38.2498 208.836 38.2173C208.99 38.1761 209.134 38.097 209.256 37.9869C209.482 37.7559 209.686 37.5032 209.864 37.233C209.958 37.1007 210.07 36.9824 210.197 36.882C210.326 36.7864 210.478 36.7337 210.632 36.7316C210.842 36.7609 211.046 36.816 211.24 36.8959C211.346 36.9336 211.459 36.9524 211.573 36.9515C211.686 36.9426 211.796 36.9065 211.896 36.846C212.069 36.7146 212.227 36.5613 212.364 36.3901C212.499 36.2311 212.664 36.1018 212.849 36.0116C213.024 35.9233 213.213 35.8717 213.404 35.8602C213.594 35.8486 213.782 35.8773 213.956 35.9445C214.281 36.0723 214.539 36.3249 214.676 36.6515L214.691 36.6868L214.716 36.6532C214.957 36.4376 215.236 36.2738 215.536 36.1727C215.836 36.0717 216.149 36.0356 216.454 36.067C216.709 36.0955 216.953 36.174 217.173 36.2983C217.36 36.4029 217.526 36.5415 217.662 36.7077C217.851 36.9435 217.965 37.2344 217.992 37.5459C218 37.6281 218.003 37.7111 218.001 37.7944L217.999 37.8573C218.002 37.861 218.006 37.864 218.011 37.8663L218.022 37.8508L218.029 37.7871C218.037 37.704 218.038 37.6209 218.031 37.5388C218.01 37.2196 217.898 36.92 217.707 36.6771C217.571 36.5056 217.403 36.3627 217.213 36.2553C216.991 36.1249 216.743 36.0424 216.484 36.0125C216.171 35.978 215.849 36.0129 215.541 36.1147C215.233 36.2165 214.945 36.383 214.697 36.6029L214.742 36.6126C214.602 36.2705 214.335 36.0049 213.997 35.8701C213.814 35.7966 213.615 35.7641 213.414 35.7745C213.213 35.7849 213.013 35.8381 212.827 35.9307C212.635 36.0255 212.461 36.1598 212.319 36.3245C212.184 36.4968 212.027 36.6508 211.853 36.7822C211.762 36.8351 211.661 36.867 211.558 36.8756C211.456 36.8841 211.355 36.8691 211.262 36.8316C211.063 36.7487 210.852 36.6931 210.636 36.6661C210.467 36.665 210.299 36.7224 210.158 36.8288C210.025 36.9329 209.906 37.0561 209.806 37.1943C209.63 37.4658 209.427 37.7191 209.201 37.95C209.088 38.0534 208.954 38.1277 208.811 38.166C208.668 38.1969 208.523 38.2044 208.382 38.1881C208.107 38.129 207.823 38.1063 207.537 38.1205C207.393 38.1449 207.255 38.2029 207.133 38.2899C207.018 38.3757 206.918 38.481 206.837 38.6006C206.686 38.83 206.58 39.0848 206.524 39.3499C206.47 39.8155 206.364 40.2769 206.209 40.7252C206.12 40.9246 206.005 41.1042 205.916 41.2834C205.824 41.4508 205.763 41.6325 205.737 41.8185C205.712 41.9814 205.741 42.1444 205.818 42.2819C205.89 42.3909 205.979 42.4863 206.083 42.5644C206.165 42.6275 206.232 42.708 206.281 42.801C206.313 42.8684 206.327 42.9442 206.323 43.0213C206.314 43.0929 206.279 43.1605 206.226 43.2109Z" fill="#98C3D6"/>
    <path d="M221.061 46.1094C221.062 46.0826 221.067 46.0557 221.077 46.0306C221.087 46.0055 221.101 45.9828 221.119 45.9639C221.161 45.9169 221.212 45.8825 221.266 45.8643C221.341 45.8431 221.417 45.8389 221.49 45.852C221.579 45.871 221.67 45.8735 221.762 45.8594C221.87 45.8301 221.97 45.7612 222.048 45.6631C222.138 45.5523 222.21 45.4237 222.261 45.2844C222.32 45.1394 222.37 44.9789 222.443 44.8158C222.628 44.4816 222.843 44.1702 223.085 43.8877C223.205 43.7202 223.299 43.529 223.36 43.3249C223.393 43.2194 223.407 43.1085 223.401 43C223.394 42.8915 223.367 42.788 223.322 42.6969C223.208 42.5168 223.073 42.3566 222.921 42.2201C222.845 42.1392 222.781 42.043 222.732 41.9352C222.687 41.8213 222.668 41.6934 222.676 41.5632C222.707 41.3068 222.76 41.0526 222.834 40.8045C222.867 40.6789 222.884 40.5496 222.885 40.4211C222.882 40.2941 222.844 40.1751 222.777 40.0817C222.667 39.9709 222.546 39.8773 222.414 39.8026C222.346 39.7588 222.285 39.701 222.235 39.6317C222.19 39.5596 222.162 39.4744 222.152 39.3832C222.149 39.2103 222.166 39.0358 222.203 38.8643C222.233 38.7002 222.232 38.5333 222.202 38.3754C222.174 38.2241 222.119 38.0839 222.042 37.9635C221.964 37.8432 221.864 37.7453 221.749 37.6761C221.532 37.5476 221.275 37.5252 221.029 37.6134L221.003 37.6229L221.011 37.5903C221.026 37.3332 220.995 37.0799 220.919 36.8473C220.843 36.6146 220.725 36.4079 220.572 36.241C220.442 36.1028 220.29 35.9973 220.122 35.9302C219.979 35.8727 219.828 35.8458 219.673 35.8508C219.456 35.8608 219.24 35.9442 219.052 36.0909C219.002 36.1288 218.954 36.1703 218.907 36.2152L218.873 36.2493C218.869 36.249 218.866 36.2482 218.862 36.2467L218.866 36.2317L218.899 36.1946C218.943 36.1463 218.989 36.1025 219.039 36.0638C219.229 35.9093 219.448 35.8203 219.67 35.8076C219.828 35.8 219.983 35.8259 220.128 35.8841C220.301 35.9489 220.457 36.0546 220.589 36.1949C220.748 36.3648 220.871 36.5758 220.95 36.8138C221.028 37.0519 221.062 37.3115 221.047 37.5753L221.022 37.5532C221.278 37.4586 221.546 37.4799 221.773 37.6129C221.896 37.6842 222.002 37.7862 222.085 37.9125C222.169 38.0388 222.227 38.1866 222.257 38.3464C222.289 38.5113 222.29 38.6853 222.259 38.8568C222.222 39.028 222.204 39.2024 222.207 39.3752C222.217 39.4579 222.244 39.535 222.285 39.601C222.325 39.6669 222.379 39.7199 222.441 39.756C222.576 39.8321 222.701 39.9293 222.812 40.0451C222.888 40.1459 222.93 40.2769 222.932 40.4167C222.932 40.5512 222.915 40.6868 222.881 40.8187C222.805 41.0662 222.752 41.3204 222.722 41.5768C222.713 41.6982 222.73 41.8175 222.772 41.9237C222.818 42.0253 222.878 42.1161 222.95 42.1925C223.106 42.3269 223.244 42.4854 223.363 42.6644C223.413 42.7633 223.441 42.8766 223.446 42.9952C223.449 43.109 223.433 43.2241 223.401 43.335C223.338 43.5452 223.241 43.742 223.116 43.9138C222.876 44.1898 222.662 44.4942 222.477 44.8214C222.403 44.9789 222.353 45.142 222.291 45.2889C222.237 45.4315 222.161 45.5628 222.067 45.6756C221.985 45.7755 221.881 45.8435 221.768 45.869C221.675 45.8827 221.581 45.8788 221.491 45.8575C221.419 45.8412 221.343 45.8428 221.269 45.8623C221.217 45.8783 221.167 45.9093 221.126 45.9524C221.089 45.9951 221.066 46.0511 221.061 46.1094Z" fill="#98C3D6"/>
    <path d="M214.667 45.5071C214.654 45.6884 214.713 45.8678 214.831 46.0062C214.949 46.1447 215.116 46.2311 215.298 46.2467C215.386 46.2592 215.475 46.2539 215.561 46.2312C215.647 46.2086 215.727 46.169 215.798 46.1147C215.868 46.0604 215.927 45.9927 215.97 45.9154C216.014 45.8381 216.042 45.7528 216.052 45.6645C216.066 45.4829 216.007 45.3032 215.89 45.1641C215.772 45.0251 215.604 44.9377 215.423 44.9207C215.335 44.9081 215.245 44.9134 215.158 44.9362C215.072 44.9591 214.991 44.9991 214.921 45.0538C214.85 45.1085 214.792 45.1768 214.748 45.2546C214.705 45.3325 214.677 45.4184 214.667 45.5071Z" fill="#263238"/>
    <path d="M207.833 45.2481C207.819 45.4298 207.878 45.6094 207.995 45.7485C208.113 45.8876 208.281 45.975 208.462 45.9919C208.55 46.0052 208.641 46.0003 208.727 45.9777C208.814 45.9551 208.895 45.9152 208.965 45.8604C209.036 45.8056 209.095 45.737 209.138 45.6588C209.181 45.5807 209.208 45.4945 209.218 45.4056C209.231 45.2247 209.173 45.0459 209.056 44.9072C208.939 44.7684 208.773 44.6808 208.593 44.6628C208.504 44.6502 208.414 44.6554 208.328 44.6781C208.241 44.7009 208.16 44.7407 208.089 44.7953C208.018 44.8498 207.959 44.918 207.915 44.9957C207.871 45.0735 207.843 45.1593 207.833 45.2481Z" fill="#263238"/>
    <path d="M207.149 43.2418C207.225 43.367 207.86 42.9692 208.676 43.0512C209.492 43.1333 210.022 43.7017 210.122 43.5972C210.173 43.5517 210.107 43.331 209.876 43.0927C209.577 42.7718 209.175 42.567 208.74 42.5146C208.305 42.4622 207.865 42.5655 207.499 42.8062C207.223 42.9928 207.109 43.1876 207.149 43.2418Z" fill="#263238"/>
    <path d="M214.184 43.8507C214.28 43.9674 214.91 43.4973 215.781 43.5171C216.652 43.5369 217.282 44.0228 217.377 43.9037C217.428 43.8582 217.332 43.6482 217.049 43.4239C216.688 43.1372 216.243 42.9772 215.782 42.9685C215.321 42.9598 214.87 43.1028 214.499 43.3756C214.226 43.6208 214.134 43.7987 214.184 43.8507Z" fill="#263238"/>
    <path d="M211.75 51.3044C212.455 51.0569 213.123 50.7127 213.734 50.2817C213.785 50.5519 213.743 50.8313 213.613 51.074C213.484 51.3167 213.277 51.5082 213.024 51.6171C212.101 52.0134 211.75 51.3044 211.75 51.3044Z" fill="white"/>
    <path d="M200.247 27.8991L200.296 26.8385C200.302 26.7012 200.336 26.5666 200.395 26.4425C200.454 26.3185 200.537 26.2076 200.64 26.1165C200.743 26.0253 200.863 25.9557 200.993 25.9118C201.124 25.8679 201.261 25.8507 201.398 25.861C206.757 26.2562 230.764 28.0447 231.304 28.322C231.956 28.6617 231.734 29.8125 231.734 29.8125C231.565 30.2026 231.33 30.5612 231.041 30.8731L200.247 27.8991Z" fill="#94C4E8"/>
    <path d="M230.612 28.9524L201.323 26.7826C201.133 26.7686 200.944 26.8084 200.777 26.8974C200.609 26.9864 200.47 27.1209 200.376 27.2855C200.282 27.4501 200.236 27.6379 200.244 27.8274C200.252 28.0168 200.314 28.2002 200.421 28.3562L204.234 33.8536C204.313 33.9697 204.416 34.0679 204.535 34.142C204.655 34.216 204.788 34.2642 204.927 34.2834L226.764 36.3631C226.945 36.3805 227.127 36.3484 227.29 36.2702C227.454 36.1921 227.593 36.0708 227.693 35.9194L231.333 30.4845C231.423 30.3417 231.475 30.1787 231.485 30.0103C231.496 29.842 231.463 29.6738 231.391 29.5212C231.32 29.3686 231.211 29.2365 231.074 29.1371C230.938 29.0377 230.779 28.9742 230.612 28.9524Z" fill="#94C4E8"/>
    <g opacity="0.5">
        <path d="M230.611 28.9525L201.322 26.7827C201.133 26.7687 200.944 26.8085 200.776 26.8975C200.609 26.9865 200.47 27.1211 200.376 27.2856C200.281 27.4502 200.236 27.638 200.244 27.8275C200.252 28.017 200.313 28.2003 200.421 28.3564L204.234 33.8537C204.313 33.9698 204.415 34.0681 204.535 34.1421C204.654 34.2161 204.788 34.2643 204.927 34.2835L226.764 36.3632C226.944 36.3806 227.126 36.3485 227.29 36.2704C227.454 36.1922 227.593 36.0709 227.693 35.9196L231.332 30.4846C231.422 30.3418 231.474 30.1788 231.485 30.0104C231.495 29.8421 231.463 29.6739 231.391 29.5213C231.319 29.3687 231.21 29.2366 231.074 29.1372C230.938 29.0378 230.778 28.9743 230.611 28.9525Z" fill="black"/>
    </g>
    <path d="M206.022 36.1203C206.022 36.1896 206.195 34.8101 206.195 34.7339C206.28 33.1921 206.968 31.7456 208.111 30.7076C209.254 29.6696 210.76 29.1237 212.303 29.188C215.08 29.2124 217.846 29.5543 220.545 30.207C221.937 30.523 223.191 31.2739 224.127 32.3508C225.063 33.4277 225.632 34.7747 225.751 36.1966L225.939 38.1862L206.022 36.1203Z" fill="#94C4E8"/>
    <path d="M197.03 32.4325C197.03 32.4325 197.259 32.5018 197.661 32.5504C198.232 32.6176 198.81 32.5339 199.339 32.3077C200.127 31.977 200.815 31.4466 201.335 30.7687C201.975 29.92 202.563 29.0334 203.096 28.1136C203.649 27.165 204.393 26.3413 205.28 25.6942C206.035 25.1641 206.969 24.9524 207.88 25.105C208.491 25.1947 209.05 25.5024 209.453 25.9715C209.61 26.1342 209.716 26.339 209.758 26.5608C209.724 26.5608 209.633 26.3528 209.349 26.0686C208.934 25.6792 208.404 25.4358 207.838 25.3754C206.998 25.2684 206.149 25.4894 205.467 25.9923C204.626 26.6256 203.919 27.4197 203.387 28.3285C202.843 29.2591 202.239 30.153 201.578 31.0044C201.012 31.7109 200.264 32.2501 199.415 32.5642C198.845 32.7814 198.224 32.8319 197.627 32.7098C197.406 32.6751 197.199 32.579 197.03 32.4325Z" fill="#263238"/>
    <path d="M197.247 32.4813C196.325 31.386 194.751 31.0394 193.78 29.9788C193.831 30.4062 194.035 30.8006 194.356 31.0879C194.262 31.1095 194.165 31.1082 194.072 31.084C193.979 31.0599 193.893 31.0137 193.822 30.9493C193.656 30.8522 193.441 30.7621 193.281 30.8661C193.208 30.9267 193.153 31.0057 193.122 31.0949C192.921 31.5571 192.81 32.0537 192.796 32.5576C193.704 32.6755 194.612 32.7586 195.527 32.7933C196.089 32.7933 196.976 33.0637 197.219 32.5091" fill="#263238"/>
    <path d="M210.148 63.1849L209.78 61.022C209.78 61.022 215.694 61.022 216.449 64.1485C216.449 64.1485 218.016 61.2854 222.536 60.5298V63.8781L216.158 65.84L210.148 63.1849Z" fill="#E0E0E0"/>
    <path d="M226.785 64.113C225.211 64.113 223.735 63.2534 221.932 63.1771C218.097 64.3885 213.982 64.3885 210.147 63.1771C206.522 63.4954 202.935 64.1593 199.437 65.1598L185.079 77.2531L182.368 89.4055L198.494 82.8304C198.494 82.8304 196.282 114.407 197.412 119.634L232.227 118.726L230.66 99.579L231.069 87.586L239.457 99.4265L251.935 91.995C251.935 91.995 237.135 64.0714 226.785 64.113Z" fill="#E0E0E0"/>
    <path d="M214.694 119.641C214.672 119.455 214.661 119.267 214.66 119.08C214.66 118.678 214.66 118.144 214.611 117.471C214.611 116.085 214.563 114.04 214.563 111.537C214.563 106.532 214.66 99.6136 214.972 91.9811C215.284 84.3485 215.713 77.4231 216.06 72.4387C216.24 69.9708 216.386 67.9604 216.49 66.5254C216.555 65.8599 216.603 65.3261 216.635 64.9241C216.643 64.7353 216.666 64.5474 216.705 64.3625C216.723 64.5493 216.723 64.7373 216.705 64.9241C216.705 65.3261 216.663 65.8669 216.635 66.5393C216.559 67.9743 216.448 70.0055 216.31 72.4595C216.032 77.4578 215.616 84.3624 215.332 91.9949C215.048 99.6275 214.875 106.553 214.819 111.537C214.819 114.012 214.771 116.029 214.757 117.464C214.757 118.158 214.757 118.678 214.757 119.08C214.755 119.269 214.735 119.457 214.694 119.641Z" fill="#263238"/>
    <path d="M217.343 79.1911C217.392 79.1911 217.517 79.4546 217.926 79.5516C218.035 79.5805 218.15 79.5862 218.262 79.5683C218.374 79.5504 218.482 79.5093 218.577 79.4476C218.678 79.3664 218.755 79.2584 218.798 79.1358C218.841 79.0132 218.848 78.8811 218.82 78.7544C218.802 78.6232 218.746 78.4999 218.66 78.3992C218.574 78.2984 218.461 78.2244 218.335 78.186C218.222 78.165 218.107 78.1678 217.996 78.194C217.885 78.2203 217.781 78.2695 217.69 78.3385C217.343 78.5811 217.343 78.9 217.281 78.8931C217.218 78.8861 217.128 78.5256 217.523 78.1444C217.636 78.0314 217.774 77.9468 217.926 77.8974C218.078 77.848 218.239 77.8353 218.397 77.8601C218.592 77.9086 218.769 78.012 218.908 78.158C219.046 78.3041 219.14 78.4866 219.178 78.6842C219.216 78.8818 219.196 79.0861 219.122 79.273C219.047 79.4598 218.921 79.6215 218.757 79.7388C218.619 79.8175 218.465 79.864 218.307 79.8748C218.149 79.8856 217.99 79.8604 217.842 79.8012C217.336 79.5863 217.295 79.1773 217.343 79.1911Z" fill="#263238"/>
    <path d="M215.174 62.7964C215.222 62.838 214.903 63.2123 214.591 63.9402C214.221 64.9176 213.963 65.934 213.822 66.9697L213.76 67.3302L213.51 67.0598L213.184 66.7132C212.013 65.5507 210.929 64.3041 209.94 62.9836C211.192 64.0541 212.367 65.2124 213.454 66.4497L213.773 66.8033L213.468 66.8934C213.611 65.829 213.917 64.793 214.377 63.8224C214.549 63.4173 214.824 63.0638 215.174 62.7964Z" fill="#263238"/>
    <path d="M222.251 62.9765C221.418 64.0212 220.49 64.9866 219.478 65.8603C219.367 65.9366 219.312 66.0683 219.062 66.1446C219.001 66.1573 218.936 66.1545 218.876 66.1363C218.815 66.1182 218.76 66.0853 218.716 66.0406C218.648 65.9697 218.602 65.8805 218.584 65.7841C218.561 65.5258 218.561 65.266 218.584 65.0077C218.565 64.5995 218.48 64.197 218.335 63.8153C218.085 63.1636 217.78 62.824 217.828 62.7824C217.877 62.7408 218.237 63.0389 218.57 63.7182C218.764 64.1156 218.882 64.546 218.917 64.9869C218.905 65.2178 218.905 65.4492 218.917 65.6801C218.958 65.791 218.965 65.7772 218.986 65.7772C219.007 65.7772 219.118 65.6732 219.222 65.583C220.153 64.6267 221.167 63.7544 222.251 62.9765Z" fill="#263238"/>
    <path d="M224.102 62.9768L229.481 174.144C229.481 174.144 241.44 169.368 244.732 170.172C248.025 170.976 251.491 172.3 254.486 171.163L233.98 120.148L234.174 92.0027L240.414 101.708L238.569 102.984L251.873 121.333C251.873 121.333 256.268 112.855 257.044 106.81C257.821 100.765 249.543 86.0616 249.543 86.0616C249.543 86.0616 238.084 62.7689 224.102 62.9768Z" fill="#94C4E8"/>
    <path d="M204.208 62.9768L198.828 174.144C198.828 174.144 186.87 169.368 183.577 170.172C180.284 170.976 176.818 172.3 173.823 171.163L194.329 120.148L194.135 92.0027L187.896 101.708L189.74 102.984L176.437 121.333C176.437 121.333 172.042 112.855 171.265 106.81C170.489 100.765 178.766 86.0616 178.766 86.0616C178.766 86.0616 190.225 62.7689 204.208 62.9768Z" fill="#94C4E8"/>
    <path d="M207.035 114.082C205.891 118.429 202.224 128.744 203.666 131.912C206.127 137.347 204.165 145.118 204.165 145.118L188.99 142.65C188.99 142.65 192.269 135.129 191.687 127.642C191.104 120.155 195.458 113.167 197.392 108.779C199.326 104.391 202.626 68.6197 202.771 65.5001C202.868 63.3441 205.787 62.1726 207.624 61.6457C208.435 61.41 209.011 61.306 209.011 61.306C209.011 61.306 209.024 106.561 207.035 114.082Z" fill="white"/>
    <path d="M224.1 62.9765C224.1 62.9765 227.768 61.5068 229.75 63.1706C230.776 64.0371 235.567 117.652 234.686 128.432C233.806 139.212 231.511 144.48 231.511 144.48L215.775 141.707C215.775 141.707 220.787 125.43 222.139 113.735C223.49 102.04 224.1 62.9765 224.1 62.9765Z" fill="white"/>
    <path d="M233.217 62.1185C233.217 62.1185 232.876 60.4375 232.131 60.4108L231.387 60.3894C231.387 60.3894 230.752 59.1762 230.072 59.178C229.551 59.2289 229.047 59.3903 228.593 59.6514C228.271 59.2588 227.815 58.9995 227.313 58.9234C226.687 58.8909 226.059 58.9483 225.449 59.094L222.087 60.1871C222.147 60.4304 222.28 60.6494 222.468 60.8153C222.656 60.9812 222.89 61.0861 223.139 61.1161C223.582 61.1992 224.034 61.2143 224.481 61.1609C224.964 61.0784 225.438 60.9492 225.896 60.7751C225.896 60.7751 223.614 65.8485 224.033 66.429C224.452 67.0095 225.307 66.6142 225.447 66.5598C225.587 66.5055 228.01 62.3847 228.01 62.3847C228.01 62.3847 226.234 67.6548 226.719 68.3058C227.205 68.9568 227.863 68.4131 228.065 68.4348C228.266 68.4565 228.776 67.3454 228.776 67.3454C228.776 67.3454 229.872 69.0525 230.817 67.5825C231.092 67.133 231.331 66.6629 231.534 66.1765L232.297 63.7981L232.679 63.6211C232.679 63.6211 231.998 66.2908 232.46 66.4632C232.922 66.6356 233.356 66.5615 233.822 65.3102C234.084 64.7118 234.276 64.0848 234.394 63.442C234.408 63.226 234.358 63.0107 234.249 62.8236C234.14 62.6364 233.978 62.4859 233.784 62.3911L233.217 62.1185Z" fill="#FFBE9D"/>
    <path d="M230.784 62.5327C230.667 63.4584 230.407 64.3604 230.014 65.2068C229.7 66.0862 229.256 66.9132 228.695 67.6599C228.625 67.6212 229.166 66.519 229.761 65.1032C230.356 63.6873 230.725 62.5145 230.784 62.5327Z" fill="#B76455"/>
    <path d="M228.708 60.4149C228.74 60.4134 228.758 60.5654 228.7 60.7949C228.618 61.0788 228.502 61.3518 228.355 61.608C228.179 61.9808 227.98 62.3427 227.76 62.6917C227.728 62.6933 227.71 62.536 227.768 62.3117C227.851 62.0266 227.967 61.7521 228.112 61.4934C228.288 61.1219 228.487 60.7617 228.708 60.4149Z" fill="#B76455"/>
    <path d="M226.224 59.6199C226.298 59.6163 226.353 59.9879 226.263 60.4194C226.174 60.8509 225.93 61.1528 225.865 61.1138C225.8 61.0748 225.9 60.7536 225.996 60.3534C226.093 59.9532 226.15 59.6183 226.224 59.6199Z" fill="#B76455"/>
    <path d="M20.4094 49.3593C20.2231 49.0392 19.9599 48.7705 19.6433 48.5774C19.3268 48.3843 18.9669 48.2727 18.5959 48.2528C18.2246 48.2406 17.8558 48.3207 17.5228 48.486C17.1898 48.6512 16.903 48.8964 16.6882 49.1994C16.2936 49.8602 16.126 50.6308 16.2109 51.3941C16.2971 52.1509 16.3379 52.9122 16.333 53.6741C16.2365 54.5665 15.9118 55.4199 15.3901 56.1524C14.8683 56.8849 14.1671 57.472 13.3535 57.8574C11.702 58.6084 9.82942 58.7134 8.10759 58.1515L10.1698 59.3444L7.98085 61.0447C9.05943 61.483 10.2265 61.6637 11.3889 61.5724C12.5514 61.4811 13.6772 61.1203 14.6766 60.5188C15.6654 59.9003 16.4964 59.0605 17.1035 58.0663C17.7107 57.0721 18.0771 55.9509 18.1736 54.792C18.2194 54.1697 18.1869 53.5406 18.2888 52.9244C18.3589 52.2969 18.6699 51.7203 19.1563 51.3153C19.4041 51.1229 19.712 51.024 20.0253 51.0362C20.3386 51.0485 20.6372 51.171 20.868 51.3822" fill="#9CBDD5"/>
    <path d="M25.1946 58.7135L8.60836 37.0935C8.4064 35.2975 9.5695 34.3783 11.8615 34.183L28.7283 56.4181C28.4942 58.278 27.1935 58.9009 25.1946 58.7135Z" fill="white"/>
    <path d="M25.1956 58.7127C25.2201 58.721 25.2457 58.7257 25.2717 58.7267L25.5066 58.7534C25.8169 58.7788 26.1289 58.7752 26.4387 58.7428C26.9492 58.7046 27.4401 58.5286 27.8588 58.2338C28.127 58.0089 28.3477 57.7332 28.5082 57.4227C28.6686 57.1122 28.7655 56.7732 28.7932 56.4254L28.7964 56.4L28.7804 56.3777C25.4299 51.902 19.2146 43.6695 12.0946 34.2855L11.9589 34.1068L11.9167 34.0516L11.8489 34.0584C10.9744 34.0905 10.1231 34.3518 9.38087 34.8161C9.02105 35.0738 8.74786 35.4342 8.59743 35.8494C8.46621 36.2553 8.42727 36.6849 8.48345 37.107L8.48729 37.1406L8.50793 37.1678L20.3842 52.5719C21.8738 54.4844 23.0691 56.025 23.9019 57.0989C24.3089 57.6154 24.6282 58.0201 24.8531 58.3094C24.9562 58.4366 25.0391 58.5412 25.1021 58.6171C25.1295 58.6524 25.1609 58.6844 25.1956 58.7127C25.1735 58.6709 25.1476 58.6313 25.118 58.5944L24.8801 58.267L23.9505 57.0224C23.1273 55.9351 21.9473 54.3768 20.4803 52.4388L8.70253 37.0185L8.72719 37.0798C8.67557 36.6947 8.71057 36.3026 8.82965 35.9321C8.96347 35.5645 9.206 35.2456 9.52513 35.0179C10.2307 34.5821 11.0377 34.3376 11.8661 34.3086L11.7553 34.2593L11.891 34.4379C19.0142 43.8208 25.2715 52.0252 28.677 56.4571L28.6644 56.41C28.642 56.7431 28.5536 57.0687 28.4045 57.368C28.2554 57.6672 28.0485 57.9343 27.7956 58.1538C27.3946 58.4451 26.9234 58.6251 26.4303 58.6752C26.02 58.7161 25.6074 58.7287 25.1956 58.7127Z" fill="#263238"/>
    <path d="M11.7523 34.1418C11.7115 34.1559 11.8201 34.4494 11.7952 34.9308C11.7662 35.5542 11.4971 36.1431 11.0441 36.575C10.5722 36.9863 9.96015 37.2011 9.33502 37.1748C8.85396 37.1562 8.57018 37.0212 8.55101 37.0621C8.53611 37.0826 8.80464 37.282 9.32017 37.3507C9.6592 37.3918 10.0033 37.3603 10.3296 37.2583C10.656 37.1563 10.9569 36.9862 11.2125 36.7593C11.4619 36.5256 11.6588 36.2417 11.7898 35.9266C11.9208 35.6115 11.9831 35.2723 11.9724 34.9317C11.9893 34.6511 11.9118 34.3731 11.7523 34.1418Z" fill="#263238"/>
    <path d="M11.7626 34.9938C11.4897 34.8451 11.1736 34.7945 10.8672 34.8503C10.5302 34.8828 10.2043 34.9891 9.91281 35.1616C9.73915 35.2643 9.58023 35.39 9.44039 35.5353C9.27361 35.6982 9.16425 35.9105 9.12879 36.1403C9.1099 36.2656 9.12825 36.3936 9.18157 36.5084C9.23488 36.6232 9.32082 36.7198 9.42875 36.7862C9.53291 36.8372 9.64856 36.8606 9.76458 36.8542C9.88061 36.8477 9.9931 36.8116 10.0913 36.7493C10.2595 36.6628 10.3901 36.5177 10.4583 36.3417C10.5264 36.1656 10.5272 35.971 10.4606 35.7947C10.4279 35.7272 10.379 35.6688 10.3182 35.6247C10.2573 35.5806 10.1865 35.5522 10.112 35.542C10.0554 35.5362 9.99816 35.5448 9.94572 35.567C9.89328 35.5892 9.84731 35.6243 9.81211 35.669C9.69866 35.8204 9.76646 35.9329 9.77664 35.9211C9.79631 35.9197 9.78026 35.8248 9.88325 35.7361C9.91113 35.7111 9.94451 35.6931 9.98066 35.6834C10.0168 35.6737 10.0547 35.6727 10.0913 35.6803C10.1388 35.6934 10.1825 35.7174 10.2189 35.7505C10.2553 35.7835 10.2834 35.8246 10.3009 35.8705C10.3343 36.0028 10.3205 36.1427 10.262 36.2663C10.2035 36.3899 10.1038 36.4896 9.97999 36.5484C9.91589 36.5877 9.84303 36.6106 9.76797 36.6149C9.69291 36.6192 9.61801 36.6048 9.55002 36.573C9.48508 36.529 9.43425 36.4673 9.40356 36.3953C9.37287 36.3232 9.36362 36.2438 9.3769 36.1665C9.42651 35.9951 9.51004 35.8352 9.62256 35.6964C9.73509 35.5575 9.87432 35.4425 10.032 35.358C10.2932 35.1924 10.5845 35.0796 10.8891 35.026C11.1794 34.9979 11.4711 34.9872 11.7626 34.9938Z" fill="#263238"/>
    <path d="M28.3842 57.5457C28.3405 57.4643 28.2869 57.3885 28.2246 57.3202C28.095 57.1577 27.9317 56.9542 27.7328 56.7044L25.9026 54.4591C24.3427 52.5348 22.225 49.9217 19.8852 47.0347C17.537 44.1317 15.3915 41.5193 13.8083 39.6534C13.0172 38.72 12.3705 37.9699 11.9161 37.459C11.7024 37.2214 11.5297 37.027 11.3878 36.8718C11.3304 36.7994 11.2642 36.7346 11.1907 36.6787C11.2345 36.7599 11.2877 36.8357 11.3492 36.9046C11.4788 37.0671 11.6415 37.2708 11.8404 37.5206L13.6709 39.7652C15.2308 41.6895 17.3488 44.3031 19.6894 47.191C22.0366 50.0943 24.182 52.7068 25.7658 54.5725C26.5569 55.5059 27.2036 56.2559 27.6582 56.7674L28.186 57.353C28.2439 57.4251 28.3104 57.4898 28.3842 57.5457Z" fill="#263238"/>
    <path d="M16.6031 47.3729C16.6031 47.3729 19.5364 47.5873 19.8003 44.8374L21.5077 47.1222C21.5077 47.1222 21.1164 49.7192 18.1586 49.4316L16.6031 47.3729Z" fill="#9CBDD5"/>
    <path d="M288.748 44.7619C288.573 45.0634 288.325 45.3165 288.027 45.4983C287.729 45.6802 287.39 45.7852 287.041 45.8039C286.691 45.8154 286.344 45.7399 286.031 45.5843C285.717 45.4287 285.447 45.1978 285.245 44.9124C284.873 44.2903 284.716 43.5648 284.796 42.8463C284.877 42.1339 284.915 41.4172 284.911 40.7C284.82 39.8599 284.515 39.0565 284.024 38.3669C283.532 37.6773 282.872 37.1246 282.106 36.7617C280.552 36.0549 278.789 35.9561 277.169 36.4849L279.11 35.3615L277.05 33.7607C278.065 33.3486 279.163 33.1789 280.257 33.2651C281.351 33.3513 282.41 33.6909 283.351 34.257C284.281 34.8392 285.063 35.6296 285.635 36.5653C286.206 37.5011 286.551 38.5563 286.642 39.647C286.685 40.2332 286.655 40.8252 286.75 41.4054C286.817 41.9968 287.11 42.5402 287.569 42.9213C287.803 43.1019 288.092 43.1946 288.387 43.1829C288.682 43.1711 288.962 43.0558 289.179 42.8572" fill="#9CBDD4"/>
    <path d="M293.252 35.9548L277.634 56.3106C277.446 58.0009 278.541 58.8665 280.698 59.05L296.58 38.1166C296.359 36.3649 295.136 35.7772 293.252 35.9548Z" fill="white"/>
    <path d="M293.254 35.9561C293.277 35.9482 293.301 35.9439 293.325 35.9431C293.385 35.9364 293.458 35.929 293.549 35.9188C293.84 35.8947 294.134 35.8978 294.425 35.9281C294.905 35.9646 295.367 36.1308 295.761 36.4088C296.014 36.6202 296.221 36.8795 296.372 37.1715C296.523 37.4634 296.615 37.7822 296.641 38.1094L296.644 38.1338L296.629 38.1539C293.475 42.3671 287.624 50.1187 280.921 58.9531L280.793 59.1213L280.753 59.1735L280.689 59.1671C279.866 59.1369 279.065 58.8909 278.366 58.4538C278.027 58.2111 277.769 57.8717 277.627 57.4805C277.504 57.0984 277.467 56.6939 277.52 56.2964L277.524 56.2647L277.543 56.2389L288.725 41.7375C290.126 39.9353 291.254 38.4867 292.039 37.4752C292.422 36.9889 292.723 36.6082 292.935 36.3385C293.032 36.2187 293.11 36.1228 293.169 36.0487C293.194 36.0151 293.222 35.9844 293.253 35.957C293.232 35.9962 293.208 36.0334 293.18 36.068L292.956 36.3759C292.748 36.6546 292.455 37.0465 292.081 37.5478C291.306 38.5713 290.195 40.0383 288.814 41.8631L277.729 56.3808L277.752 56.3233C277.704 56.6859 277.737 57.055 277.849 57.4039C277.975 57.7503 278.204 58.0505 278.505 58.2648C279.169 58.675 279.929 58.9051 280.708 58.9324L280.604 58.9788L280.732 58.8105C287.435 49.9762 293.323 42.2532 296.532 38.0801L296.52 38.1242C296.499 37.8107 296.416 37.5043 296.276 37.2226C296.136 36.9409 295.941 36.6894 295.703 36.4827C295.325 36.2083 294.882 36.0388 294.417 35.9917C294.03 35.953 293.642 35.9411 293.254 35.9561Z" fill="#263238"/>
    <path d="M280.598 59.0886C280.559 59.0751 280.662 58.7989 280.638 58.3455C280.611 57.7587 280.357 57.2042 279.931 56.7976C279.487 56.4104 278.911 56.2082 278.322 56.2329C277.868 56.25 277.6 56.377 277.584 56.3394C277.57 56.3201 277.82 56.1316 278.308 56.0677C278.627 56.0291 278.951 56.0588 279.258 56.1549C279.566 56.2509 279.849 56.4111 280.09 56.6248C280.324 56.8448 280.51 57.1119 280.633 57.4085C280.756 57.7051 280.815 58.0244 280.805 58.3449C280.821 58.6091 280.748 58.8708 280.598 59.0886Z" fill="#263238"/>
    <path d="M280.608 58.2864C280.351 58.4264 280.053 58.4739 279.764 58.421C279.447 58.3904 279.14 58.2904 278.865 58.1281C278.703 58.0308 278.554 57.9121 278.423 57.7751C278.265 57.6224 278.162 57.423 278.127 57.2068C278.11 57.0887 278.127 56.9682 278.177 56.8601C278.228 56.752 278.309 56.661 278.41 56.5985C278.508 56.5506 278.617 56.5286 278.726 56.5347C278.835 56.5408 278.941 56.5748 279.034 56.6333C279.192 56.7143 279.316 56.8508 279.38 57.0165C279.444 57.1822 279.445 57.3656 279.382 57.5315C279.351 57.5949 279.305 57.6498 279.248 57.6912C279.191 57.7327 279.125 57.7594 279.055 57.769C279.001 57.7741 278.948 57.7659 278.899 57.745C278.85 57.7242 278.807 57.6914 278.773 57.6497C278.667 57.5074 278.731 57.4011 278.74 57.4123C278.759 57.4136 278.743 57.5033 278.841 57.5871C278.867 57.6106 278.898 57.6276 278.932 57.6367C278.966 57.6459 279.002 57.6469 279.037 57.6397C279.081 57.6274 279.122 57.6047 279.157 57.5735C279.191 57.5424 279.218 57.5036 279.234 57.4603C279.265 57.3356 279.252 57.2038 279.196 57.0875C279.14 56.9713 279.046 56.8777 278.929 56.8228C278.869 56.7857 278.801 56.7642 278.73 56.76C278.659 56.7559 278.589 56.7694 278.525 56.7992C278.463 56.8407 278.415 56.8991 278.386 56.9674C278.357 57.0357 278.349 57.1109 278.361 57.184C278.408 57.3451 278.487 57.4953 278.593 57.6257C278.699 57.7562 278.83 57.8642 278.979 57.9434C279.225 58.0994 279.499 58.2057 279.786 58.256C280.059 58.2825 280.333 58.2926 280.608 58.2864Z" fill="#263238"/>
    <path d="M296.257 37.0564C296.216 37.1331 296.166 37.2044 296.108 37.2689C295.985 37.4219 295.832 37.6155 295.644 37.849C295.217 38.3735 294.633 39.0891 293.921 39.9623C292.452 41.7723 290.458 44.2321 288.256 46.9494C286.046 49.6815 284.026 52.1419 282.535 53.8984C281.79 54.7767 281.183 55.4839 280.754 55.9642C280.552 56.1881 280.388 56.3702 280.256 56.5158C280.203 56.5842 280.14 56.6456 280.071 56.6985C280.112 56.6222 280.162 56.5509 280.22 56.4861C280.342 56.3328 280.495 56.1415 280.683 55.9065C281.11 55.382 281.694 54.6663 282.406 53.7932C283.876 51.9821 285.868 49.521 288.072 46.8023C290.281 44.07 292.301 41.611 293.792 39.8545C294.537 38.9762 295.143 38.2691 295.574 37.788L296.071 37.2364C296.125 37.1691 296.188 37.1086 296.257 37.0564Z" fill="#263238"/>
    <path d="M285.165 46.6318C285.165 46.6318 287.927 46.4303 288.175 49.0189L289.783 46.868C289.783 46.868 289.415 44.4236 286.629 44.6943L285.165 46.6318Z" fill="#9CBDD4"/>
</svg>
