<svg width="352" height="138" viewBox="0 0 352 138" fill="none" xmlns="http://www.w3.org/2000/svg">
<mask id="mask0_199_19821" style="mask-type:alpha" maskUnits="userSpaceOnUse" x="0" y="0" width="352" height="138">
<path d="M0 0H352V138H0V0Z" fill="#E8F4FF"/>
</mask>
<g mask="url(#mask0_199_19821)">
<g opacity="0.2">
<path d="M175.411 152.396C174.204 149.588 174.114 146.772 174.114 143.893L174.01 135.065C173.932 130.485 173.939 125.828 173.945 121.327V117.435C173.997 106.882 174.153 96.1467 174.308 85.7686L174.36 82.1298C174.429 77.9785 174.499 73.8251 174.568 69.6696C174.684 62.1779 174.808 54.4332 174.983 46.8183L175.392 29.1625C175.456 27.1647 175.515 25.1626 175.567 23.1562C175.625 21.2103 175.683 19.2644 175.742 17.2666C175.8 19.2449 175.859 21.2168 175.917 23.1562C175.975 25.0956 176.027 27.1647 176.092 29.169L176.501 46.8183C176.676 54.4332 176.799 62.1779 176.916 69.6631C176.985 73.8187 177.054 77.9742 177.124 82.1298L177.175 85.7751C177.331 96.1532 177.487 106.882 177.539 117.441V121.366C177.539 125.867 177.539 130.518 177.474 135.084L177.364 143.899C177.364 146.779 177.266 149.594 176.066 152.403L175.411 152.396Z" fill="#B370B9"/>
<path d="M175.36 152.462C173.687 149.9 173.096 147.143 172.597 144.315L170.962 135.63C170.087 131.122 169.282 126.549 168.504 122.073L167.855 118.259C166.078 107.881 164.372 97.2955 162.718 87.0601L162.127 83.4148C161.483 79.3197 160.834 75.2247 160.181 71.1297C158.968 63.7288 157.742 56.0749 156.594 48.5508L153.934 31.0896C153.649 29.1178 153.359 27.146 153.065 25.1741C152.78 23.2282 152.494 21.2823 152.209 19.3364C152.611 21.2499 153 23.1569 153.39 25.0379L154.616 30.9923L158.093 48.3043C159.578 55.7312 161.031 63.2942 162.445 70.6108C163.237 74.7317 164.032 78.8397 164.832 82.9348L165.533 86.5801C167.479 96.7506 169.49 107.271 171.371 117.637L172.02 121.451C172.811 125.894 173.628 130.492 174.348 135.026L175.782 143.744C176.281 146.579 176.671 149.368 175.977 152.345L175.36 152.462Z" fill="#B370B9"/>
<path d="M175.321 152.533C173.226 150.302 172.169 147.688 171.183 144.983L168.069 136.72C166.421 132.426 164.825 128.035 163.288 123.786L161.991 120.154C158.436 110.243 154.92 100.124 151.515 90.3166L150.302 86.814C148.939 82.8573 147.573 78.9007 146.202 74.944C143.763 67.8999 141.239 60.6092 138.807 53.4224L133.157 36.6942L131.269 30.9797L129.414 25.395C130.141 27.2177 130.867 29.0338 131.574 30.8241C132.281 32.6143 133.06 34.5796 133.812 36.4542L140.241 52.9035C142.997 59.9866 145.754 67.1734 148.427 74.1786C149.914 78.0704 151.406 81.9622 152.903 85.854L154.2 89.2334C157.898 98.9629 161.718 108.984 165.377 118.889L166.72 122.567C168.263 126.796 169.866 131.167 171.358 135.494L174.244 143.9C175.23 146.605 176.1 149.284 175.931 152.332L175.321 152.533Z" fill="#B370B9"/>
<path d="M175.288 152.605C172.843 150.775 171.344 148.382 169.911 145.891L165.37 138.296C163.009 134.365 160.686 130.324 158.435 126.419L156.489 123.04C151.255 113.868 146.02 104.483 140.954 95.4082L139.196 92.2558C137.185 88.6235 135.167 84.9933 133.143 81.3653C129.504 74.8206 125.736 68.0489 122.077 61.368L113.638 45.8722C112.691 44.1036 111.739 42.3371 110.783 40.5728L107.994 35.3838L111.069 40.3653C112.12 42.095 113.177 43.8095 114.241 45.5089L123.426 60.5961C127.377 67.0824 131.347 73.7244 135.193 80.1394C137.356 83.7112 139.498 87.2851 141.622 90.8613L143.483 93.9812C148.803 102.893 154.31 112.143 159.636 121.224L161.582 124.59C163.839 128.482 166.181 132.529 168.406 136.544L172.732 144.244C174.172 146.734 175.496 149.225 175.859 152.261L175.288 152.605Z" fill="#B370B9"/>
<path d="M175.276 152.682C172.551 151.307 170.664 149.212 168.789 147.007L163.029 140.306C160.025 136.849 157.035 133.275 154.142 129.818L151.638 126.828C144.917 118.739 138.165 110.456 131.639 102.439L129.252 99.5137C126.631 96.2705 124.002 93.0274 121.364 89.7842C116.655 83.9855 111.783 77.9921 107.035 72.0571L96.0265 58.2802L92.2512 53.5062L88.6445 48.9658L92.5366 53.3506L96.5454 57.891L108.222 71.149C113.242 76.857 118.302 82.6947 123.2 88.3443C125.928 91.4966 128.662 94.6468 131.399 97.7948L133.838 100.616C140.604 108.445 147.603 116.547 154.414 124.577L156.905 127.541C159.811 130.998 162.821 134.572 165.708 138.14L171.306 144.97C173.161 147.175 174.893 149.4 175.775 152.325L175.276 152.682Z" fill="#B370B9"/>
<path d="M175.275 152.765C172.349 151.877 170.124 150.171 167.925 148.296L161.095 142.699C157.533 139.812 153.959 136.816 150.521 133.916L147.531 131.4C139.468 124.569 131.314 117.545 123.478 110.754L120.747 108.386C117.607 105.658 114.463 102.931 111.315 100.207C105.658 95.3097 99.8138 90.2374 94.0924 85.217L80.8334 73.5416L76.2927 69.5266L71.9141 65.6348C73.4514 66.8477 74.9823 68.0542 76.4548 69.2476L81.2226 73.0097L95.0135 84.0365C100.942 88.7844 106.943 93.6557 112.742 98.3647L122.544 106.278L125.378 108.587C133.422 115.138 141.738 121.917 149.859 128.656L152.869 131.179C156.314 134.065 159.882 137.049 163.339 140.046L170.033 145.806C172.245 147.654 174.334 149.542 175.716 152.292L175.275 152.765Z" fill="#B370B9"/>
<path d="M175.288 152.845C172.259 152.482 169.768 151.159 167.277 149.719L159.577 145.393C155.568 143.174 151.533 140.852 147.635 138.576L144.255 136.63C135.122 131.298 125.891 125.785 116.965 120.459L113.884 118.604L103.194 112.196C96.7653 108.356 90.1098 104.38 83.623 100.443L68.5282 91.232L63.4296 88.1185L58.4023 85.0181L63.5918 87.8137L68.885 90.6676L84.3755 99.1323C91.0504 102.784 97.8096 106.546 104.348 110.159C107.99 112.183 111.631 114.204 115.272 116.224L118.554 118.059C127.584 123.099 136.925 128.308 146.058 133.523L149.412 135.469C153.304 137.719 157.378 140.048 161.309 142.409L168.905 146.949C171.402 148.389 173.789 149.881 175.625 152.333L175.288 152.845Z" fill="#B370B9"/>
<path d="M174.555 152.942C171.792 152.942 169.366 152.131 166.881 151.236L158.546 148.31C154.212 146.818 149.834 145.216 145.604 143.673L141.939 142.33C132.015 138.665 121.96 134.838 112.236 131.141L108.896 129.844L97.2194 125.375C90.2266 122.709 83.0003 119.946 75.9168 117.182L59.4662 110.755L53.8357 108.517L48.4062 106.363L53.9849 108.225L59.7192 110.125L76.4487 115.775C83.636 118.207 90.9272 120.73 97.9783 123.169C101.935 124.536 105.89 125.9 109.843 127.262L113.326 128.475C123.121 131.88 133.247 135.396 143.165 138.951L146.843 140.287C151.079 141.824 155.458 143.407 159.733 145.048L167.99 148.168C170.702 149.147 173.316 150.204 175.541 152.299L175.32 152.916L174.555 152.942Z" fill="#B370B9"/>
<path d="M171.961 153.362C170.219 153.321 168.483 153.133 166.772 152.797L158.054 151.364C153.545 150.644 148.972 149.833 144.548 149.048L140.656 148.361C130.277 146.473 119.736 144.469 109.552 142.523L105.952 141.835L93.6269 139.455C86.2968 138.041 78.7073 136.575 71.2669 135.09L53.9472 131.619C52.0011 131.204 50.0097 130.802 48.0442 130.4L42.2969 129.207L48.0701 130.056L54.0834 130.925L71.5394 133.585C79.0575 134.733 86.6925 135.952 94.068 137.133C98.1893 137.794 102.308 138.443 106.425 139.079L109.993 139.656C120.255 141.31 130.861 143.022 141.272 144.8L145.126 145.481C149.563 146.253 154.149 147.057 158.644 147.926L167.304 149.58C170.139 150.08 172.896 150.67 175.458 152.343L175.341 152.992C174.232 153.245 173.098 153.369 171.961 153.362Z" fill="#B370B9"/>
<path d="M179.512 153.362C178.368 153.369 177.228 153.243 176.113 152.986L175.996 152.338C178.558 150.664 181.315 150.074 184.15 149.574L192.829 147.94C197.325 147.071 201.911 146.266 206.348 145.495L210.201 144.813C220.612 143.036 231.218 141.324 241.48 139.67L245.048 139.093C249.165 138.444 253.273 137.795 257.373 137.147C264.748 135.966 272.383 134.747 279.902 133.599L297.358 130.939L303.358 130.064L309.131 129.214L303.384 130.407C301.438 130.809 299.446 131.212 297.481 131.627L280.174 135.077C272.727 136.563 265.144 138.029 257.814 139.443L245.489 141.823L241.941 142.472C231.737 144.418 221.183 146.448 210.804 148.31L206.912 148.991C202.488 149.782 197.908 150.593 193.394 151.313L184.682 152.74C182.98 153.096 181.25 153.304 179.512 153.362Z" fill="#B370B9"/>
<path d="M176.916 152.942H176.15L175.93 152.326C178.155 150.231 180.769 149.173 183.474 148.194L191.738 145.074C196.013 143.433 200.391 141.831 204.627 140.313L208.305 138.977C218.224 135.422 228.349 131.907 238.145 128.502L241.628 127.289C245.585 125.935 249.54 124.571 253.492 123.196C260.543 120.757 267.835 118.234 275.022 115.801L291.758 110.145L297.486 108.251L303.051 106.409L297.622 108.563L291.991 110.8L275.541 117.228C268.451 119.992 261.231 122.755 254.238 125.421L242.562 129.89L239.221 131.187C229.491 134.884 219.443 138.711 209.518 142.376L205.853 143.718C201.624 145.262 197.245 146.864 192.912 148.356L184.577 151.282C182.118 152.131 179.679 152.942 176.916 152.942Z" fill="#B370B9"/>
<path d="M175.854 152.28C177.689 149.828 180.076 148.336 182.567 146.896L190.163 142.395C194.101 140.027 198.149 137.698 202.067 135.448L205.42 133.502C214.567 128.28 223.921 123.059 232.97 118.012L236.213 116.203C239.859 114.188 243.5 112.166 247.137 110.138C253.676 106.499 260.435 102.737 267.11 99.1113L282.607 90.6402C284.371 89.6932 286.133 88.744 287.893 87.7927L293.083 84.9971L288.043 88.117L282.944 91.2629L267.849 100.441C261.362 104.404 254.694 108.38 248.266 112.227L237.588 118.603L234.507 120.445C225.581 125.77 216.344 131.283 207.217 136.615L203.838 138.561C199.945 140.825 195.904 143.16 191.902 145.378L184.202 149.737C181.705 151.177 179.214 152.5 176.178 152.863L175.854 152.28Z" fill="#B370B9"/>
<path d="M175.775 152.267C177.157 149.536 179.246 147.648 181.451 145.78L188.152 140.027C191.61 137.024 195.177 134.04 198.628 131.147L201.638 128.63C209.753 121.891 218.069 115.113 226.119 108.523L228.928 106.279L238.658 98.3848C244.458 93.6757 250.458 88.8045 256.387 84.0565L270.178 73.0297L274.946 69.2677C276.444 68.0742 277.975 66.8677 279.486 65.6548L275.108 69.5466L270.599 73.5681L257.34 85.2435C251.619 90.2639 245.768 95.3362 240.118 100.233C236.97 102.958 233.826 105.686 230.686 108.419L227.955 110.774C220.093 117.571 211.965 124.596 203.902 131.426L200.912 133.943C197.467 136.842 193.899 139.839 190.345 142.725L183.514 148.323C181.309 150.172 179.084 151.903 176.158 152.792L175.775 152.267Z" fill="#B370B9"/>
<path d="M175.689 152.268C176.578 149.343 178.284 147.118 180.159 144.912L185.757 138.063C188.65 134.495 191.66 130.928 194.566 127.464L197.057 124.5C203.868 116.47 210.867 108.368 217.633 100.54L220.072 97.718C222.81 94.5699 225.543 91.4197 228.271 88.2674C233.169 82.6178 238.229 76.7801 243.249 71.0722L254.926 57.8076C256.253 56.3244 257.579 54.8347 258.902 53.3386L262.84 48.9214L259.233 53.4618L255.445 58.2811L244.417 72.0646C239.669 77.9995 234.797 83.9929 230.088 89.7917C227.454 93.0262 224.825 96.2693 222.2 99.5212L219.813 102.446C213.287 110.464 206.534 118.747 199.814 126.835L197.31 129.825C194.417 133.282 191.426 136.856 188.423 140.314L182.669 147.014C180.814 149.219 178.926 151.314 176.182 152.69L175.689 152.268Z" fill="#B370B9"/>
<path d="M175.613 152.277C175.977 149.242 177.3 146.751 178.74 144.26L183.067 136.561C185.279 132.566 187.607 128.551 189.858 124.665L191.837 121.24C197.162 112.16 202.67 102.904 207.989 93.9979L209.851 90.878C212.013 87.3062 214.156 83.7323 216.279 80.1561C220.126 73.7412 224.096 67.1056 228.046 60.6128L237.231 45.5192C238.282 43.8263 239.333 42.1204 240.377 40.4209C241.422 38.7215 242.434 37.0805 243.478 35.394L240.715 40.5247C239.755 42.302 238.769 44.0857 237.835 45.8694L229.363 61.3653C225.704 68.0462 221.935 74.8179 218.296 81.3691C216.273 84.9971 214.255 88.6251 212.244 92.2531L210.486 95.4055C205.42 104.486 200.185 113.866 194.918 123.037L192.972 126.417C190.721 130.308 188.399 134.362 186.038 138.293L181.497 145.888C180.063 148.379 178.565 150.773 176.119 152.602L175.613 152.277Z" fill="#B370B9"/>
<path d="M175.541 152.331C175.372 149.276 176.241 146.598 177.221 143.899L180.146 135.571C181.638 131.238 183.24 126.866 184.784 122.637L186.114 118.927C189.773 109.022 193.593 98.9815 197.291 89.2715L198.588 85.8921C200.089 82.0003 201.581 78.1085 203.064 74.2167C205.737 67.2374 208.494 60.0246 211.25 52.9416L217.679 36.4923C218.431 34.6177 219.171 32.7367 219.917 30.8622C220.663 28.9876 221.344 27.2558 222.077 25.4331L220.222 31.0178L218.334 36.7323L212.71 53.441C210.277 60.6279 207.754 67.925 205.315 74.9756C203.944 78.9279 202.578 82.8824 201.215 86.8391L200.002 90.3352C196.597 100.123 193.081 110.242 189.526 120.172L188.229 123.805C186.691 128.053 185.096 132.444 183.448 136.738L180.276 144.982C179.29 147.687 178.233 150.301 176.137 152.533L175.541 152.331Z" fill="#B370B9"/>
<path d="M175.469 152.331C174.775 149.354 175.164 146.565 175.664 143.73L177.097 135.019C177.817 130.479 178.635 125.88 179.426 121.437L180.075 117.623C181.956 107.245 183.967 96.737 185.913 86.5664L186.614 82.9211C187.414 78.8088 188.209 74.7008 189.001 70.5971C190.415 63.2805 191.868 55.7175 193.353 48.2907L196.83 30.9722L198.056 25.0242C198.445 23.1432 198.835 21.2362 199.237 19.3228C198.951 21.2686 198.666 23.2535 198.381 25.1604C198.095 27.0674 197.797 29.1041 197.511 31.076L194.878 48.5501C193.73 56.0872 192.504 63.7411 191.316 71.142C190.663 75.2413 190.015 79.3385 189.37 83.4335L188.78 87.0723C187.126 97.3078 185.42 107.887 183.643 118.272L182.994 122.085C182.216 126.535 181.411 131.166 180.535 135.642L178.901 144.321C178.401 147.155 177.811 149.912 176.137 152.474L175.469 152.331Z" fill="#B370B9"/>
</g>
<path d="M85.5093 84.7645L87.7363 85.707L85.8012 86.3212C85.1579 86.528 84.6444 87.0814 84.4336 87.7989L83.7363 90.207L82.8769 87.7928C82.6607 87.1908 82.2336 86.7226 81.6931 86.5037L79.7363 85.707L81.8552 84.728C82.3688 84.4908 82.7742 84.0287 82.9688 83.4449L83.7363 81.207L84.2877 83.2868C84.4661 83.9678 84.9201 84.5151 85.5093 84.7645Z" fill="#6ECF8B"/>
<path d="M125.954 39.1602L128.736 40.207L126.321 40.8952C125.515 41.1221 124.871 41.737 124.615 42.535L123.736 45.207L122.66 42.5277C122.397 41.8615 121.855 41.3417 121.181 41.1001L118.736 40.2144L121.386 39.1236C122.031 38.86 122.528 38.3476 122.777 37.6961L123.736 35.207L124.424 37.5204C124.651 38.2744 125.215 38.882 125.954 39.1602Z" fill="#6ECF8B"/>
<path d="M269.673 67.1592L272.736 68.2048L270.078 68.8916C269.191 69.122 268.485 69.7378 268.198 70.5309L267.234 73.207L266.051 70.5265C265.758 69.8619 265.164 69.3391 264.424 69.0954L261.736 68.2092L264.648 67.1193C265.354 66.8579 265.909 66.3395 266.182 65.6926L267.234 63.207L267.989 65.5198C268.237 66.2775 268.855 66.8845 269.669 67.1636L269.673 67.1592Z" fill="#6ECF8B"/>
<path d="M88.9987 41.2242C88.9987 41.2242 89.0535 41.2756 89.1426 41.3785C89.2454 41.5043 89.3756 41.6644 89.5332 41.8587C89.8621 42.2875 90.2459 42.9792 90.5337 43.9225C90.7667 44.8772 90.8489 46.0891 90.5063 47.4497C90.1705 48.8045 89.4236 50.2909 88.1696 51.6915C87.5049 52.3603 86.7785 53.0577 85.8465 53.618C85.408 53.9324 84.8872 54.1554 84.3869 54.424C83.8456 54.6241 83.3111 54.8814 82.7149 55.0243C80.3919 55.716 77.6714 55.8532 74.9578 55.4187C72.2442 54.9843 69.5168 54.0239 67.0499 52.589C65.8301 51.863 64.6172 51.0741 63.5893 50.0851C62.5752 49.1018 61.7186 47.9413 61.3074 46.6207C61.1087 45.9633 61.0539 45.2602 61.2252 44.5913C61.3965 43.9167 61.8008 43.2936 62.3764 42.8134C63.5414 41.8416 65.2408 41.5214 66.7552 41.6929C68.3108 41.8702 69.647 42.5962 70.6475 43.4823C71.6617 44.3741 72.3675 45.4374 72.8403 46.5236C73.786 48.7188 73.7312 51.0226 73.0459 52.9949C72.3606 54.9786 71.0107 56.6307 69.414 57.7569C68.6191 58.3285 67.7694 58.7802 66.9197 59.1175C66.0768 59.4662 65.234 59.7177 64.4254 59.8778C62.815 60.2208 61.3691 60.2551 60.211 60.1636C59.0461 60.0779 58.1758 59.8492 57.5933 59.7006C57.3329 59.6148 57.1205 59.5405 56.9492 59.4833C56.8053 59.4319 56.7299 59.4033 56.7368 59.3976C56.7573 59.3404 57.9223 59.8606 60.2247 60.0093C61.3691 60.0779 62.7876 60.0207 64.3637 59.6663C65.1517 59.5005 65.9672 59.2432 66.7895 58.8945C67.6118 58.5515 68.4341 58.1113 69.2016 57.5454C70.7366 56.4363 72.0317 54.8299 72.6827 52.8977C73.3337 50.9826 73.368 48.7416 72.4429 46.6379C71.9838 45.5917 71.2985 44.5685 70.3323 43.7281C69.3798 42.8877 68.1189 42.2189 66.6936 42.0588C65.2888 41.8988 63.7264 42.2075 62.6985 43.0764C61.6364 43.9339 61.3485 45.3002 61.7528 46.5178C62.1366 47.7527 62.952 48.8731 63.932 49.8221C64.9187 50.7711 66.1111 51.5543 67.3034 52.2631C69.7155 53.6752 72.3812 54.6184 75.0332 55.0529C77.6782 55.4873 80.3233 55.3673 82.5915 54.7042C83.174 54.567 83.688 54.3269 84.2156 54.1382C84.7021 53.881 85.2161 53.6694 85.6409 53.3665C86.5523 52.8291 87.265 52.1545 87.9229 51.5085C89.1632 50.1537 89.917 48.7073 90.2664 47.3868C90.6228 46.0605 90.5748 44.8772 90.3692 43.9396C89.8553 42.0645 88.9233 41.2413 89.0056 41.207L88.9987 41.2242Z" fill="#FFAC34"/>
<path d="M309.152 48.2203C309.152 48.2203 309.202 48.2732 309.283 48.399C309.377 48.5446 309.496 48.73 309.639 48.955C309.939 49.4515 310.289 50.2524 310.552 51.3446C310.764 52.45 310.839 53.8533 310.527 55.4287C310.22 56.9975 309.539 58.7185 308.396 60.3403C307.79 61.1147 307.128 61.9223 306.278 62.571C305.878 62.9351 305.403 63.1932 304.947 63.5043C304.454 63.736 303.966 64.0339 303.423 64.1993C301.305 65.0003 298.824 65.1591 296.35 64.6561C293.876 64.153 291.389 63.041 289.14 61.3795C288.028 60.5388 286.922 59.6254 285.985 58.4802C285.06 57.3417 284.279 55.998 283.904 54.4689C283.723 53.7077 283.673 52.8935 283.829 52.1191C283.985 51.338 284.354 50.6165 284.879 50.0671C285.941 48.9418 287.49 48.5711 288.871 48.7697C290.29 48.9749 291.508 49.8155 292.42 50.8415C293.345 51.8741 293.988 53.1053 294.419 54.363C295.282 56.9048 295.232 59.5724 294.607 61.8561C293.982 64.153 292.751 66.066 291.295 67.37C290.571 68.0319 289.796 68.5549 289.021 68.9454C288.253 69.3492 287.484 69.6404 286.747 69.8258C285.279 70.2229 283.96 70.2627 282.904 70.1567C281.842 70.0575 281.049 69.7927 280.518 69.6206C280.28 69.5213 280.087 69.4352 279.93 69.369C279.799 69.3095 279.73 69.2764 279.737 69.2698C279.755 69.2036 280.818 69.8059 282.917 69.978C283.96 70.0575 285.254 69.9913 286.691 69.5809C287.409 69.3889 288.153 69.091 288.902 68.6873C289.652 68.2901 290.402 67.7804 291.102 67.1251C292.501 65.8409 293.682 63.9809 294.276 61.7436C294.869 59.5261 294.9 56.9313 294.057 54.4954C293.638 53.2841 293.014 52.0992 292.133 51.1262C291.264 50.1531 290.115 49.3787 288.815 49.1933C287.534 49.008 286.11 49.3654 285.172 50.3716C284.204 51.3645 283.942 52.9465 284.31 54.3564C284.66 55.7862 285.404 57.0836 286.297 58.1824C287.197 59.2812 288.284 60.188 289.371 61.0088C291.57 62.6438 294.001 63.736 296.419 64.2391C298.83 64.7421 301.242 64.6031 303.31 63.8353C303.841 63.6764 304.31 63.3984 304.791 63.18C305.235 62.8821 305.703 62.6372 306.091 62.2864C306.922 61.6641 307.571 60.8831 308.171 60.1351C309.302 58.5663 309.989 56.8916 310.308 55.3625C310.633 53.8268 310.589 52.4566 310.402 51.3711C309.933 49.1999 309.083 48.2467 309.158 48.207L309.152 48.2203Z" fill="#FFAC34"/>
<path d="M280.736 110.707C280.736 112.089 279.618 113.207 278.236 113.207C276.855 113.207 275.736 112.089 275.736 110.707C275.736 109.325 276.855 108.207 278.236 108.207C279.618 108.207 280.736 109.325 280.736 110.707Z" fill="#80CFE8"/>
<path d="M236.822 33.196L239.998 32.74C242.046 34.0378 244.51 34.7493 247.149 34.624C253.382 34.3284 258.461 29.2476 258.757 23.0294C259.103 15.8391 253.191 9.89645 245.935 10.2472C239.778 10.5428 234.739 15.5034 234.348 21.6464C234.152 24.6929 235.091 27.5289 236.777 29.7637H236.772L236.817 33.196H236.822Z" fill="white"/>
<path d="M236.821 33.1959C236.821 33.1959 236.816 33.1258 236.806 32.9805C236.801 32.8201 236.796 32.6047 236.786 32.3291C236.771 31.7328 236.746 30.871 236.721 29.7586C236.721 29.7286 236.741 29.7035 236.771 29.7035C236.781 29.7035 236.796 29.7035 236.806 29.7135H236.811L236.736 29.7937C235.817 28.5861 234.784 26.7723 234.392 24.3722C234.196 23.1797 234.176 21.8518 234.382 20.4639C234.603 19.0809 235.09 17.6429 235.872 16.28C236.665 14.9221 237.764 13.6494 239.134 12.6072C240.504 11.575 242.145 10.7532 243.962 10.3825C245.768 9.99663 247.721 10.0217 249.612 10.4927C251.509 10.9537 253.321 11.9358 254.826 13.2987C255.609 13.9701 256.242 14.7768 256.824 15.5985C257.085 16.0295 257.351 16.4554 257.576 16.9013L257.888 17.5777L258.038 17.9185L258.159 18.2692C258.826 20.1282 259.007 22.0873 258.791 23.9363C258.585 25.7902 257.893 27.5139 256.969 28.977C256.041 30.4401 254.847 31.6477 253.547 32.5546C252.242 33.4565 250.837 34.0578 249.467 34.3885C249.121 34.4536 248.779 34.5188 248.443 34.5839C248.107 34.639 247.771 34.654 247.445 34.6891C246.787 34.7492 246.155 34.7292 245.548 34.6841C243.114 34.4837 241.227 33.5968 239.967 32.7851H240.003C238.979 32.9254 238.181 33.0306 237.624 33.1007C237.368 33.1308 237.167 33.1559 237.017 33.1759C236.881 33.1909 236.816 33.1959 236.816 33.1959C236.816 33.1959 236.891 33.1809 237.032 33.1559C237.182 33.1308 237.388 33.0957 237.649 33.0556C238.196 32.9705 238.979 32.8452 239.987 32.6899C239.998 32.6899 240.013 32.6899 240.023 32.6949C241.287 33.4816 243.159 34.3334 245.563 34.5137C246.16 34.5538 246.787 34.5689 247.43 34.5037C247.751 34.4636 248.082 34.4536 248.413 34.3935C248.744 34.3284 249.076 34.2632 249.417 34.1931C250.762 33.8573 252.142 33.2611 253.421 32.3692C254.696 31.4773 255.86 30.2848 256.769 28.8467C257.672 27.4086 258.339 25.7251 258.54 23.9062C258.746 22.0923 258.565 20.1733 257.913 18.3544L257.797 18.0087L257.647 17.678L257.341 17.0166C257.12 16.5806 256.859 16.1647 256.603 15.7438C256.031 14.9421 255.409 14.1505 254.646 13.4941C253.17 12.1612 251.404 11.1942 249.542 10.7432C247.69 10.2772 245.774 10.2572 244.007 10.628C242.231 10.9887 240.62 11.7854 239.27 12.7976C237.92 13.8097 236.836 15.0574 236.053 16.3902C235.275 17.7281 234.794 19.1361 234.568 20.4939C234.352 21.8568 234.362 23.1646 234.548 24.3421C234.914 26.7172 235.913 28.516 236.806 29.7286C236.826 29.7536 236.821 29.7837 236.796 29.8037C236.776 29.8188 236.751 29.8188 236.731 29.8037H236.726L236.811 29.7586C236.811 30.856 236.811 31.7028 236.811 32.294C236.811 32.5746 236.811 32.7951 236.811 32.9604C236.811 33.1108 236.811 33.1909 236.806 33.1959H236.821Z" fill="#343C41"/>
<path d="M240.541 22.7893L242.093 21.1346L245.292 23.7737L251.181 17.7314L252.729 19.283L245.165 26.8721L240.541 22.7893Z" fill="#12B859"/>
<path d="M236.461 48.9063C236.461 48.9063 239.173 51.6808 240.754 53.6746C242.335 55.66 246.728 57.7202 246.728 57.7202L248.242 58.6838V63.4189L259.091 63.9007C259.091 63.9007 258.201 60.5446 257.651 54.8542C257.102 49.1638 254.29 44.0217 253.533 43.8804C252.776 43.7475 253.117 43.8804 253.117 43.8804C253.117 43.8804 252.568 42.0944 251.536 42.0944C251.536 42.0944 250.846 40.109 247.967 41.0643C247.967 41.0643 247.551 40.6739 246.32 40.7985C245.089 40.9231 239.182 43.5315 238.907 44.1463C238.632 44.761 239.598 46.8212 239.598 46.8212C239.598 46.8212 237.676 45.3093 236.919 45.7911C236.161 46.2729 235.454 47.0953 236.478 48.9146L236.461 48.9063Z" fill="#FFBF9D"/>
<path d="M252.402 47.9102C252.402 47.9102 252.335 47.9684 252.185 48.0764C251.986 48.2176 251.778 48.3671 251.528 48.5416C251.22 48.7659 250.879 49.0068 250.496 49.281C250.297 49.4305 250.08 49.5801 249.881 49.7546C249.856 49.7712 249.831 49.8044 249.823 49.8044C249.823 49.7961 249.814 49.8376 249.839 49.7629C249.839 49.6881 249.839 49.6964 249.823 49.6798C249.806 49.6549 249.806 49.6632 249.814 49.6632C249.848 49.6798 249.914 49.6964 249.981 49.713C250.114 49.7379 250.264 49.7545 250.413 49.7712H250.43C250.979 49.8792 251.503 50.4773 251.337 51.1669C251.145 51.8481 250.422 52.1721 249.798 52.2469C249.165 52.3217 248.475 52.3383 247.801 52.114C247.127 51.9063 246.503 51.4743 246.045 50.8844C245.538 50.2198 245.272 49.4056 245.338 48.5998C245.405 47.7856 245.912 47.096 246.486 46.689C246.778 46.4646 247.102 46.3317 247.385 46.1905C247.676 46.0493 247.951 45.9163 248.225 45.7834C248.766 45.5259 249.265 45.2849 249.739 45.0606C250.671 44.6203 251.42 44.2714 251.952 44.0387C252.477 43.8061 252.776 43.6898 252.793 43.7147C252.809 43.7397 252.535 43.9058 252.027 44.1883C251.52 44.4708 250.788 44.8529 249.881 45.3265C249.415 45.5674 248.916 45.8249 248.392 46.0991C248.117 46.2403 247.842 46.3816 247.56 46.5228C247.268 46.6723 246.977 46.8053 246.728 46.9963C246.22 47.3785 245.812 47.9517 245.763 48.633C245.713 49.3059 245.946 50.037 246.395 50.6103C246.794 51.1253 247.352 51.5075 247.942 51.6986C248.525 51.898 249.165 51.898 249.756 51.8398C250.322 51.7817 250.863 51.5075 250.987 51.0672C251.12 50.6352 250.763 50.1782 250.372 50.0869H250.397C250.239 50.0702 250.08 50.0453 249.931 50.0121C249.848 49.9872 249.781 49.9789 249.681 49.9207C249.656 49.9041 249.623 49.8875 249.59 49.8376C249.573 49.8044 249.548 49.7961 249.556 49.7047C249.59 49.6133 249.59 49.6382 249.598 49.6133C249.64 49.5635 249.664 49.5469 249.698 49.5219C249.931 49.3392 250.147 49.1979 250.355 49.0567C250.771 48.7825 251.137 48.5582 251.437 48.3754C252.036 48.0182 252.402 47.8354 252.41 47.8936L252.402 47.9102Z" fill="#FF9A6C"/>
<path d="M250.73 42.319C250.747 42.3772 249.932 42.6929 248.634 43.2412C247.985 43.5154 247.211 43.8477 246.362 44.2381C245.938 44.4375 245.497 44.6535 245.04 44.8695C244.582 45.0939 244.108 45.3182 243.7 45.6172C243.284 45.9163 242.985 46.2985 242.901 46.7471C242.81 47.1957 242.901 47.661 243.051 48.0847C243.376 48.9238 243.725 49.7296 244.166 50.2032C244.648 50.6352 245.231 50.7764 245.597 50.7847C245.98 50.7847 246.179 50.6767 246.196 50.7183C246.213 50.7349 246.03 50.901 245.605 50.9509C245.198 50.9924 244.557 50.9177 243.95 50.4275C243.667 50.1616 243.45 49.821 243.242 49.4472C243.043 49.0733 242.843 48.6745 242.668 48.2176C242.502 47.769 242.377 47.2373 242.477 46.6723C242.577 46.0991 242.976 45.6006 243.434 45.2766C243.9 44.936 244.391 44.72 244.848 44.4957C245.306 44.2714 245.763 44.072 246.188 43.8809C247.053 43.5071 247.843 43.1997 248.509 42.9587C249.848 42.4852 250.705 42.2692 250.722 42.319H250.73Z" fill="#FF9A6C"/>
<path d="M247.301 41.3968C247.318 41.4633 246.603 41.7042 245.471 42.1777C244.905 42.4104 244.248 42.7094 243.524 43.075C242.825 43.4488 241.985 43.8393 241.295 44.3793C240.596 44.9193 240.446 45.8166 240.604 46.556C240.77 47.2954 241.112 47.9683 241.469 48.4086C241.819 48.8406 242.351 48.932 242.659 48.9486C242.984 48.9653 243.158 48.8656 243.175 48.8905C243.192 48.9071 243.042 49.0733 242.667 49.1148C242.318 49.1397 241.727 49.1148 241.245 48.6163C240.804 48.1345 240.429 47.4782 240.213 46.6391C240.122 46.2237 240.097 45.7501 240.213 45.2849C240.321 44.8113 240.629 44.3627 241.012 44.047C241.802 43.4405 242.609 43.0833 243.35 42.7178C244.09 42.3688 244.772 42.0947 245.363 41.8953C246.528 41.4882 247.285 41.347 247.301 41.3968Z" fill="#FF9A6C"/>
<path d="M243.367 49.6709C243.384 49.729 243.109 49.8703 242.66 50.053C242.535 50.0946 242.452 50.161 242.227 50.186C241.961 50.186 241.811 49.9783 241.712 49.8703C241.479 49.5878 241.271 49.3219 241.054 49.0478C240.139 47.8681 239.474 46.8545 239.565 46.788C239.657 46.7133 240.48 47.6105 241.395 48.7819C241.603 49.0644 241.811 49.3302 242.028 49.621C242.119 49.7539 242.194 49.8204 242.236 49.8204C242.294 49.8287 242.46 49.7789 242.568 49.7539C243.043 49.6459 243.351 49.6044 243.367 49.6626V49.6709Z" fill="#FF9A6C"/>
<path d="M250.071 55.4192C249.947 55.4442 249.714 54.4638 249.048 53.4586C248.391 52.445 247.584 51.8469 247.65 51.7389C247.7 51.6392 248.69 52.121 249.406 53.2177C250.138 54.3143 250.18 55.4109 250.071 55.4192Z" fill="#FF9A6C"/>
<path d="M247.26 59.4648L246.428 72.4656L258.55 94.762C258.55 94.762 262.069 75.7718 260.763 72.8394C259.465 69.9153 258.783 68.5612 258.783 68.5612L259.049 61.2177L247.26 59.4648Z" fill="white"/>
<path d="M195.494 42.086C196.866 38.489 198.223 34.8671 198.955 31.0957C199.687 27.3159 199.77 23.3534 198.605 19.6816C198.431 19.1251 196.883 15.3785 196.292 15.4034C195.876 15.4201 196.775 18.8925 196.542 19.2414C194.37 22.5725 193.622 26.6763 193.738 30.6471C193.863 34.6262 194.512 38.2232 195.485 42.0777" fill="#343C41"/>
<path d="M194.521 62.854L196.601 27.4489C197.391 17.8375 192.449 9.36417 182.807 8.84082H181.916C172.914 8.88236 165.451 15.8022 164.761 24.7656C164.12 33.0977 163.521 42.3187 163.596 46.7879C163.746 56.0421 173.022 57.446 173.022 57.446C173.039 57.446 172.698 66.858 172.59 69.5662L186.567 69.3087L189.912 69.1259L194.521 62.854Z" fill="#FFBF9D"/>
<path d="M173.014 57.4464C173.014 57.4464 178.855 57.7621 185.07 53.8408C185.07 53.8408 182.191 60.8111 172.939 60.0136L173.014 57.4547V57.4464Z" fill="#FF9A6C"/>
<path d="M169.053 33.3135C169.028 34.0114 169.602 34.6096 170.334 34.6428C171.067 34.676 171.674 34.1443 171.691 33.4465C171.716 32.7486 171.142 32.1504 170.409 32.1172C169.677 32.084 169.07 32.6157 169.045 33.3135H169.053Z" fill="#343C41"/>
<path d="M166.741 28.8363C166.908 29.0108 167.906 28.2631 169.329 28.2631C170.751 28.2381 171.8 28.9692 171.949 28.7948C172.024 28.72 171.858 28.4043 171.4 28.0803C170.951 27.7563 170.186 27.4323 169.295 27.4406C168.405 27.4489 167.665 27.7812 167.232 28.1135C166.799 28.4541 166.65 28.7615 166.733 28.8363H166.741Z" fill="#343C41"/>
<path d="M181.626 33.5879C181.601 34.2858 182.175 34.884 182.907 34.9172C183.639 34.9504 184.246 34.4187 184.263 33.7209C184.288 33.023 183.714 32.4248 182.982 32.3916C182.249 32.3584 181.642 32.8901 181.617 33.5879H181.626Z" fill="#343C41"/>
<path d="M180.71 29.1102C180.876 29.2847 181.874 28.537 183.297 28.537C184.72 28.5121 185.768 29.2432 185.926 29.0687C186.001 28.9939 185.834 28.6782 185.377 28.3542C184.928 28.0302 184.162 27.7062 183.272 27.7145C182.382 27.7228 181.641 28.0551 181.209 28.3874C180.776 28.7281 180.626 29.0355 180.71 29.1102Z" fill="#343C41"/>
<path d="M175.644 40.0602C175.644 39.9771 174.762 39.8276 173.331 39.6531C172.965 39.6199 172.624 39.5451 172.557 39.2959C172.474 39.03 172.624 38.6396 172.798 38.2159C173.139 37.3352 173.489 36.4131 173.863 35.4493C175.344 31.5031 176.409 28.263 176.251 28.2049C176.093 28.1467 174.762 31.2954 173.289 35.2416C172.931 36.2137 172.59 37.1441 172.266 38.0248C172.133 38.4402 171.891 38.9054 172.083 39.4537C172.183 39.7279 172.449 39.919 172.682 39.9854C172.915 40.0519 173.123 40.0602 173.297 40.0685C174.745 40.1433 175.635 40.1433 175.644 40.0685V40.0602Z" fill="#343C41"/>
<path d="M180.227 24.6662C180.418 25.0317 181.799 24.6413 183.488 24.5997C185.169 24.5249 186.575 24.8157 186.741 24.4336C186.816 24.2591 186.533 23.9268 185.934 23.636C185.343 23.3452 184.445 23.1209 183.43 23.1541C182.423 23.1874 181.533 23.4782 180.967 23.8105C180.393 24.1428 180.135 24.4917 180.218 24.6579L180.227 24.6662Z" fill="#343C41"/>
<path d="M166.351 24.9902C166.642 25.3142 167.807 24.9902 169.204 24.9902C170.602 24.9487 171.775 25.2394 172.05 24.8988C172.174 24.7327 171.991 24.4086 171.476 24.1013C170.968 23.7939 170.12 23.5363 169.163 23.5446C168.206 23.5612 167.374 23.8437 166.883 24.1677C166.384 24.4917 166.218 24.824 166.351 24.9819V24.9902Z" fill="#343C41"/>
<path d="M195.869 34.3022C196.027 34.2357 202.234 32.3997 202.051 38.7219C201.876 45.0525 195.545 43.5654 195.545 43.3826C195.545 43.1999 195.869 34.2939 195.869 34.2939V34.3022Z" fill="#FFBF9D"/>
<path d="M197.549 41.0482C197.549 41.0482 197.657 41.1312 197.84 41.2226C198.023 41.314 198.331 41.3805 198.664 41.2642C199.338 41.0399 199.937 39.9931 199.995 38.8549C200.028 38.2816 199.92 37.725 199.729 37.2681C199.545 36.8028 199.254 36.4705 198.922 36.3958C198.589 36.3127 198.347 36.5038 198.264 36.6782C198.173 36.8527 198.214 36.9773 198.181 36.9939C198.164 37.0105 198.048 36.8859 198.106 36.6201C198.139 36.4955 198.214 36.3459 198.364 36.2296C198.522 36.1133 198.747 36.0551 198.98 36.0884C199.471 36.1382 199.895 36.5952 200.103 37.1019C200.344 37.6087 200.469 38.2318 200.436 38.8798C200.361 40.1509 199.67 41.3306 198.747 41.5716C198.298 41.6796 197.931 41.53 197.74 41.3722C197.549 41.2143 197.515 41.0648 197.54 41.0565L197.549 41.0482Z" fill="#FF9A6C"/>
<path d="M169.245 14.4314C168.238 13.825 171.441 10.6268 174.003 9.58006C177.872 7.99339 183.729 7.14606 187.207 8.26753C191.392 9.6216 194.828 11.8479 196.808 15.7689C198.788 19.6899 199.42 24.1924 199.137 28.5785C199.054 29.916 198.863 31.3033 198.106 32.4081C197.166 33.7705 195.876 34.4185 195.443 36.5285C195.302 37.218 195.219 37.9407 194.711 38.4391C193.505 39.6271 192.132 38.4225 191.525 37.2346C190.227 34.7092 190.177 31.7436 190.16 28.8942C190.152 26.8756 190.144 24.8071 190.784 22.8881C191.134 21.8414 191.666 20.8695 191.957 19.8062C192.249 18.7429 192.257 17.53 191.625 16.6328C191.525 16.4833 191.35 16.3005 191.126 16.0929C189.387 14.4564 186.891 13.8915 184.619 14.6059C181.009 15.7357 174.844 17.3888 173.296 16.1261C171.075 14.2985 170.567 13.1521 170.567 13.1521L169.261 14.4314H169.245Z" fill="#343C41"/>
<path d="M174.512 43.1077L174.754 42.9415C175.993 42.8418 177.225 42.7504 178.464 42.6507C178.664 42.6341 178.88 42.6175 179.055 42.7089C179.271 42.8169 179.396 43.0578 179.471 43.2821C179.812 44.3455 179.379 45.6166 178.456 46.2563C177.532 46.896 176.193 46.8462 175.311 46.1483C174.437 45.4505 174.096 44.1544 174.512 43.116V43.1077Z" fill="#FF9A6C"/>
<path d="M174.92 45.8745C174.92 45.8745 174.945 45.9161 174.995 45.9742C175.045 46.0407 175.136 46.1238 175.261 46.2235C175.511 46.4145 175.918 46.6555 176.492 46.7552C177.05 46.8549 177.782 46.7967 178.439 46.3813C179.08 45.9659 179.596 45.2016 179.695 44.321C179.745 43.8806 179.712 43.4403 179.529 43.0415C179.438 42.8422 179.263 42.6594 179.047 42.6012C178.839 42.5348 178.631 42.5597 178.448 42.5763C177.724 42.6594 177.066 42.7425 176.492 42.8089C175.968 42.8754 175.527 42.9335 175.178 42.9834C174.87 43.0249 174.695 43.0582 174.695 43.0748C174.695 43.0914 174.87 43.0748 175.186 43.0582C175.536 43.0249 175.985 42.9917 176.509 42.9502C177.083 42.892 177.74 42.8338 178.464 42.7591C178.647 42.7425 178.83 42.7342 178.988 42.784C179.146 42.8339 179.271 42.9585 179.354 43.1246C179.504 43.4652 179.546 43.8889 179.496 44.2877C179.396 45.1102 178.922 45.8247 178.331 46.2151C177.732 46.6139 177.041 46.6804 176.509 46.6056C175.968 46.5308 175.561 46.3231 175.303 46.1487C175.045 45.9742 174.928 45.8496 174.912 45.8579L174.92 45.8745Z" fill="#343C41"/>
<path d="M151.541 1.23994C151.774 1.33132 169.711 6.21634 169.711 6.21634L197.483 11.6331L216.269 13.1202L216.419 11.9903L181.076 3.07597L151.649 0.442383L151.541 1.23994Z" fill="#343C41"/>
<path d="M166.799 17.331L170.559 6.21606C170.559 6.21606 181.691 2.71875 198.78 11.732C200.552 16.9074 201.01 22.523 200.827 26.0702C200.827 26.0702 191.434 17.4889 176.433 17.7132C176.433 17.7132 170.509 14.814 166.807 17.331H166.799Z" fill="#7B858C"/>
<path d="M200.727 21.9836C200.727 21.9836 193.605 17.3893 187.523 15.6862C181.45 13.9831 176.849 14.681 176.849 14.681C171.857 12.3714 167.681 14.0911 167.681 14.0911L166.799 17.3312C170.509 14.8222 176.425 17.7133 176.425 17.7133C191.425 17.489 200.777 26.1624 200.777 26.1624C200.927 24.8747 200.902 23.479 200.727 21.9836Z" fill="#B370B9"/>
<path d="M176.434 17.7146C176.318 17.698 176.634 14.8069 177.15 11.2594C177.666 7.71197 178.181 4.84576 178.298 4.86238C178.414 4.87899 178.098 7.77012 177.582 11.3176C177.067 14.865 176.551 17.7312 176.434 17.7146Z" fill="#343C41"/>
<path d="M216.269 13.1119L180.777 4.24738L151.541 1.23994L151.649 0.442383L181.243 3.00951L216.419 11.9903L216.269 13.1119Z" fill="#7B858C"/>
<path d="M180.793 4.36364C180.677 4.34703 180.618 4.03133 180.668 3.64917C180.718 3.27532 180.851 2.97623 180.976 2.99285C181.093 3.00946 181.151 3.32516 181.101 3.70732C181.051 4.08118 180.918 4.38026 180.793 4.36364Z" fill="#343C41"/>
<path d="M154.236 8.82429L153.238 8.73291C152.065 9.08184 151.69 10.0123 151.457 10.8348C150.567 13.9835 149.901 17.1737 149.469 20.3722C150.509 20.5051 151.54 20.6464 152.58 20.7793C152.83 20.8125 153.312 12.7954 153.321 20.7793C153.321 21.0535 155.101 21.1116 155.043 20.8042C154.402 17.0325 154.652 13.6678 154.818 10.4776C154.852 9.90432 154.835 9.2563 154.228 8.81599L154.236 8.82429Z" fill="#B370B9"/>
<path d="M154.443 7.40421C154.559 6.44881 154.751 5.49341 154.984 4.56293C155.183 3.78199 155.391 2.99275 155.824 2.30319C156.215 1.68841 156.806 1.16502 157.555 1.05702C158.495 0.924092 159.41 1.41425 160.184 1.89611C160.749 2.25335 161.273 1.3561 160.708 0.998862C159.776 0.417313 158.669 -0.106082 157.538 0.0185359C156.556 0.126538 155.749 0.674855 155.167 1.44749C154.593 2.2035 154.31 3.10075 154.06 4.0063C153.761 5.11955 153.544 6.25773 153.403 7.40421C153.37 7.68668 153.669 7.9193 153.919 7.9193C154.227 7.9193 154.401 7.67837 154.435 7.40421H154.443Z" fill="#B370B9"/>
<path d="M155.135 8.10984C155.035 8.88247 154.294 9.42247 153.487 9.31447C152.68 9.20647 152.115 8.492 152.215 7.71937C152.314 6.94674 153.055 6.40673 153.862 6.51473C154.669 6.62273 155.235 7.33721 155.135 8.10984Z" fill="#B370B9"/>
<path d="M155.135 8.10966C155.06 8.12627 155.168 7.52811 154.594 7.02133C154.32 6.7804 153.87 6.62255 153.404 6.73055C152.947 6.82194 152.506 7.22072 152.431 7.75242C152.356 8.28412 152.681 8.78259 153.097 8.99029C153.521 9.2146 153.995 9.17306 154.32 9.01521C155.01 8.67459 155.06 8.06812 155.127 8.10966C155.152 8.10966 155.177 8.25089 155.11 8.48351C155.043 8.71613 154.852 9.05675 154.461 9.28937C154.078 9.52199 153.471 9.61338 152.914 9.34753C152.356 9.09829 151.89 8.42536 151.99 7.69426C152.082 6.95487 152.706 6.43147 153.313 6.34008C153.929 6.23208 154.486 6.47301 154.794 6.80532C155.11 7.13764 155.21 7.51149 155.21 7.75242C155.21 8.00165 155.152 8.12627 155.127 8.11796L155.135 8.10966Z" fill="#343C41"/>
<path d="M150.833 18.1951C150.7 18.1951 150.783 16.0517 151.424 13.5095C151.74 12.2384 152.098 11.1086 152.439 10.3193C152.755 9.51345 153.163 9.08974 153.213 9.15621C153.238 9.19775 152.971 9.61314 152.722 10.4273C152.464 11.2249 152.148 12.3547 151.84 13.6175C151.208 16.1265 150.933 18.2035 150.825 18.2035L150.833 18.1951Z" fill="#343C41"/>
<path d="M152.571 16.1431C152.455 16.1431 152.422 14.5563 152.688 12.6372C152.954 10.7098 153.412 9.19777 153.52 9.23101C153.636 9.25593 153.378 10.8012 153.12 12.7037C152.854 14.6062 152.696 16.1598 152.571 16.1514V16.1431Z" fill="#343C41"/>
<path d="M153.97 11.2415C153.854 11.2415 153.77 10.8095 153.795 10.2778C153.82 9.75438 153.937 9.33068 154.053 9.33899C154.17 9.33899 154.253 9.771 154.228 10.3027C154.203 10.8261 154.087 11.2498 153.97 11.2415Z" fill="#343C41"/>
<path d="M158.995 1.11523L161.333 1.30659L161.283 2.08865L158.762 1.71426L158.995 1.11523Z" fill="#7B858C"/>
<path d="M179.487 16.9242C179.886 14.9303 179.046 11.9311 176.242 11.0588C174.304 10.4523 171.982 11.4493 171.134 13.3019C170.834 12.7121 170.06 12.4795 169.428 12.6705C168.796 12.8533 168.305 13.3684 167.989 13.9416C167.598 14.6478 167.431 15.5284 167.764 16.2595C168.097 16.9906 169.037 17.4642 169.761 17.1069C169.952 18.3282 170.826 19.4165 171.982 19.8651C173.139 20.3055 174.52 20.0811 175.477 19.3002C176.508 20.4467 178.172 20.9784 179.678 20.6544C181.184 20.3304 182.482 19.159 182.948 17.6885C181.791 17.4392 180.643 17.1817 179.487 16.9325V16.9242Z" fill="#343C41"/>
<path d="M145.051 69.6821C145.051 69.6821 140.849 70.3384 139.277 72.1743C137.704 74.0102 134.551 77.0174 132.979 82.3921C131.406 87.7585 126.423 103.218 126.423 103.218L118.161 106.101L114.109 116.643C110.615 125.739 109.084 135.5 109.883 145.211C110.108 147.994 110.524 150.594 111.206 152.596C113.96 160.587 124.909 161.775 127.138 160.986C129.368 160.197 146.623 133.863 146.623 133.863L149.901 95.6171L145.051 69.6821Z" fill="#B370B9"/>
<g opacity="0.3">
<path d="M132.279 113.935L120.016 109.266C118.452 115.621 114.042 123.662 113.194 130.15C112.345 136.647 112.229 143.284 113.56 149.697C114.15 152.53 115.091 155.429 117.162 157.448C117.953 158.212 118.959 158.86 120.058 158.835C121.863 158.81 123.136 157.099 124.043 155.537C131.081 143.425 133.769 127.392 132.271 113.918L132.279 113.935Z" fill="black"/>
</g>
<path d="M131.414 136.057C131.414 136.057 133.718 124.369 132.487 115.605C131.813 110.795 128.069 106.633 128.069 106.633C128.069 106.633 120.032 106.907 120.016 109.274C120.016 110.022 121.372 114.433 121.372 114.433C121.447 115.646 120.706 117.341 120.773 119.06C120.773 119.06 125.748 133.108 131.422 136.057" fill="white"/>
<path d="M122.928 157.963C122.928 157.963 122.986 157.797 123.136 157.506C123.31 157.173 123.535 156.758 123.81 156.243C124.425 155.163 125.216 153.543 126.156 151.525C127.978 147.479 130.149 141.689 131.389 135.01C132.678 128.348 132.837 122.159 132.52 117.739C132.479 117.183 132.446 116.659 132.412 116.161C132.354 115.663 132.304 115.197 132.254 114.757C132.154 113.877 132.071 113.121 131.963 112.514C131.871 111.933 131.805 111.467 131.747 111.094C131.705 110.77 131.688 110.595 131.697 110.595C131.713 110.595 131.755 110.761 131.83 111.077C131.905 111.443 132.005 111.908 132.129 112.481C132.271 113.087 132.379 113.843 132.495 114.724C132.554 115.164 132.62 115.638 132.687 116.128C132.728 116.635 132.778 117.158 132.828 117.714C133.228 122.159 133.119 128.389 131.822 135.093C130.574 141.805 128.344 147.62 126.439 151.649C125.465 153.66 124.625 155.255 123.959 156.318C123.652 156.816 123.41 157.223 123.211 157.547C123.036 157.83 122.936 157.971 122.928 157.963Z" fill="#7B858C"/>
<path d="M143.512 119.435C143.462 119.476 142.73 118.621 141.573 117.241C140.408 115.871 138.803 113.952 136.773 112.115C134.751 110.263 132.621 108.967 130.974 108.261C129.326 107.563 128.22 107.355 128.237 107.264C128.237 107.23 128.519 107.272 129.019 107.372C129.526 107.455 130.233 107.662 131.09 107.978C132.796 108.618 135.017 109.914 137.064 111.791C139.119 113.661 140.7 115.621 141.814 117.05C142.372 117.765 142.804 118.355 143.096 118.77C143.387 119.185 143.537 119.418 143.52 119.435H143.512Z" fill="#7B858C"/>
<path d="M138.586 131.348C138.519 131.34 138.686 130.226 138.819 128.424C138.952 126.621 138.993 124.12 138.711 121.379C138.419 118.637 137.845 116.203 137.338 114.466C136.83 112.73 136.431 111.683 136.498 111.658C136.522 111.65 136.656 111.899 136.864 112.365C137.08 112.83 137.346 113.519 137.637 114.383C138.228 116.111 138.852 118.571 139.152 121.345C139.443 124.12 139.351 126.654 139.135 128.465C139.027 129.371 138.91 130.102 138.802 130.6C138.694 131.099 138.627 131.373 138.594 131.365L138.586 131.348Z" fill="#7B858C"/>
<path d="M217.3 71.3852C217.3 71.3852 219.347 69.8234 220.903 70.7372C222.458 71.651 238.199 85.5655 238.199 85.5655L245.978 63.8838C245.978 63.8838 268.816 116.169 264.864 119.517C260.921 122.856 233.673 124.576 225.903 120.638C218.132 116.701 208.182 99.6627 208.182 99.6627L217.292 71.3852H217.3Z" fill="#B370B9"/>
<path d="M165.676 64.7562L170.401 63.02L172.939 58.6422L182.066 65.047L194.886 56.6318L195.843 62.3222L201.983 66.2183L182.698 96.3982L173.28 93.4326L165.676 64.7562Z" fill="white"/>
<path d="M181.076 66.4009L178.838 69.2006L179.961 72.1333L182.665 72.5819L184.362 69.7572L182.798 66.6003L181.076 66.4009Z" fill="#465159"/>
<path d="M179.96 72.1328L173.279 93.4324L182.697 96.398L185.726 91.663L182.664 72.5814L179.96 72.1328Z" fill="#465159"/>
<path d="M195.636 62.5963C195.636 62.5963 195.378 62.8539 194.87 63.2693C194.296 63.7262 193.556 64.3077 192.649 65.0305C190.677 66.5509 188.006 68.6029 184.945 70.9623L184.745 71.1202L184.637 70.8876C183.988 69.5417 183.297 68.0961 182.582 66.609C182.349 66.1105 182.108 65.6204 181.883 65.1468L182.249 65.1884C180.693 67.0992 179.237 68.8937 177.931 70.4888L177.798 70.6549L177.648 70.5054C175.627 68.445 173.921 66.7004 172.656 65.4044C172.099 64.8145 171.633 64.3327 171.267 63.9422C170.951 63.6016 170.793 63.4105 170.801 63.3939C170.809 63.3773 171.009 63.5434 171.35 63.8591C171.733 64.2247 172.224 64.6816 172.814 65.2465C174.104 66.5093 175.851 68.2124 177.923 70.2312L177.64 70.2479C178.93 68.6361 180.377 66.8333 181.916 64.9142L182.133 64.6484L182.282 64.9557C182.515 65.4376 182.748 65.9278 182.981 66.4179C183.688 67.9133 184.379 69.3589 185.028 70.7048L184.712 70.63C187.815 68.3204 190.511 66.3016 192.507 64.8145C193.439 64.1416 194.213 63.585 194.804 63.1529C195.344 62.7708 195.644 62.5714 195.661 62.5963H195.636Z" fill="#343C41"/>
<path d="M144.46 69.7906L166.865 63.394L180.135 94.7702L200.452 63.394L219.687 70.7957L212.565 104.124L215.801 146.524C215.801 146.524 226.817 256.153 226.318 259.435L206.592 261.603C206.592 261.603 207.964 281.183 206.592 281.532C187.756 286.35 182.963 275.052 182.963 275.052C170.326 279.754 152.347 275.293 144.742 263.804L132.246 258.33L143.511 114.782L144.46 69.7823V69.7906Z" fill="#B370B9"/>
<path d="M139.276 72.166C139.276 72.166 139.326 72.2989 139.392 72.5565C139.467 72.8472 139.559 73.221 139.675 73.6945C139.917 74.7329 140.266 76.1867 140.69 78.006C141.539 81.7525 142.737 86.9943 144.151 93.1831V93.1998V93.2164C144.384 97.8185 144.409 102.986 144.26 108.418C143.96 118.578 143.228 127.749 142.912 134.395C142.737 137.718 142.629 140.409 142.554 142.262C142.521 143.159 142.487 143.873 142.471 144.405C142.454 144.629 142.446 144.812 142.437 144.962C142.429 145.086 142.421 145.153 142.413 145.153C142.413 145.153 142.396 145.086 142.396 144.962C142.396 144.812 142.396 144.629 142.388 144.405C142.388 143.882 142.388 143.159 142.388 142.262C142.404 140.401 142.471 137.71 142.604 134.378C142.845 127.724 143.527 118.553 143.827 108.41C143.977 102.986 143.96 97.8268 143.76 93.233V93.2662C142.421 87.0608 141.273 81.8023 140.457 78.0475C140.075 76.2199 139.767 74.7579 139.551 73.7112C139.459 73.2376 139.384 72.8555 139.326 72.5565C139.276 72.2906 139.259 72.1577 139.268 72.1577L139.276 72.166Z" fill="#7B858C"/>
<path d="M219.512 72.1826C219.512 72.1826 219.437 72.6727 219.212 73.5284C218.971 74.4588 218.663 75.6799 218.28 77.1586C217.498 80.2239 216.45 84.4606 215.427 89.1708C214.403 93.8809 213.596 98.1757 213.039 101.283C212.773 102.786 212.548 104.024 212.381 104.971C212.223 105.843 212.124 106.317 212.09 106.317C212.057 106.317 212.107 105.827 212.215 104.946C212.323 104.065 212.498 102.803 212.739 101.233C213.222 98.1093 213.979 93.7978 215.011 89.0794C216.034 84.3609 217.132 80.1243 217.989 77.0838C218.422 75.5636 218.788 74.3342 219.054 73.4868C219.32 72.6395 219.487 72.1826 219.512 72.1909V72.1826Z" fill="#7B858C"/>
<path d="M240.063 115.729C240.063 115.729 239.979 115.662 239.846 115.496C239.713 115.338 239.539 115.089 239.347 114.74C238.956 114.059 238.524 112.979 238.291 111.592C238.041 110.205 237.983 108.535 237.941 106.691C237.891 104.847 237.866 102.828 237.858 100.701C237.85 96.448 237.941 92.6018 238.058 89.8189C238.116 88.4233 238.182 87.3018 238.232 86.521C238.291 85.7401 238.332 85.3164 238.365 85.3164C238.399 85.3164 238.407 85.7484 238.407 86.5293C238.399 87.3849 238.382 88.4981 238.365 89.8272C238.324 92.6101 238.282 96.4563 238.291 100.701C238.307 102.82 238.324 104.838 238.341 106.691C238.357 108.535 238.382 110.18 238.59 111.55C238.956 114.317 240.146 115.696 240.063 115.729Z" fill="#7B858C"/>
<path d="M233.78 114.151C233.78 114.151 233.738 113.744 233.738 112.996C233.738 112.257 233.772 111.185 233.846 109.856C233.988 107.206 234.337 103.559 234.995 99.5633C235.66 95.5675 236.517 92.0038 237.233 89.4535C237.59 88.1742 237.906 87.1524 238.148 86.4463C238.381 85.7402 238.53 85.358 238.555 85.3663C238.58 85.3747 238.497 85.7734 238.306 86.4878C238.098 87.2853 237.84 88.3071 237.524 89.5199C236.883 92.0868 236.076 95.6506 235.411 99.6214C234.753 103.601 234.362 107.231 234.138 109.864C234.038 111.119 233.955 112.165 233.896 112.988C233.838 113.727 233.797 114.134 233.763 114.134L233.78 114.151Z" fill="#7B858C"/>
<path d="M212.924 95.4597C212.924 95.576 197.433 95.2935 178.339 94.82C159.236 94.3465 143.753 93.8729 143.762 93.7483C143.762 93.632 159.245 93.9145 178.355 94.388C197.449 94.8616 212.932 95.3351 212.932 95.4597H212.924Z" fill="#7B858C"/>
<path d="M160.343 189.438C160.343 189.438 160.326 189.355 160.31 189.197C160.293 189.006 160.276 188.774 160.251 188.475C160.202 187.835 160.152 186.896 160.135 185.692C160.06 183.274 160.035 179.769 160.035 175.449C160.035 166.801 160.152 154.847 160.368 141.655C160.584 128.455 160.859 116.51 161.108 107.862C161.233 103.542 161.35 100.037 161.466 97.6275C161.516 96.4229 161.566 95.4842 161.616 94.8446C161.641 94.5455 161.658 94.3129 161.674 94.1218C161.691 93.9557 161.699 93.8726 161.707 93.8809C161.666 96.2402 161.3 115.588 160.809 141.672C160.593 154.864 160.426 166.818 160.351 175.466C160.31 179.794 160.293 183.291 160.31 185.708C160.31 186.921 160.326 187.852 160.351 188.491C160.351 188.79 160.36 189.031 160.36 189.214C160.36 189.38 160.36 189.463 160.351 189.463L160.343 189.438Z" fill="#7B858C"/>
<path d="M168.512 121.503C168.512 121.503 168.471 121.12 168.462 120.448C168.437 119.683 168.396 118.72 168.354 117.573C168.238 115.056 168.08 111.75 167.913 108.086C167.747 104.423 167.597 101.117 167.489 98.5997C167.456 97.4533 167.422 96.4897 167.397 95.7254C167.381 95.0442 167.397 94.6704 167.422 94.6704C167.456 94.6704 167.505 95.0442 167.564 95.7171C167.63 96.3983 167.705 97.3785 167.797 98.5914C167.971 101.017 168.171 104.365 168.354 108.078C168.529 111.783 168.645 115.139 168.67 117.573C168.679 118.786 168.67 119.775 168.637 120.456C168.595 121.137 168.545 121.511 168.52 121.511L168.512 121.503Z" fill="#7B858C"/>
<path d="M182.947 273.714C182.906 271.33 182.298 233.391 181.5 184.063C181.142 159.308 180.818 136.895 180.585 120.655C180.518 112.555 180.46 105.993 180.418 101.44C180.418 99.1726 180.402 97.4115 180.435 96.2153C180.443 95.6338 180.452 95.1769 180.46 94.8529C180.468 94.5455 180.485 94.3877 180.485 94.3877C180.526 96.7635 181.134 134.702 181.932 184.047C182.29 208.794 182.606 231.198 182.848 247.439C182.914 255.538 182.972 262.101 183.014 266.653C183.014 268.921 183.031 270.682 182.997 271.878C182.989 272.46 182.981 272.917 182.972 273.241C182.964 273.548 182.947 273.706 182.947 273.706V273.714Z" fill="#7B858C"/>
<path d="M184.502 107.265C184.444 107.265 184.361 106.567 184.186 105.429C183.986 104.125 183.77 102.638 183.521 100.993C183.271 99.2564 183.071 97.6779 182.98 96.5314C182.88 95.3849 182.905 94.6621 182.963 94.6621C183.021 94.6621 183.105 95.36 183.279 96.4981C183.479 97.8025 183.695 99.2896 183.945 100.935C184.194 102.671 184.394 104.249 184.486 105.396C184.585 106.542 184.561 107.265 184.502 107.265Z" fill="#7B858C"/>
<path d="M206.583 261.603C206.466 261.603 203.979 224.245 201.034 178.149C198.088 132.044 195.792 94.6704 195.917 94.6621C196.033 94.6621 198.521 132.011 201.466 178.124C204.411 224.212 206.699 261.595 206.583 261.603Z" fill="#7B858C"/>
<g opacity="0.3">
<path d="M142.404 138.657C141.14 124.593 141.539 110.371 143.569 96.3984C144.251 110.13 143.835 123.912 142.321 137.577" fill="black"/>
</g>
<g opacity="0.3">
<path d="M237.89 86.272C235.611 91.2313 233.306 96.2323 232.075 101.557C230.843 106.874 230.727 112.597 232.757 117.665C233.206 107.198 234.962 96.7971 237.973 86.7621L238.115 88.9469" fill="black"/>
</g>
<path d="M127.297 92.3613C127.106 90.0021 127.081 87.5847 126.299 85.3501C126.099 84.7935 125.849 84.2369 125.425 83.8216C124.992 83.4145 124.36 83.1819 123.794 83.373C123.295 83.5391 122.946 84.0126 122.779 84.5111C122.613 85.0095 122.613 85.5495 122.613 86.0811C122.613 87.5847 122.621 89.1298 122.122 90.5504C121.54 92.1952 120.325 93.541 119.61 95.1276C118.511 97.5699 118.719 100.552 120.142 102.82C120.899 104.025 122.214 105.096 123.611 104.83L129.094 102.014C128.171 98.8658 127.563 95.6261 127.297 92.3613Z" fill="#FF9A6C"/>
<path d="M121.748 103.983L99.2676 47.9011C99.2676 47.9011 101.481 43.8389 107.654 44.246L129.768 100.61L121.748 103.983Z" fill="white"/>
<path d="M128.012 101.35C128.012 101.35 127.896 101.167 127.721 100.802C127.53 100.395 127.28 99.8548 126.964 99.1819C126.315 97.7697 125.408 95.7261 124.31 93.1758C122.114 88.0919 119.185 81.0142 116.065 73.1556C112.954 65.2887 110.225 58.1362 108.311 52.9359C107.354 50.3358 106.597 48.2258 106.081 46.7637C105.84 46.0659 105.649 45.501 105.507 45.0774C105.383 44.6869 105.316 44.4876 105.333 44.4793C105.349 44.4709 105.432 44.6703 105.591 45.0441C105.757 45.4595 105.973 46.0161 106.248 46.7056C106.822 48.1926 107.621 50.2777 108.602 52.828C110.591 57.995 113.353 65.1309 116.473 72.9977C119.593 80.8563 122.471 87.9423 124.593 93.0595C125.649 95.5849 126.506 97.6368 127.122 99.1154C127.405 99.7966 127.63 100.345 127.804 100.769C127.954 101.151 128.029 101.35 128.012 101.358V101.35Z" fill="#343C41"/>
<path d="M112.795 90.9822C112.729 91.1317 113.461 96.7972 113.719 98.3839C113.977 99.9622 114.534 99.9622 114.534 99.9622C114.534 99.9622 114.534 102.006 115.042 102.77C115.549 103.534 116.165 103.892 116.165 103.892C116.165 103.892 116.797 105.594 117.338 106.184C117.879 106.774 121.839 110.978 121.839 110.978C121.839 110.978 124.293 111.999 126.032 110.67C127.771 109.341 128.229 107.248 128.229 107.248L127.155 102.961C127.155 102.961 128.736 102.247 128.736 101.532C128.736 100.818 128.021 99.7961 128.021 99.7961C128.021 99.7961 126.165 100.203 125.05 100.61C123.936 101.017 121.223 102.089 121.223 102.089L120.757 100.942L125.258 98.2593C125.258 98.2593 127.655 98.01 128.27 97.3953C128.886 96.7806 128.478 95.1524 127.813 94.9945C127.147 94.845 124.185 95.2521 123.728 95.2022C123.27 95.1524 119.301 96.8886 119.301 96.8886C119.301 96.8886 124.493 94.1804 124.651 94.1306C124.801 94.0808 127.363 94.0309 127.721 93.5657C128.079 93.1088 128.287 91.2729 127.155 90.9656C126.024 90.6582 123.678 90.9157 123.22 90.9656C122.763 91.0154 116.88 93.1587 116.88 93.1587V91.4225L120.508 86.7788C120.508 86.7788 121.332 85.5742 120.1 84.5358C119.817 84.2949 118.894 84.3448 118.103 85.1007C117.463 85.7154 112.995 90.5087 112.787 90.9656L112.795 90.9822Z" fill="#FFBF9D"/>
<path d="M121.931 104.913C121.889 104.797 123.004 104.29 124.418 103.775C125.833 103.26 127.014 102.936 127.056 103.044C127.097 103.16 125.983 103.667 124.568 104.182C123.154 104.697 121.972 105.021 121.931 104.913Z" fill="#FF9A6C"/>
<path d="M123.129 105.902C123.029 105.835 123.137 105.478 123.27 105.063C123.412 104.647 123.528 104.29 123.645 104.298C123.761 104.298 123.836 104.722 123.678 105.196C123.52 105.678 123.22 105.968 123.121 105.902H123.129Z" fill="#FF9A6C"/>
<path d="M115.524 94.4544C115.432 94.3797 115.607 93.9892 115.982 93.6237C116.356 93.2581 116.755 93.092 116.822 93.1833C116.897 93.283 116.63 93.5904 116.281 93.9311C115.932 94.2717 115.615 94.5209 115.524 94.4461V94.4544Z" fill="#FF9A6C"/>
<path d="M110.191 75.1571C110.191 75.1571 112.246 70.9367 118.395 71.6345L120.025 75.7885C120.025 75.7885 116.481 74.6503 111.914 79.4605L110.191 75.1654V75.1571Z" fill="#465159"/>
<path d="M105.474 77.5911C103.677 78.6794 102.063 80.3991 101.564 82.4429C101.373 83.2238 101.647 84.2706 102.271 84.7691C102.862 85.2426 103.744 85.0764 104.443 84.7774C106.156 84.0546 107.571 82.7502 108.686 81.2714C109.8 79.7927 110.657 78.1311 111.498 76.4778C109.459 75.971 107.263 76.5027 105.466 77.5911H105.474ZM106.797 81.7201C106.106 82.5426 104.975 83.5063 103.952 83.8469C103.611 83.9632 103.195 83.9964 102.92 83.7638C102.72 83.5893 102.604 83.3069 102.637 83.041C102.712 82.3764 102.978 81.5705 103.486 81.0222C103.993 80.4656 104.559 79.7677 105.116 79.2693C105.973 78.4966 106.389 78.1726 107.238 77.832C108.261 77.4166 109.11 77.2089 110.017 77.1341C108.752 78.6462 108.062 80.2164 106.797 81.7201Z" fill="#465159"/>
<path d="M110.432 71.0953C109.309 69.3258 107.545 67.7473 105.499 67.2903C104.717 67.1159 103.677 67.415 103.186 68.0464C102.72 68.6445 102.911 69.5168 103.219 70.2147C103.976 71.9095 105.307 73.2969 106.813 74.3769C108.319 75.4653 110 76.2794 111.672 77.0853C112.138 75.0416 111.555 72.8566 110.432 71.087V71.0953ZM106.322 72.4994C105.482 71.8264 104.5 70.7132 104.142 69.7079C104.018 69.3673 103.976 68.9519 104.209 68.6777C104.375 68.4701 104.658 68.3537 104.925 68.3787C105.598 68.4368 106.397 68.6861 106.963 69.1845C107.529 69.6747 108.236 70.2313 108.752 70.7796C109.542 71.6187 109.875 72.0341 110.233 72.8649C110.665 73.8785 110.89 74.7259 110.981 75.6231C109.442 74.3936 107.861 73.7372 106.322 72.5077V72.4994Z" fill="#465159"/>
</g>
</svg>
