<svg width="240" height="224" viewBox="0 0 240 224" fill="none" xmlns="http://www.w3.org/2000/svg">
<path d="M41.0118 76.2406L43.2601 77.0844L41.3123 77.638C40.6631 77.8208 40.1479 78.3206 39.9333 78.9656L39.2304 81.1263L38.3611 78.9602C38.1465 78.4228 37.7119 78.0035 37.1699 77.8046L35.1953 77.0898L37.3309 76.2083C37.846 75.9933 38.2538 75.5795 38.4577 75.0581L39.2304 73.0479L39.7831 74.913C39.9655 75.5257 40.4216 76.0148 41.0172 76.2406H41.0118Z" fill="#E0E0E0"/>
<path d="M149.723 82.8881L152.24 83.8341L150.056 84.4522C149.326 84.6618 148.747 85.2154 148.516 85.9357L147.727 88.3543L146.756 85.9303C146.514 85.3283 146.031 84.8553 145.42 84.6349L143.209 83.8341L145.602 82.8505C146.182 82.614 146.638 82.1464 146.863 81.5605L147.727 79.3138L148.349 81.4047C148.553 82.0873 149.063 82.6409 149.728 82.8881H149.723Z" fill="#E0E0E0"/>
<path d="M140.758 26.2803L142.293 26.8608L140.957 27.237C140.511 27.366 140.157 27.7046 140.012 28.1453L139.53 29.6234L138.934 28.14C138.789 27.7745 138.489 27.4842 138.118 27.3499L136.771 26.8608L138.231 26.2588C138.585 26.1137 138.864 25.8288 138.998 25.4687L139.524 24.0927L139.905 25.3719C140.029 25.7912 140.34 26.1244 140.748 26.2803H140.758Z" fill="#E0E0E0"/>
<path d="M47.0923 14.8698L48.6269 15.4503L47.2908 15.8265C46.8454 15.9555 46.4913 16.2941 46.3464 16.7349L45.8635 18.213L45.2679 16.7295C45.123 16.364 44.8225 16.0738 44.4523 15.9394L43.1055 15.4503L44.565 14.8483C44.9191 14.7032 45.1981 14.4183 45.3323 14.0582L45.8581 12.6823L46.2391 13.9615C46.3625 14.3807 46.6737 14.7139 47.0815 14.8698H47.0923Z" fill="#E0E0E0"/>
<path d="M77.0816 16.2455L80.4836 17.5247L77.5324 18.3632C76.5451 18.6427 75.767 19.3952 75.4451 20.3734L74.3773 23.6467L73.0627 20.368C72.7353 19.5564 72.0807 18.9168 71.2544 18.6158L68.2656 17.5301L71.5012 16.1971C72.2846 15.8746 72.9017 15.2458 73.2022 14.4503L74.3719 11.4081L75.209 14.2353C75.4826 15.1598 76.1748 15.9015 77.0763 16.2455H77.0816Z" fill="#E0E0E0"/>
<path d="M130.916 10.5649L133.164 11.4088L131.217 11.9624C130.567 12.1451 130.052 12.645 129.838 13.29L129.135 15.4506L128.265 13.2846C128.051 12.7471 127.616 12.3279 127.074 12.129L125.1 11.4141L127.235 10.5327C127.75 10.3177 128.158 9.9038 128.362 9.38244L129.135 7.37225L129.687 9.23732C129.87 9.85005 130.326 10.3392 130.922 10.5649H130.916Z" fill="#E0E0E0"/>
<path d="M202.094 67.2369L204.342 68.0808L202.394 68.6344C201.745 68.8171 201.23 69.317 201.015 69.962L200.312 72.1226L199.443 69.9566C199.229 69.4191 198.794 68.9999 198.252 68.801L196.277 68.0861L198.413 67.2047C198.928 66.9897 199.336 66.5758 199.54 66.0544L200.312 64.0443L200.865 65.9093C201.048 66.522 201.504 67.0112 202.099 67.2369H202.094Z" fill="#E0E0E0"/>
<path d="M37.7669 89.2412L38.6147 89.5583L37.8796 89.7679C37.6327 89.8378 37.4396 90.0259 37.3591 90.2678L37.0908 91.0794L36.7635 90.2624C36.683 90.0582 36.5166 89.9023 36.3127 89.8271L35.5723 89.5583L36.3771 89.2251C36.5703 89.1445 36.7259 88.9886 36.801 88.7897L37.0908 88.0319L37.3001 88.736C37.3698 88.9671 37.5415 89.1498 37.7669 89.2358V89.2412Z" fill="#E0E0E0"/>
<path d="M108.466 13.8378L109.314 14.155L108.579 14.3646C108.332 14.4345 108.139 14.6226 108.058 14.8644L107.79 15.676L107.463 14.8591C107.382 14.6548 107.216 14.499 107.012 14.4237L106.271 14.155L107.076 13.8217C107.27 13.7411 107.425 13.5852 107.5 13.3864L107.79 12.6285L107.999 13.3326C108.069 13.5637 108.241 13.7465 108.466 13.8325V13.8378Z" fill="#E0E0E0"/>
<path d="M201.526 195.373L203.06 195.953L201.724 196.33C201.279 196.459 200.925 196.797 200.78 197.238L200.297 198.716L199.701 197.233C199.557 196.867 199.256 196.577 198.886 196.442L197.539 195.953L198.999 195.351C199.353 195.206 199.632 194.921 199.766 194.561L200.292 193.185L200.673 194.465C200.796 194.884 201.107 195.217 201.515 195.373H201.526Z" fill="#E0E0E0"/>
<path d="M193.471 209.208L195.719 210.052L193.771 210.606C193.122 210.788 192.607 211.288 192.392 211.933L191.689 214.094L190.82 211.928C190.605 211.39 190.171 210.971 189.629 210.772L187.654 210.057L189.79 209.176C190.305 208.961 190.713 208.547 190.917 208.026L191.689 206.016L192.242 207.881C192.424 208.493 192.881 208.982 193.476 209.208H193.471Z" fill="#E0E0E0"/>
<path d="M82.1622 215.577L84.4105 216.421L82.4627 216.975C81.8135 217.158 81.2983 217.657 81.0837 218.302L80.3808 220.463L79.5115 218.297C79.2969 217.76 78.8623 217.34 78.3203 217.142L76.3457 216.427L78.4813 215.545C78.9964 215.33 79.4042 214.916 79.6081 214.395L80.3808 212.385L80.9335 214.25C81.1159 214.863 81.572 215.352 82.1676 215.577H82.1622Z" fill="#E0E0E0"/>
<path d="M176.386 204.177L177.234 204.495L176.499 204.704C176.252 204.774 176.059 204.962 175.978 205.204L175.71 206.016L175.383 205.199C175.302 204.994 175.136 204.839 174.932 204.763L174.191 204.495L174.996 204.161C175.189 204.081 175.345 203.925 175.42 203.726L175.71 202.968L175.919 203.672C175.989 203.903 176.161 204.086 176.386 204.172V204.177Z" fill="#E0E0E0"/>
<path d="M160.902 58.1378L161.749 58.4549L161.014 58.6645C160.767 58.7344 160.574 58.9225 160.494 59.1644L160.226 59.976L159.898 59.159C159.818 58.9548 159.651 58.7989 159.448 58.7236L158.707 58.4549L159.512 58.1217C159.705 58.041 159.861 57.8852 159.936 57.6863L160.226 56.9284L160.435 57.6325C160.505 57.8637 160.676 58.0464 160.902 58.1324V58.1378Z" fill="#E0E0E0"/>
<path d="M47.726 38.3899L50.0547 39.266L48.0318 39.8411C47.3557 40.0346 46.8192 40.5506 46.6045 41.2171L45.8748 43.4584L44.9733 41.2117C44.748 40.6527 44.2972 40.2173 43.7338 40.0131L41.6895 39.2714L43.9055 38.3576C44.4421 38.1373 44.866 37.7019 45.0699 37.1644L45.8694 35.079L46.4436 37.0193C46.6314 37.6535 47.1035 38.1641 47.7206 38.3953L47.726 38.3899Z" fill="#E0E0E0"/>
<path d="M26.155 83.3722L27.3945 83.8398L26.316 84.1462C25.9565 84.2483 25.6721 84.5224 25.5541 84.8772L25.1624 86.0704L24.6848 84.8772C24.5667 84.5815 24.3253 84.3504 24.0248 84.2375L22.9355 83.8398L24.116 83.3561C24.4004 83.2378 24.6258 83.0067 24.7385 82.7218L25.1624 81.6146L25.4682 82.6466C25.5702 82.9852 25.8223 83.2539 26.1497 83.3776L26.155 83.3722Z" fill="#E0E0E0"/>
<path d="M238.446 112.913C225.805 107.087 213.893 111.58 213.893 111.58C223.084 118.949 238.446 112.913 238.446 112.913Z" fill="#E0E0E0"/>
<path d="M200.843 103.706C198.955 112.048 203.247 119.089 203.247 119.089C206.52 112.762 200.843 103.706 200.843 103.706Z" fill="#E0E0E0"/>
<path d="M206.611 118.922C215.996 123.072 225.252 119.68 225.252 119.68C218.556 114.37 206.611 118.922 206.611 118.922Z" fill="#E0E0E0"/>
<path d="M221.368 104.119C221.239 103.979 215.642 108.86 208.865 115.019C202.088 121.184 196.696 126.29 196.825 126.43C196.953 126.57 202.55 121.689 209.327 115.53C216.104 109.37 221.496 104.259 221.368 104.119Z" fill="#E0E0E0"/>
<path d="M239.553 91.5643C239.553 91.5643 223.788 93.4187 218.83 106.732C218.83 106.732 232.304 105.335 239.553 91.5643Z" fill="#E0E0E0"/>
<path d="M217.214 88.1888C217.214 88.1888 205.661 99.0944 209.6 112.741C209.6 112.741 219.586 103.572 217.214 88.1888Z" fill="#E0E0E0"/>
<path d="M17.2374 131.606C14.6028 142.356 19.8935 150.988 19.8935 150.988C24.2452 142.7 17.2374 131.606 17.2374 131.606Z" fill="#E0E0E0"/>
<path d="M15.7246 162.367C22.5016 162.588 27.3362 158.175 27.3362 158.175C21.9167 156.568 15.7246 162.367 15.7246 162.367Z" fill="#E0E0E0"/>
<path d="M26.7022 155.573C28.5212 147.618 24.4861 140.894 24.4861 140.894C21.3579 146.925 26.7022 155.573 26.7022 155.573Z" fill="#E0E0E0"/>
<path d="M12.9603 146.274C12.8691 146.398 17.5105 150.036 23.327 154.401C29.1436 158.77 33.9352 162.21 34.0211 162.087C34.1123 161.963 29.4709 158.33 23.6544 153.96C17.8378 149.596 13.0515 146.15 12.9603 146.274Z" fill="#E0E0E0"/>
<path d="M0.447266 133.961C0.447266 133.961 4.26235 145.995 15.3749 147.866C15.3749 147.866 12.2574 137.551 0.447266 133.961Z" fill="#E0E0E0"/>
<path d="M1.17773 151.918C1.17773 151.918 11.405 159.303 21.4336 154.17C21.4336 154.17 12.7947 147.747 1.17773 151.918Z" fill="#E0E0E0"/>
<path d="M230.071 223.36C230.071 223.435 181.312 223.5 121.178 223.5C61.0432 223.5 12.2734 223.435 12.2734 223.36C12.2734 223.285 61.0218 223.22 121.178 223.22C181.334 223.22 230.071 223.285 230.071 223.36Z" fill="#383E41"/>
<path d="M204.004 84.1899C185.567 85.0714 174.283 97.6539 174.283 97.6539C189.603 100.696 204.004 84.1899 204.004 84.1899Z" fill="#6ECF8B"/>
<path d="M154.119 96.3796C156.99 107.355 166.342 113.015 166.342 113.015C166.337 103.56 154.119 96.3796 154.119 96.3796Z" fill="#6ECF8B"/>
<path d="M170.193 110.758C183.774 109.898 192.601 100.234 192.601 100.234C181.478 98.0783 170.193 110.758 170.193 110.758Z" fill="#6ECF8B"/>
<path d="M178.533 84.2966C178.297 84.2106 174.685 93.3801 170.468 104.785C166.25 116.191 163.02 125.505 163.256 125.591C163.492 125.677 167.104 116.508 171.321 105.103C175.539 93.7026 178.769 84.3826 178.527 84.2966H178.533Z" fill="#6ECF8B"/>
<path d="M192.274 58.3795C192.274 58.3795 174.846 70.2203 177.137 88.9248C177.137 88.9248 192.145 79.0297 192.274 58.3795Z" fill="#6ECF8B"/>
<path d="M163.916 68.086C163.916 68.086 156.967 87.9998 169.936 101.652C169.936 101.652 176.096 84.7426 163.916 68.086Z" fill="#6ECF8B"/>
<path d="M20.1719 131.419C33.4737 127.496 44.5755 133.644 44.5755 133.644C34.4503 139.584 20.1719 131.419 20.1719 131.419Z" fill="#6ECF8B"/>
<path d="M58.5741 127.763C59.2341 136.261 53.9917 142.587 53.9917 142.587C51.6737 135.874 58.5741 127.763 58.5741 127.763Z" fill="#6ECF8B"/>
<path d="M50.7034 141.931C40.8518 144.667 32.2129 139.985 32.2129 139.985C39.5801 135.712 50.7034 141.931 50.7034 141.931Z" fill="#6ECF8B"/>
<path d="M38.2807 125.21C38.4256 125.092 43.2441 130.709 49.0445 137.76C54.8449 144.818 59.422 150.628 59.2771 150.751C59.1322 150.87 54.3137 145.253 48.5133 138.196C42.7182 131.144 38.1358 125.328 38.2807 125.205V125.21Z" fill="#6ECF8B"/>
<path d="M22.1523 110.204C22.1523 110.204 37.4288 114.31 40.4068 128.151C40.4068 128.151 27.3196 124.829 22.1523 110.204Z" fill="#6ECF8B"/>
<path d="M44.6669 110.096C44.6669 110.096 54.4917 122.518 48.643 135.401C48.643 135.401 40.1114 124.92 44.6669 110.096Z" fill="#6ECF8B"/>
<path d="M152.612 41.8737L154.962 34.9509C153.025 31.2261 152.059 26.9316 152.381 22.4329C153.31 9.49565 164.535 -0.238186 177.45 0.691662C190.366 1.62151 200.083 12.8657 199.155 25.8029C198.227 38.7402 187.001 48.474 174.086 47.5441C168.693 47.1572 163.859 44.9642 160.124 41.6049V41.6157L152.612 41.8683V41.8737Z" fill="white"/>
<path d="M152.611 41.8736C152.611 41.8736 152.767 41.8736 153.083 41.8682C153.411 41.8575 153.888 41.8467 154.511 41.836C155.793 41.8037 157.677 41.75 160.129 41.6855H160.236L160.177 41.5941V41.5834L160.08 41.6586C162.318 43.6795 165.698 45.9477 170.275 47.0549C171.413 47.3344 172.62 47.5279 173.876 47.6301C175.137 47.6677 176.446 47.759 177.788 47.6032C180.47 47.3828 183.293 46.6787 186.003 45.3672C188.712 44.0612 191.304 42.1531 193.466 39.6807C195.634 37.219 197.367 34.1876 198.376 30.8122C199.406 27.4421 199.61 23.7228 198.982 20.0625C198.349 16.4076 196.852 12.7957 194.464 9.74817C194.164 9.36656 193.869 8.97957 193.563 8.6087C193.23 8.25934 192.898 7.90998 192.565 7.56061L192.066 7.03925L191.524 6.56627C191.165 6.25452 190.8 5.93741 190.44 5.62567C190.07 5.32468 189.667 5.06668 189.286 4.78719C188.895 4.51845 188.53 4.21746 188.106 3.99709C187.285 3.53486 186.491 3.02425 185.622 2.68026C182.23 1.12155 178.566 0.412073 175.035 0.50882C171.499 0.632441 168.118 1.55154 165.178 3.04574C162.232 4.53458 159.732 6.58239 157.789 8.89357C155.836 11.2048 154.446 13.7739 153.556 16.3216C153.078 17.5901 152.826 18.88 152.558 20.1162C152.413 21.374 152.22 22.5833 152.225 23.7604C152.16 28.4795 153.507 32.3279 154.902 34.9777V34.9293C154.146 37.1867 153.572 38.9282 153.18 40.1106C152.992 40.6858 152.847 41.1265 152.745 41.4329C152.649 41.7285 152.606 41.8736 152.606 41.8736C152.606 41.8736 152.665 41.7177 152.772 41.4167C152.88 41.1104 153.035 40.6696 153.239 40.0891C153.647 38.9228 154.242 37.2029 155.015 34.9723L155.026 34.9508L155.015 34.9293C153.647 32.2795 152.338 28.4526 152.418 23.7711C152.418 22.6048 152.611 21.4062 152.761 20.1592C153.03 18.9338 153.282 17.6546 153.76 16.3968C154.65 13.8707 156.035 11.3337 157.972 9.04944C159.903 6.77051 162.382 4.74957 165.296 3.27686C168.204 1.80416 171.547 0.895809 175.04 0.782937C178.533 0.691565 182.155 1.39029 185.504 2.93825C186.362 3.28224 187.146 3.78747 187.956 4.24433C188.369 4.45933 188.734 4.76032 189.12 5.02369C189.496 5.30318 189.893 5.5558 190.258 5.85141C190.612 6.15778 190.971 6.46952 191.325 6.78126L191.862 7.24887L192.356 7.76485C192.683 8.10884 193.01 8.45283 193.343 8.8022C193.649 9.17306 193.939 9.55468 194.234 9.93092C196.595 12.9408 198.076 16.5097 198.703 20.1216C199.326 23.7335 199.127 27.4153 198.113 30.7423C197.121 34.0801 195.414 37.0792 193.273 39.5194C191.138 41.965 188.573 43.8623 185.895 45.1576C183.212 46.4637 180.422 47.1678 177.766 47.3936C176.435 47.5548 175.137 47.4688 173.892 47.4366C172.647 47.3398 171.451 47.1517 170.318 46.8776C165.774 45.7972 162.398 43.5613 160.161 41.5726L159.834 41.2824L160.07 41.6532V41.664L160.123 41.5726C157.693 41.6693 155.82 41.7446 154.548 41.7983C153.915 41.8252 153.438 41.8467 153.105 41.8628C152.778 41.879 152.606 41.8897 152.606 41.8897L152.611 41.8736Z" fill="#383E41"/>
<path d="M187.639 21.2343C187.5 19.6809 186.786 18.219 185.777 17.0311C184.79 15.8702 183.486 14.9403 182.005 14.5802C180.433 14.1986 178.705 14.4942 177.353 15.3811C176.548 15.9078 175.877 16.6388 175.411 17.4772C174.987 16.7086 174.402 16.0368 173.694 15.5208C172.384 14.5695 170.673 14.1932 169.084 14.4996C167.587 14.7898 166.246 15.6552 165.2 16.7678C164.137 17.9019 163.354 19.3369 163.139 20.8795C162.871 22.8091 163.198 24.9429 164.159 26.636C165.178 28.4258 166.852 29.8931 168.591 30.995C171.51 32.8493 175.357 35.182 175.357 35.182C175.357 35.182 178.711 32.7902 181.715 31.0756C183.502 30.0544 185.246 28.6677 186.346 26.9316C187.387 25.2815 187.811 23.1746 187.639 21.2289V21.2343Z" fill="#C997CD"/>
<path d="M147.427 103.055C147.427 103.055 158.669 102.63 164.179 116.863C169.695 131.095 175.206 160.84 175.206 160.84L209.842 139.566L221.1 152.713C221.1 152.713 169.695 191.428 164.818 193.556C159.94 195.679 154.424 190.584 152.09 187.606C149.756 184.634 147.422 103.055 147.422 103.055H147.427Z" fill="#AE7461"/>
<path d="M30.0724 174.175L58.2644 180.877C58.2644 180.877 64.4136 132.482 68.8833 124.925C74.8125 114.906 83.9397 112.606 83.9397 112.606L91.7845 137.034C91.7845 137.034 83.0866 204.376 77.9998 208.203C72.913 212.03 26.2734 189.815 26.2734 189.815L30.0671 174.18L30.0724 174.175Z" fill="#AE7461"/>
<path d="M174.192 223.36C174.192 223.36 162.393 185.832 162.393 177.045C162.393 174.282 164.947 159.162 164.947 147.44C164.947 138.104 160.042 125.855 157.306 119.55C156.41 117.486 147.406 103.081 147.406 103.081L130.557 100.835L102.494 102.936L79.1797 114.498L87.325 166.542L95.2395 199.667L85.0123 223.36H174.192Z" fill="#C997CD"/>
<path d="M131.984 183.189C138.853 176.438 146.172 170.145 153.871 164.367L131.984 183.189Z" fill="#383E41"/>
<path d="M59.0312 161.995L89.7236 167.972C89.7236 167.972 80.4247 113.88 80.2154 113.982C80.0062 114.084 68.5877 118.212 65.4702 132.756C62.3205 147.446 59.0366 161.995 59.0366 161.995H59.0312Z" fill="#C997CD"/>
<path d="M144.729 102.722C144.729 102.722 156.458 102.33 161.529 111.639C166.6 120.948 175.78 146.618 175.78 146.618L160.434 152.66L144.729 102.722Z" fill="#C997CD"/>
<path d="M156.26 125.731C156.26 125.731 156.34 125.79 156.48 125.924C156.635 126.08 156.829 126.274 157.07 126.51C157.328 126.763 157.633 127.085 157.961 127.478C158.288 127.87 158.685 128.3 159.061 128.827C159.254 129.085 159.458 129.359 159.667 129.639C159.876 129.923 160.064 130.235 160.279 130.552C160.713 131.176 161.1 131.891 161.529 132.632C162.334 134.143 163.101 135.863 163.724 137.738C164.325 139.62 164.716 141.469 164.958 143.162C165.049 144.011 165.156 144.817 165.172 145.58C165.188 145.962 165.221 146.327 165.215 146.682C165.215 147.037 165.205 147.37 165.205 147.698C165.21 148.343 165.146 148.929 165.108 149.439C165.076 149.95 165.017 150.391 164.963 150.746C164.909 151.079 164.867 151.347 164.834 151.568C164.802 151.756 164.781 151.853 164.77 151.853C164.759 151.853 164.765 151.751 164.781 151.562C164.802 151.342 164.829 151.068 164.856 150.735C164.899 150.38 164.942 149.939 164.958 149.429C164.979 148.918 165.033 148.338 165.011 147.698C165.011 147.375 165.011 147.042 165.006 146.687C165.006 146.338 164.963 145.973 164.947 145.596C164.92 144.844 164.807 144.043 164.706 143.199C164.453 141.522 164.062 139.695 163.461 137.83C162.844 135.97 162.087 134.261 161.304 132.756C160.89 132.014 160.509 131.305 160.086 130.676C159.882 130.359 159.694 130.047 159.49 129.757C159.286 129.472 159.088 129.198 158.9 128.94C158.54 128.408 158.154 127.972 157.837 127.569C157.526 127.166 157.231 126.838 156.99 126.575C156.77 126.322 156.587 126.118 156.442 125.951C156.319 125.806 156.26 125.726 156.265 125.72L156.26 125.731Z" fill="#383E41"/>
<path d="M81.0839 141.996C81.0839 141.996 81.1375 142.088 81.2073 142.265C81.2878 142.475 81.3897 142.738 81.5131 143.061C81.7761 143.754 82.1356 144.759 82.5648 146.006C83.4234 148.505 84.5394 151.983 85.6233 155.863C86.7072 159.75 87.5658 163.302 88.1292 165.882C88.4136 167.172 88.6282 168.22 88.7623 168.946C88.8214 169.284 88.875 169.559 88.9126 169.784C88.9448 169.978 88.9555 170.08 88.9448 170.08C88.934 170.08 88.9072 169.983 88.8535 169.795C88.7999 169.575 88.7355 169.301 88.6497 168.967C88.4726 168.21 88.2257 167.178 87.9306 165.925C87.3189 163.356 86.4336 159.819 85.3497 155.939C84.2604 152.058 83.1819 148.581 82.3717 146.065C81.9746 144.84 81.6473 143.829 81.4058 143.093C81.3039 142.765 81.218 142.496 81.1483 142.281C81.0946 142.093 81.0678 141.996 81.0785 141.991L81.0839 141.996Z" fill="#383E41"/>
<path d="M95.2923 70.8227C90.3665 61.7769 89.3094 50.5757 92.4484 40.7182L79.8656 39.267C71.2374 39.7884 63.7199 46.4962 60.2482 54.6713C56.7765 62.8465 56.8356 72.2202 58.499 80.9812C59.1268 84.2867 59.9048 87.9846 58.1287 90.8117C56.6263 93.2035 53.6858 94.2409 52.0171 96.5145C49.5381 99.8899 50.8634 105.189 54.1419 107.732C57.4204 110.274 61.9975 110.419 65.8984 109.129C69.8047 107.839 73.1905 105.302 76.4798 102.771C77.9071 105.157 81.1534 105.953 83.6861 104.942C86.2187 103.937 88.0162 101.459 88.8104 98.7773C89.6045 96.0952 89.5079 93.2197 89.1484 90.4409C93.9401 91.8975 99.5205 87.8717 99.8586 82.728C100.143 78.3959 97.342 74.6066 95.2869 70.8227H95.2923Z" fill="#383E41"/>
<path d="M74.1516 61.1577C73.7546 58.5079 73.3629 55.8098 73.7868 53.1653C74.2107 50.5209 75.5897 47.8926 77.9453 46.6242C79.056 46.0276 80.4726 45.7803 81.5457 46.4414C82.6189 47.1025 82.9247 48.8977 81.8838 49.6126L81.8194 49.9566C81.2023 53.6437 80.5155 57.3147 79.7589 60.9696C79.5657 61.8887 79.3618 62.8347 78.836 63.614C78.3101 64.3934 77.3872 64.9792 76.4589 64.8287C74.9297 64.5761 74.3716 62.6896 74.1409 61.1524L74.1516 61.1577Z" fill="#465159"/>
<path d="M81.0838 42.5241C85.6823 33.8062 94.4607 26.8887 105.192 24.7119C111.164 23.4972 113.874 24.3679 118.403 24.7764C122.926 25.1849 127.235 26.8189 130.455 30.033C134.28 33.8492 137.704 38.2673 139.212 43.4594C140.757 48.7912 141.76 54.1553 141.385 59.6968C140.913 66.6411 137.57 71.2258 135.144 76.219L127.031 80.8038C119.428 82.4108 111.712 84.0233 103.953 83.5879C96.1939 83.1526 88.2471 80.406 83.1067 74.5636C75.9702 66.4476 76.0453 52.086 81.0945 42.5241H81.0838Z" fill="#383E41"/>
<path d="M93.3994 40.2669L110.581 29.6678L115.507 29.3829C126.367 27.5124 135.956 38.1922 137.571 46.9855C139.363 56.757 141.171 68.759 140.881 76.2407C140.302 91.2903 128.154 94.6711 128.154 94.6711C128.154 94.6711 128.663 96.9715 129.613 101.825C127.569 109.844 115.126 111.86 103.031 105.222L102.559 104.701L89.3965 46.0879C89.0209 43.3951 90.7648 40.8689 93.4101 40.2616L93.3994 40.2669Z" fill="#AE7461"/>
<path d="M133.255 59.9596C133.411 60.954 132.697 61.9107 131.661 62.088C130.626 62.2708 129.665 61.6097 129.51 60.6153C129.354 59.621 130.068 58.6643 131.103 58.4869C132.139 58.3042 133.105 58.9653 133.26 59.9596H133.255Z" fill="#383E41"/>
<path d="M135.112 52.4562C134.908 52.7303 133.347 51.8435 131.313 52.0907C129.28 52.3111 127.911 53.5366 127.659 53.3162C127.536 53.2194 127.723 52.7465 128.319 52.1928C128.904 51.6446 129.939 51.0534 131.206 50.9083C132.472 50.7631 133.599 51.1018 134.264 51.5102C134.946 51.9187 135.214 52.338 135.112 52.4616V52.4562Z" fill="#383E41"/>
<path d="M124.934 70.5704C124.913 70.4576 126.152 70.0867 128.17 69.5761C128.685 69.4578 129.162 69.2966 129.205 68.9311C129.28 68.5387 128.996 68.0066 128.674 67.4315C128.035 66.2276 127.365 64.9698 126.662 63.653C123.856 58.2674 121.758 53.8117 121.972 53.6988C122.192 53.5859 124.644 57.8643 127.451 63.2499C128.132 64.5829 128.781 65.8459 129.398 67.0607C129.667 67.6304 130.085 68.2592 129.914 69.0709C129.822 69.4793 129.474 69.8018 129.152 69.9362C128.83 70.0759 128.54 70.1189 128.282 70.1619C126.233 70.5221 124.956 70.6833 124.934 70.5651V70.5704Z" fill="#383E41"/>
<path d="M128.168 94.6494C128.168 94.6494 118.322 96.4769 107.789 91.7363C107.789 91.7363 114.271 101.346 128.866 98.1968L128.168 94.6494Z" fill="#6F4439"/>
<path d="M133.192 45.5066C132.908 46.0441 131.314 45.899 129.511 46.2699C127.698 46.5816 126.259 47.3018 125.803 46.8987C125.599 46.6998 125.739 46.1946 126.313 45.6141C126.877 45.039 127.896 44.4532 129.141 44.2167C130.386 43.9855 131.545 44.1629 132.269 44.4908C133.004 44.8186 133.316 45.2433 133.197 45.5013L133.192 45.5066Z" fill="#383E41"/>
<path d="M110.967 63.1952C111.09 64.1949 112.035 64.9205 113.081 64.8077C114.122 64.7002 114.873 63.8026 114.755 62.8029C114.632 61.8031 113.687 61.0775 112.646 61.185C111.6 61.2925 110.849 62.1901 110.972 63.1898L110.967 63.1952Z" fill="#383E41"/>
<path d="M107.698 56.4718C107.972 56.6814 109.228 55.3968 111.256 55.085C113.273 54.7411 114.926 55.5527 115.103 55.2678C115.194 55.1388 114.889 54.7357 114.164 54.3648C113.456 53.994 112.297 53.7091 111.036 53.9133C109.775 54.1176 108.788 54.7518 108.251 55.3215C107.704 55.8967 107.564 56.375 107.693 56.4664L107.698 56.4718Z" fill="#383E41"/>
<path d="M107.78 49.7907C108.252 50.1884 109.738 49.4628 111.611 49.1457C113.473 48.7695 115.126 48.9092 115.421 48.3664C115.544 48.1084 115.222 47.6838 114.46 47.3613C113.709 47.0334 112.507 46.8614 111.219 47.0979C109.937 47.3398 108.88 47.931 108.306 48.5061C107.716 49.0866 107.571 49.5918 107.785 49.7907H107.78Z" fill="#383E41"/>
<path d="M96.1991 70.2363C96.065 69.1345 94.4874 66.6943 93.3821 66.6567C90.4309 66.5492 85.2422 67.4092 86.0685 74.7834C87.2007 84.8613 97.0738 81.6417 97.0577 81.3515C97.0469 81.1257 96.6606 74.0363 96.1991 70.2417V70.2363Z" fill="#AE7461"/>
<path d="M93.871 77.9808C93.8227 77.954 93.71 78.126 93.431 78.2926C93.1573 78.4592 92.669 78.6043 92.1217 78.4699C91.0164 78.2012 89.9271 76.6103 89.6749 74.7989C89.5461 73.8852 89.6374 72.9876 89.8842 72.2298C90.1095 71.4558 90.5281 70.8914 91.0539 70.7355C91.5744 70.5528 91.9876 70.8323 92.1432 71.101C92.3095 71.3698 92.2666 71.5794 92.3256 71.5902C92.3578 71.6117 92.5242 71.3967 92.3954 70.9882C92.331 70.7947 92.1861 70.5689 91.9286 70.4023C91.6656 70.2357 91.3008 70.1712 90.9305 70.2572C90.1578 70.3969 89.5408 71.1924 89.2779 72.0255C88.9666 72.8694 88.8432 73.8745 88.9881 74.901C89.2832 76.9274 90.5335 78.7064 92.0359 78.9644C92.7656 79.0666 93.329 78.7871 93.6081 78.5183C93.8924 78.2335 93.9193 78.0023 93.8817 77.9862L93.871 77.9808Z" fill="#6F4439"/>
<path d="M92.9808 66.7594L95.9696 68.9416C106.991 58.9766 122.675 27.6628 120.888 28.3508C120.888 28.3508 112.867 26.5825 104.99 29.3989C97.1125 32.2099 82.4209 38.993 84.3365 48.5441C86.2521 58.0952 92.9808 66.7594 92.9808 66.7594Z" fill="#383E41"/>
<path d="M118.708 73.8641C118.413 73.7459 118.097 73.6276 117.791 73.6975C117.506 73.762 117.281 73.977 117.104 74.2081C116.256 75.2938 116.149 76.9063 116.841 78.0995C117.533 79.2927 118.987 79.9861 120.35 79.7818C121.713 79.5776 123.216 78.5564 123.666 75.9657C122.116 75.3476 120.259 74.4822 118.708 73.8641Z" fill="#6F4439"/>
<path d="M120.363 79.8787C120.373 79.7819 119.44 79.9915 118.265 79.3143C117.696 78.9811 117.1 78.4006 116.821 77.5782C116.537 76.7666 116.574 75.7347 117.052 74.8639C117.293 74.4447 117.621 74.0147 117.98 74.0255C118.356 74.0201 118.833 74.2835 119.257 74.4393C120.067 74.7618 120.829 75.0682 121.538 75.3477C122.842 75.8529 123.663 76.1324 123.684 76.0679C123.711 76.0034 122.938 75.6057 121.666 75.0198C120.974 74.7081 120.223 74.3695 119.424 74.0093C118.989 73.8481 118.608 73.5632 117.964 73.531C117.631 73.531 117.326 73.7191 117.127 73.9287C116.918 74.1383 116.768 74.3694 116.617 74.6221C116.065 75.6379 116.043 76.815 116.392 77.7341C116.741 78.6747 117.449 79.3036 118.098 79.626C119.45 80.2871 120.406 79.9109 120.368 79.884L120.363 79.8787Z" fill="#383E41"/>
<g opacity="0.3">
<path d="M110.629 71.0108C112.914 71.0108 114.766 70.0843 114.766 68.9415C114.766 67.7986 112.914 66.8722 110.629 66.8722C108.344 66.8722 106.492 67.7986 106.492 68.9415C106.492 70.0843 108.344 71.0108 110.629 71.0108Z" fill="#6F4439"/>
</g>
<g opacity="0.3">
<path d="M139.535 67.431C139.535 68.5758 138.059 69.5003 136.24 69.5003C134.421 69.5003 132.945 68.5704 132.945 67.431C132.945 66.2915 134.421 65.3617 136.24 65.3617C138.059 65.3617 139.535 66.2915 139.535 67.431Z" fill="#6F4439"/>
</g>
<path d="M86.7403 77.595C86.7403 77.595 86.5954 77.5251 86.3271 77.3693C86.1876 77.2886 86.0266 77.1919 85.8335 77.079C85.7369 77.0199 85.6295 76.9554 85.5222 76.8909C85.4149 76.8103 85.3076 76.7297 85.1895 76.6437C84.2183 75.9879 82.9413 74.8216 81.6857 73.1339C80.4193 71.4516 79.2925 69.1726 78.4716 66.5121C78.0906 65.1737 77.7633 63.7494 77.5701 62.2445C77.3823 60.7395 77.3018 59.1701 77.3608 57.5684C77.5916 51.1454 79.3569 45.4588 81.3959 41.7878C82.394 39.9389 83.3866 38.5522 84.1379 37.6492C84.4974 37.187 84.8247 36.8645 85.0232 36.6333C85.2325 36.4076 85.3452 36.2894 85.3505 36.2947C85.3559 36.3001 85.2593 36.4291 85.0661 36.671C84.8783 36.9182 84.5671 37.2461 84.2237 37.7191C83.5047 38.6382 82.5442 40.0356 81.573 41.8846C79.593 45.5556 77.876 51.1992 77.6452 57.5845C77.5916 59.1754 77.6667 60.7288 77.8491 62.2176C78.0369 63.7064 78.3535 65.12 78.7238 66.4476C79.5179 69.0813 80.6179 71.3441 81.8467 73.0264C83.0701 74.7141 84.3096 75.8858 85.2539 76.563C85.3666 76.6544 85.4739 76.7404 85.5759 76.821C85.6832 76.8909 85.7852 76.9554 85.8817 77.0199C86.0642 77.1381 86.2198 77.2456 86.3593 77.3316C86.6169 77.5036 86.7456 77.595 86.7456 77.6058L86.7403 77.595Z" fill="#465159"/>
<path d="M213.911 109.942L16.9336 145.977L30.1195 218.298L227.097 182.263L213.911 109.942Z" fill="#465159"/>
<path d="M213.909 106.495L16.9316 142.53L30.1176 214.851L227.095 178.816L213.909 106.495Z" fill="white"/>
<path d="M213.909 106.501C214.043 107.221 218.91 133.735 227.184 178.803L227.2 178.894L227.109 178.911C178.538 187.806 108.224 200.684 30.1518 214.981H30.1411L30.0016 215.008L29.9748 214.868C25.3763 189.639 20.928 165.221 16.7964 142.55L16.7695 142.415L16.9037 142.394C130.739 121.652 212.643 106.726 213.904 106.495C212.643 106.726 130.755 121.76 16.952 142.657L17.0593 142.501C21.1963 165.178 25.6499 189.59 30.2484 214.82L30.0875 214.707H30.0982C108.176 200.442 178.495 187.596 227.071 178.722L226.996 178.835C218.835 133.746 214.038 107.221 213.904 106.501H213.909Z" fill="#383E41"/>
<path d="M36.3281 160.712L52.447 157.594L53.3645 162.34L47.9129 163.394L53.4021 191.886L48.1865 192.896L42.6973 164.404L37.2457 165.458L36.3281 160.706V160.712Z" fill="#383E41"/>
<path d="M66.3396 189.392L61.1241 190.402L54.7227 157.164L59.9382 156.154L62.6801 170.397L68.604 169.252L65.8621 155.004L71.1742 153.977L77.5756 187.215L72.2635 188.242L69.5215 173.993L63.5977 175.138L66.3396 189.381V189.392Z" fill="#383E41"/>
<path d="M98.2441 183.221L92.9803 184.237L90.9198 178.378L84.5184 179.615L84.7813 185.817L79.995 186.742L78.9004 152.477L86.5306 150.999L98.2441 183.21V183.221ZM84.3145 174.981L89.3422 174.009L83.5901 157.685L84.3145 174.981Z" fill="#383E41"/>
<path d="M100.669 157.782L105.305 181.856L100.61 182.764L94.209 149.526L100.75 148.263L109.942 167.123L106.11 147.226L110.757 146.328L117.159 179.566L111.803 180.603L100.669 157.782Z" fill="#383E41"/>
<path d="M125.18 164.274L124.156 167.623L126.125 177.835L120.909 178.845L114.508 145.607L119.723 144.597L122.514 159.082L126.549 143.28L131.764 142.27L127.364 158.486L138.166 175.508L132.811 176.545L125.186 164.274H125.18Z" fill="#383E41"/>
<path d="M150.637 161.668L139.766 140.717L145.217 139.664L152.118 154.041L153.18 138.121L158.16 137.159L155.852 160.658L157.977 171.676L152.762 172.687L150.637 161.668Z" fill="#383E41"/>
<path d="M160.649 144.957C159.624 139.636 161.835 136.057 166.954 135.068C172.073 134.079 175.459 136.578 176.484 141.894L179.816 159.179C180.841 164.5 178.63 168.08 173.511 169.069C168.392 170.058 165.006 167.559 163.981 162.243L160.649 144.957ZM169.256 161.566C169.712 163.941 170.93 164.64 172.588 164.318C174.246 163.995 175.115 162.893 174.659 160.518L171.198 142.566C170.742 140.19 169.524 139.491 167.866 139.814C166.208 140.136 165.339 141.238 165.795 143.614L169.25 161.566H169.256Z" fill="#383E41"/>
<path d="M183.286 132.305L188.228 157.948C188.684 160.324 189.891 160.974 191.549 160.657C193.207 160.334 194.087 159.281 193.631 156.905L188.689 131.262L193.62 130.31L198.498 155.621C199.523 160.936 197.452 164.489 192.333 165.478C187.214 166.467 183.973 163.941 182.948 158.625L178.07 133.315L183.286 132.305Z" fill="#383E41"/>
<path d="M202.83 155.369L199.852 143.485L197.18 129.618L202.395 128.608L205.067 142.475L206.72 154.617L202.835 155.369H202.83ZM207.734 156.837L208.705 161.873L203.678 162.846L202.706 157.809L207.734 156.837Z" fill="#383E41"/>
<path d="M32.5182 174.149C32.4699 173.38 31.9226 172.697 31.2358 172.343C30.549 171.988 29.7548 171.913 28.9821 171.966C29.8568 171.735 30.3182 170.644 30.0499 169.779C29.7817 168.914 28.95 168.312 28.07 168.091C27.19 167.876 26.2617 167.989 25.3763 168.172C24.491 168.355 22.8222 168.682 21.9154 168.731L16.3135 170.128C13.8935 171.424 15.6106 174.509 17.2418 174.681C16.5442 175.197 16.0559 175.245 15.734 176.057C15.4174 176.868 15.4281 177.836 15.9057 178.561C16.3832 179.287 17.3652 179.69 18.1754 179.373C17.3115 180.4 17.1881 181.98 17.8749 183.13C18.2881 183.823 18.9803 184.329 19.7476 184.56C20.1339 184.678 20.531 184.721 20.9334 184.694C21.0783 184.683 21.25 184.694 21.3842 184.63C21.4486 184.597 21.5022 184.554 21.5505 184.501C21.7759 184.264 21.9583 183.995 22.1998 183.775C22.291 183.689 22.3876 183.608 22.4842 183.533C22.9295 183.184 23.4285 182.91 23.9544 182.695C24.1959 182.598 24.4802 182.544 24.7002 182.41C24.8505 182.318 24.9471 182.168 25.0758 182.055C25.9129 181.335 27.088 181.055 28.1183 180.749C29.2826 180.41 30.4953 179.991 31.2841 179.072C32.0675 178.148 32.1963 176.557 31.2304 175.82C31.9977 175.729 32.5558 174.923 32.5075 174.154L32.5182 174.149Z" fill="#AE7461"/>
<path d="M21.2555 187.903C21.4648 188.623 21.8619 189.349 22.5487 189.65C23.3589 190.004 24.6413 189.714 25.4623 189.37C25.3282 188.322 25.194 187.801 25.0599 186.753C25.033 186.532 24.9204 186.376 24.9901 186.161C25.1618 185.602 26.2725 185.318 26.7394 184.963C27.5496 184.345 27.6086 183.028 26.9808 182.232C26.3477 181.437 25.194 181.168 24.2174 181.437C23.2355 181.706 22.436 182.442 21.8994 183.307C21.0623 184.656 20.8263 186.366 21.2662 187.897L21.2555 187.903Z" fill="#AE7461"/>
<path d="M17.8971 179.447C17.8488 179.259 20.7892 178.297 24.4755 177.292C28.1619 176.287 31.1882 175.631 31.2365 175.819C31.2848 176.007 28.3443 176.969 24.658 177.974C20.977 178.974 17.9454 179.635 17.8971 179.447Z" fill="#6F4439"/>
<path d="M17.0422 174.713C16.9778 174.541 19.5802 173.418 22.9714 172.628C26.3626 171.827 29.1904 171.671 29.2065 171.854C29.2279 172.053 26.4753 172.52 23.1324 173.31C19.7895 174.09 17.1119 174.901 17.0422 174.708V174.713Z" fill="#6F4439"/>
<path d="M21.2555 186.328C21.1804 186.36 20.9175 185.914 21.0034 185.13C21.0731 184.361 21.6097 183.329 22.5272 182.625C23.4555 181.921 24.3194 181.507 25.0867 181.287C25.9292 181.098 26.3584 181.614 26.2565 181.663C26.1975 181.738 25.8111 181.512 25.2262 181.765C24.6628 182.039 23.7614 182.555 22.9672 183.173C22.1516 183.807 21.6741 184.597 21.4863 185.232C21.2931 185.861 21.3575 186.301 21.2502 186.328H21.2555Z" fill="#6F4439"/>
<path d="M209.956 140.582C209.693 139.856 209.923 139.013 210.412 138.416C210.9 137.814 211.603 137.432 212.327 137.169C211.431 137.309 210.578 136.492 210.482 135.589C210.385 134.686 210.905 133.799 211.63 133.251C212.349 132.703 213.245 132.439 214.13 132.246C215.016 132.058 216.674 131.692 217.527 131.375L223.22 130.424C225.951 130.649 225.608 134.164 224.175 134.971C225.023 135.164 225.49 135.019 226.101 135.632C226.718 136.245 227.089 137.142 226.938 137.997C226.788 138.851 226.048 139.615 225.178 139.647C226.375 140.243 227.121 141.646 226.949 142.974C226.842 143.775 226.413 144.511 225.801 145.032C225.495 145.296 225.141 145.489 224.765 145.629C224.631 145.677 224.476 145.753 224.325 145.753C224.256 145.753 224.186 145.726 224.121 145.699C223.821 145.575 223.547 145.398 223.236 145.29C223.118 145.247 223 145.215 222.882 145.183C222.335 145.038 221.766 144.989 221.202 145C220.945 145.006 220.66 145.07 220.403 145.038C220.231 145.016 220.081 144.914 219.915 144.86C218.863 144.533 217.672 144.742 216.609 144.877C215.407 145.027 214.125 145.135 213.036 144.597C211.946 144.065 211.201 142.651 211.796 141.593C211.056 141.813 210.224 141.297 209.961 140.571L209.956 140.582Z" fill="#AE7461"/>
<path d="M225.747 148.698C225.844 149.44 225.763 150.268 225.259 150.816C224.658 151.466 223.365 151.708 222.48 151.724C222.19 150.709 222.099 150.182 221.809 149.166C221.75 148.951 221.787 148.763 221.642 148.596C221.262 148.15 220.129 148.338 219.561 148.193C218.573 147.951 217.994 146.769 218.257 145.785C218.52 144.802 219.469 144.098 220.478 143.952C221.482 143.807 222.512 144.162 223.349 144.742C224.653 145.645 225.549 147.124 225.758 148.698H225.747Z" fill="#AE7461"/>
<path d="M225.473 139.61C225.446 139.417 222.36 139.707 218.583 140.261C214.805 140.809 211.763 141.411 211.795 141.604C211.822 141.798 214.907 141.508 218.685 140.954C222.462 140.406 225.499 139.804 225.473 139.61Z" fill="#6F4439"/>
<path d="M224.372 134.922C224.361 134.734 221.528 134.75 218.105 135.374C214.676 135.992 212.02 136.976 212.079 137.153C212.138 137.347 214.848 136.675 218.234 136.067C221.614 135.449 224.388 135.121 224.372 134.922Z" fill="#6F4439"/>
<path d="M225.128 147.258C225.214 147.258 225.273 146.742 224.881 146.06C224.511 145.382 223.61 144.651 222.488 144.367C221.356 144.092 220.401 144.055 219.607 144.162C218.759 144.329 218.571 144.974 218.684 144.974C218.764 145.022 219.033 144.657 219.671 144.657C220.294 144.684 221.329 144.802 222.306 145.049C223.304 145.307 224.055 145.839 224.479 146.344C224.908 146.844 225.026 147.274 225.134 147.258H225.128Z" fill="#6F4439"/>
</svg>
