<svg width="272" height="356" viewBox="0 0 272 356" fill="none" xmlns="http://www.w3.org/2000/svg">
<g opacity="0.2">
<path d="M135.411 153.189C134.204 150.381 134.114 147.566 134.114 144.686L134.01 135.858C133.932 131.278 133.939 126.621 133.945 122.12V118.228C133.997 107.675 134.153 96.9398 134.308 86.5617L134.36 82.9229C134.429 78.7716 134.499 74.6182 134.568 70.4626C134.684 62.9709 134.808 55.2263 134.983 47.6113L135.392 29.9556C135.456 27.9578 135.515 25.9557 135.567 23.9492C135.625 22.0033 135.683 20.0574 135.742 18.0597C135.8 20.038 135.859 22.0098 135.917 23.9492C135.975 25.8886 136.027 27.9578 136.092 29.9621L136.501 47.6113C136.676 55.2263 136.799 62.9709 136.916 70.4562C136.985 74.6117 137.054 78.7673 137.124 82.9229L137.175 86.5682C137.331 96.9463 137.487 107.675 137.539 118.234V122.159C137.539 126.66 137.539 131.311 137.474 135.877L137.364 144.692C137.364 147.572 137.266 150.387 136.066 153.196L135.411 153.189Z" fill="#B370B9"/>
<path d="M135.36 153.255C133.687 150.693 133.096 147.936 132.597 145.108L130.962 136.423C130.087 131.915 129.282 127.342 128.504 122.866L127.855 119.052C126.078 108.674 124.372 98.0886 122.718 87.8532L122.127 84.2079C121.483 80.1128 120.834 76.0178 120.181 71.9228C118.968 64.5219 117.742 56.868 116.594 49.3439L113.934 31.8827C113.649 29.9109 113.359 27.939 113.065 25.9672C112.78 24.0213 112.494 22.0754 112.209 20.1295C112.611 22.043 113 23.95 113.39 25.831L114.616 31.7854L118.093 49.0974C119.578 56.5243 121.031 64.0873 122.445 71.4039C123.237 75.5248 124.032 79.6328 124.832 83.7279L125.533 87.3732C127.479 97.5437 129.49 108.065 131.371 118.43L132.02 122.244C132.811 126.687 133.628 131.286 134.348 135.819L135.782 144.537C136.281 147.372 136.671 150.161 135.977 153.138L135.36 153.255Z" fill="#B370B9"/>
<path d="M135.321 153.326C133.226 151.095 132.169 148.481 131.183 145.776L128.069 137.513C126.421 133.219 124.825 128.828 123.288 124.579L121.991 120.947C118.436 111.036 114.92 100.917 111.515 91.1097L110.302 87.6071C108.939 83.6504 107.573 79.6938 106.202 75.7371C103.763 68.693 101.239 61.4023 98.807 54.2155L93.1569 37.4873L91.2693 31.7728L89.4141 26.1881C90.1406 28.0108 90.8671 29.8269 91.5742 31.6172C92.2812 33.4074 93.0596 35.3727 93.8121 37.2473L100.241 53.6966C102.997 60.7797 105.754 67.9665 108.427 74.9717C109.914 78.8635 111.406 82.7553 112.903 86.6471L114.2 90.0265C117.898 99.7559 121.718 109.777 125.377 119.682L126.72 123.36C128.263 127.589 129.866 131.961 131.358 136.287L134.244 144.693C135.23 147.398 136.1 150.077 135.931 153.125L135.321 153.326Z" fill="#B370B9"/>
<path d="M135.288 153.397C132.843 151.568 131.344 149.175 129.911 146.684L125.37 139.089C123.009 135.158 120.686 131.117 118.435 127.212L116.489 123.833C111.255 114.661 106.02 105.275 100.954 96.2011L99.1956 93.0487C97.1847 89.4164 95.1673 85.7862 93.1434 82.1582C89.5043 75.6135 85.7355 68.8418 82.077 62.1609L73.6377 46.665C72.6906 44.8964 71.7392 43.13 70.7835 41.3657L67.9941 36.1767L71.0689 41.1582C72.1197 42.8878 73.1771 44.6024 74.2409 46.3018L83.4262 61.389C87.3767 67.8753 91.3466 74.5173 95.1933 80.9323C97.3555 84.5041 99.4983 88.078 101.622 91.6541L103.483 94.7741C108.803 103.686 114.31 112.936 119.636 122.017L121.582 125.383C123.839 129.275 126.181 133.322 128.406 137.337L132.732 145.037C134.172 147.527 135.496 150.018 135.859 153.054L135.288 153.397Z" fill="#B370B9"/>
<path d="M135.276 153.475C132.551 152.1 130.664 150.005 128.789 147.799L123.029 141.099C120.025 137.642 117.035 134.068 114.142 130.611L111.638 127.62C104.917 119.532 98.1647 111.249 91.639 103.232L89.2519 100.307C86.6312 97.0634 84.0019 93.8202 81.3639 90.5771C76.6545 84.7783 71.7829 78.7849 67.0346 72.85L56.0265 59.073L52.2512 54.2991L48.6445 49.7587L52.5366 54.1434L56.5454 58.6838L68.2217 71.9419C73.2425 77.6498 78.3022 83.4875 83.1997 89.1371C85.9285 92.2895 88.6616 95.4396 91.399 98.5877L93.838 101.409C100.604 109.238 107.603 117.34 114.414 125.37L116.905 128.334C119.811 131.791 122.821 135.365 125.708 138.933L131.306 145.763C133.161 147.968 134.893 150.193 135.775 153.118L135.276 153.475Z" fill="#B370B9"/>
<path d="M135.275 153.559C132.349 152.67 130.124 150.964 127.925 149.09L121.095 143.492C117.533 140.605 113.959 137.609 110.521 134.709L107.531 132.193C99.4676 125.363 91.3137 118.338 83.4776 111.547L80.7467 109.179C77.6071 106.451 74.4631 103.724 71.3149 101C65.6584 96.1028 59.8138 91.0305 54.0924 86.0101L40.8334 74.3347L36.2927 70.3196L31.9141 66.4279C33.4514 67.6408 34.9823 68.8473 36.4548 70.0407L41.2226 73.8028L55.0135 84.8295C60.9425 89.5775 66.9428 94.4488 72.742 99.1578L82.5435 107.071L85.3782 109.38C93.4219 115.931 101.738 122.71 109.859 129.449L112.869 131.972C116.314 134.859 119.882 137.842 123.339 140.839L130.033 146.599C132.245 148.447 134.334 150.335 135.716 153.085L135.275 153.559Z" fill="#B370B9"/>
<path d="M135.288 153.638C132.259 153.275 129.768 151.952 127.277 150.512L119.577 146.186C115.568 143.967 111.533 141.645 107.635 139.369L104.255 137.423C95.1217 132.091 85.891 126.578 76.9651 121.252L73.8839 119.397L63.1937 112.989C56.7653 109.149 50.1098 105.173 43.623 101.236L28.5282 92.0249L23.4296 88.9115L18.4023 85.811L23.5918 88.6066L28.885 91.4606L44.3755 99.9253C51.0504 103.577 57.8096 107.339 64.3483 110.952C67.9896 112.976 71.6308 114.997 75.2721 117.017L78.5544 118.852C87.584 123.892 96.925 129.101 106.058 134.316L109.412 136.262C113.304 138.512 117.378 140.841 121.309 143.202L128.905 147.742C131.402 149.182 133.789 150.674 135.625 153.126L135.288 153.638Z" fill="#B370B9"/>
<path d="M134.555 153.735C131.792 153.735 129.366 152.924 126.881 152.029L118.546 149.104C114.212 147.612 109.834 146.01 105.604 144.466L101.939 143.123C92.0146 139.458 81.96 135.632 72.2363 131.934L68.8956 130.637L57.2194 126.168C50.2266 123.502 43.0003 120.739 35.9168 117.976L19.4662 111.548L13.8357 109.31L8.40625 107.157L13.9849 109.018L19.7192 110.919L36.4487 116.568C43.636 119.001 50.9272 121.524 57.9783 123.963C61.9353 125.329 65.8901 126.693 69.8427 128.056L73.3261 129.268C83.1212 132.674 93.2471 136.189 103.165 139.744L106.843 141.08C111.079 142.617 115.458 144.2 119.733 145.841L127.99 148.961C130.702 149.94 133.316 150.998 135.541 153.093L135.32 153.709L134.555 153.735Z" fill="#B370B9"/>
<path d="M131.961 154.155C130.219 154.114 128.483 153.926 126.772 153.59L118.054 152.157C113.545 151.437 108.972 150.626 104.548 149.841L100.656 149.154C90.2773 147.266 79.7362 145.262 69.552 143.316L65.9518 142.628L53.6269 140.248C46.2968 138.834 38.7073 137.368 31.2669 135.883L13.9472 132.412C12.0011 131.997 10.0097 131.595 8.04418 131.193L2.29688 130L8.07012 130.849L14.0834 131.718L31.5394 134.378C39.0575 135.526 46.6925 136.745 54.068 137.926C58.1893 138.587 62.3084 139.236 66.4253 139.872L69.9931 140.449C80.2552 142.103 90.8611 143.815 101.272 145.593L105.126 146.274C109.563 147.046 114.149 147.85 118.644 148.719L127.304 150.373C130.139 150.873 132.896 151.463 135.458 153.136L135.341 153.785C134.232 154.038 133.098 154.162 131.961 154.155Z" fill="#B370B9"/>
<path d="M100.422 155.31C89.8483 155.258 79.0997 155.102 68.7013 154.953L65.1141 154.901C60.941 154.823 56.7721 154.754 52.6076 154.693C45.1348 154.57 37.4025 154.447 29.8 154.272L12.143 153.863C10.132 153.798 8.12114 153.746 6.10374 153.688L0.265625 153.513L6.10374 153.344L12.143 153.169L29.8 152.754C37.4025 152.579 45.1348 152.456 52.6076 152.339C56.7808 152.274 60.9496 152.205 65.1141 152.131L68.8311 152.079C79.2099 151.93 89.8937 151.775 100.422 151.723H108.096C111.034 151.723 114.511 151.723 118.072 151.794L126.901 151.898C129.8 151.898 132.603 152.002 135.412 153.195V153.844C132.603 155.044 129.794 155.141 126.92 155.141L118.072 155.238C114.518 155.303 111.041 155.31 108.115 155.31H100.422Z" fill="#B370B9"/>
<path d="M2.30859 177.04L8.01049 175.866L13.9589 174.633L31.2981 171.163C38.7579 169.671 46.354 168.206 53.697 166.792C57.7923 166 61.8812 165.209 65.9635 164.418L69.5637 163.73C79.748 161.784 90.289 159.76 100.668 157.892L104.521 157.211C108.958 156.42 113.538 155.609 118.059 154.889L126.771 153.456C128.481 153.119 130.217 152.928 131.96 152.885C133.104 152.878 134.245 153.005 135.359 153.261L135.476 153.91C132.914 155.577 130.157 156.167 127.322 156.666L118.643 158.314C114.141 159.19 109.561 159.994 105.105 160.772L101.271 161.421C90.8404 163.211 80.2085 164.923 69.9335 166.61L66.4241 167.174L54.0992 169.12C46.7107 170.307 39.0628 171.527 31.5316 172.681L14.0756 175.341C12.0842 175.626 10.0863 175.918 8.09482 176.216L2.30859 177.04Z" fill="#B370B9"/>
<path d="M8.41211 199.825L13.848 197.665C15.7292 196.919 17.6039 196.18 19.4786 195.428L35.9291 189.006C43.0257 186.236 50.2649 183.473 57.2642 180.794L68.9209 176.371L72.2033 175.119C81.9335 171.415 92.0204 167.582 101.965 163.904L105.617 162.574C109.853 161.024 114.231 159.422 118.59 157.93L126.926 155.005C129.397 154.103 131.836 153.299 134.6 153.299H135.365L135.586 153.915C133.361 156.004 130.747 157.061 128.042 158.047L119.777 161.167C115.503 162.801 111.124 164.41 106.895 165.921L103.21 167.257C93.3048 170.812 83.1984 174.321 73.4228 177.72L69.8875 178.946L58.0296 183.045C50.9785 185.484 43.6808 188.007 36.4935 190.44L19.7575 196.089L13.9908 198.035L8.41211 199.825Z" fill="#B370B9"/>
<path d="M18.3965 221.231L23.4043 218.143L28.5289 214.978L43.6236 205.819C50.1104 201.869 56.7529 197.9 63.1619 194.06C66.7426 191.898 70.3211 189.753 73.8975 187.625L77.0631 185.738C85.963 180.426 95.1677 174.932 104.269 169.619L107.661 167.673C111.553 165.416 115.582 163.088 119.584 160.863L127.303 156.517C129.801 155.077 132.292 153.76 135.321 153.397L135.652 153.961C133.816 156.407 131.429 157.905 128.938 159.339L121.342 163.846C117.45 166.201 113.389 168.517 109.497 170.761L106.085 172.707C97.0035 177.896 87.6819 183.085 78.6848 188.112L75.2987 190.006C71.6401 192.03 67.9859 194.06 64.336 196.096C57.8102 199.722 51.064 203.471 44.402 207.123L28.8727 215.607L23.56 218.474L18.3965 221.231Z" fill="#B370B9"/>
<path d="M31.9473 240.597L36.3064 236.705C37.82 235.36 39.3336 234.016 40.8472 232.671L54.1062 220.995C59.834 215.962 65.6916 210.89 71.3546 205.986L80.7474 197.878L83.4849 195.511C91.3469 188.72 99.4748 181.701 107.531 174.871L110.489 172.38C113.947 169.475 117.521 166.465 121.089 163.572L127.952 157.942C130.164 156.093 132.382 154.355 135.308 153.473L135.73 153.972C134.348 156.703 132.259 158.591 130.054 160.459L123.353 166.212C119.895 169.215 116.328 172.199 112.877 175.085L109.867 177.608C101.739 184.361 93.4032 191.152 85.3466 197.716L82.5573 199.986C79.3139 202.607 76.0705 205.232 72.8271 207.861C67.0214 212.576 61.0211 217.454 55.0857 222.202L41.2947 233.229L36.488 237.004L31.9473 240.597Z" fill="#B370B9"/>
<path d="M48.6445 257.301C49.8576 255.757 51.0706 254.233 52.2577 252.728L56.0265 247.961L67.0541 234.171C71.8089 228.242 76.6805 222.242 81.3899 216.437C84.0235 213.198 86.6507 209.955 89.2713 206.708L91.6779 203.763C98.1647 195.759 104.943 187.476 111.657 179.4L114.161 176.404C117.054 172.953 120.045 169.379 123.048 165.915L128.802 159.221C130.657 157.016 132.545 154.921 135.289 153.539L135.788 153.961C134.906 156.886 133.193 159.111 131.325 161.31L125.727 168.146C122.834 171.714 119.824 175.281 116.918 178.745L114.427 181.709C107.603 189.752 100.604 197.88 93.838 205.663L91.399 208.485C88.6616 211.624 85.9285 214.772 83.1997 217.929C78.3022 223.579 73.2425 229.423 68.2217 235.131L56.5454 248.389L52.5561 252.871C51.2782 254.343 49.9678 255.822 48.6445 257.301Z" fill="#B370B9"/>
<path d="M67.9941 270.845L70.777 265.656C71.737 263.887 72.6906 262.118 73.6377 260.35L82.1094 244.854C85.768 238.173 89.5303 231.401 93.1759 224.863L99.2281 213.96L100.986 210.801C106.052 201.72 111.287 192.354 116.554 183.176L118.5 179.809C120.751 175.917 123.074 171.857 125.435 167.926L129.975 160.331C131.409 157.833 132.908 155.447 135.353 153.611L135.924 153.942C135.561 156.977 134.237 159.462 132.797 161.959L128.471 169.658C126.246 173.667 123.93 177.695 121.653 181.593L119.707 184.972C114.368 194.111 108.854 203.348 103.49 212.28L101.622 215.393C99.4594 218.969 97.3145 222.545 95.1868 226.121C91.3466 232.536 87.4026 239.165 83.4262 245.658L74.2409 260.719C73.1836 262.419 72.1327 264.131 71.0819 265.837L67.9941 270.845Z" fill="#B370B9"/>
<path d="M89.3945 280.827L91.2433 275.249C91.879 273.342 92.5104 271.435 93.1374 269.528L98.7874 252.793C101.226 245.606 103.75 238.309 106.189 231.258C107.56 227.31 108.924 223.358 110.282 219.401L111.508 215.866C114.907 206.091 118.423 195.986 121.971 186.081L123.269 182.436C124.806 178.194 126.395 173.803 128.043 169.522L131.157 161.258C132.143 158.547 133.2 155.939 135.295 153.708L135.905 153.935C136.074 156.984 135.204 159.669 134.225 162.367L131.325 170.702C129.833 175.035 128.231 179.413 126.681 183.675L125.357 187.314C121.692 197.225 117.872 207.272 114.174 216.988L112.877 220.348C111.376 224.24 109.882 228.132 108.394 232.024C105.728 239.003 102.971 246.216 100.215 253.299L93.7861 269.748L91.5482 275.372C90.8476 277.181 90.1275 278.998 89.3945 280.827Z" fill="#B370B9"/>
<path d="M112.209 286.936C112.494 284.99 112.78 283.005 113.065 281.098C113.351 279.191 113.649 277.155 113.934 275.176L116.594 257.722C117.749 250.184 118.968 242.524 120.155 235.123C120.813 231.028 121.461 226.933 122.101 222.838L122.692 219.219C124.339 208.977 126.052 198.391 127.829 187.994L128.478 184.18C129.256 179.737 130.061 175.099 130.936 170.63L132.571 161.951C133.071 159.11 133.661 156.353 135.334 153.798L135.983 153.908C136.677 156.885 136.288 159.674 135.788 162.509L134.355 171.227C133.635 175.767 132.818 180.359 132.026 184.809L131.377 188.623C129.496 199.001 127.485 209.522 125.539 219.705L124.845 223.318C124.05 227.439 123.254 231.56 122.458 235.681C121.044 242.998 119.584 250.554 118.105 257.988L114.629 275.299L113.403 281.254C113.033 283.109 112.611 285.016 112.209 286.936Z" fill="#B370B9"/>
<path d="M135.736 289C135.68 287.015 135.622 285.052 135.561 283.111C135.501 281.169 135.442 279.165 135.386 277.098L134.977 259.442C134.802 251.827 134.679 244.089 134.562 236.597C134.493 232.446 134.424 228.293 134.355 224.137L134.303 220.492C134.147 210.114 133.991 199.379 133.939 188.825V184.934C133.939 180.432 133.939 175.781 134.004 171.202L134.108 162.374C134.108 159.494 134.205 156.679 135.405 153.864H136.054C137.261 156.679 137.352 159.494 137.352 162.368L137.455 171.202C137.533 175.775 137.527 180.426 137.52 184.921V188.8C137.468 199.353 137.313 210.088 137.157 220.466L137.105 224.111C137.036 228.262 136.967 232.416 136.897 236.571C136.781 244.063 136.657 251.801 136.482 259.416L136.074 277.072C136.009 279.078 135.95 281.083 135.898 283.085C135.847 285.087 135.793 287.059 135.736 289Z" fill="#B370B9"/>
<path d="M159.264 286.936C158.861 284.99 158.472 283.109 158.083 281.235L156.857 275.28L153.38 257.968C151.901 250.535 150.442 242.979 149.027 235.662C148.236 231.541 147.44 227.42 146.64 223.299L145.946 219.686C144 209.503 141.983 198.975 140.108 188.604L139.459 184.79C138.668 180.34 137.851 175.748 137.131 171.207L135.697 162.496C135.198 159.655 134.808 156.866 135.502 153.889L136.151 153.779C137.825 156.334 138.415 159.091 138.915 161.926L140.51 170.637C141.386 175.145 142.19 179.75 142.969 184.193L143.617 188.014C145.395 198.392 147.107 208.99 148.755 219.232L149.345 222.852C149.99 226.942 150.638 231.037 151.291 235.137C152.478 242.538 153.698 250.198 154.853 257.735L157.512 275.196C157.798 277.168 158.087 279.14 158.381 281.112C158.693 283.006 158.978 284.965 159.264 286.936Z" fill="#B370B9"/>
<path d="M182.078 280.828C181.345 278.998 180.625 277.182 179.918 275.392L177.68 269.762L171.252 253.319C168.495 246.236 165.738 239.049 163.072 232.044C161.58 228.152 160.086 224.26 158.59 220.369L157.292 217.009C153.595 207.279 149.774 197.245 146.109 187.334L144.818 183.649C143.268 179.414 141.666 175.036 140.174 170.677L137.255 162.348C136.269 159.644 135.399 156.958 135.568 153.916L136.178 153.689C138.273 155.92 139.33 158.528 140.316 161.233L143.43 169.496C145.078 173.784 146.673 178.175 148.204 182.417L149.502 186.062C153.05 195.967 156.566 206.073 159.965 215.848L161.191 219.383C162.544 223.331 163.909 227.279 165.284 231.227C167.723 238.284 170.246 245.581 172.685 252.774L178.335 269.509C178.962 271.416 179.594 273.323 180.23 275.23L182.078 280.828Z" fill="#B370B9"/>
<path d="M203.478 270.845L200.364 265.792L197.231 260.714L188.046 245.633C184.096 239.147 180.126 232.511 176.285 226.096C174.123 222.516 171.978 218.94 169.851 215.368L168.021 212.3C162.689 203.368 157.175 194.138 151.837 184.992L149.845 181.555C147.601 177.663 145.305 173.661 143.067 169.678L138.74 161.979C137.3 159.482 135.977 156.997 135.613 153.962L136.184 153.631C138.63 155.467 140.128 157.854 141.562 160.344L146.102 167.946C148.464 171.877 150.786 175.918 153.037 179.829L154.983 183.202C160.218 192.374 165.453 201.753 170.512 210.821L172.277 213.986L178.329 224.877C181.974 231.421 185.737 238.193 189.395 244.874L197.867 260.37C198.827 262.156 199.789 263.94 200.754 265.721C201.629 267.408 202.551 269.12 203.478 270.845Z" fill="#B370B9"/>
<path d="M222.828 257.302L218.872 252.859C217.574 251.375 216.255 249.892 214.915 248.409L203.238 235.151C198.218 229.443 193.158 223.599 188.26 217.949C185.527 214.797 182.794 211.649 180.061 208.505L177.635 205.664C170.869 197.829 163.87 189.734 157.059 181.697L154.548 178.759C151.642 175.302 148.632 171.728 145.746 168.16L140.148 161.33C138.293 159.125 136.561 156.9 135.672 153.975L136.178 153.553C138.902 154.935 140.79 157.03 142.665 159.229L148.425 165.929C151.428 169.393 154.419 172.967 157.312 176.417L159.816 179.414C166.53 187.489 173.276 195.772 179.802 203.777L182.202 206.721C184.822 209.965 187.449 213.208 190.083 216.451C194.793 222.256 199.664 228.256 204.419 234.184L215.447 247.974L219.209 252.742C220.402 254.234 221.615 255.758 222.828 257.302Z" fill="#B370B9"/>
<path d="M239.525 240.598L234.984 237.005L230.191 233.217L216.4 222.19C210.464 217.442 204.464 212.565 198.658 207.849C195.419 205.22 192.176 202.595 188.928 199.975L186.145 197.704C178.082 191.14 169.747 184.349 161.612 177.597L158.609 175.074C155.158 172.187 151.59 169.204 148.133 166.2L141.438 160.447C139.226 158.598 137.138 156.711 135.756 153.961L136.177 153.461C139.103 154.343 141.322 156.056 143.527 157.93L150.358 163.528C153.932 166.421 157.493 169.431 160.964 172.336L163.922 174.827C171.978 181.657 180.139 188.675 187.968 195.473L190.705 197.834L200.111 205.994C205.774 210.904 211.632 215.976 217.36 221.01L230.619 232.685C232.124 234.034 233.637 235.379 235.16 236.72L239.525 240.598Z" fill="#B370B9"/>
<path d="M253.076 221.231L247.887 218.448L242.568 215.581L227.077 207.11C220.415 203.465 213.669 199.716 207.143 196.083C203.493 194.055 199.839 192.027 196.181 189.999L192.866 188.15C183.856 183.124 174.534 177.922 165.42 172.719L162.008 170.774C158.116 168.529 154.088 166.233 150.17 163.859L142.574 159.358C140.076 157.918 137.689 156.419 135.854 153.974L136.178 153.41C139.214 153.773 141.705 155.09 144.196 156.53L151.895 160.856C155.904 163.081 159.926 165.396 163.825 167.667L167.217 169.613C176.299 174.925 185.523 180.419 194.423 185.731L197.588 187.619C201.16 189.781 204.739 191.925 208.324 194.053C214.733 197.893 221.362 201.837 227.862 205.813L242.944 214.997L248.069 218.163L253.076 221.231Z" fill="#B370B9"/>
<path d="M263.058 199.826L257.525 197.997L251.751 196.051L235.022 190.401C227.835 187.969 220.537 185.446 213.486 183.007L201.628 178.908L198.093 177.773C188.317 174.374 178.211 170.865 168.305 167.31L164.621 165.974C160.391 164.443 156.013 162.854 151.738 161.219L143.48 158.1C140.769 157.114 138.155 156.056 135.93 153.968L136.15 153.352H136.916C139.679 153.352 142.105 154.156 144.59 155.057L152.925 157.976C157.265 159.475 161.643 161.077 165.899 162.627L169.551 163.957C179.476 167.583 189.575 171.416 199.306 175.12L202.588 176.372L214.225 180.821C221.225 183.5 228.464 186.263 235.56 189.033L252.011 195.454C253.886 196.207 255.76 196.946 257.641 197.692L263.058 199.826Z" fill="#B370B9"/>
<path d="M269.162 177.04L263.369 176.197C261.378 175.899 259.38 175.607 257.388 175.321L239.932 172.662C232.401 171.507 224.753 170.288 217.365 169.101L205.04 167.155L201.53 166.591C191.255 164.93 180.623 163.218 170.193 161.402L166.359 160.753C161.915 159.975 157.323 159.17 152.821 158.295L144.168 156.654C141.333 156.154 138.576 155.564 136.014 153.897L136.13 153.248C137.245 152.992 138.386 152.866 139.53 152.872C141.272 152.914 143.009 153.105 144.719 153.443L153.437 154.876C157.978 155.596 162.551 156.414 166.988 157.199L170.828 157.88C181.207 159.767 191.781 161.771 201.965 163.717L205.513 164.366C209.6 165.162 213.689 165.953 217.78 166.74C225.123 168.154 232.699 169.62 240.179 171.112L257.498 174.582L263.447 175.814L269.162 177.04Z" fill="#B370B9"/>
<path d="M163.357 155.317C160.431 155.317 156.955 155.317 153.4 155.246L144.571 155.148C141.678 155.148 138.869 155.045 136.061 153.851V153.202C138.869 152.003 141.672 151.905 144.539 151.905L153.4 151.801C156.961 151.743 160.438 151.73 163.376 151.73H171.05C181.578 151.782 192.288 151.938 202.641 152.087L206.358 152.139C210.527 152.217 214.696 152.286 218.865 152.346C226.337 152.463 234.07 152.586 241.672 152.761L259.329 153.177L265.368 153.352L271.206 153.52L265.368 153.695C263.351 153.754 261.34 153.806 259.329 153.871L241.672 154.279C234.07 154.454 226.337 154.578 218.865 154.701C214.696 154.766 210.527 154.835 206.358 154.908L202.771 154.96C192.392 155.109 181.624 155.265 171.05 155.317H163.357Z" fill="#B370B9"/>
<path d="M139.512 154.156C138.368 154.162 137.228 154.036 136.113 153.779L135.996 153.131C138.558 151.457 141.315 150.867 144.15 150.368L152.829 148.733C157.325 147.864 161.911 147.059 166.348 146.288L170.201 145.607C180.612 143.829 191.218 142.117 201.48 140.463L205.048 139.886C209.165 139.237 213.273 138.588 217.373 137.94C224.748 136.759 232.383 135.54 239.902 134.392L257.358 131.732L263.358 130.857L269.131 130.007L263.384 131.2C261.438 131.603 259.446 132.005 257.481 132.42L240.174 135.871C232.727 137.356 225.144 138.822 217.814 140.236L205.489 142.616L201.941 143.265C191.737 145.211 181.183 147.241 170.804 149.103L166.912 149.784C162.488 150.575 157.908 151.386 153.394 152.106L144.682 153.533C142.98 153.889 141.25 154.098 139.512 154.156Z" fill="#B370B9"/>
<path d="M136.916 153.735H136.15L135.93 153.119C138.155 151.024 140.769 149.966 143.474 148.987L151.738 145.867C156.013 144.226 160.391 142.624 164.627 141.106L168.305 139.77C178.224 136.215 188.349 132.7 198.145 129.294L201.628 128.082C205.585 126.728 209.54 125.364 213.492 123.989C220.543 121.55 227.835 119.027 235.022 116.594L251.758 110.938L257.486 109.044L263.051 107.202L257.622 109.356L251.991 111.593L235.541 118.021C228.451 120.784 221.231 123.548 214.238 126.213L202.562 130.683L199.221 131.98C189.491 135.677 179.443 139.504 169.518 143.169L165.853 144.511C161.624 146.055 157.245 147.657 152.912 149.149L144.577 152.074C142.118 152.924 139.679 153.735 136.916 153.735Z" fill="#B370B9"/>
<path d="M135.854 153.073C137.689 150.621 140.076 149.129 142.567 147.689L150.163 143.188C154.101 140.82 158.149 138.491 162.067 136.241L165.42 134.295C174.567 129.073 183.921 123.852 192.97 118.805L196.213 116.996C199.859 114.981 203.5 112.959 207.137 110.931C213.676 107.292 220.435 103.53 227.11 99.9043L242.607 91.4332C244.371 90.4862 246.133 89.537 247.893 88.5857L253.083 85.7901L248.043 88.91L242.944 92.0559L227.849 101.234C221.362 105.197 214.694 109.173 208.266 113.02L197.588 119.396L194.507 121.238C185.581 126.563 176.344 132.076 167.217 137.408L163.838 139.354C159.945 141.618 155.904 143.953 151.902 146.171L144.202 150.53C141.705 151.97 139.214 153.293 136.178 153.656L135.854 153.073Z" fill="#B370B9"/>
<path d="M135.775 153.06C137.157 150.329 139.246 148.441 141.451 146.573L148.152 140.82C151.61 137.817 155.177 134.833 158.628 131.94L161.638 129.423C169.753 122.684 178.069 115.906 186.119 109.316L188.928 107.072L198.658 99.1777C204.458 94.4686 210.458 89.5974 216.387 84.8494L230.178 73.8226L234.946 70.0606C236.444 68.8671 237.975 67.6606 239.486 66.4477L235.108 70.3395L230.599 74.361L217.34 86.0364C211.619 91.0568 205.768 96.1291 200.118 101.026C196.97 103.751 193.826 106.479 190.686 109.212L187.955 111.567C180.093 118.364 171.965 125.389 163.902 132.219L160.912 134.736C157.467 137.635 153.899 140.632 150.345 143.518L143.514 149.116C141.309 150.964 139.084 152.696 136.158 153.585L135.775 153.06Z" fill="#B370B9"/>
<path d="M135.689 153.061C136.578 150.135 138.284 147.911 140.159 145.705L145.757 138.856C148.65 135.288 151.66 131.721 154.566 128.257L157.057 125.293C163.868 117.263 170.867 109.161 177.633 101.332L180.072 98.5109C182.81 95.3628 185.543 92.2126 188.271 89.0603C193.169 83.4107 198.229 77.573 203.249 71.8651L214.926 58.6005C216.253 57.1173 217.579 55.6277 218.902 54.1315L222.84 49.7143L219.233 54.2547L215.445 59.0741L204.417 72.8575C199.669 78.7925 194.797 84.7858 190.088 90.5846C187.454 93.8191 184.825 97.0623 182.2 100.314L179.813 103.239C173.287 111.256 166.534 119.54 159.814 127.628L157.31 130.618C154.417 134.075 151.426 137.649 148.423 141.107L142.669 147.807C140.814 150.012 138.926 152.107 136.182 153.482L135.689 153.061Z" fill="#B370B9"/>
<path d="M135.613 153.071C135.977 150.035 137.3 147.544 138.74 145.053L143.067 137.354C145.279 133.359 147.607 129.344 149.858 125.458L151.837 122.034C157.162 112.953 162.67 103.697 167.989 94.791L169.851 91.6711C172.013 88.0993 174.156 84.5253 176.279 80.9492C180.126 74.5342 184.096 67.8987 188.046 61.4059L197.231 46.3123C198.282 44.6193 199.333 42.9134 200.377 41.214C201.422 39.5146 202.434 37.8736 203.478 36.1871L200.715 41.3178C199.755 43.0951 198.769 44.8788 197.835 46.6625L189.363 62.1584C185.704 68.8393 181.935 75.611 178.296 82.1622C176.273 85.7902 174.255 89.4182 172.244 93.0462L170.486 96.1986C165.42 105.279 160.185 114.659 154.918 123.83L152.972 127.21C150.721 131.101 148.399 135.155 146.038 139.086L141.497 146.682C140.063 149.172 138.565 151.566 136.119 153.395L135.613 153.071Z" fill="#B370B9"/>
<path d="M135.541 153.124C135.372 150.069 136.241 147.391 137.221 144.692L140.146 136.364C141.638 132.031 143.24 127.659 144.784 123.43L146.114 119.72C149.773 109.815 153.593 99.7745 157.291 90.0645L158.588 86.6851C160.089 82.7933 161.581 78.9015 163.064 75.0097C165.737 68.0305 168.494 60.8177 171.25 53.7346L177.679 37.2853C178.431 35.4108 179.171 33.5297 179.917 31.6552C180.663 29.7806 181.344 28.0488 182.077 26.2261L180.222 31.8109L178.334 37.5253L172.71 54.2341C170.277 61.4209 167.754 68.718 165.315 75.7686C163.944 79.721 162.578 83.6755 161.215 87.6321L160.002 91.1282C156.597 100.916 153.081 111.035 149.526 120.965L148.229 124.598C146.691 128.846 145.096 133.237 143.448 137.531L140.276 145.775C139.29 148.48 138.233 151.094 136.137 153.326L135.541 153.124Z" fill="#B370B9"/>
<path d="M135.469 153.124C134.775 150.147 135.164 147.358 135.664 144.523L137.097 135.812C137.817 131.272 138.635 126.673 139.426 122.23L140.075 118.416C141.956 108.038 143.967 97.53 145.913 87.3594L146.614 83.7141C147.414 79.6018 148.209 75.4938 149.001 71.3901C150.415 64.0735 151.868 56.5105 153.353 49.0837L156.83 31.7652L158.056 25.8172C158.445 23.9362 158.835 22.0292 159.237 20.1158C158.951 22.0616 158.666 24.0465 158.381 25.9534C158.095 27.8604 157.797 29.8971 157.511 31.869L154.878 49.3431C153.73 56.8802 152.504 64.5341 151.316 71.935C150.663 76.0343 150.015 80.1315 149.37 84.2265L148.78 87.8653C147.126 98.1008 145.42 108.68 143.643 119.065L142.994 122.878C142.216 127.328 141.411 131.959 140.535 136.435L138.901 145.114C138.401 147.948 137.811 150.705 136.137 153.267L135.469 153.124Z" fill="#B370B9"/>
</g>
<path d="M45.5093 85.5575L47.7363 86.5001L45.8012 87.1143C45.1579 87.321 44.6444 87.8744 44.4336 88.592L43.7363 91.0001L42.8769 88.5859C42.6607 87.9839 42.2336 87.5156 41.6931 87.2967L39.7363 86.5001L41.8552 85.521C42.3688 85.2839 42.7742 84.8217 42.9688 84.2379L43.7363 82.0001L44.2877 84.0798C44.4661 84.7609 44.9201 85.3082 45.5093 85.5575Z" fill="#6ECF8B"/>
<path d="M18.2309 228.953L20.7363 230L18.5593 230.683C17.8357 230.912 17.2579 231.527 17.0208 232.324L16.2363 235L15.2694 232.318C15.0262 231.649 14.5458 231.128 13.9377 230.885L11.7363 230L14.1201 228.912C14.6978 228.649 15.1539 228.135 15.3728 227.487L16.2363 225L16.8566 227.311C17.0573 228.068 17.5681 228.676 18.2309 228.953Z" fill="#6ECF8B"/>
<path d="M191.789 201.558L193.736 202.5L192.045 203.119C191.482 203.324 191.031 203.877 190.851 204.595L190.236 207L189.483 204.589C189.299 203.989 188.919 203.521 188.448 203.304L186.736 202.507L188.591 201.525C189.042 201.288 189.391 200.827 189.565 200.24L190.236 198L190.718 200.082C190.877 200.761 191.271 201.308 191.789 201.558Z" fill="#6ECF8B"/>
<path d="M85.9545 39.9532L88.7363 41.0001L86.3205 41.6882C85.5152 41.9152 84.871 42.5301 84.6148 43.3281L83.7363 46.0001L82.6602 43.3207C82.3966 42.6546 81.8549 42.1348 81.1814 41.8932L78.7363 41.0074L81.3864 39.9166C82.0306 39.6531 82.5284 39.1406 82.7773 38.4891L83.7363 36.0001L84.4245 38.3134C84.6514 39.0674 85.2151 39.6751 85.9545 39.9532Z" fill="#6ECF8B"/>
<path d="M267.836 219.926L271.736 221.493L268.351 222.523C267.223 222.869 266.324 223.792 265.958 224.988L264.736 229L263.23 224.981C262.858 223.985 262.101 223.201 261.159 222.835L257.736 221.5L261.444 219.866C262.343 219.474 263.05 218.697 263.397 217.727L264.736 214L265.697 217.468C266.014 218.604 266.801 219.514 267.836 219.932V219.926Z" fill="#6ECF8B"/>
<path d="M229.673 67.9522L232.736 68.9979L230.078 69.6846C229.191 69.915 228.485 70.5309 228.198 71.324L227.234 74.0001L226.051 71.3195C225.758 70.6549 225.164 70.1321 224.424 69.8884L221.736 69.0023L224.648 67.9124C225.354 67.651 225.909 67.1326 226.182 66.4857L227.234 64.0001L227.989 66.3129C228.237 67.0705 228.855 67.6775 229.669 67.9567L229.673 67.9522Z" fill="#6ECF8B"/>
<path d="M228.493 177.162L231 177.999L228.823 178.547C228.098 178.729 227.521 179.223 227.287 179.86L226.5 182L225.532 179.855C225.292 179.322 224.806 178.906 224.2 178.711L222 178.001L224.385 177.13C224.961 176.92 225.414 176.506 225.64 175.989L226.503 174L227.12 175.849C227.322 176.454 227.831 176.941 228.498 177.162H228.493Z" fill="#6ECF8B"/>
<path d="M104.886 178.904L110.736 180.997L105.657 182.368C103.964 182.823 102.619 184.058 102.073 185.651L100.236 191L97.9766 185.638C97.4168 184.305 96.2835 183.265 94.8703 182.778L89.7363 181.003L95.3004 178.826C96.6453 178.299 97.7035 177.266 98.2292 175.972L100.243 171L101.684 175.621C102.155 177.136 103.343 178.351 104.899 178.904H104.886Z" fill="#6ECF8B"/>
<path d="M48.9987 42.0172C48.9987 42.0172 49.0535 42.0687 49.1426 42.1716C49.2454 42.2974 49.3756 42.4574 49.5332 42.6518C49.8621 43.0805 50.2459 43.7723 50.5337 44.7155C50.7667 45.6702 50.8489 46.8822 50.5063 48.2427C50.1705 49.5976 49.4236 51.0839 48.1696 52.4845C47.5049 53.1534 46.7785 53.8508 45.8465 54.411C45.408 54.7255 44.8872 54.9484 44.3869 55.2171C43.8456 55.4172 43.3111 55.6744 42.7149 55.8174C40.3919 56.5091 37.6714 56.6463 34.9578 56.2118C32.2442 55.7773 29.5168 54.8169 27.0499 53.382C25.8301 52.656 24.6172 51.8671 23.5893 50.8781C22.5752 49.8949 21.7186 48.7344 21.3074 47.4138C21.1087 46.7564 21.0539 46.0532 21.2252 45.3844C21.3965 44.7098 21.8008 44.0867 22.3764 43.6065C23.5414 42.6346 25.2408 42.3145 26.7552 42.486C28.3108 42.6632 29.647 43.3892 30.6475 44.2753C31.6617 45.1671 32.3675 46.2304 32.8403 47.3166C33.786 49.5118 33.7312 51.8157 33.0459 53.7879C32.3606 55.7716 31.0107 57.4237 29.414 58.5499C28.6191 59.1216 27.7694 59.5732 26.9197 59.9105C26.0768 60.2592 25.234 60.5108 24.4254 60.6708C22.815 61.0138 21.3691 61.0481 20.211 60.9567C19.0461 60.8709 18.1758 60.6423 17.5933 60.4936C17.3329 60.4079 17.1205 60.3335 16.9492 60.2764C16.8053 60.2249 16.7299 60.1963 16.7368 60.1906C16.7573 60.1335 17.9223 60.6537 20.2247 60.8023C21.3691 60.8709 22.7876 60.8138 24.3637 60.4593C25.1517 60.2935 25.9672 60.0363 26.7895 59.6876C27.6118 59.3446 28.4341 58.9044 29.2016 58.3384C30.7366 57.2294 32.0317 55.623 32.6827 53.6907C33.3337 51.7756 33.368 49.5347 32.4429 47.431C31.9838 46.3848 31.2985 45.3615 30.3323 44.5212C29.3798 43.6808 28.1189 43.0119 26.6936 42.8519C25.2888 42.6918 23.7264 43.0005 22.6985 43.8695C21.6364 44.727 21.3485 46.0932 21.7528 47.3109C22.1366 48.5457 22.952 49.6662 23.932 50.6152C24.9187 51.5641 26.1111 52.3473 27.3034 53.0562C29.7155 54.4682 32.3812 55.4115 35.0332 55.8459C37.6782 56.2804 40.3233 56.1604 42.5915 55.4972C43.174 55.36 43.688 55.1199 44.2156 54.9313C44.7021 54.674 45.2161 54.4625 45.6409 54.1595C46.5523 53.6221 47.265 52.9476 47.9229 52.3016C49.1632 50.9467 49.917 49.5004 50.2664 48.1798C50.6228 46.8536 50.5748 45.6702 50.3692 44.7327C49.8553 42.8576 48.9233 42.0344 49.0056 42.0001L48.9987 42.0172Z" fill="#FFAC34"/>
<path d="M41.9987 194.014C41.9987 194.014 42.0535 194.076 42.1426 194.201C42.2454 194.353 42.3756 194.547 42.5332 194.782C42.8621 195.301 43.2459 196.138 43.5337 197.28C43.7667 198.436 43.8489 199.903 43.5063 201.55C43.1705 203.19 42.4236 204.989 41.1695 206.685C40.5049 207.495 39.7785 208.339 38.8465 209.017C38.408 209.398 37.8872 209.667 37.3869 209.993C36.8456 210.235 36.3111 210.546 35.7149 210.719C33.3919 211.557 30.6714 211.723 27.9578 211.197C25.2442 210.671 22.5168 209.508 20.0499 207.771C18.8301 206.892 17.6172 205.937 16.5893 204.74C15.5752 203.55 14.7186 202.145 14.3074 200.547C14.1087 199.751 14.0539 198.9 14.2252 198.09C14.3965 197.273 14.8008 196.519 15.3764 195.945C16.5414 194.768 18.2408 194.381 19.7552 194.588C21.3108 194.803 22.647 195.682 23.6475 196.754C24.6617 197.834 25.3675 199.121 25.8403 200.436C26.786 203.093 26.7312 205.882 26.0459 208.27C25.3606 210.671 24.0107 212.671 22.414 214.034C21.6191 214.726 20.7694 215.273 19.9197 215.681C19.0768 216.103 18.234 216.408 17.4254 216.602C15.815 217.017 14.3691 217.058 13.211 216.948C12.0461 216.844 11.1758 216.567 10.5933 216.387C10.3329 216.283 10.1205 216.193 9.94919 216.124C9.80528 216.062 9.7299 216.027 9.73676 216.02C9.75732 215.951 10.9223 216.581 13.2247 216.761C14.3691 216.844 15.7876 216.775 17.3637 216.345C18.1517 216.145 18.9672 215.833 19.7895 215.411C20.6118 214.996 21.4341 214.463 22.2016 213.778C23.7366 212.436 25.0317 210.491 25.6827 208.152C26.3337 205.834 26.368 203.121 25.4429 200.574C24.9838 199.308 24.2985 198.069 23.3323 197.052C22.3798 196.042 21.1189 195.225 19.6936 195.031C18.2888 194.837 16.7264 195.211 15.6985 196.263C14.6364 197.301 14.3485 198.955 14.7528 200.429C15.1366 201.924 15.952 203.28 16.932 204.429C17.9187 205.578 19.1111 206.526 20.3034 207.384C22.7155 209.093 25.3812 210.235 28.0331 210.761C30.6782 211.287 33.3233 211.141 35.5915 210.339C36.174 210.18 36.688 209.882 37.2156 209.654C37.7021 209.342 38.2161 209.086 38.6409 208.719C39.5523 208.069 40.265 207.252 40.9229 206.47C42.1632 204.83 42.917 203.079 43.2664 201.481C43.6228 199.875 43.5748 198.443 43.3692 197.308C42.8553 195.038 41.9233 194.042 42.0056 194L41.9987 194.014Z" fill="#FFAC34"/>
<path d="M269.152 49.0133C269.152 49.0133 269.202 49.0663 269.283 49.192C269.377 49.3377 269.496 49.523 269.639 49.7481C269.939 50.2445 270.289 51.0455 270.552 52.1377C270.764 53.2431 270.839 54.6464 270.527 56.2218C270.22 57.7906 269.539 59.5116 268.396 61.1333C267.79 61.9078 267.128 62.7154 266.278 63.364C265.878 63.7281 265.403 63.9863 264.947 64.2974C264.454 64.5291 263.966 64.8269 263.423 64.9924C261.305 65.7933 258.824 65.9522 256.35 65.4491C253.876 64.9461 251.389 63.834 249.14 62.1726C248.028 61.3319 246.922 60.4184 245.985 59.2733C245.06 58.1348 244.279 56.791 243.904 55.262C243.723 54.5008 243.673 53.6866 243.829 52.9121C243.985 52.131 244.354 51.4095 244.879 50.8601C245.941 49.7348 247.49 49.3642 248.871 49.5627C250.29 49.7679 251.508 50.6086 252.42 51.6346C253.345 52.6672 253.988 53.8984 254.419 55.1561C255.282 57.6979 255.232 60.3655 254.607 62.6492C253.982 64.9461 252.751 66.8591 251.295 68.1631C250.571 68.825 249.796 69.3479 249.021 69.7385C248.253 70.1423 247.484 70.4335 246.747 70.6188C245.279 71.016 243.96 71.0557 242.904 70.9498C241.842 70.8505 241.049 70.5857 240.518 70.4136C240.28 70.3143 240.087 70.2283 239.93 70.1621C239.799 70.1025 239.73 70.0694 239.737 70.0628C239.755 69.9966 240.818 70.599 242.917 70.7711C243.96 70.8505 245.254 70.7843 246.691 70.3739C247.409 70.182 248.153 69.8841 248.902 69.4803C249.652 69.0832 250.402 68.5735 251.102 67.9182C252.501 66.634 253.682 64.774 254.276 62.5366C254.869 60.3192 254.9 57.7244 254.057 55.2885C253.638 54.0771 253.014 52.8923 252.133 51.9192C251.264 50.9462 250.115 50.1717 248.815 49.9864C247.534 49.801 246.11 50.1585 245.172 51.1646C244.204 52.1575 243.942 53.7395 244.31 55.1494C244.66 56.5792 245.404 57.8766 246.297 58.9754C247.197 60.0742 248.284 60.9811 249.371 61.8019C251.57 63.4369 254.001 64.5291 256.419 65.0321C258.83 65.5352 261.242 65.3962 263.31 64.6283C263.841 64.4695 264.31 64.1915 264.791 63.973C265.235 63.6752 265.703 63.4302 266.091 63.0794C266.922 62.4572 267.571 61.6761 268.171 60.9281C269.302 59.3594 269.989 57.6847 270.308 56.1556C270.633 54.6199 270.589 53.2497 270.402 52.1641C269.933 49.993 269.083 49.0398 269.158 49.0001L269.152 49.0133Z" fill="#FFAC34"/>
<path d="M51.7363 143C51.7363 144.106 50.6181 145 49.2363 145C47.8546 145 46.7363 144.106 46.7363 143C46.7363 141.895 47.8546 141 49.2363 141C50.6181 141 51.7363 141.895 51.7363 143Z" fill="#80CFE8"/>
<path d="M39.7363 258C39.7363 259.106 38.8417 260 37.7363 260C36.6309 260 35.7363 259.106 35.7363 258C35.7363 256.895 36.6309 256 37.7363 256C38.8417 256 39.7363 256.895 39.7363 258Z" fill="#80CFE8"/>
<path d="M257.736 256C257.736 257.106 256.618 258 255.236 258C253.855 258 252.736 257.106 252.736 256C252.736 254.895 253.855 254 255.236 254C256.618 254 257.736 254.895 257.736 256Z" fill="#80CFE8"/>
<path d="M240.736 111.5C240.736 112.882 239.618 114 238.236 114C236.855 114 235.736 112.882 235.736 111.5C235.736 110.118 236.855 109 238.236 109C239.618 109 240.736 110.118 240.736 111.5Z" fill="#80CFE8"/>
<path d="M196.822 33.9889L199.998 33.533C202.046 34.8307 204.51 35.5422 207.149 35.417C213.382 35.1213 218.461 30.0405 218.757 23.8223C219.103 16.632 213.191 10.6894 205.935 11.0402C199.778 11.3358 194.739 16.2963 194.348 22.4394C194.152 25.4859 195.091 28.3219 196.777 30.5566H196.772L196.817 33.9889H196.822Z" fill="white"/>
<path d="M196.821 33.9888C196.821 33.9888 196.816 33.9187 196.806 33.7734C196.801 33.613 196.796 33.3976 196.786 33.122C196.771 32.5257 196.746 31.6639 196.721 30.5515C196.721 30.5215 196.741 30.4964 196.771 30.4964C196.781 30.4964 196.796 30.4964 196.806 30.5064H196.811L196.736 30.5866C195.817 29.379 194.784 27.5652 194.392 25.1651C194.196 23.9725 194.176 22.6447 194.382 21.2568C194.603 19.8738 195.09 18.4358 195.872 17.0729C196.665 15.715 197.764 14.4423 199.134 13.4001C200.504 12.3679 202.145 11.5461 203.962 11.1753C205.768 10.7895 207.721 10.8146 209.612 11.2856C211.509 11.7465 213.321 12.7286 214.826 14.0915C215.609 14.763 216.242 15.5697 216.824 16.3914C217.085 16.8223 217.351 17.2482 217.576 17.6942L217.888 18.3706L218.038 18.7113L218.159 19.0621C218.826 20.921 219.007 22.8802 218.791 24.7291C218.585 26.5831 217.893 28.3067 216.969 29.7699C216.041 31.233 214.847 32.4405 213.547 33.3475C212.242 34.2494 210.837 34.8507 209.467 35.1814C209.121 35.2465 208.779 35.3116 208.443 35.3768C208.107 35.4319 207.771 35.4469 207.445 35.482C206.787 35.5421 206.155 35.5221 205.548 35.477C203.114 35.2766 201.227 34.3897 199.967 33.5779H200.003C198.979 33.7182 198.181 33.8235 197.624 33.8936C197.368 33.9237 197.167 33.9487 197.017 33.9688C196.881 33.9838 196.816 33.9888 196.816 33.9888C196.816 33.9888 196.891 33.9738 197.032 33.9487C197.182 33.9237 197.388 33.8886 197.649 33.8485C198.196 33.7633 198.979 33.6381 199.987 33.4827C199.998 33.4827 200.013 33.4827 200.023 33.4878C201.287 34.2744 203.159 35.1262 205.563 35.3066C206.16 35.3467 206.787 35.3617 207.43 35.2966C207.751 35.2565 208.082 35.2465 208.413 35.1864C208.744 35.1212 209.076 35.0561 209.417 34.9859C210.762 34.6502 212.142 34.054 213.421 33.1621C214.696 32.2702 215.86 31.0776 216.769 29.6396C217.672 28.2015 218.339 26.5179 218.54 24.6991C218.746 22.8852 218.565 20.9661 217.913 19.1473L217.797 18.8015L217.647 18.4708L217.341 17.8094C217.12 17.3735 216.859 16.9576 216.603 16.5367C216.031 15.735 215.409 14.9433 214.646 14.2869C213.17 12.9541 211.404 11.9871 209.542 11.5361C207.69 11.0701 205.774 11.0501 204.007 11.4209C202.231 11.7816 200.62 12.5783 199.27 13.5905C197.92 14.6026 196.836 15.8503 196.053 17.1831C195.275 18.5209 194.794 19.9289 194.568 21.2868C194.352 22.6497 194.362 23.9575 194.548 25.135C194.914 27.51 195.913 29.3089 196.806 30.5215C196.826 30.5465 196.821 30.5766 196.796 30.5966C196.776 30.6116 196.751 30.6116 196.731 30.5966H196.726L196.811 30.5515C196.811 31.6488 196.811 32.4956 196.811 33.0869C196.811 33.3675 196.811 33.588 196.811 33.7533C196.811 33.9036 196.811 33.9838 196.806 33.9888H196.821Z" fill="#343C41"/>
<path d="M200.541 23.5822L202.093 21.9275L205.292 24.5666L211.181 18.5244L212.729 20.0759L205.165 27.6651L200.541 23.5822Z" fill="#12B859"/>
<path d="M196.461 49.6993C196.461 49.6993 199.173 52.4738 200.754 54.4676C202.335 56.453 206.728 58.5132 206.728 58.5132L208.242 59.4768V64.2119L219.091 64.6937C219.091 64.6937 218.201 61.3376 217.651 55.6472C217.102 49.9568 214.29 44.8147 213.533 44.6734C212.776 44.5405 213.117 44.6734 213.117 44.6734C213.117 44.6734 212.568 42.8874 211.536 42.8874C211.536 42.8874 210.846 40.902 207.967 41.8573C207.967 41.8573 207.551 41.4669 206.32 41.5915C205.089 41.7161 199.182 44.3245 198.907 44.9393C198.632 45.554 199.598 47.6142 199.598 47.6142C199.598 47.6142 197.676 46.1023 196.919 46.5841C196.161 47.0659 195.454 47.8883 196.478 49.7076L196.461 49.6993Z" fill="#FFBF9D"/>
<path d="M212.402 48.703C212.402 48.703 212.335 48.7611 212.185 48.8691C211.986 49.0104 211.778 49.1599 211.528 49.3344C211.22 49.5587 210.879 49.7996 210.496 50.0738C210.297 50.2233 210.08 50.3729 209.881 50.5473C209.856 50.564 209.831 50.5972 209.823 50.5972C209.823 50.5889 209.814 50.6304 209.839 50.5556C209.839 50.4809 209.839 50.4892 209.823 50.4726C209.806 50.4476 209.806 50.456 209.814 50.456C209.848 50.4726 209.914 50.4892 209.981 50.5058C210.114 50.5307 210.264 50.5473 210.413 50.564H210.43C210.979 50.672 211.503 51.2701 211.337 51.9597C211.145 52.6409 210.422 52.9649 209.798 53.0397C209.165 53.1145 208.475 53.1311 207.801 52.9068C207.127 52.6991 206.503 52.2671 206.045 51.6772C205.538 51.0126 205.272 50.1984 205.338 49.3925C205.405 48.5784 205.912 47.8888 206.486 47.4817C206.778 47.2574 207.102 47.1245 207.385 46.9833C207.676 46.842 207.951 46.7091 208.225 46.5762C208.766 46.3186 209.265 46.0777 209.739 45.8534C210.671 45.4131 211.42 45.0642 211.952 44.8315C212.477 44.5989 212.776 44.4826 212.793 44.5075C212.809 44.5325 212.535 44.6986 212.027 44.9811C211.52 45.2635 210.788 45.6457 209.881 46.1193C209.415 46.3602 208.916 46.6177 208.392 46.8919C208.117 47.0331 207.842 47.1744 207.56 47.3156C207.268 47.4651 206.977 47.5981 206.728 47.7891C206.22 48.1713 205.812 48.7445 205.763 49.4258C205.713 50.0987 205.946 50.8298 206.395 51.403C206.794 51.9181 207.352 52.3003 207.942 52.4914C208.525 52.6908 209.165 52.6908 209.756 52.6326C210.322 52.5744 210.863 52.3003 210.987 51.86C211.12 51.428 210.763 50.971 210.372 50.8796H210.397C210.239 50.863 210.08 50.8381 209.931 50.8049C209.848 50.78 209.781 50.7716 209.681 50.7135C209.656 50.6969 209.623 50.6803 209.59 50.6304C209.573 50.5972 209.548 50.5889 209.556 50.4975C209.59 50.4061 209.59 50.431 209.598 50.4061C209.64 50.3563 209.664 50.3396 209.698 50.3147C209.931 50.1319 210.147 49.9907 210.355 49.8495C210.771 49.5753 211.137 49.351 211.437 49.1682C212.036 48.811 212.402 48.6282 212.41 48.6864L212.402 48.703Z" fill="#FF9A6C"/>
<path d="M210.73 43.1118C210.747 43.17 209.932 43.4857 208.634 44.034C207.985 44.3081 207.211 44.6405 206.362 45.0309C205.938 45.2303 205.497 45.4463 205.04 45.6623C204.582 45.8866 204.108 46.1109 203.7 46.41C203.284 46.7091 202.985 47.0913 202.901 47.5399C202.81 47.9885 202.901 48.4538 203.051 48.8775C203.376 49.7166 203.725 50.5224 204.166 50.996C204.648 51.428 205.231 51.5692 205.597 51.5775C205.98 51.5775 206.179 51.4695 206.196 51.5111C206.213 51.5277 206.03 51.6938 205.605 51.7437C205.198 51.7852 204.557 51.7104 203.95 51.2203C203.667 50.9544 203.45 50.6138 203.242 50.24C203.043 49.8661 202.843 49.4673 202.668 49.0104C202.502 48.5618 202.377 48.0301 202.477 47.4651C202.577 46.8919 202.976 46.3934 203.434 46.0694C203.9 45.7288 204.391 45.5128 204.848 45.2885C205.306 45.0642 205.763 44.8648 206.188 44.6737C207.053 44.2998 207.843 43.9924 208.509 43.7515C209.848 43.278 210.705 43.062 210.722 43.1118H210.73Z" fill="#FF9A6C"/>
<path d="M207.301 42.1897C207.318 42.2561 206.603 42.4971 205.471 42.9706C204.905 43.2032 204.248 43.5023 203.524 43.8679C202.825 44.2417 201.985 44.6322 201.295 45.1722C200.596 45.7122 200.446 46.6095 200.604 47.3489C200.77 48.0883 201.112 48.7612 201.469 49.2015C201.819 49.6335 202.351 49.7249 202.659 49.7415C202.984 49.7581 203.158 49.6584 203.175 49.6834C203.192 49.7 203.042 49.8661 202.667 49.9077C202.318 49.9326 201.727 49.9077 201.245 49.4092C200.804 48.9273 200.429 48.271 200.213 47.4319C200.122 47.0165 200.097 46.543 200.213 46.0778C200.321 45.6042 200.629 45.1556 201.012 44.8399C201.802 44.2334 202.609 43.8762 203.35 43.5106C204.09 43.1617 204.772 42.8875 205.363 42.6882C206.528 42.2811 207.285 42.1398 207.301 42.1897Z" fill="#FF9A6C"/>
<path d="M203.367 50.4638C203.384 50.522 203.109 50.6632 202.66 50.846C202.535 50.8875 202.452 50.954 202.227 50.9789C201.961 50.9789 201.811 50.7712 201.712 50.6632C201.479 50.3807 201.271 50.1149 201.054 49.8407C200.139 48.661 199.474 47.6474 199.565 47.581C199.657 47.5062 200.48 48.4035 201.395 49.5749C201.603 49.8573 201.811 50.1232 202.028 50.414C202.119 50.5469 202.194 50.6133 202.236 50.6133C202.294 50.6217 202.46 50.5718 202.568 50.5469C203.043 50.4389 203.351 50.3973 203.367 50.4555V50.4638Z" fill="#FF9A6C"/>
<path d="M210.071 56.2123C209.947 56.2373 209.714 55.2569 209.048 54.2517C208.391 53.2381 207.584 52.64 207.65 52.532C207.7 52.4323 208.69 52.9141 209.406 54.0108C210.138 55.1074 210.18 56.204 210.071 56.2123Z" fill="#FF9A6C"/>
<path d="M207.26 60.2577L206.428 73.2584L218.55 95.5548C218.55 95.5548 222.069 76.5647 220.763 73.6322C219.465 70.7081 218.783 69.354 218.783 69.354L219.049 62.0105L207.26 60.2577Z" fill="white"/>
<path d="M111.191 310.719L111.665 329.999C111.665 329.999 92.4879 336.977 92.2383 340.55L129.153 340.923L129.627 310.851L111.191 310.71V310.719Z" fill="#343C41"/>
<path d="M123.097 328.496C123.812 328.703 124.295 329.518 124.12 330.249C123.945 330.98 123.13 331.487 122.414 331.295C121.699 331.104 121.083 330.141 121.341 329.435C121.591 328.728 122.589 328.188 123.238 328.546" fill="white"/>
<path d="M129.153 340.932L129.087 337.9L93.7193 338.672C93.7193 338.672 92.072 339.378 92.2384 340.558L129.153 340.94V340.932Z" fill="#7B858C"/>
<path d="M111.075 329.8C111.075 329.983 111.982 330.074 112.864 330.672C113.762 331.246 114.212 332.043 114.378 331.968C114.544 331.935 114.286 330.839 113.205 330.132C112.132 329.418 111.042 329.626 111.075 329.792V329.8Z" fill="white"/>
<path d="M107.181 331.387C107.14 331.561 107.913 331.885 108.521 332.658C109.145 333.422 109.295 334.253 109.469 334.253C109.636 334.286 109.777 333.215 109.003 332.259C108.246 331.295 107.181 331.212 107.181 331.387Z" fill="white"/>
<path d="M104.935 336.056C105.102 336.097 105.36 335.183 104.91 334.178C104.461 333.173 103.621 332.766 103.537 332.915C103.438 333.065 103.978 333.605 104.336 334.436C104.711 335.258 104.76 336.031 104.935 336.047V336.056Z" fill="white"/>
<path d="M111.44 325.398C111.515 325.565 112.347 325.323 113.362 325.398C114.385 325.457 115.168 325.814 115.267 325.656C115.376 325.523 114.61 324.841 113.404 324.758C112.206 324.674 111.349 325.24 111.44 325.39V325.398Z" fill="white"/>
<path d="M153.347 310.353L153.256 333.688L147.931 352.138C147.549 353.467 148.356 354.846 149.687 355.137C150.435 355.303 151.209 355.095 151.775 354.572C155.377 351.241 168.564 338.93 168.481 337.227C168.381 335.249 170.187 312.612 170.187 312.612L153.339 310.353H153.347Z" fill="#343C41"/>
<path d="M149.695 355.138L168.531 335.648L168.506 336.637C168.481 337.493 168.165 338.315 167.599 338.946C166.094 340.65 161.826 345.269 151.85 354.573C151.268 355.113 150.461 355.329 149.695 355.138Z" fill="#7B858C"/>
<g opacity="0.6">
<path d="M164.006 328.014C163.415 328.404 163.207 329.285 163.565 329.892C163.922 330.498 164.804 330.722 165.395 330.349C165.986 329.966 166.277 328.92 165.853 328.355C165.428 327.79 164.38 327.582 163.897 328.097" fill="white"/>
</g>
<path d="M155.219 345.077C155.086 345.135 154.604 343.906 153.247 343.216C151.916 342.485 150.635 342.784 150.61 342.635C150.593 342.576 150.885 342.402 151.425 342.336C151.958 342.269 152.74 342.36 153.48 342.759C154.221 343.15 154.737 343.748 154.986 344.23C155.244 344.712 155.269 345.06 155.211 345.077H155.219Z" fill="white"/>
<path d="M153.506 348.159C153.398 348.259 152.674 347.478 151.493 347.104C150.32 346.705 149.288 346.904 149.255 346.755C149.188 346.63 150.311 346.165 151.651 346.614C152.999 347.046 153.623 348.092 153.506 348.151V348.159Z" fill="white"/>
<path d="M158.38 341.148C158.272 341.256 157.174 340.059 155.385 339.312C153.613 338.539 151.991 338.581 151.991 338.423C151.957 338.298 153.671 338.016 155.577 338.838C157.49 339.644 158.488 341.081 158.372 341.148H158.38Z" fill="white"/>
<path d="M158.989 334.055C158.922 334.196 157.666 333.622 156.01 333.522C154.355 333.398 153.032 333.797 152.99 333.647C152.932 333.531 154.271 332.882 156.043 333.007C157.816 333.123 159.055 333.947 158.98 334.055H158.989Z" fill="white"/>
<path d="M159.188 327.208C159.113 327.341 157.857 326.535 156.11 326.568C154.363 326.568 153.115 327.399 153.04 327.275C153.007 327.225 153.265 326.942 153.805 326.643C154.338 326.344 155.17 326.078 156.11 326.062C157.05 326.062 157.882 326.303 158.423 326.593C158.964 326.876 159.23 327.158 159.197 327.208H159.188Z" fill="white"/>
<path d="M156.185 325.265C156.185 325.265 156.11 324.949 156.185 324.384C156.252 323.819 156.435 322.997 156.934 322.091C157.192 321.667 157.466 321.111 158.115 320.82C158.44 320.67 158.914 320.745 159.18 321.061C159.446 321.368 159.521 321.75 159.513 322.124C159.446 323.603 158.157 325.007 156.51 325.182C154.854 325.323 153.39 324.334 152.766 323.038C152.633 322.706 152.541 322.299 152.732 321.908C152.915 321.518 153.39 321.368 153.722 321.435C154.405 321.551 154.821 321.966 155.22 322.274C155.994 322.938 156.468 323.628 156.743 324.126C157.017 324.625 157.1 324.932 157.075 324.941C156.992 324.999 156.526 323.777 154.995 322.556C154.613 322.274 154.163 321.917 153.673 321.858C153.431 321.825 153.223 321.917 153.132 322.116C153.04 322.299 153.082 322.598 153.198 322.855C153.722 323.919 155.07 324.816 156.468 324.675C157.857 324.542 158.989 323.312 159.055 322.116C159.064 321.825 158.997 321.534 158.856 321.368C158.714 321.194 158.49 321.144 158.273 321.227C157.824 321.401 157.508 321.883 157.25 322.282C156.235 323.969 156.302 325.298 156.202 325.273L156.185 325.265Z" fill="white"/>
<path d="M107.239 150.332C107.239 150.332 104.909 162.137 104.718 175.561C104.643 180.753 109.593 326.984 109.593 326.984L131.258 327.516L136.266 191.253L138.13 191.843C138.13 191.843 145.651 250.176 145.851 259.53C146.034 267.937 151.35 328.429 151.35 328.429H172.474L172.865 250.915L170.311 173.883L169.013 152.293L107.23 150.332H107.239Z" fill="#7B858C"/>
<path d="M155.494 42.8792C156.866 39.2822 158.223 35.6603 158.955 31.8888C159.687 28.1091 159.77 24.1465 158.605 20.4748C158.431 19.9182 156.883 16.1717 156.292 16.1966C155.876 16.2132 156.775 19.6856 156.542 20.0345C154.37 23.3657 153.622 27.4694 153.738 31.4402C153.863 35.4194 154.512 39.0164 155.485 42.8709" fill="#343C41"/>
<path d="M154.521 63.6472L156.601 28.242C157.391 18.6307 152.449 10.1574 142.807 9.634H141.916C132.914 9.67554 125.451 16.5954 124.761 25.5588C124.12 33.8909 123.521 43.1119 123.596 47.5811C123.746 56.8353 133.022 58.2392 133.022 58.2392C133.039 58.2392 132.698 67.6512 132.59 70.3594L146.567 70.1018L149.912 69.9191L154.521 63.6472Z" fill="#FFBF9D"/>
<path d="M133.014 58.2394C133.014 58.2394 138.855 58.5551 145.07 54.6338C145.07 54.6338 142.191 61.604 132.939 60.8065L133.014 58.2477V58.2394Z" fill="#FF9A6C"/>
<path d="M129.053 34.1068C129.028 34.8047 129.602 35.4028 130.334 35.4361C131.067 35.4693 131.674 34.9376 131.691 34.2397C131.716 33.5419 131.142 32.9437 130.409 32.9105C129.677 32.8772 129.07 33.4089 129.045 34.1068H129.053Z" fill="#343C41"/>
<path d="M126.741 29.6292C126.908 29.8037 127.906 29.056 129.329 29.056C130.751 29.0311 131.8 29.7622 131.949 29.5877C132.024 29.5129 131.858 29.1972 131.4 28.8732C130.951 28.5492 130.186 28.2252 129.295 28.2335C128.405 28.2418 127.665 28.5741 127.232 28.9065C126.799 29.2471 126.65 29.5545 126.733 29.6292H126.741Z" fill="#343C41"/>
<path d="M141.626 34.3811C141.601 35.0789 142.175 35.6771 142.907 35.7103C143.639 35.7436 144.246 35.2118 144.263 34.514C144.288 33.8161 143.714 33.218 142.982 33.1847C142.249 33.1515 141.642 33.6832 141.617 34.3811H141.626Z" fill="#343C41"/>
<path d="M140.71 29.9035C140.876 30.078 141.874 29.3303 143.297 29.3303C144.72 29.3053 145.768 30.0364 145.926 29.862C146.001 29.7872 145.834 29.4715 145.377 29.1475C144.928 28.8235 144.162 28.4995 143.272 28.5078C142.382 28.5161 141.641 28.8484 141.209 29.1807C140.776 29.5213 140.626 29.8287 140.71 29.9035Z" fill="#343C41"/>
<path d="M135.644 40.8532C135.644 40.7701 134.762 40.6205 133.331 40.4461C132.965 40.4128 132.624 40.3381 132.557 40.0888C132.474 39.823 132.624 39.4325 132.798 39.0088C133.139 38.1282 133.489 37.206 133.863 36.2423C135.344 32.2961 136.409 29.056 136.251 28.9979C136.093 28.9397 134.762 32.0884 133.289 36.0346C132.931 37.0066 132.59 37.9371 132.266 38.8177C132.133 39.2331 131.891 39.6984 132.083 40.2467C132.183 40.5209 132.449 40.7119 132.682 40.7784C132.915 40.8449 133.123 40.8532 133.297 40.8615C134.745 40.9362 135.635 40.9362 135.644 40.8615V40.8532Z" fill="#343C41"/>
<path d="M140.227 25.4591C140.418 25.8247 141.799 25.4342 143.488 25.3927C145.169 25.3179 146.575 25.6087 146.741 25.2265C146.816 25.0521 146.533 24.7197 145.934 24.429C145.343 24.1382 144.445 23.9139 143.43 23.9471C142.423 23.9803 141.533 24.2711 140.967 24.6034C140.393 24.9358 140.135 25.2847 140.218 25.4508L140.227 25.4591Z" fill="#343C41"/>
<path d="M126.351 25.7832C126.642 26.1072 127.807 25.7832 129.204 25.7832C130.602 25.7416 131.775 26.0324 132.05 25.6918C132.174 25.5256 131.991 25.2016 131.476 24.8942C130.968 24.5868 130.12 24.3293 129.163 24.3376C128.206 24.3542 127.374 24.6367 126.883 24.9607C126.384 25.2847 126.218 25.617 126.351 25.7749V25.7832Z" fill="#343C41"/>
<path d="M155.869 35.0954C156.027 35.0289 162.234 33.1929 162.051 39.5152C161.876 45.8457 155.545 44.3586 155.545 44.1759C155.545 43.9931 155.869 35.0871 155.869 35.0871V35.0954Z" fill="#FFBF9D"/>
<path d="M157.549 41.8411C157.549 41.8411 157.657 41.9242 157.84 42.0156C158.023 42.107 158.331 42.1734 158.664 42.0571C159.338 41.8328 159.937 40.786 159.995 39.6478C160.028 39.0746 159.92 38.518 159.729 38.061C159.545 37.5958 159.254 37.2635 158.922 37.1887C158.589 37.1056 158.347 37.2967 158.264 37.4712C158.173 37.6456 158.214 37.7703 158.181 37.7869C158.164 37.8035 158.048 37.6789 158.106 37.413C158.139 37.2884 158.214 37.1389 158.364 37.0225C158.522 36.9062 158.747 36.8481 158.98 36.8813C159.471 36.9312 159.895 37.3881 160.103 37.8949C160.344 38.4017 160.469 39.0247 160.436 39.6728C160.361 40.9439 159.67 42.1236 158.747 42.3645C158.298 42.4725 157.931 42.323 157.74 42.1651C157.549 42.0073 157.515 41.8577 157.54 41.8494L157.549 41.8411Z" fill="#FF9A6C"/>
<path d="M129.245 15.2246C128.238 14.6181 131.441 11.4199 134.003 10.3732C137.872 8.78651 143.729 7.93918 147.207 9.06065C151.392 10.4147 154.828 12.641 156.808 16.562C158.788 20.483 159.42 24.9855 159.137 29.3717C159.054 30.7091 158.863 32.0964 158.106 33.2013C157.166 34.5636 155.876 35.2116 155.443 37.3216C155.302 38.0111 155.219 38.7338 154.711 39.2323C153.505 40.4202 152.132 39.2156 151.525 38.0277C150.227 35.5023 150.177 32.5367 150.16 29.6873C150.152 27.6687 150.144 25.6002 150.784 23.6812C151.134 22.6345 151.666 21.6626 151.957 20.5993C152.249 19.536 152.257 18.3231 151.625 17.426C151.525 17.2764 151.35 17.0937 151.126 16.886C149.387 15.2495 146.891 14.6846 144.619 15.399C141.009 16.5288 134.844 18.1819 133.296 16.9192C131.075 15.0916 130.567 13.9453 130.567 13.9453L129.261 15.2246H129.245Z" fill="#343C41"/>
<path d="M134.512 43.901L134.754 43.7348C135.993 43.6351 137.225 43.5437 138.464 43.444C138.664 43.4274 138.88 43.4108 139.055 43.5022C139.271 43.6102 139.396 43.8511 139.471 44.0754C139.812 45.1388 139.379 46.4099 138.456 47.0496C137.532 47.6893 136.193 47.6395 135.311 46.9416C134.437 46.2438 134.096 44.9478 134.512 43.9093V43.901Z" fill="#FF9A6C"/>
<path d="M134.92 46.6675C134.92 46.6675 134.945 46.709 134.995 46.7672C135.045 46.8336 135.136 46.9167 135.261 47.0164C135.511 47.2075 135.918 47.4484 136.492 47.5481C137.05 47.6478 137.782 47.5896 138.439 47.1742C139.08 46.7588 139.596 45.9945 139.695 45.1139C139.745 44.6736 139.712 44.2333 139.529 43.8345C139.438 43.6351 139.263 43.4523 139.047 43.3942C138.839 43.3277 138.631 43.3526 138.448 43.3692C137.724 43.4523 137.066 43.5354 136.492 43.6019C135.968 43.6683 135.527 43.7265 135.178 43.7763C134.87 43.8179 134.695 43.8511 134.695 43.8677C134.695 43.8843 134.87 43.8677 135.186 43.8511C135.536 43.8179 135.985 43.7846 136.509 43.7431C137.083 43.6849 137.74 43.6268 138.464 43.552C138.647 43.5354 138.83 43.5271 138.988 43.5769C139.146 43.6268 139.271 43.7514 139.354 43.9176C139.504 44.2582 139.546 44.6819 139.496 45.0807C139.396 45.9031 138.922 46.6176 138.331 47.0081C137.732 47.4069 137.041 47.4733 136.509 47.3986C135.968 47.3238 135.561 47.1161 135.303 46.9416C135.045 46.7672 134.928 46.6425 134.912 46.6508L134.92 46.6675Z" fill="#343C41"/>
<path d="M111.541 2.03281C111.774 2.1242 129.711 7.00921 129.711 7.00921L157.483 12.4259L176.269 13.913L176.419 12.7832L141.076 3.86885L111.649 1.23526L111.541 2.03281Z" fill="#343C41"/>
<path d="M126.799 18.1238L130.559 7.00882C130.559 7.00882 141.691 3.5115 158.78 12.5248C160.552 17.7001 161.01 23.3158 160.827 26.8629C160.827 26.8629 151.434 18.2816 136.433 18.5059C136.433 18.5059 130.509 15.6067 126.807 18.1238H126.799Z" fill="#7B858C"/>
<path d="M160.727 22.7764C160.727 22.7764 153.605 18.1821 147.523 16.479C141.45 14.7759 136.849 15.4738 136.849 15.4738C131.857 13.1642 127.681 14.8839 127.681 14.8839L126.799 18.124C130.509 15.615 136.425 18.5062 136.425 18.5062C151.425 18.2818 160.777 26.9552 160.777 26.9552C160.927 25.6675 160.902 24.2718 160.727 22.7764Z" fill="#B370B9"/>
<path d="M136.434 18.5073C136.318 18.4907 136.634 15.5996 137.15 12.0521C137.666 8.50466 138.181 5.63845 138.298 5.65507C138.414 5.67169 138.098 8.56282 137.582 12.1103C137.067 15.6577 136.551 18.5239 136.434 18.5073Z" fill="#343C41"/>
<path d="M176.269 13.9047L140.777 5.04026L111.541 2.03281L111.649 1.23526L141.243 3.80239L176.419 12.7832L176.269 13.9047Z" fill="#7B858C"/>
<path d="M140.793 5.15661C140.677 5.14 140.618 4.8243 140.668 4.44214C140.718 4.06828 140.851 3.7692 140.976 3.78582C141.093 3.80243 141.151 4.11813 141.101 4.50029C141.051 4.87415 140.918 5.17323 140.793 5.15661Z" fill="#343C41"/>
<path d="M114.236 9.61723L113.238 9.52585C112.065 9.87478 111.69 10.8053 111.457 11.6277C110.567 14.7764 109.901 17.9666 109.469 21.1651C110.509 21.2981 111.54 21.4393 112.58 21.5722C112.83 21.6055 113.312 13.5884 113.321 21.5722C113.321 21.8464 115.101 21.9045 115.043 21.5972C114.402 17.8254 114.652 14.4607 114.818 11.2705C114.852 10.6973 114.835 10.0492 114.228 9.60893L114.236 9.61723Z" fill="#B370B9"/>
<path d="M114.443 8.19727C114.559 7.24187 114.751 6.28647 114.984 5.35599C115.183 4.57505 115.391 3.78581 115.824 3.09625C116.215 2.48147 116.806 1.95808 117.555 1.85008C118.495 1.71715 119.41 2.20732 120.184 2.68917C120.749 3.04641 121.273 2.14916 120.708 1.79192C119.776 1.21037 118.669 0.686978 117.538 0.811596C116.556 0.919598 115.749 1.46792 115.167 2.24055C114.593 2.99656 114.31 3.89381 114.06 4.79936C113.761 5.91262 113.544 7.05079 113.403 8.19727C113.37 8.47974 113.669 8.71236 113.919 8.71236C114.227 8.71236 114.401 8.47143 114.435 8.19727H114.443Z" fill="#B370B9"/>
<path d="M115.135 8.9032C115.035 9.67583 114.294 10.2158 113.487 10.1078C112.68 9.99984 112.115 9.28536 112.215 8.51273C112.314 7.7401 113.055 7.20009 113.862 7.30809C114.669 7.41609 115.235 8.13057 115.135 8.9032Z" fill="#B370B9"/>
<path d="M115.135 8.9029C115.06 8.91952 115.168 8.32135 114.594 7.81457C114.32 7.57364 113.87 7.4158 113.404 7.5238C112.947 7.61518 112.506 8.01396 112.431 8.54566C112.356 9.07737 112.681 9.57583 113.097 9.78353C113.521 10.0078 113.995 9.96631 114.32 9.80846C115.01 9.46783 115.06 8.86136 115.127 8.9029C115.152 8.9029 115.177 9.04413 115.11 9.27675C115.043 9.50937 114.852 9.84999 114.461 10.0826C114.078 10.3152 113.471 10.4066 112.914 10.1408C112.356 9.89153 111.89 9.2186 111.99 8.48751C112.082 7.74811 112.706 7.22471 113.313 7.13333C113.929 7.02533 114.486 7.26625 114.794 7.59857C115.11 7.93088 115.21 8.30474 115.21 8.54566C115.21 8.7949 115.152 8.91951 115.127 8.91121L115.135 8.9029Z" fill="#343C41"/>
<path d="M110.833 18.9884C110.7 18.9884 110.783 16.845 111.424 14.3028C111.74 13.0317 112.098 11.9018 112.439 11.1126C112.755 10.3067 113.163 9.88302 113.213 9.94948C113.238 9.99102 112.971 10.4064 112.722 11.2206C112.464 12.0181 112.148 13.148 111.84 14.4108C111.208 16.9198 110.933 18.9967 110.825 18.9967L110.833 18.9884Z" fill="#343C41"/>
<path d="M112.571 16.9363C112.455 16.9363 112.422 15.3495 112.688 13.4304C112.954 11.503 113.412 9.99096 113.52 10.0242C113.636 10.0491 113.378 11.5944 113.12 13.4969C112.854 15.3994 112.696 16.9529 112.571 16.9446V16.9363Z" fill="#343C41"/>
<path d="M113.97 12.0347C113.854 12.0347 113.77 11.6027 113.795 11.071C113.82 10.5476 113.937 10.1239 114.053 10.1322C114.17 10.1322 114.253 10.5642 114.228 11.0959C114.203 11.6193 114.087 12.043 113.97 12.0347Z" fill="#343C41"/>
<path d="M118.995 1.90823L121.333 2.09959L121.283 2.88165L118.762 2.50726L118.995 1.90823Z" fill="#7B858C"/>
<path d="M139.487 17.7171C139.886 15.7232 139.046 12.7241 136.242 11.8518C134.304 11.2453 131.982 12.2423 131.134 14.0949C130.834 13.505 130.06 13.2724 129.428 13.4635C128.796 13.6463 128.305 14.1614 127.989 14.7346C127.598 15.4408 127.431 16.3214 127.764 17.0525C128.097 17.7836 129.037 18.2571 129.761 17.8999C129.952 19.1212 130.826 20.2095 131.982 20.6581C133.139 21.0984 134.52 20.8741 135.477 20.0932C136.508 21.2397 138.172 21.7714 139.678 21.4474C141.184 21.1233 142.482 19.9519 142.948 18.4814C141.791 18.2322 140.643 17.9747 139.487 17.7254V17.7171Z" fill="#343C41"/>
<path d="M105.051 70.4755C105.051 70.4755 100.849 71.1317 99.2768 72.9676C97.7043 74.8035 94.5511 77.8107 92.9787 83.1854C91.4063 88.5518 86.4227 104.011 86.4227 104.011L78.1612 106.894L74.1095 117.436C70.6152 126.532 69.0843 136.293 69.883 146.004C70.1077 148.787 70.5237 151.387 71.2059 153.389C73.9597 161.381 84.9085 162.569 87.1382 161.779C89.3679 160.99 106.623 134.657 106.623 134.657L109.901 96.4104L105.051 70.4755Z" fill="#B370B9"/>
<g opacity="0.3">
<path d="M92.2793 114.728L80.0159 110.059C78.4518 116.414 74.0423 124.455 73.1937 130.943C72.3451 137.439 72.2286 144.077 73.5598 150.49C74.1505 153.323 75.0906 156.222 77.1623 158.241C77.9526 159.005 78.9593 159.653 80.0575 159.628C81.8629 159.603 83.1358 157.892 84.0427 156.33C91.0812 144.218 93.7685 128.185 92.2709 114.711L92.2793 114.728Z" fill="black"/>
</g>
<path d="M91.4137 136.85C91.4137 136.85 93.7183 125.162 92.487 116.398C91.8131 111.588 88.0692 107.426 88.0692 107.426C88.0692 107.426 80.0323 107.7 80.0156 110.067C80.0156 110.815 81.3718 115.226 81.3718 115.226C81.4466 116.439 80.7062 118.134 80.7727 119.853C80.7727 119.853 85.7479 133.901 91.422 136.85" fill="white"/>
<path d="M82.9277 158.756C82.9277 158.756 82.986 158.589 83.1357 158.299C83.3104 157.966 83.5351 157.551 83.8096 157.036C84.4253 155.956 85.2157 154.336 86.1558 152.318C87.9778 148.272 90.1493 142.482 91.3889 135.803C92.6785 129.141 92.8366 122.952 92.5204 118.532C92.4788 117.976 92.4456 117.452 92.4123 116.954C92.354 116.456 92.3041 115.99 92.2542 115.55C92.1544 114.669 92.0712 113.914 91.963 113.307C91.8715 112.726 91.8049 112.26 91.7467 111.887C91.7051 111.563 91.6885 111.388 91.6968 111.388C91.7134 111.388 91.755 111.554 91.8299 111.87C91.9048 112.235 92.0046 112.701 92.1294 113.274C92.2708 113.88 92.379 114.636 92.4955 115.517C92.5537 115.957 92.6203 116.431 92.6868 116.921C92.7284 117.427 92.7783 117.951 92.8283 118.507C93.2276 122.952 93.1194 129.182 91.8216 135.886C90.5736 142.598 88.3439 148.413 86.4387 152.442C85.4653 154.452 84.625 156.047 83.9594 157.111C83.6516 157.609 83.4103 158.016 83.2106 158.34C83.0359 158.623 82.9361 158.764 82.9277 158.756Z" fill="#7B858C"/>
<path d="M103.512 120.228C103.462 120.27 102.73 119.414 101.573 118.035C100.408 116.664 98.8026 114.745 96.7726 112.909C94.7509 111.056 92.621 109.76 90.9737 109.054C89.3264 108.356 88.2199 108.148 88.2365 108.057C88.2365 108.024 88.5194 108.065 89.0186 108.165C89.5261 108.248 90.2333 108.456 91.0902 108.771C92.7957 109.411 95.0171 110.707 97.0638 112.585C99.1188 114.454 100.7 116.415 101.814 117.844C102.372 118.558 102.804 119.148 103.096 119.563C103.387 119.979 103.537 120.211 103.52 120.228H103.512Z" fill="#7B858C"/>
<path d="M98.5858 132.141C98.5192 132.133 98.6856 131.02 98.8187 129.217C98.9518 127.414 98.9934 124.913 98.7106 122.172C98.4194 119.43 97.8453 116.996 97.3378 115.26C96.8303 113.523 96.4309 112.477 96.4975 112.452C96.5225 112.443 96.6556 112.693 96.8636 113.158C97.0799 113.623 97.3461 114.313 97.6373 115.177C98.228 116.905 98.852 119.364 99.1515 122.139C99.4427 124.913 99.3512 127.447 99.1349 129.258C99.0267 130.164 98.9102 130.895 98.8021 131.393C98.6939 131.892 98.6274 132.166 98.5941 132.158L98.5858 132.141Z" fill="#7B858C"/>
<path d="M177.3 72.1785C177.3 72.1785 179.347 70.6167 180.903 71.5305C182.458 72.4443 198.199 86.3588 198.199 86.3588L205.978 64.6771C205.978 64.6771 228.816 116.962 224.864 120.31C220.921 123.65 193.673 125.369 185.903 121.432C178.132 117.494 168.182 100.456 168.182 100.456L177.292 72.1785H177.3Z" fill="#B370B9"/>
<path d="M125.676 65.5493L130.401 63.8131L132.939 59.4352L142.066 65.84L154.886 57.4249L155.843 63.1153L161.983 67.0114L142.698 97.1913L133.28 94.2256L125.676 65.5493Z" fill="white"/>
<path d="M141.076 67.1942L138.838 69.9939L139.961 72.9266L142.665 73.3752L144.362 70.5505L142.798 67.3936L141.076 67.1942Z" fill="#465159"/>
<path d="M139.96 72.926L133.279 94.2256L142.697 97.1912L145.726 92.4562L142.664 73.3746L139.96 72.926Z" fill="#465159"/>
<path d="M155.636 63.3895C155.636 63.3895 155.378 63.647 154.87 64.0624C154.296 64.5193 153.556 65.1009 152.649 65.8237C150.677 67.344 148.006 69.3961 144.945 71.7555L144.745 71.9133L144.637 71.6807C143.988 70.3348 143.297 68.8893 142.582 67.4022C142.349 66.9037 142.108 66.4135 141.883 65.94L142.249 65.9815C140.693 67.8923 139.237 69.6868 137.931 71.2819L137.798 71.4481L137.648 71.2985C135.627 69.2382 133.921 67.4936 132.656 66.1975C132.099 65.6077 131.633 65.1258 131.267 64.7353C130.951 64.3947 130.793 64.2036 130.801 64.187C130.809 64.1704 131.009 64.3366 131.35 64.6523C131.733 65.0178 132.224 65.4747 132.814 66.0397C134.104 67.3025 135.851 69.0056 137.923 71.0244L137.64 71.041C138.93 69.4293 140.377 67.6265 141.916 65.7074L142.133 65.4415L142.282 65.7489C142.515 66.2308 142.748 66.7209 142.981 67.2111C143.688 68.7065 144.379 70.1521 145.028 71.4979L144.712 71.4232C147.815 69.1136 150.511 67.0948 152.507 65.6077C153.439 64.9347 154.213 64.3781 154.804 63.9461C155.344 63.5639 155.644 63.3646 155.661 63.3895H155.636Z" fill="#343C41"/>
<path d="M104.46 70.5835L126.865 64.187L140.135 95.5632L160.452 64.187L179.687 71.5887L172.565 104.917L175.801 147.317C175.801 147.317 186.817 256.946 186.318 260.228L166.592 262.396C166.592 262.396 167.964 281.976 166.592 282.325C147.756 287.143 142.963 275.845 142.963 275.845C130.326 280.547 112.347 276.086 104.742 264.597L92.2461 259.123L103.511 115.575L104.46 70.5752V70.5835Z" fill="#B370B9"/>
<path d="M99.276 72.9593C99.276 72.9593 99.3259 73.0922 99.3925 73.3498C99.4673 73.6405 99.5589 74.0143 99.6753 74.4878C99.9166 75.5262 100.266 76.98 100.69 78.7993C101.539 82.5458 102.737 87.7876 104.151 93.9764V93.9931V94.0097C104.384 98.6118 104.409 103.779 104.26 109.212C103.96 119.371 103.228 128.543 102.912 135.188C102.737 138.511 102.629 141.203 102.554 143.055C102.521 143.952 102.487 144.667 102.471 145.198C102.454 145.423 102.446 145.605 102.437 145.755C102.429 145.88 102.421 145.946 102.413 145.946C102.413 145.946 102.396 145.88 102.396 145.755C102.396 145.605 102.396 145.423 102.388 145.198C102.388 144.675 102.388 143.952 102.388 143.055C102.404 141.194 102.471 138.503 102.604 135.172C102.845 128.518 103.527 119.347 103.827 109.203C103.977 103.779 103.96 98.6202 103.76 94.0263V94.0595C102.421 87.8541 101.273 82.5956 100.457 78.8408C100.075 77.0132 99.7669 75.5512 99.5505 74.5045C99.459 74.031 99.3842 73.6488 99.3259 73.3498C99.276 73.0839 99.2593 72.951 99.2677 72.951L99.276 72.9593Z" fill="#7B858C"/>
<path d="M179.512 72.9759C179.512 72.9759 179.437 73.466 179.212 74.3217C178.971 75.2521 178.663 76.4732 178.28 77.9519C177.498 81.0173 176.45 85.2539 175.427 89.9641C174.403 94.6742 173.596 98.969 173.039 102.076C172.773 103.579 172.548 104.817 172.381 105.764C172.223 106.637 172.124 107.11 172.09 107.11C172.057 107.11 172.107 106.62 172.215 105.739C172.323 104.859 172.498 103.596 172.739 102.026C173.222 98.9026 173.979 94.5912 175.011 89.8727C176.034 85.1542 177.132 80.9176 177.989 77.8771C178.422 76.3569 178.788 75.1275 179.054 74.2801C179.32 73.4328 179.487 72.9759 179.512 72.9842V72.9759Z" fill="#7B858C"/>
<path d="M200.063 116.522C200.063 116.522 199.979 116.456 199.846 116.289C199.713 116.132 199.539 115.882 199.347 115.534C198.956 114.852 198.524 113.772 198.291 112.385C198.041 110.998 197.983 109.328 197.941 107.484C197.891 105.64 197.866 103.621 197.858 101.494C197.85 97.2412 197.941 93.3949 198.058 90.6121C198.116 89.2164 198.182 88.095 198.232 87.3141C198.291 86.5332 198.332 86.1096 198.365 86.1096C198.399 86.1096 198.407 86.5415 198.407 87.3224C198.399 88.178 198.382 89.2912 198.365 90.6204C198.324 93.4033 198.282 97.2495 198.291 101.494C198.307 103.613 198.324 105.631 198.341 107.484C198.357 109.328 198.382 110.973 198.59 112.344C198.956 115.11 200.146 116.489 200.063 116.522Z" fill="#7B858C"/>
<path d="M193.78 114.944C193.78 114.944 193.738 114.537 193.738 113.789C193.738 113.05 193.772 111.978 193.846 110.649C193.988 107.999 194.337 104.352 194.995 100.356C195.66 96.3606 196.517 92.7968 197.233 90.2465C197.59 88.9672 197.906 87.9454 198.148 87.2393C198.381 86.5332 198.53 86.1511 198.555 86.1594C198.58 86.1677 198.497 86.5664 198.306 87.2809C198.098 88.0784 197.84 89.1001 197.524 90.313C196.883 92.8799 196.076 96.4437 195.411 100.414C194.753 104.394 194.362 108.024 194.138 110.657C194.038 111.912 193.955 112.958 193.896 113.781C193.838 114.52 193.797 114.927 193.763 114.927L193.78 114.944Z" fill="#7B858C"/>
<path d="M172.924 96.2527C172.924 96.369 157.433 96.0865 138.339 95.613C119.236 95.1395 103.753 94.6659 103.762 94.5413C103.762 94.425 119.245 94.7075 138.355 95.181C157.449 95.6545 172.932 96.1281 172.932 96.2527H172.924Z" fill="#7B858C"/>
<path d="M120.343 190.231C120.343 190.231 120.326 190.148 120.31 189.991C120.293 189.799 120.276 189.567 120.251 189.268C120.202 188.628 120.152 187.689 120.135 186.485C120.06 184.068 120.035 180.562 120.035 176.242C120.035 167.594 120.152 155.64 120.368 142.449C120.584 129.249 120.859 117.303 121.108 108.655C121.233 104.335 121.35 100.83 121.466 98.4207C121.516 97.2162 121.566 96.2775 121.616 95.6378C121.641 95.3388 121.658 95.1062 121.674 94.9151C121.691 94.749 121.699 94.6659 121.707 94.6742C121.666 97.0334 121.3 116.381 120.809 142.465C120.593 155.657 120.426 167.611 120.351 176.259C120.31 180.587 120.293 184.084 120.31 186.502C120.31 187.714 120.326 188.645 120.351 189.284C120.351 189.584 120.36 189.824 120.36 190.007C120.36 190.173 120.36 190.256 120.351 190.256L120.343 190.231Z" fill="#7B858C"/>
<path d="M128.512 122.296C128.512 122.296 128.471 121.913 128.462 121.241C128.437 120.476 128.396 119.513 128.354 118.366C128.238 115.849 128.08 112.543 127.913 108.879C127.747 105.216 127.597 101.91 127.489 99.3927C127.456 98.2463 127.422 97.2827 127.397 96.5185C127.381 95.8373 127.397 95.4634 127.422 95.4634C127.456 95.4634 127.505 95.8373 127.564 96.5101C127.63 97.1913 127.705 98.1716 127.797 99.3844C127.971 101.81 128.171 105.158 128.354 108.871C128.529 112.576 128.645 115.932 128.67 118.366C128.679 119.579 128.67 120.568 128.637 121.249C128.595 121.93 128.545 122.304 128.52 122.304L128.512 122.296Z" fill="#7B858C"/>
<path d="M142.947 274.508C142.906 272.123 142.298 234.185 141.5 184.857C141.142 160.101 140.818 137.689 140.585 121.448C140.518 113.349 140.46 106.786 140.418 102.234C140.418 99.9659 140.402 98.2047 140.435 97.0085C140.443 96.427 140.452 95.9701 140.46 95.6461C140.468 95.3388 140.485 95.1809 140.485 95.1809C140.526 97.5568 141.134 135.496 141.932 184.84C142.29 209.587 142.606 231.992 142.848 248.232C142.914 256.332 142.972 262.894 143.014 267.447C143.014 269.714 143.031 271.476 142.997 272.672C142.989 273.253 142.981 273.71 142.972 274.034C142.964 274.341 142.947 274.499 142.947 274.499V274.508Z" fill="#7B858C"/>
<path d="M144.502 108.058C144.444 108.058 144.361 107.36 144.186 106.222C143.986 104.918 143.77 103.431 143.521 101.786C143.271 100.049 143.071 98.4708 142.98 97.3243C142.88 96.1778 142.905 95.455 142.963 95.455C143.021 95.455 143.105 96.1529 143.279 97.2911C143.479 98.5954 143.695 100.083 143.945 101.727C144.194 103.464 144.394 105.042 144.486 106.189C144.585 107.335 144.561 108.058 144.502 108.058Z" fill="#7B858C"/>
<path d="M166.583 262.396C166.466 262.396 163.979 225.038 161.034 178.942C158.088 132.837 155.792 95.4634 155.917 95.455C156.033 95.455 158.521 132.804 161.466 178.917C164.411 225.005 166.699 262.387 166.583 262.396Z" fill="#7B858C"/>
<path d="M111.548 142.449C111.548 142.449 111.557 142.557 111.548 142.764C111.548 142.997 111.532 143.296 111.523 143.687C111.49 144.526 111.44 145.713 111.382 147.242C111.241 150.349 111.024 154.801 110.775 160.301C110.217 171.341 109.444 186.56 108.595 203.373C107.696 220.187 106.881 235.406 106.29 246.446C105.974 251.937 105.716 256.39 105.542 259.497C105.442 261.017 105.367 262.213 105.317 263.044C105.284 263.434 105.267 263.733 105.25 263.966C105.234 264.174 105.217 264.282 105.209 264.282C105.209 264.282 105.2 264.174 105.209 263.966C105.209 263.733 105.225 263.434 105.234 263.044C105.267 262.205 105.317 261.017 105.375 259.497C105.517 256.39 105.733 251.937 105.983 246.438C106.54 235.389 107.314 220.171 108.162 203.357C109.061 186.551 109.876 171.333 110.467 160.284C110.783 154.793 111.041 150.341 111.216 147.234C111.315 145.713 111.39 144.526 111.44 143.687C111.474 143.296 111.49 142.997 111.507 142.764C111.523 142.557 111.54 142.449 111.548 142.449Z" fill="#7B858C"/>
<path d="M120.11 202.252C119.994 202.252 119.944 200.915 120.01 199.278C120.077 197.642 120.227 196.321 120.343 196.329C120.46 196.329 120.509 197.667 120.443 199.303C120.376 200.94 120.227 202.261 120.11 202.252Z" fill="#7B858C"/>
<g opacity="0.3">
<path d="M159.652 153.705L166.574 260.228C169.636 226.609 165.202 186.809 159.652 153.705Z" fill="black"/>
</g>
<g opacity="0.3">
<path d="M102.404 139.45C101.14 125.386 101.539 111.164 103.569 97.1913C104.251 110.923 103.835 124.705 102.321 138.37" fill="black"/>
</g>
<g opacity="0.3">
<path d="M197.89 87.0648C195.611 92.0242 193.306 97.0251 192.075 102.35C190.843 107.667 190.727 113.39 192.757 118.458C193.206 107.991 194.962 97.59 197.973 87.555L198.115 89.7398" fill="black"/>
</g>
<path d="M87.2971 93.154C87.1057 90.7948 87.0808 88.3774 86.2987 86.1428C86.099 85.5862 85.8494 85.0296 85.4251 84.6142C84.9925 84.2072 84.3602 83.9746 83.7945 84.1656C83.2953 84.3318 82.9458 84.8053 82.7794 85.3037C82.613 85.8022 82.613 86.3421 82.613 86.8738C82.613 88.3774 82.6214 89.9225 82.1222 91.343C81.5398 92.9879 80.3251 94.3336 79.6096 95.9203C78.5114 98.3626 78.7194 101.345 80.1421 103.613C80.8992 104.817 82.2137 105.889 83.6114 105.623L89.0941 102.807C88.1706 99.6585 87.5633 96.4187 87.2971 93.154Z" fill="#FF9A6C"/>
<path d="M81.7476 104.776L59.2676 48.694C59.2676 48.694 61.4806 44.6318 67.6539 45.0389L89.7678 101.403L81.7476 104.776Z" fill="white"/>
<path d="M88.0123 102.143C88.0123 102.143 87.8958 101.96 87.7211 101.595C87.5297 101.187 87.2801 100.647 86.964 99.9746C86.3151 98.5624 85.4082 96.5188 84.31 93.9685C82.1136 88.8845 79.185 81.8068 76.0651 73.9483C72.9535 66.0814 70.2246 58.9289 68.3111 53.7286C67.3543 51.1285 66.5972 49.0185 66.0814 47.5564C65.8401 46.8586 65.6487 46.2937 65.5073 45.8701C65.3825 45.4796 65.316 45.2803 65.3326 45.2719C65.3492 45.2636 65.4324 45.463 65.5905 45.8368C65.7569 46.2522 65.9732 46.8088 66.2478 47.4983C66.8218 48.9852 67.6205 51.0703 68.6023 53.6206C70.5907 58.7877 73.3529 65.9236 76.4728 73.7904C79.5927 81.649 82.4713 88.735 84.5929 93.8522C85.6495 96.3776 86.5064 98.4295 87.1221 99.9081C87.4049 100.589 87.6296 101.138 87.8043 101.561C87.954 101.943 88.0289 102.143 88.0123 102.151V102.143Z" fill="#343C41"/>
<path d="M72.7954 91.775C72.7289 91.9245 73.461 97.59 73.7189 99.1767C73.9768 100.755 74.5343 100.755 74.5343 100.755C74.5343 100.755 74.5343 102.799 75.0418 103.563C75.5493 104.327 76.1649 104.684 76.1649 104.684C76.1649 104.684 76.7972 106.387 77.338 106.977C77.8788 107.567 81.839 111.77 81.839 111.77C81.839 111.77 84.2934 112.792 86.0322 111.463C87.771 110.134 88.2286 108.04 88.2286 108.04L87.1553 103.754C87.1553 103.754 88.7361 103.039 88.7361 102.325C88.7361 101.611 88.0206 100.589 88.0206 100.589C88.0206 100.589 86.1653 100.996 85.0504 101.403C83.9356 101.81 81.2234 102.882 81.2234 102.882L80.7574 101.735L85.2584 99.052C85.2584 99.052 87.6545 98.8028 88.2702 98.1881C88.8859 97.5734 88.4782 95.9452 87.8126 95.7873C87.147 95.6378 84.1852 96.0449 83.7276 95.995C83.27 95.9452 79.3015 97.6814 79.3015 97.6814C79.3015 97.6814 84.493 94.9732 84.6511 94.9234C84.8009 94.8735 87.3634 94.8237 87.7211 94.3585C88.0789 93.9016 88.2868 92.0657 87.1553 91.7584C86.0239 91.451 83.6777 91.7085 83.2201 91.7584C82.7625 91.8082 76.8804 93.9514 76.8804 93.9514V92.2153L80.5079 87.5716C80.5079 87.5716 81.3315 86.367 80.1002 85.3286C79.8173 85.0877 78.8938 85.1376 78.1034 85.8935C77.4628 86.5082 72.9951 91.3015 72.7871 91.7584L72.7954 91.775Z" fill="#FFBF9D"/>
<path d="M81.9308 105.706C81.8892 105.59 83.0041 105.083 84.4184 104.568C85.8328 104.053 87.0142 103.729 87.0558 103.837C87.0974 103.953 85.9825 104.46 84.5682 104.975C83.1538 105.49 81.9724 105.814 81.9308 105.706Z" fill="#FF9A6C"/>
<path d="M83.1288 106.695C83.029 106.628 83.1371 106.271 83.2703 105.856C83.4117 105.44 83.5282 105.083 83.6447 105.091C83.7611 105.091 83.836 105.515 83.6779 105.989C83.5199 106.47 83.2204 106.761 83.1205 106.695H83.1288Z" fill="#FF9A6C"/>
<path d="M75.5239 95.2475C75.4324 95.1727 75.6071 94.7823 75.9815 94.4167C76.3559 94.0512 76.7553 93.885 76.8218 93.9764C76.8967 94.0761 76.6305 94.3835 76.281 94.7241C75.9316 95.0647 75.6155 95.314 75.5239 95.2392V95.2475Z" fill="#FF9A6C"/>
<path d="M70.1914 75.9501C70.1914 75.9501 72.2464 71.7297 78.3947 72.4276L80.0254 76.5815C80.0254 76.5815 76.4812 75.4433 71.9136 80.2536L70.1914 75.9584V75.9501Z" fill="#465159"/>
<path d="M65.4742 78.384C63.6771 79.4723 62.0631 81.192 61.5639 83.2358C61.3725 84.0167 61.6471 85.0635 62.2711 85.562C62.8618 86.0355 63.7437 85.8694 64.4425 85.5703C66.1564 84.8475 67.5708 83.5432 68.6856 82.0644C69.8005 80.5856 70.6574 78.924 71.4977 77.2707C69.4594 76.764 67.2629 77.2956 65.4659 78.384H65.4742ZM66.797 82.513C66.1065 83.3355 64.975 84.2992 63.9517 84.6398C63.6106 84.7561 63.1946 84.7893 62.92 84.5567C62.7203 84.3822 62.6039 84.0998 62.6371 83.8339C62.712 83.1693 62.9783 82.3634 63.4858 81.8151C63.9933 81.2585 64.559 80.5606 65.1164 80.0622C65.9734 79.2895 66.3894 78.9655 67.238 78.6249C68.2613 78.2095 69.1099 78.0018 70.0168 77.9271C68.7522 79.4391 68.0616 81.0093 66.797 82.513Z" fill="#465159"/>
<path d="M70.4322 71.888C69.309 70.1185 67.5452 68.54 65.4986 68.083C64.7165 67.9086 63.6765 68.2076 63.1857 68.839C62.7198 69.4372 62.9111 70.3095 63.219 71.0074C63.9761 72.7022 65.3072 74.0896 66.8131 75.1696C68.319 76.258 69.9996 77.0721 71.6718 77.878C72.1377 75.8343 71.5554 73.6493 70.4322 71.8797V71.888ZM66.3222 73.2921C65.4819 72.6191 64.5002 71.5059 64.1425 70.5006C64.0177 70.16 63.9761 69.7446 64.209 69.4704C64.3754 69.2627 64.6583 69.1464 64.9245 69.1714C65.5984 69.2295 66.3971 69.4788 66.9629 69.9772C67.5286 70.4674 68.2358 71.024 68.7516 71.5723C69.542 72.4114 69.8748 72.8268 70.2325 73.6576C70.6652 74.6712 70.8898 75.5186 70.9813 76.4158C69.4421 75.1862 67.8614 74.5299 66.3222 73.3004V73.2921Z" fill="#465159"/>
</svg>
