<svg width="224" height="193" viewBox="0 0 224 193" fill="none" xmlns="http://www.w3.org/2000/svg">
<g id="Group 2609824">
<line id="Line 70" x1="0.751953" y1="192.143" x2="223.249" y2="192.143" stroke="#E0E0E0"/>
<g id="Group 2610629">
<g id="job-hunt/rafiki">
<g id="Briefcases">
<path id="Vector" d="M138.039 109.367H105.034C104.569 109.367 104.191 109.744 104.191 110.21V123.976C104.191 124.441 104.569 124.818 105.034 124.818H138.039C138.505 124.818 138.882 124.441 138.882 123.976V110.21C138.882 109.744 138.505 109.367 138.039 109.367Z" fill="#0093C9"/>
<path id="Vector_2" opacity="0.6" d="M138.039 109.367H105.034C104.569 109.367 104.191 109.744 104.191 110.21V123.976C104.191 124.441 104.569 124.818 105.034 124.818H138.039C138.505 124.818 138.882 124.441 138.882 123.976V110.21C138.882 109.744 138.505 109.367 138.039 109.367Z" fill="white"/>
<path id="Vector_3" opacity="0.1" d="M138.035 109.367H105.019C104.795 109.367 104.581 109.455 104.423 109.614C104.265 109.772 104.176 109.986 104.176 110.21V114.624L121.356 118.006C121.462 118.027 121.57 118.027 121.675 118.006L138.861 114.624V110.21C138.861 109.989 138.775 109.777 138.62 109.619C138.465 109.462 138.255 109.371 138.035 109.367Z" fill="black"/>
<path id="Vector_4" d="M138.759 103.715H128.678V102.024C128.676 101.325 128.398 100.656 127.904 100.161C127.41 99.6674 126.74 99.3891 126.041 99.3877H117.035C116.336 99.3891 115.666 99.6674 115.172 100.161C114.678 100.656 114.4 101.325 114.398 102.024V103.715H104.322C104.102 103.715 103.89 103.803 103.734 103.959C103.578 104.115 103.49 104.327 103.49 104.547V112.873C103.491 113.065 103.558 113.251 103.68 113.4C103.802 113.548 103.972 113.65 104.16 113.689L121.379 117.076C121.484 117.092 121.592 117.092 121.697 117.076L138.916 113.689C139.105 113.65 139.275 113.549 139.398 113.4C139.52 113.252 139.589 113.066 139.591 112.873V104.547C139.591 104.327 139.503 104.115 139.347 103.959C139.191 103.803 138.98 103.715 138.759 103.715ZM116.403 102.024C116.404 101.856 116.471 101.696 116.589 101.577C116.707 101.458 116.867 101.39 117.035 101.387H126.041C126.209 101.39 126.369 101.458 126.487 101.577C126.605 101.696 126.672 101.856 126.673 102.024V103.715H116.408L116.403 102.024Z" fill="#0093C9"/>
<path id="Vector_5" opacity="0.6" d="M138.759 103.715H128.678V102.024C128.676 101.325 128.398 100.656 127.904 100.161C127.41 99.6674 126.74 99.3891 126.041 99.3877H117.035C116.336 99.3891 115.666 99.6674 115.172 100.161C114.678 100.656 114.4 101.325 114.398 102.024V103.715H104.322C104.102 103.715 103.89 103.803 103.734 103.959C103.578 104.115 103.49 104.327 103.49 104.547V112.873C103.491 113.065 103.558 113.251 103.68 113.4C103.802 113.548 103.972 113.65 104.16 113.689L121.379 117.076C121.484 117.092 121.592 117.092 121.697 117.076L138.916 113.689C139.105 113.65 139.275 113.549 139.398 113.4C139.52 113.252 139.589 113.066 139.591 112.873V104.547C139.591 104.327 139.503 104.115 139.347 103.959C139.191 103.803 138.98 103.715 138.759 103.715ZM116.403 102.024C116.404 101.856 116.471 101.696 116.589 101.577C116.707 101.458 116.867 101.39 117.035 101.387H126.041C126.209 101.39 126.369 101.458 126.487 101.577C126.605 101.696 126.672 101.856 126.673 102.024V103.715H116.408L116.403 102.024Z" fill="white"/>
<path id="Vector_6" d="M123.317 114.802H119.762C119.321 114.802 118.963 115.16 118.963 115.601V117.849C118.963 118.29 119.321 118.648 119.762 118.648H123.317C123.759 118.648 124.117 118.29 124.117 117.849V115.601C124.117 115.16 123.759 114.802 123.317 114.802Z" fill="#0093C9"/>
<path id="Vector_7" opacity="0.3" d="M123.317 114.802H119.762C119.321 114.802 118.963 115.16 118.963 115.601V117.849C118.963 118.29 119.321 118.648 119.762 118.648H123.317C123.759 118.648 124.117 118.29 124.117 117.849V115.601C124.117 115.16 123.759 114.802 123.317 114.802Z" fill="white"/>
<path id="Vector_8" d="M138.039 9.979H105.034C104.569 9.979 104.191 10.3564 104.191 10.8218V24.5879C104.191 25.0534 104.569 25.4307 105.034 25.4307H138.039C138.505 25.4307 138.882 25.0534 138.882 24.5879V10.8218C138.882 10.3564 138.505 9.979 138.039 9.979Z" fill="#0093C9"/>
<path id="Vector_9" opacity="0.6" d="M138.039 9.979H105.034C104.569 9.979 104.191 10.3564 104.191 10.8218V24.5879C104.191 25.0534 104.569 25.4307 105.034 25.4307H138.039C138.505 25.4307 138.882 25.0534 138.882 24.5879V10.8218C138.882 10.3564 138.505 9.979 138.039 9.979Z" fill="white"/>
<path id="Vector_10" opacity="0.1" d="M138.035 9.979H105.019C104.795 9.979 104.581 10.0678 104.423 10.2259C104.265 10.3839 104.176 10.5983 104.176 10.8218V15.2358L121.356 18.6179C121.462 18.6395 121.57 18.6395 121.675 18.6179L138.861 15.2358V10.8218C138.861 10.6011 138.775 10.3891 138.62 10.2315C138.465 10.0739 138.255 9.98325 138.035 9.979Z" fill="black"/>
<path id="Vector_11" d="M138.759 4.32756H128.678V2.63652C128.676 1.93771 128.398 1.26793 127.904 0.773796C127.41 0.279662 126.74 0.0014276 126.041 0H117.035C116.336 0.0014276 115.666 0.279662 115.172 0.773796C114.678 1.26793 114.4 1.93771 114.398 2.63652V4.32756H104.322C104.102 4.32756 103.89 4.41522 103.734 4.57126C103.578 4.72729 103.49 4.93892 103.49 5.15958V13.4851C103.49 13.6776 103.557 13.8641 103.679 14.0129C103.801 14.1617 103.971 14.2635 104.16 14.301L121.379 17.6668C121.484 17.6884 121.592 17.6884 121.697 17.6668L138.916 14.2793C139.103 14.2439 139.272 14.1459 139.395 14.0016C139.519 13.8573 139.59 13.6751 139.597 13.4851V5.15958C139.597 5.04986 139.575 4.94123 139.533 4.83993C139.491 4.73863 139.429 4.64667 139.351 4.56934C139.273 4.49201 139.181 4.43083 139.079 4.38934C138.978 4.34785 138.869 4.32685 138.759 4.32756ZM116.403 2.63652C116.403 2.46837 116.469 2.30703 116.588 2.18762C116.706 2.06822 116.867 2.00043 117.035 1.999H126.041C126.208 2.00041 126.368 2.06746 126.487 2.1857C126.605 2.30394 126.672 2.4639 126.673 2.63112V4.32216H116.408L116.403 2.63652Z" fill="#0093C9"/>
<path id="Vector_12" opacity="0.6" d="M138.759 4.32756H128.678V2.63652C128.676 1.93771 128.398 1.26793 127.904 0.773796C127.41 0.279662 126.74 0.0014276 126.041 0H117.035C116.336 0.0014276 115.666 0.279662 115.172 0.773796C114.678 1.26793 114.4 1.93771 114.398 2.63652V4.32756H104.322C104.102 4.32756 103.89 4.41522 103.734 4.57126C103.578 4.72729 103.49 4.93892 103.49 5.15958V13.4851C103.49 13.6776 103.557 13.8641 103.679 14.0129C103.801 14.1617 103.971 14.2635 104.16 14.301L121.379 17.6668C121.484 17.6884 121.592 17.6884 121.697 17.6668L138.916 14.2793C139.103 14.2439 139.272 14.1459 139.395 14.0016C139.519 13.8573 139.59 13.6751 139.597 13.4851V5.15958C139.597 5.04986 139.575 4.94123 139.533 4.83993C139.491 4.73863 139.429 4.64667 139.351 4.56934C139.273 4.49201 139.181 4.43083 139.079 4.38934C138.978 4.34785 138.869 4.32685 138.759 4.32756ZM116.403 2.63652C116.403 2.46837 116.469 2.30703 116.588 2.18762C116.706 2.06822 116.867 2.00043 117.035 1.999H126.041C126.208 2.00041 126.368 2.06746 126.487 2.1857C126.605 2.30394 126.672 2.4639 126.673 2.63112V4.32216H116.408L116.403 2.63652Z" fill="white"/>
<path id="Vector_13" d="M123.317 15.4189H119.762C119.321 15.4189 118.963 15.7769 118.963 16.2185V18.4661C118.963 18.9077 119.321 19.2657 119.762 19.2657H123.317C123.759 19.2657 124.117 18.9077 124.117 18.4661V16.2185C124.117 15.7769 123.759 15.4189 123.317 15.4189Z" fill="#0093C9"/>
<path id="Vector_14" opacity="0.3" d="M123.317 15.4189H119.762C119.321 15.4189 118.963 15.7769 118.963 16.2185V18.4661C118.963 18.9077 119.321 19.2657 119.762 19.2657H123.317C123.759 19.2657 124.117 18.9077 124.117 18.4661V16.2185C124.117 15.7769 123.759 15.4189 123.317 15.4189Z" fill="white"/>
<path id="Vector_15" d="M86.6272 109.367H53.6221C53.1566 109.367 52.7793 109.744 52.7793 110.21V123.976C52.7793 124.441 53.1566 124.818 53.6221 124.818H86.6272C87.0927 124.818 87.4701 124.441 87.4701 123.976V110.21C87.4701 109.744 87.0927 109.367 86.6272 109.367Z" fill="#0093C9"/>
<path id="Vector_16" opacity="0.6" d="M86.6272 109.367H53.6221C53.1566 109.367 52.7793 109.744 52.7793 110.21V123.976C52.7793 124.441 53.1566 124.818 53.6221 124.818H86.6272C87.0927 124.818 87.4701 124.441 87.4701 123.976V110.21C87.4701 109.744 87.0927 109.367 86.6272 109.367Z" fill="white"/>
<path id="Vector_17" opacity="0.1" d="M86.6488 109.367H53.6221C53.3986 109.367 53.1842 109.455 53.0262 109.614C52.8681 109.772 52.7793 109.986 52.7793 110.21V114.624L69.9599 118.006C70.0669 118.027 70.1771 118.027 70.2841 118.006L87.4701 114.624V110.21C87.4701 109.99 87.3843 109.779 87.2309 109.621C87.0775 109.464 86.8686 109.372 86.6488 109.367Z" fill="black"/>
<path id="Vector_18" d="M87.3411 103.715H77.2597V102.024C77.2582 101.325 76.98 100.656 76.4859 100.161C75.9917 99.6674 75.322 99.3891 74.6231 99.3877H65.6222C64.9234 99.3891 64.2537 99.6674 63.7595 100.161C63.2654 100.656 62.9872 101.325 62.9857 102.024V103.715H52.9043C52.6836 103.715 52.472 103.803 52.316 103.959C52.1599 104.115 52.0723 104.327 52.0723 104.547V112.873C52.0733 113.065 52.1405 113.251 52.2625 113.4C52.3845 113.548 52.5539 113.65 52.7422 113.689L69.9606 117.076C70.0681 117.092 70.1773 117.092 70.2848 117.076L87.5032 113.689C87.6915 113.65 87.8609 113.548 87.9829 113.4C88.1049 113.251 88.1721 113.065 88.1731 112.873V104.547C88.1731 104.327 88.0855 104.115 87.9294 103.959C87.7734 103.803 87.5618 103.715 87.3411 103.715ZM64.9847 102.024C64.9875 101.856 65.0556 101.695 65.1745 101.577C65.2935 101.458 65.454 101.389 65.6222 101.387H74.6231C74.7914 101.389 74.9519 101.458 75.0709 101.577C75.1898 101.695 75.2579 101.856 75.2607 102.024V103.715H64.9955L64.9847 102.024Z" fill="#0093C9"/>
<path id="Vector_19" opacity="0.6" d="M87.3411 103.715H77.2597V102.024C77.2582 101.325 76.98 100.656 76.4859 100.161C75.9917 99.6674 75.322 99.3891 74.6231 99.3877H65.6222C64.9234 99.3891 64.2537 99.6674 63.7595 100.161C63.2654 100.656 62.9872 101.325 62.9857 102.024V103.715H52.9043C52.6836 103.715 52.472 103.803 52.316 103.959C52.1599 104.115 52.0723 104.327 52.0723 104.547V112.873C52.0733 113.065 52.1405 113.251 52.2625 113.4C52.3845 113.548 52.5539 113.65 52.7422 113.689L69.9606 117.076C70.0681 117.092 70.1773 117.092 70.2848 117.076L87.5032 113.689C87.6915 113.65 87.8609 113.548 87.9829 113.4C88.1049 113.251 88.1721 113.065 88.1731 112.873V104.547C88.1731 104.327 88.0855 104.115 87.9294 103.959C87.7734 103.803 87.5618 103.715 87.3411 103.715ZM64.9847 102.024C64.9875 101.856 65.0556 101.695 65.1745 101.577C65.2935 101.458 65.454 101.389 65.6222 101.387H74.6231C74.7914 101.389 74.9519 101.458 75.0709 101.577C75.1898 101.695 75.2579 101.856 75.2607 102.024V103.715H64.9955L64.9847 102.024Z" fill="white"/>
<path id="Vector_20" d="M71.8995 114.802H68.3445C67.9029 114.802 67.5449 115.16 67.5449 115.601V117.849C67.5449 118.29 67.9029 118.648 68.3445 118.648H71.8995C72.3411 118.648 72.6991 118.29 72.6991 117.849V115.601C72.6991 115.16 72.3411 114.802 71.8995 114.802Z" fill="#0093C9"/>
<path id="Vector_21" opacity="0.3" d="M71.8995 114.802H68.3445C67.9029 114.802 67.5449 115.16 67.5449 115.601V117.849C67.5449 118.29 67.9029 118.648 68.3445 118.648H71.8995C72.3411 118.648 72.6991 118.29 72.6991 117.849V115.601C72.6991 115.16 72.3411 114.802 71.8995 114.802Z" fill="white"/>
<path id="Vector_22" d="M86.6272 9.979H53.6221C53.1566 9.979 52.7793 10.3564 52.7793 10.8218V24.5879C52.7793 25.0534 53.1566 25.4307 53.6221 25.4307H86.6272C87.0927 25.4307 87.4701 25.0534 87.4701 24.5879V10.8218C87.4701 10.3564 87.0927 9.979 86.6272 9.979Z" fill="#0093C9"/>
<path id="Vector_23" opacity="0.6" d="M86.6272 9.979H53.6221C53.1566 9.979 52.7793 10.3564 52.7793 10.8218V24.5879C52.7793 25.0534 53.1566 25.4307 53.6221 25.4307H86.6272C87.0927 25.4307 87.4701 25.0534 87.4701 24.5879V10.8218C87.4701 10.3564 87.0927 9.979 86.6272 9.979Z" fill="white"/>
<path id="Vector_24" opacity="0.1" d="M86.6488 9.979H53.6221C53.3986 9.979 53.1842 10.0678 53.0262 10.2259C52.8681 10.3839 52.7793 10.5983 52.7793 10.8218V15.2358L69.9599 18.6179C70.0669 18.6396 70.1771 18.6396 70.2841 18.6179L87.4701 15.2358V10.8218C87.4701 10.602 87.3843 10.3908 87.2309 10.2334C87.0775 10.0759 86.8686 9.98464 86.6488 9.979Z" fill="black"/>
<path id="Vector_25" d="M87.3411 4.32756H77.2597V2.63652C77.2582 1.93771 76.98 1.26793 76.4859 0.773796C75.9917 0.279662 75.322 0.0014276 74.6231 0H65.6222C64.9234 0.0014276 64.2537 0.279662 63.7595 0.773796C63.2654 1.26793 62.9872 1.93771 62.9857 2.63652V4.32756H52.9043C52.6836 4.32756 52.472 4.41522 52.316 4.57126C52.1599 4.72729 52.0723 4.93892 52.0723 5.15958V13.4851C52.0723 13.6776 52.1391 13.8641 52.2613 14.0129C52.3834 14.1617 52.5534 14.2635 52.7422 14.301L69.9606 17.6668C70.0676 17.6885 70.1778 17.6885 70.2848 17.6668L87.5032 14.2793C87.692 14.2418 87.8619 14.14 87.9841 13.9913C88.1063 13.8425 88.1731 13.656 88.1731 13.4635V5.15958C88.1731 4.93892 88.0855 4.72729 87.9294 4.57126C87.7734 4.41522 87.5618 4.32756 87.3411 4.32756ZM64.9847 2.63652C64.9861 2.46788 65.0538 2.30654 65.173 2.18729C65.2923 2.06803 65.4536 2.00041 65.6222 1.999H74.6231C74.7909 2.00039 74.9514 2.06726 75.0705 2.18536C75.1896 2.30345 75.2579 2.46341 75.2607 2.63112V4.32216H64.9955L64.9847 2.63652Z" fill="#0093C9"/>
<path id="Vector_26" opacity="0.6" d="M87.3411 4.32756H77.2597V2.63652C77.2582 1.93771 76.98 1.26793 76.4859 0.773796C75.9917 0.279662 75.322 0.0014276 74.6231 0H65.6222C64.9234 0.0014276 64.2537 0.279662 63.7595 0.773796C63.2654 1.26793 62.9872 1.93771 62.9857 2.63652V4.32756H52.9043C52.6836 4.32756 52.472 4.41522 52.316 4.57126C52.1599 4.72729 52.0723 4.93892 52.0723 5.15958V13.4851C52.0723 13.6776 52.1391 13.8641 52.2613 14.0129C52.3834 14.1617 52.5534 14.2635 52.7422 14.301L69.9606 17.6668C70.0676 17.6885 70.1778 17.6885 70.2848 17.6668L87.5032 14.2793C87.692 14.2418 87.8619 14.14 87.9841 13.9913C88.1063 13.8425 88.1731 13.656 88.1731 13.4635V5.15958C88.1731 4.93892 88.0855 4.72729 87.9294 4.57126C87.7734 4.41522 87.5618 4.32756 87.3411 4.32756ZM64.9847 2.63652C64.9861 2.46788 65.0538 2.30654 65.173 2.18729C65.2923 2.06803 65.4536 2.00041 65.6222 1.999H74.6231C74.7909 2.00039 74.9514 2.06726 75.0705 2.18536C75.1896 2.30345 75.2579 2.46341 75.2607 2.63112V4.32216H64.9955L64.9847 2.63652Z" fill="white"/>
<path id="Vector_27" d="M71.8995 15.4189H68.3445C67.9029 15.4189 67.5449 15.7769 67.5449 16.2185V18.4661C67.5449 18.9077 67.9029 19.2657 68.3445 19.2657H71.8995C72.3411 19.2657 72.6991 18.9077 72.6991 18.4661V16.2185C72.6991 15.7769 72.3411 15.4189 71.8995 15.4189Z" fill="#0093C9"/>
<path id="Vector_28" opacity="0.3" d="M71.8995 15.4189H68.3445C67.9029 15.4189 67.5449 15.7769 67.5449 16.2185V18.4661C67.5449 18.9077 67.9029 19.2657 68.3445 19.2657H71.8995C72.3411 19.2657 72.6991 18.9077 72.6991 18.4661V16.2185C72.6991 15.7769 72.3411 15.4189 71.8995 15.4189Z" fill="white"/>
<path id="Vector_29" d="M82.3282 75.1246H53.6236C53.3987 75.1246 53.1829 75.0352 53.0238 74.8761C52.8648 74.7171 52.7754 74.5013 52.7754 74.2764V60.5157C52.7762 60.4022 52.8001 60.2901 52.8456 60.1861C52.8676 60.1376 52.8929 60.0907 52.9213 60.0456C52.9513 59.9994 52.9877 59.9576 53.0293 59.9214C53.1867 59.7631 53.4004 59.6737 53.6236 59.6729H80.7938C80.5678 61.5584 80.4937 63.4591 80.5723 65.3565C80.5723 65.6645 80.5723 65.9724 80.6209 66.275C80.6587 66.8422 80.702 67.4149 80.7668 67.9822C81.0449 70.4096 81.568 72.8026 82.3282 75.1246Z" fill="#0093C9"/>
<path id="Vector_30" opacity="0.6" d="M82.3282 75.1246H53.6236C53.3987 75.1246 53.1829 75.0352 53.0238 74.8761C52.8648 74.7171 52.7754 74.5013 52.7754 74.2764V60.5157C52.7762 60.4022 52.8001 60.2901 52.8456 60.1861C52.8676 60.1376 52.8929 60.0907 52.9213 60.0456C52.9513 59.9994 52.9877 59.9576 53.0293 59.9214C53.1867 59.7631 53.4004 59.6737 53.6236 59.6729H80.7938C80.5678 61.5584 80.4937 63.4591 80.5723 65.3565C80.5723 65.6645 80.5723 65.9724 80.6209 66.275C80.6587 66.8422 80.702 67.4149 80.7668 67.9822C81.0449 70.4096 81.568 72.8026 82.3282 75.1246Z" fill="white"/>
<path id="Vector_31" opacity="0.1" d="M80.7923 59.6729C80.5663 61.5584 80.4922 63.4591 80.5708 65.3565C80.5708 65.6645 80.5708 65.9724 80.6194 66.275L72.6991 67.8309L70.2787 68.3064C70.1741 68.3334 70.0644 68.3334 69.9599 68.3064L67.5449 67.8363L52.7793 64.9297V60.5103C52.781 60.3992 52.803 60.2893 52.8441 60.1861C52.8661 60.1376 52.8914 60.0907 52.9198 60.0456C52.9498 59.9994 52.9862 59.9576 53.0278 59.9214C53.1852 59.7631 53.3989 59.6737 53.6221 59.6729H80.7923Z" fill="black"/>
<path id="Vector_32" d="M81.9222 54.0214H77.2651V52.3304C77.2622 51.6311 76.9828 50.9613 76.4878 50.4673C75.9928 49.9733 75.3225 49.6953 74.6231 49.6938H65.6222C64.923 49.6938 64.2524 49.9716 63.7579 50.4661C63.2635 50.9605 62.9857 51.6311 62.9857 52.3304V54.0214H52.9043C52.795 54.0214 52.6868 54.0429 52.5859 54.0847C52.4849 54.1266 52.3932 54.1878 52.316 54.2651C52.2387 54.3424 52.1774 54.4341 52.1356 54.535C52.0938 54.636 52.0723 54.7442 52.0723 54.8534V63.1736C52.0724 63.3675 52.1397 63.5554 52.2629 63.7051C52.3861 63.8549 52.5574 63.9573 52.7476 63.9948H52.78L67.5456 66.9069L69.9606 67.3769C70.0658 67.3984 70.1742 67.3984 70.2794 67.3769L72.6998 66.9015L80.5715 65.3509C80.4929 63.4535 80.567 61.5528 80.793 59.6672C81.0174 57.7581 81.395 55.87 81.9222 54.0214ZM64.9847 52.3304C64.9875 52.1627 65.0558 52.0027 65.1749 51.8846C65.294 51.7665 65.4545 51.6996 65.6222 51.6983H74.6231C74.7904 51.6997 74.9503 51.7667 75.0686 51.885C75.1868 52.0032 75.2539 52.1632 75.2553 52.3304V54.0214H64.9901L64.9847 52.3304Z" fill="#0093C9"/>
<path id="Vector_33" opacity="0.6" d="M81.9222 54.0214H77.2651V52.3304C77.2622 51.6311 76.9828 50.9613 76.4878 50.4673C75.9928 49.9733 75.3225 49.6953 74.6231 49.6938H65.6222C64.923 49.6938 64.2524 49.9716 63.7579 50.4661C63.2635 50.9605 62.9857 51.6311 62.9857 52.3304V54.0214H52.9043C52.795 54.0214 52.6868 54.0429 52.5859 54.0847C52.4849 54.1266 52.3932 54.1878 52.316 54.2651C52.2387 54.3424 52.1774 54.4341 52.1356 54.535C52.0938 54.636 52.0723 54.7442 52.0723 54.8534V63.1736C52.0724 63.3675 52.1397 63.5554 52.2629 63.7051C52.3861 63.8549 52.5574 63.9573 52.7476 63.9948H52.78L67.5456 66.9069L69.9606 67.3769C70.0658 67.3984 70.1742 67.3984 70.2794 67.3769L72.6998 66.9015L80.5715 65.3509C80.4929 63.4535 80.567 61.5528 80.793 59.6672C81.0174 57.7581 81.395 55.87 81.9222 54.0214ZM64.9847 52.3304C64.9875 52.1627 65.0558 52.0027 65.1749 51.8846C65.294 51.7665 65.4545 51.6996 65.6222 51.6983H74.6231C74.7904 51.6997 74.9503 51.7667 75.0686 51.885C75.1868 52.0032 75.2539 52.1632 75.2553 52.3304V54.0214H64.9901L64.9847 52.3304Z" fill="white"/>
<path id="Vector_34" d="M71.8995 65.1079H68.3445C67.9029 65.1079 67.5449 65.4659 67.5449 65.9075V68.155C67.5449 68.5966 67.9029 68.9546 68.3445 68.9546H71.8995C72.3411 68.9546 72.6991 68.5966 72.6991 68.155V65.9075C72.6991 65.4659 72.3411 65.1079 71.8995 65.1079Z" fill="#0093C9"/>
<path id="Vector_35" opacity="0.3" d="M71.8995 65.1079H68.3445C67.9029 65.1079 67.5449 65.4659 67.5449 65.9075V68.155C67.5449 68.5966 67.9029 68.9546 68.3445 68.9546H71.8995C72.3411 68.9546 72.6991 68.5966 72.6991 68.155V65.9075C72.6991 65.4659 72.3411 65.1079 71.8995 65.1079Z" fill="white"/>
<path id="Vector_36" d="M156.447 124.813H189.452C189.918 124.813 190.295 124.436 190.295 123.971V110.205C190.295 109.739 189.918 109.362 189.452 109.362H156.447C155.982 109.362 155.604 109.739 155.604 110.205V123.971C155.604 124.436 155.982 124.813 156.447 124.813Z" fill="#0093C9"/>
<path id="Vector_37" opacity="0.6" d="M156.447 124.813H189.452C189.918 124.813 190.295 124.436 190.295 123.971V110.205C190.295 109.739 189.918 109.362 189.452 109.362H156.447C155.982 109.362 155.604 109.739 155.604 110.205V123.971C155.604 124.436 155.982 124.813 156.447 124.813Z" fill="white"/>
<path id="Vector_38" opacity="0.1" d="M156.452 109.367H189.452C189.676 109.367 189.89 109.456 190.048 109.614C190.206 109.772 190.295 109.986 190.295 110.21V114.624L173.093 118.006C172.987 118.027 172.879 118.027 172.774 118.006L155.588 114.624V110.21C155.588 110.097 155.61 109.986 155.654 109.882C155.698 109.778 155.762 109.685 155.842 109.606C155.923 109.527 156.018 109.466 156.123 109.425C156.228 109.384 156.34 109.364 156.452 109.367Z" fill="black"/>
<path id="Vector_39" d="M155.734 103.715H165.816V102.024C165.817 101.325 166.096 100.656 166.59 100.161C167.084 99.6674 167.754 99.3891 168.452 99.3877H177.459C178.158 99.3891 178.827 99.6674 179.321 100.161C179.816 100.656 180.094 101.325 180.095 102.024V103.715H190.171C190.281 103.715 190.389 103.737 190.49 103.779C190.591 103.82 190.682 103.882 190.76 103.959C190.837 104.036 190.898 104.128 190.94 104.229C190.982 104.33 191.003 104.438 191.003 104.547V112.873C191.002 113.065 190.935 113.251 190.813 113.4C190.691 113.548 190.522 113.65 190.333 113.689L173.093 117.076C172.986 117.092 172.877 117.092 172.769 117.076L155.551 113.689C155.362 113.65 155.193 113.548 155.071 113.4C154.949 113.251 154.882 113.065 154.881 112.873V104.547C154.881 104.436 154.903 104.326 154.946 104.224C154.989 104.121 155.053 104.029 155.132 103.951C155.212 103.874 155.306 103.813 155.409 103.772C155.513 103.732 155.623 103.712 155.734 103.715ZM178.091 102.024C178.089 101.856 178.023 101.696 177.905 101.577C177.786 101.458 177.626 101.39 177.459 101.387H168.452C168.284 101.389 168.124 101.458 168.005 101.577C167.886 101.695 167.818 101.856 167.815 102.024V103.715H178.08L178.091 102.024Z" fill="#0093C9"/>
<path id="Vector_40" opacity="0.6" d="M155.734 103.715H165.816V102.024C165.817 101.325 166.096 100.656 166.59 100.161C167.084 99.6674 167.754 99.3891 168.452 99.3877H177.459C178.158 99.3891 178.827 99.6674 179.321 100.161C179.816 100.656 180.094 101.325 180.095 102.024V103.715H190.171C190.281 103.715 190.389 103.737 190.49 103.779C190.591 103.82 190.682 103.882 190.76 103.959C190.837 104.036 190.898 104.128 190.94 104.229C190.982 104.33 191.003 104.438 191.003 104.547V112.873C191.002 113.065 190.935 113.251 190.813 113.4C190.691 113.548 190.522 113.65 190.333 113.689L173.093 117.076C172.986 117.092 172.877 117.092 172.769 117.076L155.551 113.689C155.362 113.65 155.193 113.548 155.071 113.4C154.949 113.251 154.882 113.065 154.881 112.873V104.547C154.881 104.436 154.903 104.326 154.946 104.224C154.989 104.121 155.053 104.029 155.132 103.951C155.212 103.874 155.306 103.813 155.409 103.772C155.513 103.732 155.623 103.712 155.734 103.715ZM178.091 102.024C178.089 101.856 178.023 101.696 177.905 101.577C177.786 101.458 177.626 101.39 177.459 101.387H168.452C168.284 101.389 168.124 101.458 168.005 101.577C167.886 101.695 167.818 101.856 167.815 102.024V103.715H178.08L178.091 102.024Z" fill="white"/>
<path id="Vector_41" d="M171.175 118.649H174.73C175.171 118.649 175.529 118.291 175.529 117.849V115.602C175.529 115.16 175.171 114.802 174.73 114.802H171.175C170.733 114.802 170.375 115.16 170.375 115.602V117.849C170.375 118.291 170.733 118.649 171.175 118.649Z" fill="#0093C9"/>
<path id="Vector_42" opacity="0.3" d="M171.175 118.649H174.73C175.171 118.649 175.529 118.291 175.529 117.849V115.602C175.529 115.16 175.171 114.802 174.73 114.802H171.175C170.733 114.802 170.375 115.16 170.375 115.602V117.849C170.375 118.291 170.733 118.649 171.175 118.649Z" fill="white"/>
<path id="Vector_43" d="M156.447 25.4253L189.452 25.4253C189.918 25.4253 190.295 25.0479 190.295 24.5825V10.8164C190.295 10.3509 189.918 9.97356 189.452 9.97356L156.447 9.97356C155.982 9.97356 155.604 10.3509 155.604 10.8164V24.5825C155.604 25.0479 155.982 25.4253 156.447 25.4253Z" fill="#0093C9"/>
<path id="Vector_44" opacity="0.6" d="M156.447 25.4253L189.452 25.4253C189.918 25.4253 190.295 25.0479 190.295 24.5825V10.8164C190.295 10.3509 189.918 9.97356 189.452 9.97356L156.447 9.97356C155.982 9.97356 155.604 10.3509 155.604 10.8164V24.5825C155.604 25.0479 155.982 25.4253 156.447 25.4253Z" fill="white"/>
<path id="Vector_45" opacity="0.1" d="M156.452 9.979H189.452C189.675 9.979 189.89 10.0678 190.048 10.2259C190.206 10.3839 190.295 10.5983 190.295 10.8218V15.2358L173.093 18.6179C172.987 18.6395 172.879 18.6395 172.774 18.6179L155.609 15.2358V10.8218C155.609 10.5983 155.698 10.3839 155.856 10.2259C156.014 10.0678 156.229 9.979 156.452 9.979Z" fill="black"/>
<path id="Vector_46" d="M155.734 4.32761H165.816V2.63657C165.817 1.93776 166.096 1.26798 166.59 0.773846C167.084 0.279712 167.754 0.00147736 168.452 4.97554e-05H177.459C177.807 -0.00208504 178.151 0.0644966 178.473 0.195972C178.796 0.327446 179.088 0.521226 179.335 0.766192C179.582 1.01116 179.779 1.30248 179.913 1.62345C180.047 1.94442 180.116 2.28871 180.117 2.63657V4.32761H190.193C190.414 4.32761 190.625 4.41527 190.781 4.57131C190.937 4.72734 191.025 4.93897 191.025 5.15963V13.4852C191.025 13.6777 190.958 13.8642 190.836 14.0129C190.714 14.1617 190.544 14.2635 190.355 14.301L173.093 17.6669C172.986 17.6886 172.876 17.6886 172.769 17.6669L155.551 14.2794C155.362 14.2419 155.192 14.1401 155.07 13.9913C154.948 13.8426 154.881 13.6561 154.881 13.4636V5.15963C154.881 5.04853 154.903 4.93854 154.946 4.83616C154.989 4.73378 155.053 4.64108 155.132 4.56353C155.212 4.48598 155.306 4.42516 155.409 4.38464C155.513 4.34412 155.623 4.32473 155.734 4.32761ZM178.091 2.63657C178.091 2.46842 178.024 2.30708 177.906 2.18767C177.788 2.06827 177.627 2.00048 177.459 1.99905H168.452C168.285 2.00044 168.124 2.06731 168.005 2.18541C167.886 2.3035 167.818 2.46346 167.815 2.63117V4.32221H178.08L178.091 2.63657Z" fill="#0093C9"/>
<path id="Vector_47" opacity="0.6" d="M155.734 4.32761H165.816V2.63657C165.817 1.93776 166.096 1.26798 166.59 0.773846C167.084 0.279712 167.754 0.00147736 168.452 4.97554e-05H177.459C177.807 -0.00208504 178.151 0.0644966 178.473 0.195972C178.796 0.327446 179.088 0.521226 179.335 0.766192C179.582 1.01116 179.779 1.30248 179.913 1.62345C180.047 1.94442 180.116 2.28871 180.117 2.63657V4.32761H190.193C190.414 4.32761 190.625 4.41527 190.781 4.57131C190.937 4.72734 191.025 4.93897 191.025 5.15963V13.4852C191.025 13.6777 190.958 13.8642 190.836 14.0129C190.714 14.1617 190.544 14.2635 190.355 14.301L173.093 17.6669C172.986 17.6886 172.876 17.6886 172.769 17.6669L155.551 14.2794C155.362 14.2419 155.192 14.1401 155.07 13.9913C154.948 13.8426 154.881 13.6561 154.881 13.4636V5.15963C154.881 5.04853 154.903 4.93854 154.946 4.83616C154.989 4.73378 155.053 4.64108 155.132 4.56353C155.212 4.48598 155.306 4.42516 155.409 4.38464C155.513 4.34412 155.623 4.32473 155.734 4.32761ZM178.091 2.63657C178.091 2.46842 178.024 2.30708 177.906 2.18767C177.788 2.06827 177.627 2.00048 177.459 1.99905H168.452C168.285 2.00044 168.124 2.06731 168.005 2.18541C167.886 2.3035 167.818 2.46346 167.815 2.63117V4.32221H178.08L178.091 2.63657Z" fill="white"/>
<path id="Vector_48" d="M171.175 19.2607H174.73C175.171 19.2607 175.529 18.9027 175.529 18.4611V16.2136C175.529 15.772 175.171 15.414 174.73 15.414H171.175C170.733 15.414 170.375 15.772 170.375 16.2136V18.4611C170.375 18.9027 170.733 19.2607 171.175 19.2607Z" fill="#0093C9"/>
<path id="Vector_49" opacity="0.3" d="M171.175 19.2607H174.73C175.171 19.2607 175.529 18.9027 175.529 18.4611V16.2136C175.529 15.772 175.171 15.414 174.73 15.414H171.175C170.733 15.414 170.375 15.772 170.375 16.2136V18.4611C170.375 18.9027 170.733 19.2607 171.175 19.2607Z" fill="white"/>
<path id="Vector_50" d="M160.77 75.1246H189.458C189.682 75.1232 189.896 75.0332 190.054 74.8742C190.212 74.7153 190.301 74.5004 190.301 74.2764V60.5157C190.3 60.4022 190.276 60.2901 190.23 60.1861C190.211 60.1366 190.185 60.0894 190.155 60.0456C190.125 59.9994 190.088 59.9576 190.047 59.9214C189.969 59.8425 189.877 59.7799 189.775 59.7373C189.673 59.6946 189.563 59.6727 189.452 59.6729H162.288C162.514 61.5584 162.588 63.4591 162.509 65.3565C162.509 65.6645 162.509 65.9724 162.461 66.275C162.428 66.8422 162.38 67.4149 162.315 67.9822C162.042 70.409 161.524 72.802 160.77 75.1246Z" fill="#0093C9"/>
<path id="Vector_51" opacity="0.6" d="M160.77 75.1246H189.458C189.682 75.1232 189.896 75.0332 190.054 74.8742C190.212 74.7153 190.301 74.5004 190.301 74.2764V60.5157C190.3 60.4022 190.276 60.2901 190.23 60.1861C190.211 60.1366 190.185 60.0894 190.155 60.0456C190.125 59.9994 190.088 59.9576 190.047 59.9214C189.969 59.8425 189.877 59.7799 189.775 59.7373C189.673 59.6946 189.563 59.6727 189.452 59.6729H162.288C162.514 61.5584 162.588 63.4591 162.509 65.3565C162.509 65.6645 162.509 65.9724 162.461 66.275C162.428 66.8422 162.38 67.4149 162.315 67.9822C162.042 70.409 161.524 72.802 160.77 75.1246Z" fill="white"/>
<path id="Vector_52" opacity="0.1" d="M162.287 59.6729C162.513 61.5584 162.587 63.4591 162.509 65.3565C162.509 65.6645 162.509 65.9724 162.46 66.275L170.391 67.8309L172.812 68.3064C172.916 68.3334 173.026 68.3334 173.13 68.3064L175.545 67.8363L190.311 64.9297V60.5103C190.309 60.3992 190.287 60.2893 190.246 60.1861C190.226 60.1366 190.201 60.0894 190.17 60.0456C190.14 59.9994 190.104 59.9576 190.062 59.9214C189.985 59.8425 189.892 59.7799 189.79 59.7373C189.688 59.6946 189.579 59.6727 189.468 59.6729H162.287Z" fill="black"/>
<path id="Vector_53" d="M161.152 54.0214H165.815V52.3304C165.816 51.6316 166.095 50.9618 166.589 50.4676C167.083 49.9735 167.753 49.6953 168.452 49.6938H177.452C178.152 49.6938 178.823 49.9714 179.319 50.4657C179.814 50.96 180.093 51.6306 180.094 52.3304V54.0214H190.17C190.391 54.0214 190.603 54.1091 190.759 54.2651C190.915 54.4211 191.002 54.6328 191.002 54.8534V63.1736C191.003 63.3667 190.936 63.554 190.814 63.7037C190.692 63.8533 190.522 63.9562 190.332 63.9948H190.295L175.529 66.9069L173.092 67.3715C172.987 67.393 172.879 67.393 172.774 67.3715L170.353 66.8961L162.482 65.3455C162.635 61.5159 162.179 57.6863 161.131 53.9998L161.152 54.0214ZM178.09 52.3304C178.087 52.1627 178.019 52.0027 177.9 51.8846C177.781 51.7665 177.62 51.6996 177.452 51.6983H168.452C168.284 51.6997 168.124 51.7667 168.006 51.885C167.888 52.0032 167.821 52.1632 167.819 52.3304V54.0214H178.085L178.09 52.3304Z" fill="#0093C9"/>
<path id="Vector_54" opacity="0.6" d="M161.152 54.0214H165.815V52.3304C165.816 51.6316 166.095 50.9618 166.589 50.4676C167.083 49.9735 167.753 49.6953 168.452 49.6938H177.452C178.152 49.6938 178.823 49.9714 179.319 50.4657C179.814 50.96 180.093 51.6306 180.094 52.3304V54.0214H190.17C190.391 54.0214 190.603 54.1091 190.759 54.2651C190.915 54.4211 191.002 54.6328 191.002 54.8534V63.1736C191.003 63.3667 190.936 63.554 190.814 63.7037C190.692 63.8533 190.522 63.9562 190.332 63.9948H190.295L175.529 66.9069L173.092 67.3715C172.987 67.393 172.879 67.393 172.774 67.3715L170.353 66.8961L162.482 65.3455C162.635 61.5159 162.179 57.6863 161.131 53.9998L161.152 54.0214ZM178.09 52.3304C178.087 52.1627 178.019 52.0027 177.9 51.8846C177.781 51.7665 177.62 51.6996 177.452 51.6983H168.452C168.284 51.6997 168.124 51.7667 168.006 51.885C167.888 52.0032 167.821 52.1632 167.819 52.3304V54.0214H178.085L178.09 52.3304Z" fill="white"/>
<path id="Vector_55" d="M171.175 68.9604H174.73C175.171 68.9604 175.529 68.6025 175.529 68.1609V65.9133C175.529 65.4717 175.171 65.1137 174.73 65.1137H171.175C170.733 65.1137 170.375 65.4717 170.375 65.9133V68.1609C170.375 68.6025 170.733 68.9604 171.175 68.9604Z" fill="#0093C9"/>
<path id="Vector_56" opacity="0.3" d="M171.175 68.9604H174.73C175.171 68.9604 175.529 68.6025 175.529 68.1609V65.9133C175.529 65.4717 175.171 65.1137 174.73 65.1137H171.175C170.733 65.1137 170.375 65.4717 170.375 65.9133V68.1609C170.375 68.6025 170.733 68.9604 171.175 68.9604Z" fill="white"/>
<path id="Vector_57" d="M146.998 56.3179H99.5735C98.9051 56.3179 98.3633 56.8597 98.3633 57.5281V77.3074C98.3633 77.9758 98.9051 78.5176 99.5735 78.5176H146.998C147.667 78.5176 148.209 77.9758 148.209 77.3074V57.5281C148.209 56.8597 147.667 56.3179 146.998 56.3179Z" fill="#0093C9"/>
<path id="Vector_58" d="M129.752 52.7844H116.812C115.831 52.783 114.891 52.3926 114.197 51.6989C113.503 51.0052 113.113 50.0647 113.111 49.0836V45.7609C113.113 44.7798 113.503 43.8393 114.197 43.1456C114.891 42.4519 115.831 42.0615 116.812 42.0601H129.752C130.733 42.0601 131.675 42.45 132.369 43.144C133.063 43.8381 133.453 44.7794 133.453 45.7609V49.0674C133.455 49.5547 133.36 50.0377 133.175 50.4886C132.99 50.9395 132.718 51.3494 132.374 51.6948C132.03 52.0401 131.622 52.3142 131.172 52.5012C130.722 52.6882 130.239 52.7844 129.752 52.7844ZM116.812 44.7776C116.552 44.7804 116.303 44.8847 116.118 45.0684C115.933 45.252 115.828 45.5005 115.823 45.7609V49.0674C115.823 49.3324 115.929 49.5867 116.116 49.7741C116.304 49.9616 116.558 50.0669 116.823 50.0669H129.762C130.028 50.0669 130.282 49.9616 130.469 49.7741C130.657 49.5867 130.762 49.3324 130.762 49.0674V45.7609C130.762 45.4958 130.657 45.2416 130.469 45.0542C130.282 44.8667 130.028 44.7614 129.762 44.7614L116.812 44.7776Z" fill="#0093C9"/>
<path id="Vector_59" opacity="0.2" d="M146.993 56.3179H99.5789C99.4195 56.3172 99.2616 56.348 99.1141 56.4085C98.9667 56.469 98.8326 56.558 98.7197 56.6704C98.6067 56.7829 98.5171 56.9165 98.4559 57.0637C98.3948 57.2109 98.3633 57.3687 98.3633 57.5281V63.8763L123.054 68.7387C123.205 68.7716 123.362 68.7716 123.513 68.7387L148.209 63.8763V57.5281C148.209 57.3687 148.177 57.2109 148.116 57.0637C148.055 56.9165 147.965 56.7829 147.852 56.6704C147.739 56.558 147.605 56.469 147.458 56.4085C147.31 56.348 147.152 56.3172 146.993 56.3179Z" fill="black"/>
<path id="Vector_60" d="M148.24 62.509L123.501 67.3714C123.347 67.3985 123.19 67.3985 123.036 67.3714L98.2972 62.509C98.0254 62.4553 97.7805 62.3092 97.6042 62.0955C97.4279 61.8818 97.3311 61.6136 97.3301 61.3366V49.3966C97.3301 49.2398 97.361 49.0846 97.421 48.9397C97.481 48.7948 97.5689 48.6632 97.6798 48.5523C97.7907 48.4415 97.9223 48.3535 98.0671 48.2935C98.212 48.2335 98.3673 48.2026 98.5241 48.2026H148.024C148.18 48.2026 148.336 48.2335 148.481 48.2935C148.625 48.3535 148.757 48.4415 148.868 48.5523C148.979 48.6632 149.067 48.7948 149.127 48.9397C149.187 49.0846 149.218 49.2398 149.218 49.3966V61.3582C149.212 61.6333 149.112 61.8981 148.934 62.1078C148.756 62.3175 148.51 62.4592 148.24 62.509Z" fill="#0093C9"/>
<path id="Vector_61" d="M125.846 64.1357H120.729C120.097 64.1357 119.584 64.6485 119.584 65.2811V68.5173C119.584 69.1499 120.097 69.6627 120.729 69.6627H125.846C126.478 69.6627 126.991 69.1499 126.991 68.5173V65.2811C126.991 64.6485 126.478 64.1357 125.846 64.1357Z" fill="#0093C9"/>
<path id="Vector_62" opacity="0.4" d="M125.846 64.1357H120.729C120.097 64.1357 119.584 64.6485 119.584 65.2811V68.5173C119.584 69.1499 120.097 69.6627 120.729 69.6627H125.846C126.478 69.6627 126.991 69.1499 126.991 68.5173V65.2811C126.991 64.6485 126.478 64.1357 125.846 64.1357Z" fill="black"/>
</g>
<g id="magnifying-glass">
<path id="Vector_63" d="M104.026 101.725C98.1864 98.9318 93.089 94.7985 89.1491 89.6619C85.2092 84.5254 82.5383 78.5308 81.3539 72.1666C80.1696 65.8023 80.5052 59.2482 82.3334 53.0382C84.1617 46.8282 87.4309 41.1378 91.8749 36.4306C96.3188 31.7233 101.812 28.1323 107.906 25.95C114.001 23.7676 120.525 23.0557 126.947 23.8722C133.369 24.6887 139.507 27.0104 144.861 30.6484C150.216 34.2864 154.636 39.1377 157.76 44.8073C161.968 52.4317 163.645 61.1958 162.55 69.8352C161.454 78.4745 157.642 86.5424 151.664 92.8749C145.686 99.2074 137.85 103.477 129.288 105.068C120.726 106.658 111.88 105.488 104.026 101.725ZM138.294 30.0531C130.046 26.116 120.663 25.255 111.836 27.6255C103.01 29.996 95.3201 35.4419 90.1542 42.9815C84.9884 50.521 82.686 59.6581 83.6623 68.7453C84.6386 77.8326 88.8293 86.2721 95.4788 92.5422C102.128 98.8124 110.799 102.501 119.928 102.942C129.057 103.384 138.043 100.549 145.267 94.9497C152.49 89.3504 157.475 81.3546 159.324 72.4039C161.172 63.4533 159.762 54.1367 155.348 46.1339C151.482 39.1243 145.519 33.501 138.294 30.0531Z" fill="#343C41"/>
<path id="Vector_64" d="M105.014 99.6508C99.1708 96.8589 94.0697 92.7259 90.1264 87.5887C86.1832 82.4515 83.5093 76.4554 82.3228 70.0889C81.1363 63.7224 81.4707 57.1656 83.2987 50.9528C85.1266 44.74 88.3965 39.047 92.8419 34.3376C97.2872 29.6281 102.782 26.0355 108.879 23.8525C114.976 21.6694 121.503 20.9576 127.927 21.7752C134.352 22.5928 140.492 24.9165 145.848 28.5571C151.204 32.1976 155.624 37.0521 158.748 42.7248C162.953 50.3497 164.629 59.113 163.532 67.7514C162.435 76.3897 158.624 84.4565 152.646 90.7887C146.669 97.1209 138.836 101.391 130.275 102.984C121.714 104.577 112.869 103.41 105.014 99.6508ZM139.282 27.9787C131.034 24.0415 121.651 23.1806 112.824 25.5511C103.998 27.9215 96.3081 33.3675 91.1422 40.907C85.9763 48.4466 83.674 57.5837 84.6503 66.6709C85.6265 75.7581 89.8172 84.1976 96.4667 90.4678C103.116 96.738 111.787 100.426 120.916 100.868C130.045 101.309 139.031 98.4746 146.255 92.8753C153.478 87.2759 158.463 79.2802 160.312 70.3295C162.16 61.3789 160.75 52.0623 156.336 44.0595C152.47 37.0499 146.507 31.4266 139.282 27.9787Z" fill="#889AA7"/>
<path id="Vector_65" d="M92.0547 52.8073C92.0927 52.3781 92.168 51.9531 92.2798 51.5369C92.3749 51.0417 92.5011 50.5529 92.6577 50.0736C92.8396 49.4279 93.0543 48.7919 93.3009 48.168L93.711 47.0826C93.8638 46.7047 94.0648 46.3348 94.2497 45.9328C94.6115 45.1287 95.102 44.3247 95.5925 43.4805C96.7333 41.6697 98.0532 39.9781 99.5322 38.4311C101.039 36.9146 102.693 35.5517 104.469 34.3626C105.249 33.8535 106.054 33.3839 106.881 32.9556C107.267 32.7546 107.637 32.5455 108.007 32.3767L109.084 31.9184C109.699 31.6543 110.327 31.4235 110.966 31.2269C111.441 31.0557 111.927 30.916 112.421 30.8088C112.835 30.6913 113.257 30.6026 113.683 30.5435C113.287 30.7109 112.878 30.8479 112.461 30.9535C111.978 31.0867 111.503 31.2478 111.038 31.4359C110.412 31.6498 109.797 31.8967 109.197 32.1757L108.144 32.65C107.774 32.8189 107.412 33.036 107.034 33.237C106.23 33.631 105.49 34.1456 104.662 34.6601C102.928 35.8418 101.313 37.1881 99.8378 38.6803C98.3778 40.2058 97.0667 41.8669 95.9221 43.6413C95.4317 44.4453 94.9331 45.2493 94.5633 46.0534C94.3784 46.4393 94.1693 46.8011 94.0085 47.171L93.5582 48.2404C93.2527 48.9077 93.0678 49.551 92.8668 50.1057C92.6941 50.5766 92.5491 51.0572 92.4326 51.545C92.3405 51.9752 92.2142 52.3973 92.0547 52.8073Z" fill="white"/>
</g>
<g id="Character">
<path id="Vector_66" d="M44.5098 183.345V191.672L61.3086 191.592C61.1883 189.903 51.9666 186.534 51.9666 186.534L52.1511 183.325L44.5098 183.345Z" fill="#889AA7"/>
<g id="Group" opacity="0.6">
<path id="Vector_67" d="M47.2335 185.778C47.0699 185.838 46.9335 185.955 46.8494 186.108C46.7653 186.26 46.7393 186.438 46.776 186.608C46.8144 186.776 46.9172 186.922 47.0621 187.014C47.207 187.106 47.3825 187.138 47.5505 187.102C47.7241 187.037 47.8683 186.911 47.9567 186.748C48.0452 186.586 48.0719 186.396 48.0321 186.215C48.0025 186.132 47.9568 186.056 47.8974 185.99C47.8381 185.925 47.7664 185.872 47.6866 185.835C47.6067 185.798 47.5202 185.777 47.4321 185.773C47.344 185.769 47.256 185.783 47.1733 185.814" fill="white"/>
</g>
<path id="Vector_68" d="M44.5098 191.67V190.343L60.5545 190.531C60.5545 190.531 61.3889 191.033 61.3127 191.59L44.5098 191.67Z" fill="#343C41"/>
<path id="Vector_69" d="M51.975 186.694C51.975 186.782 51.5737 186.826 51.1724 187.095C50.7711 187.364 50.5664 187.745 50.4902 187.713C50.4139 187.681 50.5303 187.175 51.0159 186.842C51.5015 186.509 51.991 186.613 51.975 186.694Z" fill="#343C41"/>
<path id="Vector_70" d="M54.1774 187.464C54.1774 187.548 53.8443 187.7 53.5714 188.07C53.2985 188.439 53.2263 188.828 53.146 188.824C53.0658 188.82 53.0056 188.334 53.3507 187.881C53.6958 187.427 54.1734 187.383 54.1774 187.464Z" fill="#343C41"/>
<path id="Vector_71" d="M55.1675 189.586C55.0912 189.606 54.9708 189.185 55.1675 188.699C55.3641 188.213 55.7493 188.029 55.7854 188.101C55.8216 188.173 55.5888 188.43 55.4283 188.823C55.2678 189.217 55.2477 189.578 55.1675 189.586Z" fill="#343C41"/>
<path id="Vector_72" d="M51.8116 184.322C51.7795 184.402 51.4103 184.29 50.9408 184.322C50.4713 184.354 50.1382 184.523 50.082 184.446C50.0258 184.37 50.379 184.045 50.9207 184.021C51.4625 183.997 51.8518 184.254 51.8116 184.322Z" fill="#343C41"/>
<path id="Vector_73" d="M51.9069 187.067C51.9523 186.901 51.9646 186.728 51.943 186.558C51.9064 186.09 51.7534 185.639 51.4978 185.246C51.3231 184.976 51.1 184.741 50.8399 184.552C50.7632 184.486 50.6703 184.442 50.5708 184.425C50.4713 184.407 50.369 184.416 50.2743 184.452C50.176 184.507 50.0936 184.586 50.0352 184.682C49.9768 184.779 49.9445 184.889 49.9414 185.001C49.9673 185.436 50.1213 185.853 50.384 186.2C50.6467 186.547 51.0064 186.808 51.4175 186.951C51.8199 187.078 52.2514 187.082 52.6562 186.962C53.0609 186.842 53.4203 186.603 53.6879 186.277C53.8193 186.126 53.9213 185.952 53.9887 185.763C54.0229 185.655 54.0229 185.539 53.9887 185.43C53.97 185.376 53.9399 185.327 53.9004 185.285C53.861 185.244 53.8131 185.211 53.7601 185.19C53.5861 185.138 53.3989 185.157 53.2386 185.242C53.0996 185.305 52.9655 185.379 52.8375 185.463C52.4602 185.715 52.1348 186.038 51.8788 186.413C51.7742 186.546 51.6953 186.697 51.6462 186.858C51.994 186.37 52.4276 185.949 52.9257 185.615C53.1504 185.487 53.4472 185.302 53.6838 185.386C53.7881 185.426 53.8282 185.551 53.7801 185.695C53.719 185.852 53.6293 185.996 53.5154 186.12C53.2727 186.409 52.95 186.619 52.588 186.724C52.226 186.829 51.841 186.824 51.4817 186.71C51.1225 186.583 50.8068 186.356 50.5717 186.057C50.3365 185.757 50.1917 185.396 50.154 185.017C50.1512 184.945 50.1679 184.873 50.2025 184.81C50.2371 184.746 50.2883 184.693 50.3505 184.656C50.4144 184.636 50.4824 184.632 50.5483 184.644C50.6141 184.657 50.6758 184.686 50.7276 184.728C50.9703 184.897 51.1809 185.107 51.3493 185.35C51.602 185.709 51.7707 186.12 51.8427 186.554C51.8949 186.886 51.8868 187.067 51.9069 187.067Z" fill="#343C41"/>
<path id="Vector_74" d="M38.3771 184.547L38.6619 186.693L38.4734 191.527L32.1758 191.679L31.9512 186.693L32.6652 183.729L38.3771 184.547Z" fill="#889AA7"/>
<path id="Vector_75" d="M35.361 191.162C35.3209 191.162 35.4131 189.686 35.5615 187.861C35.7099 186.036 35.8664 184.552 35.9025 184.548C35.9386 184.544 35.8503 186.028 35.7019 187.853C35.5535 189.678 35.3971 191.162 35.361 191.162Z" fill="#343C41"/>
<path id="Vector_76" d="M38.4965 190.721L32.1348 190.797V191.679L38.5005 191.675L38.4965 190.721Z" fill="#343C41"/>
<path id="Vector_77" d="M32.1504 187.94C32.1504 187.94 32.1945 187.84 32.3108 187.687C32.4776 187.469 32.6657 187.267 32.8724 187.086C33.1761 186.811 33.5179 186.581 33.8872 186.404C34.5331 186.088 35.2635 185.988 35.9706 186.118C36.6777 186.249 37.324 186.604 37.8142 187.13C37.9994 187.336 38.1547 187.566 38.2755 187.816C38.3266 187.903 38.3607 188 38.3758 188.1C38.1801 187.791 37.9601 187.497 37.7179 187.222C37.0881 186.601 36.2397 186.253 35.3553 186.251C34.4689 186.278 33.6188 186.609 32.9486 187.19C32.4312 187.619 32.1745 187.964 32.1504 187.94Z" fill="#343C41"/>
<path id="Vector_78" d="M35.3313 49.631L35.2832 71.3958L44.6253 71.841L44.898 66.5462C44.898 66.5462 48.2153 67.2041 49.0697 64.1395C49.6192 62.17 49.4708 46.9556 49.4708 46.9556L35.3313 49.631Z" fill="#B78876"/>
<path id="Vector_79" d="M50.692 48.4833C49.2199 48.9044 48.899 51.2911 48.899 51.2911L46.5925 56.3893C45.4172 55.4708 43.8368 55.5229 43.54 57.5927C43.3234 59.0849 45.1806 59.3857 45.1806 59.3857C44.0976 61.2268 43.3675 62.715 41.7911 64.4639C40.0984 66.3692 39.1357 66.5577 37.2906 66.5818H35.2529C35.2529 66.5818 34.2541 63.3447 32.4089 55.2542C30.3632 46.2771 40.9769 47.4323 42.9463 45.1419C46.1513 41.4155 55.3409 47.1556 50.692 48.4833Z" fill="#343C41"/>
<path id="Vector_80" d="M53.2827 46.5262C53.2015 46.0474 52.952 45.6134 52.5791 45.3023C52.2063 44.9913 51.7346 44.8236 51.249 44.8294C51.4008 44.5736 51.4575 44.2725 51.4091 43.979C51.3607 43.6855 51.2102 43.4185 50.9843 43.225C50.7497 43.0407 50.478 42.9095 50.1879 42.8402C49.8978 42.771 49.5961 42.7654 49.3036 42.8238C48.7186 42.9422 48.1538 43.1449 47.6269 43.4255C47.43 42.8438 47.0501 42.3414 46.5439 41.9935C45.9992 41.6743 45.3736 41.5197 44.7429 41.5483C41.8749 41.5483 40.3667 43.5098 38.8264 45.5113C38.6017 45.8843 38.2801 46.1892 37.8958 46.3938C37.6161 46.476 37.3242 46.5086 37.0334 46.4901C35.9376 46.5248 34.8704 46.8479 33.9393 47.4268C33.0083 48.0057 32.2464 48.8199 31.7306 49.7873C30.7278 51.7247 29.9777 56.2052 32.5769 59.013L34.1413 62.5068L49.1151 50.6417C49.2234 50.6978 50.162 51.1551 50.884 50.778C52.677 49.8314 51.9229 48.259 51.9229 48.259C52.0673 48.1587 53.4351 47.4889 53.2827 46.5262Z" fill="#343C41"/>
<path id="Vector_81" d="M39.424 58.2026C39.549 58.7488 39.5311 59.318 39.3718 59.8552C39.2875 60.4098 39.0593 60.9326 38.71 61.3715C38.6458 61.3394 38.9466 60.6735 39.1392 59.8031C39.3317 58.9327 39.3558 58.2026 39.424 58.2026Z" fill="#889AA7"/>
<path id="Vector_82" d="M40.5543 57.1318C40.6326 57.6672 40.6026 58.2128 40.466 58.7363C40.4063 59.27 40.2384 59.7859 39.9727 60.2525C40.012 59.7256 40.0993 59.2033 40.2334 58.6922C40.2908 58.1631 40.3983 57.6406 40.5543 57.1318Z" fill="#889AA7"/>
<path id="Vector_83" d="M43.7882 53.5376C43.8123 53.5697 43.5476 53.7622 43.2106 54.1553C42.7812 54.676 42.4409 55.2643 42.2038 55.8962C41.9737 56.5352 41.7874 57.1892 41.6462 57.8536C41.6067 58.1306 41.5284 58.4007 41.4136 58.6559C41.3967 58.3693 41.4196 58.0818 41.4818 57.8015C41.5768 57.117 41.7449 56.4446 41.9832 55.7959C42.2273 55.1379 42.6041 54.5372 43.0903 54.031C43.2805 53.8135 43.5197 53.6444 43.7882 53.5376Z" fill="#889AA7"/>
<path id="Vector_84" d="M45.0952 51.0952C45.1233 51.0952 45.2195 51.3038 45.2797 51.6808C45.3474 52.1777 45.3188 52.683 45.1955 53.169C45.0781 53.6559 44.8639 54.1143 44.5657 54.5168C44.3371 54.8256 44.1646 54.974 44.1285 54.954C44.0924 54.9339 44.7021 54.2039 44.9668 53.1128C45.2316 52.0218 45.023 51.1032 45.0952 51.0952Z" fill="#889AA7"/>
<path id="Vector_85" d="M33.9479 56.5305C33.9158 56.5907 33.6309 56.4904 33.3099 56.3098C32.9888 56.1292 32.7521 55.9406 32.7842 55.8804C32.8163 55.8202 33.1012 55.9245 33.4222 56.1051C33.7433 56.2857 33.98 56.4743 33.9479 56.5305Z" fill="#889AA7"/>
<path id="Vector_86" d="M38.4615 54.208C38.498 54.546 38.4032 54.8851 38.1966 55.1551C37.9077 55.6326 37.5184 55.8814 37.4783 55.8333C37.4382 55.7851 37.7311 55.4721 37.992 55.0307C38.2528 54.5892 38.3933 54.1919 38.4615 54.208Z" fill="#889AA7"/>
<path id="Vector_87" d="M39.8484 53.4609C39.8436 53.872 39.7025 54.2698 39.4473 54.5921C39.0743 55.1617 38.605 55.4665 38.5689 55.3943C38.5328 55.3221 38.9018 54.9932 39.2508 54.4437C39.4308 54.1048 39.6303 53.7767 39.8484 53.4609Z" fill="#889AA7"/>
<path id="Vector_88" d="M46.7479 44.3399C46.7479 44.3399 46.5714 44.2075 46.2345 44.015C45.7522 43.7592 45.216 43.6218 44.6701 43.6139C43.8608 43.5924 43.0626 43.8055 42.3717 44.2276C41.5419 44.7727 40.8686 45.5248 40.4183 46.4097C40.0735 47.0572 39.8043 47.7423 39.616 48.4514L39.5759 48.5878L39.4516 48.5196C38.8083 48.183 38.0956 48.0003 37.3698 47.9861C36.7936 47.9729 36.2195 48.0598 35.673 48.2428C35.1867 48.4232 34.7213 48.6559 34.2852 48.9367C34.3751 48.8294 34.4806 48.7361 34.598 48.66C34.9133 48.4303 35.2589 48.2453 35.6249 48.1104C36.1821 47.8983 36.7736 47.7908 37.3698 47.7935C38.1312 47.7916 38.8822 47.9718 39.5599 48.319L39.3954 48.3912C39.5808 47.6645 39.85 46.9619 40.1977 46.2974C40.6672 45.3762 41.3749 44.5978 42.2474 44.0431C42.9731 43.6107 43.8104 43.4028 44.6541 43.4454C45.2223 43.4698 45.7748 43.6396 46.2586 43.9388C46.3876 44.0204 46.5073 44.1159 46.6156 44.2236C46.7158 44.2958 46.7519 44.3359 46.7479 44.3399Z" fill="#889AA7"/>
<path id="Vector_89" d="M51.6616 45.5267C51.6416 45.5267 51.9183 45.4545 52.1951 45.7674C52.275 45.8608 52.3353 45.9693 52.3725 46.0864C52.4097 46.2035 52.4231 46.3269 52.4117 46.4493C52.3874 46.6125 52.3254 46.7677 52.2308 46.9028C52.1361 47.0378 52.0113 47.149 51.8662 47.2275C51.5217 47.4229 51.1155 47.4789 50.731 47.3839C50.3083 47.2726 49.9116 47.0791 49.5638 46.8143C49.1986 46.523 48.8155 46.2551 48.4166 46.0121C47.985 45.7787 47.5193 45.6149 47.0367 45.5267C46.0992 45.3579 45.1345 45.4241 44.2289 45.7193C43.4851 45.9644 42.7831 46.3215 42.1471 46.7782C41.056 47.5604 40.5185 48.2183 40.4824 48.1822C40.5903 48.0158 40.7154 47.8612 40.8555 47.7209C41.2227 47.3251 41.6255 46.964 42.0588 46.6419C42.6983 46.154 43.4121 45.7721 44.1727 45.5107C45.1146 45.1914 46.1223 45.1168 47.1009 45.2941C47.6078 45.3873 48.0966 45.5607 48.5489 45.8075C48.9523 46.0495 49.3395 46.3175 49.7082 46.6098C50.0309 46.8636 50.4002 47.0516 50.7952 47.1633C51.1337 47.2564 51.4949 47.2177 51.806 47.055C51.9319 46.9908 52.0416 46.899 52.127 46.7865C52.2124 46.674 52.2714 46.5437 52.2994 46.4052C52.3282 46.1906 52.2721 45.9733 52.143 45.7995C52.0199 45.6544 51.8493 45.5577 51.6616 45.5267Z" fill="#889AA7"/>
<path id="Vector_90" d="M95.1823 62.2335C94.8293 61.9206 90.072 63.9142 90.072 63.9142C90.072 63.9142 86.5221 66.722 85.062 68.3466L84.1595 69.0967L70.6578 79.594L54.0515 72.6867L50.4414 81.9485C50.4414 81.9485 69.0854 89.3733 71.9254 88.1017C75.01 86.7219 86.502 74.6923 86.5301 74.6522L88.1907 73.0477C88.1907 73.0477 89.0692 73.0477 89.7351 72.9915C90.4009 72.9354 92.3504 71.6558 92.3504 71.6558C92.5354 71.2998 92.6627 70.9166 92.7274 70.5206C92.7682 70.363 92.7548 70.1961 92.6893 70.047C92.6238 69.8978 92.5101 69.775 92.3664 69.6983C92.4342 69.39 92.4451 69.0719 92.3985 68.7597C92.3223 68.2302 91.5963 67.6165 91.5963 67.6165C91.8225 67.386 91.9772 67.0948 92.0415 66.7782C92.2019 66.1645 91.4117 65.5748 91.4117 65.5748C91.4117 65.5748 94.1754 63.6976 94.8453 63.3647C95.5152 63.0317 95.5352 62.5464 95.1823 62.2335Z" fill="#B78876"/>
<path id="Vector_91" d="M56.4945 157.111C56.5506 156.502 56.5787 156.032 56.5787 155.74L58.456 125.804C58.456 125.804 56.8796 117.06 56.1335 114.741L49.4308 112.146L40.4978 115.624C40.4417 114.906 40.4056 114.46 40.4056 114.46L27.2609 119.009C27.2609 119.009 26.92 127.982 27.2609 130.714C27.3732 131.592 27.7142 133.859 28.1313 136.53C28.1313 136.53 28.5565 142.334 28.6448 142.659C28.9617 143.842 29.0459 146.743 29.0459 149.647C29.0459 153.337 29.2464 157.729 29.4791 159.815C29.7117 161.901 29.8201 184.861 29.8201 184.861H39.5271L40.7746 148.295C40.9832 144.376 41.2961 138.383 41.4966 134.047L43.775 147.549C43.775 148.042 45.1629 155.764 45.1629 155.764C44.8424 158.194 44.6443 160.638 44.5692 163.088C44.4088 169.907 43.6105 184.861 43.6105 184.861H53.109C53.109 184.861 55.965 163.249 56.5186 157.111H56.4945Z" fill="#343C41"/>
<path id="Vector_92" d="M58.147 124.01C57.8351 123.892 57.5399 123.734 57.2685 123.54C56.5947 123.108 55.9659 122.61 55.3913 122.052C54.8168 121.496 54.2982 120.885 53.843 120.227C53.6379 119.965 53.4717 119.674 53.3496 119.365C53.5696 119.609 53.7733 119.868 53.9593 120.139C54.443 120.765 54.9697 121.356 55.5357 121.908C56.102 122.454 56.7065 122.96 57.3448 123.42C57.6259 123.597 57.894 123.794 58.147 124.01Z" fill="#889AA7"/>
<path id="Vector_93" d="M41.1891 129.45C41.1129 129.361 41.0507 129.26 41.0046 129.153C40.8555 128.871 40.7216 128.582 40.6035 128.286C40.1972 127.313 39.8999 126.297 39.717 125.258C39.5385 124.218 39.474 123.163 39.5244 122.109C39.5485 121.708 39.5806 121.383 39.6167 121.158C39.6237 121.04 39.6495 120.924 39.6929 120.813C39.725 120.813 39.6929 121.315 39.6729 122.113C39.6608 123.155 39.7441 124.195 39.9215 125.222C40.0987 126.248 40.3672 127.256 40.7238 128.234C41.0086 128.984 41.2172 129.434 41.1891 129.45Z" fill="#889AA7"/>
<path id="Vector_94" d="M42.6002 140.721C42.5409 140.552 42.4992 140.377 42.4759 140.199C42.4063 139.819 42.3181 139.342 42.2111 138.767C42.0025 137.512 41.7217 135.859 41.4089 134.03C40.8714 130.673 40.5064 128.386 40.3379 127.323C40.5559 127.952 40.7091 128.601 40.7952 129.261C41.0278 130.464 41.3166 132.145 41.6215 133.994C41.9263 135.843 42.179 137.528 42.3555 138.743C42.4317 139.321 42.4999 139.802 42.5521 140.187C42.5879 140.363 42.6041 140.542 42.6002 140.721Z" fill="#889AA7"/>
<path id="Vector_95" d="M19.6919 90.79C19.6919 90.79 18.4124 99.8112 18.1717 102.972C18.0273 104.877 19.9607 107.384 21.4368 107.589C22.9129 107.793 27.8868 108.07 27.8868 108.07L28.2879 102.41L28.1596 101.283L26.6153 100.995L27.0806 92.0175L19.6919 90.79Z" fill="#B78876"/>
<path id="Vector_96" d="M26.8878 92.3223C26.9275 92.4824 26.9477 92.6467 26.9479 92.8116C26.972 93.1285 26.9881 93.5858 27.0001 94.1554C27.0282 95.2865 27.0001 96.8549 26.9038 98.5677C26.8076 100.28 26.6672 101.857 26.5589 102.98C26.4987 103.542 26.4506 103.999 26.4104 104.312C26.4014 104.476 26.3731 104.639 26.3262 104.797C26.3079 104.633 26.3079 104.468 26.3262 104.304C26.3463 103.943 26.3743 103.501 26.4064 102.964C26.4826 101.789 26.5789 100.252 26.6872 98.5516C26.7955 96.8509 26.8356 95.2705 26.8477 94.1393C26.8477 93.6099 26.8477 93.1606 26.8477 92.7996C26.8443 92.6395 26.8578 92.4795 26.8878 92.3223Z" fill="#AA6550"/>
<g id="Group_2" opacity="0.3">
<path id="Vector_97" d="M27.3789 119.173C29.906 120.112 32.6737 120.188 35.3572 119.956C38.0407 119.723 40.6961 119.181 43.3796 118.929C47.4465 118.549 51.5479 118.819 55.5295 119.731C55.8073 119.815 56.0993 119.843 56.3879 119.811C56.5312 119.793 56.6657 119.732 56.7737 119.636C56.8818 119.54 56.9584 119.414 56.9936 119.274C57.0658 118.824 56.5724 118.512 56.1553 118.339C51.5642 116.44 46.6285 115.517 41.6615 115.628C36.6946 115.738 31.8048 116.88 27.3027 118.981" fill="black"/>
</g>
<path id="Vector_98" d="M66.07 76.7873L51.8222 69.6955C49.5755 69.4319 47.3125 69.3327 45.0513 69.3987H35.621C35.621 69.3987 24.1971 72.7681 22.3078 75.8768L17.4102 90.5577L27.0932 92.0178L28.2965 102.567C28.2965 102.567 27.0932 114.781 27.0932 116.554C27.0669 117.375 27.1166 118.197 27.2416 119.009C27.2416 119.009 46.6157 116.065 51.385 117.617C56.1543 119.17 57.4419 119.009 57.4419 119.009C57.4419 119.009 57.0408 113.939 56.6918 110.987L55.5927 96.2657L54.7905 85.0343L63.7555 87.778L66.07 76.7873Z" fill="#F57621"/>
<path id="Vector_99" d="M27.0047 92.1338C26.9686 92.1338 26.8723 91.5281 26.6597 90.5493C26.3765 89.2763 26.0012 88.0255 25.5366 86.8069C25.0621 85.5791 24.5074 84.3838 23.8759 83.2289L23.2903 82.178C23.2074 82.0535 23.1413 81.9186 23.0938 81.7769C23.1985 81.8846 23.29 82.0045 23.3665 82.1339C23.531 82.3705 23.7676 82.7195 24.0123 83.1607C24.6895 84.3011 25.2692 85.4967 25.7451 86.7347C26.2144 87.9621 26.5715 89.2294 26.8121 90.5213C26.9004 91.0146 26.9565 91.4158 26.9846 91.6965C27.0093 91.8409 27.0161 91.9877 27.0047 92.1338Z" fill="#343C41"/>
<path id="Vector_100" d="M45.2767 96.3013C45.2692 96.369 45.2516 96.4353 45.2246 96.4978L45.0441 97.0393C44.9638 97.276 44.8635 97.5608 44.7312 97.8897C44.5988 98.2186 44.4584 98.5957 44.2739 98.9968C43.9249 99.799 43.4717 100.77 42.9021 101.805C42.3325 102.84 41.6586 103.939 40.8965 105.054C40.1344 106.169 39.292 107.176 38.5339 108.066C37.7758 108.957 37.0177 109.707 36.3678 110.316C36.051 110.629 35.7421 110.89 35.4814 111.119C35.2206 111.347 34.984 111.552 34.7914 111.708L34.3422 112.061C34.2916 112.106 34.2365 112.145 34.1777 112.178C34.1777 112.178 34.2219 112.121 34.3181 112.029L34.7393 111.628C34.9238 111.468 35.1404 111.263 35.4052 111.018C35.6699 110.774 35.9587 110.509 36.2676 110.192C36.9013 109.574 37.6233 108.804 38.3895 107.922C39.1556 107.039 39.9498 106.02 40.728 104.917C41.5062 103.814 42.172 102.711 42.7336 101.708C43.2952 100.706 43.7725 99.7429 44.1375 98.9366C44.3301 98.5355 44.4785 98.1625 44.6189 97.8416C44.7593 97.5207 44.8756 97.2399 44.9678 97.0072C45.0601 96.7746 45.1243 96.6061 45.1844 96.4778C45.2077 96.4153 45.2387 96.356 45.2767 96.3013Z" fill="#343C41"/>
<path id="Vector_101" d="M51.8592 70.665C51.4843 71.201 51.2285 71.811 51.1091 72.454C50.9887 73.1508 50.9887 73.8631 51.1091 74.5599C51.2646 75.4176 51.4654 76.2665 51.7108 77.103C52.2041 78.9 52.7216 80.5005 53.1187 81.6557C53.3072 82.2012 53.4637 82.6585 53.592 83.0235C53.6585 83.1883 53.7095 83.3588 53.7444 83.533C53.6509 83.3808 53.5729 83.2195 53.5118 83.0516C53.3794 82.7387 53.1909 82.2815 52.9743 81.7079C52.5411 80.5647 51.9955 78.9602 51.5022 77.1592C51.2623 76.3191 51.0708 75.466 50.9286 74.604C50.8108 73.8872 50.8217 73.1551 50.9607 72.442C51.0591 71.9608 51.2469 71.5023 51.5142 71.0902C51.6024 70.9287 51.7193 70.7846 51.8592 70.665Z" fill="#343C41"/>
<path id="Vector_102" d="M24.976 86.1205C24.7647 86.3488 24.504 86.5258 24.2139 86.638C23.5323 86.9508 22.7739 87.0571 22.0326 86.9438C21.2912 86.8304 20.5993 86.5024 20.0422 86.0002C19.7995 85.808 19.6046 85.5623 19.4727 85.2822C19.5007 85.2581 19.7093 85.5429 20.1385 85.8879C20.6969 86.3393 21.3652 86.634 22.075 86.7418C22.7848 86.8497 23.5106 86.7668 24.1778 86.5016C24.6712 86.301 24.956 86.0924 24.976 86.1205Z" fill="white"/>
<path id="Vector_103" d="M52.2798 79.4971C52.2517 79.6037 52.2127 79.7073 52.1634 79.8059C52.0752 80.0065 51.9388 80.2953 51.7423 80.6563C51.1776 81.6801 50.4639 82.6143 49.6244 83.428C48.3694 84.646 46.8044 85.4964 45.0997 85.8869C44.0948 86.1172 43.0562 86.1621 42.0352 86.0193C40.9426 85.8454 39.8914 85.4715 38.9345 84.9162C36.965 83.8171 35.3004 82.4252 33.4793 81.7594C31.8685 81.1639 30.1157 81.0675 28.4493 81.4826C27.3246 81.7525 26.2632 82.2389 25.3245 82.9146C24.6667 83.4 24.3578 83.7409 24.3418 83.7168C24.6226 83.3954 24.9358 83.1037 25.2764 82.8464C26.4409 81.964 27.8069 81.3856 29.251 81.1636C30.6951 80.9416 32.1717 81.0829 33.5475 81.5749C35.4127 82.2488 37.0894 83.6446 39.0348 84.7277C39.9686 85.2778 40.9949 85.6529 42.0632 85.8348C43.0611 85.9751 44.0762 85.9344 45.0596 85.7144C46.7341 85.3392 48.2755 84.5172 49.5201 83.3358C50.3625 82.5422 51.0866 81.6317 51.6701 80.6322C51.8746 80.2793 52.0271 79.9945 52.1233 79.8019C52.1674 79.6964 52.2197 79.5944 52.2798 79.4971Z" fill="white"/>
<path id="Vector_104" d="M61.1999 74.3521C61.2792 74.4995 61.3411 74.6556 61.3844 74.8174C61.5166 75.2513 61.5947 75.7 61.6171 76.1531C61.6949 77.6724 61.2141 79.1676 60.2653 80.3568C59.7142 80.967 59.116 81.533 58.4763 82.0495C57.9743 82.4707 57.5646 82.991 57.2729 83.5778C57.0758 83.973 56.9832 84.4122 57.0042 84.8534C57.0282 85.1662 57.0964 85.3347 57.0764 85.3387C57.0563 85.3427 57.0483 85.3026 57.0162 85.2224C56.9708 85.1063 56.9398 84.985 56.924 84.8614C56.869 84.4024 56.9426 83.9372 57.1366 83.5176C57.4186 82.9031 57.8289 82.356 58.3399 81.9132C58.9624 81.3942 59.5481 80.8326 60.0928 80.2325C61.0087 79.0775 61.4925 77.6389 61.4606 76.1651C61.4299 75.554 61.3426 74.9471 61.1999 74.3521Z" fill="white"/>
<path id="Vector_105" d="M38.0271 108.17C37.9008 108.238 37.7658 108.288 37.626 108.318C37.2392 108.429 36.8451 108.512 36.4467 108.567C35.846 108.667 35.2307 108.631 34.6456 108.463C34.2986 108.353 33.9778 108.172 33.703 107.933C33.4268 107.671 33.1694 107.39 32.9329 107.091C32.7008 106.807 32.4309 106.556 32.1306 106.345C31.8449 106.159 31.5361 106.01 31.2121 105.904C30.6569 105.726 30.07 105.67 29.4913 105.739C29.099 105.782 28.7166 105.891 28.3601 106.06C28.2314 106.132 28.0973 106.194 27.959 106.245C28.064 106.139 28.186 106.053 28.32 105.988C28.675 105.783 29.0656 105.647 29.4712 105.587C30.0718 105.491 30.6866 105.533 31.2682 105.711C31.613 105.817 31.9412 105.971 32.2429 106.168C32.5634 106.384 32.85 106.647 33.0933 106.947C33.3235 107.237 33.5728 107.512 33.8394 107.769C34.0938 107.993 34.3895 108.164 34.7098 108.274C35.2689 108.44 35.8562 108.488 36.4346 108.415C37.4094 108.298 38.0191 108.134 38.0271 108.17Z" fill="white"/>
<path id="Vector_106" d="M56.4742 107.315C56.4361 107.357 56.393 107.393 56.3459 107.424C56.2176 107.52 56.0836 107.608 55.9448 107.688C55.4464 107.993 54.9057 108.221 54.3403 108.366C53.4905 108.585 52.6065 108.637 51.737 108.519C50.6646 108.374 49.6463 107.96 48.7768 107.315C47.9505 106.648 47.1605 105.937 46.4101 105.185C45.7962 104.589 45.0855 104.1 44.3083 103.741C43.7865 103.5 43.2187 103.374 42.6436 103.372C42.2425 103.372 42.0099 103.441 42.0059 103.417C42.057 103.393 42.1109 103.375 42.1663 103.364C42.321 103.323 42.4796 103.297 42.6396 103.288C43.2325 103.261 43.8236 103.37 44.3684 103.605C45.171 103.954 45.9056 104.441 46.5385 105.045C47.2726 105.695 48.0026 106.485 48.9011 107.147C49.7431 107.766 50.726 108.166 51.7611 108.31C52.6078 108.433 53.4698 108.399 54.3042 108.21C54.8626 108.077 55.4018 107.874 55.9087 107.604C56.0911 107.496 56.2799 107.4 56.4742 107.315Z" fill="white"/>
</g>
</g>
</g>
</g>
</svg>
