<svg width="352" height="138" viewBox="0 0 352 138" fill="none" xmlns="http://www.w3.org/2000/svg">
<mask id="mask0_199_3784" style="mask-type:alpha" maskUnits="userSpaceOnUse" x="0" y="0" width="352" height="138">
<path d="M0 0H352V138H0V0Z" fill="#E8F4FF"/>
</mask>
<g mask="url(#mask0_199_3784)">
<path d="M0 12C0 5.37258 5.37258 0 12 0H340C346.627 0 352 5.37258 352 12V138H0V12Z" fill="#F2E6F2"/>
<g opacity="0.2">
<path d="M175.41 160.396C174.203 157.588 174.113 154.772 174.113 151.893L174.009 143.065C173.931 138.485 173.938 133.828 173.944 129.327V125.435C173.996 114.882 174.152 104.147 174.307 93.7686L174.359 90.1298C174.428 85.9785 174.498 81.8251 174.567 77.6696C174.684 70.1779 174.807 62.4332 174.982 54.8183L175.391 37.1625C175.455 35.1647 175.514 33.1626 175.566 31.1562C175.624 29.2103 175.682 27.2644 175.741 25.2666C175.799 27.2449 175.858 29.2168 175.916 31.1562C175.974 33.0956 176.026 35.1647 176.091 37.169L176.5 54.8183C176.675 62.4332 176.798 70.1779 176.915 77.6631C176.984 81.8187 177.053 85.9742 177.123 90.1298L177.174 93.7751C177.33 104.153 177.486 114.882 177.538 125.441V129.366C177.538 133.867 177.538 138.518 177.473 143.084L177.363 151.899C177.363 154.779 177.265 157.594 176.065 160.403L175.41 160.396Z" fill="#B370B9"/>
<path d="M175.358 160.462C173.685 157.9 173.095 155.143 172.595 152.315L170.96 143.63C170.085 139.122 169.28 134.549 168.502 130.073L167.853 126.259C166.076 115.881 164.37 105.296 162.716 95.0601L162.125 91.4148C161.481 87.3198 160.832 83.2248 160.179 79.1297C158.966 71.7288 157.74 64.075 156.592 56.5508L153.933 39.0897C153.647 37.1178 153.357 35.146 153.063 33.1742C152.778 31.2283 152.492 29.2824 152.207 27.3365C152.609 29.2499 152.998 31.1569 153.388 33.0379L154.614 38.9924L158.091 56.3044C159.576 63.7312 161.029 71.2943 162.443 78.6108C163.235 82.7318 164.03 86.8398 164.83 90.9348L165.531 94.5801C167.477 104.751 169.488 115.271 171.369 125.637L172.018 129.451C172.809 133.894 173.626 138.493 174.346 143.026L175.78 151.744C176.28 154.579 176.669 157.368 175.975 160.345L175.358 160.462Z" fill="#B370B9"/>
<path d="M175.319 160.533C173.224 158.302 172.167 155.688 171.181 152.983L168.067 144.72C166.419 140.426 164.824 136.035 163.286 131.786L161.989 128.154C158.434 118.243 154.918 108.124 151.513 98.3166L150.3 94.814C148.937 90.8573 147.571 86.9007 146.2 82.944C143.761 75.8999 141.238 68.6093 138.805 61.4224L133.155 44.6942L131.267 38.9798L129.412 33.395C130.139 35.2177 130.865 37.0339 131.572 38.8241C132.279 40.6143 133.058 42.5797 133.81 44.4542L140.239 60.9035C142.995 67.9866 145.752 75.1734 148.425 82.1786C149.913 86.0704 151.405 89.9622 152.901 93.854L154.198 97.2334C157.896 106.963 161.716 116.984 165.375 126.889L166.718 130.567C168.262 134.796 169.864 139.167 171.356 143.494L174.242 151.9C175.228 154.605 176.098 157.284 175.929 160.332L175.319 160.533Z" fill="#B370B9"/>
<path d="M175.287 160.604C172.842 158.775 171.343 156.382 169.91 153.891L165.369 146.296C163.008 142.365 160.685 138.324 158.434 134.419L156.488 131.04C151.254 121.868 146.019 112.482 140.953 103.408L139.195 100.256C137.184 96.6233 135.166 92.9931 133.142 89.3651C129.503 82.8204 125.735 76.0487 122.076 69.3678L113.637 53.872C112.69 52.1034 111.738 50.3369 110.782 48.5726L107.993 43.3836L111.068 48.3651C112.119 50.0948 113.176 51.8093 114.24 53.5087L123.425 68.5959C127.376 75.0822 131.346 81.7242 135.192 88.1392C137.355 91.711 139.497 95.285 141.621 98.8611L143.482 101.981C148.802 110.893 154.309 120.143 159.635 129.224L161.581 132.59C163.838 136.482 166.18 140.529 168.405 144.544L172.731 152.243C174.171 154.734 175.495 157.225 175.858 160.261L175.287 160.604Z" fill="#B370B9"/>
<path d="M175.274 160.682C172.549 159.307 170.662 157.212 168.787 155.006L163.027 148.306C160.023 144.849 157.033 141.275 154.14 137.818L151.636 134.827C144.916 126.739 138.163 118.456 131.637 110.439L129.25 107.514C126.629 104.27 124 101.027 121.362 97.784C116.653 91.9853 111.781 85.9919 107.033 80.0569L96.0246 66.28L92.2492 61.506L88.6426 56.9656L92.5347 61.3504L96.5435 65.8908L108.22 79.1488C113.241 84.8568 118.3 90.6945 123.198 96.3441C125.927 99.4964 128.66 102.647 131.397 105.795L133.836 108.616C140.602 116.445 147.601 124.547 154.412 132.577L156.903 135.541C159.809 138.998 162.819 142.572 165.706 146.14L171.304 152.97C173.159 155.175 174.891 157.4 175.773 160.325L175.274 160.682Z" fill="#B370B9"/>
<path d="M175.274 160.766C172.348 159.877 170.123 158.171 167.924 156.296L161.094 150.699C157.532 147.812 153.958 144.816 150.52 141.916L147.53 139.4C139.467 132.569 131.313 125.545 123.477 118.754L120.746 116.386C117.606 113.658 114.462 110.931 111.314 108.207C105.657 103.31 99.8128 98.2374 94.0914 93.217L80.8324 81.5416L76.2917 77.5266L71.9131 73.6348C73.4505 74.8477 74.9813 76.0542 76.4538 77.2477L81.2216 81.0097L95.0126 92.0365C100.942 96.7845 106.942 101.656 112.741 106.365L122.543 114.278L125.377 116.587C133.421 123.138 141.737 129.917 149.858 136.656L152.868 139.179C156.313 142.065 159.881 145.049 163.338 148.046L170.032 153.806C172.244 155.654 174.333 157.542 175.715 160.292L175.274 160.766Z" fill="#B370B9"/>
<path d="M175.287 160.845C172.258 160.482 169.767 159.159 167.276 157.719L159.576 153.393C155.567 151.174 151.532 148.852 147.634 146.576L144.254 144.63C135.121 139.298 125.89 133.784 116.964 128.459L113.883 126.604L103.193 120.196C96.7643 116.356 90.1088 112.38 83.622 108.442L68.5273 99.2319L63.4286 96.1184L58.4014 93.018L63.5908 95.8136L68.884 98.6676L84.3745 107.132C91.0494 110.784 97.8087 114.546 104.347 118.159C107.989 120.183 111.63 122.204 115.271 124.224L118.553 126.059C127.583 131.099 136.924 136.308 146.057 141.523L149.411 143.469C153.303 145.719 157.377 148.048 161.308 150.409L168.904 154.949C171.401 156.389 173.789 157.881 175.624 160.333L175.287 160.845Z" fill="#B370B9"/>
<path d="M174.554 160.942C171.791 160.942 169.365 160.131 166.88 159.236L158.545 156.311C154.211 154.819 149.833 153.217 145.603 151.673L141.938 150.33C132.014 146.665 121.959 142.838 112.235 139.141L108.895 137.844L97.2184 133.375C90.2257 130.709 82.9994 127.946 75.9158 125.183L59.4653 118.755L53.8347 116.517L48.4053 114.364L53.9839 116.225L59.7182 118.126L76.4477 123.775C83.6351 126.208 90.9262 128.731 97.9774 131.17C101.934 132.536 105.889 133.9 109.842 135.262L113.325 136.475C123.12 139.881 133.246 143.396 143.164 146.951L146.842 148.287C151.078 149.824 155.457 151.407 159.732 153.048L167.989 156.168C170.701 157.147 173.315 158.205 175.54 160.3L175.319 160.916L174.554 160.942Z" fill="#B370B9"/>
<path d="M171.959 161.362C170.217 161.321 168.481 161.133 166.77 160.797L158.052 159.364C153.543 158.644 148.97 157.833 144.546 157.048L140.654 156.361C130.275 154.473 119.734 152.469 109.55 150.523L105.95 149.835L93.6249 147.455C86.2949 146.041 78.7053 144.575 71.265 143.09L53.9452 139.619C51.9992 139.204 50.0077 138.802 48.0422 138.4L42.2949 137.206L48.0682 138.056L54.0814 138.925L71.5374 141.585C79.0556 142.733 86.6906 143.952 94.066 145.133C98.1873 145.794 102.306 146.443 106.423 147.079L109.991 147.656C120.253 149.31 130.859 151.022 141.27 152.8L145.124 153.481C149.561 154.253 154.147 155.057 158.642 155.926L167.302 157.58C170.137 158.079 172.894 158.67 175.456 160.343L175.339 160.992C174.231 161.244 173.096 161.369 171.959 161.362Z" fill="#B370B9"/>
<path d="M179.51 161.362C178.366 161.369 177.226 161.243 176.111 160.986L175.994 160.338C178.556 158.664 181.313 158.074 184.148 157.574L192.827 155.94C197.323 155.071 201.909 154.266 206.346 153.495L210.199 152.814C220.61 151.036 231.216 149.324 241.478 147.67L245.046 147.093C249.163 146.444 253.271 145.795 257.371 145.147C264.746 143.966 272.381 142.747 279.9 141.599L297.356 138.939L303.356 138.064L309.129 137.214L303.382 138.407C301.436 138.81 299.444 139.212 297.479 139.627L280.172 143.078C272.725 144.563 265.142 146.029 257.812 147.443L245.487 149.823L241.939 150.472C231.735 152.418 221.181 154.448 210.802 156.31L206.91 156.991C202.486 157.782 197.907 158.593 193.392 159.313L184.68 160.74C182.978 161.096 181.248 161.305 179.51 161.362Z" fill="#B370B9"/>
<path d="M176.916 160.942H176.15L175.93 160.326C178.155 158.231 180.769 157.173 183.474 156.194L191.738 153.074C196.013 151.433 200.391 149.831 204.627 148.313L208.305 146.977C218.224 143.422 228.349 139.907 238.145 136.501L241.628 135.288C245.585 133.935 249.54 132.571 253.492 131.196C260.543 128.757 267.835 126.234 275.022 123.801L291.758 118.145L297.486 116.251L303.051 114.409L297.622 116.562L291.991 118.8L275.541 125.228C268.451 127.991 261.231 130.755 254.238 133.42L242.562 137.889L239.221 139.187C229.491 142.884 219.443 146.711 209.518 150.376L205.853 151.718C201.624 153.262 197.245 154.864 192.912 156.356L184.577 159.281C182.118 160.131 179.679 160.942 176.916 160.942Z" fill="#B370B9"/>
<path d="M175.852 160.28C177.687 157.828 180.074 156.336 182.565 154.896L190.161 150.394C194.099 148.027 198.147 145.698 202.065 143.448L205.418 141.502C214.565 136.28 223.919 131.059 232.968 126.012L236.211 124.203C239.857 122.188 243.498 120.166 247.135 118.138C253.674 114.499 260.433 110.737 267.108 107.111L282.605 98.6401C284.369 97.6931 286.131 96.7439 287.892 95.7926L293.081 92.997L288.041 96.1169L282.942 99.2628L267.847 108.441C261.361 112.404 254.692 116.38 248.264 120.227L237.586 126.603L234.505 128.445C225.579 133.77 216.342 139.283 207.215 144.615L203.836 146.561C199.944 148.825 195.902 151.16 191.9 153.378L184.2 157.737C181.703 159.177 179.212 160.5 176.176 160.863L175.852 160.28Z" fill="#B370B9"/>
<path d="M175.773 160.266C177.155 157.536 179.244 155.648 181.449 153.78L188.15 148.027C191.608 145.024 195.175 142.04 198.626 139.147L201.636 136.63C209.751 129.891 218.067 123.113 226.117 116.523L228.926 114.278L238.656 106.385C244.456 101.676 250.456 96.8043 256.385 92.0563L270.176 81.0296L274.944 77.2675C276.442 76.074 277.973 74.8676 279.484 73.6546L275.106 77.5464L270.597 81.568L257.338 93.2433C251.617 98.2637 245.766 103.336 240.116 108.233C236.968 110.957 233.824 113.686 230.684 116.419L227.953 118.773C220.091 125.571 211.963 132.596 203.9 139.426L200.91 141.943C197.465 144.842 193.898 147.839 190.343 150.725L183.512 156.323C181.307 158.171 179.082 159.903 176.156 160.792L175.773 160.266Z" fill="#B370B9"/>
<path d="M175.689 160.268C176.578 157.342 178.284 155.118 180.159 152.912L185.757 146.063C188.65 142.495 191.66 138.928 194.566 135.464L197.057 132.5C203.868 124.47 210.867 116.368 217.633 108.539L220.072 105.718C222.81 102.57 225.543 99.4196 228.271 96.2673C233.169 90.6177 238.229 84.78 243.249 79.072L254.926 65.8075C256.253 64.3243 257.579 62.8346 258.902 61.3384L262.84 56.9212L259.233 61.4617L255.445 66.281L244.417 80.0644C239.669 85.9994 234.797 91.9928 230.088 97.7915C227.454 101.026 224.825 104.269 222.2 107.521L219.813 110.446C213.287 118.463 206.534 126.746 199.814 134.835L197.31 137.825C194.417 141.282 191.426 144.856 188.423 148.313L182.669 155.014C180.814 157.219 178.926 159.314 176.182 160.689L175.689 160.268Z" fill="#B370B9"/>
<path d="M175.611 160.278C175.975 157.242 177.298 154.751 178.738 152.26L183.065 144.561C185.277 140.566 187.605 136.551 189.856 132.665L191.835 129.241C197.16 120.16 202.668 110.904 207.987 101.998L209.849 98.878C212.011 95.3062 214.154 91.7323 216.277 88.1562C220.124 81.7412 224.094 75.1057 228.044 68.6129L237.229 53.5192C238.28 51.8263 239.331 50.1204 240.375 48.421C241.42 46.7216 242.432 45.0805 243.476 43.3941L240.713 48.5248C239.753 50.302 238.767 52.0857 237.833 53.8695L229.361 69.3653C225.702 76.0462 221.934 82.8179 218.294 89.3691C216.271 92.9971 214.253 96.6251 212.242 100.253L210.484 103.405C205.418 112.486 200.183 121.866 194.916 131.037L192.97 134.417C190.719 138.308 188.397 142.362 186.036 146.293L181.495 153.889C180.061 156.379 178.563 158.773 176.117 160.602L175.611 160.278Z" fill="#B370B9"/>
<path d="M175.541 160.331C175.372 157.276 176.241 154.598 177.221 151.899L180.146 143.571C181.638 139.238 183.24 134.866 184.784 130.637L186.114 126.927C189.773 117.022 193.593 106.981 197.291 97.2714L198.588 93.8921C200.089 90.0003 201.581 86.1085 203.064 82.2167C205.737 75.2374 208.494 68.0246 211.25 60.9415L217.679 44.4922C218.431 42.6177 219.171 40.7367 219.917 38.8621C220.663 36.9876 221.344 35.2557 222.077 33.4331L220.222 39.0178L218.334 44.7322L212.71 61.441C210.277 68.6278 207.754 75.9249 205.315 82.9756C203.944 86.9279 202.578 90.8824 201.215 94.8391L200.002 98.3352C196.597 108.123 193.081 118.242 189.526 128.172L188.229 131.805C186.691 136.053 185.096 140.444 183.448 144.738L180.276 152.982C179.29 155.687 178.233 158.301 176.137 160.532L175.541 160.331Z" fill="#B370B9"/>
<path d="M175.469 160.331C174.775 157.354 175.164 154.565 175.664 151.73L177.097 143.019C177.817 138.479 178.635 133.88 179.426 129.437L180.075 125.623C181.956 115.245 183.967 104.737 185.913 94.5664L186.614 90.921C187.414 86.8087 188.209 82.7007 189.001 78.597C190.415 71.2805 191.868 63.7174 193.353 56.2906L196.83 38.9721L198.056 33.0242C198.445 31.1431 198.835 29.2362 199.237 27.3227C198.951 29.2686 198.666 31.2534 198.381 33.1604C198.095 35.0674 197.797 37.1041 197.511 39.0759L194.878 56.55C193.73 64.0871 192.504 71.741 191.316 79.1419C190.663 83.2412 190.015 87.3384 189.37 91.4335L188.78 95.0723C187.126 105.308 185.42 115.887 183.643 126.271L182.994 130.085C182.216 134.535 181.411 139.166 180.535 143.642L178.901 152.321C178.401 155.155 177.811 157.912 176.137 160.474L175.469 160.331Z" fill="#B370B9"/>
</g>
<path d="M85.5073 92.7645L87.7344 93.707L85.7992 94.3212C85.156 94.528 84.6425 95.0814 84.4317 95.7989L83.7344 98.207L82.8749 95.7928C82.6587 95.1908 82.2317 94.7226 81.6911 94.5037L79.7344 93.707L81.8533 92.728C82.3668 92.4908 82.7722 92.0287 82.9668 91.4449L83.7344 89.207L84.2857 91.2868C84.4641 91.9678 84.9182 92.5151 85.5073 92.7645Z" fill="#6ECF8B"/>
<path d="M125.953 47.1602L128.734 48.207L126.319 48.8952C125.513 49.1221 124.869 49.737 124.613 50.535L123.734 53.207L122.658 50.5277C122.395 49.8615 121.853 49.3417 121.179 49.1001L118.734 48.2144L121.384 47.1236C122.029 46.86 122.526 46.3476 122.775 45.6961L123.734 43.207L124.423 45.5204C124.649 46.2744 125.213 46.882 125.953 47.1602Z" fill="#6ECF8B"/>
<path d="M269.672 75.1592L272.734 76.2048L270.076 76.8916C269.189 77.122 268.483 77.7378 268.196 78.5309L267.232 81.207L266.049 78.5265C265.757 77.8619 265.162 77.3391 264.422 77.0954L261.734 76.2092L264.646 75.1193C265.352 74.8579 265.907 74.3395 266.18 73.6926L267.232 71.207L267.987 73.5198C268.235 74.2775 268.853 74.8845 269.667 75.1636L269.672 75.1592Z" fill="#6ECF8B"/>
<path d="M88.9968 49.2242C88.9968 49.2242 89.0516 49.2756 89.1407 49.3785C89.2435 49.5043 89.3737 49.6644 89.5313 49.8587C89.8602 50.2875 90.2439 50.9792 90.5317 51.9225C90.7647 52.8772 90.847 54.0891 90.5043 55.4497C90.1686 56.8045 89.4216 58.2909 88.1676 59.6915C87.5029 60.3603 86.7765 61.0577 85.8446 61.618C85.406 61.9324 84.8852 62.1554 84.385 62.424C83.8436 62.6241 83.3091 62.8814 82.7129 63.0243C80.3899 63.716 77.6694 63.8532 74.9558 63.4187C72.2422 62.9843 69.5149 62.0239 67.0479 60.589C65.8282 59.863 64.6153 59.0741 63.5874 58.0851C62.5732 57.1018 61.7166 55.9413 61.3055 54.6207C61.1068 53.9633 61.0519 53.2602 61.2232 52.5913C61.3946 51.9167 61.7989 51.2936 62.3745 50.8134C63.5394 49.8416 65.2389 49.5214 66.7533 49.6929C68.3088 49.8702 69.6451 50.5962 70.6455 51.4823C71.6597 52.3741 72.3655 53.4374 72.8384 54.5236C73.784 56.7188 73.7292 59.0226 73.0439 60.9949C72.3587 62.9786 71.0087 64.6307 69.4121 65.7569C68.6172 66.3285 67.7675 66.7802 66.9177 67.1175C66.0749 67.4662 65.232 67.7177 64.4234 67.8778C62.813 68.2208 61.3671 68.2551 60.2091 68.1636C59.0441 68.0779 58.1738 67.8492 57.5914 67.7006C57.331 67.6148 57.1185 67.5405 56.9472 67.4833C56.8033 67.4319 56.728 67.4033 56.7348 67.3976C56.7554 67.3404 57.9203 67.8606 60.2228 68.0093C61.3671 68.0779 62.7856 68.0207 64.3617 67.6663C65.1498 67.5005 65.9652 67.2432 66.7875 66.8945C67.6099 66.5515 68.4322 66.1113 69.1996 65.5454C70.7346 64.4363 72.0298 62.8299 72.6808 60.8977C73.3318 58.9826 73.366 56.7416 72.4409 54.6379C71.9818 53.5917 71.2965 52.5685 70.3303 51.7281C69.3778 50.8877 68.1169 50.2189 66.6916 50.0588C65.2868 49.8988 63.7244 50.2075 62.6966 51.0764C61.6344 51.9339 61.3466 53.3002 61.7509 54.5178C62.1346 55.7527 62.9501 56.8731 63.93 57.8221C64.9168 58.7711 66.1091 59.5543 67.3015 60.2631C69.7136 61.6752 72.3792 62.6184 75.0312 63.0529C77.6763 63.4873 80.3214 63.3673 82.5896 62.7042C83.1721 62.567 83.686 62.3269 84.2137 62.1382C84.7002 61.881 85.2141 61.6694 85.639 61.3665C86.5504 60.8291 87.2631 60.1545 87.9209 59.5085C89.1612 58.1537 89.915 56.7073 90.2645 55.3868C90.6208 54.0605 90.5729 52.8772 90.3673 51.9396C89.8533 50.0645 88.9214 49.2413 89.0036 49.207L88.9968 49.2242Z" fill="#FFAC34"/>
<path d="M309.15 56.2203C309.15 56.2203 309.2 56.2732 309.281 56.399C309.375 56.5446 309.494 56.73 309.637 56.955C309.937 57.4515 310.287 58.2524 310.55 59.3446C310.762 60.45 310.837 61.8533 310.525 63.4287C310.218 64.9975 309.537 66.7185 308.394 68.3403C307.788 69.1147 307.126 69.9223 306.276 70.571C305.876 70.9351 305.401 71.1932 304.945 71.5043C304.452 71.736 303.964 72.0339 303.421 72.1993C301.303 73.0003 298.822 73.1591 296.348 72.6561C293.874 72.153 291.387 71.041 289.138 69.3795C288.026 68.5388 286.92 67.6254 285.983 66.4802C285.058 65.3417 284.277 63.998 283.902 62.4689C283.721 61.7077 283.671 60.8935 283.827 60.1191C283.983 59.338 284.352 58.6165 284.877 58.0671C285.939 56.9418 287.488 56.5711 288.869 56.7697C290.288 56.9749 291.506 57.8155 292.418 58.8415C293.343 59.8741 293.986 61.1053 294.417 62.363C295.28 64.9048 295.23 67.5724 294.605 69.8561C293.98 72.153 292.749 74.066 291.293 75.37C290.569 76.0319 289.794 76.5549 289.019 76.9454C288.251 77.3492 287.482 77.6404 286.745 77.8258C285.277 78.2229 283.958 78.2627 282.902 78.1567C281.84 78.0575 281.047 77.7927 280.516 77.6206C280.278 77.5213 280.085 77.4352 279.928 77.369C279.797 77.3095 279.729 77.2764 279.735 77.2698C279.754 77.2036 280.816 77.8059 282.915 77.978C283.958 78.0575 285.252 77.9913 286.689 77.5809C287.407 77.3889 288.151 77.091 288.901 76.6873C289.65 76.2901 290.4 75.7804 291.1 75.1251C292.499 73.8409 293.68 71.9809 294.274 69.7436C294.867 67.5261 294.899 64.9313 294.055 62.4954C293.636 61.2841 293.012 60.0992 292.131 59.1262C291.262 58.1531 290.113 57.3787 288.813 57.1933C287.532 57.008 286.108 57.3654 285.17 58.3716C284.202 59.3645 283.94 60.9465 284.308 62.3564C284.658 63.7862 285.402 65.0836 286.295 66.1824C287.195 67.2812 288.282 68.188 289.369 69.0088C291.568 70.6438 293.999 71.736 296.417 72.2391C298.828 72.7421 301.24 72.6031 303.308 71.8353C303.839 71.6764 304.308 71.3984 304.789 71.18C305.233 70.8821 305.701 70.6372 306.089 70.2864C306.92 69.6641 307.569 68.8831 308.169 68.1351C309.3 66.5663 309.987 64.8916 310.306 63.3625C310.631 61.8268 310.587 60.4566 310.4 59.3711C309.931 57.1999 309.081 56.2467 309.156 56.207L309.15 56.2203Z" fill="#FFAC34"/>
<path d="M280.734 118.707C280.734 120.089 279.616 121.207 278.234 121.207C276.853 121.207 275.734 120.089 275.734 118.707C275.734 117.325 276.853 116.207 278.234 116.207C279.616 116.207 280.734 117.325 280.734 118.707Z" fill="#80CFE8"/>
<path d="M236.82 41.1959L239.996 40.7399C242.044 42.0377 244.508 42.7492 247.147 42.6239C253.38 42.3283 258.459 37.2475 258.755 31.0293C259.101 23.839 253.189 17.8964 245.933 18.2471C239.776 18.5427 234.737 23.5033 234.346 29.6463C234.15 32.6928 235.089 35.5288 236.775 37.7636H236.77L236.815 41.1959H236.82Z" fill="white"/>
<path d="M236.82 41.1958C236.82 41.1958 236.815 41.1256 236.805 40.9803C236.8 40.82 236.795 40.6045 236.785 40.3289C236.77 39.7327 236.745 38.8708 236.72 37.7585C236.72 37.7284 236.74 37.7033 236.77 37.7033C236.78 37.7033 236.795 37.7033 236.805 37.7134H236.81L236.735 37.7935C235.816 36.586 234.783 34.7721 234.391 32.372C234.195 31.1795 234.175 29.8516 234.381 28.4637C234.602 27.0808 235.089 25.6427 235.872 24.2798C236.664 22.9219 237.763 21.6492 239.133 20.607C240.503 19.5748 242.144 18.7531 243.961 18.3823C245.768 17.9965 247.72 18.0215 249.611 18.4925C251.508 18.9535 253.32 19.9356 254.825 21.2985C255.608 21.9699 256.241 22.7766 256.823 23.5984C257.084 24.0293 257.35 24.4552 257.575 24.9011L257.887 25.5776L258.037 25.9183L258.158 26.269C258.825 28.128 259.006 30.0871 258.79 31.9361C258.584 33.79 257.892 35.5137 256.968 36.9768C256.04 38.4399 254.846 39.6475 253.546 40.5544C252.241 41.4563 250.836 42.0576 249.466 42.3883C249.12 42.4534 248.778 42.5186 248.442 42.5837C248.106 42.6388 247.77 42.6539 247.444 42.6889C246.786 42.7491 246.154 42.729 245.547 42.6839C243.113 42.4835 241.226 41.5966 239.966 40.7849H240.002C238.978 40.9252 238.18 41.0304 237.623 41.1006C237.367 41.1306 237.166 41.1557 237.016 41.1757C236.88 41.1908 236.815 41.1958 236.815 41.1958C236.815 41.1958 236.89 41.1807 237.031 41.1557C237.181 41.1306 237.387 41.0955 237.648 41.0555C238.195 40.9703 238.978 40.845 239.986 40.6897C239.997 40.6897 240.012 40.6897 240.022 40.6947C241.286 41.4814 243.158 42.3332 245.562 42.5136C246.159 42.5536 246.786 42.5687 247.429 42.5035C247.75 42.4635 248.081 42.4534 248.412 42.3933C248.743 42.3282 249.075 42.263 249.416 42.1929C250.761 41.8572 252.141 41.2609 253.42 40.369C254.695 39.4771 255.859 38.2846 256.768 36.8465C257.671 35.4085 258.338 33.7249 258.539 31.906C258.745 30.0922 258.564 28.1731 257.912 26.3542L257.796 26.0085L257.646 25.6778L257.34 25.0164C257.119 24.5804 256.858 24.1646 256.602 23.7437C256.03 22.942 255.408 22.1503 254.645 21.4939C253.169 20.1611 251.403 19.194 249.541 18.743C247.689 18.277 245.773 18.257 244.006 18.6278C242.23 18.9886 240.619 19.7853 239.269 20.7974C237.919 21.8096 236.835 23.0572 236.052 24.39C235.274 25.7279 234.793 27.1359 234.567 28.4938C234.351 29.8567 234.361 31.1644 234.547 32.3419C234.913 34.717 235.912 36.5158 236.805 37.7284C236.825 37.7534 236.82 37.7835 236.795 37.8036C236.775 37.8186 236.75 37.8186 236.73 37.8036H236.725L236.81 37.7585C236.81 38.8558 236.81 39.7026 236.81 40.2938C236.81 40.5744 236.81 40.7949 236.81 40.9603C236.81 41.1106 236.81 41.1908 236.805 41.1958H236.82Z" fill="#343C41"/>
<path d="M240.541 30.7891L242.093 29.1344L245.292 31.7735L251.181 25.7313L252.729 27.2829L245.165 34.872L240.541 30.7891Z" fill="#12B859"/>
<path d="M236.459 56.9062C236.459 56.9062 239.171 59.6808 240.752 61.6745C242.333 63.6599 246.726 65.7201 246.726 65.7201L248.24 66.6837V71.4188L259.089 71.9006C259.089 71.9006 258.199 68.5445 257.649 62.8541C257.1 57.1637 254.288 52.0216 253.531 51.8804C252.774 51.7474 253.115 51.8804 253.115 51.8804C253.115 51.8804 252.566 50.0943 251.534 50.0943C251.534 50.0943 250.844 48.1089 247.965 49.0642C247.965 49.0642 247.549 48.6738 246.318 48.7984C245.087 48.923 239.18 51.5315 238.905 52.1462C238.63 52.7609 239.596 54.8211 239.596 54.8211C239.596 54.8211 237.674 53.3092 236.917 53.791C236.159 54.2728 235.452 55.0952 236.476 56.9145L236.459 56.9062Z" fill="#FFBF9D"/>
<path d="M252.4 55.9099C252.4 55.9099 252.333 55.9681 252.183 56.0761C251.984 56.2173 251.776 56.3669 251.526 56.5413C251.218 56.7656 250.877 57.0066 250.495 57.2807C250.295 57.4303 250.079 57.5798 249.879 57.7543C249.854 57.7709 249.829 57.8041 249.821 57.8041C249.821 57.7958 249.812 57.8373 249.837 57.7626C249.837 57.6878 249.837 57.6961 249.821 57.6795C249.804 57.6546 249.804 57.6629 249.812 57.6629C249.846 57.6795 249.912 57.6961 249.979 57.7127C250.112 57.7376 250.262 57.7543 250.411 57.7709H250.428C250.977 57.8789 251.501 58.477 251.335 59.1666C251.143 59.8478 250.42 60.1718 249.796 60.2466C249.163 60.3214 248.473 60.338 247.799 60.1137C247.125 59.906 246.501 59.474 246.043 58.8841C245.536 58.2195 245.27 57.4053 245.336 56.5995C245.403 55.7853 245.91 55.0957 246.484 54.6887C246.776 54.4644 247.1 54.3314 247.383 54.1902C247.674 54.049 247.949 53.916 248.223 53.7831C248.764 53.5256 249.263 53.2846 249.737 53.0603C250.669 52.62 251.418 52.2711 251.95 52.0385C252.475 51.8058 252.774 51.6895 252.791 51.7145C252.807 51.7394 252.533 51.9055 252.025 52.188C251.518 52.4705 250.786 52.8526 249.879 53.3262C249.413 53.5671 248.914 53.8246 248.39 54.0988C248.115 54.24 247.841 54.3813 247.558 54.5225C247.266 54.6721 246.975 54.805 246.726 54.9961C246.218 55.3782 245.81 55.9515 245.761 56.6327C245.711 57.3056 245.944 58.0367 246.393 58.61C246.792 59.1251 247.35 59.5072 247.94 59.6983C248.523 59.8977 249.163 59.8977 249.754 59.8395C250.32 59.7814 250.861 59.5072 250.985 59.0669C251.118 58.6349 250.761 58.178 250.37 58.0866H250.395C250.237 58.07 250.079 58.045 249.929 58.0118C249.846 57.9869 249.779 57.9786 249.679 57.9204C249.654 57.9038 249.621 57.8872 249.588 57.8373C249.571 57.8041 249.546 57.7958 249.554 57.7044C249.588 57.613 249.588 57.6379 249.596 57.613C249.638 57.5632 249.663 57.5466 249.696 57.5216C249.929 57.3389 250.145 57.1976 250.353 57.0564C250.769 56.7822 251.135 56.5579 251.435 56.3752C252.034 56.0179 252.4 55.8351 252.408 55.8933L252.4 55.9099Z" fill="#FF9A6C"/>
<path d="M250.727 50.3188C250.744 50.3769 249.929 50.6926 248.631 51.2409C247.982 51.5151 247.208 51.8474 246.359 52.2379C245.935 52.4373 245.494 52.6533 245.037 52.8693C244.579 53.0936 244.105 53.3179 243.697 53.617C243.281 53.9161 242.982 54.2982 242.898 54.7468C242.807 55.1955 242.898 55.6607 243.048 56.0844C243.373 56.9235 243.722 57.7294 244.163 58.2029C244.646 58.6349 245.228 58.7761 245.594 58.7845C245.977 58.7845 246.176 58.6765 246.193 58.718C246.21 58.7346 246.027 58.9008 245.602 58.9506C245.195 58.9921 244.554 58.9174 243.947 58.4272C243.664 58.1614 243.448 57.8207 243.24 57.4469C243.04 57.073 242.84 56.6743 242.665 56.2173C242.499 55.7687 242.374 55.237 242.474 54.6721C242.574 54.0988 242.973 53.6004 243.431 53.2764C243.897 52.9357 244.388 52.7197 244.845 52.4954C245.303 52.2711 245.76 52.0717 246.185 51.8806C247.05 51.5068 247.84 51.1994 248.506 50.9585C249.845 50.4849 250.702 50.2689 250.719 50.3188H250.727Z" fill="#FF9A6C"/>
<path d="M247.3 49.3966C247.316 49.463 246.601 49.704 245.469 50.1775C244.903 50.4101 244.246 50.7092 243.522 51.0748C242.823 51.4486 241.983 51.8391 241.293 52.3791C240.594 52.9191 240.444 53.8164 240.602 54.5558C240.769 55.2952 241.11 55.9681 241.467 56.4084C241.817 56.8404 242.349 56.9318 242.657 56.9484C242.982 56.965 243.156 56.8653 243.173 56.8903C243.19 56.9069 243.04 57.073 242.665 57.1146C242.316 57.1395 241.725 57.1146 241.243 56.6161C240.802 56.1343 240.427 55.4779 240.211 54.6388C240.12 54.2235 240.095 53.7499 240.211 53.2847C240.319 52.8111 240.627 52.3625 241.01 52.0468C241.8 51.4403 242.607 51.0831 243.348 50.7175C244.088 50.3686 244.77 50.0945 245.361 49.8951C246.526 49.488 247.283 49.3467 247.3 49.3966Z" fill="#FF9A6C"/>
<path d="M243.364 57.6707C243.381 57.7289 243.106 57.8701 242.657 58.0529C242.532 58.0944 242.449 58.1609 242.224 58.1858C241.958 58.1858 241.808 57.9781 241.709 57.8701C241.476 57.5877 241.268 57.3218 241.051 57.0476C240.136 55.8679 239.471 54.8544 239.562 54.7879C239.654 54.7131 240.477 55.6104 241.392 56.7818C241.6 57.0643 241.808 57.3301 242.025 57.6209C242.116 57.7538 242.191 57.8203 242.233 57.8203C242.291 57.8286 242.457 57.7787 242.566 57.7538C243.04 57.6458 243.348 57.6043 243.364 57.6624V57.6707Z" fill="#FF9A6C"/>
<path d="M250.07 63.4192C249.946 63.4442 249.713 62.4638 249.047 61.4586C248.39 60.445 247.583 59.8469 247.649 59.7389C247.699 59.6392 248.689 60.121 249.405 61.2177C250.137 62.3143 250.179 63.4109 250.07 63.4192Z" fill="#FF9A6C"/>
<path d="M247.258 67.4646L246.426 80.4653L258.548 102.762C258.548 102.762 262.067 83.7716 260.761 80.8392C259.463 77.915 258.781 76.561 258.781 76.561L259.047 69.2174L247.258 67.4646Z" fill="white"/>
<path d="M195.492 50.0861C196.864 46.4891 198.221 42.8672 198.953 39.0958C199.685 35.316 199.768 31.3535 198.603 27.6817C198.429 27.1252 196.881 23.3786 196.29 23.4036C195.874 23.4202 196.773 26.8926 196.54 27.2415C194.369 30.5726 193.62 34.6764 193.736 38.6472C193.861 42.6263 194.51 46.2233 195.483 50.0778" fill="#343C41"/>
<path d="M194.518 70.8541L196.598 35.449C197.388 25.8376 192.446 17.3643 182.804 16.8409H181.913C172.911 16.8825 165.449 23.8023 164.758 32.7658C164.117 41.0979 163.518 50.3188 163.593 54.7881C163.743 64.0422 173.02 65.4461 173.02 65.4461C173.036 65.4461 172.695 74.8582 172.587 77.5663L186.564 77.3088L189.909 77.126L194.518 70.8541Z" fill="#FFBF9D"/>
<path d="M173.011 65.4463C173.011 65.4463 178.852 65.762 185.067 61.8407C185.067 61.8407 182.188 68.811 172.937 68.0135L173.011 65.4546V65.4463Z" fill="#FF9A6C"/>
<path d="M169.051 41.3138C169.026 42.0116 169.6 42.6098 170.333 42.643C171.065 42.6762 171.672 42.1445 171.689 41.4467C171.714 40.7488 171.14 40.1507 170.407 40.1174C169.675 40.0842 169.068 40.6159 169.043 41.3138H169.051Z" fill="#343C41"/>
<path d="M166.738 36.8362C166.905 37.0107 167.903 36.263 169.326 36.263C170.748 36.238 171.797 36.9691 171.947 36.7947C172.021 36.7199 171.855 36.4042 171.397 36.0802C170.948 35.7562 170.183 35.4322 169.293 35.4405C168.402 35.4488 167.662 35.7811 167.229 36.1134C166.797 36.4541 166.647 36.7614 166.73 36.8362H166.738Z" fill="#343C41"/>
<path d="M181.623 41.588C181.598 42.2859 182.172 42.884 182.904 42.9173C183.636 42.9505 184.243 42.4188 184.26 41.7209C184.285 41.0231 183.711 40.4249 182.979 40.3917C182.247 40.3584 181.639 40.8901 181.614 41.588H181.623Z" fill="#343C41"/>
<path d="M180.707 37.1105C180.873 37.2849 181.871 36.5372 183.294 36.5372C184.717 36.5123 185.765 37.2434 185.923 37.0689C185.998 36.9942 185.832 36.6785 185.374 36.3544C184.925 36.0304 184.159 35.7064 183.269 35.7147C182.379 35.723 181.638 36.0554 181.206 36.3877C180.773 36.7283 180.623 37.0357 180.707 37.1105Z" fill="#343C41"/>
<path d="M175.64 48.0601C175.64 47.977 174.758 47.8275 173.327 47.653C172.961 47.6198 172.62 47.545 172.553 47.2958C172.47 47.0299 172.62 46.6395 172.794 46.2158C173.135 45.3351 173.485 44.413 173.859 43.4493C175.34 39.503 176.405 36.263 176.247 36.2048C176.089 36.1467 174.758 39.2953 173.285 43.2416C172.927 44.2136 172.586 45.1441 172.262 46.0247C172.129 46.4401 171.888 46.9053 172.079 47.4536C172.179 47.7278 172.445 47.9189 172.678 47.9854C172.911 48.0518 173.119 48.0601 173.294 48.0684C174.741 48.1432 175.631 48.1432 175.64 48.0684V48.0601Z" fill="#343C41"/>
<path d="M180.225 32.6661C180.416 33.0316 181.797 32.6412 183.486 32.5996C185.167 32.5249 186.573 32.8156 186.739 32.4335C186.814 32.259 186.531 31.9267 185.932 31.6359C185.341 31.3451 184.443 31.1208 183.428 31.1541C182.421 31.1873 181.531 31.4781 180.965 31.8104C180.391 32.1427 180.133 32.4916 180.216 32.6578L180.225 32.6661Z" fill="#343C41"/>
<path d="M166.347 32.9901C166.638 33.3141 167.803 32.9901 169.2 32.9901C170.598 32.9486 171.771 33.2394 172.046 32.8987C172.171 32.7326 171.988 32.4086 171.472 32.1012C170.964 31.7938 170.116 31.5362 169.159 31.5446C168.202 31.5612 167.37 31.8436 166.879 32.1676C166.38 32.4916 166.214 32.824 166.347 32.9818V32.9901Z" fill="#343C41"/>
<path d="M195.865 42.3023C196.024 42.2359 202.23 40.3999 202.047 46.7221C201.872 53.0527 195.541 51.5656 195.541 51.3828C195.541 51.2001 195.865 42.294 195.865 42.294V42.3023Z" fill="#FFBF9D"/>
<path d="M197.546 49.0481C197.546 49.0481 197.654 49.1311 197.837 49.2225C198.02 49.3139 198.328 49.3804 198.661 49.2641C199.335 49.0398 199.934 47.993 199.992 46.8548C200.025 46.2816 199.917 45.7249 199.726 45.268C199.543 44.8028 199.251 44.4704 198.919 44.3957C198.586 44.3126 198.345 44.5037 198.261 44.6781C198.17 44.8526 198.211 44.9772 198.178 44.9938C198.161 45.0105 198.045 44.8858 198.103 44.62C198.137 44.4954 198.211 44.3458 198.361 44.2295C198.519 44.1132 198.744 44.0551 198.977 44.0883C199.468 44.1381 199.892 44.5951 200.1 45.1018C200.341 45.6086 200.466 46.2317 200.433 46.8797C200.358 48.1508 199.667 49.3305 198.744 49.5715C198.295 49.6795 197.929 49.5299 197.737 49.3721C197.546 49.2142 197.513 49.0647 197.538 49.0564L197.546 49.0481Z" fill="#FF9A6C"/>
<path d="M169.243 22.4315C168.236 21.8251 171.439 18.6269 174.001 17.5801C177.87 15.9935 183.727 15.1462 187.205 16.2676C191.39 17.6217 194.826 19.848 196.806 23.769C198.786 27.69 199.418 32.1924 199.135 36.5786C199.052 37.9161 198.861 39.3034 198.104 40.4082C197.164 41.7706 195.874 42.4186 195.442 44.5286C195.3 45.2181 195.217 45.9408 194.709 46.4392C193.503 47.6271 192.13 46.4226 191.523 45.2347C190.225 42.7093 190.175 39.7437 190.158 36.8943C190.15 34.8757 190.142 32.8072 190.782 30.8882C191.132 29.8415 191.664 28.8696 191.956 27.8063C192.247 26.7429 192.255 25.5301 191.623 24.6329C191.523 24.4834 191.348 24.3006 191.124 24.093C189.385 22.4565 186.889 21.8916 184.618 22.606C181.007 23.7358 174.842 25.3889 173.294 24.1262C171.073 22.2986 170.565 21.1522 170.565 21.1522L169.259 22.4315H169.243Z" fill="#343C41"/>
<path d="M174.509 51.1079L174.751 50.9418C175.99 50.8421 177.222 50.7507 178.461 50.651C178.661 50.6344 178.877 50.6178 179.052 50.7091C179.268 50.8171 179.393 51.0581 179.468 51.2824C179.809 52.3458 179.376 53.6169 178.453 54.2566C177.529 54.8963 176.19 54.8465 175.308 54.1486C174.435 53.4507 174.093 52.1547 174.509 51.1162V51.1079Z" fill="#FF9A6C"/>
<path d="M174.916 53.8744C174.916 53.8744 174.941 53.916 174.991 53.9741C175.041 54.0406 175.132 54.1237 175.257 54.2233C175.507 54.4144 175.914 54.6554 176.488 54.7551C177.046 54.8547 177.778 54.7966 178.435 54.3812C179.076 53.9658 179.592 53.2015 179.692 52.3209C179.742 51.8805 179.708 51.4402 179.525 51.0414C179.434 50.8421 179.259 50.6593 179.043 50.6011C178.835 50.5347 178.627 50.5596 178.444 50.5762C177.72 50.6593 177.063 50.7424 176.488 50.8088C175.964 50.8753 175.523 50.9334 175.174 50.9833C174.866 51.0248 174.691 51.0581 174.691 51.0747C174.691 51.0913 174.866 51.0747 175.182 51.0581C175.532 51.0248 175.981 50.9916 176.505 50.9501C177.079 50.8919 177.736 50.8337 178.46 50.759C178.643 50.7424 178.826 50.7341 178.984 50.7839C179.142 50.8337 179.267 50.9584 179.35 51.1245C179.5 51.4651 179.542 51.8888 179.492 52.2876C179.392 53.1101 178.918 53.8246 178.327 54.215C177.728 54.6138 177.038 54.6803 176.505 54.6055C175.964 54.5307 175.557 54.323 175.299 54.1486C175.041 53.9741 174.924 53.8495 174.908 53.8578L174.916 53.8744Z" fill="#343C41"/>
<path d="M151.538 9.23975C151.771 9.33114 169.708 14.2162 169.708 14.2162L197.48 19.6329L216.266 21.12L216.416 19.9901L181.073 11.0758L151.646 8.4422L151.538 9.23975Z" fill="#343C41"/>
<path d="M166.797 25.3307L170.557 14.2158C170.557 14.2158 181.689 10.7184 198.778 19.7317C200.55 24.9071 201.008 30.5227 200.825 34.0699C200.825 34.0699 191.432 25.4886 176.431 25.7129C176.431 25.7129 170.507 22.8137 166.805 25.3307H166.797Z" fill="#7B858C"/>
<path d="M200.725 29.9833C200.725 29.9833 193.603 25.3891 187.521 23.686C181.448 21.9829 176.847 22.6807 176.847 22.6807C171.855 20.3711 167.679 22.0909 167.679 22.0909L166.797 25.3309C170.507 22.8219 176.423 25.7131 176.423 25.7131C191.423 25.4888 200.775 34.1622 200.775 34.1622C200.925 32.8744 200.9 31.4787 200.725 29.9833Z" fill="#B370B9"/>
<path d="M176.431 25.7142C176.315 25.6976 176.631 22.8065 177.147 19.259C177.663 15.7116 178.179 12.8454 178.295 12.862C178.411 12.8786 178.095 15.7697 177.579 19.3172C177.064 22.8646 176.548 25.7309 176.431 25.7142Z" fill="#343C41"/>
<path d="M216.266 21.1117L180.774 12.2472L151.538 9.23975L151.646 8.4422L181.24 11.0093L216.416 19.9901L216.266 21.1117Z" fill="#7B858C"/>
<path d="M180.79 12.3636C180.674 12.347 180.615 12.0313 180.665 11.6491C180.715 11.2752 180.848 10.9762 180.973 10.9928C181.09 11.0094 181.148 11.3251 181.098 11.7072C181.048 12.0811 180.915 12.3802 180.79 12.3636Z" fill="#343C41"/>
<path d="M154.234 16.8242L153.236 16.7328C152.063 17.0817 151.688 18.0122 151.455 18.8347C150.565 21.9833 149.899 25.1736 149.467 28.3721C150.507 28.505 151.538 28.6462 152.578 28.7792C152.828 28.8124 153.311 20.7953 153.319 28.7792C153.319 29.0533 155.099 29.1115 155.041 28.8041C154.4 25.0323 154.65 21.6676 154.816 18.4774C154.85 17.9042 154.833 17.2562 154.226 16.8159L154.234 16.8242Z" fill="#B370B9"/>
<path d="M154.442 15.4042C154.558 14.4488 154.75 13.4934 154.983 12.5629C155.182 11.782 155.39 10.9927 155.823 10.3032C156.214 9.68841 156.805 9.16502 157.554 9.05702C158.494 8.92409 159.409 9.41425 160.183 9.89611C160.748 10.2533 161.272 9.3561 160.707 8.99886C159.775 8.41731 158.668 7.89392 157.537 8.01854C156.555 8.12654 155.748 8.67486 155.166 9.44749C154.592 10.2035 154.309 11.1007 154.059 12.0063C153.76 13.1196 153.543 14.2577 153.402 15.4042C153.369 15.6867 153.668 15.9193 153.918 15.9193C154.226 15.9193 154.4 15.6784 154.434 15.4042H154.442Z" fill="#B370B9"/>
<path d="M155.132 16.1102C155.032 16.8828 154.292 17.4228 153.485 17.3148C152.678 17.2068 152.112 16.4923 152.212 15.7197C152.311 14.9471 153.052 14.407 153.859 14.515C154.666 14.623 155.232 15.3375 155.132 16.1102Z" fill="#B370B9"/>
<path d="M155.132 16.1099C155.057 16.1265 155.165 15.5283 154.591 15.0215C154.317 14.7806 153.867 14.6228 153.402 14.7308C152.944 14.8221 152.503 15.2209 152.428 15.7526C152.353 16.2843 152.678 16.7828 153.094 16.9905C153.518 17.2148 153.992 17.1733 154.317 17.0154C155.007 16.6748 155.057 16.0683 155.124 16.1099C155.149 16.1099 155.174 16.2511 155.107 16.4837C155.041 16.7163 154.849 17.0569 154.458 17.2896C154.075 17.5222 153.468 17.6136 152.911 17.3477C152.353 17.0985 151.887 16.4256 151.987 15.6945C152.079 14.9551 152.703 14.4317 153.31 14.3403C153.926 14.2323 154.483 14.4732 154.791 14.8055C155.107 15.1378 155.207 15.5117 155.207 15.7526C155.207 16.0019 155.149 16.1265 155.124 16.1182L155.132 16.1099Z" fill="#343C41"/>
<path d="M150.831 26.1954C150.698 26.1954 150.781 24.052 151.422 21.5098C151.738 20.2386 152.096 19.1088 152.437 18.3195C152.753 17.5137 153.161 17.09 153.211 17.1564C153.236 17.198 152.969 17.6134 152.72 18.4275C152.462 19.2251 152.146 20.355 151.838 21.6178C151.206 24.1267 150.931 26.2037 150.823 26.2037L150.831 26.1954Z" fill="#343C41"/>
<path d="M152.57 24.1433C152.454 24.1433 152.421 22.5565 152.687 20.6373C152.953 18.7099 153.411 17.1979 153.519 17.2311C153.635 17.2561 153.377 18.8013 153.12 20.7038C152.853 22.6063 152.695 24.1599 152.57 24.1516V24.1433Z" fill="#343C41"/>
<path d="M153.968 19.2417C153.852 19.2417 153.769 18.8096 153.794 18.2779C153.818 17.7545 153.935 17.3308 154.051 17.3392C154.168 17.3392 154.251 17.7712 154.226 18.3029C154.201 18.8263 154.085 19.25 153.968 19.2417Z" fill="#343C41"/>
<path d="M158.993 9.11516L161.331 9.30651L161.281 10.0886L158.76 9.71418L158.993 9.11516Z" fill="#7B858C"/>
<path d="M179.484 24.9241C179.883 22.9302 179.043 19.9311 176.239 19.0587C174.301 18.4523 171.979 19.4492 171.131 21.3019C170.831 20.712 170.058 20.4794 169.425 20.6705C168.793 20.8532 168.302 21.3683 167.986 21.9416C167.595 22.6477 167.429 23.5284 167.761 24.2595C168.094 24.9905 169.034 25.4641 169.758 25.1069C169.949 26.3281 170.823 27.4164 171.979 27.8651C173.136 28.3054 174.517 28.0811 175.474 27.3001C176.505 28.4466 178.169 28.9783 179.675 28.6543C181.181 28.3303 182.479 27.1589 182.945 25.6884C181.788 25.4392 180.64 25.1816 179.484 24.9324V24.9241Z" fill="#343C41"/>
<path d="M145.049 77.6824C145.049 77.6824 140.847 78.3387 139.275 80.1746C137.702 82.0104 134.549 85.0176 132.977 90.3924C131.404 95.7588 126.421 111.218 126.421 111.218L118.159 114.101L114.108 124.643C110.613 133.739 109.082 143.5 109.881 153.211C110.106 155.994 110.522 158.594 111.204 160.596C113.958 168.588 124.907 169.776 127.136 168.986C129.366 168.197 146.621 141.864 146.621 141.864L149.899 103.617L145.049 77.6824Z" fill="#B370B9"/>
<g opacity="0.3">
<path d="M132.278 121.935L120.015 117.266C118.451 123.621 114.041 131.662 113.193 138.15C112.344 144.646 112.228 151.284 113.559 157.697C114.15 160.53 115.09 163.429 117.161 165.448C117.952 166.212 118.958 166.86 120.057 166.835C121.862 166.81 123.135 165.099 124.042 163.537C131.08 151.425 133.768 135.392 132.27 121.918L132.278 121.935Z" fill="black"/>
</g>
<path d="M131.413 144.057C131.413 144.057 133.717 132.369 132.486 123.604C131.812 118.795 128.068 114.633 128.068 114.633C128.068 114.633 120.031 114.907 120.015 117.274C120.015 118.022 121.371 122.433 121.371 122.433C121.446 123.646 120.705 125.341 120.772 127.06C120.772 127.06 125.747 141.108 131.421 144.057" fill="white"/>
<path d="M122.927 165.963C122.927 165.963 122.985 165.796 123.135 165.506C123.309 165.173 123.534 164.758 123.809 164.243C124.424 163.163 125.215 161.543 126.155 159.525C127.977 155.479 130.148 149.689 131.388 143.01C132.678 136.348 132.836 130.159 132.519 125.739C132.478 125.183 132.445 124.659 132.411 124.161C132.353 123.662 132.303 123.197 132.253 122.757C132.153 121.876 132.07 121.12 131.962 120.514C131.871 119.933 131.804 119.467 131.746 119.094C131.704 118.77 131.687 118.595 131.696 118.595C131.712 118.595 131.754 118.761 131.829 119.077C131.904 119.442 132.004 119.908 132.128 120.481C132.27 121.087 132.378 121.843 132.494 122.724C132.553 123.164 132.619 123.638 132.686 124.128C132.727 124.634 132.777 125.158 132.827 125.714C133.227 130.159 133.118 136.389 131.821 143.093C130.573 149.805 128.343 155.62 126.438 159.649C125.464 161.659 124.624 163.254 123.958 164.318C123.651 164.816 123.409 165.223 123.21 165.547C123.035 165.83 122.935 165.971 122.927 165.963Z" fill="#7B858C"/>
<path d="M143.51 127.435C143.46 127.477 142.728 126.621 141.571 125.242C140.406 123.871 138.801 121.952 136.771 120.116C134.749 118.263 132.619 116.967 130.972 116.261C129.324 115.563 128.218 115.355 128.235 115.264C128.235 115.231 128.517 115.272 129.017 115.372C129.524 115.455 130.231 115.663 131.088 115.978C132.794 116.618 135.015 117.914 137.062 119.792C139.117 121.661 140.698 123.622 141.812 125.051C142.37 125.765 142.802 126.355 143.094 126.77C143.385 127.186 143.535 127.418 143.518 127.435H143.51Z" fill="#7B858C"/>
<path d="M138.584 139.348C138.517 139.34 138.684 138.227 138.817 136.424C138.95 134.621 138.991 132.12 138.709 129.379C138.417 126.637 137.843 124.203 137.336 122.467C136.828 120.73 136.429 119.683 136.496 119.659C136.521 119.65 136.654 119.899 136.862 120.365C137.078 120.83 137.344 121.519 137.635 122.384C138.226 124.112 138.85 126.571 139.15 129.345C139.441 132.12 139.349 134.654 139.133 136.465C139.025 137.371 138.908 138.102 138.8 138.6C138.692 139.099 138.625 139.373 138.592 139.365L138.584 139.348Z" fill="#7B858C"/>
<path d="M217.298 79.3854C217.298 79.3854 219.345 77.8237 220.901 78.7375C222.456 79.6513 238.197 93.5658 238.197 93.5658L245.976 71.8841C245.976 71.8841 268.814 124.169 264.862 127.517C260.919 130.857 233.671 132.576 225.901 128.639C218.13 124.701 208.18 107.663 208.18 107.663L217.29 79.3854H217.298Z" fill="#B370B9"/>
<path d="M165.673 72.7563L170.398 71.0201L172.936 66.6422L182.063 73.047L194.884 64.6319L195.84 70.3223L201.98 74.2183L182.695 104.398L173.277 101.433L165.673 72.7563Z" fill="white"/>
<path d="M181.073 74.4011L178.835 77.2009L179.958 80.1335L182.662 80.5822L184.359 77.7575L182.795 74.6005L181.073 74.4011Z" fill="#465159"/>
<path d="M179.958 80.133L173.277 101.433L182.695 104.398L185.724 99.6631L182.662 80.5816L179.958 80.133Z" fill="#465159"/>
<path d="M195.633 70.5964C195.633 70.5964 195.375 70.854 194.867 71.2693C194.293 71.7263 193.553 72.3078 192.646 73.0306C190.674 74.551 188.003 76.603 184.942 78.9624L184.742 79.1203L184.634 78.8876C183.985 77.5418 183.294 76.0962 182.579 74.6091C182.346 74.1106 182.105 73.6205 181.88 73.1469L182.246 73.1885C180.69 75.0993 179.234 76.8938 177.928 78.4889L177.795 78.655L177.645 78.5055C175.624 76.4451 173.918 74.7005 172.653 73.4045C172.096 72.8146 171.63 72.3328 171.264 71.9423C170.948 71.6017 170.79 71.4106 170.798 71.394C170.806 71.3774 171.006 71.5435 171.347 71.8592C171.73 72.2247 172.221 72.6817 172.812 73.2466C174.101 74.5094 175.848 76.2125 177.92 78.2313L177.637 78.2479C178.927 76.6362 180.374 74.8334 181.913 72.9143L182.13 72.6485L182.279 72.9558C182.512 73.4377 182.745 73.9279 182.978 74.418C183.685 75.9134 184.376 77.359 185.025 78.7049L184.709 78.6301C187.812 76.3205 190.508 74.3017 192.504 72.8146C193.436 72.1417 194.21 71.585 194.801 71.153C195.341 70.7709 195.641 70.5715 195.658 70.5964H195.633Z" fill="#343C41"/>
<path d="M144.458 77.7905L166.863 71.394L180.133 102.77L200.45 71.394L219.685 78.7956L212.563 112.124L215.8 154.524C215.8 154.524 226.815 264.153 226.316 267.435L206.59 269.603C206.59 269.603 207.962 289.183 206.59 289.532C187.754 294.35 182.961 283.052 182.961 283.052C170.324 287.754 152.345 283.293 144.74 271.804L132.244 266.33L143.509 122.782L144.458 77.7822V77.7905Z" fill="#B370B9"/>
<path d="M139.275 80.1663C139.275 80.1663 139.325 80.2992 139.391 80.5567C139.466 80.8475 139.558 81.2213 139.674 81.6948C139.916 82.7332 140.265 84.1869 140.689 86.0062C141.538 89.7527 142.736 94.9945 144.15 101.183V101.2V101.217C144.383 105.819 144.408 110.986 144.259 116.419C143.959 126.578 143.227 135.749 142.911 142.395C142.736 145.718 142.628 148.41 142.553 150.262C142.52 151.159 142.486 151.874 142.47 152.405C142.453 152.63 142.445 152.812 142.437 152.962C142.428 153.087 142.42 153.153 142.412 153.153C142.412 153.153 142.395 153.087 142.395 152.962C142.395 152.812 142.395 152.63 142.387 152.405C142.387 151.882 142.387 151.159 142.387 150.262C142.403 148.401 142.47 145.71 142.603 142.379C142.844 135.725 143.526 126.553 143.826 116.41C143.976 110.986 143.959 105.827 143.759 101.233V101.266C142.42 95.061 141.272 89.8026 140.456 86.0477C140.074 84.2202 139.766 82.7581 139.55 81.7114C139.458 81.2379 139.383 80.8558 139.325 80.5567C139.275 80.2909 139.258 80.158 139.267 80.158L139.275 80.1663Z" fill="#7B858C"/>
<path d="M219.511 80.1829C219.511 80.1829 219.436 80.673 219.211 81.5286C218.97 82.459 218.662 83.6802 218.279 85.1589C217.497 88.2242 216.449 92.4609 215.426 97.171C214.402 101.881 213.595 106.176 213.038 109.283C212.772 110.786 212.547 112.024 212.38 112.971C212.222 113.843 212.123 114.317 212.089 114.317C212.056 114.317 212.106 113.827 212.214 112.946C212.322 112.066 212.497 110.803 212.738 109.233C213.221 106.11 213.978 101.798 215.01 97.0796C216.033 92.3612 217.131 88.1245 217.988 85.0841C218.421 83.5639 218.787 82.3344 219.053 81.4871C219.319 80.6398 219.486 80.1829 219.511 80.1912V80.1829Z" fill="#7B858C"/>
<path d="M240.061 123.729C240.061 123.729 239.978 123.663 239.844 123.496C239.711 123.339 239.537 123.089 239.345 122.74C238.954 122.059 238.522 120.979 238.289 119.592C238.039 118.205 237.981 116.535 237.939 114.691C237.889 112.847 237.864 110.828 237.856 108.701C237.848 104.448 237.939 100.602 238.056 97.819C238.114 96.4234 238.18 95.3019 238.23 94.521C238.289 93.7402 238.33 93.3165 238.364 93.3165C238.397 93.3165 238.405 93.7485 238.405 94.5293C238.397 95.385 238.38 96.4981 238.364 97.8273C238.322 100.61 238.28 104.456 238.289 108.701C238.305 110.82 238.322 112.838 238.339 114.691C238.355 116.535 238.38 118.18 238.588 119.551C238.954 122.317 240.144 123.696 240.061 123.729Z" fill="#7B858C"/>
<path d="M233.779 122.151C233.779 122.151 233.737 121.744 233.737 120.996C233.737 120.257 233.771 119.185 233.845 117.856C233.987 115.206 234.336 111.559 234.994 107.563C235.659 103.568 236.516 100.004 237.232 97.4535C237.589 96.1742 237.905 95.1524 238.147 94.4463C238.38 93.7402 238.529 93.3581 238.554 93.3664C238.579 93.3747 238.496 93.7734 238.305 94.4878C238.097 95.2853 237.839 96.3071 237.523 97.52C236.882 100.087 236.075 103.651 235.41 107.621C234.752 111.601 234.361 115.231 234.137 117.864C234.037 119.119 233.954 120.165 233.895 120.988C233.837 121.727 233.796 122.134 233.762 122.134L233.779 122.151Z" fill="#7B858C"/>
<path d="M212.921 103.46C212.921 103.576 197.43 103.294 178.336 102.82C159.234 102.346 143.75 101.873 143.759 101.748C143.759 101.632 159.242 101.914 178.352 102.388C197.446 102.862 212.929 103.335 212.929 103.46H212.921Z" fill="#7B858C"/>
<path d="M160.34 197.438C160.34 197.438 160.323 197.355 160.307 197.198C160.29 197.006 160.273 196.774 160.249 196.475C160.199 195.835 160.149 194.896 160.132 193.692C160.057 191.275 160.032 187.769 160.032 183.449C160.032 174.801 160.149 162.847 160.365 149.656C160.581 136.456 160.856 124.51 161.105 115.862C161.23 111.542 161.347 108.037 161.463 105.628C161.513 104.423 161.563 103.484 161.613 102.845C161.638 102.546 161.655 102.313 161.671 102.122C161.688 101.956 161.696 101.873 161.704 101.881C161.663 104.24 161.297 123.588 160.806 149.672C160.59 162.864 160.423 174.818 160.348 183.466C160.307 187.794 160.29 191.291 160.307 193.709C160.307 194.921 160.323 195.852 160.348 196.491C160.348 196.79 160.357 197.031 160.357 197.214C160.357 197.38 160.357 197.463 160.348 197.463L160.34 197.438Z" fill="#7B858C"/>
<path d="M168.51 129.503C168.51 129.503 168.469 129.12 168.46 128.447C168.435 127.683 168.394 126.72 168.352 125.573C168.236 123.056 168.078 119.75 167.911 116.086C167.745 112.423 167.595 109.117 167.487 106.6C167.454 105.453 167.42 104.49 167.395 103.725C167.379 103.044 167.395 102.67 167.42 102.67C167.454 102.67 167.504 103.044 167.562 103.717C167.628 104.398 167.703 105.379 167.795 106.591C167.969 109.017 168.169 112.365 168.352 116.078C168.527 119.783 168.643 123.139 168.668 125.573C168.677 126.786 168.668 127.775 168.635 128.456C168.593 129.137 168.544 129.511 168.519 129.511L168.51 129.503Z" fill="#7B858C"/>
<path d="M182.945 281.715C182.904 279.33 182.297 241.392 181.498 192.064C181.14 167.308 180.816 144.896 180.583 128.655C180.516 120.556 180.458 113.993 180.416 109.441C180.416 107.173 180.4 105.412 180.433 104.215C180.441 103.634 180.45 103.177 180.458 102.853C180.466 102.546 180.483 102.388 180.483 102.388C180.524 104.764 181.132 142.703 181.93 192.047C182.288 216.794 182.604 239.199 182.846 255.439C182.912 263.539 182.97 270.101 183.012 274.654C183.012 276.921 183.029 278.682 182.995 279.879C182.987 280.46 182.979 280.917 182.97 281.241C182.962 281.548 182.945 281.706 182.945 281.706V281.715Z" fill="#7B858C"/>
<path d="M184.501 115.265C184.443 115.265 184.36 114.567 184.185 113.429C183.985 112.125 183.769 110.638 183.52 108.993C183.27 107.256 183.07 105.678 182.979 104.531C182.879 103.385 182.904 102.662 182.962 102.662C183.02 102.662 183.104 103.36 183.278 104.498C183.478 105.802 183.694 107.289 183.944 108.934C184.193 110.671 184.393 112.249 184.485 113.396C184.584 114.542 184.56 115.265 184.501 115.265Z" fill="#7B858C"/>
<path d="M206.582 269.603C206.465 269.603 203.978 232.245 201.033 186.149C198.087 140.044 195.791 102.67 195.916 102.662C196.032 102.662 198.52 140.011 201.465 186.124C204.41 232.212 206.698 269.594 206.582 269.603Z" fill="#7B858C"/>
<g opacity="0.3">
<path d="M142.403 146.657C141.139 132.593 141.538 118.371 143.568 104.398C144.25 118.13 143.834 131.912 142.32 145.577" fill="black"/>
</g>
<g opacity="0.3">
<path d="M237.889 94.2718C235.61 99.2312 233.305 104.232 232.074 109.557C230.842 114.874 230.726 120.597 232.756 125.665C233.205 115.198 234.961 104.797 237.973 94.7619L238.114 96.9467" fill="black"/>
</g>
<path d="M127.295 100.361C127.104 98.0017 127.079 95.5843 126.297 93.3497C126.097 92.7931 125.847 92.2365 125.423 91.8212C124.991 91.4141 124.358 91.1815 123.792 91.3726C123.293 91.5387 122.944 92.0122 122.777 92.5107C122.611 93.0091 122.611 93.5491 122.611 94.0807C122.611 95.5843 122.619 97.1295 122.12 98.55C121.538 100.195 120.323 101.541 119.608 103.127C118.509 105.57 118.717 108.552 120.14 110.82C120.897 112.024 122.212 113.096 123.609 112.83L129.092 110.014C128.169 106.865 127.561 103.626 127.295 100.361Z" fill="#FF9A6C"/>
<path d="M121.746 111.983L99.2656 55.901C99.2656 55.901 101.479 51.8388 107.652 52.2458L129.766 108.61L121.746 111.983Z" fill="white"/>
<path d="M128.01 109.35C128.01 109.35 127.894 109.167 127.719 108.801C127.528 108.394 127.278 107.854 126.962 107.182C126.313 105.769 125.406 103.726 124.308 101.175C122.112 96.0915 119.183 89.0138 116.063 81.1552C112.952 73.2883 110.223 66.1358 108.309 60.9356C107.352 58.3354 106.595 56.2254 106.079 54.7633C105.838 54.0655 105.647 53.5007 105.505 53.077C105.381 52.6866 105.314 52.4872 105.331 52.4789C105.347 52.4706 105.43 52.6699 105.589 53.0438C105.755 53.4591 105.971 54.0157 106.246 54.7052C106.82 56.1922 107.619 58.2773 108.6 60.8276C110.589 65.9946 113.351 73.1305 116.471 80.9974C119.591 88.8559 122.469 95.9419 124.591 101.059C125.648 103.585 126.504 105.636 127.12 107.115C127.403 107.796 127.628 108.345 127.802 108.768C127.952 109.15 128.027 109.35 128.01 109.358V109.35Z" fill="#343C41"/>
<path d="M112.793 98.9819C112.727 99.1314 113.459 104.797 113.717 106.384C113.975 107.962 114.532 107.962 114.532 107.962C114.532 107.962 114.532 110.006 115.04 110.77C115.547 111.534 116.163 111.891 116.163 111.891C116.163 111.891 116.795 113.594 117.336 114.184C117.877 114.774 121.837 118.977 121.837 118.977C121.837 118.977 124.291 119.999 126.03 118.67C127.769 117.341 128.227 115.247 128.227 115.247L127.153 110.961C127.153 110.961 128.734 110.246 128.734 109.532C128.734 108.818 128.019 107.796 128.019 107.796C128.019 107.796 126.163 108.203 125.048 108.61C123.934 109.017 121.221 110.089 121.221 110.089L120.755 108.942L125.256 106.259C125.256 106.259 127.653 106.01 128.268 105.395C128.884 104.78 128.476 103.152 127.811 102.994C127.145 102.845 124.183 103.252 123.726 103.202C123.268 103.152 119.3 104.888 119.3 104.888C119.3 104.888 124.491 102.18 124.649 102.13C124.799 102.08 127.361 102.031 127.719 101.565C128.077 101.109 128.285 99.2727 127.153 98.9653C126.022 98.6579 123.676 98.9155 123.218 98.9653C122.761 99.0151 116.878 101.158 116.878 101.158V99.4222L120.506 94.7785C120.506 94.7785 121.33 93.574 120.098 92.5356C119.815 92.2947 118.892 92.3445 118.101 93.1004C117.461 93.7152 112.993 98.5084 112.785 98.9653L112.793 98.9819Z" fill="#FFBF9D"/>
<path d="M121.929 112.913C121.887 112.797 123.002 112.29 124.416 111.775C125.831 111.26 127.012 110.936 127.054 111.044C127.095 111.16 125.981 111.667 124.566 112.182C123.152 112.697 121.97 113.021 121.929 112.913Z" fill="#FF9A6C"/>
<path d="M123.127 113.902C123.027 113.835 123.135 113.478 123.268 113.063C123.41 112.647 123.526 112.29 123.643 112.298C123.759 112.298 123.834 112.722 123.676 113.196C123.518 113.677 123.218 113.968 123.119 113.902H123.127Z" fill="#FF9A6C"/>
<path d="M115.522 102.454C115.43 102.38 115.605 101.989 115.98 101.624C116.354 101.258 116.753 101.092 116.82 101.183C116.895 101.283 116.629 101.59 116.279 101.931C115.93 102.272 115.614 102.521 115.522 102.446V102.454Z" fill="#FF9A6C"/>
<path d="M110.189 83.157C110.189 83.157 112.244 78.9367 118.393 79.6345L120.023 83.7884C120.023 83.7884 116.479 82.6503 111.912 87.4605L110.189 83.1653V83.157Z" fill="#465159"/>
<path d="M105.472 85.5909C103.675 86.6793 102.061 88.399 101.562 90.4427C101.371 91.2237 101.645 92.2705 102.269 92.7689C102.86 93.2425 103.742 93.0763 104.441 92.7772C106.154 92.0545 107.569 90.7501 108.684 89.2713C109.799 87.7925 110.655 86.131 111.496 84.4777C109.457 83.9709 107.261 84.5026 105.464 85.5909H105.472ZM106.795 89.72C106.105 90.5424 104.973 91.5061 103.95 91.8468C103.609 91.9631 103.193 91.9963 102.918 91.7637C102.718 91.5892 102.602 91.3068 102.635 91.0409C102.71 90.3763 102.976 89.5704 103.484 89.0221C103.991 88.4655 104.557 87.7676 105.114 87.2691C105.971 86.4965 106.387 86.1725 107.236 85.8319C108.259 85.4165 109.108 85.2088 110.015 85.134C108.75 86.646 108.06 88.2162 106.795 89.72Z" fill="#465159"/>
<path d="M110.43 79.0949C109.307 77.3254 107.543 75.7469 105.497 75.29C104.715 75.1155 103.675 75.4146 103.184 76.046C102.718 76.6441 102.909 77.5165 103.217 78.2143C103.974 79.9091 105.305 81.2965 106.811 82.3766C108.317 83.4649 109.998 84.279 111.67 85.0849C112.136 83.0412 111.553 80.8562 110.43 79.0866V79.0949ZM106.32 80.499C105.48 79.826 104.498 78.7128 104.141 77.7075C104.016 77.3669 103.974 76.9515 104.207 76.6774C104.373 76.4697 104.656 76.3534 104.923 76.3783C105.596 76.4364 106.395 76.6857 106.961 77.1841C107.527 77.6743 108.234 78.2309 108.75 78.7793C109.54 79.6183 109.873 80.0337 110.231 80.8645C110.663 81.8781 110.888 82.7255 110.979 83.6227C109.44 82.3932 107.859 81.7368 106.32 80.5073V80.499Z" fill="#465159"/>
</g>
</svg>
