<svg width="240" height="222" viewBox="0 0 240 222" fill="none" xmlns="http://www.w3.org/2000/svg">
<g id="Group 2610760">
<g id="Background_Complete">
<path id="Vector" d="M40.5724 75.7404L42.8207 76.5843L40.8729 77.1379C40.2236 77.3207 39.7085 77.8205 39.4939 78.4655L38.7909 80.6262L37.9217 78.4601C37.7071 77.9226 37.2724 77.5034 36.7305 77.3045L34.7559 76.5897L36.8914 75.7082C37.4066 75.4932 37.8144 75.0793 38.0183 74.558L38.7909 72.5478L39.3436 74.4129C39.5261 75.0256 39.9822 75.5147 40.5778 75.7404H40.5724Z" fill="#E0E0E0"/>
<path id="Vector_2" d="M149.284 82.388L151.8 83.334L149.616 83.9521C148.887 84.1617 148.307 84.7153 148.076 85.4355L147.288 87.8542L146.316 85.4301C146.075 84.8282 145.592 84.3552 144.98 84.1348L142.77 83.334L145.163 82.3504C145.742 82.1139 146.198 81.6463 146.424 81.0604L147.288 78.8137L147.91 80.9045C148.114 81.5871 148.624 82.1407 149.289 82.388H149.284Z" fill="#E0E0E0"/>
<path id="Vector_3" d="M140.319 25.7802L141.853 26.3606L140.517 26.7369C140.072 26.8659 139.718 27.2045 139.573 27.6452L139.09 29.1233L138.494 27.6399C138.35 27.2744 138.049 26.9841 137.679 26.8498L136.332 26.3606L137.792 25.7587C138.146 25.6135 138.425 25.3287 138.559 24.9686L139.085 23.5926L139.466 24.8718C139.589 25.2911 139.9 25.6243 140.308 25.7802H140.319Z" fill="#E0E0E0"/>
<path id="Vector_4" d="M46.6528 14.3697L48.1874 14.9502L46.8513 15.3264C46.406 15.4554 46.0518 15.794 45.907 16.2348L45.424 17.7128L44.8284 16.2294C44.6836 15.8639 44.3831 15.5737 44.0128 15.4393L42.666 14.9502L44.1255 14.3482C44.4797 14.2031 44.7587 13.9182 44.8928 13.5581L45.4187 12.1821L45.7996 13.4613C45.9231 13.8806 46.2343 14.2138 46.6421 14.3697H46.6528Z" fill="#E0E0E0"/>
<path id="Vector_5" d="M76.6422 15.7454L80.0441 17.0246L77.0929 17.863C76.1056 18.1425 75.3276 18.895 75.0056 19.8732L73.9378 23.1465L72.6232 19.8679C72.2959 19.0563 71.6413 18.4167 70.8149 18.1157L67.8262 17.0299L71.0618 15.697C71.8452 15.3745 72.4622 14.7456 72.7627 13.9502L73.9325 10.908L74.7695 13.7352C75.0432 14.6596 75.7354 15.4014 76.6368 15.7454H76.6422Z" fill="#E0E0E0"/>
<path id="Vector_6" d="M130.477 10.0648L132.725 10.9086L130.777 11.4622C130.128 11.645 129.613 12.1448 129.398 12.7898L128.695 14.9505L127.826 12.7845C127.611 12.247 127.177 11.8277 126.635 11.6289L124.66 10.914L126.796 10.0325C127.311 9.81754 127.719 9.40368 127.923 8.88232L128.695 6.87213L129.248 8.7372C129.43 9.34993 129.886 9.83904 130.482 10.0648H130.477Z" fill="#E0E0E0"/>
<path id="Vector_7" d="M201.654 66.7368L203.903 67.5806L201.955 68.1342C201.306 68.317 200.791 68.8168 200.576 69.4618L199.873 71.6225L199.004 69.4564C198.789 68.919 198.354 68.4997 197.813 68.3009L195.838 67.586L197.973 66.7045C198.489 66.4895 198.896 66.0757 199.1 65.5543L199.873 63.5441L200.426 65.4092C200.608 66.0219 201.064 66.511 201.66 66.7368H201.654Z" fill="#E0E0E0"/>
<path id="Vector_8" d="M37.3274 88.7411L38.1752 89.0582L37.4401 89.2678C37.1933 89.3377 37.0001 89.5258 36.9196 89.7677L36.6513 90.5793L36.324 89.7623C36.2435 89.558 36.0772 89.4022 35.8733 89.3269L35.1328 89.0582L35.9377 88.725C36.1309 88.6443 36.2865 88.4885 36.3616 88.2896L36.6513 87.5317L36.8606 88.2358C36.9304 88.467 37.1021 88.6497 37.3274 88.7357V88.7411Z" fill="#E0E0E0"/>
<path id="Vector_9" d="M108.027 13.3377L108.874 13.6548L108.139 13.8645C107.893 13.9343 107.699 14.1225 107.619 14.3643L107.351 15.1759L107.023 14.3589C106.943 14.1547 106.776 13.9988 106.573 13.9236L105.832 13.6548L106.637 13.3216C106.83 13.241 106.986 13.0851 107.061 12.8862L107.351 12.1284L107.56 12.8325C107.63 13.0636 107.801 13.2464 108.027 13.3324V13.3377Z" fill="#E0E0E0"/>
<path id="Vector_10" d="M201.086 194.873L202.621 195.453L201.285 195.829C200.84 195.958 200.485 196.297 200.341 196.738L199.858 198.216L199.262 196.732C199.117 196.367 198.817 196.077 198.446 195.942L197.1 195.453L198.559 194.851C198.913 194.706 199.192 194.421 199.326 194.061L199.852 192.685L200.233 193.964C200.357 194.384 200.668 194.717 201.076 194.873H201.086Z" fill="#E0E0E0"/>
<path id="Vector_11" d="M193.031 208.708L195.28 209.552L193.332 210.106C192.683 210.288 192.167 210.788 191.953 211.433L191.25 213.594L190.381 211.428C190.166 210.89 189.731 210.471 189.189 210.272L187.215 209.557L189.35 208.676C189.866 208.461 190.273 208.047 190.477 207.526L191.25 205.515L191.803 207.381C191.985 207.993 192.441 208.482 193.037 208.708H193.031Z" fill="#E0E0E0"/>
<path id="Vector_12" d="M81.7228 215.077L83.9711 215.921L82.0233 216.475C81.374 216.657 80.8589 217.157 80.6443 217.802L79.9413 219.963L79.0721 217.797C78.8574 217.259 78.4228 216.84 77.8809 216.641L75.9062 215.926L78.0418 215.045C78.557 214.83 78.9648 214.416 79.1687 213.895L79.9413 211.885L80.494 213.75C80.6765 214.362 81.1325 214.852 81.7281 215.077H81.7228Z" fill="#E0E0E0"/>
<path id="Vector_13" d="M175.947 203.677L176.794 203.994L176.059 204.204C175.812 204.274 175.619 204.462 175.539 204.704L175.27 205.516L174.943 204.699C174.863 204.494 174.696 204.338 174.492 204.263L173.752 203.994L174.557 203.661C174.75 203.581 174.906 203.425 174.981 203.226L175.27 202.468L175.48 203.172C175.549 203.403 175.721 203.586 175.947 203.672V203.677Z" fill="#E0E0E0"/>
<path id="Vector_14" d="M160.462 57.6377L161.31 57.9548L160.575 58.1644C160.328 58.2343 160.135 58.4224 160.054 58.6642L159.786 59.4759L159.459 58.6589C159.378 58.4546 159.212 58.2988 159.008 58.2235L158.268 57.9548L159.072 57.6215C159.266 57.5409 159.421 57.385 159.496 57.1862L159.786 56.4283L159.995 57.1324C160.065 57.3635 160.237 57.5463 160.462 57.6323V57.6377Z" fill="#E0E0E0"/>
<path id="Vector_15" d="M47.2865 37.8898L49.6153 38.7659L47.5924 39.341C46.9163 39.5345 46.3797 40.0504 46.1651 40.7169L45.4353 42.9582L44.5339 40.7116C44.3085 40.1526 43.8578 39.7172 43.2944 39.513L41.25 38.7712L43.4661 37.8575C44.0027 37.6371 44.4266 37.2018 44.6305 36.6643L45.43 34.5789L46.0041 36.5192C46.1919 37.1534 46.6641 37.664 47.2812 37.8951L47.2865 37.8898Z" fill="#E0E0E0"/>
<path id="Vector_16" d="M25.7156 82.8721L26.9551 83.3397L25.8765 83.6461C25.517 83.7482 25.2327 84.0223 25.1146 84.377L24.7229 85.5702L24.2453 84.377C24.1273 84.0814 23.8858 83.8503 23.5854 83.7374L22.4961 83.3397L23.6766 82.856C23.961 82.7377 24.1863 82.5066 24.299 82.2217L24.7229 81.1145L25.0288 82.1465C25.1307 82.4851 25.3829 82.7538 25.7102 82.8774L25.7156 82.8721Z" fill="#E0E0E0"/>
<path id="Vector_17" d="M238.007 112.413C225.365 106.587 213.453 111.08 213.453 111.08C222.645 118.449 238.007 112.413 238.007 112.413Z" fill="#E0E0E0"/>
<path id="Vector_18" d="M200.404 103.206C198.515 111.548 202.808 118.589 202.808 118.589C206.081 112.262 200.404 103.206 200.404 103.206Z" fill="#E0E0E0"/>
<path id="Vector_19" d="M206.172 118.422C215.557 122.571 224.813 119.18 224.813 119.18C218.116 113.87 206.172 118.422 206.172 118.422Z" fill="#E0E0E0"/>
<path id="Vector_20" d="M220.928 103.619C220.799 103.479 215.203 108.359 208.426 114.519C201.649 120.684 196.256 125.79 196.385 125.93C196.514 126.069 202.11 121.189 208.887 115.03C215.664 108.87 221.057 103.759 220.928 103.619Z" fill="#E0E0E0"/>
<path id="Vector_21" d="M239.113 91.0642C239.113 91.0642 223.349 92.9185 218.391 106.232C218.391 106.232 231.864 104.835 239.113 91.0642Z" fill="#E0E0E0"/>
<path id="Vector_22" d="M216.774 87.6887C216.774 87.6887 205.222 98.5943 209.16 112.241C209.16 112.241 219.146 103.072 216.774 87.6887Z" fill="#E0E0E0"/>
<path id="Vector_23" d="M16.798 131.106C14.1634 141.856 19.454 150.488 19.454 150.488C23.8057 142.2 16.798 131.106 16.798 131.106Z" fill="#E0E0E0"/>
<path id="Vector_24" d="M15.2852 161.867C22.0622 162.087 26.8968 157.675 26.8968 157.675C21.4773 156.068 15.2852 161.867 15.2852 161.867Z" fill="#E0E0E0"/>
<path id="Vector_25" d="M26.2627 155.073C28.0818 147.118 24.0467 140.394 24.0467 140.394C20.9184 146.425 26.2627 155.073 26.2627 155.073Z" fill="#E0E0E0"/>
<path id="Vector_26" d="M12.5209 145.774C12.4296 145.897 17.0711 149.536 22.8876 153.901C28.7041 158.27 33.4958 161.71 33.5816 161.587C33.6729 161.463 29.0314 157.83 23.2149 153.46C17.3984 149.095 12.6121 145.65 12.5209 145.774Z" fill="#E0E0E0"/>
<path id="Vector_27" d="M0.0078125 133.461C0.0078125 133.461 3.8229 145.495 14.9355 147.365C14.9355 147.365 11.8179 137.051 0.0078125 133.461Z" fill="#E0E0E0"/>
<path id="Vector_28" d="M0.738281 151.418C0.738281 151.418 10.9655 158.803 20.9942 153.67C20.9942 153.67 12.3552 147.247 0.738281 151.418Z" fill="#E0E0E0"/>
</g>
<g id="Plants">
<path id="Vector_29" d="M203.565 83.6898C185.128 84.5713 173.844 97.1538 173.844 97.1538C189.163 100.196 203.565 83.6898 203.565 83.6898Z" fill="#6ECF8B"/>
<path id="Vector_30" d="M153.68 95.8795C156.55 106.855 165.903 112.515 165.903 112.515C165.898 103.06 153.68 95.8795 153.68 95.8795Z" fill="#6ECF8B"/>
<path id="Vector_31" d="M169.754 110.257C183.335 109.397 192.161 99.7335 192.161 99.7335C181.038 97.5782 169.754 110.257 169.754 110.257Z" fill="#6ECF8B"/>
<path id="Vector_32" d="M178.093 83.7965C177.857 83.7105 174.246 92.8799 170.028 104.285C165.811 115.691 162.581 125.005 162.817 125.091C163.053 125.177 166.664 116.008 170.882 104.602C175.099 93.2024 178.329 83.8825 178.088 83.7965H178.093Z" fill="#6ECF8B"/>
<path id="Vector_33" d="M191.835 57.8794C191.835 57.8794 174.407 69.7202 176.698 88.4246C176.698 88.4246 191.706 78.5296 191.835 57.8794Z" fill="#6ECF8B"/>
<path id="Vector_34" d="M163.476 67.5859C163.476 67.5859 156.528 87.4997 169.497 101.152C169.497 101.152 175.657 84.2425 163.476 67.5859Z" fill="#6ECF8B"/>
<path id="Vector_35" d="M19.7324 130.919C33.0342 126.995 44.1361 133.144 44.1361 133.144C34.0108 139.083 19.7324 130.919 19.7324 130.919Z" fill="#6ECF8B"/>
<path id="Vector_36" d="M58.1346 127.263C58.7946 135.761 53.5522 142.087 53.5522 142.087C51.2342 135.374 58.1346 127.263 58.1346 127.263Z" fill="#6ECF8B"/>
<path id="Vector_37" d="M50.264 141.431C40.4124 144.167 31.7734 139.485 31.7734 139.485C39.1407 135.212 50.264 141.431 50.264 141.431Z" fill="#6ECF8B"/>
<path id="Vector_38" d="M37.8412 124.71C37.9861 124.592 42.8046 130.209 48.605 137.26C54.4055 144.318 58.9825 150.128 58.8376 150.251C58.6927 150.37 53.8743 144.753 48.0738 137.696C42.2788 130.644 37.6964 124.828 37.8412 124.705V124.71Z" fill="#6ECF8B"/>
<path id="Vector_39" d="M21.7129 109.704C21.7129 109.704 36.9893 113.81 39.9674 127.65C39.9674 127.65 26.8802 124.329 21.7129 109.704Z" fill="#6ECF8B"/>
<path id="Vector_40" d="M44.2275 109.596C44.2275 109.596 54.0523 122.018 48.2035 134.901C48.2035 134.901 39.6719 124.42 44.2275 109.596Z" fill="#6ECF8B"/>
</g>
<g id="Speech_Bubble">
<path id="Vector_41" d="M152.173 41.3736L154.523 34.4508C152.586 30.726 151.62 26.4315 151.942 21.9328C152.87 8.99553 164.095 -0.738308 177.011 0.19154C189.926 1.12139 199.644 12.3656 198.716 25.3028C197.787 38.24 186.562 47.9739 173.647 47.044C168.254 46.657 163.419 44.4641 159.685 41.1048V41.1156L152.173 41.3682V41.3736Z" fill="white"/>
<path id="Vector_42" d="M152.172 41.3735C152.172 41.3735 152.327 41.3735 152.644 41.3681C152.971 41.3573 153.449 41.3466 154.071 41.3358C155.354 41.3036 157.237 41.2498 159.689 41.1854H159.797L159.738 41.094V41.0832L159.641 41.1585C161.879 43.1794 165.259 45.4476 169.836 46.5548C170.974 46.8343 172.181 47.0278 173.436 47.1299C174.697 47.1676 176.007 47.2589 177.348 47.1031C180.031 46.8827 182.853 46.1786 185.563 44.8671C188.273 43.561 190.865 41.653 193.027 39.1805C195.195 36.7189 196.928 33.6875 197.937 30.312C198.967 26.942 199.171 23.2226 198.543 19.5624C197.91 15.9075 196.413 12.2956 194.025 9.24805C193.725 8.86644 193.429 8.47945 193.124 8.10858C192.791 7.75922 192.458 7.40985 192.126 7.06049L191.627 6.53913L191.085 6.06614C190.725 5.7544 190.36 5.43729 190.001 5.12555C189.63 4.82455 189.228 4.56656 188.847 4.28707C188.455 4.01833 188.09 3.71734 187.667 3.49697C186.846 3.03473 186.051 2.52412 185.182 2.18013C181.791 0.62143 178.126 -0.0880492 174.595 0.00869798C171.059 0.132319 167.679 1.05142 164.738 2.54562C161.793 4.03445 159.292 6.08227 157.35 8.39345C155.397 10.7046 154.007 13.2738 153.116 15.8215C152.639 17.0899 152.386 18.3799 152.118 19.6161C151.973 20.8738 151.78 22.0832 151.785 23.2603C151.721 27.9794 153.068 31.8278 154.463 34.4776V34.4292C153.706 36.6866 153.132 38.4281 152.741 39.6105C152.553 40.1856 152.408 40.6264 152.306 40.9327C152.209 41.2284 152.166 41.3735 152.166 41.3735C152.166 41.3735 152.225 41.2176 152.333 40.9166C152.44 40.6102 152.596 40.1695 152.8 39.589C153.207 38.4227 153.803 36.7027 154.576 34.4722L154.586 34.4507L154.576 34.4292C153.207 31.7794 151.898 27.9525 151.979 23.271C151.979 22.1047 152.172 20.9061 152.322 19.6591C152.59 18.4337 152.842 17.1544 153.32 15.8967C154.211 13.3706 155.595 10.8336 157.532 8.54932C159.464 6.27039 161.943 4.24945 164.857 2.77674C167.765 1.30403 171.108 0.395686 174.601 0.282815C178.094 0.191443 181.716 0.890172 185.064 2.43813C185.923 2.78212 186.706 3.28735 187.516 3.74421C187.929 3.95921 188.294 4.2602 188.681 4.52356C189.056 4.80306 189.453 5.05567 189.818 5.35129C190.172 5.65766 190.532 5.9694 190.886 6.28114L191.423 6.74875L191.916 7.26473C192.244 7.60872 192.571 7.95271 192.904 8.30208C193.209 8.67294 193.499 9.05455 193.794 9.43079C196.155 12.4407 197.636 16.0096 198.264 19.6215C198.886 23.2334 198.688 26.9151 197.674 30.2422C196.681 33.58 194.975 36.5791 192.834 39.0193C190.698 41.4648 188.133 43.3622 185.456 44.6575C182.773 45.9636 179.983 46.6677 177.327 46.8934C175.996 47.0547 174.697 46.9687 173.453 46.9364C172.208 46.8397 171.011 46.6516 169.879 46.3774C165.334 45.2971 161.959 43.0612 159.721 41.0725L159.394 40.7822L159.63 41.1531V41.1639L159.684 41.0725C157.253 41.1692 155.381 41.2445 154.109 41.2982C153.476 41.3251 152.998 41.3466 152.665 41.3627C152.338 41.3788 152.166 41.3896 152.166 41.3896L152.172 41.3735Z" fill="#383E41"/>
<path id="Vector_43" d="M187.2 20.7341C187.06 19.1808 186.347 17.7188 185.338 16.531C184.351 15.37 183.047 14.4402 181.566 14.0801C179.994 13.6985 178.266 13.9941 176.914 14.8809C176.109 15.4077 175.438 16.1386 174.971 16.9771C174.547 16.2085 173.962 15.5367 173.254 15.0207C171.945 14.0693 170.233 13.6931 168.645 13.9995C167.148 14.2897 165.806 15.155 164.76 16.2676C163.698 17.4017 162.914 18.8368 162.7 20.3794C162.431 22.309 162.759 24.4428 163.719 26.1358C164.739 27.9257 166.413 29.393 168.151 30.4948C171.07 32.3492 174.918 34.6818 174.918 34.6818C174.918 34.6818 178.271 32.29 181.276 30.5755C183.063 29.5542 184.807 28.1675 185.907 26.4315C186.948 24.7814 187.372 22.6744 187.2 20.7288V20.7341Z" fill="#C997CD"/>
</g>
<g id="Character">
<path id="Vector_44" d="M146.988 102.555C146.988 102.555 158.229 102.13 163.74 116.363C169.256 130.595 174.767 160.34 174.767 160.34L209.403 139.066L220.66 152.213C220.66 152.213 169.256 190.928 164.378 193.056C159.501 195.179 153.985 190.084 151.651 187.106C149.317 184.134 146.982 102.555 146.982 102.555H146.988Z" fill="#AE7461"/>
<path id="Vector_45" d="M29.633 173.674L57.8249 180.377C57.8249 180.377 63.9741 131.982 68.4438 124.425C74.373 114.406 83.5003 112.106 83.5003 112.106L91.3451 136.534C91.3451 136.534 82.6471 203.876 77.5603 207.703C72.4735 211.529 25.834 189.315 25.834 189.315L29.6276 173.68L29.633 173.674Z" fill="#AE7461"/>
<path id="Vector_46" d="M173.752 222.859C173.752 222.859 161.953 185.332 161.953 176.544C161.953 173.782 164.507 158.662 164.507 146.94C164.507 137.604 159.603 125.354 156.866 119.05C155.97 116.986 146.966 102.581 146.966 102.581L130.118 100.335L102.055 102.436L78.7402 113.997L86.8855 166.042L94.8001 199.167L84.5729 222.859H173.752Z" fill="#C997CD"/>
<path id="Vector_47" d="M131.545 182.689C138.413 175.938 145.732 169.644 153.432 163.866L131.545 182.689Z" fill="#383E41"/>
<path id="Vector_48" d="M58.5918 161.495L89.2842 167.472C89.2842 167.472 79.9853 113.38 79.776 113.482C79.5667 113.584 68.1483 117.712 65.0308 132.256C61.881 146.945 58.5972 161.495 58.5972 161.495H58.5918Z" fill="#C997CD"/>
<path id="Vector_49" d="M144.289 102.222C144.289 102.222 156.019 101.83 161.089 111.139C166.16 120.448 175.341 146.118 175.341 146.118L159.995 152.16L144.289 102.222Z" fill="#C997CD"/>
<path id="Vector_50" d="M155.82 125.231C155.82 125.231 155.901 125.29 156.04 125.424C156.196 125.58 156.389 125.774 156.631 126.01C156.888 126.263 157.194 126.585 157.521 126.978C157.849 127.37 158.246 127.8 158.621 128.327C158.814 128.585 159.018 128.859 159.228 129.138C159.437 129.423 159.625 129.735 159.839 130.052C160.274 130.676 160.66 131.39 161.09 132.132C161.894 133.642 162.662 135.362 163.284 137.238C163.885 139.119 164.277 140.968 164.518 142.661C164.609 143.511 164.717 144.317 164.733 145.08C164.749 145.462 164.781 145.827 164.776 146.182C164.776 146.537 164.765 146.87 164.765 147.198C164.77 147.843 164.706 148.429 164.669 148.939C164.636 149.45 164.577 149.891 164.524 150.245C164.47 150.579 164.427 150.847 164.395 151.068C164.363 151.256 164.341 151.353 164.33 151.353C164.32 151.353 164.325 151.25 164.341 151.062C164.363 150.842 164.389 150.568 164.416 150.235C164.459 149.88 164.502 149.439 164.518 148.929C164.54 148.418 164.593 147.837 164.572 147.198C164.572 146.875 164.572 146.542 164.567 146.187C164.567 145.838 164.524 145.473 164.508 145.096C164.481 144.344 164.368 143.543 164.266 142.699C164.014 141.022 163.622 139.195 163.021 137.33C162.404 135.47 161.648 133.761 160.864 132.256C160.451 131.514 160.07 130.805 159.646 130.176C159.442 129.859 159.254 129.547 159.051 129.257C158.847 128.972 158.648 128.698 158.46 128.44C158.101 127.908 157.714 127.472 157.398 127.069C157.087 126.666 156.792 126.338 156.55 126.075C156.33 125.822 156.148 125.618 156.003 125.451C155.879 125.306 155.82 125.225 155.826 125.22L155.82 125.231Z" fill="#383E41"/>
<path id="Vector_51" d="M80.6444 141.496C80.6444 141.496 80.6981 141.588 80.7678 141.765C80.8483 141.975 80.9503 142.238 81.0737 142.56C81.3366 143.254 81.6961 144.259 82.1254 145.506C82.9839 148.005 84.1 151.483 85.1839 155.363C86.2678 159.249 87.1263 162.802 87.6897 165.382C87.9741 166.672 88.1887 167.72 88.3229 168.446C88.3819 168.784 88.4356 169.058 88.4731 169.284C88.5053 169.478 88.516 169.58 88.5053 169.58C88.4946 169.58 88.4678 169.483 88.4141 169.295C88.3604 169.075 88.2961 168.8 88.2102 168.467C88.0331 167.709 87.7863 166.677 87.4912 165.425C86.8795 162.856 85.9941 159.319 84.9102 155.439C83.821 151.558 82.7424 148.08 81.9322 145.565C81.5351 144.34 81.2078 143.329 80.9664 142.593C80.8644 142.265 80.7786 141.996 80.7088 141.781C80.6551 141.593 80.6283 141.496 80.6391 141.491L80.6444 141.496Z" fill="#383E41"/>
<path id="Vector_52" d="M94.8528 70.3226C89.927 61.2767 88.87 50.0756 92.009 40.2181L79.4261 38.7669C70.7979 39.2883 63.2804 45.9961 59.8088 54.1712C56.3371 62.3463 56.3961 71.7201 58.0595 80.481C58.6873 83.7866 59.4654 87.4845 57.6893 90.3116C56.1868 92.7034 53.2464 93.7408 51.5776 96.0143C49.0986 99.3897 50.424 104.689 53.7025 107.232C56.981 109.774 61.558 109.919 65.459 108.629C69.3653 107.339 72.7511 104.802 76.0403 102.271C77.4676 104.657 80.7139 105.453 83.2466 104.442C85.7793 103.437 87.5768 100.959 88.3709 98.2771C89.1651 95.5951 89.0685 92.7196 88.709 89.9408C93.5006 91.3973 99.0811 87.3716 99.4191 82.2279C99.7035 77.8957 96.9026 74.1065 94.8475 70.3226H94.8528Z" fill="#383E41"/>
<path id="Vector_53" d="M73.7122 60.6576C73.3151 58.0078 72.9234 55.3096 73.3473 52.6652C73.7712 50.0208 75.1502 47.3925 77.5058 46.124C78.6165 45.5274 80.0331 45.2802 81.1063 45.9413C82.1794 46.6024 82.4853 48.3976 81.4443 49.1125L81.3799 49.4564C80.7628 53.1436 80.076 56.8146 79.3194 60.4695C79.1263 61.3886 78.9224 62.3346 78.3965 63.1139C77.8707 63.8933 76.9478 64.4791 76.0195 64.3286C74.4902 64.076 73.9322 62.1894 73.7015 60.6522L73.7122 60.6576Z" fill="#465159"/>
<path id="Vector_54" d="M80.6443 42.024C85.2428 33.306 94.0213 26.3886 104.753 24.2118C110.725 22.9971 113.435 23.8678 117.964 24.2763C122.487 24.6848 126.796 26.3187 130.015 29.5329C133.841 33.349 137.264 37.7671 138.772 42.9592C140.317 48.2911 141.321 53.6552 140.945 59.1966C140.473 66.1409 137.13 70.7257 134.705 75.7189L126.592 80.3036C118.988 81.9107 111.272 83.5232 103.513 83.0878C95.7544 82.6524 87.8077 79.9059 82.6672 74.0634C75.5307 65.9474 75.6059 51.5859 80.6551 42.024H80.6443Z" fill="#383E41"/>
<path id="Vector_55" d="M92.9599 39.7668L110.141 29.1676L115.067 28.8828C125.927 27.0123 135.516 37.6921 137.131 46.4854C138.923 56.2568 140.732 68.2589 140.442 75.7406C139.862 90.7902 127.714 94.171 127.714 94.171C127.714 94.171 128.224 96.4714 129.174 101.325C127.129 109.344 114.686 111.36 102.592 104.722L102.119 104.2L88.9571 45.5878C88.5814 42.895 90.3253 40.3688 92.9707 39.7614L92.9599 39.7668Z" fill="#AE7461"/>
<path id="Vector_56" d="M132.815 59.4595C132.971 60.4538 132.257 61.4106 131.222 61.5879C130.186 61.7707 129.226 61.1096 129.07 60.1152C128.915 59.1209 129.628 58.1642 130.664 57.9868C131.699 57.804 132.665 58.4651 132.821 59.4595H132.815Z" fill="#383E41"/>
<path id="Vector_57" d="M134.673 51.9561C134.469 52.2302 132.907 51.3434 130.874 51.5906C128.84 51.811 127.472 53.0364 127.22 52.8161C127.096 52.7193 127.284 52.2463 127.88 51.6927C128.464 51.1445 129.5 50.5533 130.766 50.4082C132.033 50.263 133.16 50.6016 133.825 51.0101C134.506 51.4186 134.775 51.8379 134.673 51.9615V51.9561Z" fill="#383E41"/>
<path id="Vector_58" d="M124.495 70.0703C124.473 69.9574 125.713 69.5866 127.73 69.076C128.245 68.9577 128.723 68.7965 128.766 68.431C128.841 68.0386 128.557 67.5065 128.235 66.9314C127.596 65.7275 126.925 64.4697 126.222 63.1529C123.416 57.7673 121.318 53.3116 121.533 53.1987C121.753 53.0858 124.205 57.3642 127.011 62.7498C127.693 64.0828 128.342 65.3458 128.959 66.5606C129.227 67.1303 129.646 67.7591 129.474 68.5707C129.383 68.9792 129.034 69.3017 128.712 69.4361C128.39 69.5758 128.1 69.6188 127.843 69.6618C125.793 70.0219 124.516 70.1832 124.495 70.0649V70.0703Z" fill="#383E41"/>
<path id="Vector_59" d="M127.729 94.1493C127.729 94.1493 117.883 95.9768 107.35 91.2361C107.35 91.2361 113.831 100.846 128.426 97.6967L127.729 94.1493Z" fill="#6F4439"/>
<path id="Vector_60" d="M132.753 45.0065C132.468 45.544 130.875 45.3989 129.072 45.7697C127.258 46.0815 125.82 46.8017 125.364 46.3986C125.16 46.1997 125.3 45.6945 125.874 45.114C126.437 44.5389 127.457 43.953 128.701 43.7165C129.946 43.4854 131.105 43.6628 131.83 43.9906C132.565 44.3185 132.876 44.7431 132.758 45.0011L132.753 45.0065Z" fill="#383E41"/>
<path id="Vector_61" d="M110.527 62.6951C110.651 63.6948 111.595 64.4204 112.642 64.3075C113.683 64.2001 114.434 63.3024 114.316 62.3027C114.192 61.303 113.248 60.5774 112.207 60.6849C111.161 60.7924 110.409 61.69 110.533 62.6897L110.527 62.6951Z" fill="#383E41"/>
<path id="Vector_62" d="M107.259 55.9716C107.533 56.1813 108.788 54.8967 110.816 54.5849C112.834 54.2409 114.487 55.0525 114.664 54.7677C114.755 54.6387 114.449 54.2356 113.725 53.8647C113.016 53.4938 111.857 53.209 110.596 53.4132C109.336 53.6175 108.348 54.2517 107.812 54.8214C107.264 55.3965 107.125 55.8749 107.254 55.9663L107.259 55.9716Z" fill="#383E41"/>
<path id="Vector_63" d="M107.341 49.2906C107.813 49.6883 109.299 48.9627 111.172 48.6456C113.034 48.2694 114.686 48.4091 114.981 47.8662C115.105 47.6083 114.783 47.1836 114.021 46.8612C113.27 46.5333 112.068 46.3613 110.78 46.5978C109.498 46.8397 108.441 47.4309 107.866 48.006C107.276 48.5865 107.131 49.0917 107.346 49.2906H107.341Z" fill="#383E41"/>
<path id="Vector_64" d="M95.7597 69.7362C95.6255 68.6344 94.048 66.1942 92.9426 66.1566C89.9914 66.0491 84.8027 66.909 85.629 74.2833C86.7612 84.3611 96.6343 81.1416 96.6182 80.8514C96.6075 80.6256 96.2211 73.5362 95.7597 69.7416V69.7362Z" fill="#AE7461"/>
<path id="Vector_65" d="M93.4315 77.4807C93.3832 77.4538 93.2706 77.6258 92.9915 77.7925C92.7179 77.9591 92.2296 78.1042 91.6823 77.9698C90.5769 77.7011 89.4877 76.1101 89.2355 74.2988C89.1067 73.3851 89.1979 72.4875 89.4447 71.7296C89.6701 70.9557 90.0886 70.3913 90.6145 70.2354C91.135 70.0527 91.5481 70.3322 91.7037 70.6009C91.8701 70.8697 91.8272 71.0793 91.8862 71.09C91.9184 71.1115 92.0847 70.8965 91.9559 70.488C91.8915 70.2945 91.7467 70.0688 91.4891 69.9022C91.2262 69.7356 90.8613 69.6711 90.4911 69.7571C89.7184 69.8968 89.1013 70.6923 88.8384 71.5254C88.5272 72.3692 88.4038 73.3743 88.5486 74.4009C88.8438 76.4272 90.094 78.2063 91.5964 78.4643C92.3262 78.5664 92.8896 78.2869 93.1686 78.0182C93.453 77.7333 93.4798 77.5022 93.4423 77.4861L93.4315 77.4807Z" fill="#6F4439"/>
<path id="Vector_66" d="M92.5414 66.2593L95.5301 68.4415C106.552 58.4765 122.236 27.1627 120.449 27.8507C120.449 27.8507 112.427 26.0824 104.55 28.8988C96.6731 31.7098 81.9815 38.4929 83.8971 48.044C85.8127 57.5951 92.5414 66.2593 92.5414 66.2593Z" fill="#383E41"/>
<path id="Vector_67" d="M118.269 73.364C117.974 73.2458 117.657 73.1275 117.351 73.1974C117.067 73.2619 116.842 73.4769 116.665 73.708C115.817 74.7937 115.709 76.4062 116.402 77.5994C117.094 78.7926 118.548 79.486 119.911 79.2817C121.274 79.0775 122.776 78.0562 123.227 75.4656C121.676 74.8475 119.82 73.9821 118.269 73.364Z" fill="#6F4439"/>
<path id="Vector_68" d="M119.923 79.3785C119.934 79.2818 119 79.4914 117.825 78.8142C117.256 78.4809 116.661 77.9005 116.382 77.0781C116.097 76.2665 116.135 75.2345 116.612 74.3638C116.854 73.9446 117.181 73.5146 117.541 73.5253C117.916 73.52 118.394 73.7833 118.818 73.9392C119.628 74.2617 120.39 74.5681 121.098 74.8475C122.402 75.3528 123.223 75.6323 123.245 75.5678C123.271 75.5033 122.499 75.1055 121.227 74.5197C120.535 74.2079 119.784 73.8693 118.984 73.5092C118.55 73.348 118.169 73.0631 117.525 73.0309C117.192 73.0309 116.886 73.219 116.688 73.4286C116.478 73.6382 116.328 73.8693 116.178 74.1219C115.625 75.1378 115.604 76.3149 115.952 77.234C116.301 78.1746 117.01 78.8034 117.659 79.1259C119.011 79.787 119.966 79.4108 119.929 79.3839L119.923 79.3785Z" fill="#383E41"/>
<g id="Group" opacity="0.3">
<path id="Vector_69" d="M110.19 70.5107C112.475 70.5107 114.327 69.5842 114.327 68.4414C114.327 67.2985 112.475 66.372 110.19 66.372C107.905 66.372 106.053 67.2985 106.053 68.4414C106.053 69.5842 107.905 70.5107 110.19 70.5107Z" fill="#6F4439"/>
</g>
<g id="Group_2" opacity="0.3">
<path id="Vector_70" d="M139.095 66.9309C139.095 68.0757 137.619 69.0002 135.8 69.0002C133.981 69.0002 132.506 68.0703 132.506 66.9309C132.506 65.7914 133.981 64.8615 135.8 64.8615C137.619 64.8615 139.095 65.7914 139.095 66.9309Z" fill="#6F4439"/>
</g>
<path id="Vector_71" d="M86.3008 77.0949C86.3008 77.0949 86.1559 77.025 85.8877 76.8691C85.7481 76.7885 85.5872 76.6918 85.394 76.5789C85.2974 76.5198 85.1901 76.4553 85.0828 76.3908C84.9755 76.3102 84.8681 76.2295 84.7501 76.1435C83.7789 75.4878 82.5018 74.3215 81.2462 72.6338C79.9799 70.9514 78.8531 68.6725 78.0321 66.012C77.6511 64.6736 77.3238 63.2493 77.1307 61.7443C76.9429 60.2394 76.8624 58.6699 76.9214 57.0682C77.1521 50.6453 78.9175 44.9587 80.9565 41.2877C81.9545 39.4388 82.9472 38.052 83.6984 37.1491C84.0579 36.6868 84.3852 36.3643 84.5838 36.1332C84.793 35.9075 84.9057 35.7892 84.9111 35.7946C84.9164 35.8 84.8199 35.929 84.6267 36.1709C84.4389 36.4181 84.1277 36.746 83.7843 37.2189C83.0652 38.138 82.1048 39.5355 81.1335 41.3844C79.1536 45.0555 77.4365 50.699 77.2058 57.0844C77.1521 58.6753 77.2272 60.2286 77.4097 61.7175C77.5975 63.2063 77.9141 64.6199 78.2843 65.9475C79.0784 68.5811 80.1784 70.8439 81.4072 72.5263C82.6306 74.214 83.8701 75.3857 84.8145 76.0629C84.9272 76.1543 85.0345 76.2403 85.1364 76.3209C85.2437 76.3908 85.3457 76.4553 85.4423 76.5198C85.6247 76.638 85.7803 76.7455 85.9198 76.8315C86.1774 77.0035 86.3062 77.0949 86.3062 77.1056L86.3008 77.0949Z" fill="#465159"/>
<path id="Vector_72" d="M213.472 109.442L16.4941 145.477L29.6801 217.798L226.658 181.763L213.472 109.442Z" fill="#465159"/>
<path id="Vector_73" d="M213.47 105.995L16.4922 142.03L29.6781 214.351L226.656 178.315L213.47 105.995Z" fill="white"/>
<path id="Vector_74" d="M213.47 106.001C213.604 106.721 218.471 133.235 226.745 178.303L226.761 178.394L226.67 178.41C178.098 187.306 107.785 200.184 29.7124 214.481H29.7017L29.5622 214.508L29.5353 214.368C24.9368 189.139 20.4886 164.721 16.3569 142.05L16.3301 141.915L16.4642 141.894C130.3 121.152 212.203 106.226 213.464 105.995C212.203 106.226 130.316 121.26 16.5125 142.157L16.6198 142.001C20.7569 164.678 25.2105 189.09 29.809 214.32L29.648 214.207H29.6587C107.737 199.942 178.055 187.096 226.632 178.222L226.557 178.335C218.396 133.246 213.598 106.721 213.464 106.001H213.47Z" fill="#383E41"/>
<path id="Vector_75" d="M35.8887 160.212L52.0075 157.094L52.9251 161.84L47.4734 162.894L52.9627 191.386L47.7471 192.396L42.2579 163.904L36.8062 164.958L35.8887 160.206V160.212Z" fill="#383E41"/>
<path id="Vector_76" d="M65.9002 188.892L60.6846 189.902L54.2832 156.664L59.4988 155.654L62.2407 169.897L68.1645 168.752L65.4226 154.504L70.7348 153.477L77.1362 186.715L71.824 187.742L69.0821 173.493L63.1582 174.638L65.9002 188.881V188.892Z" fill="#383E41"/>
<path id="Vector_77" d="M97.8047 182.721L92.5408 183.737L90.4803 177.878L84.0789 179.114L84.3419 185.317L79.5556 186.242L78.4609 151.977L86.0911 150.499L97.8047 182.71V182.721ZM83.875 174.481L88.9028 173.509L83.1506 157.185L83.875 174.481Z" fill="#383E41"/>
<path id="Vector_78" d="M100.23 157.282L104.866 181.356L100.171 182.264L93.7695 149.026L100.31 147.763L109.502 166.623L105.671 146.726L110.318 145.828L116.719 179.066L111.364 180.103L100.23 157.282Z" fill="#383E41"/>
<path id="Vector_79" d="M124.741 163.774L123.716 167.123L125.685 177.335L120.47 178.345L114.068 145.107L119.284 144.097L122.074 158.582L126.109 142.78L131.325 141.77L126.925 157.985L137.726 175.008L132.371 176.045L124.746 163.774H124.741Z" fill="#383E41"/>
<path id="Vector_80" d="M150.197 161.168L139.326 140.217L144.778 139.164L151.678 153.541L152.741 137.621L157.72 136.659L155.413 160.158L157.538 171.176L152.322 172.187L150.197 161.168Z" fill="#383E41"/>
<path id="Vector_81" d="M160.21 144.457C159.185 139.136 161.395 135.556 166.514 134.568C171.633 133.579 175.019 136.078 176.044 141.394L179.376 158.679C180.401 164 178.19 167.58 173.071 168.569C167.952 169.558 164.567 167.058 163.542 161.743L160.21 144.457ZM168.816 161.066C169.272 163.441 170.491 164.14 172.149 163.817C173.807 163.495 174.676 162.393 174.22 160.017L170.759 142.065C170.303 139.69 169.085 138.991 167.427 139.314C165.769 139.636 164.899 140.738 165.355 143.114L168.811 161.066H168.816Z" fill="#383E41"/>
<path id="Vector_82" d="M182.846 131.804L187.788 157.448C188.244 159.823 189.452 160.474 191.11 160.157C192.768 159.834 193.648 158.781 193.192 156.405L188.25 130.762L193.181 129.81L198.058 155.12C199.083 160.436 197.012 163.989 191.893 164.978C186.774 165.967 183.533 163.441 182.508 158.125L177.631 132.815L182.846 131.804Z" fill="#383E41"/>
<path id="Vector_83" d="M202.39 154.869L199.412 142.985L196.74 129.118L201.956 128.108L204.628 141.975L206.281 154.117L202.396 154.869H202.39ZM207.295 156.336L208.266 161.373L203.238 162.345L202.267 157.309L207.295 156.336Z" fill="#383E41"/>
<path id="Vector_84" d="M32.0788 173.649C32.0305 172.88 31.4832 172.197 30.7963 171.843C30.1095 171.488 29.3154 171.413 28.5427 171.466C29.4173 171.235 29.8788 170.144 29.6105 169.279C29.3422 168.413 28.5105 167.811 27.6305 167.591C26.7505 167.376 25.8222 167.489 24.9369 167.672C24.0515 167.854 22.3828 168.182 21.4759 168.231L15.874 169.628C13.4541 170.923 15.1711 174.009 16.8023 174.181C16.1048 174.697 15.6165 174.745 15.2945 175.557C14.9779 176.368 14.9887 177.336 15.4662 178.061C15.9438 178.787 16.9257 179.19 17.736 178.873C16.8721 179.899 16.7487 181.48 17.4355 182.63C17.8486 183.323 18.5408 183.828 19.3081 184.06C19.6945 184.178 20.0916 184.221 20.494 184.194C20.6389 184.183 20.8106 184.194 20.9447 184.129C21.0091 184.097 21.0628 184.054 21.1111 184C21.3364 183.764 21.5189 183.495 21.7603 183.275C21.8515 183.189 21.9481 183.108 22.0447 183.033C22.4901 182.684 22.9891 182.41 23.5149 182.195C23.7564 182.098 24.0408 182.044 24.2608 181.91C24.411 181.818 24.5076 181.668 24.6364 181.555C25.4735 180.835 26.6486 180.555 27.6788 180.249C28.8432 179.91 30.0559 179.491 30.8446 178.572C31.628 177.647 31.7568 176.056 30.791 175.32C31.5583 175.229 32.1163 174.422 32.068 173.654L32.0788 173.649Z" fill="#AE7461"/>
<path id="Vector_85" d="M20.8161 187.403C21.0253 188.123 21.4224 188.848 22.1092 189.149C22.9195 189.504 24.2019 189.214 25.0229 188.87C24.8887 187.822 24.7546 187.301 24.6204 186.252C24.5936 186.032 24.4809 185.876 24.5507 185.661C24.7224 185.102 25.8331 184.817 26.2999 184.463C27.1102 183.845 27.1692 182.528 26.5414 181.732C25.9082 180.937 24.7546 180.668 23.778 180.937C22.796 181.205 21.9965 181.942 21.46 182.807C20.6229 184.156 20.3868 185.865 20.8268 187.397L20.8161 187.403Z" fill="#AE7461"/>
<path id="Vector_86" d="M17.4576 178.947C17.4093 178.759 20.3498 177.797 24.0361 176.792C27.7224 175.787 30.7487 175.131 30.797 175.319C30.8453 175.507 27.9048 176.469 24.2185 177.474C20.5376 178.474 17.5059 179.135 17.4576 178.947Z" fill="#6F4439"/>
<path id="Vector_87" d="M16.6027 174.213C16.5383 174.041 19.1408 172.918 22.5319 172.128C25.9231 171.327 28.7509 171.171 28.767 171.354C28.7885 171.553 26.0358 172.02 22.6929 172.81C19.35 173.59 16.6725 174.401 16.6027 174.208V174.213Z" fill="#6F4439"/>
<path id="Vector_88" d="M20.8161 185.828C20.741 185.86 20.478 185.414 20.5639 184.629C20.6337 183.861 21.1702 182.829 22.0878 182.125C23.0161 181.421 23.88 181.007 24.6473 180.786C25.4897 180.598 25.919 181.114 25.817 181.163C25.758 181.238 25.3717 181.012 24.7868 181.265C24.2234 181.539 23.3219 182.055 22.5278 182.673C21.7122 183.307 21.2346 184.097 21.0468 184.732C20.8537 185.36 20.918 185.801 20.8107 185.828H20.8161Z" fill="#6F4439"/>
<path id="Vector_89" d="M209.516 140.082C209.253 139.356 209.484 138.512 209.972 137.916C210.461 137.314 211.164 136.932 211.888 136.669C210.992 136.809 210.139 135.992 210.042 135.089C209.945 134.186 210.466 133.299 211.19 132.751C211.909 132.202 212.805 131.939 213.691 131.746C214.576 131.557 216.234 131.192 217.087 130.875L222.78 129.923C225.512 130.149 225.168 133.664 223.736 134.471C224.583 134.664 225.05 134.519 225.662 135.132C226.279 135.744 226.649 136.642 226.499 137.497C226.349 138.351 225.608 139.114 224.739 139.147C225.936 139.743 226.681 141.146 226.51 142.474C226.402 143.275 225.973 144.011 225.361 144.532C225.056 144.796 224.701 144.989 224.326 145.129C224.192 145.177 224.036 145.253 223.886 145.253C223.816 145.253 223.746 145.226 223.682 145.199C223.381 145.075 223.108 144.898 222.797 144.79C222.679 144.747 222.56 144.715 222.442 144.683C221.895 144.538 221.326 144.489 220.763 144.5C220.505 144.505 220.221 144.57 219.963 144.538C219.792 144.516 219.641 144.414 219.475 144.36C218.423 144.032 217.232 144.242 216.17 144.376C214.968 144.527 213.685 144.634 212.596 144.097C211.507 143.565 210.761 142.151 211.357 141.092C210.616 141.313 209.785 140.797 209.522 140.071L209.516 140.082Z" fill="#AE7461"/>
<path id="Vector_90" d="M225.308 148.198C225.404 148.94 225.324 149.768 224.82 150.316C224.219 150.966 222.925 151.208 222.04 151.224C221.75 150.208 221.659 149.682 221.369 148.666C221.31 148.451 221.348 148.263 221.203 148.096C220.822 147.65 219.69 147.838 219.121 147.693C218.134 147.451 217.554 146.269 217.817 145.285C218.08 144.301 219.03 143.597 220.039 143.452C221.042 143.307 222.072 143.662 222.909 144.242C224.213 145.145 225.109 146.623 225.319 148.198H225.308Z" fill="#AE7461"/>
<path id="Vector_91" d="M225.033 139.11C225.006 138.917 221.921 139.207 218.143 139.76C214.366 140.309 211.324 140.911 211.356 141.104C211.383 141.298 214.468 141.007 218.245 140.454C222.023 139.906 225.06 139.304 225.033 139.11Z" fill="#6F4439"/>
<path id="Vector_92" d="M223.933 134.422C223.922 134.234 221.089 134.25 217.665 134.874C214.237 135.492 211.581 136.476 211.64 136.653C211.699 136.846 214.408 136.175 217.794 135.567C221.175 134.949 223.949 134.621 223.933 134.422Z" fill="#6F4439"/>
<path id="Vector_93" d="M224.689 146.758C224.775 146.758 224.834 146.242 224.442 145.559C224.072 144.882 223.17 144.151 222.049 143.866C220.917 143.592 219.962 143.555 219.167 143.662C218.32 143.829 218.132 144.474 218.244 144.474C218.325 144.522 218.593 144.157 219.232 144.157C219.854 144.184 220.89 144.302 221.866 144.549C222.864 144.807 223.616 145.339 224.04 145.844C224.469 146.344 224.587 146.774 224.694 146.758H224.689Z" fill="#6F4439"/>
</g>
</g>
</svg>
