<svg width="352" height="138" viewBox="0 0 352 138" fill="none" xmlns="http://www.w3.org/2000/svg">
    <mask id="mask0_289_6326" style="mask-type:alpha" maskUnits="userSpaceOnUse" x="-1" y="0" width="353" height="138">
        <path d="M-0.00012207 12C-0.00012207 5.37258 5.37246 0 11.9999 0H340C346.627 0 352 5.37258 352 12V138H-0.00012207V12Z" fill="#E8F4FF"/>
    </mask>
    <g mask="url(#mask0_289_6326)">
        <path d="M2.28882e-05 12C2.28882e-05 5.37258 5.37261 0 12 0H340C346.627 0 352 5.37258 352 12V138H2.28882e-05V12Z" fill="url(#paint0_radial_289_6326)"/>
        <path d="M258.727 80.6736C258.498 81.6655 258.334 82.9832 257.994 84.057C257.344 85.7236 256.384 87.3279 255.176 88.7638C254.044 90.2023 252.6 91.4236 251.694 93.0511C251.262 93.8329 251.011 94.662 250.966 95.456C250.983 96.5663 250.679 97.7517 250.089 98.8751C246.536 105.063 248.705 107.518 247.572 109.355C247.929 109.496 247.199 106.032 251.625 98.5533C252.323 97.2536 252.711 95.88 252.749 94.5749C252.778 94.3241 252.842 94.0684 252.941 93.8158C253.329 92.9193 253.889 92.0678 254.581 91.3232C255.203 90.6381 255.802 90.1154 256.423 89.4457C257.912 87.7838 259.106 85.8974 259.919 83.9224C260.393 82.8702 260.615 81.7847 260.563 80.7745C260.515 80.533 260.531 80.2649 260.61 79.9938C260.689 79.7228 260.829 79.4571 261.017 79.22C262.328 77.6737 263.297 75.9007 263.823 74.0868C263.923 73.6612 263 73.0483 262.8 73.3503C258.714 79.605 259.241 78.4908 258.727 80.6736Z" fill="#9BE9B2"/>
        <path d="M271.291 73.9959L264.085 73.2571L268.929 67.8714L263.311 72.4441L262.928 65.2109L262.189 72.4165L256.804 67.573L261.376 73.1905L254.143 73.5738L261.349 74.3126L256.505 79.6983L262.123 75.1256L262.506 82.3588L263.245 75.1532L268.631 79.9968L264.058 74.3793L271.291 73.9959Z" fill="#9BE9B2"/>
        <path d="M99.3695 76.9687C99.6005 77.8982 99.7771 79.1304 100.113 80.1384C100.748 81.7051 101.67 83.2194 102.819 84.5812C103.897 85.9441 105.262 87.1101 106.133 88.6451C106.55 89.3824 106.798 90.1604 106.855 90.902C106.86 91.9374 107.164 93.0488 107.733 94.1076C111.15 99.9462 109.18 102.196 110.267 103.93C109.937 104.055 110.551 100.837 106.3 93.779C105.627 92.5537 105.241 91.2652 105.182 90.0471C105.15 89.8126 105.085 89.5728 104.99 89.3354C104.612 88.4919 104.075 87.6872 103.419 86.9798C102.828 86.3292 102.262 85.8305 101.673 85.1943C100.258 83.6164 99.1136 81.8346 98.3214 79.9772C97.8616 78.9869 97.6352 77.9702 97.6649 77.0288C97.7054 76.8044 97.6855 76.554 97.607 76.2997C97.5285 76.0454 97.3938 75.7949 97.2147 75.5703C95.9677 74.1035 95.034 72.4317 94.5115 70.7298C94.4105 70.331 95.2575 69.7764 95.4486 70.0618C99.3613 75.972 98.8516 74.923 99.3695 76.9687Z" fill="#CE06E8"/>
        <path d="M86.2299 70.8028L94.0818 69.9978L88.8038 64.129L94.9252 69.1119L95.3429 61.2299L96.1479 69.0818L102.017 63.8038L97.0339 69.9252L104.916 70.3429L97.064 71.1479L102.342 77.0167L96.2206 72.0339L95.8028 79.9158L94.9978 72.0639L89.129 77.3419L94.1119 71.2206L86.2299 70.8028Z" fill="#CE06E8"/>
        <path d="M177.137 126.041L177.292 125.742C177.779 123.972 178.546 122.292 179.565 120.766C179.972 120.156 180.391 119.569 180.761 118.959C181.698 117.696 182.537 116.365 183.274 114.976C183.556 114.487 183.716 113.937 183.74 113.373C183.753 113.079 183.68 112.787 183.529 112.534C183.378 112.281 183.156 112.078 182.891 111.95C181.874 111.555 180.917 112.715 180.654 113.146C179.342 115.017 178.407 117.125 177.903 119.354C177.843 119.581 177.783 119.833 177.711 120.096C177.245 121.83 176.623 124.211 177.077 125.766L177.137 126.041Z" fill="#FFD200"/>
        <path d="M179.936 103.48C179.936 103.696 179.864 103.923 179.84 104.15C179.557 105.697 179.413 107.266 179.41 108.839V109.162L179.589 108.887C180.671 107.063 181.576 105.141 182.293 103.145C182.651 102.224 182.998 101.351 183.381 100.502C183.764 99.6523 183.716 99.1021 183.321 98.7791C183.12 98.6592 182.888 98.601 182.654 98.6116C182.421 98.6222 182.195 98.7013 182.006 98.8389C180.534 99.6882 180.139 101.566 179.936 103.48Z" fill="#FFD200"/>
        <path d="M181.85 94.126L182.209 93.6715C182.972 92.7215 183.585 91.6606 184.027 90.5254C184.254 89.9393 184.254 89.2575 183.764 89.0541C183.685 89.0184 183.599 89 183.513 89C183.426 89 183.34 89.0184 183.262 89.0541C182.925 89.2406 182.672 89.5487 182.556 89.9154C182.208 90.8841 182.102 91.9227 182.245 92.9418L181.85 94.126Z" fill="#FFD200"/>
        <path d="M181.24 97.0326C181.343 97.0958 181.456 97.1403 181.575 97.1642C181.752 97.1773 181.929 97.131 182.077 97.0326C182.209 96.9841 182.326 96.9007 182.415 96.7911C182.503 96.6816 182.56 96.55 182.58 96.4106C182.592 96.272 182.568 96.1327 182.509 96.0067C182.45 95.8806 182.359 95.7724 182.245 95.6928C182.137 95.6014 182.007 95.5408 181.868 95.5177C181.729 95.4945 181.586 95.5096 181.455 95.5613C181.328 95.6228 181.219 95.7153 181.138 95.8303C181.056 95.9454 181.005 96.0791 180.989 96.2192C180.955 96.3649 180.961 96.5168 181.005 96.6596C181.049 96.8025 181.13 96.9311 181.24 97.0326Z" fill="#FFD200"/>
        <path d="M167.412 120.849L167.615 121.591C168.082 123.326 168.728 125.706 169.9 126.818L170.163 127.07L170.067 126.711C169.611 124.935 169.438 123.098 169.553 121.268C169.553 120.538 169.661 119.809 169.721 119.091C169.894 117.542 169.954 115.983 169.9 114.426C169.896 113.86 169.761 113.303 169.505 112.799C169.368 112.539 169.158 112.324 168.901 112.182C168.644 112.039 168.351 111.975 168.058 111.997C166.969 112.165 166.73 113.648 166.682 114.103C166.483 116.378 166.731 118.67 167.412 120.849Z" fill="#FFD200"/>
        <path d="M161.55 106.758C162.086 108.237 162.75 109.666 163.536 111.029L163.704 111.316V110.981C163.723 108.863 163.543 106.748 163.165 104.665C163.022 103.672 162.89 102.751 162.782 101.83C162.675 100.909 162.376 100.442 161.885 100.358C161.651 100.354 161.421 100.419 161.223 100.544C161.025 100.67 160.869 100.85 160.773 101.064C159.924 102.547 160.522 104.378 161.299 106.124C161.383 106.327 161.467 106.603 161.55 106.758Z" fill="#FFD200"/>
        <path d="M158.045 95.8366L158.285 97.0328L158.38 96.4587C158.561 95.2693 158.561 94.0594 158.38 92.87C158.285 92.248 157.95 91.6738 157.423 91.6738C157.337 91.6837 157.253 91.7123 157.179 91.7578C157.105 91.8032 157.041 91.8644 156.993 91.937C156.805 92.2712 156.742 92.661 156.813 93.0375C156.99 94.0571 157.413 95.0181 158.045 95.8366Z" fill="#FFD200"/>
        <path d="M159.194 99.8681C159.333 99.8727 159.472 99.8437 159.598 99.7836C159.724 99.7236 159.834 99.6341 159.919 99.5228C160.003 99.4114 160.059 99.2815 160.083 99.1438C160.107 99.0062 160.097 98.8648 160.055 98.7317C159.99 98.6076 159.896 98.5013 159.781 98.4218C159.665 98.3424 159.533 98.2923 159.394 98.2758C159.254 98.2593 159.114 98.2769 158.983 98.3272C158.852 98.3774 158.736 98.4588 158.644 98.5642C158.569 98.6799 158.523 98.8121 158.511 98.9492C158.499 99.0864 158.52 99.2246 158.573 99.3517C158.626 99.4789 158.709 99.5912 158.815 99.6791C158.921 99.7669 159.047 99.8277 159.182 99.8561L159.194 99.8681Z" fill="#FFD200"/>
        <path d="M183.596 152.405C183.709 152.418 183.823 152.404 183.929 152.365C184.035 152.325 184.13 152.261 184.207 152.178L184.147 152.094H184.254C184.254 151.843 184.254 151.568 184.254 151.257C184.473 151.286 184.694 151.235 184.879 151.114C185.063 150.994 185.198 150.811 185.259 150.599C185.439 149.702 184.793 148.637 183.441 147.608C183.194 147.045 182.889 146.507 182.532 146.006L184.864 146.807V146.628C184.695 145.994 184.31 145.44 183.776 145.061L185.247 145.204C187.053 146.4 188.298 146.891 188.944 146.652C189.055 146.612 189.154 146.544 189.229 146.453C189.305 146.363 189.355 146.254 189.374 146.137C189.256 145.883 189.125 145.635 188.979 145.396C189.183 145.306 189.35 145.149 189.45 144.95C189.551 144.752 189.579 144.524 189.53 144.307C189.243 143.482 188.202 142.895 186.587 142.656H186.455C185.958 142.299 185.429 141.987 184.876 141.723L187.269 141.257L187.137 141.125C186.671 140.661 186.058 140.373 185.403 140.312L186.754 139.702C188.92 139.845 190.235 139.702 190.678 139.103C190.752 139.013 190.801 138.905 190.822 138.79C190.843 138.675 190.835 138.556 190.798 138.446H190.702V138.362C190.471 138.205 190.231 138.061 189.984 137.931C190.112 137.754 190.175 137.538 190.162 137.32C190.149 137.102 190.061 136.895 189.912 136.735C189.231 136.137 187.987 136.173 186.42 136.831C185.807 136.765 185.19 136.765 184.577 136.831L186.443 135.216H186.264C185.626 135.049 184.95 135.108 184.35 135.383L185.211 134.187C187.161 133.218 188.214 132.393 188.321 131.711C188.343 131.595 188.333 131.475 188.293 131.363C188.253 131.252 188.185 131.153 188.094 131.077H188.022V130.969H187.185C187.216 130.75 187.167 130.528 187.046 130.343C186.925 130.158 186.74 130.023 186.527 129.964C185.63 129.785 184.577 130.431 183.537 131.783C182.974 132.033 182.437 132.337 181.934 132.692L182.735 130.299H182.556C181.92 130.464 181.365 130.85 180.989 131.388L181.132 129.917C182.328 128.11 182.831 126.866 182.58 126.22C182.543 126.11 182.476 126.012 182.388 125.936C182.299 125.86 182.192 125.809 182.077 125.79V125.873V125.778L181.336 126.184C181.251 125.98 181.096 125.812 180.899 125.711C180.701 125.611 180.475 125.583 180.259 125.634C179.398 125.933 178.8 127.022 178.584 128.708C178.216 129.199 177.903 129.728 177.651 130.287L177.173 127.895L177.041 128.027C176.577 128.493 176.289 129.106 176.228 129.761L175.618 128.409C175.761 126.244 175.558 124.928 175.02 124.486C174.929 124.412 174.821 124.362 174.706 124.342C174.591 124.321 174.473 124.329 174.362 124.366V124.462H174.278C174.134 124.677 173.991 124.916 173.847 125.18C173.67 125.051 173.455 124.989 173.236 125.002C173.018 125.015 172.812 125.103 172.651 125.251C172.053 125.933 172.089 127.177 172.747 128.744C172.688 129.357 172.688 129.974 172.747 130.586L171.132 128.72V128.9C170.954 129.536 171.01 130.215 171.288 130.814L170.091 129.952C169.134 128.003 168.297 126.95 167.615 126.842C167.503 126.826 167.388 126.839 167.281 126.878C167.175 126.918 167.08 126.984 167.005 127.07L167.065 127.141H166.957C166.957 127.393 166.957 127.668 166.957 127.967C166.738 127.941 166.516 127.995 166.332 128.117C166.148 128.24 166.013 128.424 165.952 128.637C165.773 129.534 166.419 130.586 167.771 131.627C168.021 132.19 168.325 132.727 168.68 133.23L166.347 132.429V132.608C166.516 133.241 166.901 133.796 167.436 134.175L165.964 134.032C164.158 132.835 162.914 132.333 162.268 132.584C162.158 132.621 162.059 132.688 161.984 132.776C161.908 132.864 161.857 132.972 161.837 133.087C161.955 133.341 162.087 133.588 162.232 133.828C162.031 133.917 161.866 134.072 161.766 134.269C161.665 134.465 161.636 134.689 161.682 134.905C161.969 135.742 163.01 136.328 164.625 136.568H164.756C165.248 136.934 165.777 137.246 166.335 137.501L163.943 137.979L164.074 138.111C164.539 138.576 165.153 138.864 165.809 138.924L164.469 139.534C162.292 139.391 160.976 139.534 160.534 140.132C160.46 140.221 160.41 140.326 160.389 140.44C160.368 140.553 160.377 140.669 160.414 140.778H160.51L160.45 140.862C160.681 141.019 160.921 141.162 161.168 141.293C161.035 141.468 160.969 141.685 160.982 141.904C160.996 142.123 161.087 142.331 161.239 142.489C161.921 143.099 163.165 143.063 164.732 142.405C165.345 142.464 165.962 142.464 166.574 142.405L164.708 144.02H164.9C165.532 144.197 166.207 144.141 166.802 143.864L165.94 145.061C163.991 146.018 162.938 146.855 162.83 147.537C162.811 147.653 162.822 147.772 162.862 147.883C162.902 147.994 162.969 148.093 163.058 148.171H163.129V148.278C163.381 148.278 163.656 148.278 163.967 148.278C163.935 148.499 163.984 148.723 164.105 148.91C164.226 149.097 164.411 149.234 164.625 149.295C165.522 149.463 166.574 148.829 167.615 147.477C168.178 147.227 168.715 146.922 169.218 146.568L168.417 148.96H168.596C169.229 148.791 169.784 148.406 170.163 147.872L170.02 149.331C168.823 151.149 168.321 152.393 168.572 153.039C168.611 153.148 168.678 153.245 168.766 153.321C168.854 153.396 168.961 153.448 169.075 153.47C169.329 153.352 169.576 153.22 169.816 153.075C169.905 153.277 170.06 153.442 170.257 153.542C170.453 153.642 170.677 153.672 170.893 153.625C171.754 153.326 172.352 152.238 172.567 150.551C172.936 150.057 173.249 149.523 173.5 148.96L173.979 151.353L174.111 151.221C174.575 150.755 174.862 150.142 174.924 149.487L175.534 150.826C175.39 153.003 175.594 154.319 176.132 154.762C176.222 154.842 176.335 154.892 176.455 154.905C176.566 154.926 176.679 154.926 176.79 154.905V154.81H176.874C177.017 154.594 177.161 154.355 177.304 154.092C177.482 154.218 177.698 154.28 177.915 154.266C178.133 154.253 178.339 154.167 178.501 154.02C179.099 153.338 179.063 152.094 178.405 150.527C178.464 149.915 178.464 149.298 178.405 148.685L180.02 150.551V150.36C180.197 149.728 180.141 149.053 179.864 148.458L181.061 149.319C182.077 151.245 182.915 152.286 183.596 152.405ZM180.379 143.912C179.977 144.456 179.793 145.13 179.864 145.802C179.117 145.564 178.315 145.564 177.568 145.802C176.943 146.066 176.443 146.558 176.168 147.178C175.661 146.6 174.996 146.184 174.254 145.982C173.579 145.901 172.899 146.08 172.352 146.484C172.212 145.709 171.831 144.997 171.264 144.451C170.723 144.043 170.046 143.859 169.374 143.936C169.631 143.195 169.652 142.393 169.433 141.639C169.169 141.015 168.677 140.515 168.058 140.24C168.647 139.723 169.065 139.039 169.254 138.278C169.335 137.603 169.155 136.923 168.752 136.376C169.525 136.23 170.235 135.85 170.785 135.288C171.187 134.744 171.37 134.07 171.299 133.398C172.046 133.636 172.849 133.636 173.596 133.398C174.221 133.134 174.721 132.642 174.996 132.022C175.502 132.6 176.168 133.016 176.91 133.218C177.584 133.293 178.262 133.114 178.812 132.716C178.955 133.487 179.335 134.194 179.9 134.737C180.44 135.148 181.116 135.336 181.79 135.264C181.552 136.011 181.552 136.813 181.79 137.56C182.057 138.183 182.548 138.682 183.166 138.96C182.576 139.476 182.159 140.161 181.97 140.922C181.893 141.593 182.072 142.267 182.472 142.812C181.676 142.95 180.944 143.335 180.379 143.912Z" fill="#FFD200"/>
        <path d="M155.139 121.95C156.109 124.021 157.47 125.885 159.146 127.44L159.696 127.979C160.964 129.247 162.711 130.981 164.29 131.352L164.637 131.436L164.385 131.184C163.095 129.878 162.024 128.371 161.215 126.723C160.881 126.077 160.569 125.407 160.27 124.761C159.669 123.33 158.961 121.947 158.153 120.622C157.848 120.14 157.439 119.731 156.957 119.426C156.712 119.265 156.425 119.18 156.132 119.18C155.838 119.18 155.552 119.265 155.306 119.426C154.421 120.132 154.959 121.543 155.139 121.95Z" fill="#FFD200"/>
        <path d="M146.502 117.739L147.028 118.158C148.231 119.173 149.52 120.081 150.88 120.873L151.167 121.029L151.024 120.729C149.996 118.884 148.795 117.142 147.435 115.526C146.813 114.748 146.239 114.007 145.689 113.265C145.138 112.523 144.636 112.26 144.169 112.44C143.96 112.555 143.79 112.731 143.681 112.944C143.572 113.157 143.53 113.398 143.559 113.636C143.524 115.323 144.995 116.603 146.502 117.739Z" fill="#FFD200"/>
        <path d="M138.535 110.466L139.361 111.399L139.145 110.861C138.701 109.727 138.088 108.666 137.327 107.715C136.932 107.225 136.346 106.878 135.916 107.213C135.782 107.319 135.696 107.474 135.676 107.643C135.676 108.029 135.821 108.401 136.083 108.684C136.742 109.471 137.584 110.083 138.535 110.466Z" fill="#FFD200"/>
        <path d="M140.772 113.241C140.887 113.332 141.023 113.394 141.167 113.421C141.297 113.451 141.432 113.451 141.562 113.421C141.686 113.356 141.792 113.262 141.872 113.146C141.951 113.031 142.001 112.898 142.018 112.759C142.034 112.62 142.017 112.479 141.966 112.349C141.916 112.218 141.835 112.101 141.729 112.009C141.612 111.932 141.477 111.885 141.338 111.873C141.198 111.86 141.057 111.882 140.928 111.938C140.798 111.99 140.684 112.075 140.596 112.184C140.508 112.293 140.45 112.422 140.425 112.56C140.42 112.694 140.448 112.827 140.509 112.946C140.57 113.066 140.661 113.167 140.772 113.241Z" fill="#FFD200"/>
        <path d="M147.938 132.285C147.543 133.314 148.703 134.259 149.134 134.522C151.006 135.832 153.114 136.766 155.342 137.273L156.084 137.465C157.087 137.747 158.106 137.975 159.134 138.147C159.998 138.329 160.89 138.329 161.754 138.147L162.101 138.039L161.754 137.943C159.982 137.458 158.301 136.686 156.778 135.658C156.167 135.264 155.581 134.845 154.971 134.462C153.721 133.533 152.401 132.701 151.024 131.974C150.534 131.693 149.985 131.529 149.421 131.496C149.124 131.468 148.825 131.529 148.561 131.669C148.298 131.809 148.081 132.023 147.938 132.285Z" fill="#FFD200"/>
        <path d="M134.779 131.795C134.659 131.996 134.601 132.228 134.612 132.462C134.622 132.695 134.701 132.921 134.839 133.11C135.581 134.39 137.088 134.857 138.715 135.096L139.48 135.192L140.15 135.288C141.697 135.57 143.267 135.715 144.839 135.718H145.162L144.899 135.539C143.07 134.459 141.144 133.554 139.145 132.835C138.224 132.476 137.351 132.13 136.514 131.747C135.676 131.364 135.102 131.4 134.779 131.795Z" fill="#FFD200"/>
        <path d="M126.525 131.101C125.939 130.874 125.257 130.874 125.054 131.364C125.018 131.443 125 131.529 125 131.615C125 131.702 125.018 131.788 125.054 131.866C125.248 132.197 125.553 132.447 125.915 132.572C126.305 132.71 126.705 132.814 127.112 132.883C127.703 132.967 128.303 132.967 128.894 132.883L130.09 133.278L129.636 132.919C128.697 132.16 127.648 131.547 126.525 131.101Z" fill="#FFD200"/>
        <path d="M132.243 134.115C132.383 134.136 132.526 134.12 132.658 134.07C132.79 134.02 132.906 133.937 132.997 133.828C133.074 133.713 133.121 133.58 133.131 133.441C133.142 133.303 133.116 133.164 133.057 133.039C133.009 132.91 132.929 132.796 132.824 132.708C132.719 132.62 132.593 132.561 132.459 132.536C132.319 132.529 132.181 132.557 132.055 132.617C131.93 132.678 131.822 132.77 131.741 132.883C131.649 132.991 131.589 133.121 131.566 133.26C131.543 133.399 131.558 133.542 131.609 133.673C131.669 133.794 131.759 133.898 131.869 133.976C131.98 134.053 132.109 134.101 132.243 134.115Z" fill="#FFD200"/>
        <path d="M201.025 130.682C198.751 130.478 196.459 130.722 194.279 131.4L193.537 131.603C191.802 132.082 189.422 132.728 188.31 133.9L188.058 134.115L188.405 134.019C190.184 133.557 192.026 133.384 193.86 133.505L196.037 133.673C197.586 133.847 199.145 133.907 200.702 133.852C201.268 133.848 201.825 133.713 202.329 133.457C202.589 133.32 202.804 133.111 202.946 132.853C203.089 132.596 203.153 132.303 203.131 132.01C202.963 130.969 201.48 130.73 201.025 130.682Z" fill="#FFD200"/>
        <path d="M204.147 127.728C206.265 127.747 208.38 127.567 210.463 127.189C211.444 127.046 212.377 126.914 213.298 126.806C214.219 126.699 214.686 126.4 214.77 125.897C214.774 125.663 214.709 125.433 214.584 125.235C214.458 125.037 214.277 124.881 214.064 124.785C212.581 123.936 210.75 124.534 209.004 125.299L208.37 125.55C206.89 126.083 205.461 126.748 204.099 127.536L203.812 127.704L204.147 127.728Z" fill="#FFD200"/>
        <path d="M223.143 120.957C222.813 120.758 222.419 120.693 222.043 120.778C221.035 120.947 220.082 121.357 219.267 121.974L218.071 122.213L218.645 122.309H218.705C219.895 122.489 221.104 122.489 222.294 122.309C222.904 122.213 223.49 121.878 223.43 121.34C223.411 121.26 223.376 121.184 223.327 121.119C223.277 121.053 223.215 120.998 223.143 120.957Z" fill="#FFD200"/>
        <path d="M215.571 123.935C215.687 124.03 215.829 124.088 215.978 124.103C216.103 124.139 216.235 124.139 216.361 124.103C216.486 124.041 216.593 123.948 216.673 123.833C216.752 123.718 216.801 123.584 216.815 123.445C216.844 123.306 216.833 123.162 216.783 123.03C216.734 122.897 216.648 122.781 216.536 122.695C216.423 122.609 216.289 122.556 216.148 122.543C216.007 122.529 215.865 122.556 215.739 122.62C215.603 122.664 215.483 122.747 215.393 122.857C215.302 122.967 215.245 123.101 215.227 123.242C215.21 123.384 215.233 123.528 215.294 123.657C215.354 123.786 215.451 123.895 215.571 123.971V123.935Z" fill="#FFD200"/>
        <path d="M188.405 125.216C189.051 124.881 189.721 124.57 190.367 124.271C191.798 123.651 193.178 122.919 194.494 122.082C194.982 121.784 195.392 121.374 195.69 120.885C195.851 120.64 195.936 120.353 195.936 120.06C195.936 119.767 195.851 119.48 195.69 119.235C195.008 118.373 193.597 118.9 193.19 119.091C191.118 120.059 189.253 121.42 187.699 123.098L187.161 123.637C185.893 124.917 184.159 126.663 183.788 128.242L183.704 128.589L183.955 128.338C185.262 127.065 186.764 126.011 188.405 125.216Z" fill="#FFD200"/>
        <path d="M199.602 111.388C200.379 110.766 201.121 110.191 201.863 109.641C202.604 109.091 202.867 108.588 202.688 108.122C202.574 107.91 202.399 107.737 202.186 107.626C201.972 107.515 201.731 107.471 201.492 107.5C199.781 107.5 198.501 108.935 197.365 110.478L196.946 111.017C195.931 112.22 195.023 113.508 194.231 114.869L194.075 115.156L194.374 115.012C196.227 113.972 197.978 112.758 199.602 111.388Z" fill="#FFD200"/>
        <path d="M207.413 101.327C207.903 100.933 208.25 100.346 207.915 99.9158C207.864 99.8481 207.799 99.7919 207.725 99.7507C207.651 99.7095 207.569 99.6843 207.485 99.6765C207.096 99.6778 206.721 99.8226 206.432 100.083C205.657 100.728 205.046 101.548 204.65 102.476L203.729 103.301L204.267 103.086C205.396 102.657 206.456 102.064 207.413 101.327Z" fill="#FFD200"/>
        <path d="M202.413 106.016C202.553 106.037 202.695 106.021 202.827 105.971C202.959 105.921 203.076 105.838 203.166 105.729C203.244 105.612 203.291 105.478 203.303 105.338C203.316 105.198 203.293 105.057 203.238 104.928C203.187 104.8 203.104 104.687 202.997 104.599C202.891 104.511 202.764 104.452 202.628 104.425C202.49 104.413 202.35 104.438 202.224 104.496C202.098 104.555 201.99 104.646 201.91 104.76C201.816 104.865 201.753 104.994 201.728 105.133C201.704 105.271 201.718 105.414 201.77 105.545C201.823 105.676 201.911 105.789 202.024 105.873C202.138 105.956 202.272 106.006 202.413 106.016Z" fill="#FFD200"/>
        <path d="M159.349 132.345C159.349 132.345 143.093 120.825 141.191 121.95C139.289 123.074 149.923 128.134 159.349 132.345Z" fill="#FFD200"/>
        <path d="M193.154 138.027C193.154 138.027 212.999 139.869 214.088 137.943C215.176 136.017 203.477 136.95 193.154 138.027Z" fill="#FFD200"/>
        <path d="M189.96 129.438C189.96 129.438 208.059 121.065 208.047 118.9C208.035 116.734 198.346 123.349 189.96 129.438Z" fill="#FFD200"/>
        <path d="M182.879 123.589C182.879 123.589 194.398 107.332 193.274 105.406C192.149 103.48 187.101 114.115 182.879 123.589Z" fill="#FFD200"/>
        <path d="M173.835 122.069C173.835 122.069 175.678 102.224 173.752 101.136C171.826 100.047 172.759 111.746 173.835 122.069Z" fill="#FFD200"/>
        <path d="M165.247 125.275C165.247 125.275 156.873 107.165 154.708 107.189C152.543 107.212 159.146 116.878 165.247 125.275Z" fill="#FFD200"/>
        <path d="M200.94 0.19081C201.041 0.108322 201.175 0.0548969 201.29 -0.0209565C202.124 -0.480992 202.915 -1.01461 203.654 -1.61544L203.805 -1.73917L203.608 -1.71792C202.338 -1.5265 201.09 -1.21436 199.88 -0.785767C199.311 -0.601159 198.768 -0.429277 198.223 -0.283382C197.679 -0.137488 197.439 0.0957432 197.439 0.404558C197.46 0.544786 197.521 0.675814 197.616 0.781408C197.71 0.887002 197.834 0.962521 197.971 0.998591C198.933 1.36308 199.964 0.82869 200.94 0.19081Z" fill="#873795"/>
        <path d="M195.821 2.8768L195.47 2.88268C194.732 2.88899 194 3.00793 193.298 3.23541C192.937 3.3534 192.617 3.61461 192.709 3.92247C192.723 3.97315 192.747 4.02036 192.78 4.06098C192.813 4.10159 192.855 4.13469 192.902 4.15803C193.118 4.2444 193.36 4.24474 193.576 4.15899C194.163 3.95071 194.691 3.60286 195.114 3.14539L195.821 2.8768Z" fill="#873795"/>
        <path d="M197.417 2.04944C197.407 1.97692 197.385 1.90669 197.351 1.84199C197.289 1.75378 197.199 1.68863 197.096 1.65683C197.023 1.61341 196.939 1.59073 196.854 1.59121C196.769 1.59169 196.685 1.61531 196.612 1.65956C196.543 1.70685 196.487 1.77171 196.45 1.84757C196.414 1.92343 196.398 2.0076 196.404 2.09157C196.402 2.17691 196.424 2.26115 196.466 2.33523C196.509 2.40931 196.57 2.47045 196.645 2.51214C196.722 2.54806 196.808 2.56384 196.893 2.55802C196.978 2.55219 197.06 2.52496 197.132 2.47884C197.213 2.43869 197.282 2.37785 197.332 2.30245C197.382 2.22705 197.412 2.13978 197.417 2.04944Z" fill="#873795"/>
        <path d="M213.882 -0.591272L214.151 -0.970748C214.786 -1.85397 215.655 -3.06879 215.727 -4.04461L215.744 -4.26424L215.612 -4.08188C214.955 -3.18756 214.16 -2.40251 213.258 -1.75561C212.915 -1.47606 212.532 -1.24701 212.173 -1.00009C211.38 -0.488354 210.626 0.0808824 209.917 0.703024C209.653 0.921609 209.444 1.1983 209.305 1.51136C209.235 1.67518 209.215 1.85578 209.247 2.03092C209.279 2.20605 209.361 2.36806 209.484 2.49703C209.979 2.94325 210.766 2.48717 210.998 2.33547C212.141 1.55709 213.12 0.562877 213.882 -0.591272Z" fill="#873795"/>
        <path d="M209.52 7.55533C210.008 6.73768 210.424 5.8787 210.762 4.9883L210.832 4.79978L210.675 4.9281C209.675 5.73003 208.752 6.62469 207.92 7.60014C207.509 8.0478 207.128 8.46236 206.737 8.8657C206.347 9.26905 206.243 9.58799 206.391 9.85002C206.479 9.96141 206.598 10.0446 206.732 10.0892C206.867 10.1339 207.011 10.1381 207.148 10.1012C208.169 9.93119 208.798 8.94961 209.319 7.91599C209.382 7.79882 209.479 7.65417 209.52 7.55533Z" fill="#873795"/>
        <path d="M205.742 13.3827L206.211 12.8123L205.906 12.9873C205.279 13.3584 204.712 13.8219 204.223 14.3621C203.968 14.6453 203.827 15.0223 204.029 15.2691C204.067 15.3059 204.112 15.3341 204.162 15.3515C204.212 15.369 204.265 15.3754 204.317 15.3702C204.546 15.3301 204.753 15.2106 204.902 15.0327C205.312 14.5595 205.601 13.993 205.742 13.3827Z" fill="#873795"/>
        <path d="M207.193 11.2999C207.141 11.2326 207.074 11.1787 206.998 11.1426C206.922 11.1065 206.837 11.0893 206.753 11.0924C206.668 11.0954 206.586 11.1188 206.512 11.1604C206.439 11.202 206.376 11.2606 206.33 11.3314C206.296 11.4094 206.283 11.4943 206.29 11.5787C206.297 11.6632 206.324 11.7447 206.369 11.8163C206.415 11.8878 206.477 11.9471 206.551 11.9891C206.625 12.0311 206.707 12.0546 206.792 12.0574C206.875 12.0481 206.954 12.0188 207.023 11.972C207.092 11.9252 207.149 11.8623 207.188 11.7888C207.228 11.7152 207.248 11.6332 207.249 11.5498C207.25 11.4664 207.23 11.3841 207.191 11.3101L207.193 11.2999Z" fill="#873795"/>
        <path d="M222.477 -20.2688C222.44 -20.3264 222.39 -20.3745 222.33 -20.4091C222.271 -20.4436 222.205 -20.4637 222.136 -20.4677L222.12 -20.4076L222.079 -20.4581C221.961 -20.3619 221.832 -20.2565 221.686 -20.1373C221.616 -20.2507 221.507 -20.3352 221.38 -20.3754C221.253 -20.4156 221.115 -20.4088 220.993 -20.3564C220.503 -20.0968 220.252 -19.3861 220.287 -18.3582C220.118 -18.0261 219.982 -17.6775 219.884 -17.3179L219.366 -18.7186L219.282 -18.6498C219.05 -18.328 218.937 -17.9351 218.964 -17.5391L218.468 -18.284C218.337 -19.5891 218.09 -20.3603 217.731 -20.5715C217.669 -20.6087 217.6 -20.6288 217.528 -20.6296C217.457 -20.6305 217.386 -20.6121 217.324 -20.5764C217.25 -20.4237 217.185 -20.2671 217.128 -20.1072C217.008 -20.1687 216.87 -20.1865 216.739 -20.1575C216.607 -20.1284 216.49 -20.0544 216.407 -19.9482C216.13 -19.4974 216.254 -18.7848 216.76 -17.936L216.81 -17.8743C216.833 -17.5042 216.89 -17.1368 216.978 -16.7766L215.843 -17.7196L215.831 -17.6075C215.792 -17.211 215.892 -16.8133 216.114 -16.4826L215.311 -16.8826C214.548 -17.9528 213.977 -18.5147 213.527 -18.4931C213.456 -18.493 213.387 -18.4749 213.325 -18.4406C213.263 -18.4064 213.21 -18.357 213.173 -18.2972L213.209 -18.2523L213.17 -18.2202C213.185 -18.0518 213.21 -17.8844 213.243 -17.7187C213.111 -17.711 212.986 -17.6578 212.889 -17.5681C212.791 -17.4784 212.728 -17.3578 212.71 -17.2268C212.691 -16.678 213.184 -16.1084 214.093 -15.6258C214.297 -15.3136 214.533 -15.024 214.799 -14.762L213.326 -15.0183L213.395 -14.9342C213.562 -14.5711 213.848 -14.2768 214.207 -14.101L213.316 -14.0465C212.115 -14.5895 211.325 -14.7669 210.964 -14.5561C210.901 -14.5216 210.848 -14.4711 210.811 -14.4098C210.775 -14.3484 210.755 -14.2783 210.754 -14.2067L210.781 -14.1731L210.731 -14.1318L211.051 -13.7392C210.937 -13.67 210.851 -13.5615 210.811 -13.4338C210.771 -13.3062 210.778 -13.1683 210.832 -13.0458C211.092 -12.5564 211.798 -12.3103 212.83 -12.3402C213.163 -12.1722 213.512 -12.0372 213.871 -11.9369L212.442 -11.3962L212.511 -11.3121C212.831 -11.0771 213.225 -10.9644 213.621 -10.9944L212.877 -10.498C211.571 -10.3669 210.796 -10.1258 210.589 -9.7606C210.551 -9.70089 210.531 -9.63212 210.529 -9.56161C210.527 -9.4911 210.545 -9.42146 210.58 -9.36005L210.619 -9.39213L210.574 -9.35547L211.049 -9.16355C210.985 -9.04536 210.966 -8.90846 210.994 -8.77736C211.023 -8.64626 211.097 -8.52951 211.203 -8.44798C211.673 -8.15873 212.413 -8.29531 213.286 -8.84051C213.657 -8.85549 214.025 -8.91165 214.384 -9.00795L213.446 -7.86708L213.558 -7.8558C213.954 -7.81679 214.352 -7.91686 214.683 -8.13889L214.283 -7.33503C213.212 -6.57287 212.673 -5.97343 212.672 -5.55148C212.672 -5.4807 212.69 -5.4111 212.725 -5.34916C212.759 -5.28722 212.808 -5.23494 212.868 -5.19717L212.913 -5.23383L212.945 -5.19459C213.101 -5.20977 213.268 -5.23411 213.446 -5.26763C213.454 -5.13557 213.507 -5.01026 213.597 -4.91301C213.687 -4.81577 213.807 -4.7526 213.938 -4.73427C214.487 -4.71505 215.057 -5.20848 215.539 -6.11728C215.849 -6.3242 216.139 -6.56054 216.403 -6.82301L216.147 -5.35096L216.231 -5.4197C216.597 -5.58015 216.894 -5.86599 217.069 -6.22584L217.123 -5.33502C216.576 -4.13936 216.403 -3.34349 216.614 -2.98255C216.649 -2.92365 216.699 -2.87459 216.758 -2.83983C216.818 -2.80508 216.885 -2.78574 216.954 -2.78358L216.965 -2.83913L217.006 -2.78864C217.124 -2.88487 217.253 -2.99028 217.393 -3.10484C217.465 -2.99203 217.575 -2.90855 217.703 -2.86926C217.831 -2.82998 217.969 -2.83745 218.092 -2.89035C218.581 -3.14992 218.827 -3.85607 218.797 -4.88853C218.965 -5.22134 219.101 -5.56977 219.201 -5.92885L219.719 -4.52815L219.803 -4.59689C220.035 -4.91876 220.147 -5.31165 220.12 -5.7076L220.617 -4.96275C220.748 -3.65759 220.989 -2.88182 221.354 -2.6752C221.414 -2.63765 221.483 -2.61696 221.553 -2.6153C221.624 -2.61364 221.693 -2.63106 221.755 -2.66575C221.829 -2.8184 221.894 -2.97505 221.951 -3.13497C222.07 -3.07443 222.206 -3.05673 222.336 -3.08487C222.467 -3.113 222.583 -3.18526 222.667 -3.28942C222.949 -3.74481 222.826 -4.4573 222.319 -5.30611L222.269 -5.3678C222.252 -5.73862 222.196 -6.10662 222.101 -6.46558L223.242 -5.52718L223.253 -5.63928C223.294 -6.03582 223.193 -6.4339 222.97 -6.76414L223.77 -6.3697C224.536 -5.29394 225.108 -4.73199 225.558 -4.7536C225.627 -4.75287 225.696 -4.7701 225.757 -4.80362C225.818 -4.83714 225.87 -4.88583 225.906 -4.945L225.87 -4.98986L225.932 -4.9939C225.917 -5.16228 225.892 -5.32968 225.859 -5.49538C225.992 -5.50026 226.119 -5.55254 226.216 -5.64275C226.314 -5.73296 226.377 -5.85515 226.392 -5.98729C226.417 -6.5407 225.924 -7.11025 225.015 -7.59293C224.808 -7.90286 224.572 -8.19211 224.309 -8.45665L225.781 -8.20038L225.708 -8.29011C225.548 -8.65426 225.264 -8.94942 224.906 -9.1223L225.797 -9.17675C226.993 -8.62917 227.789 -8.45639 228.149 -8.66713C228.211 -8.70273 228.263 -8.75349 228.3 -8.81463C228.337 -8.87577 228.357 -8.94527 228.36 -9.01657L228.332 -9.05022L228.383 -9.09146C228.286 -9.20924 228.181 -9.33823 228.062 -9.48406C228.177 -9.55359 228.264 -9.66263 228.305 -9.79096C228.346 -9.91928 228.34 -10.0582 228.287 -10.1821C228.021 -10.6669 227.321 -10.9175 226.288 -10.8876C225.956 -11.0556 225.607 -11.1907 225.248 -11.2909L226.677 -11.8317L226.608 -11.9158C226.286 -12.148 225.893 -12.2603 225.497 -12.2335L226.237 -12.7253C227.547 -12.861 228.323 -13.102 228.53 -13.4673C228.566 -13.5275 228.586 -13.5961 228.587 -13.6663C228.589 -13.7365 228.572 -13.8059 228.539 -13.8678C228.387 -13.9419 228.23 -14.0075 228.07 -14.0643C228.131 -14.1831 228.148 -14.3192 228.12 -14.4496C228.092 -14.5799 228.02 -14.6966 227.916 -14.7799C227.445 -15.0691 226.706 -14.9325 225.833 -14.3873C225.46 -14.3708 225.09 -14.3131 224.729 -14.2153L225.668 -15.3562L225.555 -15.3675C225.159 -15.4065 224.761 -15.3064 224.431 -15.0844L224.825 -15.8837C225.901 -16.6504 226.44 -17.2498 226.441 -17.6718C226.444 -17.7448 226.424 -17.8168 226.385 -17.8782C226.352 -17.9381 226.309 -17.9913 226.256 -18.0352L226.212 -17.9986L226.179 -18.0379C226.024 -18.0227 225.856 -17.9983 225.678 -17.9648C225.669 -18.0964 225.615 -18.221 225.526 -18.318C225.436 -18.415 225.317 -18.4786 225.186 -18.4982C224.637 -18.5174 224.068 -18.024 223.585 -17.1152C223.275 -16.9082 222.986 -16.6719 222.721 -16.4094L222.978 -17.8815L222.888 -17.8082C222.524 -17.6488 222.229 -17.3645 222.056 -17.0066L222.001 -17.8974C222.515 -19.112 222.682 -19.9032 222.477 -20.2688ZM219.727 -15.5064C220.136 -15.5263 220.523 -15.6985 220.811 -15.9893C220.985 -15.5477 221.293 -15.1714 221.69 -14.9124C222.053 -14.7208 222.476 -14.6746 222.872 -14.7832C222.795 -14.3242 222.855 -13.8527 223.044 -13.4276C223.265 -13.0801 223.609 -12.83 224.008 -12.7283C223.699 -12.3654 223.511 -11.9143 223.472 -11.4388C223.488 -11.0293 223.661 -10.6416 223.955 -10.3556C223.509 -10.1927 223.124 -9.89498 222.855 -9.50381C222.663 -9.14081 222.617 -8.71848 222.726 -8.32265C222.258 -8.40123 221.777 -8.33469 221.348 -8.13195C221 -7.91138 220.75 -7.56649 220.648 -7.16774C220.284 -7.47447 219.833 -7.66174 219.359 -7.70418C218.95 -7.68428 218.564 -7.512 218.276 -7.22129C218.101 -7.66281 217.794 -8.03914 217.396 -8.29814C217.033 -8.48973 216.61 -8.53592 216.215 -8.42733C216.292 -8.88633 216.232 -9.35785 216.042 -9.78297C215.819 -10.1279 215.475 -10.3772 215.078 -10.4823C215.385 -10.8446 215.57 -11.2939 215.609 -11.7671C215.594 -12.1773 215.424 -12.5665 215.132 -12.8549C215.573 -13.0294 215.949 -13.3369 216.208 -13.7348C216.398 -14.0984 216.444 -14.5199 216.338 -14.9159C216.806 -14.8374 217.287 -14.9039 217.716 -15.1066C218.06 -15.3277 218.307 -15.6704 218.409 -16.0663C218.779 -15.746 219.24 -15.5502 219.727 -15.5064Z" fill="#873795"/>
        <path d="M219.099 4.74168C219.699 3.49339 220.051 2.14128 220.139 0.759382L220.18 0.295153C220.289 -0.785119 220.433 -2.26846 220.002 -3.15085L219.908 -3.34558L219.887 -3.13155C219.769 -2.02596 219.472 -0.946797 219.009 0.0640504C218.835 0.468554 218.64 0.871011 218.451 1.25869C218.011 2.08875 217.634 2.95059 217.322 3.837C217.213 4.16491 217.178 4.51301 217.219 4.85613C217.238 5.03267 217.308 5.19992 217.42 5.3374C217.533 5.47487 217.683 5.5766 217.852 5.63011C218.522 5.77477 218.977 4.98162 219.099 4.74168Z" fill="#873795"/>
        <path d="M220.434 10.4042L220.428 9.99698C220.444 9.04416 220.376 8.09184 220.226 7.15075L220.189 6.95658L220.104 7.13845C219.632 8.327 219.276 9.55796 219.039 10.8145C218.912 11.404 218.785 11.9573 218.648 12.4995C218.511 13.0416 218.58 13.378 218.843 13.528C218.977 13.582 219.125 13.5945 219.266 13.5638C219.408 13.5331 219.537 13.4606 219.637 13.3557C220.442 12.7264 220.478 11.5462 220.434 10.4042Z" fill="#873795"/>
        <path d="M220.076 16.9256L220.197 16.1812L220.027 16.4884C219.666 17.1313 219.403 17.825 219.249 18.5461C219.17 18.9191 219.232 19.3268 219.554 19.4004C219.655 19.4223 219.76 19.4033 219.848 19.3476C220.029 19.2 220.147 18.9895 220.18 18.7582C220.296 18.1481 220.26 17.5187 220.076 16.9256Z" fill="#873795"/>
        <path d="M220.52 14.8135C220.519 14.7247 220.496 14.6376 220.453 14.5597C220.417 14.4872 220.366 14.4239 220.302 14.3746C220.224 14.3413 220.139 14.3275 220.054 14.3344C219.97 14.3413 219.888 14.3687 219.817 14.4143C219.745 14.4598 219.686 14.5221 219.644 14.5957C219.602 14.6693 219.579 14.7521 219.576 14.8368C219.584 14.9214 219.614 15.0025 219.662 15.0729C219.709 15.1432 219.774 15.2007 219.849 15.2401C219.923 15.2807 220.007 15.3017 220.092 15.3012C220.176 15.3008 220.259 15.2788 220.333 15.2373C220.398 15.1888 220.45 15.1242 220.482 15.05C220.515 14.9757 220.528 14.8942 220.52 14.8135Z" fill="#873795"/>
        <path d="M226.704 4.15849C227.338 3.94947 227.336 3.0434 227.295 2.74068C227.192 1.36111 226.822 0.0146194 226.206 -1.22419L226.012 -1.64525C225.76 -2.22399 225.476 -2.78863 225.163 -3.33666C224.917 -3.81137 224.575 -4.22969 224.159 -4.56494L223.976 -4.68633L224.064 -4.48703C224.515 -3.47017 224.797 -2.38641 224.899 -1.27857C224.948 -0.841304 224.976 -0.406085 225.03 0.0265977C225.074 0.968733 225.189 1.90615 225.376 2.83062C225.432 3.16814 225.565 3.48811 225.766 3.76547C225.867 3.91533 226.009 4.03238 226.176 4.10221C226.343 4.17203 226.526 4.1916 226.704 4.15849Z" fill="#873795"/>
        <path d="M231.515 10.5157C231.655 10.4949 231.786 10.4334 231.892 10.3388C231.997 10.2442 232.073 10.1207 232.109 9.9836C232.425 9.14552 232.066 8.26013 231.555 7.40571L231.307 7.01009L231.095 6.65934C230.635 5.82558 230.101 5.0346 229.501 4.29582L229.377 4.14437L229.393 4.3365C229.588 5.60758 229.902 6.85757 230.33 8.06993C230.515 8.63927 230.687 9.18158 230.828 9.72083C230.969 10.2601 231.206 10.5155 231.515 10.5157Z" fill="#873795"/>
        <path d="M234.352 14.6514C234.47 15.0133 234.731 15.333 235.039 15.2404C235.089 15.2269 235.137 15.2027 235.177 15.1695C235.218 15.1364 235.251 15.0949 235.274 15.0479C235.355 14.8305 235.356 14.5914 235.275 14.3738C235.191 14.1386 235.086 13.9112 234.963 13.6937C234.776 13.3845 234.546 13.1031 234.28 12.8581L234.007 12.146L234.013 12.4966C234.016 13.2278 234.131 13.9543 234.352 14.6514Z" fill="#873795"/>
        <path d="M233.575 10.8159C233.531 10.7425 233.469 10.6816 233.395 10.639C233.321 10.5964 233.237 10.5735 233.151 10.5725C233.068 10.5803 232.987 10.6097 232.918 10.6578C232.85 10.7059 232.794 10.7711 232.758 10.8469C232.716 10.9184 232.693 10.9996 232.692 11.0825C232.691 11.1654 232.712 11.2472 232.752 11.3198C232.802 11.388 232.868 11.4424 232.944 11.478C233.021 11.5136 233.105 11.5292 233.189 11.5234C233.275 11.5252 233.359 11.5037 233.433 11.4613C233.507 11.4189 233.568 11.3572 233.61 11.2827C233.644 11.2082 233.658 11.1264 233.652 11.0447C233.646 10.9631 233.619 10.8844 233.575 10.8159Z" fill="#873795"/>
        <path d="M236.033 -2.71604C236.835 -1.71578 237.73 -0.793335 238.705 0.0390664C239.153 0.449587 239.567 0.831037 239.965 1.22624C240.363 1.62144 240.693 1.71644 240.955 1.56781C241.068 1.48041 241.153 1.36144 241.199 1.22588C241.244 1.09033 241.249 0.94427 241.212 0.806139C241.175 0.569806 241.089 0.343798 240.96 0.142484C240.464 -0.526263 239.796 -1.04733 239.027 -1.36466L238.666 -1.56568C237.853 -2.05956 236.995 -2.47673 236.105 -2.81181L235.916 -2.88225L236.033 -2.71604Z" fill="#873795"/>
        <path d="M245.488 3.72803C245.767 3.97741 246.149 4.12392 246.372 3.89424C246.409 3.85645 246.437 3.81106 246.455 3.76125C246.472 3.71144 246.479 3.65841 246.474 3.60588C246.463 3.49943 246.428 3.39698 246.37 3.30718C246.306 3.20088 246.228 3.10449 246.136 3.02114C245.671 2.61337 245.113 2.32419 244.512 2.17823L243.936 1.71361L244.117 2.01489C244.484 2.6523 244.947 3.22998 245.488 3.72803Z" fill="#873795"/>
        <path d="M242.197 1.19898C242.198 1.28361 242.221 1.36644 242.263 1.43991C242.305 1.51337 242.365 1.57513 242.437 1.61956C242.515 1.65285 242.6 1.66663 242.685 1.65971C242.769 1.65279 242.851 1.62537 242.922 1.57985C242.994 1.53432 243.053 1.47205 243.095 1.39842C243.137 1.3248 243.16 1.24204 243.163 1.15732C243.161 1.08562 243.14 1.0158 243.101 0.955484C243.06 0.866216 242.997 0.788962 242.918 0.731144C242.844 0.690546 242.76 0.669488 242.675 0.669967C242.591 0.670446 242.508 0.69244 242.434 0.733876C242.354 0.780723 242.289 0.849399 242.247 0.931803C242.205 1.01421 242.188 1.10691 242.197 1.19898Z" fill="#873795"/>
        <path d="M222.36 -1.21495C222.36 -1.21495 223.187 10.8202 224.443 11.2812C225.699 11.7422 223.997 4.81771 222.36 -1.21495Z" fill="#873795"/>
        <path d="M227.164 -3.9899C227.164 -3.9899 233.903 6.02047 235.223 5.79304C236.543 5.56561 231.635 0.4287 227.164 -3.9899Z" fill="#873795"/>
        <path d="M211.993 -4.07036C211.993 -4.07036 201.982 2.66854 202.21 3.98855C202.437 5.30855 207.565 0.389253 211.993 -4.07036Z" fill="#873795"/>
        <path d="M216.786 -1.27161C216.786 -1.27161 211.503 9.59255 212.343 10.5985C213.184 11.6045 215.186 4.8058 216.786 -1.27161Z" fill="#873795"/>
        <path d="M325.379 92.1311L328.784 74.0454C328.798 73.8861 328.845 73.7316 328.923 73.5916C329 73.4517 329.106 73.3296 329.233 73.233C329.361 73.1364 329.507 73.0675 329.663 73.0307C329.818 72.994 329.98 72.9901 330.137 73.0195C330.294 73.0489 330.444 73.1108 330.575 73.2012C330.707 73.2917 330.819 73.4088 330.903 73.5448C330.987 73.6809 331.041 73.8331 331.063 73.9915C331.085 74.1499 331.073 74.3112 331.029 74.4648C331.035 74.5099 331.035 74.5555 331.029 74.6005L325.379 92.1311Z" fill="#F067B4"/>
        <path d="M329.98 97.3001L343.81 94.5983C343.956 94.57 344.107 94.5708 344.253 94.6007C344.4 94.6306 344.539 94.689 344.662 94.7727C344.786 94.8563 344.892 94.9635 344.975 95.0881C345.057 95.2127 345.114 95.3523 345.142 95.4989C345.17 95.6455 345.17 95.7963 345.14 95.9426C345.11 96.0889 345.051 96.2279 344.968 96.3516C344.884 96.4753 344.777 96.5814 344.652 96.6637C344.528 96.746 344.388 96.8029 344.242 96.8313H344.032L329.98 97.3001Z" fill="#F067B4"/>
        <path d="M327.612 103.555L341.589 111.204C341.85 111.352 342.043 111.596 342.126 111.884C342.209 112.172 342.176 112.482 342.033 112.746C341.962 112.877 341.866 112.994 341.75 113.087C341.633 113.181 341.499 113.251 341.356 113.292C341.212 113.334 341.062 113.346 340.913 113.328C340.765 113.311 340.621 113.264 340.491 113.19C340.43 113.177 340.375 113.147 340.331 113.104L327.612 103.555Z" fill="#F067B4"/>
        <path d="M323.17 106.935L324.984 124.824C325.015 125.12 324.927 125.416 324.74 125.647C324.552 125.879 324.281 126.026 323.985 126.057C323.689 126.085 323.394 125.996 323.164 125.809C322.933 125.622 322.785 125.353 322.751 125.058V124.898L323.17 106.935Z" fill="#F067B4"/>
        <path d="M317.606 103.826L305.936 117.224C305.84 117.337 305.722 117.431 305.59 117.498C305.458 117.566 305.314 117.606 305.166 117.618C305.018 117.629 304.869 117.611 304.728 117.565C304.587 117.519 304.457 117.445 304.344 117.348C304.231 117.251 304.137 117.132 304.07 116.999C304.002 116.866 303.961 116.72 303.95 116.571C303.938 116.422 303.956 116.272 304.003 116.13C304.049 115.988 304.124 115.857 304.221 115.744C304.251 115.708 304.284 115.675 304.32 115.645L317.606 103.826Z" fill="#F067B4"/>
        <path d="M315.102 97.7692L299.299 99.8048C299.149 99.8242 298.997 99.8139 298.851 99.7746C298.705 99.7352 298.568 99.6674 298.448 99.5752C298.329 99.483 298.228 99.3681 298.153 99.2371C298.078 99.1061 298.029 98.9615 298.009 98.8117C297.99 98.6618 298 98.5096 298.04 98.3637C298.079 98.2178 298.147 98.0811 298.239 97.9614C298.331 97.8417 298.446 97.7413 298.577 97.666C298.708 97.5907 298.853 97.5419 299.003 97.5225H299.163L315.102 97.7692Z" fill="#F067B4"/>
        <path d="M318.482 92.5752L308.255 78.8937C308.194 78.7578 308.16 78.6111 308.156 78.462C308.152 78.313 308.178 78.1647 308.232 78.0257C308.286 77.8868 308.367 77.76 308.471 77.6527C308.574 77.5454 308.698 77.4598 308.835 77.4009C309.035 77.3078 309.258 77.2746 309.477 77.3053C309.696 77.3359 309.901 77.4291 310.069 77.5736L310.155 77.7093L318.482 92.5752Z" fill="#F067B4"/>
        <path d="M322.307 89.0347L322.171 76.2538C322.169 76.1798 322.183 76.1063 322.21 76.0375C322.237 75.9687 322.277 75.9061 322.329 75.8532C322.381 75.8004 322.443 75.7584 322.511 75.7297C322.579 75.701 322.652 75.6863 322.726 75.6863C322.876 75.6861 323.02 75.7438 323.128 75.8473C323.236 75.9508 323.3 76.092 323.306 76.2414L322.307 89.0347Z" fill="#F067B4"/>
        <path d="M329.832 88.8372L334.162 79.9917C334.233 79.8679 334.348 79.7752 334.484 79.7322C334.62 79.6892 334.767 79.699 334.896 79.7597C335.026 79.8204 335.127 79.9274 335.181 80.0596C335.235 80.1917 335.236 80.3393 335.186 80.4728V80.5469L329.832 88.8372Z" fill="#F067B4"/>
        <path d="M331.892 94.1297L340.689 90.4287C340.755 90.3982 340.826 90.3813 340.899 90.3791C340.972 90.377 341.045 90.3895 341.113 90.416C341.181 90.4425 341.243 90.4824 341.295 90.5333C341.347 90.5842 341.388 90.6451 341.416 90.7124C341.445 90.7796 341.46 90.8518 341.46 90.9248C341.461 90.9978 341.447 91.0701 341.419 91.1377C341.392 91.2053 341.351 91.2669 341.3 91.3188C341.249 91.3707 341.188 91.412 341.12 91.4403L331.892 94.1297Z" fill="#F067B4"/>
        <path d="M332.411 103.469L339.899 105.011C340.048 105.042 340.178 105.131 340.262 105.258C340.345 105.385 340.374 105.54 340.343 105.689C340.312 105.838 340.223 105.969 340.096 106.052C339.969 106.135 339.813 106.165 339.665 106.133H339.591L332.411 103.469Z" fill="#F067B4"/>
        <path d="M327.402 106.183L332.608 111.389C332.709 111.498 332.764 111.641 332.764 111.79C332.764 111.938 332.709 112.082 332.608 112.191C332.502 112.297 332.357 112.357 332.207 112.357C332.057 112.357 331.912 112.297 331.806 112.191L327.402 106.183Z" fill="#F067B4"/>
        <path d="M314.942 109.748L311.45 115.312C311.367 115.437 311.239 115.526 311.092 115.561C310.946 115.595 310.791 115.572 310.661 115.497C310.534 115.418 310.443 115.292 310.408 115.146C310.374 115.001 310.398 114.848 310.476 114.72C310.476 114.72 310.476 114.72 310.476 114.646L314.942 109.748Z" fill="#F067B4"/>
        <path d="M312.598 100.767L307.021 103.506C306.892 103.576 306.74 103.592 306.599 103.55C306.458 103.509 306.339 103.413 306.269 103.284C306.205 103.146 306.198 102.989 306.248 102.846C306.299 102.703 306.404 102.585 306.54 102.519H306.627L312.598 100.767Z" fill="#F067B4"/>
        <path d="M314.658 103.592L309.575 108.379C309.461 108.454 309.323 108.486 309.187 108.469C309.051 108.453 308.925 108.389 308.832 108.288C308.739 108.187 308.684 108.057 308.678 107.92C308.672 107.783 308.714 107.648 308.798 107.54H308.86L314.658 103.592Z" fill="#F067B4"/>
        <path d="M312.635 96.5107L308.082 96.7328C307.945 96.7125 307.819 96.6434 307.728 96.5381C307.637 96.4328 307.587 96.2983 307.587 96.1591C307.587 96.0199 307.637 95.8854 307.728 95.7801C307.819 95.6748 307.945 95.6057 308.082 95.5854H308.218L312.635 96.5107Z" fill="#F067B4"/>
        <path d="M314.572 91.8473L308.49 86.8262C308.373 86.7297 308.3 86.591 308.286 86.4406C308.273 86.2902 308.319 86.1405 308.416 86.0243C308.512 85.9082 308.651 85.8351 308.801 85.8213C308.952 85.8074 309.101 85.8538 309.217 85.9503H309.291L314.572 91.8473Z" fill="#F067B4"/>
        <path d="M317.039 119.432C316.373 120.321 315.349 121.406 314.72 122.43C313.863 124.101 313.371 125.934 313.276 127.809C313.104 129.635 313.437 131.51 312.869 133.324C312.594 134.193 312.097 134.976 311.426 135.594C310.41 136.405 309.644 137.487 309.217 138.715C307.17 145.685 302.346 161.6 301.815 163.722C301.334 163.586 305.64 145.957 307.984 137.444C308.462 136.013 309.313 134.735 310.451 133.743C310.648 133.538 310.814 133.305 310.945 133.052C311.367 132.127 311.577 131.12 311.561 130.104C311.561 129.179 311.438 128.389 311.426 127.476C311.445 125.245 311.959 123.045 312.931 121.036C313.408 119.939 314.165 118.986 315.127 118.273C315.392 118.127 315.618 117.917 315.783 117.663C315.949 117.41 316.05 117.119 316.077 116.817C316.168 114.791 316.803 112.827 317.915 111.13C318.199 110.747 318.766 110.476 318.692 110.834C317.113 118.211 318.495 117.471 317.039 119.432Z" fill="#F067B4"/>
        <path d="M324.857 98.3151C324.696 98.7834 324.399 99.1932 324.005 99.4924C323.611 99.7916 323.137 99.9668 322.643 99.9957C322.149 100.025 321.657 99.906 321.231 99.6548C320.804 99.4037 320.462 99.0313 320.247 98.585C320.033 98.1387 319.955 97.6386 320.025 97.1482C320.094 96.6577 320.308 96.1991 320.638 95.8304C320.969 95.4617 321.401 95.1995 321.881 95.0773C322.36 94.9551 322.865 94.9782 323.331 95.1438C323.64 95.2503 323.925 95.4171 324.17 95.6346C324.414 95.8521 324.613 96.1159 324.755 96.4108C324.897 96.7057 324.979 97.0258 324.996 97.3527C325.014 97.6795 324.967 98.0066 324.857 98.3151Z" fill="#F067B4"/>
        <path d="M42.4605 124.042L41.0686 105.691C41.0411 105.534 41.0468 105.372 41.0854 105.217C41.124 105.062 41.1946 104.916 41.2927 104.79C41.3908 104.664 41.5142 104.559 41.655 104.484C41.7958 104.408 41.9509 104.362 42.1104 104.35C42.2698 104.338 42.4301 104.359 42.5808 104.412C42.7316 104.465 42.8696 104.55 42.986 104.659C43.1023 104.769 43.1944 104.902 43.2564 105.049C43.3184 105.197 43.3489 105.355 43.3459 105.515C43.3634 105.557 43.3752 105.601 43.381 105.646L42.4605 124.042Z" fill="#3974E9"/>
        <path d="M48.2432 127.844L60.9022 121.655C61.0365 121.589 61.1824 121.551 61.3314 121.542C61.4805 121.533 61.6299 121.554 61.771 121.602C61.9122 121.651 62.0423 121.727 62.1541 121.826C62.2658 121.925 62.357 122.046 62.4223 122.18C62.4876 122.314 62.5259 122.46 62.5348 122.609C62.5438 122.758 62.5233 122.907 62.4746 123.049C62.4258 123.19 62.3498 123.32 62.2507 123.432C62.1516 123.543 62.0315 123.635 61.8973 123.7L61.6947 123.754L48.2432 127.844Z" fill="#3974E9"/>
        <path d="M47.5741 134.499L63.0551 138.269C63.3454 138.344 63.5947 138.531 63.7494 138.787C63.9042 139.044 63.9523 139.352 63.8832 139.644C63.8488 139.789 63.7857 139.926 63.6975 140.047C63.6094 140.168 63.4981 140.27 63.3701 140.347C63.242 140.424 63.0998 140.475 62.9519 140.496C62.804 140.518 62.6533 140.509 62.5086 140.472C62.4467 140.475 62.3851 140.461 62.3313 140.43L47.5741 134.499Z" fill="#3974E9"/>
        <path d="M37.9802 137.35L30.1748 153.312C30.1115 153.447 30.0221 153.567 29.912 153.666C29.8018 153.766 29.673 153.843 29.533 153.892C29.393 153.941 29.2446 153.962 29.0964 153.954C28.9482 153.946 28.8031 153.908 28.6695 153.843C28.5346 153.779 28.4137 153.689 28.3138 153.578C28.2139 153.466 28.1369 153.337 28.0872 153.196C28.0376 153.055 28.0163 152.905 28.0245 152.756C28.0328 152.607 28.0704 152.461 28.1353 152.326C28.1547 152.284 28.1781 152.243 28.2051 152.205L37.9802 137.35Z" fill="#3974E9"/>
        <path d="M33.9934 132.148L19.2553 138.204C19.1156 138.262 18.9659 138.291 18.8148 138.291C18.6637 138.291 18.5141 138.261 18.3746 138.202C18.2351 138.144 18.1084 138.059 18.0018 137.952C17.8951 137.845 17.8106 137.718 17.753 137.578C17.6955 137.439 17.666 137.289 17.6662 137.138C17.6665 136.987 17.6966 136.837 17.7547 136.698C17.8128 136.558 17.8978 136.432 18.0048 136.325C18.1119 136.218 18.2389 136.134 18.3786 136.076L18.5335 136.035L33.9934 132.148Z" fill="#3974E9"/>
        <path d="M35.9142 126.256L22.4944 115.688C22.4001 115.572 22.3296 115.439 22.2872 115.296C22.2448 115.153 22.2314 115.003 22.2475 114.855C22.2637 114.707 22.3092 114.563 22.3814 114.433C22.4536 114.303 22.5511 114.188 22.6681 114.096C22.8376 113.954 23.0445 113.864 23.2638 113.837C23.4831 113.81 23.7056 113.847 23.9045 113.943L24.023 114.052L35.9142 126.256Z" fill="#3974E9"/>
        <path d="M38.692 121.846L35.2529 109.536C35.2322 109.465 35.2259 109.391 35.2343 109.317C35.2427 109.244 35.2657 109.173 35.302 109.108C35.3383 109.044 35.3871 108.987 35.4455 108.942C35.5039 108.896 35.5709 108.863 35.6423 108.844C35.7868 108.805 35.9406 108.824 36.0718 108.896C36.2029 108.968 36.3012 109.088 36.346 109.23L38.692 121.846Z" fill="#3974E9"/>
        <path d="M45.9098 119.708L47.8031 110.043C47.8394 109.905 47.9264 109.786 48.0467 109.709C48.1669 109.632 48.3117 109.604 48.4521 109.629C48.5925 109.654 48.7183 109.731 48.8044 109.845C48.8905 109.959 48.9306 110.101 48.9167 110.243L48.9358 110.314L45.9098 119.708Z" fill="#3974E9"/>
        <path d="M49.2697 124.287L56.8082 118.435C56.8643 118.388 56.9292 118.354 56.999 118.333C57.0688 118.312 57.1422 118.305 57.2147 118.313C57.2871 118.321 57.3572 118.344 57.4208 118.379C57.4844 118.415 57.5401 118.463 57.5847 118.521C57.6296 118.578 57.6626 118.644 57.682 118.715C57.7013 118.785 57.7067 118.858 57.6976 118.931C57.6885 119.003 57.6652 119.073 57.6291 119.137C57.593 119.2 57.5448 119.256 57.4871 119.3L49.2697 124.287Z" fill="#3974E9"/>
        <path d="M52.1873 133.173L59.8197 132.725C59.9715 132.716 60.1205 132.768 60.2339 132.87C60.3473 132.971 60.4158 133.113 60.4243 133.265C60.4328 133.417 60.3807 133.566 60.2793 133.679C60.1779 133.793 60.0357 133.861 59.8838 133.87L59.8123 133.889L52.1873 133.173Z" fill="#3974E9"/>
        <path d="M48.0517 137.091L54.4279 140.773C54.5533 140.852 54.6443 140.976 54.6827 141.119C54.7211 141.263 54.7043 141.416 54.6354 141.547C54.5601 141.677 54.4363 141.772 54.2911 141.811C54.1459 141.85 53.9911 141.83 53.8608 141.755L48.0517 137.091Z" fill="#3974E9"/>
        <path d="M32.3502 135.692L27.6728 139.78C27.5661 139.882 27.4236 139.936 27.2765 139.933C27.1295 139.929 26.9899 139.867 26.8885 139.761C26.7912 139.644 26.7434 139.494 26.7554 139.343C26.7674 139.192 26.8382 139.051 26.9526 138.951L27.036 138.929L32.3502 135.692Z" fill="#3974E9"/>
        <path d="M35.0715 137.887L31.4008 143.826C31.3095 143.929 31.1849 143.995 31.0492 144.014C30.9134 144.034 30.7753 144.004 30.6592 143.931C30.5432 143.858 30.4568 143.746 30.4153 143.615C30.3739 143.485 30.3801 143.344 30.4329 143.217L30.4925 143.201L35.0715 137.887Z" fill="#3974E9"/>
        <path d="M31.2844 131.571L26.9447 132.963C26.8065 132.979 26.6671 132.945 26.552 132.867C26.4368 132.789 26.3537 132.672 26.3176 132.538C26.2816 132.403 26.2952 132.26 26.3558 132.135C26.4164 132.01 26.52 131.91 26.6478 131.855L26.7789 131.82L31.2844 131.571Z" fill="#3974E9"/>
        <path d="M31.9483 126.565L24.774 123.289C24.6368 123.226 24.5303 123.111 24.478 122.969C24.4257 122.827 24.4318 122.671 24.4949 122.534C24.5581 122.396 24.6732 122.29 24.8148 122.238C24.9565 122.185 25.1132 122.191 25.2503 122.255L25.3218 122.235L31.9483 126.565Z" fill="#3974E9"/>
        <path d="M44.3338 133.048C44.2992 133.542 44.1188 134.015 43.8153 134.406C43.5119 134.797 43.0992 135.089 42.6297 135.245C42.1601 135.4 41.6547 135.413 41.1778 135.281C40.7008 135.148 40.2739 134.877 39.951 134.502C39.628 134.126 39.4238 133.663 39.3641 133.172C39.3044 132.68 39.3919 132.182 39.6157 131.74C39.8394 131.298 40.1893 130.933 40.6207 130.691C41.0522 130.449 41.5459 130.34 42.0391 130.38C42.3653 130.403 42.6838 130.49 42.9761 130.637C43.2684 130.784 43.5287 130.987 43.7421 131.235C43.9554 131.483 44.1176 131.771 44.2192 132.082C44.3207 132.394 44.3597 132.722 44.3338 133.048Z" fill="#3974E9"/>
        <path d="M13.13 2.37915L13.2408 2.16618C13.587 0.905797 14.1335 -0.29076 14.8594 -1.37772C15.149 -1.81219 15.4472 -2.22961 15.7113 -2.66408C16.378 -3.56344 16.976 -4.51173 17.5003 -5.5009C17.7016 -5.84896 17.8157 -6.24066 17.8325 -6.64244C17.8418 -6.85203 17.7895 -7.05976 17.682 -7.23993C17.5745 -7.4201 17.4165 -7.56482 17.2276 -7.6562C16.5035 -7.93732 15.822 -7.11098 15.6346 -6.8043C14.7002 -5.47193 14.0347 -3.97011 13.6752 -2.38295C13.6327 -2.22109 13.5901 -2.0422 13.5389 -1.85478C13.2067 -0.619527 12.7637 1.07575 13.0874 2.18321L13.13 2.37915Z" fill="#9BE9B2"/>
        <path d="M10.8895 21.6406L10.8214 21.8877C10.4752 23.1481 9.9287 24.3446 9.20279 25.4316C8.91315 25.866 8.61498 26.2835 8.3509 26.7179C7.68928 27.6084 7.09688 28.5482 6.57893 29.5292C6.37755 29.8773 6.26356 30.269 6.24671 30.6707C6.23851 30.8801 6.29129 31.0874 6.39867 31.2674C6.50604 31.4473 6.66338 31.5922 6.85155 31.6845C6.9146 31.7093 6.98038 31.7264 7.04749 31.7356C7.6779 31.8293 8.2231 31.1819 8.44459 30.8837C9.37595 29.5496 10.0412 28.0484 10.404 26.4624C10.4466 26.3005 10.4891 26.1216 10.5403 25.9342C10.8725 24.6989 11.3155 23.0037 10.9918 21.8962L10.8895 21.6406Z" fill="#9BE9B2"/>
        <path d="M8.89609 37.7075C8.89609 37.5541 8.94722 37.3923 8.96426 37.2304C9.16575 36.1286 9.26838 35.011 9.27093 33.891V33.6865L9.14315 33.8825C8.37599 35.1828 7.73144 36.5518 7.21785 37.9716C6.96229 38.636 6.71524 39.2579 6.45115 39.8543C6.18706 40.4506 6.2041 40.8595 6.45115 41.0895C6.53272 41.1533 6.62969 41.1945 6.73227 41.2088C6.96244 41.2245 7.19179 41.1679 7.38824 41.0469C8.47015 40.408 8.75127 39.062 8.89609 37.7075Z" fill="#9BE9B2"/>
        <path d="M7.53305 44.3691L7.27749 44.6929C6.73272 45.3683 6.29592 46.1241 5.98261 46.9334C5.82075 47.3508 5.82075 47.8364 6.17003 47.9812H6.28076C6.36122 48.0061 6.44735 48.0061 6.52782 47.9812C6.76585 47.8464 6.94507 47.6277 7.03043 47.3678C7.27777 46.6779 7.35379 45.9383 7.25193 45.2125L7.53305 44.3691Z" fill="#9BE9B2"/>
        <path d="M7.96754 42.3075C7.88375 42.2532 7.78797 42.2201 7.6885 42.2112C7.58903 42.2023 7.48889 42.2178 7.39678 42.2564C7.30146 42.2916 7.21764 42.3523 7.15454 42.4319C7.09143 42.5116 7.05145 42.607 7.03897 42.7079C7.03019 42.8065 7.04763 42.9058 7.08951 42.9955C7.1314 43.0853 7.19625 43.1624 7.2775 43.219C7.36161 43.2856 7.4613 43.3295 7.56715 43.3468C7.64034 43.3563 7.71472 43.3506 7.78561 43.33C7.85649 43.3095 7.92237 43.2745 7.97913 43.2273C8.0359 43.1802 8.08233 43.1218 8.11552 43.0559C8.1487 42.99 8.16791 42.9179 8.17199 42.8442C8.18505 42.7448 8.17323 42.6437 8.13754 42.55C8.10185 42.4563 8.04343 42.373 7.96754 42.3075Z" fill="#9BE9B2"/>
        <path d="M6.2041 -1.31816L6.34894 -0.789988C6.68118 0.445264 7.14121 2.14054 7.97607 2.93281L8.16348 3.1117L8.09532 2.85613C7.77035 1.59135 7.64673 0.283267 7.72901 -1.02C7.72901 -1.53965 7.80569 -2.05931 7.84829 -2.57045C7.97212 -3.6733 8.01482 -4.78375 7.97607 -5.89285C7.97311 -6.29558 7.87687 -6.69214 7.69492 -7.05143C7.59749 -7.23673 7.44799 -7.38949 7.26484 -7.4909C7.08169 -7.59231 6.87289 -7.63795 6.66414 -7.6222C5.88891 -7.50294 5.71854 -6.44659 5.68446 -6.12287C5.54298 -4.50274 5.71949 -2.87057 6.2041 -1.31816Z" fill="#9BE9B2"/>
        <path d="M17.824 25.3293C17.7729 25.1674 17.7218 24.9971 17.6707 24.8097C17.3384 23.5744 16.8784 21.8791 16.0435 21.0869L15.8561 20.908L15.9242 21.155C16.2491 22.4227 16.3727 23.7336 16.2906 25.0397C16.2906 25.5508 16.2139 26.079 16.1713 26.5816C16.0475 27.6873 16.0048 28.8006 16.0435 29.9125C16.0465 30.3152 16.1427 30.7118 16.3246 31.0711C16.4072 31.2182 16.5209 31.3454 16.6577 31.444C16.7945 31.5426 16.9513 31.6101 17.1169 31.6419C17.1962 31.6504 17.2761 31.6504 17.3554 31.6419C18.1307 31.5226 18.3011 30.4662 18.3351 30.1425C18.4755 28.5202 18.3019 26.886 17.824 25.3293Z" fill="#9BE9B2"/>
        <path d="M21.9897 35.3903C21.6084 34.3343 21.1352 33.3138 20.5756 32.3405L20.4563 32.1445V32.3831C20.4426 33.8911 20.5709 35.3971 20.8397 36.8811C20.9419 37.5796 21.0356 38.2441 21.1123 38.9001C21.189 39.556 21.4019 39.8883 21.7512 39.9479C21.918 39.9509 22.082 39.9048 22.2228 39.8155C22.3636 39.7261 22.4751 39.5974 22.5435 39.4453C23.1483 38.3889 22.7224 37.0855 22.1687 35.8418C22.109 35.6714 22.0494 35.5266 21.9897 35.3903Z" fill="#9BE9B2"/>
        <path d="M24.4858 43.1339L24.3154 42.282L24.2473 42.6909C24.1188 43.538 24.1188 44.3995 24.2473 45.2466C24.3069 45.6299 24.5029 46.0048 24.8095 46.0985H24.9373C24.9975 46.0903 25.0553 46.0694 25.1067 46.037C25.1581 46.0047 25.202 45.9618 25.2355 45.9111C25.3735 45.6746 25.419 45.3954 25.3633 45.1273C25.2379 44.4012 24.9366 43.7168 24.4858 43.1339Z" fill="#9BE9B2"/>
        <path d="M23.668 40.2715C23.5671 40.2611 23.4652 40.2786 23.3736 40.3222C23.2819 40.3658 23.204 40.4337 23.1484 40.5185C23.0898 40.5932 23.0524 40.6822 23.0401 40.7763C23.0279 40.8704 23.0412 40.966 23.0787 41.0532C23.1162 41.1403 23.1764 41.2158 23.2531 41.2716C23.3299 41.3274 23.4202 41.3616 23.5147 41.3704C23.6142 41.3859 23.716 41.3752 23.8101 41.3394C23.9042 41.3035 23.9874 41.2438 24.0514 41.166C24.1079 41.0831 24.1422 40.9871 24.1512 40.8872C24.1601 40.7873 24.1434 40.6868 24.1025 40.5952C24.0613 40.5103 24.0004 40.4366 23.9248 40.3803C23.8491 40.3239 23.7611 40.2866 23.668 40.2715Z" fill="#9BE9B2"/>
        <path d="M17.7303 21.1549C17.8103 21.1641 17.8914 21.1542 17.9669 21.1261C18.0424 21.0979 18.1102 21.0524 18.1647 20.993L18.1221 20.9334H18.1988C18.1988 20.7545 18.1988 20.5586 18.1988 20.3371C18.3544 20.3575 18.5122 20.3215 18.6435 20.2355C18.7748 20.1495 18.8709 20.0193 18.9144 19.8685C19.0422 19.2296 18.5822 18.4714 17.6195 17.7388C17.4433 17.3372 17.2264 16.9546 16.9721 16.5973L18.6333 17.168V17.0402C18.5129 16.5892 18.2387 16.1945 17.8581 15.9243L18.9059 16.0265C20.1922 16.8784 21.0782 17.2277 21.5382 17.0573C21.6175 17.0294 21.6878 16.9806 21.7418 16.9162C21.7957 16.8517 21.8314 16.7739 21.8449 16.691C21.7611 16.5099 21.6672 16.3335 21.5638 16.1628C21.7091 16.0993 21.8277 15.9872 21.8992 15.8457C21.9708 15.7042 21.9907 15.5422 21.9557 15.3876C21.7512 14.7998 21.0101 14.3823 19.86 14.2119H19.7663C19.412 13.9575 19.0356 13.7351 18.6418 13.5475L20.3456 13.2152L20.2519 13.1215C19.9198 12.7909 19.4831 12.5861 19.0166 12.5422L19.9793 12.1078C21.5212 12.21 22.4583 12.1078 22.7735 11.6818C22.826 11.6172 22.8614 11.5404 22.8763 11.4585C22.8912 11.3766 22.8851 11.2922 22.8587 11.2133H22.7905V11.1536C22.6259 11.0421 22.4553 10.9397 22.2794 10.847C22.3707 10.7209 22.4155 10.5672 22.4061 10.4119C22.3968 10.2565 22.334 10.1093 22.2283 9.99506C21.7427 9.56911 20.8567 9.59466 19.7407 10.0632C19.3047 10.0166 18.8649 10.0166 18.4288 10.0632L19.7578 8.91314H19.63C19.1755 8.79447 18.6939 8.83661 18.267 9.03241L18.8803 8.18051C20.2689 7.49047 21.0186 6.90267 21.0953 6.41708C21.1105 6.33424 21.1036 6.24882 21.0752 6.16951C21.0468 6.09021 20.9978 6.01984 20.9334 5.96558H20.8823V5.88891H20.2859C20.3082 5.73306 20.2729 5.57444 20.1867 5.44272C20.1004 5.31101 19.9692 5.21523 19.8174 5.17331C19.1785 5.04553 18.4288 5.50556 17.6877 6.4682C17.287 6.64631 16.9046 6.86315 16.5461 7.11564L17.1169 5.41184H16.9891C16.5366 5.52886 16.1407 5.80382 15.8731 6.18707L15.9753 5.13924C16.8272 3.85287 17.1851 2.9669 17.0062 2.50688C16.9797 2.42825 16.9325 2.35823 16.8695 2.30424C16.8065 2.25026 16.7301 2.2143 16.6484 2.20019V2.25983V2.19167L16.1202 2.48132C16.0597 2.33562 15.9494 2.21619 15.8089 2.1444C15.6684 2.0726 15.507 2.05313 15.3535 2.08945C14.7401 2.30242 14.3141 3.07765 14.1608 4.27883C13.8983 4.62789 13.6755 5.00504 13.4963 5.40333L13.1556 3.69954L13.0619 3.79324C12.7313 4.1253 12.5265 4.562 12.4826 5.02849L12.0481 4.06585C12.1503 2.52392 12.0055 1.58682 11.6222 1.27162C11.5576 1.2191 11.4807 1.18375 11.3988 1.16886C11.3169 1.15397 11.2326 1.16001 11.1536 1.18643V1.25459H11.094C10.9918 1.40793 10.8895 1.57831 10.7873 1.76572C10.6613 1.67445 10.5075 1.62967 10.3522 1.63899C10.1969 1.6483 10.0496 1.71115 9.9354 1.81684C9.50945 2.30242 9.53502 3.1884 10.0036 4.30438C9.96138 4.74067 9.96138 5.18001 10.0036 5.6163L8.8535 4.28734V4.41513C8.72704 4.86817 8.76631 5.35147 8.96425 5.77816L8.11235 5.16479C7.43083 3.7762 6.8345 3.02653 6.34892 2.94986C6.26875 2.93848 6.187 2.94732 6.11112 2.97559C6.03523 3.00386 5.96762 3.05066 5.91444 3.11172L5.95705 3.16284H5.88036C5.88036 3.34173 5.88036 3.53767 5.88036 3.75065C5.72389 3.73244 5.56606 3.77041 5.43499 3.85779C5.30392 3.94517 5.20814 4.07627 5.16477 4.22771C5.03698 4.86663 5.49703 5.6163 6.45967 6.35745C6.63778 6.75815 6.85461 7.14048 7.10709 7.499L5.44591 6.92822V7.05601C5.56631 7.507 5.84053 7.90176 6.22114 8.172L5.1733 8.06977C3.88693 7.21787 3.00096 6.86007 2.54094 7.03897C2.46231 7.06542 2.3923 7.11263 2.33831 7.17562C2.28432 7.2386 2.24835 7.31502 2.23424 7.39677C2.31812 7.57789 2.41198 7.75422 2.51538 7.92495C2.3718 7.98812 2.25441 8.09889 2.18302 8.23857C2.11163 8.37825 2.09062 8.53828 2.12352 8.69165C2.32797 9.28798 3.06911 9.70541 4.21918 9.87579H4.31287C4.66313 10.1365 5.04008 10.3592 5.43738 10.5403L3.73359 10.881L3.82731 10.9747C4.15853 11.3065 4.59567 11.5115 5.06255 11.554L4.10842 11.9885C2.55797 11.8863 1.62088 11.9885 1.30567 12.4144C1.25316 12.4773 1.21775 12.5527 1.20283 12.6333C1.18791 12.7139 1.194 12.7969 1.22051 12.8745H1.28865L1.24606 12.9341C1.41067 13.0457 1.58128 13.148 1.75718 13.2408C1.66267 13.3655 1.61589 13.52 1.62527 13.6762C1.63464 13.8324 1.69955 13.9801 1.80829 14.0927C2.29387 14.5271 3.17986 14.5016 4.29584 14.033C4.73213 14.0752 5.17148 14.0752 5.60777 14.033L4.27881 15.1831H4.41512C4.86538 15.309 5.3458 15.2697 5.76963 15.0724L5.15627 15.9243C3.76767 16.6058 3.018 17.2021 2.94133 17.6877C2.92775 17.7705 2.93547 17.8554 2.96379 17.9344C2.99211 18.0134 3.04009 18.0839 3.10319 18.1392H3.1543V18.2159C3.3332 18.2159 3.52912 18.2159 3.75062 18.2159C3.72801 18.3728 3.76303 18.5326 3.84917 18.6658C3.93531 18.7989 4.06675 18.8963 4.21918 18.94C4.8581 19.0592 5.60777 18.6077 6.34892 17.6451C6.74962 17.467 7.13195 17.2501 7.49046 16.9977L6.91968 18.7014H7.04748C7.49848 18.581 7.89322 18.3068 8.16346 17.9262L8.06124 18.9655C7.20934 20.2604 6.85153 21.1464 7.03043 21.6064C7.05841 21.6841 7.10609 21.7533 7.16881 21.807C7.23153 21.8608 7.30715 21.8973 7.38823 21.9131C7.56935 21.8292 7.74568 21.7354 7.91641 21.632C7.97959 21.7755 8.09037 21.8929 8.23004 21.9643C8.36972 22.0357 8.52973 22.0567 8.68311 22.0238C9.29648 21.8109 9.72242 21.0356 9.87576 19.8345C10.1383 19.4824 10.3611 19.1024 10.5402 18.7014L10.881 20.4052L10.9747 20.3115C11.3053 19.9795 11.5101 19.5428 11.554 19.0763L11.9885 20.0304C11.8862 21.5809 12.0311 22.5179 12.4144 22.8331C12.4787 22.8901 12.5591 22.9258 12.6444 22.9354C12.7233 22.9501 12.8041 22.9501 12.883 22.9354V22.8672H12.9426C13.0448 22.7139 13.1471 22.5435 13.2493 22.3561C13.3759 22.4458 13.5293 22.4897 13.6842 22.4804C13.8391 22.4711 13.9862 22.4092 14.1012 22.305C14.5271 21.8194 14.5016 20.9334 14.033 19.8174C14.0752 19.3811 14.0752 18.9418 14.033 18.5055L15.1831 19.8345V19.6982C15.309 19.2479 15.2697 18.7675 15.0723 18.3436L15.9242 18.957C16.6483 20.3286 17.2447 21.0697 17.7303 21.1549ZM15.4386 15.1064C15.1526 15.4935 15.0219 15.9738 15.0723 16.4524C14.5403 16.2828 13.9687 16.2828 13.4367 16.4524C12.9921 16.6405 12.6357 16.9908 12.44 17.4321C12.0792 17.0204 11.6051 16.7241 11.0769 16.5802C10.5963 16.5226 10.1119 16.6505 9.72242 16.938C9.6223 16.3859 9.3511 15.8793 8.9472 15.4898C8.56199 15.1998 8.08023 15.0687 7.60121 15.1235C7.78477 14.5959 7.79964 14.0243 7.64379 13.4878C7.45575 13.0432 7.10546 12.6868 6.66412 12.4911C7.08403 12.1233 7.38131 11.6357 7.51601 11.094C7.57367 10.6134 7.44568 10.1289 7.15821 9.73948C7.70899 9.6356 8.21455 9.36498 8.60644 8.96426C8.89251 8.57716 9.02319 8.09694 8.97275 7.61826C9.50477 7.78791 10.0764 7.78791 10.6084 7.61826C11.0531 7.43021 11.4094 7.07993 11.6051 6.63858C11.9659 7.0503 12.44 7.3466 12.9682 7.49048C13.4484 7.54387 13.9314 7.4163 14.3227 7.13268C14.4245 7.68174 14.6955 8.18516 15.0979 8.57238C15.4823 8.86456 15.9638 8.99867 16.4439 8.94722C16.2743 9.47924 16.2743 10.0508 16.4439 10.5829C16.6341 11.0261 16.9837 11.3818 17.4236 11.5796C17.0037 11.9474 16.7064 12.435 16.5717 12.9767C16.5171 13.4544 16.6449 13.9351 16.9295 14.3227C16.3626 14.4211 15.8411 14.6953 15.4386 15.1064Z" fill="#9BE9B2"/>
        <path d="M-2.53636 -0.534318C-1.84528 0.94042 -0.876322 2.26806 0.317478 3.37589L0.70937 3.75924C1.61238 4.66226 2.85615 5.89751 3.98065 6.1616L4.22771 6.22123L4.04879 6.04233C3.12969 5.11194 2.36732 4.03886 1.79127 2.86475C1.55274 2.40473 1.33124 1.92766 1.11826 1.46764C0.689884 0.448875 0.185866 -0.536397 -0.389585 -1.47992C-0.606913 -1.82351 -0.897896 -2.11449 -1.24148 -2.33182C-1.4162 -2.44617 -1.62048 -2.50708 -1.82929 -2.50708C-2.03811 -2.50708 -2.24239 -2.44617 -2.4171 -2.33182C-3.04751 -1.8292 -2.66414 -0.823963 -2.53636 -0.534318Z" fill="#9BE9B2"/>
        <path d="M26.5559 24.5541C25.869 23.0769 24.8995 21.7485 23.7021 20.6439L23.3187 20.2605C22.4072 19.3575 21.1634 18.1223 20.0389 17.8497L19.7919 17.79L19.9708 17.9775C20.8899 18.9078 21.6522 19.9809 22.2283 21.155C22.4668 21.6151 22.6883 22.0921 22.9013 22.5521C23.3447 23.5704 23.8659 24.553 24.4603 25.4912C24.6723 25.839 24.9644 26.1311 25.3122 26.3431C25.4504 26.4182 25.6001 26.47 25.7552 26.4964C25.883 26.5185 26.014 26.514 26.1401 26.4832C26.2661 26.4524 26.3845 26.396 26.4878 26.3175C27.0671 25.849 26.6837 24.8438 26.5559 24.5541Z" fill="#9BE9B2"/>
        <path d="M32.7066 27.5527L32.3318 27.2545C31.4773 26.5289 30.5592 25.8817 29.5887 25.3207L29.3842 25.21L29.4865 25.4229C30.2202 26.7356 31.0759 27.9764 32.0422 29.1287C32.4851 29.6824 32.894 30.2106 33.2859 30.7388C33.3716 30.8894 33.4866 31.0213 33.6241 31.1266C33.7617 31.232 33.919 31.3087 34.0867 31.3521C34.1787 31.3775 34.2758 31.3775 34.3678 31.3521C34.5172 31.2699 34.6384 31.1448 34.7159 30.9929C34.7933 30.841 34.8234 30.6694 34.8023 30.5002C34.8279 29.2735 33.8141 28.362 32.7066 27.5527Z" fill="#9BE9B2"/>
        <path d="M38.3803 32.7238L37.7925 32.0679L37.9458 32.4512C38.2643 33.2579 38.7007 34.013 39.2407 34.6917C39.4 34.9123 39.6325 35.0693 39.8967 35.1347C39.9576 35.1442 40.0198 35.1416 40.0798 35.1269C40.1397 35.1123 40.1962 35.086 40.2459 35.0495C40.294 35.011 40.3338 34.9633 40.3631 34.9092C40.3923 34.855 40.4104 34.7956 40.4163 34.7343C40.4149 34.4599 40.3117 34.1958 40.1267 33.9932C39.6553 33.4355 39.0562 33.0001 38.3803 32.7238Z" fill="#9BE9B2"/>
        <path d="M36.7957 30.7558C36.7176 30.6908 36.6235 30.6478 36.5231 30.6313C36.4228 30.6148 36.3198 30.6255 36.225 30.6621C36.1366 30.7084 36.0609 30.7754 36.0043 30.8575C35.9477 30.9396 35.912 31.0343 35.9003 31.1333C35.8886 31.2323 35.9011 31.3327 35.9369 31.4258C35.9727 31.5188 36.0306 31.6017 36.1057 31.6674C36.1741 31.7159 36.2529 31.748 36.3357 31.7611C36.4519 31.7779 36.5704 31.7601 36.6765 31.71C36.7697 31.6739 36.8518 31.614 36.9146 31.5363C36.9774 31.4585 37.0186 31.3657 37.0343 31.267C37.0431 31.1683 37.0256 31.0691 36.9838 30.9793C36.9419 30.8896 36.877 30.8125 36.7957 30.7558Z" fill="#9BE9B2"/>
        <path d="M-7.6648 6.82612C-7.94592 7.55875 -7.11958 8.23174 -6.8129 8.41916C-5.47967 9.35202 -3.97816 10.0174 -2.39155 10.3785L-1.86338 10.5148C-1.14859 10.7159 -0.42339 10.878 0.308977 11.0004C0.924107 11.13 1.55951 11.13 2.17463 11.0004L2.42167 10.9237L2.17463 10.8556C0.912595 10.5099 -0.284477 9.96025 -1.36926 9.22847C-1.80373 8.94734 -2.22117 8.64918 -2.65563 8.37657C-3.54607 7.71495 -4.4859 7.12256 -5.46689 6.60462C-5.816 6.40444 -6.20671 6.28781 -6.60842 6.26386C-6.82014 6.24439 -7.03294 6.28724 -7.22062 6.38714C-7.4083 6.48703 -7.5627 6.63962 -7.6648 6.82612Z" fill="#9BE9B2"/>
        <path d="M31.6843 17.1938C31.9655 16.4612 31.1391 15.7882 30.8751 15.6008C29.5427 14.6664 28.0409 14.0009 26.4537 13.6414L25.9255 13.5051C24.6903 13.1729 22.995 12.7214 21.8875 13.0536L21.6405 13.1303L21.8875 13.1984C23.1479 13.5446 24.3445 14.0911 25.4314 14.817L26.7178 15.6689C27.6082 16.3305 28.5481 16.9229 29.529 17.4409C29.8124 17.591 30.1168 17.6973 30.4321 17.7561C30.5114 17.7642 30.5913 17.7642 30.6706 17.7561C30.8757 17.7692 31.0802 17.7232 31.2599 17.6236C31.4396 17.5239 31.5869 17.3748 31.6843 17.1938Z" fill="#9BE9B2"/>
        <path d="M41.0552 17.543C41.1468 17.4039 41.1957 17.241 41.1957 17.0745C41.1957 16.9079 41.1468 16.745 41.0552 16.6059C40.4504 15.5496 39.1044 15.2684 37.7499 15.1236L37.2728 15.0469C36.1702 14.8523 35.053 14.7526 33.9334 14.7488H33.6863L33.8823 14.8766C35.1809 15.6469 36.5502 16.2916 37.9714 16.8019C38.6273 17.0574 39.2492 17.3045 39.8455 17.5686C40.02 17.6542 40.2068 17.7117 40.3993 17.7389C40.5162 17.767 40.6384 17.7637 40.7536 17.7293C40.8688 17.6949 40.9729 17.6306 41.0552 17.543Z" fill="#9BE9B2"/>
        <path d="M47.9726 17.5004C47.8398 17.2607 47.6204 17.0808 47.3592 16.9977C46.6694 16.7504 45.9297 16.6744 45.2039 16.7762L44.3521 16.4951L44.6758 16.7507C45.3523 17.2939 46.1079 17.7306 46.9163 18.0456C47.0289 18.0897 47.146 18.1211 47.2656 18.1393C47.5722 18.1819 47.8619 18.1393 47.9641 17.8496C47.9907 17.7955 48.0052 17.7362 48.0067 17.6759C48.0081 17.6156 47.9965 17.5557 47.9726 17.5004Z" fill="#9BE9B2"/>
        <path d="M42.8612 15.8563C42.762 15.8368 42.6592 15.8457 42.5648 15.882C42.4704 15.9183 42.3882 15.9806 42.3277 16.0616C42.2671 16.1427 42.2307 16.2391 42.2226 16.34C42.2145 16.4408 42.2351 16.5419 42.282 16.6315C42.3158 16.723 42.3729 16.8041 42.4476 16.8668C42.5223 16.9295 42.612 16.9717 42.7079 16.9893C42.8066 16.9981 42.9058 16.9807 42.9955 16.9388C43.0853 16.8969 43.1624 16.8321 43.219 16.7508C43.2842 16.6744 43.3273 16.5817 43.3438 16.4827C43.3603 16.3836 43.3496 16.2819 43.3127 16.1885C43.2724 16.099 43.2097 16.0214 43.1306 15.9632C43.0515 15.905 42.9587 15.8682 42.8612 15.8563Z" fill="#9BE9B2"/>
        <path d="M-5.89283 16.0436C-6.29555 16.0465 -6.69213 16.1427 -7.05142 16.3247C-7.23672 16.4221 -7.38948 16.5716 -7.49089 16.7548C-7.5923 16.9379 -7.63793 17.1467 -7.62218 17.3555C-7.51143 18.054 -6.6425 18.2585 -6.24211 18.3181H-6.12286C-4.49997 18.4553 -2.86583 18.2789 -1.30962 17.7985L-0.789972 17.6537C0.445279 17.3214 2.14055 16.8614 2.93282 16.0265L3.11171 15.8391L2.86467 15.9073C1.59653 16.2293 0.285657 16.35 -1.01997 16.2651C-1.53963 16.2651 -2.0593 16.1969 -2.57043 16.1543C-3.67371 16.0363 -4.78414 15.9993 -5.89283 16.0436Z" fill="#9BE9B2"/>
        <path d="M30.1424 5.68443C28.5228 5.53931 26.8905 5.71297 25.3377 6.19557L24.8095 6.34039C23.5743 6.68115 21.879 7.14118 21.0867 7.97604L20.9079 8.12938L21.1549 8.06122C22.4219 7.73207 23.7334 7.60839 25.0396 7.69491L26.59 7.81417C27.6929 7.93819 28.8033 7.9809 29.9124 7.94196C30.3151 7.939 30.7117 7.84278 31.071 7.66083C31.2563 7.56339 31.409 7.4139 31.5104 7.23075C31.6119 7.04761 31.6575 6.83879 31.6418 6.63004C31.5225 5.88889 30.4661 5.71851 30.1424 5.68443Z" fill="#9BE9B2"/>
        <path d="M32.3659 3.58051C33.8739 3.59465 35.38 3.46629 36.8639 3.19715C37.5625 3.09492 38.2269 3.00121 38.8829 2.92454C39.5389 2.84787 39.8711 2.6349 39.9307 2.2771C39.9337 2.11034 39.8876 1.94637 39.7983 1.80554C39.709 1.6647 39.5802 1.55319 39.4281 1.48483C38.3717 0.879987 37.0684 1.30594 35.8246 1.85115L35.3731 2.03005C34.3191 2.40959 33.3013 2.88287 32.3318 3.4442L32.1273 3.56347L32.3659 3.58051Z" fill="#9BE9B2"/>
        <path d="M40.5015 0.879764C40.5843 0.946995 40.685 0.988461 40.7911 0.999029C40.8802 1.02459 40.9747 1.02459 41.0637 0.999029C41.153 0.95476 41.2295 0.888538 41.2861 0.80658C41.3427 0.724622 41.3776 0.62962 41.3875 0.530489C41.4078 0.431731 41.3999 0.32924 41.3647 0.234757C41.3295 0.140275 41.2684 0.0576223 41.1883 -0.00372731C41.1083 -0.0650769 41.0126 -0.102647 40.9122 -0.112125C40.8119 -0.121604 40.7108 -0.10261 40.6208 -0.0573219C40.5243 -0.0254355 40.4388 0.0331779 40.3744 0.111703C40.3099 0.190228 40.269 0.285438 40.2566 0.386266C40.2441 0.487095 40.2605 0.589399 40.3038 0.681283C40.3472 0.773167 40.4157 0.850856 40.5015 0.90532V0.879764Z" fill="#9BE9B2"/>
        <path d="M21.1549 1.79142C21.6149 1.55289 22.092 1.33139 22.552 1.11842C23.5712 0.676826 24.5539 0.155558 25.4911 -0.440548C25.8389 -0.652568 26.1309 -0.944649 26.343 -1.29245C26.4573 -1.46716 26.5182 -1.67144 26.5182 -1.88026C26.5182 -2.08907 26.4573 -2.29335 26.343 -2.46807C25.8574 -3.08143 24.8521 -2.70659 24.5625 -2.57029C23.0866 -1.88125 21.7586 -0.91201 20.6523 0.283564L20.2689 0.666915C19.3659 1.57844 18.1307 2.82221 17.8666 3.94672L17.8069 4.19377L17.9859 4.01487C18.9162 3.10863 19.9862 2.3579 21.1549 1.79142Z" fill="#9BE9B2"/>
        <path d="M0.462314 6.86866C0.462314 6.86866 -11.115 -1.33511 -12.4695 -0.534326C-13.824 0.266457 -6.25064 3.86998 0.462314 6.86866Z" fill="#9BE9B2"/>
        <path d="M23.4635 17.3555C23.4635 17.3555 35.0494 25.5592 36.4039 24.7585C37.7584 23.9577 30.2021 20.3627 23.4635 17.3555Z" fill="#9BE9B2"/>
        <path d="M24.5369 10.9154C24.5369 10.9154 38.6699 12.2273 39.4451 10.8557C40.2204 9.48418 31.8888 10.1487 24.5369 10.9154Z" fill="#9BE9B2"/>
        <path d="M22.2624 4.7986C22.2624 4.7986 35.1516 -1.16468 35.1431 -2.70661C35.1345 -4.24855 28.2342 0.462443 22.2624 4.7986Z" fill="#9BE9B2"/>
        <path d="M6.73226 23.5913C6.73226 23.5913 -1.47149 35.1686 -0.670702 36.5316C0.130082 37.8947 3.72506 30.3383 6.73226 23.5913Z" fill="#9BE9B2"/>
        <path d="M17.2191 0.632756C17.2191 0.632756 25.4229 -10.9445 24.6221 -12.3161C23.8213 -13.6876 20.2263 -6.11427 17.2191 0.632756Z" fill="#9BE9B2"/>
        <path d="M13.1726 24.6733C13.1726 24.6733 11.8607 38.8063 13.2322 39.5815C14.6038 40.3568 13.9479 32.0252 13.1726 24.6733Z" fill="#9BE9B2"/>
        <path d="M19.2978 22.3901C19.2978 22.3901 25.2611 35.2879 26.7945 35.2708C28.3279 35.2538 23.6339 28.3705 19.2978 22.3901Z" fill="#9BE9B2"/>
        <path d="M4.66216 1.83408C4.66216 1.83408 -1.30112 -11.0637 -2.84305 -11.0466C-4.38499 -11.0296 0.317485 -4.14624 4.66216 1.83408Z" fill="#9BE9B2"/>
        <path d="M2.1661 20.5415C2.1661 20.5415 -11.0383 25.7296 -11.115 27.3056C-11.1916 28.8816 -4.08682 24.5369 2.1661 20.5415Z" fill="#9BE9B2"/>
        <path d="M264.593 113.945L269.703 114.897L267.461 110.208L270.401 114.494L272.131 109.593L271.179 114.703L275.868 112.46L271.581 115.4L276.483 117.131L271.373 116.179L273.615 120.868L270.675 116.581L268.945 121.483L269.897 116.373L265.208 118.615L269.495 115.675L264.593 113.945Z" fill="#E8505B"/>
        <path d="M13.0755 73.7458L21.3222 75.2826L17.7034 67.7146L22.448 74.6327L25.2405 66.7224L23.7037 74.9691L31.2717 71.3503L24.3537 76.0949L32.2639 78.8874L24.0172 77.3506L27.636 84.9186L22.8914 78.0006L20.0989 85.9109L21.6357 77.6641L14.0677 81.283L20.9857 76.5383L13.0755 73.7458Z" fill="#E8505B"/>
        <path d="M84.0755 121.746L90.7333 122.986L87.8117 116.877L91.6422 122.462L93.8966 116.075L92.6559 122.733L98.7658 119.812L93.1807 123.642L99.5669 125.897L92.909 124.656L95.8306 130.766L92.0002 125.181L89.7457 131.567L90.9864 124.909L84.8766 127.831L90.4617 124L84.0755 121.746Z" fill="#F294CA"/>
        <path d="M60.375 11.1316L64.7859 11.9535L62.8503 7.90569L65.3881 11.6059L66.8817 7.37495L66.0597 11.7858L70.1075 9.85025L66.4073 12.388L70.6383 13.8816L66.2274 13.0596L68.163 17.1075L65.6252 13.4073L64.1316 17.6382L64.9536 13.2273L60.9057 15.1629L64.6059 12.6252L60.375 11.1316Z" fill="#FFD200"/>
        <path d="M330.482 49.5305L335.236 50.4164L333.15 46.0538L335.885 50.0417L337.494 45.4819L336.608 50.2356L340.971 48.1496L336.983 50.8846L341.543 52.4943L336.789 51.6084L338.875 55.9709L336.14 51.9831L334.531 56.5429L335.416 51.7892L331.054 53.8752L335.042 51.1402L330.482 49.5305Z" fill="#9FD9C2"/>
        <path d="M300.997 14.6366L304.906 15.365L303.191 11.7779L305.44 15.0569L306.763 11.3076L306.035 15.2164L309.622 13.5012L306.343 15.75L310.092 17.0736L306.183 16.3452L307.899 19.9323L305.65 16.6533L304.326 20.4026L305.055 16.4938L301.468 18.209L304.747 15.9602L300.997 14.6366Z" fill="#CE06E8"/>
    </g>
    <defs>
        <radialGradient id="paint0_radial_289_6326" cx="0" cy="0" r="1" gradientUnits="userSpaceOnUse" gradientTransform="translate(187 138) rotate(-39.7351) scale(208.06 263.23)">
            <stop stop-color="#5CAFEA"/>
            <stop stop-color="#0D82D5"/>
            <stop offset="0.364819" stop-color="#005C9E"/>
            <stop offset="0.989583" stop-color="#001A2D"/>
        </radialGradient>
    </defs>
</svg>
