<svg width="216" height="200" viewBox="0 0 216 200" fill="none" xmlns="http://www.w3.org/2000/svg">
<g id="Group 2609823">
<g id="Background_Complete">
<path id="Vector" d="M37.0399 67.9283L39.0596 68.6851L37.3098 69.1816C36.7265 69.3455 36.2638 69.7938 36.0709 70.3723L35.4395 72.3101L34.6585 70.3675C34.4657 69.8854 34.0753 69.5094 33.5884 69.3311L31.8145 68.6899L33.733 67.8994C34.1958 67.7066 34.5621 67.3354 34.7453 66.8678L35.4395 65.0649L35.936 66.7377C36.0999 67.2872 36.5096 67.7259 37.0447 67.9283H37.0399Z" fill="#E0E0E0"/>
<path id="Vector_2" d="M134.704 73.8912L136.964 74.7396L135.003 75.2939C134.347 75.4819 133.826 75.9784 133.619 76.6244L132.91 78.7936L132.038 76.6196C131.821 76.0797 131.387 75.6555 130.838 75.4578L128.852 74.7396L131.001 73.8574C131.522 73.6453 131.932 73.2259 132.134 72.7005L132.91 70.6855L133.47 72.5607C133.653 73.1729 134.111 73.6694 134.708 73.8912H134.704Z" fill="#E0E0E0"/>
<path id="Vector_3" d="M126.648 23.1221L128.027 23.6427L126.826 23.9801C126.426 24.0958 126.108 24.3995 125.978 24.7948L125.544 26.1204L125.009 24.79C124.879 24.4622 124.609 24.2019 124.276 24.0814L123.066 23.6427L124.378 23.1028C124.696 22.9727 124.946 22.7172 125.067 22.3942L125.539 21.1602L125.882 22.3074C125.992 22.6834 126.272 22.9823 126.638 23.1221H126.648Z" fill="#E0E0E0"/>
<path id="Vector_4" d="M42.5015 12.8882L43.8802 13.4088L42.6799 13.7463C42.2798 13.8619 41.9616 14.1656 41.8315 14.5609L41.3977 15.8865L40.8626 14.5561C40.7324 14.2283 40.4625 13.968 40.1299 13.8475L38.9199 13.4088L40.2311 12.8689C40.5492 12.7388 40.7999 12.4833 40.9204 12.1603L41.3928 10.9263L41.7351 12.0735C41.846 12.4495 42.1255 12.7484 42.4919 12.8882H42.5015Z" fill="#E0E0E0"/>
<path id="Vector_5" d="M69.4435 14.1221L72.4997 15.2694L69.8484 16.0214C68.9614 16.2721 68.2625 16.9469 67.9732 17.8243L67.014 20.7599L65.833 17.8194C65.5389 17.0915 64.9508 16.5179 64.2085 16.248L61.5234 15.2742L64.4302 14.0787C65.134 13.7895 65.6883 13.2255 65.9583 12.5121L67.0092 9.78369L67.7611 12.3193C68.007 13.1484 68.6288 13.8136 69.4387 14.1221H69.4435Z" fill="#E0E0E0"/>
<path id="Vector_6" d="M117.807 9.02694L119.827 9.78376L118.077 10.2803C117.494 10.4442 117.031 10.8925 116.839 11.4709L116.207 13.4088L115.426 11.4661C115.233 10.9841 114.843 10.6081 114.356 10.4297L112.582 9.78858L114.501 8.99802C114.963 8.8052 115.33 8.43402 115.513 7.96644L116.207 6.16357L116.704 7.83628C116.867 8.38582 117.277 8.82448 117.812 9.02694H117.807Z" fill="#E0E0E0"/>
<path id="Vector_7" d="M181.751 59.8541L183.771 60.6109L182.021 61.1074C181.437 61.2713 180.975 61.7196 180.782 62.2981L180.15 64.2359L179.369 62.2933C179.177 61.8112 178.786 61.4352 178.299 61.2569L176.525 60.6157L178.444 59.8252C178.907 59.6323 179.273 59.2612 179.456 58.7936L180.15 56.9907L180.647 58.6634C180.811 59.213 181.221 59.6516 181.756 59.8541H181.751Z" fill="#E0E0E0"/>
<path id="Vector_8" d="M34.1239 79.589L34.8856 79.8734L34.2252 80.0614C34.0034 80.1241 33.8299 80.2928 33.7576 80.5097L33.5165 81.2376L33.2225 80.5049C33.1502 80.3217 33.0007 80.1819 32.8176 80.1144L32.1523 79.8734L32.8754 79.5745C33.049 79.5022 33.1887 79.3624 33.2562 79.1841L33.5165 78.5044L33.7045 79.1359C33.7672 79.3432 33.9215 79.5071 34.1239 79.5842V79.589Z" fill="#E0E0E0"/>
<path id="Vector_9" d="M97.6395 11.9625L98.4012 12.2469L97.7408 12.4349C97.519 12.4976 97.3455 12.6663 97.2732 12.8833L97.0322 13.6111L96.7381 12.8784C96.6658 12.6953 96.5164 12.5555 96.3332 12.488L95.668 12.2469L96.391 11.9481C96.5646 11.8758 96.7044 11.736 96.7719 11.5576L97.0322 10.8779L97.2202 11.5094C97.2828 11.7167 97.4371 11.8806 97.6395 11.9577V11.9625Z" fill="#E0E0E0"/>
<path id="Vector_10" d="M181.24 174.774L182.618 175.295L181.418 175.632C181.018 175.748 180.7 176.052 180.57 176.447L180.136 177.773L179.601 176.442C179.471 176.115 179.201 175.854 178.868 175.734L177.658 175.295L178.969 174.755C179.288 174.625 179.538 174.37 179.659 174.047L180.131 172.812L180.473 173.96C180.584 174.336 180.864 174.635 181.23 174.774H181.24Z" fill="#E0E0E0"/>
<path id="Vector_11" d="M174.005 187.183L176.024 187.94L174.275 188.436C173.691 188.6 173.229 189.048 173.036 189.627L172.404 191.565L171.623 189.622C171.431 189.14 171.04 188.764 170.553 188.585L168.779 187.944L170.698 187.154C171.161 186.961 171.527 186.59 171.71 186.122L172.404 184.319L172.901 185.992C173.065 186.542 173.474 186.98 174.01 187.183H174.005Z" fill="#E0E0E0"/>
<path id="Vector_12" d="M74.0086 192.895L76.0284 193.651L74.2786 194.148C73.6953 194.312 73.2325 194.76 73.0397 195.339L72.4082 197.276L71.6273 195.334C71.4345 194.852 71.044 194.476 70.5571 194.297L68.7832 193.656L70.7018 192.866C71.1645 192.673 71.5309 192.302 71.7141 191.834L72.4082 190.031L72.9047 191.704C73.0686 192.253 73.4784 192.692 74.0134 192.895H74.0086Z" fill="#E0E0E0"/>
<path id="Vector_13" d="M158.657 182.671L159.419 182.955L158.758 183.143C158.537 183.206 158.363 183.374 158.291 183.591L158.05 184.319L157.756 183.586C157.683 183.403 157.534 183.263 157.351 183.196L156.686 182.955L157.409 182.656C157.582 182.584 157.722 182.444 157.789 182.266L158.05 181.586L158.238 182.217C158.3 182.425 158.455 182.589 158.657 182.666V182.671Z" fill="#E0E0E0"/>
<path id="Vector_14" d="M144.745 51.6935L145.507 51.9779L144.846 52.1659C144.624 52.2286 144.451 52.3973 144.379 52.6142L144.138 53.3421L143.844 52.6094C143.771 52.4262 143.622 52.2864 143.439 52.2189L142.773 51.9779L143.497 51.679C143.67 51.6067 143.81 51.4669 143.877 51.2886L144.138 50.6089L144.326 51.2404C144.388 51.4477 144.543 51.6116 144.745 51.6887V51.6935Z" fill="#E0E0E0"/>
<path id="Vector_15" d="M43.0715 33.9826L45.1636 34.7683L43.3463 35.2841C42.7389 35.4577 42.2568 35.9204 42.064 36.5182L41.4084 38.5283L40.5986 36.5134C40.3961 36.012 39.9912 35.6216 39.485 35.4384L37.6484 34.7732L39.6393 33.9537C40.1213 33.756 40.5022 33.3656 40.6853 32.8835L41.4036 31.0132L41.9194 32.7534C42.0881 33.3222 42.5123 33.7801 43.0667 33.9874L43.0715 33.9826Z" fill="#E0E0E0"/>
<path id="Vector_16" d="M23.6931 74.3253L24.8066 74.7447L23.8377 75.0195C23.5147 75.1111 23.2592 75.3569 23.1532 75.6751L22.8013 76.7452L22.3723 75.6751C22.2662 75.4099 22.0493 75.2027 21.7793 75.1014L20.8008 74.7447L21.8613 74.3109C22.1168 74.2048 22.3192 73.9975 22.4205 73.742L22.8013 72.749L23.0761 73.6746C23.1676 73.9782 23.3942 74.2193 23.6883 74.3301L23.6931 74.3253Z" fill="#E0E0E0"/>
<path id="Vector_17" d="M214.41 100.819C203.053 95.5934 192.352 99.6234 192.352 99.6234C200.609 106.232 214.41 100.819 214.41 100.819Z" fill="#E0E0E0"/>
<path id="Vector_18" d="M180.629 92.561C178.932 100.042 182.788 106.357 182.788 106.357C185.729 100.684 180.629 92.561 180.629 92.561Z" fill="#E0E0E0"/>
<path id="Vector_19" d="M185.811 106.208C194.242 109.929 202.557 106.888 202.557 106.888C196.541 102.125 185.811 106.208 185.811 106.208Z" fill="#E0E0E0"/>
<path id="Vector_20" d="M199.067 92.9323C198.951 92.807 193.923 97.184 187.835 102.708C181.747 108.237 176.902 112.817 177.018 112.942C177.133 113.067 182.161 108.69 188.249 103.166C194.338 97.6419 199.182 93.0576 199.067 92.9323Z" fill="#E0E0E0"/>
<path id="Vector_21" d="M215.404 81.6719C215.404 81.6719 201.241 83.3349 196.787 95.2753C196.787 95.2753 208.891 94.022 215.404 81.6719Z" fill="#E0E0E0"/>
<path id="Vector_22" d="M195.335 78.644C195.335 78.644 184.957 88.4248 188.495 100.664C188.495 100.664 197.466 92.4403 195.335 78.644Z" fill="#E0E0E0"/>
<path id="Vector_23" d="M15.6803 117.584C13.3134 127.225 18.0664 134.967 18.0664 134.967C21.9758 127.534 15.6803 117.584 15.6803 117.584Z" fill="#E0E0E0"/>
<path id="Vector_24" d="M14.3223 145.172C20.4105 145.369 24.7538 141.412 24.7538 141.412C19.8851 139.97 14.3223 145.172 14.3223 145.172Z" fill="#E0E0E0"/>
<path id="Vector_25" d="M24.1838 139.079C25.8179 131.944 22.1929 125.914 22.1929 125.914C19.3826 131.323 24.1838 139.079 24.1838 139.079Z" fill="#E0E0E0"/>
<path id="Vector_26" d="M11.8391 130.739C11.7571 130.85 15.9269 134.114 21.1523 138.028C26.3777 141.947 30.6824 145.032 30.7595 144.921C30.8414 144.81 26.6717 141.552 21.4463 137.633C16.2209 133.718 11.921 130.628 11.8391 130.739Z" fill="#E0E0E0"/>
<path id="Vector_27" d="M0.597656 119.695C0.597656 119.695 4.02502 130.488 14.0082 132.166C14.0082 132.166 11.2075 122.915 0.597656 119.695Z" fill="#E0E0E0"/>
<path id="Vector_28" d="M1.25391 135.801C1.25391 135.801 10.4418 142.424 19.4512 137.82C19.4512 137.82 11.6903 132.06 1.25391 135.801Z" fill="#E0E0E0"/>
</g>
<g id="Table">
<path id="Vector_29" d="M206.886 199.875C206.886 199.942 163.082 200 109.059 200C55.036 200 11.2227 199.942 11.2227 199.875C11.2227 199.807 55.0168 199.75 109.059 199.75C163.102 199.75 206.886 199.807 206.886 199.875Z" fill="#383E41"/>
</g>
<g id="Plants">
<path id="Vector_30" d="M183.468 75.0581C166.905 75.8487 156.768 87.1334 156.768 87.1334C170.53 89.8618 183.468 75.0581 183.468 75.0581Z" fill="#6ECF8B"/>
<path id="Vector_31" d="M138.652 85.9912C141.231 95.8346 149.633 100.911 149.633 100.911C149.629 92.4314 138.652 85.9912 138.652 85.9912Z" fill="#6ECF8B"/>
<path id="Vector_32" d="M153.094 98.8858C165.294 98.1145 173.224 89.4473 173.224 89.4473C163.231 87.5143 153.094 98.8858 153.094 98.8858Z" fill="#6ECF8B"/>
<path id="Vector_33" d="M160.584 75.1543C160.372 75.0772 157.128 83.301 153.339 93.53C149.55 103.759 146.648 112.113 146.861 112.19C147.073 112.267 150.317 104.044 154.106 93.8144C157.895 83.5902 160.797 75.2315 160.58 75.1543H160.584Z" fill="#6ECF8B"/>
<path id="Vector_34" d="M172.93 51.9097C172.93 51.9097 157.273 62.5292 159.331 79.3045C159.331 79.3045 172.814 70.43 172.93 51.9097Z" fill="#6ECF8B"/>
<path id="Vector_35" d="M147.454 60.6157C147.454 60.6157 141.211 78.4756 152.862 90.7197C152.862 90.7197 158.396 75.5544 147.454 60.6157Z" fill="#6ECF8B"/>
<path id="Vector_36" d="M18.3184 117.416C30.2683 113.897 40.2419 119.411 40.2419 119.411C31.1457 124.738 18.3184 117.416 18.3184 117.416Z" fill="#6ECF8B"/>
<path id="Vector_37" d="M52.8178 114.138C53.4107 121.759 48.7011 127.433 48.7011 127.433C46.6187 121.412 52.8178 114.138 52.8178 114.138Z" fill="#6ECF8B"/>
<path id="Vector_38" d="M45.7462 126.844C36.8957 129.298 29.1348 125.099 29.1348 125.099C35.7533 121.267 45.7462 126.844 45.7462 126.844Z" fill="#6ECF8B"/>
<path id="Vector_39" d="M34.587 111.848C34.7171 111.742 39.0459 116.779 44.2569 123.103C49.4678 129.433 53.5797 134.644 53.4495 134.755C53.3194 134.861 48.9906 129.823 43.7797 123.494C38.5735 117.169 34.4568 111.954 34.587 111.843V111.848Z" fill="#6ECF8B"/>
<path id="Vector_40" d="M20.0977 98.3887C20.0977 98.3887 33.8216 102.072 36.4969 114.484C36.4969 114.484 24.7398 111.505 20.0977 98.3887Z" fill="#6ECF8B"/>
<path id="Vector_41" d="M40.3238 98.2925C40.3238 98.2925 49.1501 109.433 43.8958 120.987C43.8958 120.987 36.2312 111.587 40.3238 98.2925Z" fill="#6ECF8B"/>
</g>
<g id="Speech_Bubble">
<path id="Vector_42" d="M137.297 37.1064L139.409 30.8976C137.668 27.557 136.801 23.7054 137.09 19.6707C137.924 8.06776 148.008 -0.662139 159.611 0.171805C171.214 1.00575 179.944 11.0902 179.11 22.6931C178.276 34.296 168.192 43.0259 156.589 42.192C151.744 41.8449 147.401 39.8781 144.046 36.8653V36.875L137.297 37.1015V37.1064Z" fill="white"/>
<path id="Vector_43" d="M137.296 37.1063C137.296 37.1063 137.436 37.1063 137.721 37.1014C138.015 37.0918 138.444 37.0822 139.003 37.0725C140.155 37.0436 141.847 36.9954 144.05 36.9375H144.146L144.093 36.8556V36.846L144.006 36.9134C146.017 38.7259 149.054 40.7602 153.165 41.7532C154.187 42.0039 155.272 42.1774 156.4 42.269C157.533 42.3027 158.709 42.3847 159.914 42.2449C162.324 42.0473 164.86 41.4158 167.294 40.2396C169.729 39.0682 172.057 37.3569 174 35.1395C175.947 32.9317 177.504 30.213 178.41 27.1857C179.336 24.1633 179.519 20.8275 178.955 17.5447C178.386 14.2668 177.041 11.0274 174.896 8.29422C174.626 7.95196 174.361 7.60489 174.086 7.27227C173.787 6.95894 173.489 6.64561 173.19 6.33228L172.741 5.86469L172.255 5.44049C171.932 5.1609 171.604 4.87649 171.281 4.5969C170.948 4.32696 170.587 4.09557 170.244 3.84491C169.892 3.60388 169.565 3.33394 169.184 3.1363C168.446 2.72173 167.733 2.26379 166.952 1.95528C163.905 0.557336 160.613 -0.0789679 157.441 0.00780088C154.264 0.118672 151.228 0.942975 148.586 2.28307C145.939 3.61834 143.693 5.45495 141.948 7.52776C140.193 9.60057 138.945 11.9048 138.145 14.1897C137.716 15.3273 137.489 16.4842 137.248 17.5929C137.118 18.7209 136.944 19.8055 136.949 20.8612C136.891 25.0936 138.101 28.5451 139.355 30.9216V30.8782C138.675 32.9028 138.159 34.4646 137.807 35.5251C137.639 36.0409 137.508 36.4362 137.417 36.711C137.33 36.9761 137.292 37.1063 137.292 37.1063C137.292 37.1063 137.345 36.9665 137.441 36.6965C137.537 36.4217 137.677 36.0265 137.86 35.5059C138.227 34.4598 138.762 32.9173 139.456 30.9168L139.466 30.8975L139.456 30.8782C138.227 28.5017 137.05 25.0695 137.123 20.8709C137.123 19.8248 137.296 18.7498 137.431 17.6315C137.672 16.5324 137.899 15.3852 138.328 14.2572C139.128 11.9915 140.372 9.71626 142.112 7.66755C143.847 5.62367 146.074 3.81116 148.692 2.49035C151.305 1.16954 154.308 0.354876 157.446 0.253646C160.584 0.171697 163.838 0.798361 166.846 2.18666C167.617 2.49517 168.321 2.9483 169.049 3.35804C169.42 3.55086 169.748 3.8208 170.095 4.05701C170.432 4.30767 170.789 4.53424 171.117 4.79936C171.435 5.07413 171.758 5.35372 172.076 5.63331L172.558 6.05269L173.002 6.51546C173.296 6.82397 173.59 7.13248 173.889 7.44581C174.163 7.77842 174.424 8.12068 174.689 8.45811C176.81 11.1576 178.14 14.3584 178.704 17.5978C179.263 20.8371 179.085 24.1392 178.174 27.123C177.282 30.1166 175.749 32.8064 173.826 34.9949C171.907 37.1882 169.603 38.8898 167.198 40.0516C164.788 41.223 162.281 41.8544 159.895 42.0569C158.699 42.2015 157.533 42.1244 156.414 42.0955C155.296 42.0087 154.221 41.84 153.204 41.5941C149.121 40.6252 146.089 38.6199 144.079 36.8363L143.785 36.576L143.997 36.9086V36.9183L144.045 36.8363C141.861 36.9231 140.179 36.9906 139.037 37.0388C138.468 37.0629 138.039 37.0822 137.74 37.0966C137.446 37.1111 137.292 37.1207 137.292 37.1207L137.296 37.1063Z" fill="#383E41"/>
<path id="Vector_44" d="M168.765 18.5956C168.64 17.2025 167.999 15.8913 167.093 14.826C166.206 13.7847 165.034 12.9508 163.704 12.6278C162.291 12.2856 160.739 12.5507 159.524 13.3461C158.801 13.8185 158.199 14.4741 157.779 15.2261C157.399 14.5367 156.873 13.9342 156.237 13.4714C155.061 12.6182 153.523 12.2808 152.096 12.5555C150.751 12.8158 149.546 13.5919 148.606 14.5898C147.651 15.6069 146.948 16.894 146.755 18.2774C146.514 20.008 146.808 21.9217 147.671 23.4402C148.587 25.0454 150.091 26.3614 151.652 27.3496C154.275 29.0127 157.731 31.1048 157.731 31.1048C157.731 31.1048 160.744 28.9596 163.443 27.4219C165.049 26.506 166.615 25.2623 167.603 23.7053C168.539 22.2254 168.919 20.3358 168.765 18.5908V18.5956Z" fill="#C997CD"/>
</g>
<g id="Character">
<path id="Vector_45" d="M132.64 91.9778C132.64 91.9778 142.739 91.597 147.689 104.362C152.645 117.126 157.595 143.803 157.595 143.803L188.711 124.723L198.825 136.514C198.825 136.514 152.645 171.236 148.263 173.145C143.881 175.049 138.925 170.479 136.829 167.809C134.732 165.143 132.635 91.9778 132.635 91.9778H132.64Z" fill="#AE7461"/>
<path id="Vector_46" d="M27.2117 155.763L52.5386 161.774C52.5386 161.774 58.0628 118.37 62.0783 111.592C67.4049 102.607 75.6046 100.544 75.6046 100.544L82.6521 122.453C82.6521 122.453 74.8381 182.849 70.2683 186.281C65.6985 189.713 23.7988 169.79 23.7988 169.79L27.2069 155.767L27.2117 155.763Z" fill="#AE7461"/>
<path id="Vector_47" d="M156.684 199.875C156.684 199.875 146.084 166.218 146.084 158.336C146.084 155.859 148.379 142.299 148.379 131.785C148.379 123.412 143.973 112.426 141.514 106.772C140.709 104.921 132.621 92.0018 132.621 92.0018L117.484 89.9868L92.2731 91.8716L71.3281 102.24L78.6456 148.917L85.7558 178.626L76.568 199.875H156.684Z" fill="#C997CD"/>
<path id="Vector_48" d="M118.768 163.847C124.938 157.792 131.513 152.147 138.43 146.965L118.768 163.847Z" fill="#383E41"/>
<path id="Vector_49" d="M53.2266 144.839L80.7997 150.2C80.7997 150.2 72.4458 101.686 72.2578 101.778C72.0698 101.87 61.8118 105.572 59.0111 118.616C56.1815 131.79 53.2314 144.839 53.2314 144.839H53.2266Z" fill="#C997CD"/>
<path id="Vector_50" d="M130.215 91.6789C130.215 91.6789 140.752 91.327 145.308 99.6761C149.863 108.025 158.111 131.048 158.111 131.048L144.324 136.466L130.215 91.6789Z" fill="#C997CD"/>
<path id="Vector_51" d="M140.574 112.315C140.574 112.315 140.647 112.368 140.772 112.489C140.912 112.629 141.085 112.802 141.302 113.014C141.534 113.241 141.808 113.53 142.102 113.882C142.396 114.234 142.753 114.619 143.091 115.092C143.264 115.323 143.447 115.569 143.635 115.82C143.823 116.075 143.992 116.355 144.185 116.639C144.575 117.198 144.922 117.84 145.308 118.505C146.031 119.859 146.72 121.402 147.28 123.084C147.819 124.771 148.171 126.43 148.388 127.948C148.47 128.71 148.567 129.433 148.581 130.117C148.595 130.46 148.624 130.787 148.62 131.106C148.62 131.424 148.61 131.723 148.61 132.017C148.615 132.595 148.557 133.121 148.523 133.578C148.494 134.036 148.441 134.432 148.393 134.75C148.345 135.049 148.306 135.29 148.277 135.487C148.248 135.656 148.229 135.743 148.22 135.743C148.21 135.743 148.215 135.651 148.229 135.483C148.248 135.285 148.273 135.039 148.297 134.74C148.335 134.422 148.374 134.027 148.388 133.569C148.408 133.111 148.456 132.59 148.436 132.017C148.436 131.727 148.436 131.429 148.432 131.11C148.432 130.797 148.393 130.469 148.379 130.132C148.354 129.457 148.253 128.739 148.162 127.982C147.935 126.478 147.583 124.839 147.043 123.166C146.489 121.498 145.809 119.965 145.105 118.616C144.734 117.95 144.392 117.314 144.011 116.75C143.828 116.466 143.659 116.186 143.476 115.926C143.293 115.67 143.115 115.425 142.946 115.193C142.623 114.716 142.276 114.325 141.991 113.964C141.712 113.602 141.447 113.308 141.23 113.072C141.032 112.846 140.868 112.662 140.738 112.513C140.627 112.383 140.574 112.31 140.579 112.306L140.574 112.315Z" fill="#383E41"/>
<path id="Vector_52" d="M73.0401 126.902C73.0401 126.902 73.0883 126.984 73.151 127.143C73.2233 127.331 73.3149 127.568 73.4258 127.857C73.662 128.479 73.9849 129.38 74.3706 130.498C75.1418 132.74 76.1445 135.859 77.1183 139.339C78.092 142.824 78.8633 146.011 79.3694 148.325C79.6249 149.481 79.8177 150.421 79.9382 151.072C79.9913 151.376 80.0395 151.622 80.0732 151.824C80.1021 151.998 80.1118 152.089 80.1021 152.089C80.0925 152.089 80.0684 152.003 80.0202 151.834C79.972 151.636 79.9141 151.39 79.837 151.091C79.6779 150.412 79.4562 149.486 79.1911 148.363C78.6415 146.059 77.8461 142.887 76.8724 139.407C75.8938 135.926 74.9249 132.807 74.197 130.551C73.8403 129.452 73.5463 128.546 73.3293 127.886C73.2378 127.592 73.1606 127.351 73.098 127.158C73.0498 126.989 73.0257 126.902 73.0353 126.897L73.0401 126.902Z" fill="#383E41"/>
<path id="Vector_53" d="M85.8047 63.0696C81.3795 54.9567 80.4299 44.9109 83.2499 36.0701L71.9459 34.7686C64.1945 35.2361 57.441 41.2521 54.3222 48.5841C51.2033 55.916 51.2563 64.323 52.7507 72.1803C53.3147 75.1449 54.0136 78.4614 52.4181 80.997C51.0683 83.1421 48.4267 84.0725 46.9275 86.1115C44.7005 89.1388 45.8911 93.8918 48.8364 96.1719C51.7818 98.452 55.8936 98.5821 59.3981 97.4252C62.9074 96.2683 65.9492 93.993 68.9041 91.7226C70.1864 93.8629 73.1028 94.5763 75.378 93.6701C77.6533 92.7686 79.2682 90.5464 79.9816 88.141C80.695 85.7355 80.6083 83.1566 80.2853 80.6644C84.59 81.9707 89.6033 78.3602 89.907 73.747C90.1625 69.8617 87.6462 66.4632 85.7999 63.0696H85.8047Z" fill="#383E41"/>
<path id="Vector_54" d="M66.8108 54.4022C66.4541 52.0257 66.1022 49.6058 66.483 47.2341C66.8638 44.8624 68.1027 42.5052 70.2189 41.3676C71.2167 40.8325 72.4893 40.6108 73.4534 41.2037C74.4175 41.7966 74.6923 43.4067 73.7571 44.0478L73.6992 44.3563C73.1449 47.6631 72.5279 50.9555 71.8482 54.2335C71.6746 55.0578 71.4915 55.9062 71.0191 56.6052C70.5467 57.3041 69.7175 57.8296 68.8836 57.6946C67.5097 57.468 67.0084 55.776 66.8011 54.3974L66.8108 54.4022Z" fill="#465159"/>
<path id="Vector_55" d="M73.0401 37.6899C77.1712 29.8711 85.0576 23.6671 94.6985 21.7148C100.064 20.6254 102.498 21.4063 106.567 21.7727C110.63 22.139 114.501 23.6044 117.393 26.4871C120.83 29.9096 123.906 33.8721 125.26 38.5287C126.649 43.3106 127.55 48.1214 127.213 53.0914C126.789 59.3194 123.785 63.4313 121.606 67.9095L114.318 72.0214C107.487 73.4627 100.555 74.9089 93.585 74.5184C86.6146 74.1279 79.4754 71.6647 74.8574 66.4248C68.4462 59.1459 68.5137 46.2655 73.0497 37.6899H73.0401Z" fill="#383E41"/>
<path id="Vector_56" d="M84.1027 35.6652L99.5379 26.1592L103.963 25.9037C113.72 24.2262 122.334 33.8045 123.785 41.6908C125.395 50.4544 127.019 61.2186 126.759 67.9287C126.239 81.4261 115.325 84.4581 115.325 84.4581C115.325 84.4581 115.783 86.5213 116.636 90.8742C114.8 98.0664 103.621 99.874 92.7554 93.9207L92.3312 93.4532L80.5066 40.8858C80.1691 38.4707 81.7358 36.2051 84.1123 35.6604L84.1027 35.6652Z" fill="#AE7461"/>
<path id="Vector_57" d="M119.909 53.327C120.049 54.2188 119.408 55.0769 118.478 55.236C117.547 55.3999 116.684 54.8069 116.545 53.9151C116.405 53.0234 117.046 52.1653 117.976 52.0062C118.907 51.8423 119.774 52.4353 119.914 53.327H119.909Z" fill="#383E41"/>
<path id="Vector_58" d="M121.578 46.5977C121.394 46.8435 119.992 46.0481 118.165 46.2699C116.338 46.4675 115.109 47.5666 114.882 47.369C114.771 47.2822 114.94 46.858 115.475 46.3615C116 45.8698 116.931 45.3395 118.068 45.2094C119.206 45.0792 120.218 45.3829 120.816 45.7493C121.428 46.1156 121.669 46.4916 121.578 46.6025V46.5977Z" fill="#383E41"/>
<path id="Vector_59" d="M112.432 62.8429C112.413 62.7417 113.527 62.4091 115.339 61.9511C115.802 61.8451 116.231 61.7005 116.269 61.3727C116.337 61.0208 116.081 60.5436 115.792 60.0278C115.219 58.948 114.616 57.82 113.984 56.639C111.463 51.8088 109.579 47.8127 109.771 47.7114C109.969 47.6102 112.172 51.4473 114.693 56.2774C115.305 57.4729 115.889 58.6057 116.443 59.6952C116.684 60.2061 117.06 60.7701 116.906 61.498C116.824 61.8644 116.51 62.1536 116.221 62.2741C115.932 62.3994 115.672 62.438 115.44 62.4766C113.599 62.7995 112.452 62.9442 112.432 62.8381V62.8429Z" fill="#383E41"/>
<path id="Vector_60" d="M115.339 84.4384C115.339 84.4384 106.494 86.0774 97.0312 81.8257C97.0312 81.8257 102.854 90.4447 115.966 87.6199L115.339 84.4384Z" fill="#6F4439"/>
<path id="Vector_61" d="M119.852 40.3652C119.597 40.8473 118.165 40.7171 116.545 41.0497C114.916 41.3293 113.624 41.9753 113.214 41.6137C113.031 41.4354 113.156 40.9823 113.672 40.4616C114.178 39.9459 115.094 39.4204 116.213 39.2083C117.331 39.001 118.372 39.1601 119.023 39.4542C119.683 39.7482 119.963 40.129 119.857 40.3604L119.852 40.3652Z" fill="#383E41"/>
<path id="Vector_62" d="M99.8841 56.2293C99.9949 57.1259 100.843 57.7767 101.783 57.6755C102.719 57.5791 103.393 56.774 103.287 55.8774C103.176 54.9808 102.328 54.3301 101.393 54.4265C100.453 54.5229 99.778 55.3279 99.8889 56.2245L99.8841 56.2293Z" fill="#383E41"/>
<path id="Vector_63" d="M96.9492 50.1985C97.195 50.3865 98.323 49.2344 100.145 48.9548C101.958 48.6463 103.442 49.3742 103.601 49.1187C103.683 49.003 103.409 48.6415 102.758 48.3089C102.122 47.9763 101.08 47.7208 99.9475 47.9039C98.8147 48.0871 97.9277 48.6559 97.4457 49.1669C96.954 49.6827 96.8287 50.1117 96.9444 50.1937L96.9492 50.1985Z" fill="#383E41"/>
<path id="Vector_64" d="M97.021 44.2069C97.4452 44.5636 98.7805 43.9129 100.463 43.6285C102.136 43.291 103.62 43.4164 103.885 42.9295C103.996 42.6981 103.707 42.3173 103.022 42.0281C102.348 41.734 101.268 41.5798 100.111 41.7919C98.9588 42.0088 98.0092 42.539 97.4934 43.0548C96.9631 43.5754 96.833 44.0286 97.0258 44.2069H97.021Z" fill="#383E41"/>
<path id="Vector_65" d="M86.6196 62.544C86.4991 61.5558 85.0819 59.3673 84.0888 59.3335C81.4376 59.2371 76.7762 60.0084 77.5185 66.6221C78.5357 75.6605 87.4053 72.773 87.3909 72.5127C87.3812 72.3103 87.0342 65.952 86.6196 62.5488V62.544Z" fill="#AE7461"/>
<path id="Vector_66" d="M84.5268 69.49C84.4834 69.4659 84.3822 69.6201 84.1315 69.7696C83.8857 69.919 83.447 70.0492 82.9553 69.9287C81.9623 69.6876 80.9838 68.2608 80.7572 66.6363C80.6415 65.8168 80.7234 65.0118 80.9452 64.3321C81.1476 63.6379 81.5236 63.1318 81.9961 62.992C82.4636 62.8281 82.8348 63.0787 82.9746 63.3198C83.124 63.5608 83.0855 63.7488 83.1385 63.7584C83.1674 63.7777 83.3169 63.5849 83.2012 63.2185C83.1433 63.045 83.0132 62.8425 82.7818 62.6931C82.5456 62.5437 82.2178 62.4858 81.8852 62.563C81.191 62.6883 80.6367 63.4017 80.4005 64.1489C80.1209 64.9057 80.01 65.8071 80.1402 66.7279C80.4053 68.5452 81.5285 70.1408 82.8782 70.3721C83.5338 70.4637 84.0399 70.2131 84.2906 69.972C84.5461 69.7166 84.5702 69.5093 84.5365 69.4948L84.5268 69.49Z" fill="#6F4439"/>
<path id="Vector_67" d="M83.7256 59.4255L86.4106 61.3826C96.3119 52.4454 110.402 24.3613 108.797 24.9783C108.797 24.9783 101.59 23.3924 94.5139 25.9183C87.4374 28.4394 74.2389 34.5229 75.9598 43.0889C77.6807 51.6549 83.7256 59.4255 83.7256 59.4255Z" fill="#383E41"/>
<path id="Vector_68" d="M106.842 65.798C106.576 65.692 106.292 65.5859 106.017 65.6486C105.762 65.7065 105.559 65.8993 105.4 66.1066C104.639 67.0803 104.542 68.5264 105.164 69.5966C105.786 70.6667 107.092 71.2886 108.317 71.1054C109.541 70.9222 110.891 70.0063 111.296 67.6829C109.903 67.1285 108.235 66.3524 106.842 65.798Z" fill="#6F4439"/>
<path id="Vector_69" d="M108.326 71.192C108.336 71.1052 107.497 71.2932 106.441 70.6859C105.93 70.387 105.395 69.8664 105.145 69.1288C104.889 68.401 104.923 67.4754 105.352 66.6945C105.569 66.3185 105.863 65.9329 106.186 65.9425C106.523 65.9377 106.952 66.1739 107.333 66.3137C108.061 66.6029 108.746 66.8777 109.382 67.1283C110.553 67.5815 111.291 67.8321 111.31 67.7743C111.334 67.7164 110.64 67.3597 109.498 66.8343C108.876 66.5547 108.201 66.251 107.483 65.928C107.092 65.7834 106.75 65.5279 106.171 65.499C105.873 65.499 105.598 65.6677 105.419 65.8557C105.231 66.0437 105.096 66.251 104.961 66.4776C104.465 67.3887 104.446 68.4443 104.759 69.2686C105.072 70.1122 105.709 70.6762 106.292 70.9655C107.507 71.5584 108.365 71.2209 108.331 71.1968L108.326 71.192Z" fill="#383E41"/>
<g id="Group" opacity="0.3">
<path id="Vector_70" d="M99.5818 63.2381C101.634 63.2381 103.298 62.4072 103.298 61.3823C103.298 60.3573 101.634 59.5264 99.5818 59.5264C97.5292 59.5264 95.8652 60.3573 95.8652 61.3823C95.8652 62.4072 97.5292 63.2381 99.5818 63.2381Z" fill="#6F4439"/>
</g>
<g id="Group_2" opacity="0.3">
<path id="Vector_71" d="M125.548 60.0278C125.548 61.0545 124.223 61.8837 122.589 61.8837C120.955 61.8837 119.629 61.0497 119.629 60.0278C119.629 59.0058 120.955 58.1719 122.589 58.1719C124.223 58.1719 125.548 59.0058 125.548 60.0278Z" fill="#6F4439"/>
</g>
<path id="Vector_72" d="M78.1211 69.1433C78.1211 69.1433 77.9909 69.0806 77.7499 68.9409C77.6245 68.8685 77.4799 68.7818 77.3064 68.6805C77.2196 68.6275 77.1232 68.5697 77.0268 68.5118C76.9304 68.4395 76.834 68.3672 76.7279 68.2901C75.8554 67.702 74.7081 66.6559 73.5802 65.1423C72.4425 63.6335 71.4302 61.5896 70.6927 59.2035C70.3504 58.0032 70.0564 56.7257 69.8828 55.376C69.7141 54.0263 69.6418 52.6187 69.6948 51.1822C69.9021 45.4217 71.4881 40.3216 73.3199 37.0292C74.2165 35.371 75.1083 34.1273 75.7831 33.3175C76.1061 32.9029 76.4001 32.6137 76.5785 32.4064C76.7665 32.2039 76.8677 32.0979 76.8725 32.1027C76.8774 32.1075 76.7906 32.2232 76.6171 32.4401C76.4483 32.6619 76.1688 32.9559 75.8602 33.3801C75.2143 34.2044 74.3514 35.4578 73.4789 37.116C71.7002 40.4084 70.1576 45.4699 69.9503 51.1966C69.9021 52.6235 69.9696 54.0166 70.1335 55.3519C70.3022 56.6872 70.5866 57.955 70.9193 59.1456C71.6327 61.5077 72.6209 63.5371 73.7248 65.0459C74.8238 66.5595 75.9374 67.6104 76.7858 68.2178C76.887 68.2997 76.9834 68.3769 77.075 68.4492C77.1714 68.5118 77.263 68.5697 77.3498 68.6275C77.5137 68.7336 77.6535 68.83 77.7788 68.9071C78.0102 69.0614 78.1259 69.1433 78.1259 69.153L78.1211 69.1433Z" fill="#465159"/>
<path id="Vector_73" d="M192.369 98.1552L15.4102 130.474L27.256 195.335L204.215 163.017L192.369 98.1552Z" fill="#465159"/>
<path id="Vector_74" d="M192.367 95.0624L15.4082 127.381L27.2541 192.243L204.213 159.924L192.367 95.0624Z" fill="white"/>
<path id="Vector_75" d="M192.366 95.0683C192.487 95.7142 196.859 119.494 204.292 159.913L204.307 159.995L204.225 160.01C160.59 167.988 97.4221 179.538 27.284 192.36H27.2744L27.149 192.384L27.1249 192.259C22.9938 169.632 18.9976 147.732 15.2858 127.399L15.2617 127.279L15.3822 127.259C117.649 108.657 191.229 95.2708 192.362 95.0635C191.229 95.2708 117.663 108.754 15.4256 127.496L15.522 127.356C19.2386 147.694 23.2396 169.588 27.3708 192.216L27.2262 192.114H27.2358C97.3787 179.321 160.551 167.8 204.191 159.841L204.124 159.942C196.792 119.503 192.482 95.7142 192.362 95.0683H192.366Z" fill="#383E41"/>
<path id="Vector_76" d="M32.832 143.687L47.3128 140.891L48.1371 145.148L43.2395 146.092L48.1708 171.646L43.4853 172.552L38.5539 146.999L33.6563 147.943L32.832 143.682V143.687Z" fill="#383E41"/>
<path id="Vector_77" d="M59.7938 169.409L55.1083 170.315L49.3574 140.506L54.0429 139.599L56.5062 152.374L61.828 151.347L59.3648 138.568L64.137 137.647L69.8879 167.457L65.1156 168.378L62.6523 155.598L57.3305 156.625L59.7938 169.4V169.409Z" fill="#383E41"/>
<path id="Vector_78" d="M88.456 163.875L83.7271 164.786L81.876 159.532L76.1252 160.641L76.3614 166.204L72.0615 167.033L71.0781 136.302L77.9328 134.977L88.456 163.866V163.875ZM75.942 156.486L80.4588 155.613L75.2912 140.973L75.942 156.486Z" fill="#383E41"/>
<path id="Vector_79" d="M90.6339 141.06L94.7988 162.651L90.5809 163.466L84.8301 133.656L90.7062 132.523L98.9637 149.438L95.5219 131.593L99.6965 130.788L105.447 160.597L100.636 161.528L90.6339 141.06Z" fill="#383E41"/>
<path id="Vector_80" d="M112.654 146.884L111.734 149.887L113.503 159.046L108.817 159.952L103.066 130.142L107.752 129.236L110.259 142.227L113.884 128.055L118.569 127.148L114.616 141.692L124.32 156.958L119.509 157.889L112.659 146.884H112.654Z" fill="#383E41"/>
<path id="Vector_81" d="M135.522 144.545L125.756 125.755L130.653 124.81L136.853 137.705L137.807 123.427L142.28 122.564L140.208 143.639L142.117 153.521L137.431 154.427L135.522 144.545Z" fill="#383E41"/>
<path id="Vector_82" d="M144.519 129.559C143.598 124.786 145.584 121.576 150.183 120.689C154.782 119.802 157.823 122.043 158.744 126.811L161.738 142.314C162.658 147.086 160.672 150.296 156.073 151.183C151.475 152.07 148.433 149.829 147.512 145.061L144.519 129.559ZM152.251 144.454C152.661 146.585 153.755 147.211 155.244 146.922C156.734 146.633 157.515 145.645 157.105 143.514L153.996 127.413C153.586 125.283 152.492 124.656 151.002 124.945C149.513 125.235 148.732 126.223 149.142 128.353L152.246 144.454H152.251Z" fill="#383E41"/>
<path id="Vector_83" d="M164.855 118.211L169.295 141.21C169.705 143.34 170.789 143.924 172.279 143.639C173.769 143.35 174.559 142.405 174.149 140.275L169.71 117.276L174.14 116.423L178.522 139.123C179.442 143.89 177.582 147.076 172.983 147.963C168.384 148.85 165.472 146.585 164.552 141.817L160.17 119.118L164.855 118.211Z" fill="#383E41"/>
<path id="Vector_84" d="M182.412 138.896L179.737 128.238L177.336 115.801L182.021 114.895L184.422 127.331L185.907 138.221L182.417 138.896H182.412ZM186.818 140.212L187.69 144.729L183.174 145.601L182.301 141.084L186.818 140.212Z" fill="#383E41"/>
<path id="Vector_85" d="M29.4093 155.739C29.366 155.049 28.8743 154.437 28.2572 154.119C27.6402 153.801 26.9268 153.733 26.2326 153.781C27.0184 153.574 27.4329 152.596 27.1919 151.819C26.9509 151.043 26.2037 150.503 25.4132 150.306C24.6226 150.113 23.7886 150.214 22.9933 150.378C22.1979 150.542 20.6987 150.836 19.8841 150.879L14.8515 152.133C12.6774 153.295 14.22 156.062 15.6854 156.216C15.0587 156.679 14.6201 156.722 14.3309 157.45C14.0464 158.178 14.0561 159.045 14.4851 159.696C14.9141 160.347 15.7963 160.708 16.5242 160.424C15.7481 161.345 15.6372 162.762 16.2542 163.794C16.6254 164.415 17.2473 164.869 17.9366 165.076C18.2837 165.182 18.6404 165.22 19.0019 165.196C19.1321 165.187 19.2863 165.196 19.4068 165.138C19.4647 165.11 19.5129 165.071 19.5563 165.023C19.7587 164.811 19.9226 164.57 20.1395 164.372C20.2215 164.295 20.3083 164.223 20.395 164.155C20.7951 163.842 21.2434 163.596 21.7158 163.403C21.9328 163.316 22.1882 163.268 22.3859 163.148C22.5209 163.066 22.6076 162.931 22.7233 162.829C23.4753 162.184 24.531 161.933 25.4565 161.658C26.5026 161.354 27.592 160.978 28.3006 160.154C29.0044 159.325 29.1201 157.898 28.2524 157.238C28.9417 157.156 29.4431 156.433 29.3997 155.743L29.4093 155.739Z" fill="#AE7461"/>
<path id="Vector_86" d="M19.2912 168.074C19.4792 168.72 19.8359 169.371 20.4529 169.641C21.1808 169.959 22.3329 169.699 23.0704 169.39C22.9499 168.45 22.8294 167.983 22.7089 167.043C22.6848 166.845 22.5835 166.705 22.6462 166.512C22.8005 166.011 23.7983 165.755 24.2177 165.437C24.9456 164.883 24.9986 163.702 24.4346 162.989C23.8658 162.275 22.8294 162.034 21.9521 162.275C21.0699 162.516 20.3517 163.177 19.8696 163.953C19.1176 165.163 18.9055 166.695 19.3008 168.069L19.2912 168.074Z" fill="#AE7461"/>
<path id="Vector_87" d="M16.274 160.491C16.2306 160.322 18.8722 159.46 22.1839 158.558C25.4956 157.657 28.2143 157.069 28.2577 157.237C28.3011 157.406 25.6594 158.269 22.3478 159.17C19.0409 160.067 16.3173 160.66 16.274 160.491Z" fill="#6F4439"/>
<path id="Vector_88" d="M15.5069 156.244C15.4491 156.09 17.787 155.083 20.8335 154.374C23.8801 153.656 26.4205 153.516 26.435 153.68C26.4542 153.858 23.9813 154.278 20.9782 154.986C17.975 155.685 15.5696 156.413 15.5069 156.24V156.244Z" fill="#6F4439"/>
<path id="Vector_89" d="M19.2907 166.662C19.2232 166.69 18.987 166.29 19.0641 165.587C19.1268 164.897 19.6088 163.972 20.4331 163.34C21.2671 162.709 22.0432 162.338 22.7325 162.14C23.4893 161.971 23.875 162.434 23.7834 162.477C23.7304 162.545 23.3833 162.342 22.8578 162.569C22.3517 162.815 21.5419 163.278 20.8284 163.832C20.0957 164.401 19.6667 165.109 19.498 165.678C19.3244 166.242 19.3823 166.637 19.2859 166.662H19.2907Z" fill="#6F4439"/>
<path id="Vector_90" d="M188.814 125.635C188.577 124.984 188.785 124.227 189.223 123.692C189.662 123.152 190.294 122.81 190.944 122.574C190.139 122.699 189.373 121.966 189.286 121.156C189.199 120.347 189.667 119.551 190.318 119.06C190.964 118.568 191.769 118.332 192.564 118.158C193.359 117.989 194.849 117.662 195.615 117.377L200.73 116.524C203.184 116.726 202.875 119.879 201.588 120.602C202.35 120.776 202.769 120.645 203.318 121.195C203.873 121.745 204.205 122.55 204.07 123.316C203.936 124.082 203.27 124.767 202.489 124.796C203.564 125.331 204.234 126.589 204.08 127.78C203.984 128.498 203.598 129.158 203.049 129.626C202.774 129.862 202.456 130.036 202.118 130.161C201.998 130.204 201.858 130.272 201.723 130.272C201.66 130.272 201.598 130.248 201.54 130.224C201.27 130.113 201.024 129.954 200.744 129.857C200.638 129.819 200.532 129.79 200.426 129.761C199.935 129.631 199.424 129.587 198.917 129.597C198.686 129.602 198.431 129.66 198.199 129.631C198.045 129.612 197.91 129.52 197.76 129.472C196.816 129.178 195.746 129.366 194.791 129.486C193.711 129.621 192.559 129.718 191.581 129.236C190.602 128.758 189.932 127.491 190.467 126.541C189.802 126.739 189.055 126.276 188.818 125.625L188.814 125.635Z" fill="#AE7461"/>
<path id="Vector_91" d="M202.999 132.914C203.086 133.579 203.014 134.321 202.56 134.813C202.021 135.396 200.859 135.613 200.063 135.627C199.803 134.716 199.721 134.244 199.461 133.333C199.408 133.14 199.442 132.971 199.311 132.822C198.969 132.422 197.952 132.591 197.441 132.46C196.554 132.244 196.034 131.183 196.27 130.301C196.506 129.419 197.359 128.787 198.265 128.657C199.167 128.527 200.092 128.845 200.844 129.366C202.016 130.176 202.821 131.501 203.009 132.914H202.999Z" fill="#AE7461"/>
<path id="Vector_92" d="M202.754 124.762C202.73 124.588 199.959 124.849 196.565 125.345C193.171 125.837 190.438 126.377 190.467 126.55C190.491 126.724 193.263 126.463 196.657 125.967C200.05 125.475 202.779 124.935 202.754 124.762Z" fill="#6F4439"/>
<path id="Vector_93" d="M201.765 120.559C201.756 120.39 199.21 120.404 196.135 120.964C193.055 121.518 190.669 122.4 190.722 122.559C190.775 122.733 193.209 122.13 196.251 121.585C199.288 121.031 201.78 120.737 201.765 120.559Z" fill="#6F4439"/>
<path id="Vector_94" d="M202.445 131.622C202.522 131.622 202.575 131.159 202.223 130.547C201.891 129.939 201.081 129.284 200.073 129.028C199.056 128.782 198.198 128.749 197.485 128.845C196.723 128.994 196.554 129.573 196.656 129.573C196.728 129.616 196.969 129.288 197.543 129.288C198.102 129.312 199.032 129.419 199.909 129.64C200.806 129.872 201.481 130.349 201.862 130.802C202.247 131.25 202.353 131.636 202.45 131.622H202.445Z" fill="#6F4439"/>
</g>
</g>
</svg>
