<svg width="352" height="138" viewBox="0 0 352 138" fill="none" xmlns="http://www.w3.org/2000/svg">
<mask id="mask0_199_3643" style="mask-type:alpha" maskUnits="userSpaceOnUse" x="0" y="0" width="352" height="138">
<path d="M0 0H352V138H0V0Z" fill="#E8F4FF"/>
</mask>
<g mask="url(#mask0_199_3643)">
<path d="M0 12C0 5.37258 5.37258 0 12 0H340C346.627 0 352 5.37258 352 12V138H0V12Z" fill="#E0F4F9"/>
<path d="M194.631 121.724H161.626C161.161 121.724 160.783 122.102 160.783 122.567V136.333C160.783 136.799 161.161 137.176 161.626 137.176H194.631C195.097 137.176 195.474 136.799 195.474 136.333V122.567C195.474 122.102 195.097 121.724 194.631 121.724Z" fill="#0093C9"/>
<path opacity="0.6" d="M194.631 121.724H161.626C161.161 121.724 160.783 122.102 160.783 122.567V136.333C160.783 136.799 161.161 137.176 161.626 137.176H194.631C195.097 137.176 195.474 136.799 195.474 136.333V122.567C195.474 122.102 195.097 121.724 194.631 121.724Z" fill="white"/>
<path opacity="0.1" d="M194.625 121.724H161.609C161.386 121.724 161.172 121.813 161.013 121.971C160.855 122.129 160.767 122.344 160.767 122.567V126.981L177.947 130.363C178.052 130.385 178.161 130.385 178.266 130.363L195.452 126.981V122.567C195.452 122.346 195.365 122.134 195.211 121.977C195.056 121.819 194.846 121.728 194.625 121.724Z" fill="black"/>
<path d="M195.35 116.073H185.268V114.382C185.267 113.683 184.989 113.013 184.495 112.519C184.001 112.025 183.331 111.747 182.632 111.745H173.626C172.927 111.747 172.257 112.025 171.763 112.519C171.269 113.013 170.991 113.683 170.989 114.382V116.073H160.913C160.692 116.073 160.481 116.16 160.325 116.316C160.169 116.472 160.081 116.684 160.081 116.905V125.23C160.082 125.423 160.149 125.609 160.271 125.757C160.393 125.906 160.563 126.008 160.751 126.046L177.969 129.434C178.075 129.45 178.183 129.45 178.288 129.434L195.507 126.046C195.695 126.008 195.866 125.906 195.988 125.758C196.111 125.609 196.18 125.423 196.182 125.23V116.905C196.182 116.684 196.094 116.472 195.938 116.316C195.782 116.16 195.571 116.073 195.35 116.073ZM172.994 114.382C172.995 114.214 173.062 114.053 173.18 113.934C173.298 113.815 173.458 113.747 173.626 113.744H182.632C182.8 113.747 182.96 113.815 183.078 113.934C183.196 114.053 183.263 114.214 183.264 114.382V116.073H172.999L172.994 114.382Z" fill="#0093C9"/>
<path opacity="0.6" d="M195.35 116.073H185.268V114.382C185.267 113.683 184.989 113.013 184.495 112.519C184.001 112.025 183.331 111.747 182.632 111.745H173.626C172.927 111.747 172.257 112.025 171.763 112.519C171.269 113.013 170.991 113.683 170.989 114.382V116.073H160.913C160.692 116.073 160.481 116.16 160.325 116.316C160.169 116.472 160.081 116.684 160.081 116.905V125.23C160.082 125.423 160.149 125.609 160.271 125.757C160.393 125.906 160.563 126.008 160.751 126.046L177.969 129.434C178.075 129.45 178.183 129.45 178.288 129.434L195.507 126.046C195.695 126.008 195.866 125.906 195.988 125.758C196.111 125.609 196.18 125.423 196.182 125.23V116.905C196.182 116.684 196.094 116.472 195.938 116.316C195.782 116.16 195.571 116.073 195.35 116.073ZM172.994 114.382C172.995 114.214 173.062 114.053 173.18 113.934C173.298 113.815 173.458 113.747 173.626 113.744H182.632C182.8 113.747 182.96 113.815 183.078 113.934C183.196 114.053 183.263 114.214 183.264 114.382V116.073H172.999L172.994 114.382Z" fill="white"/>
<path d="M179.908 127.159H176.353C175.912 127.159 175.554 127.517 175.554 127.959V130.207C175.554 130.648 175.912 131.006 176.353 131.006H179.908C180.35 131.006 180.708 130.648 180.708 130.207V127.959C180.708 127.517 180.35 127.159 179.908 127.159Z" fill="#0093C9"/>
<path opacity="0.3" d="M179.908 127.159H176.353C175.912 127.159 175.554 127.517 175.554 127.959V130.207C175.554 130.648 175.912 131.006 176.353 131.006H179.908C180.35 131.006 180.708 130.648 180.708 130.207V127.959C180.708 127.517 180.35 127.159 179.908 127.159Z" fill="white"/>
<path d="M194.631 22.3365H161.626C161.161 22.3365 160.783 22.7138 160.783 23.1793V36.9454C160.783 37.4108 161.161 37.7882 161.626 37.7882H194.631C195.097 37.7882 195.474 37.4108 195.474 36.9454V23.1793C195.474 22.7138 195.097 22.3365 194.631 22.3365Z" fill="#0093C9"/>
<path opacity="0.6" d="M194.631 22.3365H161.626C161.161 22.3365 160.783 22.7138 160.783 23.1793V36.9454C160.783 37.4108 161.161 37.7882 161.626 37.7882H194.631C195.097 37.7882 195.474 37.4108 195.474 36.9454V23.1793C195.474 22.7138 195.097 22.3365 194.631 22.3365Z" fill="white"/>
<path opacity="0.1" d="M194.625 22.3365H161.609C161.386 22.3365 161.172 22.4253 161.013 22.5833C160.855 22.7414 160.767 22.9558 160.767 23.1793V27.5933L177.947 30.9754C178.052 30.9969 178.161 30.9969 178.266 30.9754L195.452 27.5933V23.1793C195.452 22.9585 195.365 22.7466 195.211 22.589C195.056 22.4314 194.846 22.3407 194.625 22.3365Z" fill="black"/>
<path d="M195.35 16.685H185.268V14.9939C185.267 14.2951 184.989 13.6254 184.495 13.1312C184.001 12.6371 183.331 12.3588 182.632 12.3574H173.626C172.927 12.3588 172.257 12.6371 171.763 13.1312C171.269 13.6254 170.991 14.2951 170.989 14.9939V16.685H160.913C160.692 16.685 160.481 16.7726 160.325 16.9287C160.169 17.0847 160.081 17.2963 160.081 17.517V25.8426C160.081 26.0351 160.148 26.2216 160.27 26.3703C160.392 26.5191 160.562 26.6209 160.751 26.6584L177.969 30.0243C178.075 30.0458 178.183 30.0458 178.288 30.0243L195.507 26.6368C195.693 26.6013 195.862 26.5034 195.986 26.359C196.11 26.2147 196.181 26.0326 196.187 25.8426V17.517C196.187 17.4073 196.166 17.2986 196.123 17.1974C196.081 17.0961 196.02 17.0041 195.942 16.9268C195.864 16.8494 195.772 16.7883 195.67 16.7468C195.568 16.7053 195.46 16.6843 195.35 16.685ZM172.994 14.9939C172.994 14.8258 173.06 14.6644 173.178 14.545C173.297 14.4256 173.457 14.3578 173.626 14.3564H182.632C182.799 14.3578 182.959 14.4249 183.077 14.5431C183.196 14.6614 183.263 14.8213 183.264 14.9885V16.6796H172.999L172.994 14.9939Z" fill="#0093C9"/>
<path opacity="0.6" d="M195.35 16.685H185.268V14.9939C185.267 14.2951 184.989 13.6254 184.495 13.1312C184.001 12.6371 183.331 12.3588 182.632 12.3574H173.626C172.927 12.3588 172.257 12.6371 171.763 13.1312C171.269 13.6254 170.991 14.2951 170.989 14.9939V16.685H160.913C160.692 16.685 160.481 16.7726 160.325 16.9287C160.169 17.0847 160.081 17.2963 160.081 17.517V25.8426C160.081 26.0351 160.148 26.2216 160.27 26.3703C160.392 26.5191 160.562 26.6209 160.751 26.6584L177.969 30.0243C178.075 30.0458 178.183 30.0458 178.288 30.0243L195.507 26.6368C195.693 26.6013 195.862 26.5034 195.986 26.359C196.11 26.2147 196.181 26.0326 196.187 25.8426V17.517C196.187 17.4073 196.166 17.2986 196.123 17.1974C196.081 17.0961 196.02 17.0041 195.942 16.9268C195.864 16.8494 195.772 16.7883 195.67 16.7468C195.568 16.7053 195.46 16.6843 195.35 16.685ZM172.994 14.9939C172.994 14.8258 173.06 14.6644 173.178 14.545C173.297 14.4256 173.457 14.3578 173.626 14.3564H182.632C182.799 14.3578 182.959 14.4249 183.077 14.5431C183.196 14.6614 183.263 14.8213 183.264 14.9885V16.6796H172.999L172.994 14.9939Z" fill="white"/>
<path d="M179.908 27.7764H176.353C175.912 27.7764 175.554 28.1344 175.554 28.576V30.8235C175.554 31.2651 175.912 31.6231 176.353 31.6231H179.908C180.35 31.6231 180.708 31.2651 180.708 30.8235V28.576C180.708 28.1344 180.35 27.7764 179.908 27.7764Z" fill="#0093C9"/>
<path opacity="0.3" d="M179.908 27.7764H176.353C175.912 27.7764 175.554 28.1344 175.554 28.576V30.8235C175.554 31.2651 175.912 31.6231 176.353 31.6231H179.908C180.35 31.6231 180.708 31.2651 180.708 30.8235V28.576C180.708 28.1344 180.35 27.7764 179.908 27.7764Z" fill="white"/>
<path d="M143.219 121.724H110.214C109.748 121.724 109.371 122.102 109.371 122.567V136.333C109.371 136.799 109.748 137.176 110.214 137.176H143.219C143.685 137.176 144.062 136.799 144.062 136.333V122.567C144.062 122.102 143.685 121.724 143.219 121.724Z" fill="#0093C9"/>
<path opacity="0.6" d="M143.219 121.724H110.214C109.748 121.724 109.371 122.102 109.371 122.567V136.333C109.371 136.799 109.748 137.176 110.214 137.176H143.219C143.685 137.176 144.062 136.799 144.062 136.333V122.567C144.062 122.102 143.685 121.724 143.219 121.724Z" fill="white"/>
<path opacity="0.1" d="M143.241 121.724H110.214C109.99 121.724 109.776 121.813 109.618 121.971C109.46 122.129 109.371 122.344 109.371 122.567V126.981L126.552 130.363C126.659 130.385 126.769 130.385 126.876 130.363L144.062 126.981V122.567C144.062 122.347 143.976 122.136 143.823 121.979C143.669 121.821 143.46 121.73 143.241 121.724Z" fill="black"/>
<path d="M143.932 116.073H133.85V114.382C133.849 113.683 133.571 113.013 133.077 112.519C132.583 112.025 131.913 111.747 131.214 111.745H122.213C121.514 111.747 120.844 112.025 120.35 112.519C119.856 113.013 119.578 113.683 119.577 114.382V116.073H109.495C109.274 116.073 109.063 116.16 108.907 116.316C108.751 116.472 108.663 116.684 108.663 116.905V125.23C108.664 125.423 108.731 125.609 108.853 125.757C108.975 125.906 109.145 126.008 109.333 126.046L126.551 129.434C126.659 129.45 126.768 129.45 126.876 129.434L144.094 126.046C144.282 126.008 144.452 125.906 144.574 125.757C144.696 125.609 144.763 125.423 144.764 125.23V116.905C144.764 116.684 144.676 116.472 144.52 116.316C144.364 116.16 144.153 116.073 143.932 116.073ZM121.576 114.382C121.578 114.213 121.646 114.053 121.765 113.934C121.884 113.815 122.045 113.747 122.213 113.744H131.214C131.382 113.747 131.543 113.815 131.662 113.934C131.781 114.053 131.849 114.213 131.851 114.382V116.073H121.586L121.576 114.382Z" fill="#0093C9"/>
<path opacity="0.6" d="M143.932 116.073H133.85V114.382C133.849 113.683 133.571 113.013 133.077 112.519C132.583 112.025 131.913 111.747 131.214 111.745H122.213C121.514 111.747 120.844 112.025 120.35 112.519C119.856 113.013 119.578 113.683 119.577 114.382V116.073H109.495C109.274 116.073 109.063 116.16 108.907 116.316C108.751 116.472 108.663 116.684 108.663 116.905V125.23C108.664 125.423 108.731 125.609 108.853 125.757C108.975 125.906 109.145 126.008 109.333 126.046L126.551 129.434C126.659 129.45 126.768 129.45 126.876 129.434L144.094 126.046C144.282 126.008 144.452 125.906 144.574 125.757C144.696 125.609 144.763 125.423 144.764 125.23V116.905C144.764 116.684 144.676 116.472 144.52 116.316C144.364 116.16 144.153 116.073 143.932 116.073ZM121.576 114.382C121.578 114.213 121.646 114.053 121.765 113.934C121.884 113.815 122.045 113.747 122.213 113.744H131.214C131.382 113.747 131.543 113.815 131.662 113.934C131.781 114.053 131.849 114.213 131.851 114.382V116.073H121.586L121.576 114.382Z" fill="white"/>
<path d="M128.491 127.159H124.936C124.495 127.159 124.137 127.517 124.137 127.959V130.207C124.137 130.648 124.495 131.006 124.936 131.006H128.491C128.933 131.006 129.291 130.648 129.291 130.207V127.959C129.291 127.517 128.933 127.159 128.491 127.159Z" fill="#0093C9"/>
<path opacity="0.3" d="M128.491 127.159H124.936C124.495 127.159 124.137 127.517 124.137 127.959V130.207C124.137 130.648 124.495 131.006 124.936 131.006H128.491C128.933 131.006 129.291 130.648 129.291 130.207V127.959C129.291 127.517 128.933 127.159 128.491 127.159Z" fill="white"/>
<path d="M143.219 22.3365H110.214C109.748 22.3365 109.371 22.7138 109.371 23.1793V36.9454C109.371 37.4108 109.748 37.7882 110.214 37.7882H143.219C143.685 37.7882 144.062 37.4108 144.062 36.9454V23.1793C144.062 22.7138 143.685 22.3365 143.219 22.3365Z" fill="#0093C9"/>
<path opacity="0.6" d="M143.219 22.3365H110.214C109.748 22.3365 109.371 22.7138 109.371 23.1793V36.9454C109.371 37.4108 109.748 37.7882 110.214 37.7882H143.219C143.685 37.7882 144.062 37.4108 144.062 36.9454V23.1793C144.062 22.7138 143.685 22.3365 143.219 22.3365Z" fill="white"/>
<path opacity="0.1" d="M143.241 22.3365H110.214C109.99 22.3365 109.776 22.4253 109.618 22.5833C109.46 22.7414 109.371 22.9558 109.371 23.1793V27.5933L126.552 30.9754C126.659 30.9971 126.769 30.9971 126.876 30.9754L144.062 27.5933V23.1793C144.062 22.9594 143.976 22.7483 143.823 22.5908C143.669 22.4334 143.46 22.3421 143.241 22.3365Z" fill="black"/>
<path d="M143.932 16.685H133.85V14.9939C133.849 14.2951 133.571 13.6254 133.077 13.1312C132.583 12.6371 131.913 12.3588 131.214 12.3574H122.213C121.514 12.3588 120.844 12.6371 120.35 13.1312C119.856 13.6254 119.578 14.2951 119.577 14.9939V16.685H109.495C109.274 16.685 109.063 16.7726 108.907 16.9287C108.751 17.0847 108.663 17.2963 108.663 17.517V25.8426C108.663 26.0351 108.73 26.2216 108.852 26.3703C108.974 26.5191 109.144 26.6209 109.333 26.6584L126.551 30.0243C126.658 30.0459 126.769 30.0459 126.876 30.0243L144.094 26.6368C144.283 26.5993 144.453 26.4975 144.575 26.3487C144.697 26.2 144.764 26.0134 144.764 25.821V17.517C144.764 17.2963 144.676 17.0847 144.52 16.9287C144.364 16.7726 144.153 16.685 143.932 16.685ZM121.576 14.9939C121.577 14.8253 121.645 14.664 121.764 14.5447C121.883 14.4255 122.044 14.3578 122.213 14.3564H131.214C131.382 14.3578 131.542 14.4247 131.661 14.5428C131.78 14.6609 131.849 14.8208 131.851 14.9885V16.6796H121.586L121.576 14.9939Z" fill="#0093C9"/>
<path opacity="0.6" d="M143.932 16.685H133.85V14.9939C133.849 14.2951 133.571 13.6254 133.077 13.1312C132.583 12.6371 131.913 12.3588 131.214 12.3574H122.213C121.514 12.3588 120.844 12.6371 120.35 13.1312C119.856 13.6254 119.578 14.2951 119.577 14.9939V16.685H109.495C109.274 16.685 109.063 16.7726 108.907 16.9287C108.751 17.0847 108.663 17.2963 108.663 17.517V25.8426C108.663 26.0351 108.73 26.2216 108.852 26.3703C108.974 26.5191 109.144 26.6209 109.333 26.6584L126.551 30.0243C126.658 30.0459 126.769 30.0459 126.876 30.0243L144.094 26.6368C144.283 26.5993 144.453 26.4975 144.575 26.3487C144.697 26.2 144.764 26.0134 144.764 25.821V17.517C144.764 17.2963 144.676 17.0847 144.52 16.9287C144.364 16.7726 144.153 16.685 143.932 16.685ZM121.576 14.9939C121.577 14.8253 121.645 14.664 121.764 14.5447C121.883 14.4255 122.044 14.3578 122.213 14.3564H131.214C131.382 14.3578 131.542 14.4247 131.661 14.5428C131.78 14.6609 131.849 14.8208 131.851 14.9885V16.6796H121.586L121.576 14.9939Z" fill="white"/>
<path d="M128.491 27.7764H124.936C124.495 27.7764 124.137 28.1344 124.137 28.576V30.8235C124.137 31.2651 124.495 31.6231 124.936 31.6231H128.491C128.933 31.6231 129.291 31.2651 129.291 30.8235V28.576C129.291 28.1344 128.933 27.7764 128.491 27.7764Z" fill="#0093C9"/>
<path opacity="0.3" d="M128.491 27.7764H124.936C124.495 27.7764 124.137 28.1344 124.137 28.576V30.8235C124.137 31.2651 124.495 31.6231 124.936 31.6231H128.491C128.933 31.6231 129.291 31.2651 129.291 30.8235V28.576C129.291 28.1344 128.933 27.7764 128.491 27.7764Z" fill="white"/>
<path d="M138.918 87.4821H110.213C109.988 87.4821 109.773 87.3927 109.614 87.2337C109.455 87.0746 109.365 86.8588 109.365 86.6339V72.8732C109.366 72.7597 109.39 72.6476 109.435 72.5436C109.457 72.4951 109.483 72.4482 109.511 72.4032C109.541 72.3569 109.578 72.3151 109.619 72.2789C109.777 72.1206 109.99 72.0312 110.213 72.0304H137.384C137.158 73.9159 137.084 75.8166 137.162 77.714C137.162 78.022 137.162 78.3299 137.211 78.6325C137.249 79.1998 137.292 79.7724 137.357 80.3397C137.635 82.7671 138.158 85.1601 138.918 87.4821Z" fill="#0093C9"/>
<path opacity="0.6" d="M138.918 87.4821H110.213C109.988 87.4821 109.773 87.3927 109.614 87.2337C109.455 87.0746 109.365 86.8588 109.365 86.6339V72.8732C109.366 72.7597 109.39 72.6476 109.435 72.5436C109.457 72.4951 109.483 72.4482 109.511 72.4032C109.541 72.3569 109.578 72.3151 109.619 72.2789C109.777 72.1206 109.99 72.0312 110.213 72.0304H137.384C137.158 73.9159 137.084 75.8166 137.162 77.714C137.162 78.022 137.162 78.3299 137.211 78.6325C137.249 79.1998 137.292 79.7724 137.357 80.3397C137.635 82.7671 138.158 85.1601 138.918 87.4821Z" fill="white"/>
<path opacity="0.1" d="M137.384 72.0304C137.158 73.9159 137.084 75.8166 137.163 77.714C137.163 78.022 137.163 78.3299 137.211 78.6325L129.291 80.1884L126.87 80.6639C126.766 80.6909 126.656 80.6909 126.552 80.6639L124.137 80.1938L109.371 77.2872V72.8678C109.373 72.7567 109.395 72.6468 109.436 72.5436C109.458 72.4951 109.483 72.4482 109.512 72.4032C109.542 72.3569 109.578 72.3151 109.62 72.2789C109.777 72.1206 109.991 72.0312 110.214 72.0304H137.384Z" fill="black"/>
<path d="M138.513 66.3789H133.856V64.6878C133.853 63.9885 133.574 63.3187 133.079 62.8248C132.584 62.3308 131.913 62.0527 131.214 62.0513H122.213C121.514 62.0513 120.843 62.3291 120.349 62.8235C119.854 63.318 119.577 63.9886 119.577 64.6878V66.3789H109.495C109.386 66.3789 109.278 66.4004 109.177 66.4422C109.076 66.484 108.984 66.5453 108.907 66.6226C108.83 66.6998 108.768 66.7915 108.726 66.8925C108.685 66.9934 108.663 67.1016 108.663 67.2109V75.531C108.663 75.7249 108.731 75.9128 108.854 76.0626C108.977 76.2123 109.148 76.3147 109.338 76.3523H109.371L124.136 79.2643L126.551 79.7343C126.657 79.7559 126.765 79.7559 126.87 79.7343L129.291 79.2589L137.162 77.7083C137.084 75.8109 137.158 73.9102 137.384 72.0247C137.608 70.1155 137.986 68.2275 138.513 66.3789ZM121.576 64.6878C121.578 64.5201 121.647 64.3602 121.766 64.2421C121.885 64.124 122.045 64.0571 122.213 64.0557H131.214C131.381 64.0571 131.541 64.1242 131.659 64.2424C131.778 64.3606 131.845 64.5206 131.846 64.6878V66.3789H121.581L121.576 64.6878Z" fill="#0093C9"/>
<path opacity="0.6" d="M138.513 66.3789H133.856V64.6878C133.853 63.9885 133.574 63.3187 133.079 62.8248C132.584 62.3308 131.913 62.0527 131.214 62.0513H122.213C121.514 62.0513 120.843 62.3291 120.349 62.8235C119.854 63.318 119.577 63.9886 119.577 64.6878V66.3789H109.495C109.386 66.3789 109.278 66.4004 109.177 66.4422C109.076 66.484 108.984 66.5453 108.907 66.6226C108.83 66.6998 108.768 66.7915 108.726 66.8925C108.685 66.9934 108.663 67.1016 108.663 67.2109V75.531C108.663 75.7249 108.731 75.9128 108.854 76.0626C108.977 76.2123 109.148 76.3147 109.338 76.3523H109.371L124.136 79.2643L126.551 79.7343C126.657 79.7559 126.765 79.7559 126.87 79.7343L129.291 79.2589L137.162 77.7083C137.084 75.8109 137.158 73.9102 137.384 72.0247C137.608 70.1155 137.986 68.2275 138.513 66.3789ZM121.576 64.6878C121.578 64.5201 121.647 64.3602 121.766 64.2421C121.885 64.124 122.045 64.0571 122.213 64.0557H131.214C131.381 64.0571 131.541 64.1242 131.659 64.2424C131.778 64.3606 131.845 64.5206 131.846 64.6878V66.3789H121.581L121.576 64.6878Z" fill="white"/>
<path d="M128.491 77.4655H124.936C124.495 77.4655 124.137 77.8235 124.137 78.2651V80.5126C124.137 80.9542 124.495 81.3122 124.936 81.3122H128.491C128.933 81.3122 129.291 80.9542 129.291 80.5126V78.2651C129.291 77.8235 128.933 77.4655 128.491 77.4655Z" fill="#0093C9"/>
<path opacity="0.3" d="M128.491 77.4655H124.936C124.495 77.4655 124.137 77.8235 124.137 78.2651V80.5126C124.137 80.9542 124.495 81.3122 124.936 81.3122H128.491C128.933 81.3122 129.291 80.9542 129.291 80.5126V78.2651C129.291 77.8235 128.933 77.4655 128.491 77.4655Z" fill="white"/>
<path d="M213.038 137.171H246.043C246.508 137.171 246.886 136.794 246.886 136.328V122.562C246.886 122.097 246.508 121.719 246.043 121.719H213.038C212.572 121.719 212.195 122.097 212.195 122.562V136.328C212.195 136.794 212.572 137.171 213.038 137.171Z" fill="#0093C9"/>
<path opacity="0.6" d="M213.038 137.171H246.043C246.508 137.171 246.886 136.794 246.886 136.328V122.562C246.886 122.097 246.508 121.719 246.043 121.719H213.038C212.572 121.719 212.195 122.097 212.195 122.562V136.328C212.195 136.794 212.572 137.171 213.038 137.171Z" fill="white"/>
<path opacity="0.1" d="M213.043 121.725H246.043C246.266 121.725 246.481 121.813 246.639 121.971C246.797 122.129 246.886 122.344 246.886 122.567V126.981L229.683 130.363C229.578 130.385 229.47 130.385 229.365 130.363L212.179 126.981V122.567C212.179 122.455 212.201 122.343 212.245 122.24C212.289 122.136 212.353 122.042 212.433 121.964C212.514 121.885 212.609 121.823 212.714 121.782C212.819 121.741 212.931 121.722 213.043 121.725Z" fill="black"/>
<path d="M212.324 116.073H222.406V114.382C222.407 113.683 222.685 113.013 223.18 112.519C223.674 112.025 224.343 111.747 225.042 111.745H234.049C234.747 111.747 235.417 112.025 235.911 112.519C236.405 113.013 236.684 113.683 236.685 114.382V116.073H246.761C246.87 116.073 246.979 116.094 247.08 116.136C247.181 116.178 247.272 116.239 247.349 116.316C247.427 116.394 247.488 116.485 247.53 116.586C247.572 116.687 247.593 116.796 247.593 116.905V125.23C247.592 125.423 247.525 125.609 247.403 125.757C247.281 125.906 247.112 126.008 246.923 126.046L229.683 129.434C229.576 129.45 229.466 129.45 229.359 129.434L212.141 126.046C211.952 126.008 211.783 125.906 211.661 125.757C211.539 125.609 211.472 125.423 211.471 125.23V116.905C211.471 116.794 211.493 116.684 211.536 116.581C211.579 116.479 211.642 116.386 211.722 116.309C211.802 116.231 211.896 116.17 211.999 116.13C212.103 116.089 212.213 116.07 212.324 116.073ZM234.681 114.382C234.679 114.214 234.612 114.053 234.494 113.934C234.376 113.815 234.216 113.747 234.049 113.744H225.042C224.874 113.747 224.714 113.815 224.595 113.934C224.476 114.053 224.408 114.213 224.405 114.382V116.073H234.67L234.681 114.382Z" fill="#0093C9"/>
<path opacity="0.6" d="M212.324 116.073H222.406V114.382C222.407 113.683 222.685 113.013 223.18 112.519C223.674 112.025 224.343 111.747 225.042 111.745H234.049C234.747 111.747 235.417 112.025 235.911 112.519C236.405 113.013 236.684 113.683 236.685 114.382V116.073H246.761C246.87 116.073 246.979 116.094 247.08 116.136C247.181 116.178 247.272 116.239 247.349 116.316C247.427 116.394 247.488 116.485 247.53 116.586C247.572 116.687 247.593 116.796 247.593 116.905V125.23C247.592 125.423 247.525 125.609 247.403 125.757C247.281 125.906 247.112 126.008 246.923 126.046L229.683 129.434C229.576 129.45 229.466 129.45 229.359 129.434L212.141 126.046C211.952 126.008 211.783 125.906 211.661 125.757C211.539 125.609 211.472 125.423 211.471 125.23V116.905C211.471 116.794 211.493 116.684 211.536 116.581C211.579 116.479 211.642 116.386 211.722 116.309C211.802 116.231 211.896 116.17 211.999 116.13C212.103 116.089 212.213 116.07 212.324 116.073ZM234.681 114.382C234.679 114.214 234.612 114.053 234.494 113.934C234.376 113.815 234.216 113.747 234.049 113.744H225.042C224.874 113.747 224.714 113.815 224.595 113.934C224.476 114.053 224.408 114.213 224.405 114.382V116.073H234.67L234.681 114.382Z" fill="white"/>
<path d="M227.766 131.006H231.321C231.762 131.006 232.12 130.648 232.12 130.207V127.959C232.12 127.517 231.762 127.159 231.321 127.159H227.766C227.324 127.159 226.966 127.517 226.966 127.959V130.207C226.966 130.648 227.324 131.006 227.766 131.006Z" fill="#0093C9"/>
<path opacity="0.3" d="M227.766 131.006H231.321C231.762 131.006 232.12 130.648 232.12 130.207V127.959C232.12 127.517 231.762 127.159 231.321 127.159H227.766C227.324 127.159 226.966 127.517 226.966 127.959V130.207C226.966 130.648 227.324 131.006 227.766 131.006Z" fill="white"/>
<path d="M213.038 37.7825L246.043 37.7825C246.508 37.7825 246.886 37.4052 246.886 36.9397V23.1736C246.886 22.7081 246.508 22.3308 246.043 22.3308L213.038 22.3308C212.572 22.3308 212.195 22.7081 212.195 23.1736V36.9397C212.195 37.4052 212.572 37.7825 213.038 37.7825Z" fill="#0093C9"/>
<path opacity="0.6" d="M213.038 37.7825L246.043 37.7825C246.508 37.7825 246.886 37.4052 246.886 36.9397V23.1736C246.886 22.7081 246.508 22.3308 246.043 22.3308L213.038 22.3308C212.572 22.3308 212.195 22.7081 212.195 23.1736V36.9397C212.195 37.4052 212.572 37.7825 213.038 37.7825Z" fill="white"/>
<path opacity="0.1" d="M213.043 22.3365H246.043C246.266 22.3365 246.481 22.4253 246.639 22.5833C246.797 22.7414 246.886 22.9558 246.886 23.1793V27.5933L229.683 30.9754C229.578 30.9969 229.47 30.9969 229.365 30.9754L212.2 27.5933V23.1793C212.2 22.9558 212.289 22.7414 212.447 22.5833C212.605 22.4253 212.819 22.3365 213.043 22.3365Z" fill="black"/>
<path d="M212.324 16.685H222.406V14.994C222.407 14.2952 222.685 13.6254 223.18 13.1313C223.674 12.6371 224.343 12.3589 225.042 12.3575H234.049C234.396 12.3553 234.741 12.4219 235.063 12.5534C235.385 12.6849 235.678 12.8786 235.925 13.1236C236.172 13.3686 236.368 13.6599 236.503 13.9809C236.637 14.3018 236.706 14.6461 236.707 14.994V16.685H246.783C247.003 16.685 247.215 16.7727 247.371 16.9287C247.527 17.0848 247.615 17.2964 247.615 17.5171V25.8426C247.615 26.0351 247.548 26.2216 247.426 26.3704C247.304 26.5191 247.134 26.6209 246.945 26.6584L229.683 30.0243C229.576 30.046 229.466 30.046 229.359 30.0243L212.141 26.6368C211.952 26.5993 211.782 26.4975 211.66 26.3488C211.538 26.2 211.471 26.0135 211.471 25.821V17.5171C211.471 17.4059 211.493 17.296 211.536 17.1936C211.579 17.0912 211.642 16.9985 211.722 16.921C211.802 16.8434 211.896 16.7826 211.999 16.7421C212.103 16.7015 212.213 16.6821 212.324 16.685ZM234.681 14.994C234.681 14.8258 234.614 14.6645 234.496 14.5451C234.378 14.4257 234.217 14.3579 234.049 14.3565H225.042C224.875 14.3579 224.714 14.4247 224.595 14.5428C224.476 14.6609 224.408 14.8209 224.405 14.9886V16.6796H234.67L234.681 14.994Z" fill="#0093C9"/>
<path opacity="0.6" d="M212.324 16.685H222.406V14.994C222.407 14.2952 222.685 13.6254 223.18 13.1313C223.674 12.6371 224.343 12.3589 225.042 12.3575H234.049C234.396 12.3553 234.741 12.4219 235.063 12.5534C235.385 12.6849 235.678 12.8786 235.925 13.1236C236.172 13.3686 236.368 13.6599 236.503 13.9809C236.637 14.3018 236.706 14.6461 236.707 14.994V16.685H246.783C247.003 16.685 247.215 16.7727 247.371 16.9287C247.527 17.0848 247.615 17.2964 247.615 17.5171V25.8426C247.615 26.0351 247.548 26.2216 247.426 26.3704C247.304 26.5191 247.134 26.6209 246.945 26.6584L229.683 30.0243C229.576 30.046 229.466 30.046 229.359 30.0243L212.141 26.6368C211.952 26.5993 211.782 26.4975 211.66 26.3488C211.538 26.2 211.471 26.0135 211.471 25.821V17.5171C211.471 17.4059 211.493 17.296 211.536 17.1936C211.579 17.0912 211.642 16.9985 211.722 16.921C211.802 16.8434 211.896 16.7826 211.999 16.7421C212.103 16.7015 212.213 16.6821 212.324 16.685ZM234.681 14.994C234.681 14.8258 234.614 14.6645 234.496 14.5451C234.378 14.4257 234.217 14.3579 234.049 14.3565H225.042C224.875 14.3579 224.714 14.4247 224.595 14.5428C224.476 14.6609 224.408 14.8209 224.405 14.9886V16.6796H234.67L234.681 14.994Z" fill="white"/>
<path d="M227.766 31.6184H231.321C231.762 31.6184 232.12 31.2604 232.12 30.8188V28.5713C232.12 28.1297 231.762 27.7717 231.321 27.7717H227.766C227.324 27.7717 226.966 28.1297 226.966 28.5713V30.8188C226.966 31.2604 227.324 31.6184 227.766 31.6184Z" fill="#0093C9"/>
<path opacity="0.3" d="M227.766 31.6184H231.321C231.762 31.6184 232.12 31.2604 232.12 30.8188V28.5713C232.12 28.1297 231.762 27.7717 231.321 27.7717H227.766C227.324 27.7717 226.966 28.1297 226.966 28.5713V30.8188C226.966 31.2604 227.324 31.6184 227.766 31.6184Z" fill="white"/>
<path d="M217.36 87.4821H246.049C246.273 87.4807 246.487 87.3907 246.645 87.2318C246.803 87.0728 246.892 86.8579 246.892 86.6339V72.8732C246.891 72.7597 246.867 72.6476 246.821 72.5436C246.801 72.4941 246.776 72.447 246.746 72.4032C246.716 72.3569 246.679 72.3151 246.638 72.2789C246.56 72.2 246.468 72.1375 246.365 72.0948C246.263 72.0521 246.154 72.0302 246.043 72.0304H218.879C219.105 73.9159 219.179 75.8166 219.1 77.714C219.1 78.022 219.1 78.3299 219.051 78.6325C219.019 79.1998 218.97 79.7724 218.906 80.3397C218.633 82.7665 218.115 85.1595 217.36 87.4821Z" fill="#0093C9"/>
<path opacity="0.6" d="M217.36 87.4821H246.049C246.273 87.4807 246.487 87.3907 246.645 87.2318C246.803 87.0728 246.892 86.8579 246.892 86.6339V72.8732C246.891 72.7597 246.867 72.6476 246.821 72.5436C246.801 72.4941 246.776 72.447 246.746 72.4032C246.716 72.3569 246.679 72.3151 246.638 72.2789C246.56 72.2 246.468 72.1375 246.365 72.0948C246.263 72.0521 246.154 72.0302 246.043 72.0304H218.879C219.105 73.9159 219.179 75.8166 219.1 77.714C219.1 78.022 219.1 78.3299 219.051 78.6325C219.019 79.1998 218.97 79.7724 218.906 80.3397C218.633 82.7665 218.115 85.1595 217.36 87.4821Z" fill="white"/>
<path opacity="0.1" d="M218.878 72.0304C219.104 73.9159 219.178 75.8166 219.099 77.714C219.099 78.022 219.099 78.3299 219.051 78.6325L226.982 80.1885L229.402 80.6639C229.507 80.6909 229.617 80.6909 229.721 80.6639L232.136 80.1939L246.902 77.2872V72.8678C246.9 72.7567 246.878 72.6468 246.837 72.5436C246.817 72.4941 246.792 72.447 246.761 72.4032C246.731 72.3569 246.695 72.3151 246.653 72.2789C246.576 72.2 246.483 72.1375 246.381 72.0948C246.279 72.0521 246.17 72.0302 246.059 72.0304H218.878Z" fill="black"/>
<path d="M217.743 66.3789H222.406V64.6878C222.407 63.989 222.685 63.3192 223.18 62.8251C223.674 62.331 224.344 62.0527 225.042 62.0513H234.043C234.743 62.0513 235.414 62.3289 235.909 62.8232C236.405 63.3175 236.684 63.9881 236.685 64.6878V66.3789H246.761C246.982 66.3789 247.194 66.4665 247.35 66.6226C247.506 66.7786 247.593 66.9902 247.593 67.2109V75.531C247.593 75.7242 247.527 75.9114 247.405 76.0611C247.283 76.2108 247.113 76.3136 246.923 76.3523H246.885L232.12 79.2643L229.683 79.7289C229.578 79.7505 229.47 79.7505 229.365 79.7289L226.944 79.2535L219.072 77.7029C219.226 73.8734 218.77 70.0438 217.722 66.3573L217.743 66.3789ZM234.681 64.6878C234.678 64.5201 234.61 64.3602 234.491 64.2421C234.372 64.124 234.211 64.0571 234.043 64.0557H225.042C224.875 64.0571 224.715 64.1242 224.597 64.2424C224.479 64.3606 224.412 64.5206 224.41 64.6878V66.3789H234.675L234.681 64.6878Z" fill="#0093C9"/>
<path opacity="0.6" d="M217.743 66.3789H222.406V64.6878C222.407 63.989 222.685 63.3192 223.18 62.8251C223.674 62.331 224.344 62.0527 225.042 62.0513H234.043C234.743 62.0513 235.414 62.3289 235.909 62.8232C236.405 63.3175 236.684 63.9881 236.685 64.6878V66.3789H246.761C246.982 66.3789 247.194 66.4665 247.35 66.6226C247.506 66.7786 247.593 66.9902 247.593 67.2109V75.531C247.593 75.7242 247.527 75.9114 247.405 76.0611C247.283 76.2108 247.113 76.3136 246.923 76.3523H246.885L232.12 79.2643L229.683 79.7289C229.578 79.7505 229.47 79.7505 229.365 79.7289L226.944 79.2535L219.072 77.7029C219.226 73.8734 218.77 70.0438 217.722 66.3573L217.743 66.3789ZM234.681 64.6878C234.678 64.5201 234.61 64.3602 234.491 64.2421C234.372 64.124 234.211 64.0571 234.043 64.0557H225.042C224.875 64.0571 224.715 64.1242 224.597 64.2424C224.479 64.3606 224.412 64.5206 224.41 64.6878V66.3789H234.675L234.681 64.6878Z" fill="white"/>
<path d="M227.766 81.3179H231.321C231.762 81.3179 232.12 80.9599 232.12 80.5183V78.2707C232.12 77.8291 231.762 77.4711 231.321 77.4711H227.766C227.324 77.4711 226.966 77.8291 226.966 78.2707V80.5183C226.966 80.9599 227.324 81.3179 227.766 81.3179Z" fill="#0093C9"/>
<path opacity="0.3" d="M227.766 81.3179H231.321C231.762 81.3179 232.12 80.9599 232.12 80.5183V78.2707C232.12 77.8291 231.762 77.4711 231.321 77.4711H227.766C227.324 77.4711 226.966 77.8291 226.966 78.2707V80.5183C226.966 80.9599 227.324 81.3179 227.766 81.3179Z" fill="white"/>
<path d="M203.588 68.6754H156.163C155.495 68.6754 154.953 69.2172 154.953 69.8856V89.6649C154.953 90.3332 155.495 90.8751 156.163 90.8751H203.588C204.257 90.8751 204.798 90.3332 204.798 89.6649V69.8856C204.798 69.2172 204.257 68.6754 203.588 68.6754Z" fill="#0093C9"/>
<path d="M186.343 65.1418H173.404C172.423 65.1404 171.482 64.75 170.789 64.0563C170.095 63.3625 169.705 62.422 169.703 61.4409V58.1183C169.705 57.1372 170.095 56.1967 170.789 55.503C171.482 54.8092 172.423 54.4188 173.404 54.4174H186.343C187.325 54.4174 188.266 54.8073 188.96 55.5014C189.654 56.1954 190.044 57.1367 190.044 58.1183V61.4247C190.046 61.9121 189.952 62.3951 189.767 62.846C189.582 63.2968 189.31 63.7067 188.966 64.0521C188.622 64.3975 188.214 64.6715 187.763 64.8585C187.313 65.0455 186.831 65.1418 186.343 65.1418ZM173.404 57.135C173.144 57.1378 172.894 57.2421 172.71 57.4257C172.525 57.6094 172.419 57.8579 172.415 58.1183V61.4247C172.415 61.6898 172.521 61.944 172.708 62.1315C172.895 62.3189 173.15 62.4242 173.415 62.4242H186.354C186.619 62.4242 186.874 62.3189 187.061 62.1315C187.248 61.944 187.354 61.6898 187.354 61.4247V58.1183C187.354 57.8532 187.248 57.599 187.061 57.4115C186.874 57.2241 186.619 57.1188 186.354 57.1188L173.404 57.135Z" fill="#0093C9"/>
<path opacity="0.2" d="M203.583 68.6754H156.169C156.009 68.6747 155.851 68.7054 155.704 68.7659C155.556 68.8264 155.422 68.9155 155.309 69.0279C155.197 69.1404 155.107 69.274 155.046 69.4212C154.985 69.5684 154.953 69.7262 154.953 69.8856V76.2338L179.643 81.0962C179.795 81.1291 179.951 81.1291 180.103 81.0962L204.798 76.2338V69.8856C204.798 69.7262 204.767 69.5684 204.706 69.4212C204.645 69.274 204.555 69.1404 204.442 69.0279C204.329 68.9155 204.195 68.8264 204.048 68.7659C203.9 68.7054 203.742 68.6747 203.583 68.6754Z" fill="black"/>
<path d="M204.832 74.8664L180.093 79.7288C179.939 79.7559 179.782 79.7559 179.628 79.7288L154.889 74.8664C154.617 74.8127 154.372 74.6666 154.196 74.4529C154.02 74.2392 153.923 73.971 153.922 73.694V61.754C153.922 61.5972 153.953 61.442 154.013 61.2971C154.073 61.1522 154.161 61.0206 154.272 60.9097C154.382 60.7989 154.514 60.7109 154.659 60.6509C154.804 60.5909 154.959 60.56 155.116 60.56H204.615C204.772 60.56 204.928 60.5909 205.072 60.6509C205.217 60.7109 205.349 60.7989 205.46 60.9097C205.571 61.0206 205.659 61.1522 205.719 61.2971C205.779 61.442 205.809 61.5972 205.809 61.754V73.7156C205.804 73.9907 205.704 74.2555 205.526 74.4652C205.347 74.6749 205.102 74.8166 204.832 74.8664Z" fill="#0093C9"/>
<path d="M182.437 76.4931H177.32C176.688 76.4931 176.175 77.0059 176.175 77.6385V80.8747C176.175 81.5072 176.688 82.02 177.32 82.02H182.437C183.069 82.02 183.582 81.5072 183.582 80.8747V77.6385C183.582 77.0059 183.069 76.4931 182.437 76.4931Z" fill="#0093C9"/>
<path opacity="0.4" d="M182.437 76.4931H177.32C176.688 76.4931 176.175 77.0059 176.175 77.6385V80.8747C176.175 81.5072 176.688 82.02 177.32 82.02H182.437C183.069 82.02 183.582 81.5072 183.582 80.8747V77.6385C183.582 77.0059 183.069 76.4931 182.437 76.4931Z" fill="black"/>
<path d="M160.615 114.083C154.775 111.289 149.678 107.156 145.738 102.019C141.798 96.8828 139.127 90.8883 137.943 84.524C136.758 78.1597 137.094 71.6057 138.922 65.3956C140.751 59.1856 144.02 53.4953 148.464 48.788C152.908 44.0808 158.401 40.4897 164.495 38.3074C170.59 36.125 177.114 35.4131 183.536 36.2296C189.957 37.0461 196.096 39.3679 201.45 43.0059C206.805 46.6438 211.224 51.4952 214.349 57.1647C218.557 64.7891 220.234 73.5532 219.139 82.1926C218.043 90.8319 214.231 98.8999 208.253 105.232C202.274 111.565 194.439 115.834 185.877 117.425C177.315 119.016 168.469 117.845 160.615 114.083ZM194.883 42.4106C186.635 38.4734 177.252 37.6124 168.425 39.9829C159.598 42.3534 151.909 47.7994 146.743 55.3389C141.577 62.8784 139.275 72.0155 140.251 81.1027C141.227 90.19 145.418 98.6295 152.068 104.9C158.717 111.17 167.388 114.858 176.517 115.3C185.646 115.741 194.632 112.906 201.855 107.307C209.079 101.708 214.064 93.712 215.913 84.7614C217.761 75.8107 216.351 66.4942 211.937 58.4914C208.071 51.4818 202.108 45.8585 194.883 42.4106Z" fill="#343C41"/>
<path d="M161.604 112.008C155.761 109.216 150.66 105.083 146.716 99.9461C142.773 94.8089 140.099 88.8128 138.913 82.4463C137.726 76.0798 138.061 69.523 139.888 63.3103C141.716 57.0975 144.986 51.4044 149.432 46.695C153.877 41.9855 159.372 38.3929 165.469 36.2099C171.566 34.0268 178.093 33.3151 184.517 34.1326C190.942 34.9502 197.082 37.2739 202.438 40.9145C207.794 44.5551 212.214 49.4095 215.338 55.0822C219.543 62.7071 221.218 71.4705 220.122 80.1088C219.025 88.7471 215.213 96.8139 209.236 103.146C203.259 109.478 195.425 113.749 186.865 115.341C178.304 116.934 169.459 115.767 161.604 112.008ZM195.872 40.3361C187.624 36.399 178.241 35.538 169.414 37.9085C160.587 40.279 152.898 45.7249 147.732 53.2645C142.566 60.804 140.264 69.9411 141.24 79.0283C142.216 88.1155 146.407 96.555 153.057 102.825C159.706 109.095 168.377 112.784 177.506 113.225C186.635 113.667 195.621 110.832 202.844 105.233C210.068 99.6334 215.053 91.6376 216.902 82.6869C218.75 73.7363 217.34 64.4197 212.926 56.4169C209.06 49.4073 203.097 43.784 195.872 40.3361Z" fill="#889AA7"/>
<path d="M148.643 65.1649C148.681 64.7357 148.756 64.3106 148.868 63.8945C148.963 63.3993 149.089 62.9105 149.246 62.4312C149.428 61.7855 149.642 61.1494 149.889 60.5256L150.299 59.4401C150.452 59.0622 150.653 58.6924 150.838 58.2904C151.199 57.4863 151.69 56.6823 152.18 55.838C153.321 54.0272 154.641 52.3356 156.12 50.7887C157.627 49.2721 159.28 47.9093 161.057 46.7202C161.837 46.2111 162.642 45.7415 163.469 45.3132C163.855 45.1121 164.225 44.9031 164.595 44.7342L165.672 44.2759C166.286 44.0119 166.914 43.7811 167.554 43.5845C168.029 43.4133 168.515 43.2736 169.009 43.1664C169.423 43.0489 169.845 42.9602 170.271 42.901C169.875 43.0684 169.466 43.2055 169.049 43.3111C168.566 43.4443 168.091 43.6054 167.626 43.7935C167 44.0074 166.385 44.2543 165.785 44.5332L164.731 45.0076C164.362 45.1765 164 45.3936 163.622 45.5946C162.818 45.9885 162.078 46.5031 161.25 47.0177C159.516 48.1994 157.901 49.5457 156.426 51.0379C154.966 52.5633 153.655 54.2245 152.51 55.9988C152.02 56.8029 151.521 57.6069 151.151 58.411C150.966 58.7969 150.757 59.1587 150.596 59.5286L150.146 60.598C149.841 61.2653 149.656 61.9085 149.455 62.4633C149.282 62.9342 149.137 63.4148 149.02 63.9026C148.928 64.3328 148.802 64.7549 148.643 65.1649Z" fill="white"/>
<path d="M91.9222 61.9884L91.874 83.7532L101.216 84.1984L101.489 78.9036C101.489 78.9036 104.806 79.5615 105.66 76.4969C106.21 74.5274 106.062 59.313 106.062 59.313L91.9222 61.9884Z" fill="#B78876"/>
<path d="M107.281 60.8405C105.809 61.2617 105.488 63.6484 105.488 63.6484L103.181 68.7466C102.006 67.828 100.426 67.8802 100.129 69.95C99.9123 71.4421 101.769 71.743 101.769 71.743C100.686 73.5841 99.9564 75.0723 98.38 76.8211C96.6873 78.7265 95.7246 78.915 93.8794 78.939H91.8417C91.8417 78.939 90.843 75.702 88.9978 67.6114C86.9521 58.6344 97.5657 59.7896 99.5352 57.4992C102.74 53.7728 111.93 59.5128 107.281 60.8405Z" fill="#343C41"/>
<path d="M109.873 58.8836C109.791 58.4049 109.542 57.9708 109.169 57.6598C108.796 57.3487 108.324 57.181 107.839 57.1869C107.991 56.931 108.047 56.6299 107.999 56.3364C107.95 56.0429 107.8 55.7759 107.574 55.5824C107.34 55.3982 107.068 55.2669 106.778 55.1977C106.488 55.1284 106.186 55.1228 105.893 55.1813C105.308 55.2997 104.744 55.5023 104.217 55.7829C104.02 55.2012 103.64 54.6988 103.134 54.3509C102.589 54.0317 101.963 53.8771 101.333 53.9057C98.4647 53.9057 96.9565 55.8672 95.4162 57.8688C95.1915 58.2417 94.8699 58.5467 94.4856 58.7512C94.206 58.8334 93.9141 58.866 93.6232 58.8475C92.5274 58.8822 91.4602 59.2053 90.5292 59.7842C89.5981 60.3631 88.8363 61.1773 88.3204 62.1447C87.3176 64.0821 86.5675 68.5626 89.1668 71.3704L90.7311 74.8642L105.705 62.9991C105.813 63.0552 106.752 63.5125 107.474 63.1355C109.267 62.1888 108.513 60.6164 108.513 60.6164C108.657 60.5162 110.025 59.8463 109.873 58.8836Z" fill="#343C41"/>
<path d="M96.0138 70.5602C96.1389 71.1063 96.1209 71.6755 95.9617 72.2128C95.8774 72.7673 95.6492 73.2901 95.2998 73.729C95.2357 73.6969 95.5365 73.031 95.729 72.1606C95.9216 71.2902 95.9456 70.5602 96.0138 70.5602Z" fill="#889AA7"/>
<path d="M97.1441 69.4895C97.2225 70.0248 97.1925 70.5704 97.0559 71.0939C96.9962 71.6276 96.8283 72.1436 96.5625 72.6102C96.6019 72.0832 96.6892 71.561 96.8232 71.0498C96.8807 70.5207 96.9881 69.9983 97.1441 69.4895Z" fill="#889AA7"/>
<path d="M100.378 65.895C100.402 65.9271 100.137 66.1196 99.8005 66.5127C99.371 67.0334 99.0308 67.6217 98.7936 68.2536C98.5635 68.8926 98.3772 69.5466 98.2361 70.211C98.1965 70.488 98.1182 70.7581 98.0034 71.0133C97.9865 70.7267 98.0095 70.4392 98.0716 70.1589C98.1667 69.4744 98.3348 68.802 98.573 68.1533C98.8172 67.4953 99.194 66.8945 99.6801 66.3884C99.8703 66.1709 100.11 66.0017 100.378 65.895Z" fill="#889AA7"/>
<path d="M101.685 63.4525C101.713 63.4525 101.809 63.6611 101.87 64.0381C101.937 64.535 101.909 65.0402 101.785 65.5263C101.668 66.0132 101.454 66.4716 101.156 66.874C100.927 67.1829 100.754 67.3313 100.718 67.3113C100.682 67.2912 101.292 66.5612 101.557 65.4701C101.821 64.3791 101.613 63.4605 101.685 63.4525Z" fill="#889AA7"/>
<path d="M90.5388 68.8879C90.5066 68.9481 90.2217 68.8478 89.9007 68.6672C89.5796 68.4866 89.3429 68.298 89.375 68.2378C89.4071 68.1776 89.692 68.2819 90.0131 68.4625C90.3341 68.6431 90.5709 68.8317 90.5388 68.8879Z" fill="#889AA7"/>
<path d="M95.0513 66.5654C95.0879 66.9033 94.9931 67.2424 94.7865 67.5124C94.4976 67.99 94.1083 68.2388 94.0682 68.1906C94.028 68.1425 94.321 67.8294 94.5818 67.388C94.8427 66.9466 94.9831 66.5493 95.0513 66.5654Z" fill="#889AA7"/>
<path d="M96.4383 65.8183C96.4334 66.2293 96.2924 66.6272 96.0372 66.9494C95.6641 67.519 95.1948 67.8239 95.1587 67.7517C95.1226 67.6795 95.4916 67.3505 95.8406 66.801C96.0206 66.4621 96.2202 66.134 96.4383 65.8183Z" fill="#889AA7"/>
<path d="M103.338 56.6974C103.338 56.6974 103.161 56.5651 102.824 56.3725C102.342 56.1168 101.806 55.9793 101.26 55.9714C100.451 55.95 99.6525 56.1631 98.9616 56.5851C98.1317 57.1302 97.4584 57.8823 97.0081 58.7672C96.6633 59.4148 96.3942 60.0999 96.2059 60.8089L96.1658 60.9453L96.0414 60.8771C95.3981 60.5405 94.6855 60.3579 93.9596 60.3436C93.3834 60.3305 92.8094 60.4173 92.2629 60.6003C91.7765 60.7807 91.3112 61.0134 90.875 61.2943C90.9649 61.187 91.0704 61.0937 91.1879 61.0175C91.5032 60.7878 91.8487 60.6029 92.2147 60.468C92.7719 60.2558 93.3634 60.1484 93.9596 60.1511C94.7211 60.1492 95.472 60.3293 96.1497 60.6765L95.9853 60.7487C96.1706 60.0221 96.4398 59.3194 96.7875 58.6549C97.257 57.7338 97.9648 56.9554 98.8372 56.4006C99.5629 55.9683 100.4 55.7603 101.244 55.8029C101.812 55.8273 102.365 55.9972 102.848 56.2963C102.977 56.378 103.097 56.4735 103.205 56.5811C103.306 56.6533 103.342 56.6934 103.338 56.6974Z" fill="#889AA7"/>
<path d="M108.251 57.8841C108.231 57.8841 108.508 57.8119 108.785 58.1247C108.865 58.2181 108.925 58.3266 108.962 58.4437C109 58.5609 109.013 58.6843 109.002 58.8067C108.977 58.9698 108.915 59.125 108.821 59.2601C108.726 59.3952 108.601 59.5063 108.456 59.5848C108.112 59.7802 107.705 59.8362 107.321 59.7413C106.898 59.63 106.501 59.4364 106.154 59.1717C105.788 58.8804 105.405 58.6124 105.006 58.3694C104.575 58.136 104.109 57.9722 103.627 57.8841C102.689 57.7153 101.724 57.7814 100.819 58.0766C100.075 58.3217 99.373 58.6788 98.7369 59.1356C97.6459 59.9178 97.1084 60.5756 97.0723 60.5395C97.1802 60.3731 97.3052 60.2185 97.4453 60.0782C97.8126 59.6825 98.2154 59.3213 98.6487 58.9992C99.2882 58.5114 100.002 58.1294 100.763 57.868C101.704 57.5487 102.712 57.4742 103.691 57.6514C104.198 57.7447 104.686 57.918 105.139 58.1649C105.542 58.4069 105.929 58.6749 106.298 58.9671C106.621 59.2209 106.99 59.4089 107.385 59.5206C107.724 59.6137 108.085 59.575 108.396 59.4123C108.522 59.3481 108.631 59.2564 108.717 59.1438C108.802 59.0313 108.861 58.901 108.889 58.7625C108.918 58.548 108.862 58.3306 108.733 58.1568C108.61 58.0117 108.439 57.915 108.251 57.8841Z" fill="#889AA7"/>
<path d="M151.773 74.591C151.42 74.2782 146.663 76.2717 146.663 76.2717C146.663 76.2717 143.113 79.0796 141.653 80.7041L140.75 81.4542L127.249 91.9515L110.642 85.0442L107.032 94.306C107.032 94.306 125.676 101.731 128.516 100.459C131.601 99.0794 143.093 87.0498 143.121 87.0097L144.782 85.4052C144.782 85.4052 145.66 85.4052 146.326 85.349C146.992 85.2929 148.941 84.0133 148.941 84.0133C149.126 83.6573 149.253 83.2741 149.318 82.8782C149.359 82.7205 149.346 82.5536 149.28 82.4045C149.215 82.2554 149.101 82.1326 148.957 82.0559C149.025 81.7476 149.036 81.4295 148.989 81.1172C148.913 80.5878 148.187 79.9741 148.187 79.9741C148.413 79.7435 148.568 79.4523 148.632 79.1357C148.793 78.522 148.003 77.9324 148.003 77.9324C148.003 77.9324 150.766 76.0551 151.436 75.7222C152.106 75.3893 152.126 74.9039 151.773 74.591Z" fill="#B78876"/>
<path d="M113.085 169.469C113.141 168.859 113.17 168.39 113.17 168.097L115.047 138.162C115.047 138.162 113.47 129.417 112.724 127.099L106.022 124.504L97.0887 127.981C97.0325 127.263 96.9964 126.818 96.9964 126.818L83.8517 131.367C83.8517 131.367 83.5108 140.34 83.8517 143.071C83.964 143.95 84.305 146.216 84.7222 148.888C84.7222 148.888 85.1473 154.692 85.2356 155.017C85.5525 156.2 85.6367 159.1 85.6367 162.004C85.6367 165.695 85.8373 170.087 86.0699 172.173C86.3026 174.258 86.4109 197.219 86.4109 197.219H96.118L97.3654 160.653C97.574 156.734 97.8869 150.741 98.0875 146.405L100.366 159.906C100.366 160.4 101.754 168.121 101.754 168.121C101.433 170.551 101.235 172.996 101.16 175.446C101 182.265 100.201 197.219 100.201 197.219H109.7C109.7 197.219 112.556 175.606 113.109 169.469H113.085Z" fill="#343C41"/>
<path d="M114.738 136.367C114.426 136.25 114.131 136.092 113.859 135.898C113.186 135.466 112.557 134.967 111.982 134.41C111.408 133.854 110.889 133.242 110.434 132.585C110.229 132.323 110.063 132.032 109.94 131.722C110.16 131.967 110.364 132.225 110.55 132.497C111.034 133.122 111.561 133.713 112.127 134.265C112.693 134.812 113.297 135.317 113.936 135.778C114.217 135.955 114.485 136.152 114.738 136.367Z" fill="#889AA7"/>
<path d="M97.778 141.807C97.7018 141.718 97.6396 141.618 97.5934 141.51C97.4443 141.229 97.3104 140.94 97.1923 140.644C96.786 139.67 96.4887 138.654 96.3058 137.615C96.1274 136.576 96.0628 135.52 96.1133 134.467C96.1374 134.065 96.1695 133.741 96.2056 133.516C96.2126 133.398 96.2383 133.281 96.2818 133.171C96.3139 133.171 96.2818 133.672 96.2617 134.471C96.2497 135.512 96.3329 136.553 96.5104 137.579C96.6876 138.605 96.9561 139.613 97.3127 140.592C97.5975 141.342 97.806 141.791 97.778 141.807Z" fill="#889AA7"/>
<path d="M76.2828 103.147C76.2828 103.147 75.0032 112.169 74.7625 115.329C74.6181 117.235 76.5515 119.742 78.0276 119.946C79.5038 120.151 84.4776 120.428 84.4776 120.428L84.8788 114.768L84.7504 113.641L83.2061 113.352L83.6714 104.375L76.2828 103.147Z" fill="#B78876"/>
<path d="M83.4786 104.68C83.5184 104.84 83.5386 105.004 83.5388 105.169C83.5628 105.486 83.5789 105.943 83.5909 106.513C83.619 107.644 83.5909 109.212 83.4946 110.925C83.3984 112.638 83.258 114.214 83.1497 115.337C83.0895 115.899 83.0414 116.356 83.0013 116.669C82.9922 116.834 82.964 116.997 82.917 117.154C82.8988 116.99 82.8988 116.825 82.917 116.661C82.9371 116.3 82.9652 115.859 82.9973 115.321C83.0735 114.146 83.1697 112.61 83.278 110.909C83.3863 109.208 83.4265 107.628 83.4385 106.497C83.4385 105.967 83.4385 105.518 83.4385 105.157C83.4351 104.997 83.4486 104.837 83.4786 104.68Z" fill="#AA6550"/>
<g opacity="0.3">
<path d="M83.9678 131.531C86.4949 132.469 89.2626 132.545 91.9461 132.313C94.6296 132.08 97.285 131.539 99.9685 131.286C104.035 130.906 108.137 131.177 112.118 132.088C112.396 132.173 112.688 132.2 112.977 132.168C113.12 132.15 113.255 132.089 113.363 131.993C113.471 131.897 113.547 131.771 113.582 131.631C113.655 131.182 113.161 130.869 112.744 130.696C108.153 128.798 103.217 127.874 98.2504 127.985C93.2835 128.095 88.3937 129.237 83.8916 131.338" fill="black"/>
</g>
<path d="M122.66 89.1447L108.412 82.053C106.165 81.7894 103.902 81.6902 101.641 81.7561H92.2108C92.2108 81.7561 80.7869 85.1255 78.8977 88.2342L74 102.915L83.683 104.375L84.8864 114.925C84.8864 114.925 83.683 127.139 83.683 128.912C83.6568 129.733 83.7065 130.555 83.8314 131.367C83.8314 131.367 103.206 128.422 107.975 129.975C112.744 131.527 114.032 131.367 114.032 131.367C114.032 131.367 113.631 126.296 113.282 123.344L112.183 108.623L111.38 97.3918L120.345 100.135L122.66 89.1447Z" fill="#F57621"/>
<path d="M83.5945 104.491C83.5584 104.491 83.4621 103.886 83.2495 102.907C82.9664 101.634 82.591 100.383 82.1264 99.1644C81.652 97.9366 81.0972 96.7413 80.4658 95.5864L79.8801 94.5355C79.7972 94.411 79.7311 94.2762 79.6836 94.1344C79.7883 94.2421 79.8799 94.362 79.9564 94.4914C80.1208 94.728 80.3575 95.077 80.6022 95.5182C81.2794 96.6586 81.859 97.8542 82.335 99.0922C82.8042 100.32 83.1614 101.587 83.402 102.879C83.4902 103.372 83.5464 103.773 83.5745 104.054C83.5992 104.198 83.6059 104.345 83.5945 104.491Z" fill="#343C41"/>
<path d="M101.866 108.659C101.858 108.727 101.84 108.793 101.813 108.855L101.633 109.397C101.553 109.634 101.452 109.918 101.32 110.247C101.188 110.576 101.047 110.953 100.863 111.354C100.514 112.157 100.061 113.127 99.4909 114.162C98.9214 115.197 98.2475 116.296 97.4853 117.411C96.7232 118.526 95.8809 119.533 95.1228 120.424C94.3646 121.314 93.6065 122.064 92.9567 122.674C92.6398 122.987 92.331 123.248 92.0702 123.476C91.8095 123.705 91.5729 123.909 91.3803 124.066L90.9311 124.419C90.8805 124.463 90.8254 124.502 90.7666 124.535C90.7666 124.535 90.8107 124.479 90.907 124.387L91.3282 123.986C91.5127 123.825 91.7293 123.621 91.994 123.376C92.2588 123.131 92.5476 122.866 92.8564 122.55C93.4902 121.932 94.2122 121.162 94.9784 120.279C95.7445 119.397 96.5387 118.378 97.3169 117.275C98.0951 116.172 98.7609 115.069 99.3225 114.066C99.884 113.063 100.361 112.1 100.726 111.294C100.919 110.893 101.067 110.52 101.208 110.199C101.348 109.878 101.464 109.597 101.557 109.365C101.649 109.132 101.713 108.964 101.773 108.835C101.797 108.773 101.828 108.714 101.866 108.659Z" fill="#343C41"/>
<path d="M108.448 83.0223C108.073 83.5583 107.817 84.1683 107.698 84.8113C107.578 85.5081 107.578 86.2204 107.698 86.9172C107.853 87.7749 108.054 88.6238 108.3 89.4603C108.793 91.2573 109.31 92.8578 109.708 94.013C109.896 94.5585 110.053 95.0158 110.181 95.3808C110.247 95.5455 110.298 95.7161 110.333 95.8902C110.24 95.738 110.162 95.5768 110.101 95.4089C109.968 95.096 109.78 94.6387 109.563 94.0651C109.13 92.9219 108.584 91.3175 108.091 89.5164C107.851 88.6764 107.66 87.8233 107.517 86.9613C107.4 86.2444 107.411 85.5123 107.55 84.7993C107.648 84.3181 107.836 83.8596 108.103 83.4475C108.191 83.286 108.308 83.1419 108.448 83.0223Z" fill="#343C41"/>
<path d="M81.5649 98.4782C81.3536 98.7065 81.0929 98.8834 80.8028 98.9956C80.1211 99.3084 79.3628 99.4147 78.6214 99.3014C77.8801 99.1881 77.1881 98.86 76.6311 98.3578C76.3884 98.1657 76.1934 97.9199 76.0615 97.6398C76.0896 97.6158 76.2982 97.9006 76.7274 98.2455C77.2857 98.6969 77.9541 98.9916 78.6639 99.0995C79.3737 99.2073 80.0994 99.1244 80.7667 98.8592C81.26 98.6587 81.5448 98.4501 81.5649 98.4782Z" fill="white"/>
<path d="M108.87 91.8545C108.842 91.9612 108.803 92.0647 108.753 92.1634C108.665 92.3639 108.529 92.6527 108.332 93.0137C107.767 94.0376 107.054 94.9717 106.214 95.7855C104.959 97.0034 103.394 97.8539 101.69 98.2443C100.685 98.4746 99.6461 98.5195 98.625 98.3767C97.5324 98.2029 96.4813 97.8289 95.5244 97.2736C93.5549 96.1746 91.8902 94.7827 90.0691 94.1168C88.4583 93.5214 86.7055 93.4249 85.0391 93.84C83.9144 94.1099 82.8531 94.5963 81.9144 95.272C81.2565 95.7574 80.9477 96.0983 80.9316 96.0743C81.2125 95.7528 81.5256 95.4611 81.8662 95.2038C83.0307 94.3214 84.3967 93.743 85.8408 93.521C87.2849 93.299 88.7616 93.4403 90.1373 93.9323C92.0025 94.6062 93.6792 96.0021 95.6246 97.0851C96.5584 97.6352 97.5847 98.0103 98.6531 98.1922C99.651 98.3326 100.666 98.2918 101.649 98.0718C103.324 97.6966 104.865 96.8746 106.11 95.6932C106.952 94.8997 107.676 93.9892 108.26 92.9897C108.464 92.6367 108.617 92.3519 108.713 92.1593C108.757 92.0538 108.81 91.9518 108.87 91.8545Z" fill="white"/>
<path d="M117.79 86.7095C117.869 86.857 117.931 87.0131 117.974 87.1748C118.106 87.6088 118.185 88.0574 118.207 88.5106C118.285 90.0299 117.804 91.5251 116.855 92.7143C116.304 93.3245 115.706 93.8905 115.066 94.407C114.564 94.8282 114.154 95.3485 113.863 95.9353C113.666 96.3305 113.573 96.7697 113.594 97.2108C113.618 97.5237 113.686 97.6922 113.666 97.6962C113.646 97.7002 113.638 97.6601 113.606 97.5799C113.561 97.4638 113.53 97.3425 113.514 97.2189C113.459 96.7599 113.532 96.2947 113.726 95.8751C114.008 95.2605 114.419 94.7134 114.93 94.2706C115.552 93.7517 116.138 93.1901 116.683 92.5899C117.599 91.4349 118.082 89.9963 118.05 88.5226C118.02 87.9115 117.932 87.3045 117.79 86.7095Z" fill="white"/>
<path d="M94.6179 120.528C94.4916 120.595 94.3566 120.645 94.2168 120.676C93.8301 120.787 93.436 120.87 93.0375 120.925C92.4369 121.024 91.8216 120.989 91.2365 120.82C90.8894 120.71 90.5686 120.53 90.2938 120.291C90.0176 120.029 89.7603 119.747 89.5237 119.449C89.2917 119.164 89.0217 118.913 88.7214 118.702C88.4357 118.516 88.1269 118.368 87.8029 118.261C87.2477 118.084 86.6608 118.028 86.0821 118.097C85.6898 118.14 85.3075 118.248 84.9509 118.418C84.8223 118.49 84.6881 118.551 84.5498 118.602C84.6548 118.497 84.7769 118.41 84.9108 118.345C85.2658 118.14 85.6564 118.004 86.062 117.944C86.6627 117.848 87.2774 117.891 87.859 118.069C88.2038 118.175 88.532 118.328 88.8338 118.526C89.1542 118.742 89.4408 119.004 89.6841 119.304C89.9144 119.594 90.1636 119.869 90.4302 120.126C90.6847 120.35 90.9803 120.522 91.3006 120.632C91.8597 120.797 92.447 120.845 93.0255 120.772C94.0002 120.656 94.6099 120.491 94.6179 120.528Z" fill="white"/>
<path d="M113.065 119.673C113.027 119.714 112.984 119.751 112.937 119.781C112.808 119.877 112.674 119.966 112.536 120.046C112.037 120.35 111.497 120.579 110.931 120.724C110.081 120.942 109.197 120.994 108.328 120.876C107.255 120.731 106.237 120.317 105.368 119.673C104.541 119.006 103.751 118.295 103.001 117.543C102.387 116.946 101.676 116.458 100.899 116.099C100.377 115.857 99.8095 115.731 99.2345 115.73C98.8333 115.73 98.6007 115.798 98.5967 115.774C98.6478 115.75 98.7017 115.733 98.7571 115.722C98.9118 115.68 99.0705 115.655 99.2304 115.646C99.8233 115.619 100.414 115.727 100.959 115.963C101.762 116.311 102.496 116.799 103.129 117.403C103.863 118.052 104.593 118.843 105.492 119.504C106.334 120.124 107.317 120.523 108.352 120.668C109.199 120.79 110.061 120.756 110.895 120.567C111.453 120.435 111.993 120.231 112.499 119.962C112.682 119.854 112.871 119.757 113.065 119.673Z" fill="white"/>
</g>
</svg>
