<svg width="352" height="248" viewBox="0 0 352 248" fill="none" xmlns="http://www.w3.org/2000/svg">
<mask id="mask0_199_3986" style="mask-type:alpha" maskUnits="userSpaceOnUse" x="0" y="0" width="352" height="248">
<path d="M0 0H352V248H0V0Z" fill="#E8F4FF"/>
</mask>
<g mask="url(#mask0_199_3986)">
<path d="M0 12C0 5.37259 5.37258 0 12 0H340C346.627 0 352 5.37258 352 12V248H0V12Z" fill="#F2E6F2"/>
<path d="M96.5724 101.74L98.8207 102.584L96.8729 103.138C96.2236 103.321 95.7085 103.821 95.4939 104.465L94.7909 106.626L93.9217 104.46C93.7071 103.923 93.2724 103.503 92.7305 103.305L90.7559 102.59L92.8914 101.708C93.4066 101.493 93.8144 101.079 94.0183 100.558L94.7909 98.5478L95.3436 100.413C95.5261 101.026 95.9822 101.515 96.5778 101.74H96.5724Z" fill="#E0E0E0"/>
<path d="M205.284 108.388L207.8 109.334L205.616 109.952C204.887 110.162 204.307 110.715 204.076 111.436L203.288 113.854L202.316 111.43C202.075 110.828 201.592 110.355 200.98 110.135L198.77 109.334L201.163 108.35C201.742 108.114 202.198 107.646 202.424 107.06L203.288 104.814L203.91 106.905C204.114 107.587 204.624 108.141 205.289 108.388H205.284Z" fill="#E0E0E0"/>
<path d="M196.319 51.7802L197.853 52.3606L196.517 52.7369C196.072 52.8659 195.718 53.2045 195.573 53.6452L195.09 55.1233L194.494 53.6399C194.35 53.2744 194.049 52.9841 193.679 52.8498L192.332 52.3606L193.792 51.7587C194.146 51.6135 194.425 51.3287 194.559 50.9686L195.085 49.5926L195.466 50.8718C195.589 51.2911 195.9 51.6243 196.308 51.7802H196.319Z" fill="#E0E0E0"/>
<path d="M102.653 40.3697L104.187 40.9502L102.851 41.3264C102.406 41.4554 102.052 41.794 101.907 42.2348L101.424 43.7128L100.828 42.2294C100.684 41.8639 100.383 41.5737 100.013 41.4393L98.666 40.9502L100.126 40.3482C100.48 40.2031 100.759 39.9182 100.893 39.5581L101.419 38.1821L101.8 39.4613C101.923 39.8806 102.234 40.2138 102.642 40.3697H102.653Z" fill="#E0E0E0"/>
<path d="M132.642 41.7454L136.044 43.0246L133.093 43.863C132.106 44.1425 131.328 44.895 131.006 45.8732L129.938 49.1465L128.623 45.8679C128.296 45.0563 127.641 44.4167 126.815 44.1157L123.826 43.0299L127.062 41.697C127.845 41.3745 128.462 40.7456 128.763 39.9502L129.932 36.908L130.77 39.7352C131.043 40.6596 131.735 41.4014 132.637 41.7454H132.642Z" fill="#E0E0E0"/>
<path d="M186.477 36.0648L188.725 36.9086L186.777 37.4622C186.128 37.645 185.613 38.1448 185.398 38.7898L184.695 40.9505L183.826 38.7845C183.611 38.247 183.177 37.8277 182.635 37.6289L180.66 36.914L182.796 36.0325C183.311 35.8175 183.719 35.4037 183.923 34.8823L184.695 32.8721L185.248 34.7372C185.43 35.3499 185.886 35.839 186.482 36.0648H186.477Z" fill="#E0E0E0"/>
<path d="M257.654 92.7368L259.903 93.5806L257.955 94.1342C257.306 94.317 256.791 94.8168 256.576 95.4618L255.873 97.6225L255.004 95.4564C254.789 94.919 254.354 94.4997 253.813 94.3009L251.838 93.586L253.973 92.7045C254.489 92.4895 254.896 92.0757 255.1 91.5543L255.873 89.5441L256.426 91.4092C256.608 92.0219 257.064 92.511 257.66 92.7368H257.654Z" fill="#E0E0E0"/>
<path d="M93.3274 114.741L94.1752 115.058L93.4401 115.268C93.1933 115.338 93.0001 115.526 92.9196 115.768L92.6513 116.579L92.324 115.762C92.2435 115.558 92.0772 115.402 91.8733 115.327L91.1328 115.058L91.9377 114.725C92.1309 114.644 92.2865 114.488 92.3616 114.29L92.6513 113.532L92.8606 114.236C92.9304 114.467 93.1021 114.65 93.3274 114.736V114.741Z" fill="#E0E0E0"/>
<path d="M164.027 39.3377L164.874 39.6548L164.139 39.8645C163.893 39.9343 163.699 40.1225 163.619 40.3643L163.351 41.1759L163.023 40.3589C162.943 40.1547 162.776 39.9988 162.573 39.9236L161.832 39.6548L162.637 39.3216C162.83 39.241 162.986 39.0851 163.061 38.8862L163.351 38.1284L163.56 38.8325C163.63 39.0636 163.801 39.2464 164.027 39.3324V39.3377Z" fill="#E0E0E0"/>
<path d="M257.086 220.873L258.621 221.453L257.285 221.829C256.84 221.958 256.485 222.297 256.341 222.738L255.858 224.216L255.262 222.732C255.117 222.367 254.817 222.077 254.446 221.942L253.1 221.453L254.559 220.851C254.913 220.706 255.192 220.421 255.326 220.061L255.852 218.685L256.233 219.964C256.357 220.384 256.668 220.717 257.076 220.873H257.086Z" fill="#E0E0E0"/>
<path d="M249.031 234.708L251.28 235.552L249.332 236.106C248.683 236.288 248.167 236.788 247.953 237.433L247.25 239.594L246.381 237.428C246.166 236.89 245.731 236.471 245.189 236.272L243.215 235.557L245.35 234.676C245.866 234.461 246.273 234.047 246.477 233.526L247.25 231.515L247.803 233.381C247.985 233.993 248.441 234.482 249.037 234.708H249.031Z" fill="#E0E0E0"/>
<path d="M137.723 241.077L139.971 241.921L138.023 242.475C137.374 242.657 136.859 243.157 136.644 243.802L135.941 245.963L135.072 243.797C134.857 243.259 134.423 242.84 133.881 242.641L131.906 241.926L134.042 241.045C134.557 240.83 134.965 240.416 135.169 239.895L135.941 237.885L136.494 239.75C136.676 240.362 137.133 240.852 137.728 241.077H137.723Z" fill="#E0E0E0"/>
<path d="M231.947 229.677L232.794 229.994L232.059 230.204C231.812 230.274 231.619 230.462 231.539 230.704L231.27 231.516L230.943 230.699C230.863 230.494 230.696 230.338 230.492 230.263L229.752 229.994L230.557 229.661C230.75 229.581 230.906 229.425 230.981 229.226L231.27 228.468L231.48 229.172C231.549 229.403 231.721 229.586 231.947 229.672V229.677Z" fill="#E0E0E0"/>
<path d="M216.462 83.6377L217.31 83.9548L216.575 84.1644C216.328 84.2343 216.135 84.4224 216.054 84.6642L215.786 85.4759L215.459 84.6589C215.378 84.4546 215.212 84.2988 215.008 84.2235L214.268 83.9548L215.072 83.6215C215.266 83.5409 215.421 83.385 215.496 83.1862L215.786 82.4283L215.995 83.1324C216.065 83.3635 216.237 83.5463 216.462 83.6323V83.6377Z" fill="#E0E0E0"/>
<path d="M103.287 63.8898L105.615 64.7659L103.592 65.341C102.916 65.5345 102.38 66.0504 102.165 66.7169L101.435 68.9582L100.534 66.7116C100.309 66.1526 99.8578 65.7172 99.2944 65.513L97.25 64.7712L99.4661 63.8575C100.003 63.6371 100.427 63.2018 100.63 62.6643L101.43 60.5789L102.004 62.5192C102.192 63.1534 102.664 63.664 103.281 63.8951L103.287 63.8898Z" fill="#E0E0E0"/>
<path d="M81.7156 108.872L82.9551 109.34L81.8765 109.646C81.517 109.748 81.2327 110.022 81.1146 110.377L80.7229 111.57L80.2453 110.377C80.1273 110.081 79.8858 109.85 79.5854 109.737L78.4961 109.34L79.6766 108.856C79.961 108.738 80.1863 108.507 80.299 108.222L80.7229 107.115L81.0288 108.146C81.1307 108.485 81.3829 108.754 81.7102 108.877L81.7156 108.872Z" fill="#E0E0E0"/>
<path d="M294.007 138.413C281.365 132.587 269.453 137.08 269.453 137.08C278.645 144.449 294.007 138.413 294.007 138.413Z" fill="#E0E0E0"/>
<path d="M256.404 129.206C254.515 137.548 258.808 144.589 258.808 144.589C262.081 138.262 256.404 129.206 256.404 129.206Z" fill="#E0E0E0"/>
<path d="M262.172 144.422C271.557 148.571 280.813 145.18 280.813 145.18C274.116 139.87 262.172 144.422 262.172 144.422Z" fill="#E0E0E0"/>
<path d="M276.928 129.619C276.799 129.479 271.203 134.359 264.426 140.519C257.649 146.684 252.256 151.79 252.385 151.93C252.514 152.069 258.11 147.189 264.887 141.03C271.664 134.87 277.057 129.759 276.928 129.619Z" fill="#E0E0E0"/>
<path d="M295.113 117.064C295.113 117.064 279.349 118.919 274.391 132.232C274.391 132.232 287.864 130.835 295.113 117.064Z" fill="#E0E0E0"/>
<path d="M272.774 113.689C272.774 113.689 261.222 124.594 265.16 138.241C265.16 138.241 275.146 129.072 272.774 113.689Z" fill="#E0E0E0"/>
<path d="M72.798 157.106C70.1634 167.856 75.454 176.488 75.454 176.488C79.8057 168.2 72.798 157.106 72.798 157.106Z" fill="#E0E0E0"/>
<path d="M71.2852 187.867C78.0622 188.087 82.8968 183.675 82.8968 183.675C77.4773 182.068 71.2852 187.867 71.2852 187.867Z" fill="#E0E0E0"/>
<path d="M82.2627 181.073C84.0818 173.118 80.0467 166.394 80.0467 166.394C76.9184 172.425 82.2627 181.073 82.2627 181.073Z" fill="#E0E0E0"/>
<path d="M68.5209 171.774C68.4296 171.897 73.0711 175.536 78.8876 179.901C84.7041 184.27 89.4958 187.71 89.5816 187.587C89.6729 187.463 85.0314 183.83 79.2149 179.46C73.3984 175.095 68.6121 171.65 68.5209 171.774Z" fill="#E0E0E0"/>
<path d="M56.0078 159.461C56.0078 159.461 59.8229 171.495 70.9355 173.365C70.9355 173.365 67.8179 163.051 56.0078 159.461Z" fill="#E0E0E0"/>
<path d="M56.7383 177.418C56.7383 177.418 66.9655 184.803 76.9942 179.67C76.9942 179.67 68.3552 173.247 56.7383 177.418Z" fill="#E0E0E0"/>
<path d="M259.565 109.69C241.128 110.571 229.844 123.154 229.844 123.154C245.163 126.196 259.565 109.69 259.565 109.69Z" fill="#6ECF8B"/>
<path d="M209.68 121.879C212.55 132.855 221.903 138.515 221.903 138.515C221.898 129.06 209.68 121.879 209.68 121.879Z" fill="#6ECF8B"/>
<path d="M225.754 136.257C239.335 135.397 248.161 125.734 248.161 125.734C237.038 123.578 225.754 136.257 225.754 136.257Z" fill="#6ECF8B"/>
<path d="M234.093 109.796C233.857 109.71 230.246 118.88 226.028 130.285C221.811 141.691 218.581 151.005 218.817 151.091C219.053 151.177 222.664 142.008 226.882 130.602C231.099 119.202 234.329 109.882 234.088 109.796H234.093Z" fill="#6ECF8B"/>
<path d="M247.835 83.8794C247.835 83.8794 230.407 95.7202 232.698 114.425C232.698 114.425 247.706 104.53 247.835 83.8794Z" fill="#6ECF8B"/>
<path d="M219.476 93.5859C219.476 93.5859 212.528 113.5 225.497 127.152C225.497 127.152 231.657 110.243 219.476 93.5859Z" fill="#6ECF8B"/>
<path d="M75.7324 156.919C89.0342 152.995 100.136 159.144 100.136 159.144C90.0108 165.083 75.7324 156.919 75.7324 156.919Z" fill="#6ECF8B"/>
<path d="M114.135 153.263C114.795 161.761 109.552 168.087 109.552 168.087C107.234 161.374 114.135 153.263 114.135 153.263Z" fill="#6ECF8B"/>
<path d="M106.264 167.431C96.4124 170.167 87.7734 165.485 87.7734 165.485C95.1407 161.212 106.264 167.431 106.264 167.431Z" fill="#6ECF8B"/>
<path d="M93.8412 150.71C93.9861 150.592 98.8046 156.209 104.605 163.26C110.405 170.318 114.982 176.128 114.838 176.251C114.693 176.37 109.874 170.753 104.074 163.696C98.2788 156.644 93.6964 150.828 93.8412 150.705V150.71Z" fill="#6ECF8B"/>
<path d="M77.7129 135.704C77.7129 135.704 92.9893 139.81 95.9674 153.65C95.9674 153.65 82.8802 150.329 77.7129 135.704Z" fill="#6ECF8B"/>
<path d="M100.227 135.596C100.227 135.596 110.052 148.018 104.204 160.901C104.204 160.901 95.6719 150.42 100.227 135.596Z" fill="#6ECF8B"/>
<path d="M208.173 67.3736L210.523 60.4508C208.586 56.726 207.62 52.4315 207.942 47.9328C208.87 34.9955 220.095 25.2617 233.011 26.1915C245.926 27.1214 255.644 38.3656 254.716 51.3028C253.787 64.24 242.562 73.9739 229.647 73.044C224.254 72.657 219.419 70.4641 215.685 67.1048V67.1156L208.173 67.3682V67.3736Z" fill="white"/>
<path d="M208.172 67.3735C208.172 67.3735 208.327 67.3735 208.644 67.3681C208.971 67.3573 209.449 67.3466 210.071 67.3358C211.354 67.3036 213.237 67.2498 215.689 67.1854H215.797L215.738 67.094V67.0832L215.641 67.1585C217.879 69.1794 221.259 71.4476 225.836 72.5548C226.974 72.8343 228.181 73.0278 229.436 73.1299C230.697 73.1676 232.007 73.2589 233.348 73.1031C236.031 72.8827 238.853 72.1786 241.563 70.8671C244.273 69.561 246.865 67.653 249.027 65.1805C251.195 62.7189 252.928 59.6875 253.937 56.312C254.967 52.942 255.171 49.2226 254.543 45.5624C253.91 41.9075 252.413 38.2956 250.025 35.248C249.725 34.8664 249.429 34.4794 249.124 34.1086C248.791 33.7592 248.458 33.4099 248.126 33.0605L247.627 32.5391L247.085 32.0661C246.725 31.7544 246.36 31.4373 246.001 31.1255C245.63 30.8246 245.228 30.5666 244.847 30.2871C244.455 30.0183 244.09 29.7173 243.667 29.497C242.846 29.0347 242.051 28.5241 241.182 28.1801C237.791 26.6214 234.126 25.912 230.595 26.0087C227.059 26.1323 223.679 27.0514 220.738 28.5456C217.793 30.0345 215.292 32.0823 213.35 34.3934C211.397 36.7046 210.007 39.2738 209.116 41.8215C208.639 43.0899 208.386 44.3799 208.118 45.6161C207.973 46.8738 207.78 48.0832 207.785 49.2603C207.721 53.9794 209.068 57.8278 210.463 60.4776V60.4292C209.706 62.6866 209.132 64.4281 208.741 65.6105C208.553 66.1856 208.408 66.6264 208.306 66.9327C208.209 67.2284 208.166 67.3735 208.166 67.3735C208.166 67.3735 208.225 67.2176 208.333 66.9166C208.44 66.6102 208.596 66.1695 208.8 65.589C209.207 64.4227 209.803 62.7027 210.576 60.4722L210.586 60.4507L210.576 60.4292C209.207 57.7794 207.898 53.9525 207.979 49.271C207.979 48.1047 208.172 46.9061 208.322 45.6591C208.59 44.4337 208.842 43.1544 209.32 41.8967C210.211 39.3706 211.595 36.8336 213.532 34.5493C215.464 32.2704 217.943 30.2494 220.857 28.7767C223.765 27.304 227.108 26.3957 230.601 26.2828C234.094 26.1914 237.716 26.8902 241.064 28.4381C241.923 28.7821 242.706 29.2874 243.516 29.7442C243.929 29.9592 244.294 30.2602 244.681 30.5236C245.056 30.8031 245.453 31.0557 245.818 31.3513C246.172 31.6577 246.532 31.9694 246.886 32.2811L247.423 32.7487L247.916 33.2647C248.244 33.6087 248.571 33.9527 248.904 34.3021C249.209 34.6729 249.499 35.0546 249.794 35.4308C252.155 38.4407 253.636 42.0096 254.264 45.6215C254.886 49.2334 254.688 52.9151 253.674 56.2422C252.681 59.58 250.975 62.5791 248.834 65.0193C246.698 67.4648 244.133 69.3622 241.456 70.6575C238.773 71.9636 235.983 72.6677 233.327 72.8934C231.996 73.0547 230.697 72.9687 229.453 72.9364C228.208 72.8397 227.011 72.6516 225.879 72.3774C221.334 71.2971 217.959 69.0612 215.721 67.0725L215.394 66.7822L215.63 67.1531V67.1639L215.684 67.0725C213.253 67.1692 211.381 67.2445 210.109 67.2982C209.476 67.3251 208.998 67.3466 208.665 67.3627C208.338 67.3788 208.166 67.3896 208.166 67.3896L208.172 67.3735Z" fill="#383E41"/>
<path d="M243.2 46.7341C243.06 45.1808 242.347 43.7188 241.338 42.531C240.351 41.37 239.047 40.4402 237.566 40.0801C235.994 39.6985 234.266 39.9941 232.914 40.8809C232.109 41.4077 231.438 42.1386 230.971 42.9771C230.547 42.2085 229.962 41.5367 229.254 41.0207C227.945 40.0693 226.233 39.6931 224.645 39.9995C223.148 40.2897 221.806 41.155 220.76 42.2676C219.698 43.4017 218.914 44.8368 218.7 46.3794C218.431 48.309 218.759 50.4428 219.719 52.1358C220.739 53.9257 222.413 55.393 224.151 56.4948C227.07 58.3492 230.918 60.6818 230.918 60.6818C230.918 60.6818 234.271 58.29 237.276 56.5755C239.063 55.5542 240.807 54.1675 241.907 52.4315C242.948 50.7814 243.372 48.6744 243.2 46.7288V46.7341Z" fill="#C997CD"/>
<path d="M202.988 128.555C202.988 128.555 214.229 128.13 219.74 142.363C225.256 156.595 230.767 186.34 230.767 186.34L265.403 165.066L276.66 178.213C276.66 178.213 225.256 216.928 220.378 219.056C215.501 221.179 209.985 216.084 207.651 213.106C205.317 210.134 202.982 128.555 202.982 128.555H202.988Z" fill="#AE7461"/>
<path d="M85.633 199.674L113.825 206.377C113.825 206.377 119.974 157.982 124.444 150.425C130.373 140.406 139.5 138.106 139.5 138.106L147.345 162.534C147.345 162.534 138.647 229.876 133.56 233.703C128.474 237.529 81.834 215.315 81.834 215.315L85.6276 199.68L85.633 199.674Z" fill="#AE7461"/>
<path d="M229.752 248.859C229.752 248.859 217.953 211.332 217.953 202.544C217.953 199.782 220.507 184.662 220.507 172.94C220.507 163.604 215.603 151.354 212.866 145.05C211.97 142.986 202.966 128.581 202.966 128.581L186.118 126.335L158.055 128.436L134.74 139.997L142.886 192.042L150.8 225.167L140.573 248.859H229.752Z" fill="#C997CD"/>
<path d="M187.545 208.689C194.413 201.938 201.732 195.644 209.432 189.866L187.545 208.689Z" fill="#383E41"/>
<path d="M114.592 187.495L145.284 193.472C145.284 193.472 135.985 139.38 135.776 139.482C135.567 139.584 124.148 143.712 121.031 158.256C117.881 172.945 114.597 187.495 114.597 187.495H114.592Z" fill="#C997CD"/>
<path d="M200.289 128.222C200.289 128.222 212.019 127.83 217.089 137.139C222.16 146.448 231.341 172.118 231.341 172.118L215.995 178.16L200.289 128.222Z" fill="#C997CD"/>
<path d="M211.82 151.231C211.82 151.231 211.901 151.29 212.04 151.424C212.196 151.58 212.389 151.774 212.631 152.01C212.888 152.263 213.194 152.585 213.521 152.978C213.849 153.37 214.246 153.8 214.621 154.327C214.814 154.585 215.018 154.859 215.228 155.138C215.437 155.423 215.625 155.735 215.839 156.052C216.274 156.676 216.66 157.39 217.09 158.132C217.894 159.642 218.662 161.362 219.284 163.238C219.885 165.119 220.277 166.968 220.518 168.661C220.609 169.511 220.717 170.317 220.733 171.08C220.749 171.462 220.781 171.827 220.776 172.182C220.776 172.537 220.765 172.87 220.765 173.198C220.77 173.843 220.706 174.429 220.669 174.939C220.636 175.45 220.577 175.891 220.524 176.245C220.47 176.579 220.427 176.847 220.395 177.068C220.363 177.256 220.341 177.353 220.33 177.353C220.32 177.353 220.325 177.25 220.341 177.062C220.363 176.842 220.389 176.568 220.416 176.235C220.459 175.88 220.502 175.439 220.518 174.929C220.54 174.418 220.593 173.837 220.572 173.198C220.572 172.875 220.572 172.542 220.567 172.187C220.567 171.838 220.524 171.473 220.508 171.096C220.481 170.344 220.368 169.543 220.266 168.699C220.014 167.022 219.622 165.195 219.021 163.33C218.404 161.47 217.648 159.761 216.864 158.256C216.451 157.514 216.07 156.805 215.646 156.176C215.442 155.859 215.254 155.547 215.051 155.257C214.847 154.972 214.648 154.698 214.46 154.44C214.101 153.908 213.714 153.472 213.398 153.069C213.087 152.666 212.792 152.338 212.55 152.075C212.33 151.822 212.148 151.618 212.003 151.451C211.879 151.306 211.82 151.225 211.826 151.22L211.82 151.231Z" fill="#383E41"/>
<path d="M136.644 167.496C136.644 167.496 136.698 167.588 136.768 167.765C136.848 167.975 136.95 168.238 137.074 168.56C137.337 169.254 137.696 170.259 138.125 171.506C138.984 174.005 140.1 177.483 141.184 181.363C142.268 185.249 143.126 188.802 143.69 191.382C143.974 192.672 144.189 193.72 144.323 194.446C144.382 194.784 144.436 195.058 144.473 195.284C144.505 195.478 144.516 195.58 144.505 195.58C144.495 195.58 144.468 195.483 144.414 195.295C144.36 195.075 144.296 194.8 144.21 194.467C144.033 193.709 143.786 192.677 143.491 191.425C142.879 188.856 141.994 185.319 140.91 181.439C139.821 177.558 138.742 174.08 137.932 171.565C137.535 170.34 137.208 169.329 136.966 168.593C136.864 168.265 136.779 167.996 136.709 167.781C136.655 167.593 136.628 167.496 136.639 167.491L136.644 167.496Z" fill="#383E41"/>
<path d="M150.853 96.3226C145.927 87.2767 144.87 76.0756 148.009 66.2181L135.426 64.7669C126.798 65.2883 119.28 71.9961 115.809 80.1712C112.337 88.3463 112.396 97.7201 114.06 106.481C114.687 109.787 115.465 113.484 113.689 116.312C112.187 118.703 109.246 119.741 107.578 122.014C105.099 125.39 106.424 130.689 109.702 133.232C112.981 135.774 117.558 135.919 121.459 134.629C125.365 133.339 128.751 130.802 132.04 128.271C133.468 130.657 136.714 131.453 139.247 130.442C141.779 129.437 143.577 126.959 144.371 124.277C145.165 121.595 145.068 118.72 144.709 115.941C149.501 117.397 155.081 113.372 155.419 108.228C155.704 103.896 152.903 100.106 150.847 96.3226H150.853Z" fill="#383E41"/>
<path d="M129.712 86.6576C129.315 84.0078 128.923 81.3096 129.347 78.6652C129.771 76.0208 131.15 73.3925 133.506 72.124C134.617 71.5274 136.033 71.2802 137.106 71.9413C138.179 72.6024 138.485 74.3976 137.444 75.1125L137.38 75.4564C136.763 79.1436 136.076 82.8146 135.319 86.4695C135.126 87.3886 134.922 88.3346 134.397 89.1139C133.871 89.8933 132.948 90.4791 132.019 90.3286C130.49 90.076 129.932 88.1894 129.701 86.6522L129.712 86.6576Z" fill="#465159"/>
<path d="M136.644 68.024C141.243 59.306 150.021 52.3886 160.753 50.2118C166.725 48.9971 169.435 49.8678 173.964 50.2763C178.487 50.6848 182.796 52.3187 186.015 55.5329C189.841 59.349 193.264 63.7671 194.772 68.9592C196.317 74.2911 197.321 79.6552 196.945 85.1966C196.473 92.1409 193.13 96.7257 190.705 101.719L182.592 106.304C174.988 107.911 167.272 109.523 159.513 109.088C151.754 108.652 143.808 105.906 138.667 100.063C131.531 91.9474 131.606 77.5859 136.655 68.024H136.644Z" fill="#383E41"/>
<path d="M148.96 65.7668L166.141 55.1676L171.067 54.8828C181.927 53.0123 191.516 63.6921 193.131 72.4854C194.923 82.2568 196.732 94.2589 196.442 101.741C195.862 116.79 183.714 120.171 183.714 120.171C183.714 120.171 184.224 122.471 185.174 127.325C183.129 135.344 170.686 137.36 158.592 130.722L158.119 130.2L144.957 71.5878C144.581 68.895 146.325 66.3688 148.971 65.7614L148.96 65.7668Z" fill="#AE7461"/>
<path d="M188.815 85.4595C188.971 86.4538 188.257 87.4106 187.222 87.5879C186.186 87.7707 185.226 87.1096 185.07 86.1152C184.915 85.1209 185.628 84.1642 186.664 83.9868C187.699 83.804 188.665 84.4651 188.821 85.4595H188.815Z" fill="#383E41"/>
<path d="M190.673 77.9561C190.469 78.2302 188.907 77.3434 186.874 77.5906C184.84 77.811 183.472 79.0364 183.22 78.8161C183.096 78.7193 183.284 78.2463 183.88 77.6927C184.464 77.1445 185.5 76.5533 186.766 76.4082C188.033 76.263 189.16 76.6016 189.825 77.0101C190.506 77.4186 190.775 77.8379 190.673 77.9615V77.9561Z" fill="#383E41"/>
<path d="M180.495 96.0703C180.473 95.9574 181.713 95.5866 183.73 95.076C184.245 94.9577 184.723 94.7965 184.766 94.431C184.841 94.0386 184.557 93.5065 184.235 92.9314C183.596 91.7275 182.925 90.4697 182.222 89.1529C179.416 83.7673 177.318 79.3116 177.533 79.1987C177.753 79.0858 180.205 83.3642 183.011 88.7498C183.693 90.0828 184.342 91.3458 184.959 92.5606C185.227 93.1303 185.646 93.7591 185.474 94.5707C185.383 94.9792 185.034 95.3017 184.712 95.4361C184.39 95.5758 184.1 95.6188 183.843 95.6618C181.793 96.0219 180.516 96.1832 180.495 96.0649V96.0703Z" fill="#383E41"/>
<path d="M183.729 120.149C183.729 120.149 173.883 121.977 163.35 117.236C163.35 117.236 169.831 126.846 184.426 123.697L183.729 120.149Z" fill="#6F4439"/>
<path d="M188.753 71.0065C188.468 71.544 186.875 71.3989 185.072 71.7697C183.258 72.0815 181.82 72.8017 181.364 72.3986C181.16 72.1997 181.3 71.6945 181.874 71.114C182.437 70.5389 183.457 69.953 184.701 69.7165C185.946 69.4854 187.105 69.6628 187.83 69.9906C188.565 70.3185 188.876 70.7431 188.758 71.0011L188.753 71.0065Z" fill="#383E41"/>
<path d="M166.527 88.6951C166.651 89.6948 167.595 90.4204 168.642 90.3075C169.683 90.2001 170.434 89.3024 170.316 88.3027C170.192 87.303 169.248 86.5774 168.207 86.6849C167.161 86.7924 166.409 87.69 166.533 88.6897L166.527 88.6951Z" fill="#383E41"/>
<path d="M163.259 81.9716C163.533 82.1813 164.788 80.8967 166.816 80.5849C168.834 80.2409 170.487 81.0525 170.664 80.7677C170.755 80.6387 170.449 80.2356 169.725 79.8647C169.016 79.4938 167.857 79.209 166.596 79.4132C165.336 79.6175 164.348 80.2517 163.812 80.8214C163.264 81.3965 163.125 81.8749 163.254 81.9663L163.259 81.9716Z" fill="#383E41"/>
<path d="M163.341 75.2906C163.813 75.6883 165.299 74.9627 167.172 74.6456C169.034 74.2694 170.686 74.4091 170.981 73.8662C171.105 73.6083 170.783 73.1836 170.021 72.8612C169.27 72.5333 168.068 72.3613 166.78 72.5978C165.498 72.8397 164.441 73.4309 163.866 74.006C163.276 74.5865 163.131 75.0917 163.346 75.2906H163.341Z" fill="#383E41"/>
<path d="M151.76 95.7362C151.626 94.6344 150.048 92.1942 148.943 92.1566C145.991 92.0491 140.803 92.909 141.629 100.283C142.761 110.361 152.634 107.142 152.618 106.851C152.607 106.626 152.221 99.5362 151.76 95.7416V95.7362Z" fill="#AE7461"/>
<path d="M149.432 103.481C149.383 103.454 149.271 103.626 148.992 103.792C148.718 103.959 148.23 104.104 147.682 103.97C146.577 103.701 145.488 102.11 145.235 100.299C145.107 99.3851 145.198 98.4875 145.445 97.7296C145.67 96.9557 146.089 96.3913 146.614 96.2354C147.135 96.0527 147.548 96.3322 147.704 96.6009C147.87 96.8697 147.827 97.0793 147.886 97.09C147.918 97.1115 148.085 96.8965 147.956 96.488C147.892 96.2945 147.747 96.0688 147.489 95.9022C147.226 95.7356 146.861 95.6711 146.491 95.7571C145.718 95.8968 145.101 96.6923 144.838 97.5254C144.527 98.3692 144.404 99.3743 144.549 100.401C144.844 102.427 146.094 104.206 147.596 104.464C148.326 104.566 148.89 104.287 149.169 104.018C149.453 103.733 149.48 103.502 149.442 103.486L149.432 103.481Z" fill="#6F4439"/>
<path d="M148.541 92.2593L151.53 94.4415C162.552 84.4765 178.236 53.1627 176.449 53.8507C176.449 53.8507 168.427 52.0824 160.55 54.8988C152.673 57.7098 137.981 64.4929 139.897 74.044C141.813 83.5951 148.541 92.2593 148.541 92.2593Z" fill="#383E41"/>
<path d="M174.269 99.364C173.974 99.2458 173.657 99.1275 173.351 99.1974C173.067 99.2619 172.842 99.4769 172.665 99.708C171.817 100.794 171.709 102.406 172.402 103.599C173.094 104.793 174.548 105.486 175.911 105.282C177.274 105.077 178.776 104.056 179.227 101.466C177.676 100.847 175.82 99.9821 174.269 99.364Z" fill="#6F4439"/>
<path d="M175.923 105.379C175.934 105.282 175 105.491 173.825 104.814C173.256 104.481 172.661 103.9 172.382 103.078C172.097 102.267 172.135 101.235 172.612 100.364C172.854 99.9446 173.181 99.5146 173.541 99.5253C173.916 99.52 174.394 99.7833 174.818 99.9392C175.628 100.262 176.39 100.568 177.098 100.848C178.402 101.353 179.223 101.632 179.245 101.568C179.271 101.503 178.499 101.106 177.227 100.52C176.535 100.208 175.784 99.8693 174.984 99.5092C174.55 99.348 174.169 99.0631 173.525 99.0309C173.192 99.0309 172.886 99.219 172.688 99.4286C172.478 99.6382 172.328 99.8693 172.178 100.122C171.625 101.138 171.604 102.315 171.952 103.234C172.301 104.175 173.01 104.803 173.659 105.126C175.011 105.787 175.966 105.411 175.929 105.384L175.923 105.379Z" fill="#383E41"/>
<g opacity="0.3">
<path d="M166.19 96.5107C168.475 96.5107 170.327 95.5842 170.327 94.4414C170.327 93.2985 168.475 92.372 166.19 92.372C163.905 92.372 162.053 93.2985 162.053 94.4414C162.053 95.5842 163.905 96.5107 166.19 96.5107Z" fill="#6F4439"/>
</g>
<g opacity="0.3">
<path d="M195.095 92.9309C195.095 94.0757 193.619 95.0002 191.8 95.0002C189.981 95.0002 188.506 94.0703 188.506 92.9309C188.506 91.7914 189.981 90.8615 191.8 90.8615C193.619 90.8615 195.095 91.7914 195.095 92.9309Z" fill="#6F4439"/>
</g>
<path d="M142.301 103.095C142.301 103.095 142.156 103.025 141.888 102.869C141.748 102.789 141.587 102.692 141.394 102.579C141.297 102.52 141.19 102.455 141.083 102.391C140.975 102.31 140.868 102.23 140.75 102.144C139.779 101.488 138.502 100.321 137.246 98.6338C135.98 96.9514 134.853 94.6725 134.032 92.012C133.651 90.6736 133.324 89.2493 133.131 87.7443C132.943 86.2394 132.862 84.6699 132.921 83.0682C133.152 76.6453 134.917 70.9587 136.956 67.2877C137.955 65.4388 138.947 64.052 139.698 63.1491C140.058 62.6868 140.385 62.3643 140.584 62.1332C140.793 61.9075 140.906 61.7892 140.911 61.7946C140.916 61.8 140.82 61.929 140.627 62.1709C140.439 62.4181 140.128 62.746 139.784 63.2189C139.065 64.138 138.105 65.5355 137.134 67.3844C135.154 71.0555 133.437 76.699 133.206 83.0844C133.152 84.6753 133.227 86.2286 133.41 87.7175C133.597 89.2063 133.914 90.6199 134.284 91.9475C135.078 94.5811 136.178 96.8439 137.407 98.5263C138.631 100.214 139.87 101.386 140.814 102.063C140.927 102.154 141.034 102.24 141.136 102.321C141.244 102.391 141.346 102.455 141.442 102.52C141.625 102.638 141.78 102.746 141.92 102.832C142.177 103.004 142.306 103.095 142.306 103.106L142.301 103.095Z" fill="#465159"/>
<path d="M269.472 135.442L72.4941 171.477L85.6801 243.798L282.658 207.763L269.472 135.442Z" fill="#465159"/>
<path d="M269.47 131.995L72.4922 168.03L85.6781 240.351L282.656 204.315L269.47 131.995Z" fill="white"/>
<path d="M269.47 132.001C269.604 132.721 274.471 159.235 282.745 204.303L282.761 204.394L282.67 204.41C234.098 213.306 163.785 226.184 85.7124 240.481H85.7017L85.5622 240.508L85.5353 240.368C80.9368 215.139 76.4886 190.721 72.3569 168.05L72.3301 167.915L72.4642 167.894C186.3 147.152 268.203 132.226 269.464 131.995C268.203 132.226 186.316 147.26 72.5125 168.157L72.6198 168.001C76.7569 190.678 81.2105 215.09 85.809 240.32L85.648 240.207H85.6587C163.737 225.942 234.055 213.096 282.632 204.222L282.557 204.335C274.396 159.246 269.598 132.721 269.464 132.001H269.47Z" fill="#383E41"/>
<path d="M91.8887 186.212L108.008 183.094L108.925 187.84L103.473 188.894L108.963 217.386L103.747 218.396L98.2579 189.904L92.8062 190.958L91.8887 186.206V186.212Z" fill="#383E41"/>
<path d="M121.9 214.892L116.685 215.902L110.283 182.664L115.499 181.654L118.241 195.897L124.165 194.752L121.423 180.504L126.735 179.477L133.136 212.715L127.824 213.742L125.082 199.493L119.158 200.638L121.9 214.881V214.892Z" fill="#383E41"/>
<path d="M153.805 208.721L148.541 209.737L146.48 203.878L140.079 205.114L140.342 211.317L135.556 212.242L134.461 177.977L142.091 176.499L153.805 208.71V208.721ZM139.875 200.481L144.903 199.509L139.151 183.185L139.875 200.481Z" fill="#383E41"/>
<path d="M156.23 183.282L160.866 207.356L156.171 208.264L149.77 175.026L156.31 173.763L165.502 192.623L161.671 172.726L166.318 171.828L172.719 205.066L167.364 206.103L156.23 183.282Z" fill="#383E41"/>
<path d="M180.741 189.774L179.716 193.123L181.685 203.335L176.47 204.345L170.068 171.107L175.284 170.097L178.074 184.582L182.109 168.78L187.325 167.77L182.925 183.985L193.726 201.008L188.371 202.045L180.746 189.774H180.741Z" fill="#383E41"/>
<path d="M206.197 187.168L195.326 166.217L200.778 165.164L207.678 179.541L208.741 163.621L213.72 162.659L211.413 186.158L213.538 197.176L208.322 198.187L206.197 187.168Z" fill="#383E41"/>
<path d="M216.21 170.457C215.185 165.136 217.395 161.556 222.514 160.568C227.633 159.579 231.019 162.078 232.044 167.394L235.376 184.679C236.401 190 234.19 193.58 229.071 194.569C223.952 195.558 220.567 193.058 219.542 187.743L216.21 170.457ZM224.816 187.066C225.272 189.441 226.491 190.14 228.149 189.817C229.807 189.495 230.676 188.393 230.22 186.017L226.759 168.065C226.303 165.69 225.085 164.991 223.427 165.314C221.769 165.636 220.899 166.738 221.355 169.114L224.811 187.066H224.816Z" fill="#383E41"/>
<path d="M238.846 157.804L243.788 183.448C244.244 185.823 245.452 186.474 247.11 186.157C248.768 185.834 249.648 184.781 249.192 182.405L244.25 156.762L249.181 155.81L254.058 181.12C255.083 186.436 253.012 189.989 247.893 190.978C242.774 191.967 239.533 189.441 238.508 184.125L233.631 158.815L238.846 157.804Z" fill="#383E41"/>
<path d="M258.39 180.869L255.412 168.985L252.74 155.118L257.956 154.108L260.628 167.975L262.281 180.117L258.396 180.869H258.39ZM263.295 182.336L264.266 187.373L259.238 188.345L258.267 183.309L263.295 182.336Z" fill="#383E41"/>
<path d="M88.0788 199.649C88.0305 198.88 87.4832 198.197 86.7963 197.843C86.1095 197.488 85.3154 197.413 84.5427 197.466C85.4173 197.235 85.8788 196.144 85.6105 195.279C85.3422 194.413 84.5105 193.811 83.6305 193.591C82.7505 193.376 81.8222 193.489 80.9369 193.672C80.0515 193.854 78.3828 194.182 77.4759 194.231L71.874 195.628C69.4541 196.923 71.1711 200.009 72.8023 200.181C72.1048 200.697 71.6165 200.745 71.2945 201.557C70.9779 202.368 70.9887 203.336 71.4662 204.061C71.9438 204.787 72.9257 205.19 73.736 204.873C72.8721 205.899 72.7487 207.48 73.4355 208.63C73.8486 209.323 74.5408 209.828 75.3081 210.06C75.6945 210.178 76.0916 210.221 76.494 210.194C76.6389 210.183 76.8106 210.194 76.9447 210.129C77.0091 210.097 77.0628 210.054 77.1111 210C77.3364 209.764 77.5189 209.495 77.7603 209.275C77.8515 209.189 77.9481 209.108 78.0447 209.033C78.4901 208.684 78.9891 208.41 79.5149 208.195C79.7564 208.098 80.0408 208.044 80.2608 207.91C80.411 207.818 80.5076 207.668 80.6364 207.555C81.4735 206.835 82.6486 206.555 83.6788 206.249C84.8432 205.91 86.0559 205.491 86.8446 204.572C87.628 203.647 87.7568 202.056 86.791 201.32C87.5583 201.229 88.1163 200.422 88.068 199.654L88.0788 199.649Z" fill="#AE7461"/>
<path d="M76.8161 213.403C77.0253 214.123 77.4224 214.848 78.1092 215.149C78.9195 215.504 80.2019 215.214 81.0229 214.87C80.8887 213.822 80.7546 213.301 80.6204 212.252C80.5936 212.032 80.4809 211.876 80.5507 211.661C80.7224 211.102 81.8331 210.817 82.2999 210.463C83.1102 209.845 83.1692 208.528 82.5414 207.732C81.9082 206.937 80.7546 206.668 79.778 206.937C78.796 207.205 77.9965 207.942 77.46 208.807C76.6229 210.156 76.3868 211.865 76.8268 213.397L76.8161 213.403Z" fill="#AE7461"/>
<path d="M73.4576 204.947C73.4093 204.759 76.3498 203.797 80.0361 202.792C83.7224 201.787 86.7487 201.131 86.797 201.319C86.8453 201.507 83.9048 202.469 80.2185 203.474C76.5376 204.474 73.5059 205.135 73.4576 204.947Z" fill="#6F4439"/>
<path d="M72.6027 200.213C72.5383 200.041 75.1408 198.918 78.5319 198.128C81.9231 197.327 84.7509 197.171 84.767 197.354C84.7885 197.553 82.0358 198.02 78.6929 198.81C75.35 199.59 72.6725 200.401 72.6027 200.208V200.213Z" fill="#6F4439"/>
<path d="M76.8161 211.828C76.741 211.86 76.478 211.414 76.5639 210.629C76.6337 209.861 77.1702 208.829 78.0878 208.125C79.0161 207.421 79.88 207.007 80.6473 206.786C81.4897 206.598 81.919 207.114 81.817 207.163C81.758 207.238 81.3717 207.012 80.7868 207.265C80.2234 207.539 79.3219 208.055 78.5278 208.673C77.7122 209.307 77.2346 210.097 77.0468 210.732C76.8537 211.36 76.918 211.801 76.8107 211.828H76.8161Z" fill="#6F4439"/>
<path d="M265.516 166.082C265.253 165.356 265.484 164.512 265.972 163.916C266.461 163.314 267.164 162.932 267.888 162.669C266.992 162.809 266.139 161.992 266.042 161.089C265.945 160.186 266.466 159.299 267.19 158.751C267.909 158.202 268.805 157.939 269.691 157.746C270.576 157.557 272.234 157.192 273.087 156.875L278.78 155.923C281.512 156.149 281.168 159.664 279.736 160.471C280.583 160.664 281.05 160.519 281.662 161.132C282.279 161.744 282.649 162.642 282.499 163.497C282.349 164.351 281.608 165.114 280.739 165.147C281.936 165.743 282.681 167.146 282.51 168.474C282.402 169.275 281.973 170.011 281.361 170.532C281.056 170.796 280.701 170.989 280.326 171.129C280.192 171.177 280.036 171.253 279.886 171.253C279.816 171.253 279.746 171.226 279.682 171.199C279.381 171.075 279.108 170.898 278.797 170.79C278.679 170.747 278.56 170.715 278.442 170.683C277.895 170.538 277.326 170.489 276.763 170.5C276.505 170.505 276.221 170.57 275.963 170.538C275.792 170.516 275.641 170.414 275.475 170.36C274.423 170.032 273.232 170.242 272.17 170.376C270.968 170.527 269.685 170.634 268.596 170.097C267.507 169.565 266.761 168.151 267.357 167.092C266.616 167.313 265.785 166.797 265.522 166.071L265.516 166.082Z" fill="#AE7461"/>
<path d="M281.308 174.198C281.404 174.94 281.324 175.768 280.82 176.316C280.219 176.966 278.925 177.208 278.04 177.224C277.75 176.208 277.659 175.682 277.369 174.666C277.31 174.451 277.348 174.263 277.203 174.096C276.822 173.65 275.69 173.838 275.121 173.693C274.134 173.451 273.554 172.269 273.817 171.285C274.08 170.301 275.03 169.597 276.039 169.452C277.042 169.307 278.072 169.662 278.909 170.242C280.213 171.145 281.109 172.623 281.319 174.198H281.308Z" fill="#AE7461"/>
<path d="M281.033 165.11C281.006 164.917 277.921 165.207 274.143 165.76C270.366 166.309 267.324 166.911 267.356 167.104C267.383 167.298 270.468 167.007 274.245 166.454C278.023 165.906 281.06 165.304 281.033 165.11Z" fill="#6F4439"/>
<path d="M279.933 160.422C279.922 160.234 277.089 160.25 273.665 160.874C270.237 161.492 267.581 162.476 267.64 162.653C267.699 162.846 270.408 162.175 273.794 161.567C277.175 160.949 279.949 160.621 279.933 160.422Z" fill="#6F4439"/>
<path d="M280.689 172.758C280.775 172.758 280.834 172.242 280.442 171.559C280.072 170.882 279.17 170.151 278.049 169.866C276.917 169.592 275.962 169.555 275.167 169.662C274.32 169.829 274.132 170.474 274.244 170.474C274.325 170.522 274.593 170.157 275.232 170.157C275.854 170.184 276.89 170.302 277.866 170.549C278.864 170.807 279.616 171.339 280.04 171.844C280.469 172.344 280.587 172.774 280.694 172.758H280.689Z" fill="#6F4439"/>
</g>
</svg>
