<svg xmlns="http://www.w3.org/2000/svg" xmlns:xlink="http://www.w3.org/1999/xlink" width="271" height="115" viewBox="0 0 271 115">
  <defs>
    <clipPath id="clip-path">
      <rect id="Rectangle_24296" data-name="Rectangle 24296" width="271" height="115" transform="translate(0 -0.096)" fill="none"/>
    </clipPath>
    <clipPath id="clip-path-2">
      <rect id="Rectangle_24282" data-name="Rectangle 24282" width="271" height="258.324" fill="none"/>
    </clipPath>
    <clipPath id="clip-path-4">
      <rect id="Rectangle_24283" data-name="Rectangle 24283" width="41.171" height="62.045" fill="none"/>
    </clipPath>
    <clipPath id="clip-path-5">
      <rect id="Rectangle_24284" data-name="Rectangle 24284" width="10.512" height="16.29" fill="none"/>
    </clipPath>
    <clipPath id="clip-path-8">
      <rect id="Rectangle_24288" data-name="Rectangle 24288" width="2.083" height="2.122" fill="none"/>
    </clipPath>
    <clipPath id="clip-path-9">
      <rect id="Rectangle_24289" data-name="Rectangle 24289" width="25.57" height="13.077" fill="none"/>
    </clipPath>
    <clipPath id="clip-path-10">
      <rect id="Rectangle_24290" data-name="Rectangle 24290" width="2.143" height="2.145" fill="none"/>
    </clipPath>
    <clipPath id="clip-path-11">
      <rect id="Rectangle_24291" data-name="Rectangle 24291" width="27.54" height="2.395" fill="none"/>
    </clipPath>
    <clipPath id="clip-path-12">
      <rect id="Rectangle_24292" data-name="Rectangle 24292" width="8.58" height="7.631" fill="none"/>
    </clipPath>
    <clipPath id="clip-path-13">
      <rect id="Rectangle_24294" data-name="Rectangle 24294" width="271" height="261.591" fill="none"/>
    </clipPath>
  </defs>
  <g id="Group_166267" data-name="Group 166267" transform="translate(0 0.096)" clip-path="url(#clip-path)">
    <g id="Group_166235" data-name="Group 166235">
      <g id="Group_166234" data-name="Group 166234" clip-path="url(#clip-path-2)">
        <path id="Path_120022" data-name="Path 120022" d="M337.438,313.874a24.118,24.118,0,0,0-10.337-3.567,6.872,6.872,0,0,0-4.89.9,1.008,1.008,0,0,0-.5.895,1.093,1.093,0,0,0,.478.612,14.75,14.75,0,0,0,15.252,1.158" transform="translate(-131.125 -126.002)" fill="#e0e0e0"/>
        <path id="Path_120023" data-name="Path 120023" d="M340.261,304.762a50.516,50.516,0,0,1-6.677-5.889,16.947,16.947,0,0,1-4.186-7.76,3.135,3.135,0,0,1,.331-2.6c5.322,4.166,9.5,9.556,10.532,16.246" transform="translate(-134.213 -117.183)" fill="#e0e0e0"/>
        <path id="Path_120024" data-name="Path 120024" d="M347.942,305.329a24.252,24.252,0,0,1,.124-8.788,11.881,11.881,0,0,1,4.669-7.251c.92,2.154.524,4.637-.124,6.889a33.513,33.513,0,0,1-4.63,9.772" transform="translate(-141.683 -117.498)" fill="#e0e0e0"/>
        <path id="Path_120025" data-name="Path 120025" d="M348.015,332.079a15.263,15.263,0,0,0-8.29,4.206,15.724,15.724,0,0,0-4.742,8.16c3.107-.192,5.742-2.388,7.653-4.851s3.236-5.165,5.336-7.468" transform="translate(-136.539 -134.877)" fill="#e0e0e0"/>
        <path id="Path_120026" data-name="Path 120026" d="M357.914,321.343a20.539,20.539,0,0,1,2.361-19.388,24.733,24.733,0,0,1-2.361,19.388" transform="translate(-145.305 -122.641)" fill="#e0e0e0"/>
        <path id="Path_120027" data-name="Path 120027" d="M360.657,348.44A14.779,14.779,0,0,0,346.52,356.6c-.175.351-.33.8-.1,1.111a1.05,1.05,0,0,0,.938.277c2.786-.181,5.255-1.862,7.292-3.775s3.813-4.124,6.064-5.779" transform="translate(-141.155 -141.51)" fill="#e0e0e0"/>
        <path id="Path_120028" data-name="Path 120028" d="M369.345,334.275a26.454,26.454,0,0,1-.263-14.744c.518-1.9,1.388-3.9,3.139-4.785a.615.615,0,0,1,.48-.085.636.636,0,0,1,.3.353,8.9,8.9,0,0,1,.74,4.23,26.577,26.577,0,0,1-.661,4.282c-.551,2.617-.845,5.43-2.277,7.687a15.63,15.63,0,0,0-.91,1.688c-.271.574-.273.776-.521,1.232" transform="translate(-150.063 -127.793)" fill="#e0e0e0"/>
        <path id="Path_120029" data-name="Path 120029" d="M400.614,341.186a19.047,19.047,0,0,1,3.323-15.631c.239-.311.555-.644.945-.608.6.055.752.852.725,1.453a28.291,28.291,0,0,1-4.993,14.786" transform="translate(-163.084 -131.979)" fill="#e0e0e0"/>
        <path id="Path_120030" data-name="Path 120030" d="M403.74,350.5a22.637,22.637,0,0,0,18.611-3.795,15.038,15.038,0,0,0-10.075-1.239,14.369,14.369,0,0,0-8.536,5.034" transform="translate(-164.565 -140.162)" fill="#e0e0e0"/>
        <path id="Path_120031" data-name="Path 120031" d="M406.082,341.716a21.5,21.5,0,0,1,16.891-9.791,10.423,10.423,0,0,1-5.525,6.123,30.6,30.6,0,0,1-8.108,2.377c-1.079.21-2.559.441-3.258,1.291" transform="translate(-165.519 -134.814)" fill="#e0e0e0"/>
        <path id="Path_120032" data-name="Path 120032" d="M399.88,306.875a49.305,49.305,0,0,0,2.16-9.917,16.547,16.547,0,0,0-1.97-9.809,21.639,21.639,0,0,0-.288,20.065" transform="translate(-162.003 -116.628)" fill="#e0e0e0"/>
        <path id="Path_120033" data-name="Path 120033" d="M420.125,301.878c3.822-6.964,11.62-12.527,19.511-13.306-3.044,7.6-11.346,13.469-19.511,13.306" transform="translate(-171.243 -117.206)" fill="#e0e0e0"/>
        <path id="Path_120034" data-name="Path 120034" d="M416.066,312.493c5.7.871,10.557,4.52,15.884,6.732a7.1,7.1,0,0,0,3.591.689,2.819,2.819,0,0,0,1.76-4.985,7.68,7.68,0,0,0-2.608-1.586,28.921,28.921,0,0,0-18.136-1.014" transform="translate(-169.589 -126.458)" fill="#e0e0e0"/>
        <path id="Path_120035" data-name="Path 120035" d="M410.5,319.835c1.29.371,1.732,1.04,2.754,1.913a29.685,29.685,0,0,0,12.045,6.2c.46.115,1.064.16,1.292-.257.2-.364-.053-.8-.312-1.129A16.572,16.572,0,0,0,419,321.616c-2.78-1.038-5.188-2.289-8.506-2.02" transform="translate(-167.319 -129.791)" fill="#e0e0e0"/>
        <path id="Path_120036" data-name="Path 120036" d="M404.214,278.84a22.763,22.763,0,0,0,17.476,5.96,1.194,1.194,0,0,0,.8-.286c.44-.48-.088-1.22-.6-1.621-5.138-4.016-11.362-5.681-17.672-4.054" transform="translate(-164.758 -113.002)" fill="#e0e0e0"/>
        <path id="Path_120037" data-name="Path 120037" d="M411.664,273.282a24.308,24.308,0,0,1,21.807-3.607,17.292,17.292,0,0,1-10.392,4.573,32.816,32.816,0,0,1-11.416-.966" transform="translate(-167.795 -109.063)" fill="#e0e0e0"/>
        <path id="Path_120038" data-name="Path 120038" d="M406.676,247.23c-.5-5.141-.177-9.2-.533-14.364-.028-.413-.117-.909-.5-1.058-.537-.207-.983.454-1.159,1a16.5,16.5,0,0,0,2.187,14.307" transform="translate(-164.561 -94.135)" fill="#e0e0e0"/>
        <path id="Path_120039" data-name="Path 120039" d="M408.08,247.708a30.192,30.192,0,0,0,8.5-8.277c1.678-2.3,3.092-5.058,2.711-7.884a8.126,8.126,0,0,0-6.128,3.051,17.169,17.169,0,0,0-3.124,6.3c-.68,2.262-1.156,4.587-1.954,6.81" transform="translate(-166.334 -94.044)" fill="#e0e0e0"/>
        <path id="Path_120040" data-name="Path 120040" d="M422.1,246.041A68.453,68.453,0,0,0,443,233.683c-2.5-1.008-5.357-.406-7.853.605a24.782,24.782,0,0,0-13.163,11.7" transform="translate(-172.002 -94.702)" fill="#e0e0e0"/>
        <path id="Path_120041" data-name="Path 120041" d="M412.042,259.352a42.421,42.421,0,0,0,11.609.057,49.219,49.219,0,0,0,10.838-3.61,1.274,1.274,0,0,0,.736-.561.85.85,0,0,0-.264-.929,2.246,2.246,0,0,0-.924-.435,20.022,20.022,0,0,0-11.712.7,54.294,54.294,0,0,0-10.283,4.776" transform="translate(-167.949 -102.876)" fill="#e0e0e0"/>
        <path id="Path_120042" data-name="Path 120042" d="M373.51,267.906a20.63,20.63,0,0,1-.187-17.037c1.6,2.446,1.8,5.561,1.5,8.471s-1.176,5.906-1.234,8.831" transform="translate(-151.455 -101.892)" fill="#e0e0e0"/>
        <path id="Path_120043" data-name="Path 120043" d="M344.964,270.6a23.676,23.676,0,0,0-17.614,7.522,16.426,16.426,0,0,0,9.645-1.793,49.017,49.017,0,0,0,8.266-5.546" transform="translate(-133.428 -109.905)" fill="#e0e0e0"/>
        <path id="Path_120044" data-name="Path 120044" d="M333.745,266.4c-3.216-.261-6.311-.66-9.4.289a11.287,11.287,0,0,0-7.167,6.092,16.952,16.952,0,0,0,8.815-1.669,50.706,50.706,0,0,0,7.755-4.712" transform="translate(-129.281 -108.074)" fill="#e0e0e0"/>
        <path id="Path_120045" data-name="Path 120045" d="M349.849,263.408c-2.893-1.9-5.864-3.836-9.233-4.623s-7.273-.206-9.622,2.34c2.727,1.6,6.035,1.793,9.2,1.791s7.038-.039,10.019,1.019" transform="translate(-134.914 -104.975)" fill="#e0e0e0"/>
        <path id="Path_120046" data-name="Path 120046" d="M358.988,253.186c-4.947-4.869-6.821-13.616-4.832-20.272a30.944,30.944,0,0,1,4.832,20.272" transform="translate(-144.036 -94.6)" fill="#e0e0e0"/>
        <path id="Path_120047" data-name="Path 120047" d="M385.81,232.878c.933-2.174,1.589-4.456,2.426-6.668a19.182,19.182,0,0,1,3.458-6.148,9.1,9.1,0,0,1,6.126-3.182,24.727,24.727,0,0,1-11.889,16.034" transform="translate(-157.257 -88.087)" fill="#e0e0e0"/>
        <path id="Path_120048" data-name="Path 120048" d="M372.852,242.685c-1.544-2.13-3.328-5.022-5.42-6.611a9.054,9.054,0,0,0-7.375-1.941,17.176,17.176,0,0,0,12.8,8.553" transform="translate(-146.76 -95.019)" fill="#e0e0e0"/>
        <path id="Path_120049" data-name="Path 120049" d="M380.685,233.192a36.836,36.836,0,0,1-2.44-7.921,12.382,12.382,0,0,1,1.237-8.055c2.715,5.145,3.59,10.668,1.342,16.034" transform="translate(-154.101 -88.224)" fill="#e0e0e0"/>
        <path id="Path_120050" data-name="Path 120050" d="M385.852,209.758c1.538-5.1,6.2-8.856,11.227-10.579a4.187,4.187,0,0,1,1.969-.3A1.71,1.71,0,0,1,400.5,200.1c.184.868-.531,1.646-1.2,2.222a38.177,38.177,0,0,1-13.442,7.44" transform="translate(-157.274 -80.766)" fill="#e0e0e0"/>
        <path id="Path_120051" data-name="Path 120051" d="M385.891,198.466a36.623,36.623,0,0,1,1.467-9.741,12.3,12.3,0,0,1,6.115-7.4c.509,3.321-.953,6.626-2.716,9.484s-3.888,5.555-4.947,8.744" transform="translate(-157.257 -73.646)" fill="#e0e0e0"/>
        <path id="Path_120052" data-name="Path 120052" d="M379.245,201.775c-1.271-3.717-1.4-8.438-3.623-11.677-1.552-2.264-4.038-3.806-5.375-6.2a9.455,9.455,0,0,0,.313,7.042,20.372,20.372,0,0,0,4.108,5.9c1.643,1.759,3.05,3.083,4.577,4.943" transform="translate(-150.692 -74.69)" fill="#e0e0e0"/>
        <path id="Path_120053" data-name="Path 120053" d="M385.72,322.583c-.1,0-.184-24.8-.191-55.378s.068-55.382.166-55.382.184,24.791.191,55.382-.068,55.378-.166,55.378" transform="translate(-157.142 -86.034)" fill="#e0e0e0"/>
        <path id="Path_120054" data-name="Path 120054" d="M407.447,273.255a5.253,5.253,0,0,1-.93.35l-2.56.866c-2.158.737-5.123,1.8-8.34,3.126-3.186,1.37-6.191,2.482-7.9,3.969a5.819,5.819,0,0,0-1.588,2.106c-.246.582-.29.938-.322.932a.729.729,0,0,1,.011-.26,3.944,3.944,0,0,1,.182-.722,5.6,5.6,0,0,1,1.549-2.245,13.877,13.877,0,0,1,3.429-2.135c1.371-.642,2.892-1.311,4.505-1.976,3.228-1.326,6.215-2.359,8.4-3.036,1.091-.341,1.981-.592,2.6-.758a5.3,5.3,0,0,1,.97-.216" transform="translate(-157.252 -110.983)" fill="#e0e0e0"/>
        <path id="Path_120055" data-name="Path 120055" d="M415.7,243.878a1.516,1.516,0,0,1-.261.279l-.794.747-2.963,2.7-9.863,8.8c-3.85,3.435-7.177,6.718-9.483,9.189-1.155,1.235-2.064,2.257-2.684,2.971l-.717.82a1.474,1.474,0,0,1-.268.272,1.591,1.591,0,0,1,.212-.317c.15-.2.368-.5.666-.865.589-.743,1.471-1.793,2.6-3.053a125.24,125.24,0,0,1,9.43-9.285c3.864-3.428,7.379-6.506,9.934-8.726l3.038-2.613.838-.7a1.5,1.5,0,0,1,.308-.224" transform="translate(-158.423 -99.053)" fill="#e0e0e0"/>
        <path id="Path_120056" data-name="Path 120056" d="M403.85,264.986c-.1-.045.7-1.907,1.5-4.261s1.189-4.34,1.292-4.324a14.581,14.581,0,0,1-.953,4.438,29.052,29.052,0,0,1-1.2,2.98,4.631,4.631,0,0,1-.646,1.166" transform="translate(-164.606 -104.139)" fill="#e0e0e0"/>
        <path id="Path_120057" data-name="Path 120057" d="M376.025,283.747a4.409,4.409,0,0,1-.594-.691l-1.52-1.953c-1.277-1.654-3.041-3.938-5.019-6.437s-3.8-4.741-5.115-6.362l-1.553-1.927a4.464,4.464,0,0,1-.536-.736,4.409,4.409,0,0,1,.642.645c.4.431.957,1.064,1.641,1.855,1.368,1.581,3.22,3.8,5.2,6.3s3.716,4.813,4.942,6.507c.613.847,1.1,1.538,1.43,2.023a4.408,4.408,0,0,1,.481.773" transform="translate(-147.424 -107.892)" fill="#e0e0e0"/>
        <path id="Path_120058" data-name="Path 120058" d="M376.2,280.732a8.737,8.737,0,0,1-1.986-3.726,10.659,10.659,0,0,1-.45-3.757l.158.013c-.071.287-.123.439-.151.434s-.03-.164-.006-.46l.158.013a17.154,17.154,0,0,0,.634,3.655,27.885,27.885,0,0,0,1.643,3.829" transform="translate(-152.336 -110.977)" fill="#e0e0e0"/>
        <path id="Path_120059" data-name="Path 120059" d="M360.193,271.824a6.4,6.4,0,0,0-1.386-.807,9.251,9.251,0,0,0-3.849-.307,23.721,23.721,0,0,0-3.876.627,11.69,11.69,0,0,1-1.6.384,5.553,5.553,0,0,1,1.527-.628,17.649,17.649,0,0,1,3.917-.741,8.386,8.386,0,0,1,3.971.429,2.461,2.461,0,0,1,1.291,1.042" transform="translate(-142.451 -109.785)" fill="#e0e0e0"/>
        <path id="Path_120060" data-name="Path 120060" d="M354.761,268.158c-.027.056-.807-.324-2.124-.776a21.329,21.329,0,0,0-10.7-.818c-1.37.246-2.2.5-2.217.444a2,2,0,0,1,.563-.24,13.124,13.124,0,0,1,1.6-.452,18.85,18.85,0,0,1,10.84.828,13.274,13.274,0,0,1,1.517.69,2.02,2.02,0,0,1,.52.324" transform="translate(-138.469 -107.989)" fill="#e0e0e0"/>
        <path id="Path_120061" data-name="Path 120061" d="M383.909,248.963a44.15,44.15,0,0,1-1.549-5.393,44.245,44.245,0,0,1-1.2-5.482,44.1,44.1,0,0,1,1.549,5.394,44.049,44.049,0,0,1,1.2,5.482" transform="translate(-155.356 -96.701)" fill="#e0e0e0"/>
        <path id="Path_120062" data-name="Path 120062" d="M383.056,252.4a25.979,25.979,0,0,0-1.717-3.229,14.226,14.226,0,0,0-2.527-2.614,2.362,2.362,0,0,1,.975.5,7.872,7.872,0,0,1,1.844,1.9,7.169,7.169,0,0,1,1.424,3.435" transform="translate(-154.404 -100.139)" fill="#e0e0e0"/>
        <path id="Path_120063" data-name="Path 120063" d="M370.26,351.324c-.038.006-.111-.6-.39-1.649a23.522,23.522,0,0,0-1.653-4.293A59.419,59.419,0,0,0,359.446,333c-1.958-2.242-3.858-4.358-5.47-6.383a44.824,44.824,0,0,1-3.912-5.655,27.158,27.158,0,0,1-1.974-4.2c-.182-.517-.315-.921-.388-1.2a2.037,2.037,0,0,1-.1-.428c.032-.01.212.568.62,1.578a30.761,30.761,0,0,0,2.063,4.119,47.455,47.455,0,0,0,3.95,5.576c1.618,2,3.521,4.108,5.483,6.355a56.343,56.343,0,0,1,8.729,12.512,21.449,21.449,0,0,1,1.56,4.37,12.027,12.027,0,0,1,.219,1.243,2.013,2.013,0,0,1,.036.439" transform="translate(-141.681 -127.993)" fill="#e0e0e0"/>
        <path id="Path_120064" data-name="Path 120064" d="M405.385,338.833a8.976,8.976,0,0,1-1.024.576,22.426,22.426,0,0,0-2.656,1.76,30.567,30.567,0,0,0-3.487,3.188c-1.224,1.3-2.485,2.8-3.772,4.415-2.573,3.236-4.979,6.1-6.42,8.385-.732,1.134-1.264,2.09-1.612,2.76a9.029,9.029,0,0,1-.563,1.033.978.978,0,0,1,.095-.291c.076-.185.179-.462.344-.8a26.163,26.163,0,0,1,1.523-2.834,92.323,92.323,0,0,1,6.355-8.474c1.29-1.616,2.566-3.124,3.813-4.419a28.322,28.322,0,0,1,3.574-3.162,18.628,18.628,0,0,1,2.742-1.681c.339-.17.616-.276.8-.355a.983.983,0,0,1,.289-.1" transform="translate(-157.273 -137.619)" fill="#e0e0e0"/>
        <path id="Path_120065" data-name="Path 120065" d="M410.182,350.9a14.833,14.833,0,0,1-2.164.315,28.457,28.457,0,0,0-5.131,1.013,15.406,15.406,0,0,0-4.6,2.417c-1.059.821-1.559,1.5-1.608,1.46a1.666,1.666,0,0,1,.321-.5,8.2,8.2,0,0,1,1.127-1.156,13.914,13.914,0,0,1,4.645-2.562,23.148,23.148,0,0,1,5.217-.924,11.945,11.945,0,0,1,2.189-.063" transform="translate(-161.688 -142.509)" fill="#e0e0e0"/>
        <path id="Path_120066" data-name="Path 120066" d="M397.745,353.328c-.113-.064.863-1.557,1.618-3.565.71-2.027.876-3.8,1-3.783a3.439,3.439,0,0,1-.036,1.164,12.5,12.5,0,0,1-.631,2.742,13.233,13.233,0,0,1-1.255,2.514,3.488,3.488,0,0,1-.7.929" transform="translate(-162.118 -140.522)" fill="#e0e0e0"/>
        <path id="Path_120067" data-name="Path 120067" d="M411.716,306.4a1.644,1.644,0,0,1-.346.185l-1.017.463c-.445.191-.986.434-1.6.756s-1.325.642-2.067,1.089l-1.181.673c-.409.236-.814.516-1.245.787-.87.529-1.742,1.181-2.673,1.846A45.94,45.94,0,0,0,391.3,322.871c-.631.955-1.252,1.851-1.749,2.741-.255.441-.521.856-.742,1.274l-.63,1.206c-.421.76-.721,1.485-1.015,2.109s-.524,1.171-.7,1.624c-.174.419-.315.761-.427,1.034a.2.2,0,1,1-.068-.024l.366-1.061c.156-.462.362-1.022.646-1.653s.564-1.371.972-2.143l.614-1.223c.216-.425.477-.846.729-1.293.49-.9,1.1-1.811,1.734-2.778A44.227,44.227,0,0,1,401.4,311.929c.943-.663,1.827-1.31,2.71-1.832.437-.267.848-.543,1.264-.774l1.2-.657c.755-.436,1.48-.748,2.1-1.048s1.171-.531,1.627-.7l1.045-.4a1.564,1.564,0,0,1,.373-.118" transform="translate(-157.278 -124.444)" fill="#e0e0e0"/>
        <path id="Path_120068" data-name="Path 120068" d="M403.406,322.111a2.493,2.493,0,0,1,.85-1.269,5.357,5.357,0,0,1,3.425-1.317,9.34,9.34,0,0,1,3.6.706,5.139,5.139,0,0,1,1.363.664,8.379,8.379,0,0,1-1.446-.425,10.865,10.865,0,0,0-3.509-.587,5.575,5.575,0,0,0-3.272,1.151,10.1,10.1,0,0,0-1.015,1.077" transform="translate(-164.427 -129.777)" fill="#e0e0e0"/>
        <path id="Path_120069" data-name="Path 120069" d="M399.5,323.472a9.191,9.191,0,0,0,.755-6.483,2.112,2.112,0,0,1,.4.924,6.572,6.572,0,0,1-.553,4.753c-.3.548-.569.831-.6.806" transform="translate(-162.835 -128.747)" fill="#e0e0e0"/>
        <path id="Path_120070" data-name="Path 120070" d="M357.013,382.061c.533,9.477,3.381,19.113,7.763,28.857H383.83c4.178-9.647,6.83-19.27,7.3-28.857Z" transform="translate(-145.519 -155.177)" fill="#e0e0e0"/>
        <path id="Path_120071" data-name="Path 120071" d="M390.114,407.76c0,.1-6.273.179-14.01.179s-14.012-.08-14.012-.179,6.272-.179,14.012-.179,14.01.08,14.01.179" transform="translate(-147.589 -165.542)" fill="#fafafa"/>
        <path id="Path_120072" data-name="Path 120072" d="M390.6,413.54c0,.1-5.881.179-13.135.179s-13.135-.08-13.135-.179,5.88-.179,13.135-.179,13.135.08,13.135.179" transform="translate(-148.502 -167.89)" fill="#fafafa"/>
        <path id="Path_120073" data-name="Path 120073" d="M370.514,392.538a54.2,54.2,0,0,1,0,8.8,54.168,54.168,0,0,1,0-8.8" transform="translate(-150.949 -159.433)" fill="#fafafa"/>
        <path id="Path_120074" data-name="Path 120074" d="M387.747,392.538a58.083,58.083,0,0,1,0,9.112,58.1,58.1,0,0,1,0-9.112" transform="translate(-157.973 -159.433)" fill="#fafafa"/>
        <path id="Path_120075" data-name="Path 120075" d="M403.925,392.408a60.44,60.44,0,0,1,0,9.294,60.44,60.44,0,0,1,0-9.294" transform="translate(-164.567 -159.38)" fill="#fafafa"/>
        <path id="Path_120076" data-name="Path 120076" d="M390.972,392.415c0,.1-7.358.179-16.433.179s-16.434-.08-16.434-.179,7.356-.179,16.434-.179,16.433.08,16.433.179" transform="translate(-145.964 -159.31)" fill="#fafafa"/>
      </g>
    </g>
    <g id="Group_166243" data-name="Group 166243">
      <g id="Group_166242" data-name="Group 166242" clip-path="url(#clip-path-2)">
        <path id="Path_120077" data-name="Path 120077" d="M39.732,40.894A21.478,21.478,0,0,0,28.047,68.852l13.271,32.487L47.272,98.9,34,66.409A14.954,14.954,0,1,1,61.669,55.051l5.954-2.444A21.389,21.389,0,0,0,39.732,40.894" transform="translate(-10.782 -15.96)" fill="#c6dbe8"/>
        <g id="Group_166238" data-name="Group 166238" transform="translate(15.67 23.335)" opacity="0.3">
          <g id="Group_166237" data-name="Group 166237">
            <g id="Group_166236" data-name="Group 166236" clip-path="url(#clip-path-4)">
              <path id="Path_120078" data-name="Path 120078" d="M39.732,40.894A21.478,21.478,0,0,0,28.047,68.852l13.271,32.487L47.272,98.9,34,66.409A14.954,14.954,0,1,1,61.669,55.051l5.954-2.444A21.389,21.389,0,0,0,39.732,40.894" transform="translate(-26.452 -39.295)"/>
            </g>
          </g>
        </g>
        <path id="Path_120079" data-name="Path 120079" d="M94.849,123.655,47.886,142.933a3.44,3.44,0,0,1-4.49-1.886l-11.4-27.914a3.453,3.453,0,0,1,1.881-4.5L80.837,89.354a3.44,3.44,0,0,1,4.49,1.885l11.4,27.915a3.454,3.454,0,0,1-1.881,4.5" transform="translate(-12.935 -36.187)" fill="#c6dbe8"/>
        <g id="Group_166241" data-name="Group 166241" transform="translate(44.782 70.657)" opacity="0.5">
          <g id="Group_166240" data-name="Group 166240">
            <g id="Group_166239" data-name="Group 166239" clip-path="url(#clip-path-5)">
              <path id="Path_120080" data-name="Path 120080" d="M84.871,121.984a4.819,4.819,0,1,0-3.926,6.608l2.729,6.681,2.432-1-2.729-6.681a4.822,4.822,0,0,0,1.494-5.61" transform="translate(-75.595 -118.983)"/>
            </g>
          </g>
        </g>
        <path id="Path_120081" data-name="Path 120081" d="M48.993,157.036c-.123.05-2.558-5.63-5.44-12.684s-5.12-12.817-5-12.868,2.557,5.629,5.441,12.686,5.119,12.816,5,12.867" transform="translate(-15.713 -53.403)" fill="#fafafa"/>
        <path id="Path_120082" data-name="Path 120082" d="M77.947,130.6a1.481,1.481,0,0,1-.645-.083,5.875,5.875,0,0,1-1.628-.7A6.777,6.777,0,0,1,74.055,119.5a5.893,5.893,0,0,1,1.334-1.17c.357-.219.574-.3.588-.277a15.087,15.087,0,0,0-1.659,1.66,6.7,6.7,0,0,0,1.541,9.81,14.982,14.982,0,0,0,2.088,1.07" transform="translate(-29.497 -47.948)" fill="#fafafa"/>
        <path id="Path_120083" data-name="Path 120083" d="M16.649,148.463l.288-.842.552.7a3.72,3.72,0,0,0,1.707,1.21l.84.289-.7.553a3.724,3.724,0,0,0-1.207,1.711l-.288.842-.552-.7a3.723,3.723,0,0,0-1.707-1.21l-.84-.289.7-.553a3.729,3.729,0,0,0,1.207-1.711" transform="translate(-6.01 -59.957)" fill="#d2e9f7"/>
        <path id="Path_120084" data-name="Path 120084" d="M64.659,92.916l.168-.489.32.4a2.164,2.164,0,0,0,.992.7l.488.167-.4.321a2.166,2.166,0,0,0-.7.993l-.167.489-.32-.4a2.16,2.16,0,0,0-.991-.7l-.488-.168.4-.321a2.159,2.159,0,0,0,.7-.994" transform="translate(-25.905 -37.54)" fill="#d2e9f7"/>
        <path id="Path_120085" data-name="Path 120085" d="M6.154,99.23l.485-1.415.927,1.172a6.254,6.254,0,0,0,2.868,2.034l1.411.485-1.169.929a6.262,6.262,0,0,0-2.029,2.875l-.485,1.415-.927-1.172a6.258,6.258,0,0,0-2.868-2.034l-1.412-.485,1.169-.929A6.265,6.265,0,0,0,6.154,99.23" transform="translate(-1.205 -39.728)" fill="#d2e9f7"/>
      </g>
    </g>
    <g id="Group_166245" data-name="Group 166245">
      <g id="Group_166244" data-name="Group 166244" clip-path="url(#clip-path-2)">
        <path id="Path_120086" data-name="Path 120086" d="M210.816,258.006l-87.446-.052a19.072,19.072,0,0,1-19.038-19.1l.043-219.764A19.072,19.072,0,0,1,123.434,0l87.447.051a19.072,19.072,0,0,1,19.037,19.1l-.043,219.765a19.071,19.071,0,0,1-19.059,19.091" transform="translate(-42.526 0)" fill="#263238"/>
        <path id="Path_120087" data-name="Path 120087" d="M214.775,13.141l-16.954-.01a4.217,4.217,0,0,0-4.118,4.312v3.083a4.217,4.217,0,0,1-4.118,4.312l-33.048-.02a4.221,4.221,0,0,1-4.117-4.317V17.418a4.222,4.222,0,0,0-4.117-4.317l-5.962,0-14.84-.009A13.358,13.358,0,0,0,114.155,26.46l-.042,214.506a13.357,13.357,0,0,0,13.333,13.376l87.273.051a13.356,13.356,0,0,0,13.347-13.37l.043-214.506a13.358,13.358,0,0,0-13.333-13.376" transform="translate(-46.513 -5.316)" fill="#fff"/>
        <path id="Path_120088" data-name="Path 120088" d="M194.342,390.688a1.675,1.675,0,1,1-1.69-1.666,1.678,1.678,0,0,1,1.69,1.666" transform="translate(-77.848 -158.004)" fill="#263238"/>
        <path id="Path_120089" data-name="Path 120089" d="M210.187,390.557a1.675,1.675,0,1,1-1.69-1.666,1.678,1.678,0,0,1,1.69,1.666" transform="translate(-84.307 -157.951)" fill="#263238"/>
        <path id="Path_120090" data-name="Path 120090" d="M226.033,390.426a1.675,1.675,0,1,1-1.69-1.666,1.677,1.677,0,0,1,1.69,1.666" transform="translate(-90.765 -157.898)" fill="#263238"/>
        <path id="Path_120091" data-name="Path 120091" d="M278.119,49.609c0,.051-2.2.111-4.924.134s-4.925,0-4.926-.052,2.2-.11,4.925-.133,4.925,0,4.925.052" transform="translate(-109.347 -20.125)" fill="#263238"/>
        <path id="Path_120092" data-name="Path 120092" d="M278.154,53.863c0,.051-2.2.111-4.924.134s-4.925,0-4.926-.052,2.2-.111,4.925-.134,4.925,0,4.925.052" transform="translate(-109.361 -21.852)" fill="#263238"/>
        <path id="Path_120093" data-name="Path 120093" d="M278.189,58.117c0,.051-2.2.111-4.924.134s-4.925,0-4.926-.052,2.2-.11,4.925-.133,4.925,0,4.925.052" transform="translate(-109.375 -23.58)" fill="#263238"/>
        <path id="Path_120094" data-name="Path 120094" d="M133.6,57.368a1.809,1.809,0,0,1,.2-.012l.569-.017,2.1-.046-.052.053c-.007-.467-.015-.977-.023-1.529,0-.283-.024-.553,0-.878a.8.8,0,0,1,.7-.643c.337-.007.639-.022,1,0a.808.808,0,0,1,.681.8c.008.713.016,1.458.024,2.23l-.086-.086,2.653-.027-.089.092c-.009-1.071-.02-2.179-.03-3.314q0-.425-.007-.844a.668.668,0,0,0-.108-.347,2.088,2.088,0,0,0-.268-.289l-1.16-1.146L138.6,50.258l-.543-.537c-.185-.179-.334-.368-.553-.413a.721.721,0,0,0-.617.119c-.164.138-.333.33-.5.488l-.951.963c-.6.625-1.221,1.192-1.676,1.734a1.9,1.9,0,0,0-.134,1q0,.5,0,.938c0,.577,0,1.082-.007,1.51,0,.391-.007.71-.009.965,0,.222-.011.346-.011.346s-.01-.106-.017-.321c-.007-.252-.015-.566-.024-.951q-.014-.648-.032-1.521-.008-.45-.017-.954c0-.17-.005-.344-.008-.523a1.089,1.089,0,0,1,.146-.552c.489-.6,1.076-1.135,1.679-1.776l.945-.969c.17-.167.311-.335.511-.508a.89.89,0,0,1,.761-.15,1.418,1.418,0,0,1,.632.454l.544.534,1.122,1.1,1.162,1.144a2.158,2.158,0,0,1,.294.32.859.859,0,0,1,.137.442q0,.421.008.848c.008,1.135.017,2.243.025,3.314v.091h-.091l-2.653.017h-.087v-.086c0-.773-.008-1.517-.012-2.23a.65.65,0,0,0-.544-.655c-.309-.016-.665-.005-.964,0a.66.66,0,0,0-.579.524c-.025.27-.006.58-.011.851,0,.552,0,1.063,0,1.529V57.4h-.052l-2.136-.011-.557-.008a1.132,1.132,0,0,1-.185-.009" transform="translate(-54.417 -19.948)" fill="#263238"/>
        <path id="Path_120095" data-name="Path 120095" d="M165.991,146.486c0,2.058-1.54,3.338-4,3.338h-1.856v2.546H158v-9.235h3.988c2.461,0,4,1.28,4,3.351m-2.159,0c0-1.016-.658-1.609-1.961-1.609h-1.737v3.206h1.737c1.3,0,1.961-.594,1.961-1.6" transform="translate(-64.402 -58.135)" fill="#263238"/>
        <path id="Path_120096" data-name="Path 120096" d="M179.636,149.71v4.051h-1.922v-.884a2.322,2.322,0,0,1-2.158.99c-1.659,0-2.646-.924-2.646-2.151,0-1.253.882-2.124,3.04-2.124h1.632c0-.884-.527-1.4-1.632-1.4a3.4,3.4,0,0,0-2.04.66l-.737-1.438a5.429,5.429,0,0,1,3.053-.858c2.159,0,3.409,1,3.409,3.153m-2.053,1.808v-.726h-1.408c-.961,0-1.264.356-1.264.831,0,.514.434.858,1.158.858a1.513,1.513,0,0,0,1.514-.963" transform="translate(-70.478 -59.525)" fill="#263238"/>
        <path id="Path_120097" data-name="Path 120097" d="M186.241,153.1l.684-1.477a4.842,4.842,0,0,0,2.461.686c.947,0,1.3-.251,1.3-.647,0-1.161-4.277.027-4.277-2.81,0-1.346,1.211-2.3,3.277-2.3a5.807,5.807,0,0,1,2.724.621l-.684,1.464a4.058,4.058,0,0,0-2.04-.528c-.921,0-1.316.29-1.316.66,0,1.214,4.277.039,4.277,2.836,0,1.32-1.224,2.257-3.342,2.257a6.069,6.069,0,0,1-3.067-.765" transform="translate(-75.912 -59.525)" fill="#263238"/>
        <path id="Path_120098" data-name="Path 120098" d="M198.039,153.1l.684-1.477a4.842,4.842,0,0,0,2.461.686c.947,0,1.3-.251,1.3-.647,0-1.161-4.278.027-4.278-2.81,0-1.346,1.211-2.3,3.277-2.3a5.808,5.808,0,0,1,2.725.621l-.684,1.464a4.058,4.058,0,0,0-2.041-.528c-.921,0-1.315.29-1.315.66,0,1.214,4.277.039,4.277,2.836,0,1.32-1.223,2.257-3.342,2.257a6.067,6.067,0,0,1-3.067-.765" transform="translate(-80.721 -59.525)" fill="#263238"/>
        <path id="Path_120099" data-name="Path 120099" d="M221.5,146.734l-2.566,7.1h-1.974l-1.593-4.407-1.644,4.407h-1.974l-2.553-7.1h1.935l1.671,4.8,1.737-4.8h1.737l1.685,4.8,1.724-4.8Z" transform="translate(-85.267 -59.597)" fill="#263238"/>
        <path id="Path_120100" data-name="Path 120100" d="M230.366,150.212a3.9,3.9,0,1,1,3.9,3.655,3.649,3.649,0,0,1-3.9-3.655m5.7,0a1.816,1.816,0,1,0-1.8,1.966,1.79,1.79,0,0,0,1.8-1.966" transform="translate(-93.897 -59.525)" fill="#263238"/>
        <path id="Path_120101" data-name="Path 120101" d="M250.2,146.557v1.9c-.171-.013-.3-.026-.46-.026a1.742,1.742,0,0,0-1.882,1.979v3.351h-2.053v-7.1h1.961v.936a2.853,2.853,0,0,1,2.434-1.042" transform="translate(-100.192 -59.525)" fill="#263238"/>
        <path id="Path_120102" data-name="Path 120102" d="M262.051,142.2v9.79h-1.961v-.818a2.72,2.72,0,0,1-2.211.923,3.656,3.656,0,0,1,0-7.309,2.719,2.719,0,0,1,2.119.857V142.2Zm-2.014,6.241a1.816,1.816,0,1,0-1.8,1.966,1.8,1.8,0,0,0,1.8-1.966" transform="translate(-103.669 -57.756)" fill="#263238"/>
        <path id="Path_120103" data-name="Path 120103" d="M226.626,171.437c0,.086-21.936.155-48.988.155s-48.994-.069-48.994-.155,21.931-.154,48.994-.154,48.988.069,48.988.154" transform="translate(-52.435 -69.568)" fill="#e0e0e0"/>
        <path id="Path_120104" data-name="Path 120104" d="M222.751,323.7c0,.085-21.936.154-48.989.154s-48.993-.069-48.993-.154,21.931-.154,48.993-.154,48.989.069,48.989.154" transform="translate(-50.856 -131.412)" fill="#e0e0e0"/>
        <path id="Path_120105" data-name="Path 120105" d="M215.307,335.135c0,.086-12.185.154-27.214.154s-27.215-.069-27.215-.154,12.183-.154,27.215-.154,27.214.069,27.214.154" transform="translate(-65.574 -136.055)" fill="#e0e0e0"/>
        <path id="Path_120106" data-name="Path 120106" d="M140.016,213.559l1.856,1.007-.834,1.4-1.873-1.11.034,2.066h-1.6l.017-2.083-1.874,1.127-.818-1.4,1.857-1.007-1.857-1.024.818-1.4,1.874,1.127-.017-2.083h1.6l-.034,2.083,1.873-1.127.834,1.4Z" transform="translate(-54.995 -85.366)" fill="#ff725e"/>
        <path id="Path_120107" data-name="Path 120107" d="M175.932,213.559l1.856,1.007-.834,1.4-1.873-1.11.034,2.066h-1.6l.017-2.083-1.874,1.127-.818-1.4,1.857-1.007-1.857-1.024.818-1.4,1.874,1.127-.017-2.083h1.6l-.034,2.083,1.873-1.127.834,1.4Z" transform="translate(-69.634 -85.366)" fill="#ff725e"/>
        <path id="Path_120108" data-name="Path 120108" d="M210.9,213.559l1.856,1.007-.834,1.4-1.873-1.11.033,2.066h-1.6l.017-2.083-1.873,1.127-.818-1.4,1.856-1.007-1.856-1.024.818-1.4,1.873,1.127-.017-2.083h1.6l-.033,2.083,1.873-1.127.834,1.4Z" transform="translate(-83.886 -85.366)" fill="#ff725e"/>
        <path id="Path_120109" data-name="Path 120109" d="M244.765,213.559l1.856,1.007-.834,1.4-1.873-1.11.033,2.066h-1.6l.017-2.083-1.873,1.127-.818-1.4,1.856-1.007-1.856-1.024.818-1.4,1.873,1.127-.017-2.083h1.6l-.033,2.083,1.873-1.127.834,1.4Z" transform="translate(-97.691 -85.366)" fill="#ff725e"/>
        <path id="Path_120110" data-name="Path 120110" d="M278.371,213.559l1.856,1.007-.834,1.4-1.873-1.11.033,2.066h-1.6l.017-2.083-1.873,1.127-.818-1.4,1.856-1.007-1.856-1.024.818-1.4,1.873,1.127-.017-2.083h1.6l-.033,2.083,1.873-1.127.834,1.4Z" transform="translate(-111.389 -85.366)" fill="#ff725e"/>
        <path id="Path_120111" data-name="Path 120111" d="M140.036,220.986h-8.98a4.2,4.2,0,0,1-4.186-4.2V200.816a4.2,4.2,0,0,1,4.186-4.2h8.98a4.2,4.2,0,0,1,4.187,4.2V216.79a4.2,4.2,0,0,1-4.187,4.2m-8.98-24.069a3.9,3.9,0,0,0-3.89,3.9V216.79a3.9,3.9,0,0,0,3.89,3.9h8.98a3.9,3.9,0,0,0,3.89-3.9V200.816a3.9,3.9,0,0,0-3.89-3.9Z" transform="translate(-51.713 -79.859)" fill="#263238"/>
        <path id="Path_120112" data-name="Path 120112" d="M175.226,220.986h-8.98a4.2,4.2,0,0,1-4.186-4.2V200.816a4.2,4.2,0,0,1,4.186-4.2h8.98a4.2,4.2,0,0,1,4.186,4.2V216.79a4.2,4.2,0,0,1-4.186,4.2m-8.98-24.069a3.9,3.9,0,0,0-3.89,3.9V216.79a3.9,3.9,0,0,0,3.89,3.9h8.98a3.9,3.9,0,0,0,3.89-3.9V200.816a3.9,3.9,0,0,0-3.89-3.9Z" transform="translate(-66.056 -79.859)" fill="#263238"/>
        <path id="Path_120113" data-name="Path 120113" d="M209.449,220.986h-8.98a4.2,4.2,0,0,1-4.186-4.2V200.816a4.2,4.2,0,0,1,4.186-4.2h8.98a4.2,4.2,0,0,1,4.186,4.2V216.79a4.2,4.2,0,0,1-4.186,4.2m-8.98-24.069a3.9,3.9,0,0,0-3.89,3.9V216.79a3.9,3.9,0,0,0,3.89,3.9h8.98a3.9,3.9,0,0,0,3.89-3.9V200.816a3.9,3.9,0,0,0-3.89-3.9Z" transform="translate(-80.006 -79.859)" fill="#263238"/>
        <path id="Path_120114" data-name="Path 120114" d="M244.059,220.986h-8.98a4.2,4.2,0,0,1-4.186-4.2V200.816a4.2,4.2,0,0,1,4.186-4.2h8.98a4.2,4.2,0,0,1,4.186,4.2V216.79a4.2,4.2,0,0,1-4.186,4.2m-8.98-24.069a3.9,3.9,0,0,0-3.89,3.9V216.79a3.9,3.9,0,0,0,3.89,3.9h8.98a3.9,3.9,0,0,0,3.89-3.9V200.816a3.9,3.9,0,0,0-3.89-3.9Z" transform="translate(-94.113 -79.859)" fill="#263238"/>
        <path id="Path_120115" data-name="Path 120115" d="M277.665,220.986h-8.98a4.2,4.2,0,0,1-4.186-4.2V200.816a4.2,4.2,0,0,1,4.186-4.2h8.98a4.2,4.2,0,0,1,4.187,4.2V216.79a4.2,4.2,0,0,1-4.187,4.2m-8.98-24.069a3.9,3.9,0,0,0-3.89,3.9V216.79a3.9,3.9,0,0,0,3.89,3.9h8.98a3.9,3.9,0,0,0,3.89-3.9V200.816a3.9,3.9,0,0,0-3.89-3.9Z" transform="translate(-107.81 -79.859)" fill="#263238"/>
        <path id="Path_120116" data-name="Path 120116" d="M221,287.792H133.794a6.7,6.7,0,0,1-6.688-6.7v-4.251a6.7,6.7,0,0,1,6.688-6.7H221a6.7,6.7,0,0,1,6.688,6.7v4.251a6.7,6.7,0,0,1-6.688,6.7" transform="translate(-51.809 -109.716)" fill="#ff725e"/>
        <path id="Path_120117" data-name="Path 120117" d="M190.57,279.026h2.708a3,3,0,1,1,0,5.975H190.57Zm2.64,4.839a1.855,1.855,0,1,0,0-3.7h-1.26v3.7Z" transform="translate(-77.677 -113.329)" fill="#fff"/>
        <path id="Path_120118" data-name="Path 120118" d="M201.713,283.6a2.521,2.521,0,1,1,2.521,2.364,2.361,2.361,0,0,1-2.521-2.364m3.687,0a1.175,1.175,0,1,0-1.166,1.272A1.158,1.158,0,0,0,205.4,283.6" transform="translate(-82.218 -114.228)" fill="#fff"/>
        <path id="Path_120119" data-name="Path 120119" d="M216.39,283.271V285.9h-1.328v-2.424c0-.743-.341-1.084-.928-1.084-.639,0-1.1.392-1.1,1.238v2.27h-1.328v-4.593h1.268v.539a2,2,0,0,1,1.516-.606,1.8,1.8,0,0,1,1.9,2.032" transform="translate(-86.292 -114.227)" fill="#fff"/>
        <path id="Path_120120" data-name="Path 120120" d="M225.956,283.979h-3.465a1.223,1.223,0,0,0,1.312.922,1.552,1.552,0,0,0,1.149-.444l.706.768a2.672,2.672,0,0,1-4.5-1.621,2.335,2.335,0,0,1,2.444-2.365,2.271,2.271,0,0,1,2.384,2.381c0,.1-.017.248-.026.359m-3.482-.777h2.256a1.144,1.144,0,0,0-2.256,0" transform="translate(-90.143 -114.227)" fill="#fff"/>
        <path id="Path_120121" data-name="Path 120121" d="M215.883,85.885a17.8,17.8,0,1,1-17.8-17.844,17.822,17.822,0,0,1,17.8,17.844" transform="translate(-73.483 -27.635)" fill="#7ab5d8"/>
        <path id="Path_120122" data-name="Path 120122" d="M204.837,89.106h-.3V87.44a3.472,3.472,0,1,1,6.945,0V88.8h-.3V87.44a3.176,3.176,0,1,0-6.352,0Z" transform="translate(-83.371 -34.101)" fill="#fff" stroke="#fff" stroke-linecap="round" stroke-linejoin="round" stroke-width="1"/>
        <path id="Path_120123" data-name="Path 120123" d="M210.7,104.161h-8.827a1.468,1.468,0,0,1-1.464-1.468V93.843a1.467,1.467,0,0,1,1.464-1.467H210.7a1.467,1.467,0,0,1,1.464,1.467v8.849a1.468,1.468,0,0,1-1.464,1.468m-8.827-11.488a1.171,1.171,0,0,0-1.168,1.17v8.849a1.171,1.171,0,0,0,1.168,1.171H210.7a1.171,1.171,0,0,0,1.168-1.171V93.843a1.17,1.17,0,0,0-1.168-1.17Z" transform="translate(-81.687 -37.519)" fill="#fff" stroke="#fff" stroke-linecap="round" stroke-linejoin="round" stroke-width="1"/>
        <path id="Path_120124" data-name="Path 120124" d="M209.449,100.887a1.389,1.389,0,1,1,1.386-1.389,1.389,1.389,0,0,1-1.386,1.389m0-2.481a1.092,1.092,0,1,0,1.089,1.092,1.092,1.092,0,0,0-1.089-1.092" transform="translate(-84.807 -39.848)" fill="#fff" stroke="#fff" stroke-linecap="round" stroke-linejoin="round" stroke-width="1"/>
        <rect id="Rectangle_24286" data-name="Rectangle 24286" width="0.296" height="2.507" transform="translate(124.451 60.827)" fill="#fff" stroke="#fff" stroke-linecap="round" stroke-linejoin="round" stroke-width="1"/>
      </g>
    </g>
    <path id="Path_120125" data-name="Path 120125" d="M402.816,395.663l-11.18-25.851-12.826,8.253,13.6,23.631,6.819-3.065Z" transform="translate(-154.403 -150.202)" fill="#ffbe9d"/>
    <g id="Group_166262" data-name="Group 166262">
      <g id="Group_166261" data-name="Group 166261" clip-path="url(#clip-path-2)">
        <path id="Path_120126" data-name="Path 120126" d="M410.767,410.917l.372.732s14.9-1.273,16.216,1.017l-24.667,12.307-3.749-8.4a15.749,15.749,0,0,0,11.828-5.659" transform="translate(-162.608 -166.897)" fill="#ff725e"/>
        <g id="Group_166248" data-name="Group 166248" transform="translate(239.782 250.812)" opacity="0.6">
          <g id="Group_166247" data-name="Group 166247">
            <g id="Group_166246" data-name="Group 166246" clip-path="url(#clip-path-8)">
              <path id="Path_120127" data-name="Path 120127" d="M405.116,422.607a1.13,1.13,0,0,0-.124,1.5,1.08,1.08,0,0,0,1.482.137,1.193,1.193,0,0,0,.123-1.589,1.121,1.121,0,0,0-1.557.029" transform="translate(-404.764 -422.354)" fill="#fff"/>
            </g>
          </g>
        </g>
        <g id="Group_166251" data-name="Group 166251" transform="translate(239.178 244.998)" opacity="0.6">
          <g id="Group_166250" data-name="Group 166250">
            <g id="Group_166249" data-name="Group 166249" clip-path="url(#clip-path-9)">
              <path id="Path_120128" data-name="Path 120128" d="M404.648,425.641l-.9-2.019,23.972-11.056s1.336-.069,1.6.768Z" transform="translate(-403.745 -412.565)" fill="#fff"/>
            </g>
          </g>
        </g>
        <path id="Path_120129" data-name="Path 120129" d="M418.6,412.171c.056.123-.519.478-.919,1.162-.418.673-.464,1.349-.6,1.356-.123.032-.3-.779.2-1.6s1.291-1.043,1.32-.919" transform="translate(-169.949 -167.394)" fill="#263238"/>
        <path id="Path_120130" data-name="Path 120130" d="M424.313,411.812c.086.1-.334.569-.49,1.284-.176.71-.005,1.314-.128,1.368-.1.075-.538-.59-.328-1.475s.886-1.291.945-1.177" transform="translate(-172.542 -167.253)" fill="#263238"/>
        <path id="Path_120131" data-name="Path 120131" d="M429.683,414.077c-.1.08-.564-.439-.583-1.255s.414-1.36.515-1.284c.117.065-.072.6-.047,1.272.01.669.229,1.2.115,1.267" transform="translate(-174.901 -167.146)" fill="#263238"/>
        <path id="Path_120132" data-name="Path 120132" d="M373.761,401.63l.427-28.172-15.078,2.228,2.692,27.149,7.473.021Z" transform="translate(-146.374 -151.683)" fill="#ffbe9d"/>
        <path id="Path_120133" data-name="Path 120133" d="M375.414,418.512l.038.819s14.1,4.988,14.361,7.619l-27.534,1.036.03-9.2a15.727,15.727,0,0,0,13.1-.276" transform="translate(-147.665 -169.982)" fill="#ff725e"/>
        <g id="Group_166254" data-name="Group 166254" transform="translate(216.78 251.581)" opacity="0.6">
          <g id="Group_166253" data-name="Group 166253">
            <g id="Group_166252" data-name="Group 166252" clip-path="url(#clip-path-10)">
              <path id="Path_120134" data-name="Path 120134" d="M366.7,423.707a1.128,1.128,0,0,0-.729,1.315,1.081,1.081,0,0,0,1.294.736,1.19,1.19,0,0,0,.765-1.4,1.121,1.121,0,0,0-1.431-.616" transform="translate(-365.936 -423.65)" fill="#fff"/>
            </g>
          </g>
        </g>
        <g id="Group_166257" data-name="Group 166257" transform="translate(214.614 255.609)" opacity="0.6">
          <g id="Group_166256" data-name="Group 166256">
            <g id="Group_166255" data-name="Group 166255" clip-path="url(#clip-path-11)">
              <path id="Path_120135" data-name="Path 120135" d="M362.279,432.828l.007-2.213,26.387-.183s1.246.489,1.14,1.359Z" transform="translate(-362.279 -430.432)" fill="#fff"/>
            </g>
          </g>
        </g>
        <path id="Path_120136" data-name="Path 120136" d="M382.995,419.941c0,.135-.669.221-1.315.68-.658.441-.976,1.037-1.1.989-.125-.021.045-.835.836-1.376s1.605-.417,1.581-.293" transform="translate(-155.109 -170.518)" fill="#263238"/>
        <path id="Path_120137" data-name="Path 120137" d="M388.424,421.815c.036.129-.538.381-.973.968-.453.574-.544,1.195-.679,1.194-.126.026-.248-.76.307-1.48s1.337-.811,1.345-.682" transform="translate(-157.605 -171.304)" fill="#263238"/>
        <path id="Path_120138" data-name="Path 120138" d="M392.5,425.962c-.121.033-.334-.633-.016-1.384s.935-1.069,1-.958c.08.108-.313.519-.565,1.14s-.283,1.184-.416,1.2" transform="translate(-159.907 -172.048)" fill="#263238"/>
        <path id="Path_120139" data-name="Path 120139" d="M347.317,212.288l-.56-22.183-21.54,1.136-.7,2.624a119.034,119.034,0,0,0-2.819,12.351c-1.445,9.292-1.275,17.751,2.359,27.681s9.346,28.825,9.346,28.825l21.371,59.164,24.883-8.2Z" transform="translate(-130.779 -77.213)" fill="#263238"/>
        <path id="Path_120140" data-name="Path 120140" d="M373.631,188.9l1.882,6.142c2.76,1.758,7.218,10.514,7.628,14.089a204.228,204.228,0,0,1,.371,30.16c-.69,11.8-6.519,80.866-6.519,80.866L353.45,321.4,355.9,209.718l1.034-19.941Z" transform="translate(-144.067 -76.722)" fill="#263238"/>
        <path id="Path_120141" data-name="Path 120141" d="M319.425,214.65a3.569,3.569,0,0,0,.814.242,13.345,13.345,0,0,0,2.3.31A14.946,14.946,0,0,0,335.7,208.66a13.427,13.427,0,0,0,1.144-2.019,3.623,3.623,0,0,0,.3-.8c-.06-.03-.5,1.108-1.635,2.68a15.4,15.4,0,0,1-12.967,6.443,31.22,31.22,0,0,1-3.118-.319" transform="translate(-130.198 -83.606)" fill="#455a64"/>
        <path id="Path_120142" data-name="Path 120142" d="M386,200.7a1.643,1.643,0,0,0,.135.512,11.764,11.764,0,0,0,.544,1.334,17.161,17.161,0,0,0,6.211,7.063,11.812,11.812,0,0,0,1.252.709,1.64,1.64,0,0,0,.491.2c.026-.049-.63-.409-1.613-1.1a19.769,19.769,0,0,1-6.133-6.975c-.562-1.064-.835-1.761-.887-1.742" transform="translate(-157.331 -81.515)" fill="#455a64"/>
        <path id="Path_120143" data-name="Path 120143" d="M357.984,232.448s.059.154.158.46l.434,1.359,1.636,5.235,5.961,19.27c5.11,16.247,11.594,38.877,20.29,63.371q1.5,4.4,2.962,8.69l.052.151-.152.049-24.885,8.19-.135.045-.049-.134-14.3-39.77-4.072-11.4-1.071-3.034c-.117-.339-.207-.6-.27-.783s-.084-.268-.084-.268.04.087.107.26l.293.775,1.115,3.018c.967,2.649,2.374,6.5,4.15,11.367,3.538,9.753,8.54,23.545,14.412,39.731l-.184-.089,24.88-8.21-.1.2-2.964-8.691c-8.7-24.5-15.148-47.14-20.2-63.4-2.474-8.143-4.478-14.735-5.866-19.3-.684-2.275-1.216-4.043-1.579-5.253l-.4-1.369c-.089-.309-.127-.469-.127-.469" transform="translate(-140.4 -94.411)" fill="#455a64"/>
        <path id="Path_120144" data-name="Path 120144" d="M362.633,112.077s-1.127-6.318-4.353-9.336S341.6,96.3,341.6,96.3s.159,4.681-2.847,5.938a7.572,7.572,0,0,1-8.9-1.761,12.928,12.928,0,0,1-3.066-5.871s-15.946,2.333-18.217,6.666-4.64,20.778-4.64,20.778l14.449,2.287-.471,28.139,37.972-2L353.749,124.2l10.415.934Z" transform="translate(-123.88 -38.425)" fill="#d13c32"/>
        <path id="Path_120145" data-name="Path 120145" d="M332.362,135a2.378,2.378,0,0,0,.018-.635c-.01-.407-.036-1-.073-1.723-.077-1.453-.2-3.46-.367-5.674s-.328-4.219-.464-5.669c-.068-.724-.129-1.311-.178-1.716a2.388,2.388,0,0,0-.11-.627,2.359,2.359,0,0,0-.018.634c.01.407.036,1,.073,1.722.076,1.454.205,3.461.368,5.677s.328,4.22.463,5.67c.068.725.129,1.311.178,1.716a2.358,2.358,0,0,0,.11.626" transform="translate(-134.983 -48.317)" fill="#263238"/>
        <path id="Path_120146" data-name="Path 120146" d="M390.813,123.345c-.089-.021-.831,2.869-1.658,6.454s-1.426,6.509-1.337,6.53.831-2.869,1.658-6.455,1.426-6.509,1.337-6.529" transform="translate(-158.072 -50.098)" fill="#263238"/>
        <path id="Path_120147" data-name="Path 120147" d="M314.364,103.981c-.008.059.687.15,1.751.492a12.439,12.439,0,0,1,6.723,5.266c.589.953.845,1.607.9,1.584a1.429,1.429,0,0,0-.133-.477,7.929,7.929,0,0,0-.566-1.226,11.354,11.354,0,0,0-6.857-5.371,7.872,7.872,0,0,0-1.323-.254,1.432,1.432,0,0,0-.495-.014" transform="translate(-128.135 -42.227)" fill="#263238"/>
        <path id="Path_120148" data-name="Path 120148" d="M395.605,110.448a13.229,13.229,0,0,0-.81,4.084,13.227,13.227,0,0,0,.81-4.084" transform="translate(-160.906 -44.859)" fill="#263238"/>
        <path id="Path_120149" data-name="Path 120149" d="M308.264,141.506s5.425,21.562,6.012,23.4,1.642,6.816,6.879,7.58c7.071,1.032,34.5-1.4,34.5-1.4l-5.529-6.3-24.4-5.49-4.118-15.679Z" transform="translate(-125.649 -57.474)" fill="#ffbe9d"/>
        <path id="Path_120150" data-name="Path 120150" d="M379.1,174.475a1.54,1.54,0,0,0-.179.513,7.191,7.191,0,0,0-.2,1.467,8.4,8.4,0,0,0,1.231,4.694,9.794,9.794,0,0,0,1.688,2.1,5.261,5.261,0,0,0,1.9,1.128,5.123,5.123,0,0,0,1.462.25,1.6,1.6,0,0,0,.541-.046,11.058,11.058,0,0,1-1.925-.424,5.347,5.347,0,0,1-1.772-1.132,10.269,10.269,0,0,1-1.614-2.053,8.8,8.8,0,0,1-1.278-4.516c-.009-1.225.205-1.972.145-1.984" transform="translate(-154.365 -70.864)" fill="#eb996e"/>
        <path id="Path_120151" data-name="Path 120151" d="M321.68,135.238a2.62,2.62,0,0,1-.65-.063l-1.753-.257c-1.48-.214-3.532-.457-5.8-.751a57.511,57.511,0,0,1-5.775-1.006c-.73-.176-1.317-.336-1.716-.467a2.609,2.609,0,0,1-.612-.229c.014-.049.911.185,2.376.477s3.5.616,5.769.912,4.318.572,5.794.844c.738.135,1.333.256,1.74.357a2.593,2.593,0,0,1,.627.184" transform="translate(-124.471 -53.799)" fill="#fff"/>
        <path id="Path_120152" data-name="Path 120152" d="M321.286,123.833a1.94,1.94,0,0,1-.562.031c-.361,0-.883-.016-1.527-.048-1.288-.063-3.065-.2-5.018-.447s-3.711-.547-4.974-.8c-.632-.128-1.142-.241-1.491-.33a1.907,1.907,0,0,1-.537-.169,15.563,15.563,0,0,1,2.068.279c1.271.2,3.028.465,4.974.71s3.714.418,5,.538a15.533,15.533,0,0,1,2.072.241" transform="translate(-125.206 -49.575)" fill="#fff"/>
        <path id="Path_120153" data-name="Path 120153" d="M321.183,114.4a7.574,7.574,0,0,1-1.688-.014,35.146,35.146,0,0,1-7.995-1.5,7.666,7.666,0,0,1-1.579-.6,10.732,10.732,0,0,1,1.64.385c1,.26,2.4.6,3.951.889s2.973.485,4,.608a10.78,10.78,0,0,1,1.668.237" transform="translate(-126.324 -45.599)" fill="#fff"/>
        <path id="Path_120154" data-name="Path 120154" d="M336.919,102.735a11.559,11.559,0,0,1-1.9.568c-1.187.3-2.837.688-4.671,1.056s-3.505.649-4.718.825a11.523,11.523,0,0,1-1.974.21,13.168,13.168,0,0,1,1.937-.431l4.693-.915,4.682-.964a13.282,13.282,0,0,1,1.954-.349" transform="translate(-131.921 -41.723)" fill="#fff"/>
        <path id="Path_120155" data-name="Path 120155" d="M384.02,108.99a3.177,3.177,0,0,1-.679-.238l-1.809-.746c-1.525-.634-3.633-1.5-5.979-2.422s-4.484-1.711-6.035-2.281l-1.834-.681a3.213,3.213,0,0,1-.661-.286,3.13,3.13,0,0,1,.7.169c.444.128,1.083.328,1.868.587,1.57.516,3.726,1.278,6.076,2.2s4.449,1.824,5.953,2.512c.752.343,1.357.63,1.77.838a3.153,3.153,0,0,1,.629.351" transform="translate(-149.599 -41.563)" fill="#fff"/>
        <path id="Path_120156" data-name="Path 120156" d="M367.963,120.249a1.657,1.657,0,0,1-.37-.039l-1.051-.17-3.853-.675c-3.254-.569-7.747-1.36-12.746-1.965-2.5-.294-4.891-.5-7.067-.628-2.178-.112-4.141-.161-5.791-.134-.825-.007-1.57.034-2.225.052s-1.219.047-1.679.077l-1.062.053a1.68,1.68,0,0,1-.373,0,1.616,1.616,0,0,1,.367-.061l1.059-.113c.46-.049,1.024-.1,1.68-.131s1.4-.091,2.229-.1c1.653-.055,3.624-.03,5.81.066,2.184.113,4.583.31,7.089.605,5.012.606,9.506,1.433,12.749,2.059,1.622.314,2.932.582,3.836.774l1.039.229a1.677,1.677,0,0,1,.359.1" transform="translate(-135.22 -47.271)" fill="#fff"/>
        <path id="Path_120157" data-name="Path 120157" d="M353.027,136.684a4.024,4.024,0,0,1-.815-.019c-.523-.031-1.278-.1-2.211-.194-1.864-.192-4.432-.534-7.246-1.047s-5.338-1.105-7.15-1.585c-.906-.239-1.636-.445-2.136-.6a4.08,4.08,0,0,1-.769-.27,4.02,4.02,0,0,1,.8.151l2.158.5c1.822.423,4.346.976,7.153,1.491s5.362.888,7.216,1.137l2.2.293a4.021,4.021,0,0,1,.8.142" transform="translate(-135.609 -54.004)" fill="#fff"/>
        <path id="Path_120158" data-name="Path 120158" d="M380.48,139.493a114.416,114.416,0,0,1-12.043.114,114.442,114.442,0,0,1,12.043-.114" transform="translate(-150.175 -56.611)" fill="#fff"/>
        <path id="Path_120159" data-name="Path 120159" d="M349.077,151.339a2.622,2.622,0,0,1-.656-.03c-.42-.039-1.025-.113-1.771-.22-1.492-.213-3.544-.577-5.785-1.1s-4.241-1.113-5.672-1.586c-.716-.236-1.291-.439-1.685-.591a2.668,2.668,0,0,1-.6-.264,2.608,2.608,0,0,1,.639.147l1.711.494c1.444.416,3.447.967,5.679,1.491s4.269.92,5.748,1.188l1.752.319a2.632,2.632,0,0,1,.639.152" transform="translate(-135.694 -59.926)" fill="#fff"/>
        <path id="Path_120160" data-name="Path 120160" d="M374.9,153.823a9.926,9.926,0,0,1-1.908.02c-1.177-.043-2.8-.161-4.586-.393s-3.385-.535-4.534-.8a9.972,9.972,0,0,1-1.839-.507,13.226,13.226,0,0,1,1.883.288c1.157.2,2.756.469,4.531.7s3.389.384,4.559.483a13.222,13.222,0,0,1,1.894.2" transform="translate(-147.563 -61.792)" fill="#fff"/>
        <path id="Path_120161" data-name="Path 120161" d="M361.647,166.877a.8.8,0,0,1-.241.1c-.161.051-.4.135-.708.215a23.077,23.077,0,0,1-2.666.555,34.682,34.682,0,0,1-8.968.075,69.977,69.977,0,0,1-8.817-1.657c-1.114-.275-2.011-.511-2.63-.682a5.945,5.945,0,0,1-.953-.3,6.02,6.02,0,0,1,.982.176l2.652.584a85.408,85.408,0,0,0,8.8,1.56,37.8,37.8,0,0,0,8.9.018c1.133-.144,2.043-.317,2.668-.453a6.962,6.962,0,0,1,.978-.192" transform="translate(-137.225 -67.089)" fill="#fff"/>
        <path id="Path_120162" data-name="Path 120162" d="M397.8,130.426a18.6,18.6,0,0,1-3,.245,11.9,11.9,0,0,1-3.019-.071,18.5,18.5,0,0,1,3-.245,11.838,11.838,0,0,1,3.019.071" transform="translate(-159.69 -52.929)" fill="#fff"/>
        <path id="Path_120163" data-name="Path 120163" d="M398.347,118.124a8.605,8.605,0,0,1-3.279-.214,8.6,8.6,0,0,1,3.279.214" transform="translate(-161.03 -47.856)" fill="#fff"/>
        <path id="Path_120164" data-name="Path 120164" d="M358.262,147.385c-.029-.054.621-.378,1.506-1.115a10.491,10.491,0,0,0,1.412-1.439,10.747,10.747,0,0,0,2.126-4.413,10.507,10.507,0,0,0,.246-2c.026-1.154-.126-1.865-.065-1.875a1.584,1.584,0,0,1,.14.491,3.781,3.781,0,0,1,.095.591,6.235,6.235,0,0,1,.054.793,9.418,9.418,0,0,1-.185,2.064,10.193,10.193,0,0,1-2.186,4.539,9.474,9.474,0,0,1-1.5,1.429,6.442,6.442,0,0,1-.654.451,3.867,3.867,0,0,1-.521.294,1.579,1.579,0,0,1-.472.2" transform="translate(-146.028 -55.456)" fill="#263238"/>
        <g id="Group_166260" data-name="Group 166260" transform="translate(208.833 86.147)" opacity="0.3">
          <g id="Group_166259" data-name="Group 166259">
            <g id="Group_166258" data-name="Group 166258" clip-path="url(#clip-path-12)">
              <path id="Path_120165" data-name="Path 120165" d="M361,145.067l-2.309,3.43a10.942,10.942,0,0,1-6.172,3.855,6.464,6.464,0,0,0,8.48-7.285" transform="translate(-352.521 -145.067)"/>
            </g>
          </g>
        </g>
        <path id="Path_120166" data-name="Path 120166" d="M373.905,70.009a11.448,11.448,0,0,0,6.358-1.3,13.513,13.513,0,0,1-5.551-8.163,60.235,60.235,0,0,1-2.036-12.19l-5.247,23.378a14.1,14.1,0,0,0,8.327-.646,2.3,2.3,0,0,1-1.851-1.081" transform="translate(-149.764 -19.641)" fill="#263238"/>
        <path id="Path_120167" data-name="Path 120167" d="M341.794,81.071a16.509,16.509,0,0,1-1.268-8.358l-10.581-4.02a18.748,18.748,0,0,1-3.375,7.972c-.647.879-1.416,1.9-1.113,2.948a2.21,2.21,0,0,0,1.641,1.406,6.507,6.507,0,0,0,2.248.028L328,82.523a81.08,81.08,0,0,1,13.8-1.452" transform="translate(-132.629 -27.9)" fill="#263238"/>
        <path id="Path_120168" data-name="Path 120168" d="M344.127,30.7c-3.337-.346-6.154,1.118-8.815,3.166a17.111,17.111,0,0,0-5.505,18.645A12.536,12.536,0,0,0,350.3,57.743a16.66,16.66,0,0,0,5.4-12.955,16,16,0,0,0-3.136-9.315,12.135,12.135,0,0,0-8.436-4.772" transform="translate(-134.069 -12.449)" fill="#263238"/>
        <path id="Path_120169" data-name="Path 120169" d="M339.744,42.6c.4-1.3.121-2.7.224-4.052.228-2.981,2.447-5.5,5.118-6.837,2.484-1.239,5.619-1.21,8.761-.415a11.762,11.762,0,0,1,5.735,3.232,9.312,9.312,0,0,1,2.245,8.219l-15.219-1.211a16.847,16.847,0,0,1-4.371,3.313,3.113,3.113,0,0,1-1.557.355,1.407,1.407,0,0,1-1.236-.893,3,3,0,0,1,.3-1.711" transform="translate(-138.336 -12.483)" fill="#263238"/>
        <path id="Path_120170" data-name="Path 120170" d="M354.395,38.642,341.416,42.3a2.468,2.468,0,0,0-2.137,2.562L341.3,73.4a8.894,8.894,0,0,0,2.207,5.263l1.361,1.54a6.5,6.5,0,0,0,10.792-1.521,3.154,3.154,0,0,0,.254-.767,5.946,5.946,0,0,0,.082-.653,20.748,20.748,0,0,0-.054-4.339c-.038-2.551-.066-3.6-.064-3.573,0,0,5.342-1.036,6.268-8.083.46-3.5.134-9.222-.284-13.891-.376-4.2-3.3-9.294-7.468-8.739" transform="translate(-138.289 -15.678)" fill="#ffbe9d"/>
        <path id="Path_120171" data-name="Path 120171" d="M371.954,60.415a.9.9,0,0,1-.842.931.858.858,0,0,1-.947-.786.9.9,0,0,1,.841-.932.86.86,0,0,1,.948.787" transform="translate(-150.879 -24.217)" fill="#263238"/>
        <path id="Path_120172" data-name="Path 120172" d="M373,57.838c-.108.121-.8-.365-1.768-.338s-1.661.531-1.769.416c-.053-.051.055-.266.357-.5a2.461,2.461,0,0,1,1.412-.479,2.366,2.366,0,0,1,1.411.416c.3.22.409.43.356.484" transform="translate(-150.59 -23.126)" fill="#263238"/>
        <path id="Path_120173" data-name="Path 120173" d="M356.516,61.227a.9.9,0,0,1-.842.931.859.859,0,0,1-.947-.787.9.9,0,0,1,.841-.932.86.86,0,0,1,.948.787" transform="translate(-144.587 -24.547)" fill="#263238"/>
        <path id="Path_120174" data-name="Path 120174" d="M356.982,58.569c-.108.121-.8-.366-1.768-.337s-1.661.531-1.769.415c-.053-.051.054-.265.358-.5a2.459,2.459,0,0,1,1.412-.478,2.364,2.364,0,0,1,1.411.416c.3.22.409.43.356.484" transform="translate(-144.059 -23.423)" fill="#263238"/>
        <path id="Path_120175" data-name="Path 120175" d="M365.207,65.611a6.417,6.417,0,0,1,1.562-.325c.246-.031.478-.087.515-.257a1.262,1.262,0,0,0-.184-.729l-.78-1.864a32.43,32.43,0,0,1-1.769-4.881,32.338,32.338,0,0,1,2.157,4.728q.392.981.749,1.875a1.433,1.433,0,0,1,.154.967.623.623,0,0,1-.4.373,1.661,1.661,0,0,1-.417.069,6.22,6.22,0,0,1-1.591.045" transform="translate(-148.588 -23.376)" fill="#263238"/>
        <path id="Path_120176" data-name="Path 120176" d="M360.808,88.846a17.777,17.777,0,0,1-9.442-2.257s2.486,4.8,9.475,3.951Z" transform="translate(-143.217 -35.169)" fill="#eb996e"/>
        <path id="Path_120177" data-name="Path 120177" d="M363.108,74.644a1.739,1.739,0,0,0-1.578-.606,1.59,1.59,0,0,0-1.082.619,1.012,1.012,0,0,0-.046,1.156,1.168,1.168,0,0,0,1.275.287,3.656,3.656,0,0,0,1.215-.772,1.058,1.058,0,0,0,.268-.293.324.324,0,0,0-.011-.36" transform="translate(-146.835 -30.065)" fill="#eb996e"/>
        <path id="Path_120178" data-name="Path 120178" d="M360.8,72.377c.157-.014.187,1.037,1.1,1.76s2.03.577,2.042.723c.017.066-.243.211-.714.236a2.607,2.607,0,0,1-1.7-.545,2.281,2.281,0,0,1-.858-1.477c-.052-.438.059-.7.13-.7" transform="translate(-147.003 -29.396)" fill="#263238"/>
        <path id="Path_120179" data-name="Path 120179" d="M356.541,53.783c-.088.265-1.056.167-2.186.334-1.133.144-2.038.5-2.195.269-.07-.111.082-.363.445-.628a3.837,3.837,0,0,1,3.338-.46c.421.157.635.359.6.485" transform="translate(-143.534 -21.569)" fill="#263238"/>
        <path id="Path_120180" data-name="Path 120180" d="M372.517,50.68c-.164.224-.836.014-1.636.024-.8-.017-1.474.187-1.636-.039-.072-.11.03-.333.32-.549a2.367,2.367,0,0,1,2.637.011c.289.219.388.443.316.552" transform="translate(-150.496 -20.195)" fill="#263238"/>
        <path id="Path_120181" data-name="Path 120181" d="M335.438,40.8c1.1-4.107,6.7-9.972,10.943-9.868l6.936,3.751a6.536,6.536,0,0,1-4.194,5.2c-1.177.419-2.61.585-3.274,1.646-.677,1.084-.184,2.6-.809,3.709-.867,1.545-3.426,1.59-4.054,3.247-.274.724-.076,1.565-.363,2.283-.382.958-2.7,2.255-3.692,1.989s-1.073-1.939-1.433-2.8a4.652,4.652,0,0,1-.283-3.1c.336-2-.3-4.09.222-6.049" transform="translate(-136.576 -12.563)" fill="#263238"/>
        <path id="Path_120182" data-name="Path 120182" d="M339.747,67.589c-.015-.523-.65-1.738-1.168-1.805-1.38-.178-3.855,0-3.785,3.5.1,4.786,4.868,3.7,4.874,3.565,0-.107.132-3.454.079-5.258" transform="translate(-136.462 -26.7)" fill="#ffbe9d"/>
        <path id="Path_120183" data-name="Path 120183" d="M339.009,72.13c-.021-.015-.082.06-.221.128a.831.831,0,0,1-.621.025,2.063,2.063,0,0,1-.989-1.831,2.764,2.764,0,0,1,.209-1.2A.96.96,0,0,1,338,68.6a.424.424,0,0,1,.5.218c.066.133.038.229.063.236s.1-.082.059-.279a.532.532,0,0,0-.194-.3.628.628,0,0,0-.462-.113,1.171,1.171,0,0,0-.854.76,2.834,2.834,0,0,0-.262,1.34,2.165,2.165,0,0,0,1.254,2.042.891.891,0,0,0,.758-.142c.145-.121.168-.229.152-.237" transform="translate(-137.297 -27.765)" fill="#eb996e"/>
        <path id="Path_120184" data-name="Path 120184" d="M327.354,43.767h0c-.082-1.494-2.005-2.348-3.478-2.591a6.192,6.192,0,0,0-4.236,1.1,3.06,3.06,0,0,0-1.582,1.985c-.115.868.774,1.834,1.569,1.475a2.832,2.832,0,1,0,3.049,4.659,6.337,6.337,0,0,1-2.253,3.549,7.11,7.11,0,0,0,6.932-10.178" transform="translate(-129.591 -16.7)" fill="#263238"/>
        <path id="Path_120185" data-name="Path 120185" d="M319.8,76.05c.023-.227.617-.331,1.469-.587a8.3,8.3,0,0,0,5.154-4.038c.453-.767.7-1.32.922-1.287.2.024.358.675.117,1.7a6.36,6.36,0,0,1-6.047,4.738c-1.047-.012-1.64-.319-1.614-.523" transform="translate(-130.352 -28.487)" fill="#263238"/>
        <path id="Path_120186" data-name="Path 120186" d="M328.884,52.445a4.289,4.289,0,0,1-.271-1.42,10.551,10.551,0,0,1,1.765-6.661,4.273,4.273,0,0,1,.938-1.1,15.936,15.936,0,0,0-2.075,4.361,15.988,15.988,0,0,0-.357,4.819" transform="translate(-133.93 -17.572)" fill="#d13c32"/>
        <path id="Path_120187" data-name="Path 120187" d="M363.378,34.868c.565,1.914,3.673,4.212,5.064,5.639,2.655,2.724,3.2,3.65,3.6,10.1a13.723,13.723,0,0,0,1.515-7.054,10.443,10.443,0,0,0-3.2-6.66,8.091,8.091,0,0,0-6.977-2.028" transform="translate(-148.113 -14.1)" fill="#263238"/>
        <path id="Path_120188" data-name="Path 120188" d="M400.853,124.651s-3.188,13.274-4.5,19.006c-1.393,6.09-4.41,19.913-12.494,17.912-6.149-1.522-4.781-9.479-4.781-9.479l5.252-18.274,4.859.552,4.461-11.006,4.807-5.079Z" transform="translate(-154.46 -48.042)" fill="#ffbe9d"/>
        <path id="Path_120189" data-name="Path 120189" d="M382.476,163.429a6.784,6.784,0,0,1-.158-2.956,9.225,9.225,0,0,1,1.136-3.006,26.047,26.047,0,0,1,2.348-3.219,25.682,25.682,0,0,0,2.355-3.274A19.769,19.769,0,0,0,389.588,148a17.93,17.93,0,0,0,.667-2.118,3.319,3.319,0,0,0,.146-.8,4.635,4.635,0,0,0-.269.766c-.162.5-.4,1.21-.759,2.067a21.894,21.894,0,0,1-1.475,2.9,27.736,27.736,0,0,1-2.351,3.223,24.294,24.294,0,0,0-2.355,3.275,9.051,9.051,0,0,0-1.1,3.121,5.755,5.755,0,0,0,.091,2.23,3.915,3.915,0,0,0,.2.575c.056.127.09.191.1.187" transform="translate(-155.712 -58.927)" fill="#eb996e"/>
        <path id="Path_120190" data-name="Path 120190" d="M403.121,121.329c0-.234.117-4.1.194-5.111a5.213,5.213,0,0,1,.53-1.832,1.549,1.549,0,0,1,2.416-.429l.087.079a6.821,6.821,0,0,1,1.905-2.3c1.128-.741,2.061-1.247,3.033-.663a1.681,1.681,0,0,1,.934,1.4s1.438-.195,2.06.389,0,2.339,0,2.339,1.283-.39,1.594.546a2.593,2.593,0,0,1-.272,1.91s1.011.312,1.127,1.052-1.011,1.559-1.011,1.559l-3.509,2.8a6.682,6.682,0,0,1-2.71,3.589c-2.441.943-6.378-5.331-6.378-5.331" transform="translate(-164.313 -45.01)" fill="#ffbe9d"/>
        <path id="Path_120191" data-name="Path 120191" d="M406.417,121.478c.038.016.032.149-.072.331a1.241,1.241,0,0,1-1.422.549c-.2-.066-.291-.16-.274-.2.033-.082.482.062.965-.128s.723-.592.8-.553" transform="translate(-164.935 -49.338)" fill="#eb996e"/>
        <path id="Path_120192" data-name="Path 120192" d="M412.022,114.734c-.052.07-.387-.164-.449-.625s.2-.778.264-.724,0,.335.049.681.2.606.136.669" transform="translate(-167.753 -46.049)" fill="#eb996e"/>
        <path id="Path_120193" data-name="Path 120193" d="M418.3,118.19c.028.03-.251.361-.78.818a21.927,21.927,0,0,1-2.185,1.608,3.375,3.375,0,0,1-1.4.65,1.266,1.266,0,0,1-1.21-.442.891.891,0,0,1-.095-.867c.1-.194.217-.238.225-.224s-.064.1-.11.268a.8.8,0,0,0,.158.689,1.063,1.063,0,0,0,.99.288,3.388,3.388,0,0,0,1.262-.625c.879-.584,1.669-1.111,2.222-1.52a5.565,5.565,0,0,1,.918-.643" transform="translate(-168.163 -48.003)" fill="#eb996e"/>
        <path id="Path_120194" data-name="Path 120194" d="M420.062,122.363a22.391,22.391,0,0,1-3.349,1.706,3.386,3.386,0,0,1-1.451.427,1.145,1.145,0,0,1-1.088-.648.676.676,0,0,1-.005-.523.618.618,0,0,1,.253-.292c.193-.106.319-.049.312-.034s-.112.023-.241.135a.508.508,0,0,0-.114.624.926.926,0,0,0,.884.448,3.4,3.4,0,0,0,1.319-.424,22.437,22.437,0,0,1,3.48-1.417" transform="translate(-168.795 -49.696)" fill="#eb996e"/>
        <path id="Path_120195" data-name="Path 120195" d="M419.618,126.627c.016.036-.19.179-.578.276a2.657,2.657,0,0,1-.7.074,1.883,1.883,0,0,1-.872-.2.532.532,0,0,1-.257-.5.871.871,0,0,1,.193-.433,2.834,2.834,0,0,1,.5-.491c.319-.239.556-.315.575-.279s-.167.183-.428.448a3.972,3.972,0,0,0-.413.493c-.135.2-.184.4,0,.5a1.937,1.937,0,0,0,.717.173,3.482,3.482,0,0,0,.643,0c.368-.034.6-.1.615-.055" transform="translate(-170.055 -50.795)" fill="#eb996e"/>
        <path id="Path_120196" data-name="Path 120196" d="M411.693,126.645a2.872,2.872,0,1,0-3.64,2.665l-.03.8.783.591-.822.46-.038,1,.783.591-.822.46-.032.861.477.36-.5.28-.018.5.594.678,1.188-.707.223-5.956a2.877,2.877,0,0,0,1.856-2.586m-2.791-2.21a.826.826,0,1,1-.854.794.825.825,0,0,1,.854-.794" transform="translate(-165.466 -50.225)" fill="#263238"/>
        <path id="Path_120197" data-name="Path 120197" d="M410.323,124.961c0,.008-.073,0-.2.032a.819.819,0,0,0-.448.286.793.793,0,1,0,1.268.048.819.819,0,0,0-.425-.318c-.123-.039-.2-.039-.2-.047a.143.143,0,0,1,.053,0,.656.656,0,0,1,.15.022.822.822,0,0,1,.459.316.854.854,0,1,1-1.349-.05.816.816,0,0,1,.481-.28.636.636,0,0,1,.152-.011.149.149,0,0,1,.053.007" transform="translate(-166.887 -50.751)" fill="#263238"/>
        <path id="Path_120198" data-name="Path 120198" d="M411.672,126.63a.523.523,0,0,1,0,.057c0,.041-.005.1-.01.169a3.019,3.019,0,0,1-.145.644,2.9,2.9,0,0,1-1.692,1.736l.014-.02c-.055,1.539-.128,3.584-.212,5.956v.018l-.015.008-1.187.708-.025.015-.018-.022-.595-.676-.008-.01V135.2c.005-.155.012-.327.018-.5v-.02l.017-.009.5-.281,0,.059-.476-.36-.015-.011v-.018c.01-.271.021-.565.033-.862v-.019l.018-.01.822-.46,0,.059-.782-.591-.015-.011v-.018c0-.084.007-.175.01-.266q.013-.37.028-.736v-.02l.018-.01.822-.46,0,.059c-.264-.2-.524-.4-.782-.591l-.015-.011v-.018c.01-.269.021-.537.031-.8l.025.036a2.946,2.946,0,0,1-1.187-.666,2.94,2.94,0,0,1-.739-1.086,2.9,2.9,0,0,1,3.642-3.8,2.89,2.89,0,0,1,1.263.872,2.841,2.841,0,0,1,.552,1.014l.034.11.022.106c.014.069.031.132.039.193.01.121.028.223.027.305s0,.143,0,.189,0,.064,0,.064,0-.022,0-.064,0-.107-.005-.188-.021-.183-.033-.3c-.009-.059-.027-.123-.041-.191-.008-.034-.015-.069-.023-.106l-.036-.108a2.848,2.848,0,1,0-5.372,1.883,2.768,2.768,0,0,0,.3.565,2.7,2.7,0,0,0,.426.493,2.87,2.87,0,0,0,1.158.648l.027.008v.027q-.015.4-.03.8l-.014-.03.783.591.043.033-.047.026-.822.46.019-.029c-.009.243-.019.489-.028.735,0,.091-.007.182-.01.266l-.014-.03.783.591.044.033-.048.026-.822.461.019-.03c-.012.3-.022.591-.033.862l-.015-.03.477.36.043.033-.046.026-.5.28.017-.029c-.007.173-.013.346-.018.5l-.009-.025c.206.236.409.467.594.678l-.043-.007c.413-.244.816-.485,1.189-.706l-.017.027c.093-2.372.174-4.418.234-5.954V129.2l.014,0a2.886,2.886,0,0,0,1.685-1.7,3.206,3.206,0,0,0,.155-.637c.007-.073.012-.128.017-.169s.007-.057.007-.057" transform="translate(-165.446 -50.209)" fill="#263238"/>
        <path id="Path_120199" data-name="Path 120199" d="M411.19,126.369a2.872,2.872,0,1,0-3.64,2.665h0l-.03.8.783.591-.822.46-.038,1,.783.591-.822.46-.032.861.477.36-.5.28-.018.5.594.678,1.188-.707.223-5.956a2.877,2.877,0,0,0,1.856-2.586m-2.791-2.21a.826.826,0,1,1-.854.794.825.825,0,0,1,.854-.794" transform="translate(-165.261 -50.113)" fill="#f29d3c"/>
        <path id="Path_120200" data-name="Path 120200" d="M409.82,124.685c0,.008-.073,0-.2.032a.819.819,0,0,0-.448.286.793.793,0,1,0,1.268.048.819.819,0,0,0-.425-.318c-.123-.039-.2-.039-.2-.047a.143.143,0,0,1,.053,0,.631.631,0,0,1,.151.023.818.818,0,0,1,.459.315.853.853,0,0,1-1.227,1.163.852.852,0,0,1-.122-1.214.816.816,0,0,1,.481-.28.637.637,0,0,1,.152-.011.148.148,0,0,1,.053.007" transform="translate(-166.682 -50.639)" fill="#263238"/>
        <path id="Path_120201" data-name="Path 120201" d="M411.169,126.354s0,.02,0,.058-.006.1-.01.169a3.037,3.037,0,0,1-.145.644,2.9,2.9,0,0,1-1.692,1.735l.014-.02c-.055,1.538-.128,3.583-.213,5.956v.018l-.015.009-1.187.708-.024.014-.019-.021-.595-.676-.009-.01v-.014c.005-.156.012-.327.018-.5v-.02l.017-.01.5-.281,0,.059-.477-.36-.015-.011v-.018c.01-.271.021-.564.032-.861v-.02l.018-.01.822-.46,0,.06-.783-.591-.015-.011v-.018c0-.084.006-.175.01-.266q.013-.37.027-.736v-.02l.017-.01.822-.46,0,.06-.783-.591-.015-.011v-.019c.011-.269.021-.536.03-.8l.026.035a2.932,2.932,0,0,1-1.187-.666,2.768,2.768,0,0,1-.435-.506,2.861,2.861,0,0,1-.305-.579,2.9,2.9,0,0,1,3.643-3.8,2.89,2.89,0,0,1,1.263.872,2.847,2.847,0,0,1,.552,1.014l.034.11c.007.037.015.072.022.107.014.069.031.132.038.192.011.121.028.223.027.306s0,.143,0,.188,0,.064,0,.064,0-.021,0-.064,0-.107-.005-.188-.021-.184-.033-.3c-.008-.059-.026-.123-.04-.191l-.024-.106-.036-.109a2.848,2.848,0,1,0-5.371,1.884,2.767,2.767,0,0,0,.3.565,2.732,2.732,0,0,0,.425.493,2.87,2.87,0,0,0,1.159.648l.027.008v.027q-.015.4-.03.8l-.014-.03.783.59.044.033-.048.027-.822.46.018-.03c-.009.243-.018.489-.027.736,0,.091-.007.182-.01.265l-.014-.03.783.591.044.033-.048.027-.822.46.018-.03c-.011.3-.023.59-.033.861l-.014-.03.477.36.043.033-.047.026-.5.28.017-.029-.019.5-.008-.024.594.678-.043-.007,1.188-.706-.016.027c.093-2.372.174-4.417.234-5.954v-.015l.013,0a2.882,2.882,0,0,0,1.685-1.7,3.19,3.19,0,0,0,.155-.637c.007-.072.012-.128.016-.169s.007-.057.007-.057" transform="translate(-165.241 -50.097)" fill="#263238"/>
        <path id="Path_120202" data-name="Path 120202" d="M411.056,126.64a3.976,3.976,0,0,0-.069-.618,2.441,2.441,0,0,0-.257-.679,2.5,2.5,0,0,0-2.961-1.177,2.331,2.331,0,0,0-.643.317,2.286,2.286,0,0,0-.546.511,2.493,2.493,0,0,0-.111,2.952,2.879,2.879,0,0,0,.233.3,2.794,2.794,0,0,0,.274.252,2.35,2.35,0,0,0,.618.365,2.505,2.505,0,0,0,3.041-.952,2.42,2.42,0,0,0,.307-.657,4.015,4.015,0,0,0,.116-.611.182.182,0,0,1,0,.041l-.007.121a1.191,1.191,0,0,1-.024.2,1.758,1.758,0,0,1-.058.262,2.393,2.393,0,0,1-.3.671,2.547,2.547,0,0,1-1.76,1.149,2.55,2.55,0,0,1-1.339-.158,2.4,2.4,0,0,1-.636-.372,2.344,2.344,0,0,1-.522-.565,2.557,2.557,0,0,1,.114-3.035,2.335,2.335,0,0,1,.562-.524,2.418,2.418,0,0,1,.662-.324,2.555,2.555,0,0,1,1.348-.056,2.549,2.549,0,0,1,1.669,1.278,2.392,2.392,0,0,1,.249.692,1.774,1.774,0,0,1,.038.266,1.122,1.122,0,0,1,.009.2c0,.05,0,.09,0,.121a.168.168,0,0,1,0,.041" transform="translate(-165.473 -50.356)" fill="#263238"/>
        <path id="Path_120203" data-name="Path 120203" d="M410.64,125.449c-.008,0,0-.087-.035-.235a.967.967,0,0,0-.333-.529.937.937,0,0,0-.882-.162.924.924,0,0,0-.443.311.93.93,0,0,0-.041,1.1.92.92,0,0,0,.419.343.934.934,0,0,0,.89-.1.964.964,0,0,0,.373-.5c.044-.145.044-.232.052-.231a.211.211,0,0,1,0,.062.781.781,0,0,1-.027.176.966.966,0,0,1-.37.537.98.98,0,0,1-.423.175.992.992,0,0,1-.974-.424,1,1,0,0,1,.044-1.185.981.981,0,0,1,.478-.33,1,1,0,0,1,.525-.02.972.972,0,0,1,.408.206.962.962,0,0,1,.329.562.765.765,0,0,1,.014.179.206.206,0,0,1-.006.062" transform="translate(-166.576 -50.532)" fill="#263238"/>
        <path id="Path_120204" data-name="Path 120204" d="M411.018,138.879c-.02,0,.015-1.358.078-3.03s.129-3.028.149-3.027-.015,1.358-.078,3.03-.13,3.027-.149,3.027" transform="translate(-167.529 -53.947)" fill="#263238"/>
        <path id="Path_120205" data-name="Path 120205" d="M410.583,122.674a.412.412,0,0,1-.384,0v-3.65l.384.027Z" transform="translate(-167.198 -48.343)" fill="#e0e0e0"/>
        <path id="Path_120206" data-name="Path 120206" d="M410.381,122.725a.443.443,0,0,1-.2-.049l-.009,0V119l.415.028v3.647l-.009,0a.445.445,0,0,1-.2.049m-.177-.072a.4.4,0,0,0,.354,0v-3.6l-.354-.024Z" transform="translate(-167.187 -48.332)" fill="#263238"/>
        <path id="Path_120207" data-name="Path 120207" d="M406.466,116a8.826,8.826,0,0,0,1.028.756,1.367,1.367,0,0,1,.624,1.061,1.283,1.283,0,0,1-.759,1,2.395,2.395,0,0,1-3.209-.964" transform="translate(-164.732 -47.115)" fill="#ffbe9d"/>
        <path id="Path_120208" data-name="Path 120208" d="M404.147,117.856a6.048,6.048,0,0,0,.8.722,2.333,2.333,0,0,0,2.4.067,1.009,1.009,0,0,0,.6-1.032,1.63,1.63,0,0,0-.658-.863c-.56-.382-.874-.713-.828-.748.028-.017.35.22.955.565a1.761,1.761,0,0,1,.814.979,1.048,1.048,0,0,1-.124.8,1.678,1.678,0,0,1-.6.576,2.507,2.507,0,0,1-1.513.307,2.378,2.378,0,0,1-1.166-.464c-.576-.445-.71-.9-.678-.906" transform="translate(-164.729 -47.115)" fill="#eb996e"/>
        <path id="Path_120209" data-name="Path 120209" d="M412.776,113.424A14.377,14.377,0,0,0,411,116.036a2.2,2.2,0,0,0-.266.936.84.84,0,0,0,1.243.824,2.525,2.525,0,0,0,.677-.485,16.3,16.3,0,0,0,2.2-2.454,2.546,2.546,0,0,0,.393-.7.967.967,0,0,0-.05-.779" transform="translate(-167.417 -46.051)" fill="#ffbe9d"/>
        <path id="Path_120210" data-name="Path 120210" d="M415.1,113.381c.01-.013.151.122.169.443a1.955,1.955,0,0,1-.486,1.187,14.187,14.187,0,0,1-1.174,1.461c-.238.261-.5.526-.777.79a2.951,2.951,0,0,1-1.005.72,1.114,1.114,0,0,1-.685.017.906.906,0,0,1-.518-.444,1.438,1.438,0,0,1-.024-1.189,7.589,7.589,0,0,1,.944-1.64,6.946,6.946,0,0,1,1.126-1.3,13.815,13.815,0,0,1-.942,1.431,8.423,8.423,0,0,0-.853,1.609,1.157,1.157,0,0,0,.02.944.652.652,0,0,0,.833.276,2.781,2.781,0,0,0,.892-.647c.277-.257.536-.512.776-.763a17.98,17.98,0,0,0,1.207-1.395,2,2,0,0,0,.543-1.056,2.069,2.069,0,0,0-.046-.441" transform="translate(-167.314 -46.05)" fill="#eb996e"/>
      </g>
    </g>
    <g id="Group_166264" data-name="Group 166264">
      <g id="Group_166263" data-name="Group 166263" clip-path="url(#clip-path-13)">
        <path id="Path_120211" data-name="Path 120211" d="M257.125,434.812c0,.181-57.564.327-128.557.327C57.552,435.138,0,434.993,0,434.812s57.552-.327,128.569-.327c70.993,0,128.557.146,128.557.327" transform="translate(0 -320.215)" fill="#263238"/>
      </g>
    </g>
    <g id="Group_166266" data-name="Group 166266">
      <g id="Group_166265" data-name="Group 166265" clip-path="url(#clip-path-2)">
        <path id="Path_120212" data-name="Path 120212" d="M44.965,274.2c5.638-8.645,5.421-21.281-1.313-29.1-2.09-2.426-5.011-4.535-8.2-4.262-3.262.28-5.891,3.085-6.884,6.213s-.649,6.517-.066,9.747c.817,4.523,2.184,9.15,5.314,12.509s7.122,7.1,11.146,4.892" transform="translate(-11.389 -97.807)" fill="#ff725e"/>
        <path id="Path_120213" data-name="Path 120213" d="M44.7,355.511a12.939,12.939,0,0,0-3.593-14.671c-1.3-1.06-2.992-1.881-4.608-1.451a4.484,4.484,0,0,0-2.985,3.826,10.66,10.66,0,0,0,.847,5.027,12.7,12.7,0,0,0,3.868,5.962c1.916,1.446,4.6,2.806,6.471,1.306" transform="translate(-13.636 -137.798)" fill="#ff725e"/>
        <path id="Path_120214" data-name="Path 120214" d="M75.16,347.272a18.711,18.711,0,0,1,9.4-19.729c2.148-1.119,4.793-1.783,6.957-.7,2.217,1.113,3.282,3.824,3.106,6.3a15.415,15.415,0,0,1-2.678,6.875c-1.838,2.952-4.092,5.823-7.233,7.307s-7.339,2.621-9.553-.059" transform="translate(-30.5 -132.526)" fill="#ff725e"/>
        <path id="Path_120215" data-name="Path 120215" d="M73.2,308.7c-2.7-8.732,1.877-19.32,9.506-24.33,2.368-1.555,5.366-2.637,8.011-1.627,2.709,1.034,4.265,4.063,4.35,6.966a18.035,18.035,0,0,1-2.31,8.311c-1.793,3.65-4.08,7.254-7.558,9.349s-9.109,4.188-12,1.331" transform="translate(-29.519 -114.679)" fill="#ff725e"/>
        <path id="Path_120216" data-name="Path 120216" d="M64.581,373.725a1.929,1.929,0,0,0,.088-.423c.047-.318.107-.721.181-1.218q.056-.4.122-.881.092-.483.2-1.039c.142-.745.288-1.6.532-2.52q.168-.7.351-1.456.22-.751.456-1.558c.29-1.084.72-2.2,1.122-3.4a59.582,59.582,0,0,1,7.719-14.417c.771-1,1.465-1.975,2.205-2.817l1.044-1.242,1.016-1.1c.633-.714,1.259-1.307,1.8-1.837l.752-.741.665-.588.912-.825a1.89,1.89,0,0,0,.3-.307,1.881,1.881,0,0,0-.35.249l-.959.773-.688.566-.777.722c-.557.518-1.2,1.1-1.848,1.807l-1.039,1.088L77.324,343.8c-.755.839-1.463,1.815-2.246,2.812a57.054,57.054,0,0,0-7.765,14.5c-.4,1.2-.816,2.336-1.1,3.43q-.227.814-.438,1.572-.172.765-.33,1.469c-.229.932-.358,1.791-.481,2.543l-.17,1.048q-.049.481-.091.888c-.046.5-.083.908-.113,1.229a1.883,1.883,0,0,0-.014.431" transform="translate(-26.321 -137.021)" fill="#263238"/>
        <path id="Path_120217" data-name="Path 120217" d="M64.353,358.646a.622.622,0,0,0,0-.174c-.01-.136-.023-.3-.037-.507-.044-.474-.1-1.122-.179-1.94q-.062-.636-.137-1.4c-.039-.513-.053-1.072-.084-1.672-.044-1.2-.159-2.564-.117-4.076q.005-1.135.011-2.372c.009-.824.086-1.68.128-2.567.059-1.777.3-3.66.514-5.646a81.01,81.01,0,0,1,7.338-24.807c.9-1.781,1.723-3.492,2.64-5.014.447-.767.848-1.526,1.289-2.222L77,304.256c.787-1.29,1.624-2.371,2.314-3.353.352-.486.668-.947.979-1.356l.877-1.1,1.2-1.529.306-.4a.6.6,0,0,0,.095-.146s-.046.037-.123.121l-.335.381-1.259,1.486-.9,1.081c-.32.4-.645.859-1.006,1.34-.708.973-1.563,2.046-2.367,3.332l-1.3,1.988c-.449.694-.857,1.453-1.312,2.219-.931,1.521-1.768,3.234-2.681,5.019a79.167,79.167,0,0,0-7.369,24.913c-.2,1.995-.435,3.887-.482,5.672-.036.891-.106,1.749-.107,2.577s.008,1.621.012,2.38c-.025,1.517.108,2.884.172,4.086.041.6.065,1.16.114,1.673s.118.976.17,1.4q.157,1.224.248,1.935c.03.2.054.367.074.5a.6.6,0,0,0,.037.169" transform="translate(-25.893 -120.373)" fill="#263238"/>
        <path id="Path_120218" data-name="Path 120218" d="M40.144,258.432a.626.626,0,0,0,.072.162l.243.454.964,1.725c.207.375.455.782.694,1.246l.755,1.521.869,1.745c.294.625.573,1.3.884,2s.641,1.432.953,2.208.613,1.594.936,2.435q.243.631.492,1.283.224.662.454,1.344l.944,2.806c1.195,3.874,2.327,8.188,3.284,12.769.925,4.589,1.575,9,2.055,13.032.411,4.035.715,7.678.8,10.746.078,1.533.094,2.92.1,4.139s.024,2.269,0,3.127c-.011.834-.021,1.495-.027,1.977,0,.207,0,.376,0,.514a.613.613,0,0,0,.014.176.667.667,0,0,0,.024-.175c.009-.137.021-.306.034-.513q.036-.723.1-1.976c.051-.859.067-1.91.067-3.131s.017-2.612-.044-4.148c-.05-3.075-.327-6.728-.721-10.774-.461-4.039-1.1-8.467-2.031-13.069-.959-4.594-2.1-8.918-3.321-12.8l-.961-2.811L47.3,273.1l-.5-1.284-.959-2.434c-.32-.776-.668-1.5-.978-2.206s-.608-1.372-.911-1.995l-.9-1.738-.784-1.51c-.249-.46-.507-.863-.724-1.233l-1.025-1.692-.274-.435a.61.61,0,0,0-.1-.141" transform="translate(-16.362 -104.964)" fill="#263238"/>
        <path id="Path_120219" data-name="Path 120219" d="M43.378,347.758a7.7,7.7,0,0,0,.6,1.055c.412.661.979,1.637,1.642,2.859s1.4,2.71,2.136,4.394c.72,1.691,1.441,3.582,2.073,5.608s1.088,4,1.445,5.8c.338,1.808.575,3.45.709,4.836s.222,2.511.254,3.289a7.661,7.661,0,0,0,.1,1.21,7.62,7.62,0,0,0,.045-1.214c.013-.781-.029-1.914-.137-3.309a48.9,48.9,0,0,0-.633-4.875,54.766,54.766,0,0,0-1.427-5.85,54.712,54.712,0,0,0-2.114-5.636,48.921,48.921,0,0,0-2.219-4.384c-.7-1.213-1.3-2.172-1.749-2.81a7.6,7.6,0,0,0-.72-.977" transform="translate(-17.68 -141.244)" fill="#263238"/>
        <path id="Path_120220" data-name="Path 120220" d="M66.238,392.044H41.471l3,25.358H63.153Z" transform="translate(-16.904 -159.232)" fill="#455a64"/>
        <path id="Path_120221" data-name="Path 120221" d="M65.907,430.136l-2.1,2.737H45.04l-2.163-2.65Z" transform="translate(-17.477 -174.703)" fill="#263238"/>
        <path id="Path_120222" data-name="Path 120222" d="M43.1,404.476c0,.1,5.14.185,11.478.185s11.48-.083,11.48-.185-5.138-.185-11.48-.185-11.478.083-11.478.185" transform="translate(-17.568 -164.206)" fill="#fafafa"/>
        <path id="Path_120223" data-name="Path 120223" d="M43.1,407.319c0,.1,5.14.185,11.478.185s11.48-.083,11.48-.185-5.138-.185-11.48-.185-11.478.083-11.478.185" transform="translate(-17.568 -165.361)" fill="#fafafa"/>
        <path id="Path_120224" data-name="Path 120224" d="M43.621,410.071c0,.1,4.96.185,11.077.185s11.077-.083,11.077-.185-4.958-.185-11.077-.185-11.077.083-11.077.185" transform="translate(-17.78 -166.479)" fill="#fafafa"/>
        <path id="Path_120225" data-name="Path 120225" d="M76.887,300.015a.853.853,0,0,0,0,.242c.015.186.034.413.056.688.064.635.15,1.489.255,2.526.226,2.132.555,5.076.935,8.324.014.124.029.248.042.363l.013.109.11,0c3.182.049,6.045.08,8.113.09H88.86l.664-.013a.791.791,0,0,0,.232-.021.846.846,0,0,0-.231-.028l-.663-.034-2.445-.078c-2.067-.055-4.931-.115-8.112-.166l.123.111c-.014-.115-.028-.239-.043-.363-.379-3.249-.737-6.189-1.008-8.316-.137-1.034-.25-1.885-.334-2.517-.041-.273-.075-.5-.1-.683a.885.885,0,0,0-.053-.236" transform="translate(-31.337 -121.854)" fill="#263238"/>
        <path id="Path_120226" data-name="Path 120226" d="M86.379,287.246a.913.913,0,0,0-.02.249c0,.191,0,.426-.006.711.006.656.014,1.54.024,2.616.031,2.21.092,5.261.174,8.631,0,.136.007.272.009.4l0,.132.132-.01a77.04,77.04,0,0,1,8.327-.188c1.062.033,1.919.076,2.511.107l.682.033a.12.12,0,1,0,0-.049c-.155-.021-.383-.05-.678-.079-.591-.061-1.448-.131-2.511-.187a65.562,65.562,0,0,0-8.354.113l.135.122c0-.126-.007-.262-.009-.4-.082-3.369-.171-6.421-.247-8.628-.043-1.075-.078-1.96-.1-2.615-.017-.284-.03-.52-.041-.71a.968.968,0,0,0-.031-.248" transform="translate(-35.198 -116.667)" fill="#263238"/>
        <path id="Path_120227" data-name="Path 120227" d="M96.06,282.9a4.459,4.459,0,0,0-.154.728c-.095.514-.218,1.185-.367,2-.322,1.685-.822,4.008-1.531,6.551l-.074.267.251-.121.3-.144a21.264,21.264,0,0,1,6.6-1.935c.879-.109,1.6-.149,2.091-.167a5.235,5.235,0,0,0,.772-.042.59.59,0,0,0-.2-.028c-.131-.008-.324-.026-.573-.028a17.731,17.731,0,0,0-2.11.088,20.033,20.033,0,0,0-6.691,1.886l-.3.146.177.145a63.838,63.838,0,0,0,1.461-6.587c.139-.849.235-1.536.29-2.013a4.215,4.215,0,0,0,.059-.742" transform="translate(-38.288 -114.9)" fill="#263238"/>
        <path id="Path_120228" data-name="Path 120228" d="M38.485,357.177c0,.038.718-.035,1.873-.081a31.393,31.393,0,0,1,4.5.147c.356.037.7.082,1.036.127l.118.016.021-.116c.267-1.5.492-2.825.642-3.774a10.362,10.362,0,0,0,.195-1.531,10.5,10.5,0,0,0-.355,1.5c-.194.942-.448,2.26-.725,3.759l.139-.1c-.335-.048-.686-.094-1.045-.132a25.171,25.171,0,0,0-4.541-.075c-.58.045-1.047.1-1.368.152a1.9,1.9,0,0,0-.495.106" transform="translate(-15.687 -142.953)" fill="#263238"/>
        <path id="Path_120229" data-name="Path 120229" d="M34.536,348.931c.009.04.694-.122,1.815-.261a19.686,19.686,0,0,1,4.4-.044c.267.027.528.062.776.1l.129.018.012-.128c.156-1.543.283-2.912.363-3.894a10.806,10.806,0,0,0,.081-1.584,10.658,10.658,0,0,0-.246,1.567c-.123.979-.28,2.343-.444,3.885l.142-.11c-.251-.036-.516-.072-.787-.1a17.049,17.049,0,0,0-4.445.118c-.563.091-1.012.2-1.32.277a1.827,1.827,0,0,0-.47.159" transform="translate(-14.077 -139.367)" fill="#263238"/>
        <path id="Path_120230" data-name="Path 120230" d="M31.7,274.052a1.172,1.172,0,0,0,.246.128l.723.322,2.678,1.143,8.873,3.684.479.2.113.046.049-.11,3.749-8.487,1.1-2.566.288-.7a1.077,1.077,0,0,0,.085-.252,1.149,1.149,0,0,0-.13.232l-.33.682L48.455,270.9l-3.818,8.454.162-.064-.479-.2-8.9-3.615-2.708-1.07-.742-.279a1.115,1.115,0,0,0-.265-.081" transform="translate(-12.923 -108.629)" fill="#263238"/>
        <path id="Path_120231" data-name="Path 120231" d="M28.041,256.134a1.136,1.136,0,0,0,.218.161l.649.42,2.418,1.511,8.067,4.931.129.079.053-.143.146-.39c1.315-3.557,2.5-6.775,3.38-9.144l1-2.781.259-.76a1.177,1.177,0,0,0,.075-.271,1.206,1.206,0,0,0-.122.254c-.079.2-.18.442-.3.745L42.936,253.5l-3.45,9.119-.146.39.182-.065-8.106-4.866-2.459-1.443-.674-.381a1.143,1.143,0,0,0-.243-.118" transform="translate(-11.429 -101.437)" fill="#263238"/>
        <path id="Path_120232" data-name="Path 120232" d="M29.241,246.722a3.451,3.451,0,0,0,.531.315c.348.192.852.477,1.463.857a26.1,26.1,0,0,1,4.489,3.521l.31.3-.1-.425c-.109-.444-.209-.912-.286-1.394a16.219,16.219,0,0,1,.35-6.616,18.929,18.929,0,0,1,.634-1.925,4.667,4.667,0,0,0,.265-.7,3.958,3.958,0,0,0-.355.66,14.609,14.609,0,0,0-.715,1.915,15.518,15.518,0,0,0-.427,6.7c.078.489.181.966.293,1.416l.207-.12a23.666,23.666,0,0,0-4.577-3.484c-.626-.363-1.144-.627-1.506-.8a3,3,0,0,0-.572-.235" transform="translate(-11.919 -97.746)" fill="#263238"/>
        <path id="Path_120233" data-name="Path 120233" d="M76.945,344.608a3.565,3.565,0,0,0,.114.642c.087.41.21,1,.345,1.744a42.929,42.929,0,0,1,.665,5.88l0,.113.113.007.554.034c2.456.148,4.68.269,6.29.344l1.908.075a3.8,3.8,0,0,0,.7-.007,3.66,3.66,0,0,0-.7-.091l-1.9-.155c-1.608-.12-3.83-.268-6.285-.417l-.555-.033.117.119a36.276,36.276,0,0,0-.746-5.9c-.158-.739-.308-1.33-.423-1.733a3.225,3.225,0,0,0-.2-.619" transform="translate(-31.361 -139.965)" fill="#263238"/>
        <path id="Path_120234" data-name="Path 120234" d="M85.158,332.83a3.451,3.451,0,0,0,.041.647c.053.46.12,1.052.2,1.764.18,1.494.447,3.568.759,5.893l.014.1.1.007.8.052c2.516.172,4.785.432,6.425.646l1.941.261a3.993,3.993,0,0,0,.716.072,3.9,3.9,0,0,0-.7-.169c-.454-.091-1.114-.211-1.932-.34-1.636-.26-3.909-.549-6.433-.72l-.8-.052.116.108c-.318-2.325-.614-4.394-.838-5.883-.111-.708-.2-1.3-.277-1.754a3.385,3.385,0,0,0-.133-.635" transform="translate(-34.708 -135.182)" fill="#263238"/>
        <path id="Path_120235" data-name="Path 120235" d="M94.829,327.758c-.036.009.114.682.291,1.79a32.164,32.164,0,0,1,.4,4.394l0,.14.139-.018.415-.053a38.479,38.479,0,0,1,4.678-.278l1.423.016a2.158,2.158,0,0,0,.525-.014,2.077,2.077,0,0,0-.519-.084c-.335-.036-.822-.074-1.426-.1a30.005,30.005,0,0,0-4.711.206l-.418.054.142.122a25.785,25.785,0,0,0-.479-4.419c-.111-.553-.219-1-.3-1.3a1.833,1.833,0,0,0-.157-.462" transform="translate(-38.65 -133.121)" fill="#263238"/>
        <path id="Path_120236" data-name="Path 120236" d="M39.75,339.535a21.9,21.9,0,0,0,1.105,2.519,21.791,21.791,0,0,0,1.191,2.479,11.674,11.674,0,0,0-.964-2.584,11.678,11.678,0,0,0-1.333-2.414" transform="translate(-16.2 -137.904)" fill="#263238"/>
        <path id="Path_120237" data-name="Path 120237" d="M34.5,345.067a25.7,25.7,0,0,1,2.815.572,25.664,25.664,0,0,1,2.644,1.125,6.426,6.426,0,0,0-2.57-1.365,6.412,6.412,0,0,0-2.889-.332" transform="translate(-14.061 -140.131)" fill="#263238"/>
      </g>
    </g>
  </g>
</svg>
