<svg width="205" height="118" viewBox="0 0 205 118" fill="none" xmlns="http://www.w3.org/2000/svg">
<mask id="mask0_1173_7874" style="mask-type:alpha" maskUnits="userSpaceOnUse" x="0" y="0" width="205" height="118">
<rect x="0.303711" width="204.393" height="118" fill="#D9D9D9"/>
</mask>
<g mask="url(#mask0_1173_7874)">
<path d="M35.7523 93.0018L43.7202 83.8838L46.3398 96.0351L55.8812 95.9034L49.0412 106.679L59.0602 112.805L46.6536 112.459L43.0926 123.09L34.3152 114.239L24.0779 121.046L25.0284 110.275L14.0635 108.327L21.854 102.996L17.8155 93.969L26.7202 95.8217L28.0755 83.9701L35.7523 93.0018Z" fill="white"/>
<path d="M35.7526 93.0018C35.7526 93.0018 35.5798 92.8111 35.2478 92.4205L33.7561 90.6859L28.0212 84.0109L28.1212 83.9791C27.7529 87.2531 27.2981 91.2445 26.7842 95.8307V95.917H26.6978L17.7885 94.1007L17.8931 93.9735L21.9407 103.001L21.9725 103.073L21.9043 103.123L14.1229 108.413L14.0819 108.223L25.0514 110.166H25.1515V110.266C24.8513 113.69 24.533 117.323 24.2055 121.037L24.0236 120.928L34.2609 114.117L34.3427 114.062L34.411 114.13L37.2989 117.046L43.2111 122.976L43.0155 123.021C44.2283 119.407 45.4153 115.865 46.5765 112.396L46.6038 112.314H46.6675L59.0696 112.659L59.0104 112.863L49.0051 106.733L48.9141 106.679L48.9687 106.593L55.8178 95.8262L55.8997 95.967L46.3491 96.085H46.2855V96.0214C45.2758 91.2808 44.4117 87.2288 43.6932 83.8656L43.7932 83.8928L37.8128 90.6859C37.1397 91.4488 36.6258 92.0482 36.2756 92.4205C35.9254 92.7929 35.7526 93.0018 35.7526 93.0018C35.7526 93.0018 35.9299 92.7884 36.2756 92.3933L37.7991 90.6269L43.675 83.8474L43.7523 83.7566L43.7796 83.8701C44.5073 87.2273 45.3865 91.2778 46.4174 96.0214L46.34 95.9579L55.8906 95.8126H56.0634L55.9679 95.9533L49.1461 106.733L49.1097 106.588L59.115 112.709L59.4698 112.923H59.0559L46.6675 112.577L46.7812 112.496L43.2247 123.126L43.1656 123.307L43.0292 123.171L37.1169 117.236L34.229 114.326H34.3791L24.1418 121.137L23.9372 121.273V121.028C24.2646 117.318 24.5875 113.685 24.8922 110.262L24.9832 110.384L14.0183 108.427L13.759 108.382L13.9773 108.232L21.7678 102.91L21.7315 103.037L17.702 94.0008L17.6293 93.8373L17.8066 93.8736L26.7068 95.7354L26.6113 95.808C27.1434 91.2399 27.6119 87.2349 27.9757 83.9609V83.8247L28.0621 83.9291L33.7106 90.6224L35.1886 92.3842C35.5843 92.7747 35.7526 93.0018 35.7526 93.0018Z" fill="#E0E0E0"/>
<path d="M32.7101 98.3056L32.9557 104.004C32.962 104.231 33.0527 104.446 33.21 104.609C33.3673 104.772 33.5799 104.871 33.8061 104.885C34.0433 104.908 34.28 104.838 34.4654 104.688C34.6508 104.539 34.7701 104.322 34.7976 104.086L35.548 98.3738C35.5608 98.2718 35.5519 98.1682 35.5217 98.0699C35.4915 97.9717 35.4408 97.8809 35.3729 97.8036C35.3049 97.7264 35.2214 97.6644 35.1277 97.6218C35.034 97.5792 34.9323 97.5569 34.8294 97.5564H33.4377C33.3402 97.5563 33.2437 97.5759 33.1539 97.6138C33.0641 97.6517 32.9829 97.7073 32.915 97.7772C32.8471 97.847 32.794 97.9298 32.7588 98.0206C32.7236 98.1114 32.707 98.2083 32.7101 98.3056Z" fill="#E0E0E0"/>
<path d="M35.2523 108.118C35.16 108.377 34.993 108.603 34.7723 108.767C34.5515 108.931 34.287 109.026 34.0122 109.04C33.7374 109.054 33.4646 108.987 33.2283 108.846C32.9919 108.705 32.8027 108.497 32.6845 108.249C32.5663 108.001 32.5244 107.724 32.5641 107.452C32.6039 107.18 32.7234 106.926 32.9077 106.722C33.092 106.518 33.3327 106.373 33.5995 106.305C33.8663 106.238 34.147 106.251 34.4064 106.343C34.581 106.401 34.742 106.493 34.8799 106.615C35.0177 106.736 35.1295 106.885 35.2085 107.051C35.2875 107.216 35.3321 107.396 35.3397 107.58C35.3472 107.763 35.3175 107.947 35.2523 108.118Z" fill="#E0E0E0"/>
<path d="M37.5126 98.4009L37.7581 104.1C37.7645 104.326 37.8552 104.542 38.0125 104.705C38.1698 104.868 38.3824 104.966 38.6086 104.981C38.8458 105.004 39.0825 104.933 39.2679 104.783C39.4533 104.634 39.5726 104.418 39.6 104.181L40.3504 98.4735C40.364 98.3716 40.3557 98.2679 40.3261 98.1694C40.2965 98.0709 40.2463 97.9798 40.1788 97.9021C40.1113 97.8244 40.028 97.7619 39.9345 97.7187C39.841 97.6755 39.7394 97.6527 39.6364 97.6516H38.2448C38.1469 97.651 38.0499 97.67 37.9595 97.7077C37.8692 97.7453 37.7874 97.8008 37.7191 97.8708C37.6507 97.9407 37.5972 98.0237 37.5617 98.1148C37.5262 98.2059 37.5095 98.3032 37.5126 98.4009Z" fill="#E0E0E0"/>
<path d="M40.0595 108.214C39.9675 108.473 39.8008 108.699 39.5804 108.863C39.36 109.027 39.0957 109.122 38.8211 109.137C38.5464 109.151 38.2736 109.084 38.0371 108.944C37.8006 108.804 37.6111 108.597 37.4924 108.349C37.3737 108.101 37.3312 107.824 37.3703 107.552C37.4094 107.28 37.5283 107.026 37.712 106.821C37.8956 106.617 38.1359 106.472 38.4023 106.403C38.6688 106.335 38.9495 106.347 39.209 106.438C39.3818 106.499 39.5409 106.593 39.6772 106.715C39.8135 106.837 39.9243 106.985 40.0033 107.15C40.0823 107.315 40.1279 107.494 40.1376 107.676C40.1472 107.859 40.1207 108.042 40.0595 108.214Z" fill="#E0E0E0"/>
<path d="M173.03 84.7827L168.269 78.2756L165.831 86.1903L159.509 85.5592L163.43 93.097L156.435 96.5889L164.685 97.0702L166.436 104.322L172.766 98.9547L179.17 104.054L179.156 96.8568L186.542 96.1893L181.68 92.207L184.877 86.4492L178.865 87.1666L178.642 79.2292L173.03 84.7827Z" fill="white"/>
<path d="M173.03 84.783C173.03 84.783 173.158 84.6467 173.403 84.4015C173.649 84.1563 174.013 83.784 174.481 83.3117L178.601 79.1886L178.692 79.0933V79.2295C178.761 81.4227 178.842 84.1064 178.938 87.1669L178.852 87.0897L184.864 86.3586L185.041 86.3359L184.955 86.4903L181.771 92.2572L181.744 92.1301L186.61 96.1033L186.815 96.2713L186.551 96.294L179.165 96.9661L179.27 96.8571C179.27 99.1275 179.27 101.571 179.27 104.054V104.295L179.079 104.145L172.676 99.0504H172.826L170.743 100.817L166.495 104.418L166.349 104.54L166.304 104.359C165.708 101.888 165.126 99.4636 164.553 97.0932L164.658 97.1795L156.408 96.6936H155.994L156.367 96.5075L163.366 93.0246L163.321 93.1654C161.956 90.4833 160.658 87.9616 159.428 85.6003L159.35 85.4505H159.519L165.84 86.0953L165.758 86.1498L168.209 78.2441L168.246 78.1306L168.314 78.226L171.811 83.062L172.721 84.3243C172.926 84.6104 173.03 84.7784 173.03 84.7784C173.03 84.7784 172.926 84.6467 172.716 84.3698L171.807 83.1346L168.232 78.3077H168.337L165.922 86.227V86.2905H165.822L159.496 85.6684L159.587 85.5368C160.799 87.8798 162.109 90.3909 163.516 93.07L163.566 93.1609L163.471 93.2063L156.481 96.7073L156.435 96.4984L164.685 96.9752H164.771L164.794 97.0569C165.363 99.4182 165.949 101.843 166.545 104.322L166.354 104.263L170.602 100.662L172.685 98.8914L172.762 98.8324L172.835 98.8914L179.238 103.991L179.047 104.082C179.047 101.598 179.047 99.173 179.047 96.8844V96.7799H179.152L186.537 96.117L186.478 96.3077L181.621 92.3208L181.558 92.2708L181.598 92.1982C182.722 90.173 183.8 88.2431 184.805 86.4404L184.891 86.5766L178.879 87.285H178.792V87.1987C178.715 84.1382 178.647 81.4545 178.592 79.2567L178.692 79.2976L174.499 83.3844L173.408 84.4469L173.03 84.783Z" fill="#E0E0E0"/>
<path d="M174.745 88.4752L174.258 92.2441C174.238 92.3933 174.165 92.5302 174.051 92.6288C173.937 92.7275 173.791 92.7812 173.64 92.7799C173.482 92.7777 173.331 92.7154 173.218 92.6057C173.104 92.4959 173.037 92.3471 173.03 92.1896L172.862 88.3617C172.859 88.2934 172.87 88.2252 172.895 88.1616C172.92 88.0979 172.958 88.0404 173.007 87.9927C173.056 87.945 173.115 87.9083 173.179 87.885C173.244 87.8617 173.312 87.8524 173.381 87.8576L174.29 87.9303C174.357 87.9335 174.422 87.9504 174.482 87.9802C174.542 88.0099 174.595 88.0517 174.638 88.1029C174.68 88.1542 174.712 88.2137 174.73 88.2778C174.749 88.3419 174.754 88.4091 174.745 88.4752Z" fill="#E0E0E0"/>
<path d="M172.498 94.8406C172.547 95.012 172.645 95.1652 172.78 95.2813C172.916 95.3973 173.082 95.4711 173.259 95.4933C173.436 95.5156 173.616 95.4853 173.776 95.4064C173.936 95.3274 174.069 95.2032 174.159 95.0493C174.249 94.8953 174.291 94.7184 174.281 94.5405C174.271 94.3627 174.209 94.1917 174.102 94.0489C173.995 93.9062 173.849 93.7979 173.681 93.7376C173.513 93.6774 173.331 93.6677 173.157 93.7099C173.039 93.7389 172.927 93.7914 172.829 93.8645C172.731 93.9376 172.649 94.0297 172.587 94.1352C172.525 94.2408 172.486 94.3577 172.47 94.4789C172.455 94.6001 172.465 94.7231 172.498 94.8406Z" fill="#E0E0E0"/>
<path d="M171.552 88.2659L171.066 92.0303C171.047 92.1799 170.973 92.3173 170.859 92.4162C170.745 92.5151 170.598 92.5684 170.447 92.5661C170.29 92.5662 170.138 92.5052 170.024 92.396C169.911 92.2868 169.844 92.1378 169.838 91.9804L169.67 88.1479C169.667 88.08 169.678 88.0123 169.704 87.9492C169.729 87.8861 169.768 87.8291 169.817 87.7819C169.866 87.7347 169.924 87.6984 169.988 87.6754C170.052 87.6524 170.12 87.6432 170.188 87.6484L171.098 87.721C171.164 87.7242 171.23 87.7412 171.289 87.7709C171.349 87.8006 171.402 87.8424 171.445 87.8937C171.488 87.9449 171.519 88.0044 171.538 88.0685C171.556 88.1326 171.561 88.1998 171.552 88.2659Z" fill="#E0E0E0"/>
<path d="M169.306 94.6321C169.355 94.8033 169.453 94.9566 169.588 95.0728C169.723 95.189 169.889 95.263 170.066 95.2856C170.243 95.3082 170.422 95.2784 170.582 95.1999C170.742 95.1214 170.876 94.9977 170.966 94.8441C171.056 94.6905 171.099 94.5139 171.09 94.3361C171.08 94.1584 171.018 93.9873 170.912 93.8443C170.806 93.7012 170.66 93.5924 170.493 93.5315C170.325 93.4705 170.144 93.4601 169.97 93.5014C169.851 93.5298 169.739 93.582 169.64 93.6549C169.541 93.7277 169.459 93.8198 169.397 93.9254C169.335 94.031 169.295 94.148 169.279 94.2695C169.264 94.3909 169.273 94.5143 169.306 94.6321Z" fill="#E0E0E0"/>
<path d="M104.849 8.64802L98.905 8.65527L98.9164 17.9731L104.861 17.9659L104.849 8.64802Z" fill="#E0E0E0"/>
<path d="M108.037 11.4393H95.7986V1.39495C100.083 0.332387 104.176 0.259733 108.041 1.39495L108.037 11.4393Z" fill="#EBEBEB"/>
<path d="M108.168 1.43526C108.026 1.52819 107.874 1.60438 107.714 1.6623C107.294 1.83936 106.864 1.991 106.427 2.11639C105.772 2.33046 105.104 2.49739 104.426 2.61588C103.603 2.75037 102.771 2.82323 101.938 2.83384C101.104 2.8333 100.271 2.77107 99.4456 2.64767C98.7723 2.54044 98.1069 2.38874 97.4537 2.19358C97.0138 2.06994 96.5824 1.91827 96.1621 1.73949C96.0021 1.68559 95.8494 1.61239 95.7073 1.52153C95.7073 1.48521 96.3804 1.7622 97.4946 2.06189C98.146 2.23328 98.8065 2.3682 99.4729 2.46603C100.29 2.57673 101.113 2.63135 101.938 2.6295C102.771 2.61254 103.602 2.53973 104.426 2.41154C105.09 2.30762 105.747 2.1651 106.395 1.9847C107.495 1.685 108.155 1.39893 108.168 1.43526Z" fill="#E0E0E0"/>
<path d="M99.8411 11.4209C99.7327 9.9887 99.6963 8.55199 99.732 7.11616C99.732 4.73675 99.7729 2.80688 99.832 2.80688C99.8912 2.80688 99.9366 4.73675 99.9412 7.11616C99.9457 9.49557 99.9003 11.4209 99.8411 11.4209Z" fill="#E0E0E0"/>
<path d="M102.152 11.4935C102.093 11.4935 102.042 9.55455 102.042 7.16606C102.042 4.77757 102.083 2.83862 102.143 2.83862C102.202 2.83862 102.247 4.77303 102.252 7.16606C102.256 9.55909 102.229 11.4935 102.152 11.4935Z" fill="#E0E0E0"/>
<path d="M104.498 11.4348C104.439 11.4348 104.394 9.50035 104.389 7.11186C104.384 4.72337 104.43 2.78442 104.489 2.78442C104.548 2.78442 104.594 4.71883 104.598 7.11186C104.603 9.5049 104.557 11.4348 104.498 11.4348Z" fill="#E0E0E0"/>
<path d="M106.436 11.4342C106.381 11.4342 106.331 9.34091 106.326 6.75716C106.322 4.17341 106.367 2.08008 106.427 2.08008C106.486 2.08008 106.531 4.17341 106.536 6.75716C106.54 9.34091 106.495 11.4342 106.436 11.4342Z" fill="#E0E0E0"/>
<path d="M97.6397 11.3847C97.5805 11.3847 97.5305 9.29135 97.5305 6.7076C97.5305 4.12385 97.5715 2.03052 97.626 2.03052C97.6806 2.03052 97.7352 4.12385 97.7352 6.7076C97.7352 9.29135 97.6942 11.3847 97.6397 11.3847Z" fill="#E0E0E0"/>
<path d="M133.86 28.3898L130.885 25.2702L135.729 20.6113L138.703 23.7309L133.86 28.3898Z" fill="#E0E0E0"/>
<path d="M138.848 26.7959L132.722 20.3706L137.943 15.3484C140.52 16.9073 142.635 19.1235 144.069 21.7692L138.848 26.7959Z" fill="#EBEBEB"/>
<path d="M68.2701 28.4082L65.0502 31.2689L60.6069 26.224L63.8268 23.3633L68.2701 28.4082Z" fill="#E0E0E0"/>
<path d="M66.8783 23.3362L60.2521 29.2394L55.4631 23.7903C57.1052 21.2679 59.393 19.2298 62.0894 17.8872L66.8783 23.3362Z" fill="#EBEBEB"/>
<path d="M100.706 112.264C127.762 112.264 149.695 90.2243 149.695 63.0368C149.695 35.8492 127.762 13.8093 100.706 13.8093C73.6493 13.8093 51.7158 35.8492 51.7158 63.0368C51.7158 90.2243 73.6493 112.264 100.706 112.264Z" fill="#EBEBEB" fill-opacity="0.4"/>
<path d="M100.83 108.136C125.686 108.11 145.815 87.8399 145.789 62.8618C145.762 37.8837 125.591 17.656 100.735 17.6819C75.8793 17.7079 55.7507 37.9778 55.7769 62.9559C55.8031 87.9341 75.9741 108.162 100.83 108.136Z" fill="white" fill-opacity="0.3"/>
<path d="M100.842 108.287C75.9376 108.314 55.6586 87.9799 55.6267 62.9552C55.5949 37.9306 75.833 17.5466 100.733 17.5239C125.632 17.5012 145.916 37.8307 145.948 62.8508C145.979 87.8709 125.741 108.259 100.842 108.287ZM100.733 17.8509C76.0058 17.8781 55.9087 38.1213 55.936 62.9734C55.9633 87.8255 76.1104 108.023 100.842 107.996C125.573 107.969 145.666 87.7256 145.638 62.869C145.611 38.0123 125.464 17.8009 100.733 17.8509Z" fill="#E0E0E0"/>
<path d="M97.5854 63.7224L77.3201 47.9429L101.042 58.9L101.742 63.073L97.5854 63.7224Z" fill="#EBEBEB"/>
<path d="M77.3201 47.9429L98.4768 60.4075L101.042 58.9L77.3201 47.9429Z" fill="#E0E0E0"/>
<path d="M101.751 58.9091C102.592 58.9019 103.416 59.1442 104.118 59.6054C104.821 60.0665 105.371 60.7256 105.697 61.4991C106.024 62.2726 106.113 63.1255 105.954 63.9497C105.794 64.7739 105.393 65.5322 104.801 66.1284C104.209 66.7245 103.453 67.1316 102.629 67.2981C101.805 67.4645 100.95 67.3828 100.172 67.0632C99.3949 66.7436 98.7301 66.2007 98.2622 65.5032C97.7943 64.8057 97.5445 63.9852 97.5445 63.1457C97.5415 62.5916 97.648 62.0423 97.8579 61.5293C98.0678 61.0163 98.377 60.5497 98.7678 60.1562C99.1585 59.7626 99.6232 59.4499 100.135 59.2359C100.647 59.0219 101.196 58.9109 101.751 58.9091Z" fill="#FAFAFA"/>
<path d="M101.751 58.9091C101.408 58.9464 101.068 59.004 100.732 59.0817C99.822 59.329 99.0212 59.8743 98.4583 60.6301C98.0702 61.1469 97.8086 61.7471 97.6943 62.3829C97.5672 63.1122 97.633 63.8619 97.8853 64.558C98.0206 64.932 98.2107 65.2839 98.4492 65.6024C98.6918 65.9377 98.9866 66.232 99.3224 66.4742C100.029 66.9891 100.881 67.2687 101.756 67.2734C102.63 67.2683 103.481 66.9852 104.184 66.4651C104.52 66.2229 104.815 65.9286 105.057 65.5933C105.297 65.2764 105.486 64.924 105.617 64.5489C105.87 63.8529 105.934 63.1026 105.803 62.3738C105.661 61.5941 105.3 60.8706 104.762 60.2877C104.225 59.7049 103.532 59.2866 102.765 59.0817C102.429 59.0048 102.089 58.9472 101.746 58.9091C102.095 58.8824 102.445 58.9131 102.783 59C103.726 59.2218 104.564 59.7624 105.153 60.5302C105.565 61.0627 105.846 61.6851 105.971 62.3466C106.116 63.1053 106.056 63.8888 105.799 64.617C105.663 65.0113 105.467 65.3821 105.216 65.7159C104.963 66.0646 104.656 66.3711 104.307 66.6241C103.572 67.1727 102.678 67.469 101.76 67.4687C100.842 67.4677 99.9476 67.1734 99.2087 66.6286C98.8595 66.3756 98.5525 66.0691 98.2992 65.7204C98.049 65.3867 97.8525 65.0159 97.717 64.6215C97.4562 63.8942 97.3934 63.1107 97.5351 62.3511C97.661 61.6906 97.9398 61.0686 98.3492 60.5348C98.937 59.7644 99.7745 59.2219 100.719 59C101.055 58.9128 101.404 58.8822 101.751 58.9091Z" fill="#E0E0E0"/>
<path d="M101.752 59.9899C102.377 59.9845 102.989 60.1646 103.512 60.5074C104.034 60.8501 104.443 61.3401 104.686 61.9152C104.93 62.4903 104.996 63.1245 104.878 63.7375C104.76 64.3504 104.462 64.9145 104.022 65.3581C103.582 65.8018 103.02 66.105 102.407 66.2293C101.795 66.3536 101.159 66.2935 100.581 66.0565C100.002 65.8195 99.5073 65.4163 99.1587 64.8981C98.8101 64.3799 98.6235 63.77 98.6226 63.1458C98.619 62.3132 98.9464 61.5132 99.5331 60.9214C100.12 60.3297 100.918 59.9947 101.752 59.9899Z" fill="#E0E0E0"/>
<path d="M101.547 61.8971C101.547 61.8971 100.637 34.652 101.902 28.8896C101.902 28.8942 104.017 45.4138 101.547 61.8971Z" fill="#E0E0E0"/>
<path d="M99.1455 104.718H99.0909L99.2046 101.321H99.3047L99.1455 104.718ZM116.027 101.943L114.758 98.7872L114.854 98.7509L116.073 101.93L116.027 101.943ZM82.5321 100.358L82.4821 100.331L83.9829 97.2842L84.0647 97.3251L82.5321 100.358ZM130.349 92.48L127.934 90.1006L127.997 90.037L130.389 92.4391L130.349 92.48ZM69.134 89.5965L69.084 89.533L71.7036 87.3806L71.7491 87.4351L69.134 89.5965ZM139.658 77.981L136.475 76.8004L136.506 76.7096L139.667 77.9311L139.658 77.981ZM61.2207 74.2802V74.1939L64.4906 73.3176V73.3766L61.2207 74.2802ZM138.862 61.1117V61.0572L142.237 60.8484V60.9437L138.862 61.1117ZM138.862 61.0527V60.9891L142.237 60.7803V60.8575L138.862 61.0527ZM63.5538 57.5608L60.2065 57.0567V56.9796L63.5492 57.4881L63.5538 57.5608ZM134.701 45.7546L134.669 45.6955L137.675 44.1289L137.712 44.197L134.701 45.7546ZM69.1022 42.7258L66.2552 40.9095L66.2916 40.8504L69.1431 42.6668L69.1022 42.7258ZM124.732 33.5487L124.673 33.4988L126.783 30.8424L126.842 30.8878L124.732 33.5487ZM80.1626 31.4781L78.3071 28.6355L78.3571 28.6037L80.24 31.4282L80.1626 31.4781ZM110.633 26.4241H110.574L111.416 23.1275H111.502L110.633 26.4241ZM94.8296 25.7021L94.2747 22.3464H94.352L94.9023 25.7021H94.8296Z" fill="#E0E0E0"/>
<path d="M99.1455 104.831H99.0863C99.0712 104.831 99.0562 104.828 99.0424 104.822C99.0285 104.816 99.016 104.807 99.0058 104.796C98.9955 104.785 98.9877 104.772 98.9827 104.757C98.9778 104.743 98.9759 104.728 98.9772 104.713L99.0909 101.316C99.0954 101.286 99.108 101.258 99.1273 101.235C99.1526 101.217 99.1828 101.207 99.2137 101.207H99.3092C99.3239 101.208 99.3384 101.211 99.3517 101.217C99.3651 101.223 99.3769 101.232 99.3865 101.244C99.3972 101.254 99.4055 101.267 99.411 101.281C99.4165 101.295 99.419 101.31 99.4183 101.325L99.2592 104.722C99.2569 104.751 99.2441 104.778 99.2232 104.798C99.2022 104.818 99.1745 104.83 99.1455 104.831ZM116.027 102.056C116.004 102.056 115.982 102.049 115.964 102.036C115.945 102.023 115.931 102.005 115.923 101.984L114.654 98.8324C114.642 98.8033 114.642 98.7708 114.654 98.7416C114.658 98.7279 114.666 98.7155 114.676 98.7053C114.687 98.6951 114.699 98.6873 114.713 98.6826L114.808 98.6462C114.822 98.6395 114.837 98.6359 114.852 98.6359C114.867 98.6359 114.881 98.6395 114.895 98.6462C114.922 98.6602 114.944 98.6824 114.958 98.7098L116.177 101.888C116.188 101.917 116.186 101.948 116.173 101.975C116.16 102.002 116.137 102.023 116.109 102.034H116.064L116.027 102.056ZM82.5321 100.494C82.5141 100.498 82.4955 100.498 82.4775 100.494L82.4275 100.467C82.4013 100.454 82.3814 100.43 82.3721 100.402C82.3627 100.374 82.3647 100.344 82.3774 100.317L83.8782 97.2704C83.8926 97.2428 83.917 97.2216 83.9465 97.2113C83.9741 97.2 84.0052 97.2 84.0329 97.2113L84.1147 97.2522C84.1287 97.2584 84.1413 97.2675 84.1515 97.2789C84.1618 97.2903 84.1695 97.3037 84.1742 97.3182C84.179 97.3328 84.1806 97.3482 84.1789 97.3634C84.1773 97.3787 84.1725 97.3934 84.1647 97.4066L82.6321 100.435C82.6196 100.463 82.5967 100.484 82.5684 100.494H82.5321ZM130.348 92.5933C130.334 92.5939 130.32 92.5913 130.306 92.5858C130.293 92.5804 130.281 92.572 130.271 92.5615L127.852 90.1821C127.841 90.1715 127.832 90.1588 127.826 90.1448C127.82 90.1307 127.817 90.1156 127.817 90.1003C127.817 90.0851 127.82 90.07 127.826 90.0559C127.832 90.0419 127.841 90.0292 127.852 90.0186L127.915 89.955C127.926 89.9444 127.939 89.936 127.953 89.9306C127.967 89.9251 127.982 89.9226 127.997 89.9233C128.012 89.9227 128.026 89.9252 128.039 89.9307C128.053 89.9362 128.065 89.9445 128.075 89.955L130.471 92.3572C130.482 92.3673 130.491 92.3797 130.497 92.3933C130.503 92.407 130.506 92.4217 130.506 92.4366C130.506 92.4515 130.503 92.4662 130.497 92.4799C130.491 92.4936 130.482 92.5059 130.471 92.5161L130.43 92.5615C130.407 92.5811 130.379 92.5923 130.348 92.5933ZM69.134 89.7053C69.1039 89.702 69.0763 89.6874 69.0567 89.6644L69.0067 89.6009C68.9858 89.5796 68.9742 89.5511 68.9742 89.5214C68.9742 89.4917 68.9858 89.4632 69.0067 89.4419L71.6308 87.2896C71.6437 87.2841 71.6577 87.2812 71.6717 87.2812C71.6858 87.2812 71.6997 87.2841 71.7127 87.2896C71.7277 87.2907 71.7423 87.2949 71.7556 87.3019C71.7689 87.309 71.7806 87.3187 71.79 87.3304L71.8354 87.3849C71.8563 87.4061 71.868 87.4347 71.868 87.4644C71.868 87.4941 71.8563 87.5226 71.8354 87.5438L69.2204 89.7008C69.2072 89.7076 69.1926 89.7116 69.1777 89.7124C69.1628 89.7132 69.1479 89.7107 69.134 89.7053ZM139.658 78.0898H139.617L136.434 76.9046C136.406 76.8935 136.384 76.8721 136.372 76.8449C136.36 76.8178 136.359 76.787 136.37 76.7593L136.402 76.673C136.405 76.6584 136.413 76.6448 136.423 76.6337C136.433 76.6226 136.446 76.6143 136.461 76.6095C136.489 76.5981 136.52 76.5981 136.547 76.6095L139.731 77.8264C139.759 77.8367 139.782 77.8577 139.795 77.885C139.808 77.9122 139.809 77.9434 139.799 77.9717L139.776 78.0262C139.766 78.0485 139.749 78.0668 139.728 78.0783C139.707 78.0898 139.682 78.0939 139.658 78.0898ZM61.2207 74.3935H61.1661C61.1399 74.3786 61.1204 74.3542 61.1115 74.3254L61.0888 74.2391C61.0829 74.2255 61.0799 74.2108 61.0799 74.196C61.0799 74.1812 61.0829 74.1665 61.0888 74.1529C61.1047 74.1275 61.1287 74.1083 61.157 74.0984L64.427 73.222C64.4416 73.2179 64.4569 73.2168 64.472 73.2187C64.487 73.2206 64.5016 73.2255 64.5147 73.2331C64.5279 73.2407 64.5394 73.2509 64.5485 73.263C64.5576 73.2752 64.5642 73.289 64.5679 73.3037V73.3582C64.5764 73.3871 64.573 73.4182 64.5585 73.4446C64.544 73.471 64.5196 73.4905 64.4906 73.499L61.2298 74.4072L61.2207 74.3935ZM138.862 61.225C138.833 61.2251 138.804 61.2137 138.783 61.1934C138.762 61.1731 138.75 61.1454 138.748 61.1161V60.9889C138.747 60.974 138.749 60.959 138.753 60.9447C138.758 60.9305 138.765 60.9173 138.775 60.9059C138.785 60.8945 138.797 60.8851 138.81 60.8783C138.823 60.8715 138.838 60.8675 138.853 60.8663L142.232 60.6574C142.247 60.6562 142.262 60.6581 142.277 60.663C142.291 60.6679 142.304 60.6757 142.315 60.686C142.326 60.6962 142.335 60.7086 142.341 60.7225C142.347 60.7363 142.35 60.7513 142.35 60.7664V60.9435C142.353 60.9583 142.352 60.9735 142.347 60.9878C142.342 61.0021 142.334 61.0149 142.323 61.0252C142.313 61.0364 142.302 61.0454 142.288 61.0516C142.275 61.0579 142.26 61.0613 142.246 61.0616L138.867 61.2296L138.862 61.225ZM63.5538 57.6741L60.2065 57.1655C60.1917 57.1639 60.1774 57.1592 60.1644 57.1518C60.1515 57.1445 60.1402 57.1345 60.1312 57.1226C60.1223 57.1107 60.1158 57.097 60.1124 57.0826C60.1089 57.0681 60.1084 57.053 60.111 57.0384V56.9612C60.113 56.9465 60.1181 56.9325 60.1259 56.92C60.1338 56.9075 60.1442 56.8967 60.1565 56.8885C60.1679 56.8795 60.1811 56.8728 60.1951 56.8689C60.2092 56.865 60.2239 56.8639 60.2384 56.8658L63.5856 57.3744C63.6006 57.3766 63.615 57.3818 63.628 57.3896C63.641 57.3975 63.6523 57.4079 63.6612 57.4201C63.6701 57.4324 63.6764 57.4463 63.6798 57.4611C63.6833 57.4758 63.6837 57.4911 63.6811 57.5061V57.5787C63.6752 57.6076 63.659 57.6334 63.6356 57.6514C63.6176 57.6674 63.5956 57.6784 63.572 57.6832L63.5538 57.6741ZM134.701 45.8679H134.669C134.654 45.8642 134.641 45.8575 134.629 45.8481C134.617 45.8387 134.608 45.8268 134.601 45.8134L134.569 45.7498C134.562 45.7367 134.557 45.7223 134.556 45.7074C134.554 45.6925 134.555 45.6775 134.56 45.6632C134.564 45.6488 134.571 45.6354 134.58 45.6238C134.59 45.6122 134.601 45.6025 134.614 45.5954L137.621 44.0334C137.648 44.022 137.679 44.022 137.707 44.0334C137.722 44.037 137.735 44.0437 137.747 44.0531C137.759 44.0625 137.768 44.0744 137.775 44.0878L137.812 44.1605C137.825 44.1877 137.827 44.2189 137.817 44.2476C137.808 44.2763 137.788 44.3004 137.762 44.3149L134.755 45.8724L134.701 45.8679ZM69.1022 42.8391C69.0815 42.8457 69.0592 42.8457 69.0385 42.8391L66.2234 41.0091C66.1983 40.9932 66.1805 40.9682 66.1737 40.9393C66.1669 40.9105 66.1717 40.8801 66.187 40.8548L66.2279 40.7957C66.2347 40.7827 66.2444 40.7715 66.2562 40.7628C66.268 40.7541 66.2817 40.7483 66.2961 40.7458C66.3098 40.7399 66.3245 40.7369 66.3393 40.7369C66.3542 40.7369 66.3689 40.7399 66.3825 40.7458L69.2386 42.5621C69.264 42.5789 69.2819 42.6047 69.2887 42.6343C69.2955 42.6639 69.2906 42.695 69.275 42.721L69.2295 42.7892C69.2112 42.8132 69.1857 42.8307 69.1567 42.8391H69.1022ZM124.732 33.662C124.705 33.6618 124.679 33.6521 124.659 33.6348L124.604 33.5894C124.594 33.5792 124.585 33.5669 124.579 33.5532C124.573 33.5395 124.57 33.5248 124.57 33.5099C124.57 33.495 124.573 33.4803 124.579 33.4666C124.585 33.453 124.594 33.4406 124.604 33.4304L126.71 30.7695C126.73 30.7465 126.757 30.7319 126.787 30.7286C126.8 30.7231 126.814 30.7203 126.828 30.7203C126.842 30.7203 126.856 30.7231 126.869 30.7286L126.928 30.7786C126.949 30.7998 126.961 30.8283 126.961 30.8581C126.961 30.8878 126.949 30.9163 126.928 30.9375L124.818 33.5939C124.809 33.6057 124.797 33.6154 124.784 33.6224C124.771 33.6295 124.756 33.6337 124.741 33.6348L124.732 33.662ZM80.1626 31.5914H80.1399C80.1106 31.5836 80.0849 31.566 80.0671 31.5415L78.2116 28.6989C78.1956 28.6733 78.1899 28.6426 78.1959 28.6131C78.2018 28.5835 78.2188 28.5574 78.2434 28.5399L78.2934 28.5082C78.3059 28.4997 78.32 28.4937 78.3348 28.4907C78.3496 28.4878 78.3649 28.4877 78.3797 28.4907C78.3945 28.4936 78.4086 28.4995 78.4211 28.508C78.4336 28.5164 78.4444 28.5273 78.4526 28.5399L80.3354 31.3689C80.3508 31.3943 80.3555 31.4246 80.3487 31.4535C80.3419 31.4823 80.3241 31.5074 80.2991 31.5233L80.2263 31.5732C80.2115 31.5835 80.1942 31.5898 80.1763 31.5914H80.1626ZM110.633 26.5374H110.606H110.542C110.513 26.5289 110.489 26.5096 110.473 26.4834C110.458 26.4572 110.454 26.4261 110.461 26.3967L111.306 23.1045C111.315 23.0757 111.335 23.0513 111.361 23.0364C111.374 23.0296 111.389 23.0261 111.404 23.0261C111.419 23.0261 111.434 23.0296 111.447 23.0364L111.529 23.0591C111.558 23.0679 111.583 23.0874 111.598 23.1136C111.607 23.1401 111.607 23.1689 111.598 23.1954L110.765 26.4784C110.754 26.4985 110.738 26.5149 110.718 26.5254C110.697 26.536 110.674 26.5401 110.652 26.5374H110.633ZM94.8295 25.8154C94.8052 25.8141 94.7816 25.8062 94.7613 25.7927C94.7372 25.7754 94.7209 25.7493 94.7158 25.7201L94.1655 22.3644C94.16 22.3515 94.1572 22.3376 94.1572 22.3235C94.1572 22.3095 94.16 22.2956 94.1655 22.2826C94.1833 22.2581 94.209 22.2405 94.2383 22.2327H94.3156C94.3435 22.2222 94.3742 22.2222 94.402 22.2327C94.4254 22.2507 94.4416 22.2765 94.4475 22.3053L94.9978 25.661C95.0004 25.676 95 25.6913 94.9965 25.706C94.9931 25.7208 94.9868 25.7347 94.9779 25.747C94.969 25.7593 94.9577 25.7696 94.9447 25.7775C94.9317 25.7853 94.9173 25.7905 94.9023 25.7927H94.8295V25.8154Z" fill="#E0E0E0"/>
<path d="M187.133 118.09C187.133 118.159 180.811 118.213 173.012 118.213C165.212 118.213 158.913 118.159 158.913 118.09C158.913 118.022 165.235 117.972 173.012 117.972C180.789 117.972 187.133 118.027 187.133 118.09Z" fill="#263238"/>
<path d="M157.149 43.8468L150.541 34.8513L147.189 45.8084L138.434 44.9456L143.874 55.3715L134.196 60.2165L145.616 60.8659L148.053 70.9057L156.808 63.4633L165.676 70.5107L165.644 60.548L175.868 59.6126L169.133 54.1091L173.549 46.1308L165.226 47.1389L164.903 36.15L157.149 43.8468Z" fill="white"/>
<path d="M157.144 43.8467L157.658 43.3245L159.155 41.8169L164.862 36.1091L164.958 36.0137V36.15C165.053 39.1878 165.167 42.8977 165.299 47.1343L165.212 47.0616L173.535 46.0445H173.708L173.621 46.1989C172.257 48.7009 170.765 51.38 169.214 54.1817L169.192 54.0546L175.932 59.5535L176.136 59.717H175.873L165.649 60.6615L165.754 60.548C165.754 63.7266 165.776 67.0732 165.79 70.5106V70.7513L165.599 70.6014L156.726 63.5586H156.876L153.997 66.0106C152.014 67.6908 150.057 69.3557 148.126 71.0056L147.98 71.1282L147.935 70.942C147.104 67.5273 146.292 64.1807 145.497 60.9022L145.602 60.993L134.182 60.3346H133.768L134.141 60.1484L143.819 55.3124L143.774 55.4486L138.348 45.0046L138.266 44.8548H138.439L147.175 45.7266L147.094 45.7857C148.406 41.5142 149.531 37.8634 150.468 34.8331L150.505 34.7241L150.573 34.8149L155.439 41.5036L156.699 43.2428C156.985 43.6378 157.126 43.8467 157.126 43.8467C157.126 43.8467 156.981 43.6605 156.694 43.2746L155.421 41.5627L150.495 34.8876H150.6C149.69 37.9148 148.579 41.5687 147.266 45.8492L147.244 45.9128H147.175L138.421 45.0591L138.512 44.9229C140.204 48.1651 142.027 51.6479 143.969 55.3669L144.019 55.4622L143.924 55.5076L134.25 60.3573L134.205 60.1484L145.625 60.7977H145.711V60.8795C146.508 64.1549 147.323 67.5015 148.153 70.9193L147.962 70.8557L153.834 65.8608L156.717 63.4133L156.79 63.3497L156.867 63.4087L165.735 70.4561L165.544 70.547C165.544 67.1141 165.544 63.7357 165.517 60.5843V60.4799H165.622L175.845 59.549L175.786 59.7397L169.069 54.1772L169.005 54.1227L169.046 54.05L173.467 46.0763L173.558 46.2079L165.235 47.2024H165.149V47.1116C165.035 42.875 164.93 39.1605 164.849 36.1272L164.949 36.1636L159.168 41.8533C158.513 42.4981 158.009 42.9885 157.663 43.3245C157.317 43.6605 157.144 43.8467 157.144 43.8467Z" fill="#263238"/>
<path d="M159.528 48.9555L158.855 54.1775C158.828 54.3838 158.727 54.5732 158.571 54.7104C158.414 54.8475 158.213 54.9228 158.004 54.9222C157.786 54.9201 157.577 54.8348 157.42 54.6837C157.262 54.5325 157.169 54.3271 157.158 54.1094L156.917 48.8057C156.913 48.711 156.929 48.6165 156.964 48.5284C157 48.4404 157.053 48.3609 157.122 48.2952C157.19 48.2294 157.272 48.179 157.361 48.1472C157.451 48.1155 157.546 48.1031 157.641 48.1109L158.918 48.2108C159.008 48.2181 159.095 48.2434 159.175 48.2851C159.255 48.3269 159.325 48.3842 159.382 48.4538C159.439 48.5233 159.481 48.6036 159.506 48.6898C159.531 48.776 159.539 48.8664 159.528 48.9555Z" fill="#263238"/>
<path d="M156.426 57.7695C156.49 58.0147 156.626 58.2353 156.816 58.4033C157.006 58.5714 157.242 58.6793 157.493 58.7134C157.745 58.7476 158.001 58.7064 158.229 58.5951C158.457 58.4838 158.647 58.3074 158.775 58.0882C158.902 57.869 158.962 57.617 158.946 57.364C158.93 57.111 158.839 56.8684 158.685 56.667C158.531 56.4656 158.32 56.3144 158.08 56.2326C157.84 56.1508 157.58 56.142 157.335 56.2074C157.172 56.2496 157.019 56.3236 156.885 56.4252C156.751 56.5267 156.639 56.6538 156.554 56.7991C156.47 56.9443 156.415 57.1049 156.393 57.2714C156.371 57.438 156.382 57.6073 156.426 57.7695Z" fill="#263238"/>
<path d="M155.107 48.6691L154.452 53.8821C154.425 54.0911 154.322 54.283 154.163 54.4211C154.004 54.5593 153.799 54.6341 153.588 54.6313C153.369 54.6293 153.16 54.5441 153.002 54.3931C152.844 54.2421 152.749 54.0366 152.738 53.8185L152.497 48.5148C152.493 48.4202 152.51 48.3261 152.545 48.2384C152.581 48.1507 152.634 48.0715 152.702 48.0059C152.771 47.9403 152.852 47.8899 152.941 47.8578C153.03 47.8258 153.125 47.8129 153.22 47.82L154.498 47.9199C154.588 47.9272 154.675 47.9526 154.755 47.9946C154.835 48.0366 154.906 48.0944 154.963 48.1644C155.02 48.2345 155.062 48.3153 155.087 48.402C155.111 48.4888 155.118 48.5797 155.107 48.6691Z" fill="#263238"/>
<path d="M152.005 57.4836C152.07 57.7288 152.206 57.9494 152.396 58.1175C152.586 58.2855 152.822 58.3934 153.073 58.4276C153.325 58.4617 153.581 58.4205 153.809 58.3092C154.037 58.1979 154.227 58.0215 154.355 57.8023C154.482 57.5832 154.542 57.3311 154.526 57.0781C154.51 56.8251 154.419 56.5825 154.265 56.3811C154.111 56.1797 153.9 56.0285 153.66 55.9467C153.419 55.8649 153.16 55.8561 152.915 55.9215C152.752 55.9643 152.6 56.0386 152.466 56.1403C152.332 56.242 152.22 56.369 152.136 56.5141C152.051 56.6592 151.996 56.8196 151.974 56.9859C151.951 57.1523 151.962 57.3214 152.005 57.4836Z" fill="#263238"/>
<path d="M115.34 80.133L119.07 58.2687C120.175 52.8606 117.942 47.7113 112.498 46.7577L111.989 46.6986C109.521 46.4138 107.037 47.0667 105.03 48.5272C103.023 49.9878 101.639 52.1492 101.156 54.5816C100.246 59.2723 99.2545 64.4716 98.9953 67.0144C98.4677 72.2864 103.643 73.7031 103.643 73.7031C103.643 73.7031 103.188 76.8817 102.929 78.4256L105.603 81.4498L115.34 80.133Z" fill="#FFBF9D"/>
<path d="M103.643 73.7032C106.077 73.9772 108.539 73.5502 110.738 72.4727C110.738 72.4727 108.632 76.237 103.425 75.1563L103.643 73.7032Z" fill="#FF9A6C"/>
<path d="M102.151 59.6538C102.127 59.8495 102.18 60.0467 102.299 60.2041C102.418 60.3615 102.593 60.467 102.788 60.4984C102.883 60.5168 102.981 60.5159 103.075 60.4961C103.17 60.4762 103.26 60.4376 103.339 60.3826C103.419 60.3277 103.487 60.2574 103.539 60.1759C103.591 60.0944 103.626 60.0034 103.643 59.9081C103.669 59.7126 103.616 59.5148 103.497 59.3575C103.378 59.2002 103.202 59.0962 103.006 59.0681C102.911 59.0491 102.814 59.0492 102.719 59.0686C102.624 59.0879 102.534 59.126 102.455 59.1806C102.375 59.2352 102.307 59.3053 102.255 59.3865C102.203 59.4678 102.167 59.5587 102.151 59.6538Z" fill="#263238"/>
<path d="M102.029 57.0338C102.111 57.1427 102.729 56.7886 103.539 56.8839C104.348 56.9793 104.903 57.4515 104.994 57.338C105.085 57.2245 104.967 57.111 104.73 56.8839C104.408 56.6017 104.006 56.4256 103.58 56.3799C103.158 56.3303 102.731 56.4162 102.361 56.6251C102.093 56.8158 101.988 56.9838 102.029 57.0338Z" fill="#263238"/>
<path d="M109.428 60.3803C109.404 60.5759 109.458 60.7731 109.576 60.9305C109.695 61.088 109.87 61.1935 110.065 61.2249C110.16 61.2432 110.258 61.2424 110.352 61.2225C110.447 61.2026 110.537 61.1641 110.617 61.1091C110.696 61.0541 110.764 60.9838 110.816 60.9023C110.868 60.8209 110.903 60.7298 110.92 60.6346C110.945 60.4393 110.892 60.242 110.773 60.085C110.654 59.9281 110.478 59.8238 110.283 59.7945C110.188 59.7749 110.09 59.7746 109.996 59.7936C109.901 59.8127 109.81 59.8507 109.731 59.9054C109.651 59.9601 109.583 60.0304 109.531 60.112C109.479 60.1936 109.444 60.2849 109.428 60.3803Z" fill="#263238"/>
<path d="M109.942 58.1376C110.024 58.2466 110.647 57.8924 111.452 57.9877C112.257 58.0831 112.816 58.5553 112.912 58.4691C113.007 58.3828 112.885 58.242 112.648 58.015C112.325 57.7328 111.924 57.5554 111.498 57.5064C111.076 57.4562 110.648 57.5421 110.279 57.7516C110.01 57.9196 109.883 58.0876 109.942 58.1376Z" fill="#263238"/>
<path d="M106.317 64.013C105.906 63.8326 105.473 63.703 105.03 63.627C104.826 63.5816 104.635 63.518 104.616 63.3727C104.624 63.1577 104.697 62.9502 104.826 62.7778L105.621 61.2748C106.727 59.1361 107.554 57.3651 107.468 57.3197C107.381 57.2743 106.413 58.9771 105.303 61.1159L104.534 62.6325C104.377 62.8661 104.306 63.1471 104.334 63.4272C104.355 63.5036 104.394 63.5741 104.447 63.6332C104.5 63.6923 104.565 63.7383 104.639 63.7678C104.75 63.8137 104.866 63.8443 104.985 63.8586C105.42 63.9705 105.868 64.0225 106.317 64.013Z" fill="#263238"/>
<path d="M110.501 55.5397C110.583 55.7576 111.411 55.6532 112.352 55.7667C113.294 55.8802 114.085 56.1436 114.212 55.9438C114.267 55.8484 114.135 55.6395 113.821 55.4261C113.405 55.163 112.934 54.9985 112.445 54.9449C111.955 54.8914 111.46 54.9504 110.997 55.1174C110.647 55.2581 110.469 55.4352 110.501 55.5397Z" fill="#263238"/>
<path d="M102.343 54.4409C102.484 54.6497 103.17 54.5635 103.957 54.677C104.744 54.7905 105.394 55.0266 105.581 54.8586C105.662 54.7769 105.581 54.5771 105.321 54.3591C104.952 54.0826 104.516 53.9087 104.057 53.8551C103.603 53.7882 103.139 53.8463 102.715 54.0231C102.406 54.1775 102.283 54.341 102.343 54.4409Z" fill="#263238"/>
<path d="M118.205 62.1151C118.301 62.0878 121.953 61.4657 121.421 65.0485C120.889 68.6312 117.396 67.3598 117.4 67.2553C117.405 67.1509 118.205 62.1151 118.205 62.1151Z" fill="#FFBF9D"/>
<path d="M118.701 66.0609C118.701 66.0609 118.756 66.1108 118.856 66.1789C118.993 66.2593 119.155 66.2868 119.311 66.2561C119.711 66.1744 120.12 65.6204 120.22 64.9756C120.274 64.6736 120.26 64.3635 120.179 64.0675C120.162 63.9509 120.117 63.8403 120.047 63.7454C119.977 63.6504 119.885 63.5739 119.779 63.5225C119.71 63.4925 119.633 63.4875 119.561 63.5082C119.489 63.5289 119.426 63.5741 119.383 63.6361C119.32 63.7314 119.333 63.8041 119.315 63.8086C119.297 63.8132 119.247 63.736 119.315 63.5952C119.345 63.5076 119.406 63.4346 119.488 63.3909C119.542 63.3599 119.602 63.3403 119.663 63.3332C119.725 63.3262 119.788 63.3319 119.847 63.35C119.99 63.4025 120.117 63.4898 120.217 63.6041C120.317 63.7183 120.387 63.8558 120.42 64.0039C120.527 64.3368 120.55 64.6906 120.489 65.0347C120.357 65.7521 119.888 66.3969 119.347 66.4469C119.246 66.4602 119.144 66.4508 119.047 66.4193C118.95 66.3879 118.861 66.3352 118.788 66.2652C118.692 66.1472 118.688 66.0654 118.701 66.0609Z" fill="#FF9A6C"/>
<path d="M94.6842 48.7285C94.7708 48.5238 94.9339 48.3609 95.139 48.2744C95.5857 48.1534 96.0566 48.1534 96.5033 48.2744C97.6503 48.4175 98.8149 48.2995 99.9097 47.9293C99.5813 47.7027 99.2899 47.427 99.0456 47.1119C98.783 46.7896 98.6141 46.4015 98.5572 45.99C98.5002 45.5785 98.5575 45.1592 98.7227 44.7779C98.7512 44.7058 98.796 44.6413 98.8536 44.5893C98.9112 44.5373 98.98 44.4993 99.0547 44.4782C99.3003 44.4373 99.4685 44.6962 99.605 44.9051C99.7718 45.215 100.019 45.4746 100.321 45.6567C100.622 45.8388 100.967 45.9368 101.32 45.9404C101.803 45.9816 102.29 45.9117 102.743 45.736L102.798 45.6952C103.011 45.5272 103.221 45.3728 103.425 45.2411C104.971 44.1013 106.268 43.343 107.518 43.0388C109.374 42.5847 112.348 42.73 114.104 43.4928C115.859 44.2557 117.287 45.9585 117.287 47.8612C118.438 47.1482 119.975 47.3798 121.153 48.061H121.185C122.504 48.7602 123.077 50.3314 123.281 51.8162L123.309 52.0614C123.669 52.8784 124.219 53.5977 124.914 54.1593C125.037 54.2547 125.178 54.3727 125.169 54.5317C125.16 54.6906 125.014 54.795 124.878 54.8677C124.507 55.0529 124.1 55.1551 123.686 55.1674C123.761 55.5236 123.866 55.8729 124 56.2118C124.118 56.4979 124.259 56.843 124.082 57.12C124.004 57.2116 123.9 57.2776 123.784 57.3092C123.668 57.3408 123.545 57.3366 123.431 57.2971C123.205 57.2117 122.999 57.0803 122.826 56.9111L123.127 58.0872C122.61 58.1003 122.097 57.9914 121.63 57.7693C121.139 59.0498 120.562 61.4656 120.089 62.3102C119.134 62.1876 118.915 62.0513 118.41 62.1421C117.76 62.2557 117.837 63.3909 117.073 62.9595C116.682 62.7415 116.278 61.0887 116.205 60.6482C115.697 57.7248 115.826 54.7264 116.582 51.8571C116.096 51.1564 115.478 50.5566 114.763 50.0907L114.818 50.1588C113.421 49.4323 111.834 48.6921 110.343 49.1735C109.183 49.5504 108.387 50.5766 107.446 51.3531C106.646 52.0695 105.703 52.608 104.679 52.9329C103.655 53.2577 102.573 53.3616 101.506 53.2375C101.051 54.7905 100.628 57.3697 100.333 58.8364L99.5049 55.6941C99.4276 55.508 99.373 55.3172 99.3139 55.1311V55.0766C99.2337 54.7687 99.1366 54.4655 99.0228 54.1684C98.8304 54.2874 98.6012 54.3323 98.378 54.295C98.1548 54.2576 97.9528 54.1405 97.8097 53.9654C97.6666 53.7903 97.5922 53.5692 97.6004 53.3434C97.6086 53.1175 97.6987 52.9024 97.854 52.738C98.0051 52.5857 98.1784 52.4571 98.3679 52.3566C98.1607 52.5046 97.9186 52.5967 97.6652 52.6237C97.4118 52.6508 97.1557 52.6119 96.9217 52.511C96.6913 52.403 96.5031 52.222 96.3863 51.9962C96.2696 51.7704 96.2307 51.5124 96.2759 51.2623C96.32 51.0954 96.4077 50.9432 96.5299 50.8211C96.6522 50.6991 96.8046 50.6116 96.9718 50.5675C96.3102 50.5227 95.677 50.2824 95.1526 49.8773C94.9508 49.7724 94.7929 49.5992 94.7071 49.3888C94.6213 49.1783 94.6131 48.9443 94.6842 48.7285Z" fill="#263238"/>
<path d="M115.572 48.1877C115.737 48.3626 115.889 48.5493 116.027 48.7463C116.369 49.3072 116.56 49.947 116.582 50.6035C116.608 51.0585 116.586 51.515 116.518 51.9657C116.45 52.4516 116.336 52.9647 116.218 53.5005C116.087 54.0664 115.99 54.6396 115.927 55.217C115.903 55.5192 115.903 55.8229 115.927 56.1252C115.927 56.4523 116.01 56.7741 116.168 57.0606C116.244 57.176 116.349 57.2695 116.473 57.3317C116.597 57.3938 116.735 57.4225 116.873 57.4148C117.138 57.4058 117.393 57.3082 117.596 57.1378C117.939 56.7875 118.181 56.3514 118.296 55.8754H118.187C118.281 56.2917 118.434 56.6924 118.642 57.0651C118.853 57.4135 119.19 57.6672 119.583 57.7735C119.765 57.8236 119.957 57.8236 120.138 57.7735C120.3 57.7163 120.442 57.6149 120.548 57.4807C120.654 57.3465 120.72 57.1852 120.739 57.0152C120.752 56.8632 120.714 56.711 120.63 56.5838L120.566 56.6247C120.826 57.0285 121.169 57.3735 121.571 57.6373C121.678 57.7048 121.789 57.767 121.903 57.8234L122.021 57.8734C122.021 57.8734 121.985 57.8462 121.912 57.8053C121.839 57.7644 121.73 57.6963 121.594 57.6009C121.207 57.3304 120.879 56.9844 120.63 56.5838L120.566 56.6247C120.636 56.7474 120.667 56.889 120.653 57.0298C120.639 57.1705 120.582 57.3035 120.489 57.4102C120.393 57.5393 120.26 57.6347 120.107 57.6827C119.943 57.7294 119.77 57.7294 119.606 57.6827C119.24 57.5802 118.928 57.3412 118.733 57.0152C118.526 56.6516 118.373 56.2601 118.278 55.8527L118.224 55.6711L118.165 55.8482C118.051 56.3006 117.82 56.7155 117.496 57.0515C117.315 57.2056 117.088 57.2936 116.85 57.3012C116.732 57.3072 116.615 57.2822 116.51 57.2288C116.404 57.1755 116.315 57.0956 116.25 56.997C116.104 56.7297 116.027 56.4298 116.027 56.1252C116.004 55.8229 116.004 55.5193 116.027 55.217C116.086 54.6456 116.18 54.0785 116.309 53.5187C116.423 52.9784 116.532 52.4607 116.6 51.9703C116.659 51.5187 116.674 51.0625 116.646 50.608C116.625 49.941 116.426 49.2917 116.068 48.7281C115.935 48.5207 115.768 48.3379 115.572 48.1877Z" fill="#455A64"/>
<path d="M98.5679 50.9219L98.6043 50.9628L98.7225 51.0763C98.7843 51.1406 98.8512 51.1998 98.9226 51.2534C99.0166 51.3305 99.1154 51.4018 99.2182 51.4668C99.876 51.8902 100.63 52.1416 101.41 52.1979C102.569 52.2936 103.731 52.0489 104.753 51.494C105.988 50.8105 107.071 49.8836 107.937 48.7695C108.391 48.1883 108.819 47.5844 109.251 47.0304C109.649 46.4912 110.123 46.0112 110.656 45.6046C111.141 45.241 111.708 45.0024 112.307 44.9098C112.575 44.8686 112.848 44.8686 113.117 44.9098C113.363 44.9613 113.602 45.0453 113.826 45.1595C114.213 45.3589 114.554 45.6374 114.827 45.9769C115.032 46.2338 115.195 46.5221 115.309 46.8306C115.393 47.0989 115.445 47.3764 115.463 47.657C115.463 47.657 115.463 47.657 115.463 47.6025V47.4391C115.451 47.2278 115.413 47.0189 115.35 46.817C115.248 46.5002 115.094 46.2026 114.895 45.936C114.623 45.5815 114.277 45.2902 113.881 45.0824C113.65 44.9609 113.404 44.8722 113.148 44.819C112.872 44.7626 112.587 44.7519 112.307 44.7872C111.688 44.8754 111.102 45.1175 110.602 45.491C110.057 45.901 109.574 46.3874 109.169 46.935C108.714 47.489 108.323 48.0929 107.855 48.6696C107 49.7788 105.932 50.7053 104.712 51.3941C103.708 51.9397 102.569 52.1885 101.428 52.1116C100.661 52.0606 99.9165 51.8254 99.2592 51.4259C99.0203 51.2698 98.7895 51.1016 98.5679 50.9219Z" fill="#455A64"/>
<path d="M98.427 48.547C98.4761 48.607 98.5326 48.6604 98.5953 48.706C98.7597 48.8386 98.9329 48.96 99.1137 49.0692C99.3819 49.2319 99.6634 49.3717 99.9551 49.487C100.314 49.626 100.686 49.7309 101.065 49.8003C101.443 49.8671 101.827 49.8975 102.211 49.8911C102.525 49.8853 102.839 49.8519 103.148 49.7912C103.354 49.7497 103.558 49.6951 103.757 49.6278C103.833 49.6093 103.905 49.5786 103.971 49.537C103.971 49.537 103.653 49.6232 103.13 49.705C102.828 49.7503 102.524 49.7745 102.22 49.7776C101.842 49.7756 101.465 49.7437 101.092 49.6823C100.722 49.6118 100.359 49.5116 100.005 49.3826C99.7171 49.2728 99.4374 49.1423 99.1683 48.9921C98.6999 48.7287 98.4406 48.5289 98.427 48.547Z" fill="#455A64"/>
<path d="M107.154 65.271C107.432 65.2967 107.69 65.4285 107.874 65.6391C108.057 65.8497 108.153 66.1228 108.14 66.4017C108.127 66.6805 108.007 66.9437 107.805 67.1365C107.602 67.3293 107.334 67.4369 107.054 67.4369C106.774 67.4369 106.506 67.3293 106.303 67.1365C106.101 66.9437 105.981 66.6805 105.968 66.4017C105.955 66.1228 106.051 65.8497 106.234 65.6391C106.418 65.4285 106.676 65.2967 106.954 65.271" fill="#FF9A6C"/>
<path d="M106.804 67.2553C106.996 67.3427 107.209 67.3757 107.418 67.3506C107.528 67.3357 107.633 67.2991 107.729 67.2429C107.824 67.1868 107.907 67.1123 107.973 67.0237C108.054 66.9147 108.111 66.7904 108.141 66.6584C108.172 66.5264 108.175 66.3895 108.15 66.2563C108.088 65.9883 107.925 65.7543 107.696 65.6024C107.506 65.479 107.285 65.4142 107.059 65.4162C106.846 65.43 106.637 65.4727 106.436 65.5434C106.436 65.5434 106.477 65.4934 106.581 65.4435C106.723 65.3705 106.877 65.3272 107.036 65.3163C107.316 65.2952 107.595 65.3752 107.821 65.5419C108.047 65.7086 108.206 65.9508 108.269 66.2245C108.299 66.3763 108.296 66.5329 108.26 66.6834C108.224 66.834 108.155 66.9749 108.059 67.0963C107.982 67.1962 107.885 67.2789 107.773 67.3392C107.662 67.3994 107.54 67.4357 107.414 67.446C107.304 67.4655 107.192 67.4583 107.085 67.4251C106.979 67.3919 106.883 67.3336 106.804 67.2553Z" fill="#263238"/>
<path d="M136.574 118.299C136.574 118.299 135.838 121.223 135.114 121.809C135.114 121.809 129.589 126.949 129.325 127.158C129.061 127.367 128.215 127.698 127.824 127.421C127.701 127.298 127.604 127.152 127.539 126.99C127.474 126.829 127.443 126.656 127.447 126.482C127.447 126.482 126.082 127.204 125.55 126.818C125.401 126.726 125.289 126.584 125.235 126.418C125.181 126.251 125.188 126.071 125.255 125.909C125.255 125.909 124.222 126.309 123.663 125.651C123.497 125.423 123.381 125.163 123.322 124.887C123.264 124.612 123.264 124.328 123.322 124.052C123.322 124.052 122.412 124.615 121.957 124.052C121.667 123.577 121.51 123.033 121.503 122.476L122.353 121.278C122.353 121.278 124.668 118.708 125.373 118.004C126.078 117.3 128.893 116.582 130.025 116.346L132.881 112.941L136.574 118.299Z" fill="#FFBF9D"/>
<path d="M135.115 121.809L131.713 114.516C131.713 114.516 135.692 109.226 137.625 105.766C139.558 102.306 138.785 102.542 138.785 102.542C136.974 101.455 135.062 100.542 133.077 99.8177C129.73 98.5916 125.646 96.0124 125.646 96.0124C125.646 96.0124 119.861 93.1789 118.897 91.3399C117.933 89.5008 117.605 85.3187 119.702 83.8021C120.277 83.4139 120.916 83.1281 121.589 82.9575C123.959 82.3216 126.483 82.6293 128.629 83.8157C132.04 85.6547 137.812 88.7698 138.635 89.1966C138.635 89.1966 148.304 95.0679 149.368 96.0351C151.96 98.3964 152.829 101.212 150.004 105.417C147.321 109.426 135.115 121.809 135.115 121.809Z" fill="#FFBF9D"/>
<path d="M138.734 103.337C138.762 103.019 138.853 102.71 139.003 102.428C139.637 100.999 140.779 99.8555 142.209 99.218C142.491 99.0678 142.8 98.9751 143.118 98.9456C142.129 99.3486 141.231 99.9457 140.477 100.702C139.724 101.457 139.129 102.356 138.73 103.346L138.734 103.337Z" fill="#FF9A6C"/>
<path d="M98.9679 78.1306C98.4039 78.4212 91.7413 88.1841 90.6362 89.9051C89.531 91.626 86.2338 120.152 86.2338 120.152L85.5334 128.262L117.496 130.078C117.784 130.112 118.076 130.074 118.345 129.967C118.614 129.859 118.853 129.687 119.038 129.465C119.224 129.242 119.351 128.977 119.408 128.693C119.465 128.41 119.45 128.116 119.365 127.839L117.332 121.201C116.706 119.162 116.685 116.985 117.273 114.934L122.781 95.6765L129.02 91.8622L119.852 79.6019L115.586 78.9343L98.9679 78.1306Z" fill="#263238"/>
<path d="M136.62 86.558L127.652 98.7548C127.652 98.7548 114.663 91.0353 114.199 88.0429C114.14 87.6796 114.099 87.3073 114.062 86.9258C113.968 85.9729 114.078 85.0107 114.384 84.1033C114.691 83.1959 115.187 82.3641 115.841 81.6631C116.494 80.9621 117.29 80.4081 118.174 80.0377C119.059 79.6674 120.012 79.4892 120.971 79.5152H121.08C124.705 79.7104 136.62 86.558 136.62 86.558Z" fill="#263238"/>
<path d="M82.7912 96.4075L80.0625 82.6441C80.0625 82.6441 94.5793 77.7582 97.8993 78.017C99.8457 78.1541 101.748 78.6628 103.502 79.5155L93.3014 93.3424L82.7912 96.4075Z" fill="#263238"/>
<path d="M91.755 83.4524C91.7608 83.4854 91.7608 83.5193 91.755 83.5523C91.755 83.6295 91.755 83.7248 91.7231 83.8384C91.6837 84.1048 91.6292 84.468 91.5594 84.9282C91.3957 85.8954 91.1683 87.2576 90.8909 88.9287C90.3224 92.3025 89.5265 96.966 88.7306 102.124C87.9348 107.283 87.2662 111.964 86.8387 115.361C86.6341 117.059 86.4612 118.435 86.3612 119.384C86.3066 119.838 86.2657 120.211 86.2339 120.479C86.2247 120.607 86.2034 120.735 86.1702 120.86C86.161 120.731 86.161 120.602 86.1702 120.474L86.2566 119.375C86.3294 118.422 86.4749 117.046 86.6568 115.343C87.0434 111.937 87.671 107.251 88.476 102.088C89.2809 96.9251 90.0905 92.2662 90.7044 88.9196C91.0137 87.2531 91.2638 85.8999 91.4457 84.9373C91.5321 84.4832 91.6004 84.1199 91.6549 83.852C91.7095 83.5841 91.7504 83.4524 91.755 83.4524Z" fill="white"/>
<path d="M125.532 92.7292C125.532 92.7701 125.027 92.6021 124.213 92.5022C123.735 92.4474 123.252 92.4352 122.772 92.4659C122.187 92.5107 121.608 92.6126 121.043 92.7701C120.479 92.9388 119.934 93.164 119.415 93.4421C118.994 93.6725 118.595 93.9416 118.224 94.2459C117.587 94.7635 117.264 95.154 117.232 95.154C117.2 95.154 117.291 95.036 117.432 94.8498C117.637 94.5885 117.865 94.3468 118.114 94.1278C118.482 93.7998 118.883 93.5107 119.311 93.265C119.838 92.9693 120.396 92.7318 120.975 92.5567C121.558 92.3929 122.158 92.2939 122.762 92.2615C123.255 92.2396 123.749 92.2701 124.236 92.3523C124.565 92.4002 124.888 92.4808 125.2 92.593C125.418 92.6611 125.537 92.7111 125.532 92.7292Z" fill="white"/>
<path d="M115.099 92.3931C114.972 92.2261 114.865 92.0447 114.781 91.8527C114.515 91.3425 114.279 90.818 114.071 90.2816C113.765 89.4819 113.542 88.6525 113.407 87.8068C113.241 86.7655 113.263 85.7028 113.471 84.6691C113.674 83.627 114.125 82.6489 114.785 81.8174C115.332 81.1447 116.026 80.6058 116.814 80.2417C117.342 79.9963 117.911 79.8515 118.492 79.8149C118.643 79.8058 118.795 79.8058 118.947 79.8149C119.056 79.8149 119.11 79.8149 119.11 79.8421C118.302 79.8631 117.509 80.0629 116.788 80.4273C116.067 80.7917 115.436 81.3115 114.94 81.9491C114.312 82.7609 113.882 83.7077 113.685 84.7145C113.357 86.5628 113.539 88.4654 114.212 90.218C114.453 90.8991 114.667 91.435 114.845 91.8073C114.943 91.9966 115.028 92.1923 115.099 92.3931Z" fill="#263238"/>
<path d="M108.396 113.354C108.177 113.507 107.948 113.643 107.709 113.763C107.254 114.012 106.609 114.362 105.799 114.784C104.171 115.638 101.911 116.773 99.3775 117.963C96.8444 119.153 94.5204 120.165 92.8286 120.874C91.9827 121.223 91.296 121.5 90.8139 121.686C90.5721 121.796 90.321 121.885 90.0635 121.95C90.2936 121.818 90.5321 121.701 90.7775 121.6L92.7604 120.719C94.434 119.975 96.7443 118.939 99.2729 117.75C101.802 116.56 104.08 115.452 105.722 114.644L107.668 113.685C107.9 113.552 108.143 113.441 108.396 113.354Z" fill="white"/>
<path d="M67.7509 71.6462C67.7509 71.6462 58.8553 90.9585 59.4556 94.1871C60.1059 97.6926 62.2298 98.7279 66.3775 98.1785C70.5251 97.629 82.3223 94.0463 82.3223 94.0463L80.1575 83.1482L69.4336 86.2542L74.168 72.0095L67.7509 71.6462Z" fill="#FFBF9D"/>
<path d="M68.5515 94.3228C68.4651 94.2865 69.3156 92.62 69.5703 90.3768C69.825 88.1336 69.4111 86.3218 69.5021 86.29C69.6636 86.6622 69.7649 87.0577 69.8022 87.4616C70.0898 89.4107 69.8528 91.4011 69.1155 93.2285C68.9861 93.6205 68.7958 93.9898 68.5515 94.3228Z" fill="#FF9A6C"/>
<path d="M81.8996 58.0737C81.8678 58.1509 80.8218 57.7876 79.5575 57.27C78.2931 56.7523 77.2835 56.271 77.3244 56.1983C77.3654 56.1257 78.4023 56.4844 79.6666 57.002C80.9309 57.5197 81.9269 58.001 81.8996 58.0737Z" fill="#455A64"/>
<path d="M77.2884 65.1116C76.6835 65.0435 75.1555 65.8291 73.8684 67.382L73.8002 67.4501C72.8906 68.4945 72.3039 65.3023 72.2357 64.1217C72.2204 63.9397 72.1642 63.7634 72.0713 63.6061C71.9784 63.4487 71.8513 63.3142 71.6993 63.2126C71.5473 63.1109 71.3743 63.0448 71.1932 63.019C71.0121 62.9932 70.8275 63.0085 70.6531 63.0637L66.6282 64.6393H66.0006C65.4139 64.8164 65.0546 66.047 65.1638 66.6328L66.2234 72.0954C66.5281 73.3169 67.133 73.7165 67.9562 74.6565L73.8184 73.1081C73.9685 72.6267 74.546 70.2746 74.8007 69.6252C75.0277 69.0391 75.3573 68.4978 75.774 68.0268C76.2236 67.49 76.7281 67.0015 77.2793 66.5692C77.3248 66.5692 77.3703 66.5102 77.4112 66.492C77.5399 66.4246 77.646 66.3211 77.7166 66.1943C77.7872 66.0675 77.8191 65.9228 77.8085 65.7781C77.7978 65.6334 77.7451 65.495 77.6568 65.3798C77.5684 65.2646 77.4483 65.1777 77.3112 65.1298L77.2884 65.1116Z" fill="#FFBF9D"/>
<path d="M74.3685 52.5568C74.3685 52.5568 70.4119 51.9664 64.5678 47.0396C58.7238 42.1128 55.6631 35.2334 55.0173 35.306C54.3715 35.3787 51.3244 34.2253 46.5946 46.8807C41.8648 59.5361 44.2525 62.2152 45.3621 62.1153C46.4718 62.0154 53.8485 59.3453 58.5828 59.5451C63.3172 59.7449 69.5341 61.7792 69.5341 61.7792L74.3685 52.5568Z" fill="#F99D25"/>
<path d="M82.5271 58.9816L81.4401 61.4655L80.9581 62.578C80.6412 63.3108 80.0536 63.8934 79.3175 64.2046C78.5814 64.5158 77.7535 64.5317 77.006 64.249L68.9517 62.0512L72.7946 51.2031L80.949 54.8358C81.7069 55.1788 82.2982 55.8073 82.5938 56.5839C82.8895 57.3606 82.8655 58.2225 82.5271 58.9816Z" fill="#263238"/>
<path d="M79.1256 61.988L76.1331 67.0465L74.8324 66.5924L65.7367 73.1131L63.6265 68.1863C63.6265 68.1863 68.8838 66.3064 69.9526 64.5309C71.0213 62.7554 69.9526 62.2605 69.9526 62.2605L72.5403 59.6631L79.1256 61.988Z" fill="#263238"/>
<path d="M47.0128 47.1936C44.5206 54.0049 43.6974 59.9353 45.1937 60.4893C46.6899 61.0432 49.8871 55.9938 52.3793 49.1825C54.8716 42.3712 55.6947 36.4409 54.1985 35.8914C52.7022 35.342 49.5051 40.4005 47.0128 47.1936Z" fill="#263238"/>
<path d="M81.3177 59.7133C81.2904 59.7905 80.1352 59.4273 78.7345 58.9096C77.3337 58.3919 76.2286 57.9061 76.2559 57.8334C76.2832 57.7608 77.4383 58.115 78.8345 58.6371C80.2307 59.1593 81.3449 59.6271 81.3177 59.7133Z" fill="#455A64"/>
<path d="M80.5583 61.443C80.5583 61.4839 80.2763 61.443 79.8397 61.334C79.626 61.2841 79.3849 61.2205 79.0802 61.1433C78.7755 61.0661 78.4935 60.9344 78.1706 60.8164C76.8972 60.326 75.8967 59.831 75.9422 59.7584C75.9876 59.6857 77.0109 60.0581 78.2752 60.5394C78.589 60.6574 78.8846 60.7937 79.1848 60.8845C79.485 60.9753 79.7078 61.0616 79.917 61.1388C80.3218 61.2886 80.5674 61.4021 80.5583 61.443Z" fill="#455A64"/>
<path d="M52.93 45.3004C52.93 45.3004 49.4145 43.4386 47.8864 48.152C46.3583 52.8654 49.9648 53.3695 49.9648 53.3695C51.3272 50.8319 52.3254 48.1156 52.93 45.3004Z" fill="#FAFAFA"/>
<path d="M56.1361 39.5833C56.1389 39.8875 56.1145 40.1915 56.0634 40.4914C55.9997 41.059 55.9042 41.8809 55.7586 42.8935L55.4039 44.5328C55.3402 44.8279 55.272 45.1322 55.2038 45.441C55.172 45.5999 55.1356 45.7588 55.0992 45.895C55.0628 46.0313 55.0037 46.2129 54.9582 46.3764C54.7581 47.0257 54.5489 47.7023 54.3352 48.4061L54.1714 48.942C54.1169 49.1191 54.035 49.2916 53.9668 49.4687L53.5393 50.5449L53.1118 51.6211C53.0345 51.7982 52.9753 51.9753 52.8935 52.1433L52.6433 52.6428L51.6974 54.5454C51.6201 54.6952 51.5519 54.8496 51.47 54.9995C51.3881 55.1493 51.2972 55.2765 51.2153 55.4172L50.7332 56.2164L49.8509 57.6468C49.2643 58.4778 48.764 59.1362 48.4229 59.5948C48.2598 59.8414 48.0724 60.0711 47.8635 60.2805C47.9978 60.0192 48.1497 59.7674 48.3183 59.5267L49.6827 57.5242L50.5195 56.0893C50.6696 55.8304 50.8242 55.5625 50.9743 55.2901C51.0516 55.1493 51.1334 55.0131 51.2153 54.8723C51.2972 54.7316 51.3608 54.5772 51.4382 54.4182L52.3477 52.5247C52.425 52.3567 52.5069 52.1932 52.5888 52.0252C52.6706 51.8572 52.7298 51.6801 52.8025 51.5075L53.23 50.4359L53.6575 49.3688C53.7212 49.1917 53.8031 49.0237 53.8576 48.8466C53.9122 48.6695 53.9713 48.4924 54.0259 48.3153L54.6581 46.3037C54.7081 46.1403 54.7627 45.9859 54.8081 45.8496L54.9173 45.3956C54.9901 45.0868 55.0583 44.7825 55.131 44.4874C55.2675 43.9062 55.3948 43.3612 55.5131 42.8663C55.6813 41.8718 55.8178 41.0499 55.9133 40.4869C55.9627 40.1801 56.0372 39.8779 56.1361 39.5833Z" fill="#263238"/>
<path d="M69.6159 61.6605C69.3953 61.7464 69.2145 61.9111 69.1086 62.1225C69.0028 62.3339 68.9793 62.5771 69.0428 62.8048C69.2975 63.713 69.7205 65.1843 70.0479 66.0743C70.1391 66.3641 70.2824 66.635 70.4709 66.8735C70.5647 66.9874 70.6884 67.0731 70.828 67.1212C70.9677 67.1693 71.118 67.1778 71.2622 67.1459C71.4091 67.0844 71.5361 66.9836 71.6292 66.8546C71.7223 66.7256 71.7778 66.5734 71.7898 66.4148C71.8148 66.0914 71.7778 65.7662 71.6806 65.4567C71.4669 64.5894 71.0803 63.2907 70.7483 62.2327C70.7154 62.1181 70.6594 62.0115 70.5837 61.9193C70.5081 61.827 70.4144 61.7512 70.3084 61.6964C70.2024 61.6415 70.0863 61.6089 69.9672 61.6004C69.8482 61.5919 69.7286 61.6077 69.6159 61.6469V61.6605Z" fill="#FFBF9D"/>
<path d="M68.2473 63.2592C68.0237 63.3452 67.8407 63.512 67.7346 63.7265C67.6284 63.941 67.6069 64.1875 67.6743 64.4171C67.9335 65.3253 68.3565 66.801 68.6839 67.6865C68.7713 67.9779 68.915 68.2494 69.1069 68.4857C69.1992 68.6005 69.3217 68.6872 69.4607 68.7361C69.5997 68.7851 69.7497 68.7943 69.8936 68.7627C70.0411 68.7002 70.1687 68.5987 70.2625 68.469C70.3563 68.3393 70.4127 68.1865 70.4257 68.0271C70.4508 67.7037 70.4137 67.3785 70.3166 67.069C70.0983 66.2062 69.7163 64.9075 69.3843 63.8495C69.3513 63.7344 69.2952 63.6271 69.2193 63.5344C69.1434 63.4416 69.0494 63.3653 68.943 63.31C68.8366 63.2548 68.72 63.2218 68.6004 63.213C68.4808 63.2043 68.3606 63.22 68.2473 63.2592Z" fill="#FFBF9D"/>
<path d="M66.9693 64.2264C66.7701 64.2949 66.6051 64.4375 66.5086 64.6244C66.412 64.8113 66.3913 65.0282 66.4508 65.2299C66.6873 66.0291 67.0739 67.2915 67.3604 68.0634C67.4418 68.316 67.5716 68.5504 67.7424 68.7536C67.8278 68.8554 67.9396 68.9317 68.0655 68.9742C68.1915 69.0166 68.3267 69.0236 68.4564 68.9943C68.5883 68.9446 68.7033 68.8584 68.7879 68.7458C68.8724 68.6332 68.9231 68.4989 68.9339 68.3586C68.9575 68.0791 68.9234 67.7979 68.8339 67.5321C68.6338 66.7829 68.2836 65.6567 67.9789 64.7395C67.946 64.6384 67.8933 64.5447 67.8239 64.4641C67.7545 64.3834 67.6697 64.3173 67.5746 64.2696C67.4794 64.2218 67.3757 64.1935 67.2694 64.186C67.1632 64.1786 67.0565 64.1923 66.9556 64.2264H66.9693Z" fill="#FFBF9D"/>
<path d="M65.3503 64.476C65.1508 64.5455 64.9858 64.6889 64.8892 64.8765C64.7927 65.0642 64.7722 65.2817 64.8318 65.4841C65.0683 66.2923 65.4549 67.5592 65.7414 68.3312C65.8244 68.5854 65.9557 68.8212 66.128 69.0259C66.2144 69.1277 66.327 69.2039 66.4536 69.2463C66.5803 69.2887 66.7162 69.2957 66.8465 69.2666C66.9784 69.2162 67.0935 69.13 67.1787 69.0176C67.2639 68.9052 67.3158 68.7712 67.3286 68.6309C67.3484 68.3482 67.3128 68.0645 67.224 67.7954C67.0239 67.0416 66.6737 65.9154 66.369 64.9936C66.3356 64.8918 66.2823 64.7975 66.2122 64.7162C66.1422 64.635 66.0567 64.5684 65.9607 64.5203C65.8648 64.4722 65.7602 64.4435 65.6531 64.4359C65.546 64.4283 65.4385 64.4419 65.3367 64.476H65.3503Z" fill="#FFBF9D"/>
<path d="M70.3844 66.9145C70.298 66.9463 69.966 66.2107 69.6476 65.2752C69.3293 64.3398 69.1383 63.5497 69.2292 63.5225C69.3202 63.4952 69.6476 64.2263 69.966 65.1617C70.2844 66.0971 70.4708 66.8918 70.3844 66.9145Z" fill="#FF9A6C"/>
<path d="M68.9202 68.2133C68.8338 68.2405 68.4654 67.3914 68.1425 66.3197C67.8196 65.2481 67.5923 64.3581 67.6878 64.3263C67.7833 64.2945 68.1425 65.1437 68.47 66.2153C68.7974 67.2869 69.0112 68.186 68.9202 68.2133Z" fill="#FF9A6C"/>
<path d="M67.4786 68.2995C67.3968 68.3404 66.9966 67.623 66.6737 66.6648C66.3508 65.7067 66.2189 64.8984 66.3144 64.8757C66.4099 64.853 66.6691 65.6159 66.992 66.5559C67.3149 67.4958 67.5878 68.2541 67.4786 68.2995Z" fill="#FF9A6C"/>
<path d="M37.4308 56.1027C37.4308 56.1663 34.2836 56.9473 30.3679 57.851C26.4522 58.7546 23.2641 59.4266 23.2459 59.3631C23.2277 59.2995 26.3976 58.5185 30.3133 57.6194C34.2291 56.7203 37.4171 56.0392 37.4308 56.1027Z" fill="#263238"/>
<path d="M40.05 48.9334C40.05 48.9971 34.7245 49.0244 28.1528 48.988C21.5811 48.9516 16.251 48.8698 16.251 48.8015C16.251 48.7333 21.5765 48.7151 28.1528 48.7515C34.729 48.7879 40.0546 48.8698 40.05 48.9334Z" fill="#263238"/>
<path d="M41.7104 44.8781C41.6786 44.9325 37.7128 43.0617 32.8512 40.6778C27.9895 38.2938 24.0647 36.3231 24.0919 36.2641C24.1192 36.205 28.0895 38.0804 32.9558 40.4643C37.822 42.8483 41.7377 44.819 41.7104 44.8781Z" fill="#263238"/>
<path d="M45.703 40.95C45.6485 40.9864 42.847 36.8406 39.4497 31.6867C36.0524 26.5328 33.3373 22.3234 33.3919 22.2871C33.4465 22.2508 36.248 26.4011 39.6453 31.555C43.0425 36.7089 45.7576 40.9137 45.703 40.95Z" fill="#263238"/>
</g>
</svg>
