<svg width="16" height="16" viewBox="0 0 16 16" fill="none" xmlns="http://www.w3.org/2000/svg">
<path id="Vector" d="M11.9849 10.7069C12.1111 9.81013 12.1737 8.90558 12.1723 8C12.1737 7.09442 12.1111 6.18987 11.9849 5.29313H15.5297C16.1561 7.04332 16.1561 8.95668 15.5297 10.7069H11.9849ZM7.99951 16C7.21837 16 6.42099 15.1981 5.80952 13.8003C5.53018 13.1619 5.30272 12.4341 5.13243 11.6441H10.8666C10.6963 12.4337 10.4688 13.1616 10.1895 13.8003C9.57803 15.1981 8.78065 16 7.99951 16ZM4.9612 10.7069C4.69791 8.9119 4.69791 7.0881 4.9612 5.29313H11.0378C11.171 6.18924 11.237 7.09405 11.2353 8C11.237 8.90595 11.171 9.81076 11.0378 10.7069H4.9612ZM0.469357 10.7069C-0.157103 8.95668 -0.157103 7.04332 0.469357 5.29313H4.01415C3.76377 7.08902 3.76377 8.91098 4.01415 10.7069H0.469357ZM7.99951 0C8.78065 0 9.57803 0.801563 10.1895 2.19969C10.4688 2.83812 10.6963 3.56594 10.8666 4.35594H5.13243C5.30272 3.56625 5.53018 2.83844 5.80952 2.19969C6.42099 0.801563 7.21837 0 7.99951 0ZM15.1235 4.35563H11.8233C11.6359 3.4275 11.3753 2.57094 11.0484 1.82437C10.7838 1.21875 10.4838 0.705938 10.1554 0.292812C11.2203 0.587741 12.212 1.10133 13.0674 1.80084C13.9227 2.50035 14.623 3.37044 15.1235 4.35563ZM5.84358 0.2925C5.51612 0.705937 5.21648 1.21844 4.95152 1.82375C4.62469 2.57094 4.36442 3.4275 4.17663 4.355H0.875548C1.37617 3.36993 2.07646 2.49995 2.93181 1.8005C3.78716 1.10106 4.77881 0.587481 5.84358 0.2925ZM0.875548 11.6444H4.17569C4.36317 12.5725 4.62375 13.4291 4.95058 14.1756C5.21554 14.7809 5.51519 15.2934 5.84264 15.7069C4.77801 15.4119 3.7865 14.8983 2.9313 14.1988C2.07611 13.4994 1.37598 12.6294 0.875548 11.6444ZM10.1554 15.7069C10.4829 15.2934 10.7829 14.7809 11.0475 14.1756C11.3743 13.4284 11.6346 12.5719 11.8224 11.6444H15.1235C14.623 12.6296 13.9227 13.4997 13.0674 14.1993C12.212 14.8988 11.2203 15.4119 10.1554 15.7069Z" fill="#465159"/>
</svg>
