<svg width="240" height="284" viewBox="0 0 240 284" fill="none" xmlns="http://www.w3.org/2000/svg">
<path d="M7.02328 5.76318H182.802C185.851 5.76318 188.319 8.24963 188.319 11.3003V155.782C188.319 159.474 185.337 162.467 181.658 162.467H6.17517C3.16389 162.467 0.714844 160.009 0.714844 156.987V12.0941C0.714844 8.60348 3.54507 5.76318 7.02328 5.76318Z" fill="#E6F6EB"/>
<path d="M6.13808 5.73448H181.593C185.147 5.73448 188.025 8.63215 188.025 12.1897V28.5142H0.363281V11.5203C0.363281 8.32613 2.94574 5.72491 6.13808 5.72491V5.73448Z" fill="#F2E6F2"/>
<path d="M181.887 162.438C181.887 162.438 182.04 162.419 182.326 162.4C182.611 162.381 183.05 162.314 183.603 162.161C184.146 161.989 184.822 161.702 185.499 161.186C186.175 160.679 186.871 159.933 187.338 158.91C187.862 157.896 187.957 156.624 187.91 155.228C187.91 153.831 187.91 152.301 187.9 150.647C187.9 147.338 187.891 143.522 187.881 139.219C187.862 122.024 187.834 97.1499 187.805 66.4135C187.805 51.0453 187.786 34.2044 187.776 16.1394C187.776 15.0109 187.776 13.8729 187.776 12.7348C187.814 11.5777 187.738 10.4875 187.271 9.46419C186.395 7.41764 184.26 5.95446 182.002 5.95446C177.351 5.95446 172.625 5.95446 167.831 5.95446C158.235 5.95446 148.363 5.95446 138.243 5.96403C97.7429 5.96403 53.2217 5.97359 6.48972 5.98315C5.08891 5.98315 3.69762 6.49957 2.63986 7.42721C1.5821 8.34528 0.867396 9.65545 0.695868 11.0421C0.610104 11.7211 0.638692 12.4575 0.638692 13.1939V15.3743C0.638692 16.8279 0.638692 18.2815 0.638692 19.7256C0.638692 25.5209 0.638692 31.2685 0.638692 36.9777C0.638692 48.3963 0.638692 59.6523 0.638692 70.717C0.638692 92.8368 0.629162 114.173 0.619633 134.494C0.619633 139.573 0.619633 144.593 0.619633 149.547C0.629162 152.014 0.591045 154.501 0.648221 156.901C0.838808 159.263 2.60174 161.367 4.84114 161.989C5.94655 162.333 7.14725 162.199 8.33842 162.228C9.52959 162.228 10.7112 162.228 11.8929 162.228C14.2562 162.228 16.6004 162.228 18.9255 162.228C23.5759 162.228 28.1595 162.228 32.6574 162.228C50.6679 162.238 67.4395 162.247 82.7628 162.257C113.39 162.285 138.176 162.314 155.31 162.333C163.867 162.352 170.519 162.371 175.036 162.381C177.285 162.391 179 162.4 180.162 162.41C181.315 162.41 181.906 162.438 181.906 162.438C181.906 162.438 181.315 162.457 180.162 162.467C179 162.467 177.285 162.477 175.036 162.496C170.519 162.505 163.877 162.524 155.31 162.544C138.176 162.563 113.39 162.591 82.7628 162.62C67.4491 162.62 50.6679 162.639 32.6574 162.649C28.15 162.649 23.5759 162.649 18.9255 162.649C16.6004 162.649 14.2562 162.649 11.8929 162.649C10.7112 162.649 9.52959 162.649 8.33842 162.649H6.5469C5.93702 162.639 5.30808 162.582 4.71726 162.391C2.30633 161.721 0.409987 159.464 0.20987 156.92C0.152694 154.434 0.190811 152.005 0.181282 149.528C0.181282 144.574 0.181282 139.563 0.181282 134.475C0.181282 114.153 0.181282 92.8177 0.162223 70.6978C0.162223 59.6427 0.162223 48.3867 0.162223 36.9586C0.162223 31.2493 0.162223 25.4922 0.162223 19.7065C0.162223 18.2624 0.162223 16.8088 0.162223 15.3552V13.1747C0.162223 12.4479 0.133635 11.7211 0.228929 10.9561C0.419516 9.44506 1.19139 8.02969 2.34445 7.03511C3.48797 6.03097 4.99361 5.46674 6.51831 5.46674C53.2503 5.46674 97.7715 5.4763 138.271 5.48586C148.392 5.48586 158.264 5.48586 167.86 5.49543C172.653 5.49543 177.389 5.49543 182.04 5.50499C184.47 5.50499 186.757 7.08293 187.691 9.27292C188.186 10.3536 188.262 11.6064 188.224 12.7157C188.224 13.8537 188.224 14.9918 188.224 16.1202C188.215 34.1948 188.205 51.0262 188.196 66.3944C188.167 97.1307 188.138 122.005 188.119 139.2C188.119 143.493 188.1 147.319 188.1 150.628C188.1 152.282 188.1 153.812 188.091 155.209C188.138 156.595 188.024 157.915 187.491 158.938C187.005 159.971 186.29 160.727 185.604 161.233C184.908 161.75 184.231 162.027 183.679 162.19C183.117 162.343 182.678 162.4 182.392 162.41C182.097 162.419 181.954 162.419 181.954 162.419L181.887 162.438Z" fill="#343C41"/>
<path d="M52.4498 90.1782C52.4498 90.1782 48.1711 96.1075 46.0461 100.545C43.921 104.982 25.3292 139.869 23.614 143.474C21.5461 147.826 19.8117 159.455 27.8641 162.257H44.4261L61.0453 129.531L57.2812 101.587L52.4498 90.1782Z" fill="#AE7461"/>
<path d="M142.007 82.1546C142.007 82.1546 150.335 84.5359 153.194 94.826C156.053 105.116 165.23 127.858 165.23 127.858C165.23 127.858 170.776 138.109 171.309 142.489C171.843 146.869 170.652 155.763 169.041 157.733C167.431 159.703 165.134 159.378 165.134 159.378L144.046 157.37L135.736 101.559L142.007 82.1451V82.1546Z" fill="#AE7461"/>
<path d="M71.0986 77.7938C71.0986 77.7938 55.5562 82.5372 51.6777 86.6685L64.409 144.326L64.2089 162.515H137.909C137.909 161.616 138.566 102.113 138.566 102.113L139.272 76.7514L109.416 72.467L84.4492 73.8633L78.055 76.0724L71.0986 77.7938Z" fill="#C997CD"/>
<g opacity="0.3">
<path d="M78.9694 127.819C78.7503 127.332 78.4358 126.806 77.9117 126.691C77.054 126.509 76.4727 127.532 76.1773 128.364C73.8522 134.963 68.3728 141.428 64.3704 147.166L64.2656 156.777C68.43 153.258 74.8813 148.333 77.5305 143.56C80.1797 138.788 81.1993 132.802 78.9599 127.819H78.9694Z" fill="#343C41"/>
</g>
<g opacity="0.3">
<path d="M119.679 125.983C119.012 132.649 120.479 139.515 123.815 145.32C127.14 151.125 132.019 156.299 138.09 159.082C138.29 153.162 138.004 146.19 138.194 140.28L119.679 125.993V125.983Z" fill="#343C41"/>
</g>
<path d="M138.196 76.6079C138.196 76.6079 146.534 78.0424 153.195 91.0389C156.216 96.9299 162.725 117.022 162.725 117.022L138.263 127.092L135.785 104.083L138.196 76.6079Z" fill="#C997CD"/>
<path d="M136.252 103.328C136.252 103.328 136.309 103.089 136.462 102.677C136.643 102.209 136.871 101.625 137.138 100.946C137.71 99.4833 138.501 97.4654 139.33 95.2276C140.159 92.9802 140.883 90.9433 141.398 89.461C141.646 88.7724 141.846 88.189 142.017 87.7109C142.17 87.2997 142.255 87.0701 142.284 87.0797C142.303 87.0797 142.255 87.3283 142.132 87.7491C142.017 88.1699 141.836 88.782 141.607 89.5375C141.141 91.0389 140.454 93.095 139.625 95.3424C138.796 97.5897 137.967 99.598 137.348 101.042C137.033 101.759 136.776 102.343 136.585 102.735C136.395 103.127 136.281 103.347 136.261 103.337L136.252 103.328Z" fill="#343C41"/>
<path d="M61.4086 103.911C61.3228 103.93 60.6844 101.09 59.9697 97.5802C59.255 94.0609 58.7499 91.2015 58.8357 91.1823C58.9214 91.1632 59.5599 94.0035 60.2746 97.5132C60.9893 101.023 61.4944 103.892 61.4086 103.911Z" fill="#343C41"/>
<path d="M34.2676 116.535C34.2676 116.535 48.514 88.103 53.0023 85.5401C57.4906 82.9771 58.8248 91.1824 58.8248 91.1824L64.6186 123.401L60.54 131.377L34.2676 116.535Z" fill="#C997CD"/>
<path d="M87.6898 5.81101C88.557 3.68796 90.8917 2.26304 93.1883 2.4543C95.6373 0.120862 99.7731 -0.194726 102.537 1.74662C104.423 0.379071 107.034 0.0826093 109.169 0.99112C111.313 1.89963 112.905 3.97486 113.229 6.27005C115.516 5.68669 118.117 6.7004 119.394 8.67043C120.671 10.6405 120.519 13.4234 119.041 15.25C121.643 15.8238 123.568 18.5397 123.253 21.1696C122.939 23.7995 120.414 25.9895 117.755 25.9417L89.3003 12.008C87.5183 10.564 86.8322 7.9245 87.6898 5.80145V5.81101Z" fill="#343C41"/>
<path d="M123.044 55.6644C122.558 49.7351 120.547 37.5993 118.613 26.6302C116.526 14.8483 105.691 6.64299 93.7219 7.78102L92.5307 7.89578C79.7709 9.85625 74.3106 21.7338 76.6167 34.3765L83.6589 77.7268C84.9167 85.454 92.0352 90.7998 99.773 89.8244C108.083 88.782 113.781 80.9114 112.209 72.6583L111.904 71.0325C111.904 71.0325 124.054 67.9532 123.044 55.6644Z" fill="#AE7461"/>
<path d="M112.008 70.9943C112.008 70.9943 104.175 72.2088 95.4082 67.8193C95.4082 67.8193 100.049 76.2923 112.247 74.0163L112.018 70.9943H112.008Z" fill="#6F4439"/>
<path d="M114.354 38.5939C114.477 39.512 113.791 40.3823 112.819 40.5257C111.857 40.6691 110.971 40.038 110.856 39.1199C110.732 38.2018 111.418 37.3316 112.381 37.1881C113.343 37.0447 114.23 37.6758 114.344 38.5939H114.354Z" fill="#343C41"/>
<path d="M116.536 32.8846C116.335 33.1333 114.916 32.2822 113.019 32.4639C111.123 32.6169 109.827 33.7262 109.598 33.5158C109.484 33.4202 109.674 32.9898 110.237 32.4925C110.789 31.9953 111.771 31.4788 112.952 31.3736C114.134 31.2684 115.163 31.6032 115.783 31.9953C116.412 32.3873 116.64 32.7794 116.545 32.8942L116.536 32.8846Z" fill="#343C41"/>
<path d="M97.1524 40.277C97.2762 41.1951 96.5901 42.0654 95.6181 42.2088C94.6557 42.3523 93.7694 41.7211 93.6551 40.803C93.5312 39.8849 94.2173 39.0147 95.1798 38.8712C96.1422 38.7278 97.0285 39.3589 97.1428 40.277H97.1524Z" fill="#343C41"/>
<path d="M97.9426 35.0077C97.7425 35.2563 96.3131 34.4052 94.4262 34.5869C92.5299 34.7399 91.2339 35.8493 91.0052 35.6389C90.8908 35.5432 91.0719 35.1129 91.6437 34.6156C92.1964 34.1183 93.1779 33.6019 94.3595 33.4967C95.5412 33.3915 96.5703 33.7262 97.1898 34.1183C97.8092 34.5104 98.0474 34.9025 97.9521 35.0173L97.9426 35.0077Z" fill="#343C41"/>
<path d="M106.138 48.3389C106.119 48.2337 107.281 47.9181 109.159 47.4973C109.635 47.4017 110.083 47.2582 110.14 46.9235C110.226 46.5601 109.969 46.0628 109.683 45.5273C109.121 44.4084 108.53 43.2321 107.901 41.9984C105.423 36.9682 103.574 32.8081 103.775 32.7125C103.984 32.6169 106.157 36.6143 108.635 41.6446C109.235 42.8878 109.807 44.0737 110.359 45.2021C110.598 45.7281 110.969 46.321 110.788 47.067C110.693 47.4399 110.359 47.7364 110.064 47.8512C109.759 47.9755 109.492 48.0042 109.254 48.0424C107.339 48.3293 106.157 48.4441 106.138 48.3389Z" fill="#343C41"/>
<path d="M97.7247 27.5675C97.5818 28.0934 95.6759 28.0361 93.4746 28.5142C91.2638 28.9446 89.539 29.767 89.1959 29.3367C89.0435 29.1263 89.3103 28.6194 89.9869 28.0552C90.6539 27.4909 91.7593 26.9076 93.0839 26.6398C94.4085 26.372 95.6473 26.4581 96.4859 26.7163C97.334 26.965 97.7819 27.3284 97.7247 27.577V27.5675Z" fill="#343C41"/>
<path d="M115.315 27.4909C115.02 27.95 113.676 27.6344 112.104 27.7587C110.531 27.8352 109.235 28.3229 108.883 27.9022C108.73 27.7013 108.892 27.2519 109.435 26.7833C109.969 26.3242 110.893 25.9034 111.98 25.8365C113.066 25.7696 114.029 26.066 114.619 26.4581C115.22 26.8502 115.439 27.271 115.315 27.4909Z" fill="#343C41"/>
<path d="M116.896 21.1122C116.896 21.1122 112.913 13.7389 109.025 12.2949C104.308 10.5544 102.841 15.6611 98.4285 14.8674C94.0164 14.0832 89.5185 12.4096 85.4399 16.1297C80.9802 20.2037 83.4674 22.5276 83.6865 27.9978C84.5728 50.1846 81.1136 56.8119 78.979 46.5218C78.7408 45.3934 75.4818 44.7909 74.5574 40.0188C73.3567 33.8314 72.3942 26.2764 73.3758 21.7147C74.2048 17.8703 76.0916 15.0873 79.6652 11.8836C85.297 6.82467 93.5971 5.93529 99.3052 5.96398C105.004 5.99267 116.506 11.4246 116.906 21.1026L116.896 21.1122Z" fill="#343C41"/>
<path d="M79.733 46.1202C79.4757 44.2362 77.6937 42.8974 75.8164 43.2512C73.5389 43.6911 71.0993 45.2308 71.6997 49.9455C72.767 58.3134 80.9813 55.5113 80.9622 55.2722C80.9527 55.1097 80.2094 49.6203 79.733 46.1202Z" fill="#AE7461"/>
<path d="M78.7313 52.3555C78.7313 52.3555 78.5979 52.4798 78.3692 52.6233C78.1405 52.7667 77.7403 52.891 77.2733 52.7858C76.3394 52.5754 75.4151 51.2653 75.1864 49.7638C75.072 49.0083 75.1387 48.2624 75.3293 47.6217C75.5104 46.9809 75.8534 46.5028 76.2918 46.3593C76.7206 46.1967 77.0732 46.4263 77.2066 46.6462C77.3496 46.8662 77.321 47.0383 77.3591 47.0479C77.3877 47.067 77.5211 46.8853 77.4067 46.5506C77.3496 46.388 77.2257 46.2063 77.0065 46.0724C76.7873 45.9385 76.4728 45.8907 76.1679 45.9577C75.5294 46.082 75.0149 46.7514 74.8052 47.4495C74.5574 48.1572 74.4622 48.9892 74.5956 49.8499C74.8624 51.533 75.9297 52.9962 77.1876 53.1875C77.7974 53.264 78.2644 53.0249 78.5026 52.7954C78.7408 52.5563 78.7599 52.365 78.7218 52.3555H78.7313Z" fill="#6F4439"/>
<path d="M78.3507 29.853C79.5132 30.4938 80.7425 31.1537 82.0767 31.1537C83.4108 31.1537 84.8497 30.2643 84.945 28.935C84.9926 28.3421 84.783 27.6822 85.126 27.1849C85.5358 26.6015 86.403 26.6876 87.1177 26.6972C89.5953 26.7259 91.9395 24.7558 92.3398 22.3267C93.0545 23.197 94.5125 23.0153 95.3987 22.3267C96.2849 21.6286 96.7995 20.5767 97.4666 19.6682C98.1241 18.7501 99.0961 17.899 100.221 17.9563C100.85 17.985 101.469 18.3006 102.088 18.1859C103.184 17.985 103.603 16.6462 103.67 15.5368C103.737 14.4275 103.746 13.1364 104.623 12.4574C105.443 11.8263 106.596 12.0367 107.625 12.0845C108.654 12.1419 109.95 11.7785 110.122 10.7552C110.207 10.2196 109.931 9.69366 109.597 9.27288C108.092 7.3411 105.138 6.70036 102.955 7.82882C101.869 5.13198 99.058 3.22889 96.142 3.19064C93.226 3.16195 90.3767 5.01722 89.2237 7.68538C87.2892 6.24132 84.64 5.82054 82.3435 6.56647C80.0469 7.32197 78.1696 9.24419 77.474 11.5489C75.368 11.2047 73.1095 12.2184 71.966 14.0067C70.8225 15.795 70.8701 18.2624 72.0803 20.0124C70.6509 21.0166 69.4884 22.6423 69.6218 24.3829C69.7552 26.1234 71.6229 27.6917 73.262 27.0701C72.7093 28.4855 73.4335 30.2738 74.8248 30.8954C76.2161 31.5266 78.0457 30.905 78.7604 29.5662" fill="#343C41"/>
<path d="M72.6521 27.118C72.6521 27.118 72.5663 27.8352 73.3287 28.6768C73.7099 29.0785 74.3293 29.4706 75.1107 29.5184C75.8826 29.5758 76.7974 29.2984 77.4454 28.5907L77.0833 28.5716C77.5693 29.2506 78.1887 29.9392 78.9605 30.5034C79.4561 30.8668 79.9992 31.1633 80.5901 31.3067C81.1618 31.4693 81.8003 31.431 82.3054 31.3067C83.3631 31.0868 84.2398 30.4269 84.6019 29.6905C84.9831 28.9637 85.0689 28.3134 85.1165 27.8831C85.1642 27.4431 85.1451 27.2041 85.1165 27.1945C85.0784 27.1945 85.0308 27.424 84.9259 27.8448C84.8211 28.256 84.6877 28.8776 84.297 29.5184C83.6109 30.7999 81.0665 31.6605 79.2464 30.1209C78.5222 29.5949 77.9314 28.9541 77.4549 28.3134L77.2834 28.0839L77.0928 28.2943C76.5687 28.8872 75.7873 29.155 75.1202 29.1358C74.4436 29.1167 73.8909 28.8107 73.5193 28.476C72.7665 27.7779 72.7093 27.0893 72.6426 27.118H72.6521Z" fill="#6ECF8B"/>
<path d="M109.578 1.18239C109.606 1.09632 110.521 1.59361 111.283 2.9516C111.665 3.61146 112.046 4.47216 112.189 5.49543C112.36 6.5187 112.17 7.7428 111.512 8.77563C110.836 9.7989 109.883 10.4875 108.996 10.9656C108.101 11.4533 107.262 11.7881 106.557 12.0558C105.137 12.5818 104.26 12.8687 104.232 12.8018C104.194 12.7253 105.023 12.2854 106.395 11.6637C107.071 11.3482 107.881 10.9752 108.72 10.4875C109.559 9.99973 110.416 9.34943 111.007 8.45048C111.579 7.54197 111.769 6.49957 111.646 5.56237C111.541 4.62517 111.226 3.79316 110.912 3.14286C110.273 1.81357 109.54 1.23977 109.578 1.18239Z" fill="#F2E6F2"/>
<path d="M115.278 6.39435C115.345 6.39435 115.43 6.92033 115.249 7.75233C115.078 8.58434 114.573 9.69368 113.668 10.6404C112.753 11.5872 111.657 12.1323 110.837 12.3331C110.008 12.5435 109.475 12.4766 109.475 12.4096C109.475 12.314 109.97 12.2279 110.704 11.9315C111.438 11.635 112.4 11.0899 113.239 10.2197C114.068 9.3494 114.592 8.37395 114.849 7.63757C115.116 6.89164 115.183 6.39435 115.278 6.39435Z" fill="#F2E6F2"/>
<path d="M106.738 52.1546C105.242 51.8199 103.756 51.4948 102.26 51.1601C102.002 51.1027 101.726 51.0453 101.478 51.1409C101.202 51.2461 101.021 51.5139 100.887 51.7721C100.201 53.1301 100.344 54.9089 101.364 56.0278C102.374 57.1562 104.242 57.4527 105.481 56.5824C106.786 55.6644 107.11 53.8282 106.881 52.2503L106.738 52.1451V52.1546Z" fill="#6F4439"/>
<path d="M105.672 56.8502C105.672 56.8502 105.52 57.0415 105.129 57.2232C104.748 57.3857 104.129 57.5579 103.357 57.4814C102.594 57.4144 101.661 57.0319 100.965 56.2477C100.269 55.4922 99.8118 54.2968 100.002 53.0918C100.088 52.4893 100.307 51.9347 100.631 51.4565C100.793 51.2174 100.965 51.007 101.175 50.8062C101.289 50.7106 101.432 50.6054 101.613 50.548C101.794 50.5002 101.965 50.5097 102.108 50.5384C102.404 50.5958 102.604 50.6914 102.823 50.7584C103.042 50.8349 103.252 50.9018 103.452 50.9783C103.852 51.1218 104.224 51.2557 104.577 51.38C105.949 51.8773 106.787 52.2216 106.759 52.3076C106.73 52.3937 105.853 52.1929 104.443 51.8008C104.081 51.6956 103.7 51.5904 103.3 51.4756C103.09 51.4183 102.88 51.3513 102.661 51.2844C102.442 51.227 102.204 51.1409 102.023 51.1122C101.823 51.0931 101.746 51.1122 101.584 51.2557C101.432 51.4087 101.27 51.6 101.146 51.8008C100.889 52.2024 100.698 52.6806 100.631 53.1875C100.469 54.2107 100.831 55.1958 101.403 55.8747C101.985 56.5633 102.747 56.9267 103.423 57.051C104.1 57.1753 104.672 57.0797 105.063 56.9936C105.444 56.898 105.653 56.8119 105.682 56.8502H105.672Z" fill="#343C41"/>
<path d="M119.004 118.199C119.004 118.199 116.402 118.925 118.356 124.262C120.31 129.598 120.958 129.282 122.254 134.275C123.55 139.267 125.065 143.828 127.342 146.649C129.62 149.471 138.053 155.228 138.053 155.228L145.629 148.055C145.629 148.055 144.381 142.709 144.676 139.085C144.972 135.46 145.734 126.547 145.629 125.027C145.524 123.506 143.895 119.815 143.895 119.815V117.29L139.997 105.26C139.997 105.26 137.834 104.284 137.072 107.756L135.776 104.064C135.776 104.064 133.717 103.739 133.174 107.966C132.631 112.202 133.603 118.065 133.603 118.065L132.517 125.448L130.897 130.44L129.486 130.66C129.486 130.66 127.371 130.076 126.208 126.079C125.046 122.081 121.91 117.3 118.985 118.17L119.004 118.199Z" fill="#AE7461"/>
<path d="M143.092 137.086C143.092 137.086 143.073 136.99 143.054 136.809C143.045 136.598 143.026 136.34 142.997 136.015C142.959 135.288 142.902 134.275 142.835 133.022C142.721 130.43 142.559 126.815 142.368 122.607L142.406 122.693C142.063 122.273 141.434 122.148 140.872 122.292C140.3 122.426 139.786 122.789 139.471 123.325C138.814 124.396 138.776 125.782 138.566 127.131C138.156 130.172 137.765 133.07 137.403 135.719C137.222 137.038 137.032 138.291 136.774 139.458C136.527 140.625 136.174 141.676 135.831 142.623C135.497 143.57 135.202 144.431 135.011 145.205C134.83 145.98 134.754 146.659 134.764 147.214C134.783 148.333 135.107 148.906 135.059 148.916C135.05 148.916 134.983 148.782 134.878 148.495C134.792 148.208 134.659 147.787 134.64 147.214C134.611 146.649 134.668 145.942 134.84 145.157C135.011 144.373 135.297 143.503 135.621 142.547C135.945 141.59 136.279 140.548 136.517 139.4C136.765 138.243 136.936 137 137.108 135.68C137.461 133.041 137.842 130.134 138.242 127.092C138.337 126.413 138.413 125.744 138.528 125.075C138.652 124.415 138.833 123.745 139.195 123.162C139.538 122.579 140.148 122.148 140.786 122.005C141.415 121.842 142.178 121.986 142.606 122.512L142.635 122.55V122.598C142.778 126.815 142.902 130.42 142.997 133.012C143.026 134.265 143.054 135.279 143.073 136.005C143.073 136.331 143.073 136.598 143.073 136.799C143.073 136.981 143.073 137.077 143.064 137.077L143.092 137.086Z" fill="#6F4439"/>
<path d="M138.948 123.401C138.948 123.401 138.806 123.172 138.624 122.722C138.443 122.273 138.215 121.613 137.986 120.771C137.767 119.93 137.557 118.916 137.443 117.778C137.386 117.204 137.348 116.602 137.414 115.961C137.481 115.33 137.662 114.66 138.072 114.096C138.415 113.608 138.901 113.216 139.454 113.054L139.568 113.015L139.625 113.121C140.721 115.062 141.674 116.774 142.341 118.007C142.646 118.581 142.903 119.069 143.113 119.461C143.294 119.805 143.38 119.997 143.361 120.006C143.342 120.006 143.227 119.844 143.018 119.509C142.789 119.126 142.503 118.658 142.16 118.093C141.445 116.888 140.454 115.196 139.349 113.254L139.52 113.321C139.044 113.465 138.615 113.809 138.3 114.249C137.938 114.756 137.757 115.368 137.7 115.961C137.633 116.563 137.662 117.147 137.719 117.711C137.824 118.839 137.996 119.844 138.196 120.676C138.386 121.508 138.586 122.177 138.729 122.636C138.872 123.095 138.958 123.344 138.939 123.353L138.948 123.401Z" fill="#6F4439"/>
<path d="M137.137 124.377C137.137 124.377 137.089 124.128 137.07 123.688C137.051 123.172 137.022 122.54 136.994 121.794C136.946 120.197 136.889 117.988 136.86 115.559C136.841 113.121 136.746 110.911 136.956 109.305C137.061 108.501 137.213 107.87 137.365 107.45C137.508 107.019 137.632 106.799 137.642 106.809C137.699 106.828 137.308 107.746 137.175 109.333C137.022 110.911 137.156 113.121 137.175 115.559C137.213 117.998 137.223 120.197 137.223 121.794C137.223 122.54 137.203 123.172 137.203 123.688C137.194 124.137 137.175 124.386 137.156 124.386L137.137 124.377Z" fill="#6F4439"/>
<path d="M130.734 144.402C130.734 144.402 131.163 143.809 131.754 142.786C132.049 142.279 132.354 141.648 132.631 140.931C132.898 140.204 133.145 139.391 133.307 138.511C133.46 137.631 133.517 136.78 133.517 136.005C133.498 135.231 133.441 134.533 133.336 133.959C133.145 132.802 132.888 132.113 132.945 132.094C132.964 132.094 133.04 132.257 133.164 132.563C133.288 132.869 133.431 133.337 133.555 133.921C133.688 134.504 133.774 135.212 133.803 136.005C133.822 136.799 133.765 137.669 133.612 138.568C133.441 139.467 133.183 140.299 132.898 141.036C132.593 141.763 132.269 142.403 131.935 142.901C131.611 143.398 131.325 143.79 131.096 144.029C130.877 144.278 130.744 144.412 130.734 144.392V144.402Z" fill="#6F4439"/>
<path d="M144.037 140.663L150.613 142.948C150.613 142.948 156.893 139.687 161.219 142.948C165.545 146.209 169.309 154.797 168.118 158.269C168.118 158.269 165.135 161.97 162.858 162.515C160.59 163.06 151.747 160.908 148.078 160.134C144.39 159.359 138.062 155.218 138.062 155.218L144.037 140.653V140.663Z" fill="#AE7461"/>
<path d="M145.629 148.065C145.629 148.065 145.41 148.084 145.286 147.787C145.143 147.52 145.038 147.089 144.943 146.535C144.762 145.425 144.666 143.819 144.628 141.829C144.552 137.851 144.695 132.371 145.067 126.308C145.267 124.004 144.724 121.718 143.694 119.949L143.656 119.882V119.815C143.656 118.945 143.656 118.103 143.666 117.29V117.357C142.579 113.838 141.636 110.844 140.95 108.645C140.645 107.631 140.407 106.809 140.216 106.158C140.054 105.585 139.978 105.269 139.997 105.26C140.016 105.26 140.14 105.546 140.35 106.111C140.569 106.742 140.855 107.564 141.207 108.559C141.941 110.749 142.932 113.723 144.104 117.214V117.242L144.114 117.281C144.114 118.093 144.114 118.935 144.123 119.805L144.085 119.671C145.2 121.555 145.762 123.917 145.553 126.327C145.181 132.362 144.981 137.842 144.962 141.81C144.962 143.79 145 145.397 145.124 146.487C145.181 147.032 145.257 147.453 145.362 147.72C145.448 148.007 145.619 148.026 145.619 148.036L145.629 148.065Z" fill="#6F4439"/>
<path d="M166.717 142.145C166.64 142.231 165.792 141.036 163.753 140.146C162.743 139.697 161.447 139.391 159.999 139.372C158.55 139.372 156.94 139.678 155.443 140.414C153.681 141.323 152.156 142.47 150.784 143.398L150.688 143.465L150.583 143.427C148.649 142.738 147.086 142.002 146.057 141.351C145.009 140.711 144.599 140.089 144.637 140.07C144.675 140.041 145.133 140.558 146.19 141.122C147.239 141.686 148.811 142.365 150.726 143.006L150.536 143.034C151.88 142.088 153.404 140.911 155.224 139.974C156.816 139.19 158.493 138.894 160.008 138.922C161.523 138.97 162.876 139.333 163.906 139.84C164.944 140.338 165.668 140.931 166.116 141.38C166.564 141.829 166.745 142.145 166.726 142.155L166.717 142.145Z" fill="#6F4439"/>
<path d="M60.2918 139.353C60.4824 139.448 58.1191 120.79 58.1191 120.79C58.1191 120.79 59.6057 106.627 60.4443 105.977L60.4634 100.985C60.4634 100.985 62.7695 99.5789 63.3889 101.845C63.3889 101.845 65.4377 100.067 65.7903 104.303C66.1429 108.54 66.2191 112.891 66.2191 112.891L69.5925 124.73C70.4597 124.721 71.1934 124.09 71.3364 123.229C71.7652 120.628 72.6514 115.416 73.0802 114.431C73.652 113.111 74.0427 109.907 76.1963 110.385C78.3595 110.864 78.531 112.661 78.1499 115.578C77.7592 118.495 77.2827 121.517 77.4542 123.401C77.6353 125.285 78.4929 129.445 78.2261 132.744C77.9593 136.044 76.1678 139.525 74.2714 141.973C72.3846 144.421 68.773 149.471 66.8099 150.991C66.1238 151.527 60.2823 139.362 60.2823 139.362L60.2918 139.353Z" fill="#AE7461"/>
<path d="M60.3122 136.818L48.5148 142.107H41.3487C41.3487 142.107 34.2589 144.326 33.163 151.001C32.0671 157.676 31.9147 161.109 35.0308 161.932C38.1469 162.754 46.952 162.85 51.3164 161.396C55.6809 159.942 67.1066 150.685 67.1066 150.685L68.212 143.991L60.3122 136.828V136.818Z" fill="#AE7461"/>
<path d="M60.1215 137.029C60.1215 137.029 59.8928 137.172 59.4449 137.392C58.9304 137.631 58.2728 137.928 57.4819 138.281C55.6999 139.056 53.2985 140.108 50.4492 141.342L50.3539 141.39L50.2586 141.332C47.7905 139.859 44.4552 138.779 40.8436 138.635C39.4428 138.588 38.0706 138.712 36.8032 139.047C35.5453 139.381 34.3827 139.984 33.2773 140.51C31.0855 141.6 29.2083 142.786 27.8265 144.019C26.4352 145.234 25.5776 146.487 25.1392 147.424C24.92 147.893 24.7771 148.266 24.7104 148.533C24.6246 148.792 24.577 148.925 24.5579 148.925C24.5389 148.925 24.5579 148.782 24.6151 148.505C24.6532 148.227 24.7676 147.835 24.9677 147.338C25.3584 146.353 26.197 145.024 27.5883 143.752C28.97 142.461 30.8568 141.217 33.0677 140.089C34.1826 139.544 35.3356 138.932 36.6698 138.568C37.9943 138.215 39.4142 138.09 40.8531 138.138C44.5601 138.291 47.943 139.41 50.4778 140.969L50.2777 140.95C53.1556 139.773 55.5855 138.788 57.3771 138.052C58.1871 137.736 58.8541 137.478 59.3878 137.268C59.8547 137.096 60.112 137.01 60.1215 137.029Z" fill="#6F4439"/>
<path d="M61.7602 146.554C61.7602 146.554 61.4267 146.343 61.0931 145.76C60.7405 145.177 60.4451 144.22 60.3022 143.034C60.0163 140.672 59.6351 137.43 59.254 133.825C58.8728 130.229 58.5583 126.968 58.3487 124.606C58.2439 123.43 58.1676 122.473 58.1295 121.804C58.0914 121.144 58.0819 120.771 58.12 120.771C58.1581 120.771 58.2248 121.125 58.3296 121.785C58.4344 122.445 58.5583 123.391 58.7013 124.568C58.9967 126.92 59.3683 130.172 59.7495 133.768C60.1307 137.363 60.4547 140.624 60.6453 142.977C60.7405 144.144 60.9788 145.062 61.2647 145.655C61.541 146.248 61.7983 146.515 61.7602 146.544V146.554Z" fill="#6F4439"/>
<path d="M66.1053 116.927C66.2387 117.013 64.2852 119.346 63.256 122.866C62.1792 126.375 62.5223 129.397 62.3603 129.397C62.3031 129.397 62.1411 128.661 62.1125 127.437C62.0839 126.213 62.2459 124.51 62.7796 122.713C63.3228 120.915 64.1232 119.413 64.8189 118.409C65.5145 117.405 66.0577 116.879 66.1053 116.917V116.927Z" fill="#6F4439"/>
<path d="M64.8481 115.875C64.6956 115.875 64.8862 112.595 64.4478 108.597C64.0285 104.6 63.1423 101.444 63.2948 101.396C63.352 101.377 63.6569 102.142 63.9999 103.433C64.3525 104.714 64.7242 106.522 64.9434 108.54C65.1625 110.558 65.1816 112.403 65.1054 113.733C65.0386 115.062 64.9052 115.875 64.8481 115.875Z" fill="#6F4439"/>
<path d="M63.0281 120.742C62.9805 120.762 62.6088 119.901 62.6088 118.419C62.5612 116.946 63.0281 114.957 63.2663 112.805C63.3712 111.724 63.3521 110.691 63.1425 109.793C62.9328 108.894 62.5516 108.138 62.1323 107.583C61.2747 106.465 60.3408 106.245 60.3885 106.158C60.3694 106.111 61.3986 106.206 62.4087 107.363C62.8947 107.928 63.3426 108.721 63.5903 109.678C63.8381 110.644 63.8667 111.734 63.7619 112.843C63.5141 115.071 62.9995 116.984 62.9614 118.419C62.8756 119.844 63.1139 120.714 63.0281 120.733V120.742Z" fill="#6F4439"/>
<path d="M64.1141 128.058C64.1808 128.049 64.3905 129.158 64.8002 130.918C65.0194 131.788 65.2672 132.859 65.6579 133.959C66.0771 135.04 66.8586 136.101 67.8496 137.019C68.3737 137.497 68.8407 138.042 69.1647 138.645C69.4887 139.267 69.6697 139.869 69.8317 140.471C70.1271 141.667 70.1843 142.786 70.1176 143.704C70.0509 144.632 69.8603 145.358 69.7078 145.846C69.5458 146.334 69.4029 146.582 69.3838 146.573C69.2981 146.544 69.7174 145.483 69.7745 143.685C69.7936 142.795 69.7078 141.724 69.4029 140.586C69.2409 140.032 69.0408 139.42 68.7549 138.884C68.45 138.339 68.0307 137.842 67.5256 137.392C66.4869 136.436 65.6769 135.307 65.2386 134.131C64.8479 132.955 64.6382 131.903 64.4667 131.004C64.1332 129.206 64.0569 128.077 64.1236 128.068L64.1141 128.058Z" fill="#6F4439"/>
<path d="M13.8743 16.0341C13.8743 17.5929 12.6164 18.8553 11.0631 18.8553C9.50983 18.8553 8.25195 17.5929 8.25195 16.0341C8.25195 14.4753 9.50983 13.213 11.0631 13.213C12.6164 13.213 13.8743 14.4753 13.8743 16.0341Z" fill="white"/>
<path d="M22.2044 16.0341C22.2044 17.5929 20.9465 18.8553 19.3932 18.8553C17.8399 18.8553 16.582 17.5929 16.582 16.0341C16.582 14.4753 17.8399 13.213 19.3932 13.213C20.9465 13.213 22.2044 14.4753 22.2044 16.0341Z" fill="white"/>
<path d="M30.5422 16.0341C30.5422 17.5929 29.2844 18.8553 27.7311 18.8553C26.1778 18.8553 24.9199 17.5929 24.9199 16.0341C24.9199 14.4753 26.1778 13.213 27.7311 13.213C29.2844 13.213 30.5422 14.4753 30.5422 16.0341Z" fill="white"/>
<path d="M197.568 167.923C197.015 162.233 196.462 156.533 195.91 150.843L170.39 119.198C168.694 127.031 166.807 142.112 169.342 149.705C170.295 152.555 171.553 155.453 171.238 158.446C170.943 161.219 169.294 163.811 169.513 166.594C169.675 168.669 170.866 170.505 172.02 172.246C172.591 173.107 173.23 174.015 174.211 174.34C174.955 174.579 175.765 174.426 176.527 174.273L195.719 170.41C196.319 170.285 196.977 170.132 197.33 169.635C197.663 169.157 197.625 168.516 197.568 167.942V167.923Z" fill="#343C41"/>
<path d="M136.533 224.27L152.904 217.643L165.416 184.85L182.093 193.476C182.093 193.476 180.482 196.718 177.033 204.732C175.699 207.821 171.296 216.447 169.495 220.646C166.103 228.574 158.441 233.814 149.845 234.034L134.475 234.436L136.523 224.28L136.533 224.27Z" fill="#FFBF9D"/>
<path d="M128.404 217.93L125.926 215.319C125.45 215.013 124.887 214.86 124.325 214.869L116.492 215.108C115.015 215.252 113.681 216.065 112.861 217.308L110.012 222.176C110.012 222.176 108.097 225.504 108.344 226.317C108.716 227.541 109.993 227.292 109.993 227.292C109.993 227.292 110.26 228.832 110.774 229.147C111.632 229.673 112.68 229.272 112.68 229.272C112.966 229.865 113.566 230.257 114.224 230.209C114.357 230.209 114.491 230.18 114.634 230.132C115.568 229.845 115.987 228.038 115.987 228.038L119.961 227.302C119.961 227.302 125.669 231.127 127.679 233.642C129.69 236.148 134.96 234.235 134.96 234.235L136.932 224.777L128.404 217.93Z" fill="#FFBF9D"/>
<path d="M122.62 219.058C122.62 219.115 121.991 219.24 120.904 219.345C119.827 219.469 118.293 219.508 116.578 219.737L116.769 219.603C116.492 220.215 116.14 220.856 115.749 221.487C114.529 223.438 113.1 224.968 111.985 225.963C110.86 226.957 110.05 227.426 110.022 227.369C109.974 227.302 110.708 226.747 111.747 225.705C112.785 224.662 114.148 223.132 115.339 221.219C115.72 220.607 116.063 219.986 116.34 219.402L116.397 219.278L116.521 219.259C118.293 219.058 119.818 219.077 120.895 219.039C121.972 219.02 122.62 219.001 122.629 219.058H122.62Z" fill="#FF9A6C"/>
<path d="M122.802 222.807C122.811 222.855 122.277 223.065 121.324 223.199C120.381 223.342 119.009 223.381 117.494 223.065L117.77 222.903C117.608 223.371 117.427 223.849 117.198 224.327C116.369 226.068 115.197 227.407 114.254 228.21C113.301 229.023 112.605 229.367 112.567 229.319C112.519 229.253 113.148 228.813 114.015 227.952C114.883 227.101 115.959 225.781 116.75 224.108C116.97 223.648 117.151 223.189 117.313 222.74L117.389 222.539L117.599 222.587C120.534 223.247 122.792 222.654 122.811 222.797L122.802 222.807Z" fill="#FF9A6C"/>
<path d="M132.759 224.748C130.424 223.658 128.099 222.577 125.764 221.487C124.792 221.038 123.792 220.579 122.724 220.579C121.571 220.579 120.504 221.124 119.484 221.659C118.227 222.31 116.978 222.96 115.72 223.61C115.52 223.715 115.292 223.84 115.225 224.06C115.13 224.347 115.339 224.643 115.549 224.853C117.426 226.766 120.8 226.9 122.829 225.15C123.43 226.795 124.059 228.478 125.183 229.817C126.317 231.156 128.07 232.102 129.786 231.787" fill="#FFBF9D"/>
<path d="M129.795 231.796C129.795 231.796 129.737 231.825 129.604 231.854C129.48 231.882 129.289 231.911 129.032 231.921C128.537 231.93 127.774 231.835 126.926 231.404C126.088 230.983 125.173 230.228 124.449 229.138C123.715 228.057 123.162 226.69 122.619 225.226L122.972 225.322C121.942 226.231 120.437 226.718 118.902 226.604C118.131 226.546 117.359 226.336 116.634 225.963C116.282 225.762 115.929 225.542 115.624 225.265C115.472 225.121 115.31 224.997 115.176 224.806C115.043 224.624 114.9 224.356 114.976 224.041C115.043 223.782 115.234 223.61 115.396 223.515C115.558 223.409 115.701 223.342 115.853 223.266C116.148 223.113 116.434 222.96 116.72 222.816C117.302 222.52 117.864 222.224 118.426 221.937C119.541 221.382 120.599 220.732 121.799 220.464C123.01 220.167 124.182 220.55 125.116 220.971C126.059 221.401 126.917 221.822 127.708 222.204C129.223 222.941 130.471 223.562 131.424 224.031C132.301 224.471 132.777 224.729 132.758 224.758C132.739 224.786 132.244 224.586 131.338 224.203C130.366 223.773 129.089 223.209 127.555 222.52C126.755 222.157 125.878 221.764 124.954 221.344C124.029 220.952 122.972 220.636 121.895 220.904C120.818 221.152 119.77 221.793 118.645 222.367C118.083 222.654 117.521 222.95 116.939 223.256C116.654 223.409 116.358 223.562 116.072 223.706C115.777 223.859 115.462 224.002 115.453 224.155C115.396 224.337 115.662 224.662 115.948 224.892C116.225 225.15 116.539 225.341 116.863 225.532C117.521 225.877 118.235 226.068 118.941 226.125C120.36 226.24 121.742 225.81 122.686 224.997L122.924 224.786L123.029 225.083C123.553 226.556 124.067 227.895 124.754 228.947C125.421 230.008 126.259 230.744 127.05 231.184C128.661 232.064 129.814 231.71 129.795 231.806V231.796Z" fill="#FF9A6C"/>
<path d="M225.985 150.853C222.535 145.144 219.695 129.001 219.495 123.741C219.295 118.481 216.303 112.275 212.644 108.497C208.984 104.72 202.638 103.285 198.359 106.326L197.482 110.811C199.169 131.114 198.94 151.742 200.618 172.045C200.837 174.713 203 177.123 204.201 179.514C205.411 181.895 207.831 183.865 210.5 183.703C213.978 183.492 219.257 181.895 220.343 178.567C224.269 166.498 240.803 175.402 225.985 150.862V150.853Z" fill="#343C41"/>
<path d="M214.025 110.783C208.793 104.366 201.78 100.674 193.518 100.54C188.858 100.464 186.933 101.43 183.579 102.338C180.224 103.247 177.194 105.054 175.202 107.904C172.83 111.29 170.828 115.077 170.38 119.198C169.923 123.425 169.456 127.681 169.771 131.927C170.085 136.173 171.238 140.438 173.725 143.881L184.484 145.756C190.421 145.956 196.443 146.157 202.228 144.79C208.012 143.432 213.634 140.305 216.731 135.217C221.039 128.15 219.247 117.19 214.025 110.773V110.783Z" fill="#343C41"/>
<path d="M204.457 110.706L190.116 104.987L186.371 105.427C177.947 105.456 172.134 114.78 172.077 121.637C172.019 129.249 172.239 138.545 173.449 144.149C175.869 155.424 185.465 156.371 185.465 156.371C185.465 156.371 185.265 162.377 185.198 166.173L207.145 164.586L208.25 114.589C208.174 112.514 206.535 110.831 204.457 110.725V110.706Z" fill="#FFBF9D"/>
<path d="M190.307 141.5C190.231 140.907 189.897 140.381 189.478 140.018C188.639 139.291 187.41 139.224 186.514 139.845C185.619 140.467 185.104 141.749 185.266 142.934C185.771 143.633 186.543 144.101 187.401 144.178C187.534 144.187 187.667 144.197 187.801 144.187C188.449 144.168 189.106 143.948 189.602 143.47C190.097 142.992 190.402 142.236 190.307 141.5Z" fill="#FF9A6C"/>
<path d="M175.879 131.258C175.898 132.032 176.555 132.654 177.365 132.654C178.166 132.654 178.804 132.032 178.795 131.258C178.776 130.483 178.118 129.861 177.318 129.861C176.517 129.861 175.869 130.493 175.888 131.258H175.879Z" fill="#343C41"/>
<path d="M174.65 125.434C174.841 125.615 175.899 124.735 177.461 124.649C179.024 124.544 180.215 125.29 180.377 125.089C180.454 125.003 180.254 124.669 179.729 124.324C179.215 123.99 178.357 123.684 177.385 123.741C176.413 123.798 175.613 124.21 175.155 124.602C174.698 124.994 174.555 125.348 174.641 125.434H174.65Z" fill="#343C41"/>
<path d="M184.703 137.751C184.703 137.665 183.721 137.55 182.14 137.436C181.739 137.416 181.358 137.359 181.272 137.091C181.158 136.804 181.311 136.364 181.473 135.886C181.797 134.892 182.13 133.859 182.483 132.769C183.883 128.331 184.875 124.688 184.703 124.64C184.522 124.583 183.245 128.14 181.835 132.577C181.501 133.668 181.177 134.71 180.872 135.714C180.748 136.183 180.51 136.709 180.748 137.302C180.872 137.598 181.177 137.799 181.434 137.856C181.692 137.923 181.92 137.914 182.121 137.914C183.712 137.914 184.693 137.866 184.693 137.78L184.703 137.751Z" fill="#343C41"/>
<path d="M185.446 156.352C185.446 156.352 193.098 156.428 200.407 151.455C200.407 151.455 196.795 159.565 185.389 159.125L185.446 156.352Z" fill="#FF9A6C"/>
<path d="M189.373 138.583C189.116 138.583 189.211 140.285 187.82 141.576C186.438 142.868 184.618 142.781 184.618 143.021C184.599 143.126 185.037 143.327 185.799 143.307C186.552 143.288 187.629 142.992 188.477 142.198C189.325 141.404 189.649 140.4 189.668 139.693C189.697 138.975 189.478 138.564 189.363 138.583H189.373Z" fill="#343C41"/>
<path d="M175.183 119.935C175.469 120.308 176.651 119.983 178.061 120.021C179.472 120.021 180.644 120.365 180.939 120.002C181.063 119.83 180.891 119.457 180.386 119.103C179.891 118.749 179.043 118.433 178.071 118.424C177.108 118.414 176.251 118.701 175.755 119.045C175.24 119.39 175.069 119.753 175.193 119.935H175.183Z" fill="#343C41"/>
<path d="M192.955 130.866C192.993 131.64 192.383 132.31 191.573 132.367C190.773 132.424 190.087 131.851 190.049 131.076C190.01 130.301 190.63 129.632 191.421 129.575C192.221 129.517 192.907 130.091 192.945 130.866H192.955Z" fill="#343C41"/>
<path d="M195.824 124.831C195.643 125.022 194.528 124.229 192.965 124.257C191.402 124.257 190.268 125.099 190.087 124.908C190.001 124.822 190.182 124.477 190.678 124.104C191.164 123.731 192.002 123.358 192.974 123.349C193.946 123.339 194.775 123.684 195.252 124.047C195.738 124.41 195.909 124.755 195.824 124.841V124.831Z" fill="#343C41"/>
<path d="M194.88 119.801C194.575 120.164 193.365 119.81 191.907 119.82C190.449 119.782 189.229 120.107 188.934 119.734C188.81 119.552 188.991 119.198 189.525 118.845C190.049 118.5 190.925 118.204 191.926 118.213C192.927 118.223 193.794 118.529 194.308 118.892C194.833 119.246 195.004 119.619 194.871 119.791L194.88 119.801Z" fill="#343C41"/>
<path d="M206.297 133.687C206.249 132.836 207.116 130.789 207.945 130.607C210.156 130.139 214.178 130.091 214.521 135.772C214.997 143.527 207.135 142.408 207.116 142.189C207.097 142.016 206.449 136.613 206.297 133.687Z" fill="#FFBF9D"/>
<path d="M209.08 139.224C209.08 139.224 209.223 139.31 209.452 139.396C209.681 139.482 210.062 139.53 210.462 139.358C211.263 139.004 211.863 137.665 211.815 136.259C211.796 135.552 211.606 134.892 211.32 134.347C211.053 133.792 210.662 133.419 210.243 133.371C209.824 133.304 209.557 133.562 209.471 133.792C209.385 134.012 209.443 134.165 209.395 134.184C209.376 134.203 209.223 134.069 209.262 133.744C209.281 133.591 209.366 133.4 209.538 133.237C209.709 133.075 209.986 132.979 210.272 132.998C210.872 132.998 211.444 133.524 211.749 134.117C212.092 134.71 212.32 135.456 212.349 136.25C212.397 137.818 211.692 139.329 210.586 139.721C210.052 139.893 209.586 139.759 209.338 139.587C209.09 139.415 209.033 139.243 209.061 139.224H209.08Z" fill="#FF9A6C"/>
<path d="M208.27 130.636L206.307 132.683C197.826 124.535 181.254 104.146 182.188 105.36C182.188 105.36 188.001 102.96 194.3 104.041C200.609 105.121 212.558 108.287 212.377 115.746C212.196 123.205 208.27 130.636 208.27 130.636Z" fill="#343C41"/>
<path d="M219.495 128.924C219.495 128.924 219.467 128.771 219.381 128.475C219.285 128.188 219.123 127.767 218.857 127.251C218.323 126.227 217.294 124.85 215.626 123.607C213.987 122.326 211.71 121.283 209.127 120.47C206.545 119.629 203.629 118.969 200.77 117.735C197.892 116.549 195.329 115.019 193.137 113.441C190.955 111.854 189.154 110.199 187.753 108.717C186.352 107.235 185.323 105.925 184.637 105.006C184.322 104.567 184.065 104.213 183.865 103.935C183.684 103.696 183.588 103.572 183.579 103.572C183.569 103.572 183.646 103.715 183.808 103.974C183.97 104.232 184.198 104.614 184.522 105.093C185.18 106.039 186.171 107.388 187.562 108.908C188.953 110.429 190.745 112.112 192.937 113.738C195.138 115.344 197.721 116.903 200.636 118.099C203.533 119.342 206.468 119.992 209.041 120.815C211.624 121.608 213.854 122.603 215.483 123.827C217.141 125.022 218.171 126.342 218.742 127.327C219.305 128.322 219.486 128.934 219.524 128.924H219.495Z" fill="#6ECF8B"/>
<path d="M217.246 130.148C217.246 130.148 217.323 129.517 216.951 128.456C216.589 127.404 215.674 125.979 214.045 124.802C212.434 123.597 210.128 122.842 207.593 122.268C205.049 121.704 202.295 120.987 199.579 119.715C196.873 118.452 194.443 116.932 192.432 115.287C190.412 113.661 188.792 111.969 187.534 110.458C186.266 108.956 185.409 107.608 184.799 106.69C184.532 106.25 184.313 105.886 184.141 105.599C183.989 105.351 183.903 105.226 183.894 105.236C183.884 105.246 183.941 105.379 184.075 105.638C184.227 105.934 184.427 106.307 184.665 106.766C185.237 107.713 186.057 109.09 187.315 110.63C188.553 112.179 190.173 113.9 192.203 115.564C194.214 117.238 196.672 118.797 199.407 120.069C202.142 121.35 204.963 122.077 207.498 122.612C210.023 123.167 212.282 123.875 213.863 125.022C215.464 126.132 216.389 127.49 216.789 128.503C217.199 129.517 217.18 130.148 217.237 130.139L217.246 130.148Z" fill="#6ECF8B"/>
<path d="M201.627 133.515C201.522 139.167 206.001 143.833 211.633 143.929C217.264 144.034 221.915 139.539 222.01 133.888C222.115 128.236 217.636 123.569 212.004 123.473C206.372 123.368 201.722 127.863 201.627 133.515Z" fill="#C997CD"/>
<path d="M212.005 123.473C212.005 123.473 211.5 102.357 192.985 99.6128C192.985 99.6128 185.609 98.6947 182.131 102.797C182.131 102.797 187.124 100.741 191.918 102.004C195.081 102.836 206.621 107.981 207.165 125.166L211.929 127.222L211.996 123.473H212.005Z" fill="#C997CD"/>
<path d="M204.592 133.649C204.592 133.649 204.592 133.61 204.611 133.524C204.611 133.438 204.63 133.314 204.64 133.17C204.64 133.017 204.659 132.816 204.706 132.597C204.745 132.367 204.783 132.109 204.868 131.822C205.002 131.248 205.278 130.56 205.698 129.842C206.126 129.125 206.746 128.37 207.594 127.738C208.432 127.107 209.49 126.572 210.71 126.352C211.92 126.141 213.292 126.18 214.598 126.677C215.255 126.906 215.884 127.251 216.466 127.691C216.771 127.901 217.028 128.159 217.304 128.408C217.552 128.685 217.809 128.953 218.029 129.269C218.934 130.483 219.448 132.042 219.467 133.649C219.458 134.452 219.325 135.246 219.086 135.992C218.858 136.737 218.467 137.426 218.029 138.038C217.819 138.354 217.552 138.621 217.304 138.899C217.028 139.147 216.771 139.406 216.466 139.616C215.884 140.056 215.255 140.4 214.598 140.63C213.292 141.127 211.93 141.165 210.71 140.955C209.49 140.735 208.432 140.199 207.594 139.568C206.755 138.927 206.136 138.181 205.698 137.464C205.269 136.737 205.002 136.058 204.868 135.485C204.783 135.198 204.745 134.94 204.706 134.71C204.659 134.481 204.649 134.289 204.64 134.136C204.63 133.993 204.621 133.868 204.611 133.782C204.611 133.706 204.602 133.658 204.592 133.658C204.583 133.658 204.592 133.696 204.592 133.782C204.592 133.878 204.592 133.993 204.592 134.136C204.592 134.289 204.602 134.49 204.64 134.72C204.668 134.949 204.697 135.217 204.783 135.504C204.907 136.087 205.173 136.785 205.593 137.522C206.022 138.258 206.641 139.023 207.499 139.683C208.347 140.333 209.424 140.888 210.672 141.117C211.911 141.337 213.311 141.299 214.646 140.802C215.322 140.572 215.97 140.218 216.561 139.769C216.866 139.559 217.142 139.291 217.419 139.033C217.676 138.746 217.943 138.468 218.162 138.153C218.61 137.522 219.01 136.824 219.248 136.058C219.496 135.293 219.629 134.481 219.639 133.658C219.629 132.836 219.496 132.023 219.248 131.258C219.01 130.493 218.619 129.795 218.162 129.163C217.943 128.838 217.676 128.561 217.419 128.284C217.133 128.025 216.866 127.767 216.561 127.557C215.961 127.107 215.313 126.763 214.646 126.524C213.311 126.017 211.911 125.988 210.672 126.208C209.424 126.438 208.347 126.992 207.499 127.643C206.65 128.303 206.022 129.068 205.593 129.804C205.164 130.54 204.907 131.239 204.783 131.822C204.697 132.109 204.668 132.377 204.64 132.606C204.602 132.836 204.592 133.027 204.592 133.189C204.592 133.342 204.592 133.457 204.592 133.543C204.592 133.62 204.592 133.668 204.592 133.668V133.649Z" fill="#343C41"/>
<path d="M209.67 130.56C209.67 130.56 210.966 132.004 212.653 133.687C214.339 135.37 215.731 136.718 215.769 136.68C215.807 136.642 214.473 135.236 212.786 133.553C211.099 131.86 209.708 130.521 209.67 130.56Z" fill="#343C41"/>
<path d="M210.842 133.228C210.842 133.228 211.309 133.821 211.966 134.461C212.624 135.102 213.186 135.599 213.224 135.561C213.262 135.523 212.757 134.968 212.1 134.327C211.442 133.687 210.88 133.189 210.842 133.228Z" fill="#343C41"/>
<path d="M217.846 239.17L172.143 245.826C154.981 250.703 136.894 252.128 117.979 250.483L186.761 282.683L214.378 283.113C214.378 283.113 221.086 282.577 224.26 275.749C232.617 257.713 225.355 242.919 225.355 242.919C225.355 242.919 221.906 241.207 217.846 239.16V239.17Z" fill="#343C41"/>
<path d="M185.266 164.261L207.479 161.851L211.538 165.571L195.681 174.924L188.687 178.558L181.787 176.454L179.596 172.322L185.266 164.261Z" fill="#FFBF9D"/>
<path d="M155.334 191.401C155.334 191.401 162.29 177.993 164.015 175.067C166.95 170.075 172.439 167.244 172.439 167.244L185.265 164.27C185.265 164.27 183.931 170.725 191.917 171.165C202.075 171.729 208.374 161.956 208.374 161.956C208.374 161.956 219.962 163.151 223.154 164.5C226.356 165.848 235.399 169.645 236.734 181.723L239.831 201.433L215.35 203.307L215.693 229.549L205.287 238.089C205.287 238.089 175.422 248.408 173.516 249.087C172.61 249.402 172.83 236.674 170.705 225.752L166.674 215.931C165.063 212 164.053 207.831 163.815 203.585C163.662 200.792 163.739 198.679 163.739 198.679C163.739 198.679 157.459 196.517 155.324 191.392L155.334 191.401Z" fill="#6ECF8B"/>
<path d="M174.622 238.787L215.655 226.422L215.369 203.307L236.267 201.71C236.267 201.71 234.599 213.684 234.352 219.823C233.999 228.65 229.768 240.996 226.938 243.617C224.108 246.237 173.535 249.087 173.535 249.087L174.622 238.778V238.787Z" fill="#FFBF9D"/>
<path d="M151.34 246.055C151.683 246.619 152.322 246.954 152.96 246.839C153.084 246.82 153.218 246.782 153.361 246.725C154.256 246.352 154.028 244.477 154.028 244.477L158.392 243.406C158.392 243.406 164.434 246.686 166.673 248.991C168.913 251.296 173.973 248.896 173.973 248.896L175.049 239.294L166.34 232.533C166.34 232.533 166.873 232.934 166.206 231.596C165.539 230.257 163.023 230.974 163.023 230.974C162.576 230.324 160.879 230.209 160.879 230.209L153.799 231.586C152.341 231.873 151.093 232.801 150.397 234.12L147.748 239.151C147.748 239.151 146.423 242.727 146.738 243.511C147.214 244.697 148.472 244.324 148.472 244.324C148.472 244.324 148.996 246.572 149.597 246.6C150.197 246.629 151.331 246.036 151.331 246.036L151.34 246.055Z" fill="#FFBF9D"/>
<path d="M166.016 238.079C166.016 238.156 165.053 238.137 163.538 238.328C162.023 238.519 159.936 238.95 157.792 239.877C156.724 240.336 155.743 240.862 154.885 241.398C154.056 241.953 153.189 242.421 152.96 243.071C152.846 243.387 152.932 243.703 153.103 243.923C153.275 244.143 153.494 244.276 153.675 244.334C154.066 244.458 154.294 244.334 154.304 244.382C154.323 244.382 154.094 244.592 153.627 244.506C153.399 244.458 153.132 244.334 152.903 244.085C152.674 243.846 152.512 243.406 152.646 242.976C152.77 242.546 153.094 242.192 153.456 241.895C153.828 241.608 154.209 241.312 154.647 241.035C155.505 240.461 156.505 239.916 157.601 239.447C159.793 238.5 161.947 238.108 163.49 238.003C165.044 237.898 166.006 238.032 165.997 238.079H166.016Z" fill="#FF9A6C"/>
<path d="M166.874 242.603C166.874 242.737 163.958 242.842 160.403 243.33C156.849 243.808 154.009 244.477 153.971 244.343C153.952 244.286 154.648 244.037 155.791 243.75C156.935 243.454 158.545 243.119 160.337 242.88C162.128 242.641 163.767 242.536 164.949 242.517C166.131 242.498 166.864 242.546 166.864 242.612L166.874 242.603Z" fill="#FF9A6C"/>
<path d="M151.369 245.864C151.369 245.864 151.293 245.596 151.217 245.108C151.15 244.621 151.064 243.904 151.055 243.014C151.055 242.565 151.055 242.077 151.14 241.541C151.217 241.006 151.417 240.442 151.722 239.925C152.294 238.902 153.104 237.812 154.19 236.97C155.267 236.129 156.353 235.411 157.468 234.971C158.583 234.541 159.641 234.369 160.517 234.264C161.394 234.168 162.109 234.13 162.604 234.111C163.1 234.092 163.367 234.101 163.376 234.13C163.376 234.206 162.299 234.321 160.565 234.589C159.707 234.732 158.678 234.933 157.63 235.373C156.582 235.803 155.514 236.521 154.476 237.334C153.437 238.156 152.675 239.151 152.084 240.145C151.464 241.101 151.417 242.153 151.379 243.024C151.341 244.774 151.474 245.874 151.379 245.874L151.369 245.864Z" fill="#FF9A6C"/>
<path d="M160.689 232.064C160.689 232.131 159.631 232.246 157.935 232.571C156.315 232.954 153.695 233.279 152.37 235.67C150.912 237.86 149.683 239.925 149.197 241.57C148.682 243.215 148.825 244.305 148.73 244.305C148.701 244.305 148.644 244.037 148.625 243.55C148.606 243.062 148.653 242.335 148.882 241.484C149.301 239.753 150.512 237.62 151.989 235.411C152.36 234.857 152.78 234.331 153.266 233.891C153.752 233.451 154.343 233.173 154.886 232.973C155.991 232.561 157.02 232.389 157.878 232.255C159.603 232.007 160.68 232.007 160.689 232.064Z" fill="#FF9A6C"/>
<path d="M164.997 247.585C164.997 247.585 164.835 247.499 164.549 247.289C164.225 247.069 163.806 246.782 163.282 246.419C162.167 245.682 160.509 244.64 158.336 243.54H158.441C157.135 243.884 155.668 244.248 154.076 244.649L154.21 244.449C154.248 244.812 154.257 245.166 154.21 245.539C154.162 245.902 154.076 246.304 153.79 246.648C153.638 246.811 153.419 246.926 153.228 246.964C153.038 247.031 152.818 247.069 152.609 247.05C152.18 247.021 151.77 246.83 151.465 246.524C151.389 246.447 151.322 246.361 151.256 246.275L151.208 246.208L151.189 246.17V246.151H151.179C151.122 246.132 151.684 246.294 151.446 246.227L151.313 246.294C151.132 246.38 150.951 246.467 150.76 246.543C150.57 246.62 150.369 246.686 150.169 246.744C150.064 246.773 149.96 246.792 149.845 246.801C149.74 246.811 149.607 246.83 149.426 246.753C149.159 246.591 149.054 246.39 148.95 246.199C148.845 246.007 148.759 245.807 148.683 245.606C148.53 245.204 148.406 244.793 148.302 244.372L148.578 244.535C148.016 244.678 147.33 244.592 146.891 244.095C146.691 243.865 146.52 243.569 146.52 243.225C146.52 242.909 146.558 242.632 146.605 242.354C146.834 241.245 147.187 240.164 147.577 239.065V239.036C148.025 238.175 148.502 237.267 148.988 236.349C149.293 235.775 149.588 235.211 149.883 234.646C150.179 234.101 150.446 233.489 150.884 232.992C151.303 232.495 151.827 232.083 152.409 231.796C152.98 231.5 153.628 231.385 154.2 231.28C156.544 230.831 158.784 230.4 160.871 229.999H160.899H160.928C161.347 230.037 161.738 230.104 162.129 230.219C162.51 230.343 162.92 230.477 163.205 230.859L162.948 230.802C163.682 230.429 164.559 230.362 165.254 230.754C165.95 231.146 166.312 231.825 166.531 232.485L166.474 232.399C168.971 234.331 171.02 235.899 172.478 237.028C173.154 237.563 173.688 237.984 174.098 238.309C174.469 238.605 174.65 238.768 174.641 238.778C174.631 238.787 174.422 238.653 174.04 238.386C173.621 238.08 173.059 237.678 172.363 237.181C170.877 236.081 168.809 234.551 166.274 232.676L166.236 232.648L166.217 232.59C166.026 232.016 165.674 231.395 165.092 231.089C164.53 230.773 163.768 230.84 163.148 231.156L162.996 231.232L162.891 231.098C162.719 230.869 162.367 230.716 162.014 230.62C161.662 230.515 161.271 230.458 160.89 230.429H160.937C158.851 230.84 156.611 231.28 154.267 231.749C153.667 231.863 153.114 231.959 152.59 232.236C152.066 232.495 151.599 232.868 151.218 233.317C150.827 233.757 150.579 234.331 150.274 234.895C149.979 235.459 149.683 236.023 149.378 236.597C148.892 237.515 148.416 238.424 147.968 239.284V239.256C147.596 240.327 147.234 241.408 147.025 242.469C146.977 242.727 146.929 243.005 146.939 243.234C146.939 243.435 147.053 243.655 147.196 243.827C147.482 244.171 148.006 244.248 148.435 244.143L148.654 244.085L148.711 244.296C148.807 244.697 148.93 245.099 149.073 245.472C149.207 245.826 149.407 246.266 149.607 246.4C149.617 246.4 149.693 246.419 149.788 246.4C149.874 246.4 149.969 246.371 150.055 246.352C150.236 246.304 150.417 246.247 150.598 246.17C150.779 246.103 150.951 246.027 151.122 245.941L151.246 245.874C151.008 245.807 151.57 245.96 151.513 245.95V245.969L151.532 245.998L151.57 246.055C151.618 246.122 151.675 246.189 151.732 246.256C151.97 246.495 152.294 246.648 152.618 246.677C152.78 246.696 152.942 246.667 153.104 246.61C153.276 246.572 153.39 246.514 153.495 246.409C153.886 245.941 153.886 245.147 153.838 244.516V244.353L153.972 244.315C155.563 243.932 157.04 243.588 158.345 243.272H158.403L158.45 243.282C160.623 244.43 162.253 245.51 163.348 246.294C163.892 246.686 164.301 247.012 164.578 247.232C164.844 247.461 164.987 247.576 164.978 247.595L164.997 247.585Z" fill="#FF9A6C"/>
<path d="M143.67 253.543C143.67 253.543 114.71 244.41 105.619 241.455C89.9625 236.358 79.7089 241.513 76.4784 247.136C72.2855 254.433 82.339 268.653 86.2174 271.924C97.7003 281.612 117.378 282.922 117.378 282.922L188.153 282.788L167.493 254.672L143.68 253.543H143.67Z" fill="#343C41"/>
<path d="M148.007 266.731C136.276 268.118 124.202 266.463 113.272 261.988C111.357 261.203 109.47 260.333 107.469 259.826C105.525 259.329 103.485 259.186 101.494 259.406C99.9118 259.578 98.2347 260.056 97.2722 261.328C95.8618 263.193 96.5861 265.851 97.3675 268.06C98.2823 270.652 99.2448 273.301 101.036 275.376C103.142 277.805 106.182 279.192 109.241 280.158C115.216 282.051 121.524 282.587 127.785 282.836L149.293 281.65L147.997 266.741L148.007 266.731Z" fill="#F2E6F2"/>
<path d="M106.477 259.836C106.477 259.836 106.63 260.027 106.811 260.419C106.992 260.811 107.201 261.395 107.382 262.141C107.744 263.623 107.868 265.842 107.135 268.099C106.41 270.365 105.029 272.087 103.866 273.081C103.285 273.588 102.77 273.942 102.399 274.152C102.027 274.363 101.808 274.458 101.798 274.43C101.76 274.363 102.58 273.894 103.647 272.852C104.714 271.819 106.001 270.136 106.696 267.965C107.392 265.794 107.325 263.671 107.058 262.208C106.792 260.735 106.401 259.865 106.477 259.836Z" fill="#343C41"/>
<path d="M217.57 251.765C215.893 246.983 215.607 239.954 205.239 236.578C194.871 233.202 187.028 239.667 181.701 241.924C176.374 244.171 147.243 260.199 147.243 260.199C147.243 260.199 141.754 270.021 143.317 274.353C144.88 278.685 151.979 282.979 151.979 282.979H184.551C192.956 282.979 208.593 282.702 208.593 282.702C211.471 278.169 214.197 272.02 214.197 272.02L214.473 270.614C214.473 269.485 219.238 256.556 217.551 251.774L217.57 251.765Z" fill="#343C41"/>
<path d="M199.53 276.6C199.53 276.6 199.511 276.792 199.292 277.05C199.082 277.308 198.73 277.652 198.215 278.016C197.205 278.752 195.633 279.67 193.613 280.607C192.593 281.066 191.468 281.554 190.211 281.946C188.953 282.348 187.571 282.635 186.103 282.836C183.168 283.256 179.909 283.161 176.536 283.209C169.761 283.314 163.624 283.572 159.164 283.524C156.944 283.505 155.133 283.419 153.894 283.285C153.275 283.218 152.798 283.151 152.474 283.084C152.15 283.027 151.988 282.979 151.988 282.969C151.988 282.922 152.674 283.046 153.913 283.113C155.152 283.189 156.944 283.228 159.164 283.199C163.605 283.17 169.732 282.864 176.526 282.75C179.919 282.702 183.149 282.807 186.046 282.415C187.495 282.233 188.857 281.956 190.096 281.583C191.335 281.21 192.459 280.741 193.479 280.311C195.509 279.421 197.091 278.561 198.11 277.872C198.625 277.528 198.987 277.222 199.216 276.992C199.445 276.763 199.492 276.591 199.521 276.61L199.53 276.6Z" fill="#343C41"/>
<path d="M151.99 282.979C151.99 282.979 151.838 282.912 151.561 282.75C151.285 282.587 150.875 282.338 150.351 281.994C149.312 281.296 147.778 280.234 146.072 278.58C145.234 277.738 144.338 276.734 143.652 275.443C142.928 274.143 142.899 272.44 143.175 270.795C143.757 267.448 145.205 263.881 147.111 260.132L147.13 260.085L147.178 260.056C152.514 257.11 158.632 253.763 165.322 250.158C168.666 248.36 172.154 246.495 175.775 244.621C177.586 243.693 179.416 242.737 181.341 241.867C183.256 241.054 185.086 239.983 186.991 239.007C189.698 237.62 192.49 236.396 195.415 235.832C196.864 235.516 198.341 235.43 199.799 235.43C201.257 235.497 202.696 235.67 204.068 236.042C206.813 236.769 209.404 237.917 211.53 239.619C212.578 240.489 213.483 241.484 214.245 242.565C214.979 243.664 215.541 244.841 215.999 246.027C216.456 247.212 216.79 248.408 217.114 249.575C217.419 250.741 217.886 251.831 218.048 253.036C218.286 255.408 217.895 257.646 217.495 259.721C217.076 261.806 216.561 263.747 216.046 265.564C215.78 266.473 215.532 267.343 215.284 268.194C215.046 269.026 214.77 269.868 214.646 270.614V270.642C214.531 271.178 214.446 271.618 214.36 272.048V272.058C213.178 275.74 211.749 278.456 210.615 280.206C209.471 281.946 208.633 282.711 208.633 282.711C208.633 282.711 208.671 282.654 208.756 282.539C208.852 282.415 208.985 282.262 209.138 282.071C209.471 281.65 209.948 281.009 210.5 280.139C211.587 278.389 212.978 275.654 214.112 271.991C214.646 271.56 214.541 271.121 214.388 270.595V270.623C214.512 269.753 214.779 268.978 215.017 268.127C215.256 267.276 215.503 266.406 215.761 265.497C216.256 263.68 216.761 261.739 217.161 259.664C217.552 257.598 217.914 255.37 217.686 253.094C217.543 251.984 217.057 250.866 216.752 249.689C216.418 248.523 216.085 247.337 215.627 246.18C215.179 245.022 214.627 243.875 213.912 242.813C213.178 241.761 212.292 240.805 211.272 239.963C209.204 238.319 206.66 237.19 203.963 236.482C202.62 236.109 201.209 235.956 199.789 235.889C198.369 235.889 196.921 235.976 195.501 236.291C192.642 236.846 189.888 238.051 187.201 239.428C185.305 240.394 183.466 241.474 181.522 242.297C179.625 243.148 177.796 244.104 175.985 245.032C172.373 246.897 168.876 248.762 165.531 250.55C158.851 254.165 152.714 257.483 147.359 260.381L147.425 260.314C145.52 264.015 144.043 267.582 143.452 270.853C143.166 272.488 143.185 274.085 143.862 275.348C144.519 276.61 145.396 277.604 146.206 278.456C147.883 280.129 149.389 281.2 150.408 281.927C150.913 282.271 151.304 282.53 151.59 282.73C151.857 282.912 151.99 283.008 151.99 283.008V282.979Z" fill="#343C41"/>
<path d="M205.01 270.843C205.01 270.843 214.711 272 213.854 276.772C212.996 281.545 209.823 283.142 209.823 283.142L183.445 283.199C183.445 283.199 199.197 282.099 205.01 270.843Z" fill="#F2E6F2"/>
<path d="M205.954 268.529C206.012 268.548 205.935 269.074 205.659 269.877C205.383 270.69 204.887 271.78 204.087 272.832C202.457 274.955 200.389 275.787 200.38 275.682C200.294 275.548 202.19 274.573 203.734 272.555C205.278 270.537 205.811 268.472 205.964 268.529H205.954Z" fill="#343C41"/>
<path d="M202.581 270.403C202.705 270.403 202.562 272.048 201.647 273.798C200.761 275.558 199.617 276.686 199.531 276.61C199.427 276.524 200.379 275.29 201.247 273.597C202.133 271.914 202.466 270.394 202.59 270.413L202.581 270.403Z" fill="#343C41"/>
<path d="M214.959 281.812C214.883 281.774 215.511 280.569 216.274 278.523C217.036 276.476 217.875 273.569 218.256 270.26C218.628 266.951 218.475 263.919 218.189 261.758C217.903 259.597 217.57 258.277 217.646 258.258C217.675 258.258 217.779 258.574 217.951 259.167C218.123 259.759 218.323 260.63 218.504 261.72C218.875 263.891 219.085 266.961 218.704 270.317C218.313 273.674 217.427 276.619 216.569 278.647C216.15 279.661 215.759 280.473 215.454 281.009C215.159 281.545 214.978 281.841 214.949 281.822L214.959 281.812Z" fill="#6ECF8B"/>
<g opacity="0.3">
<path d="M209.47 268.28C209.404 267.64 209.146 266.875 208.517 266.75C207.746 266.597 207.221 267.477 206.907 268.204C203.562 275.969 192.556 282.013 184.17 282.797C187.62 282.826 192.956 282.415 196.358 281.803C199.75 281.181 203.105 279.881 205.649 277.538C208.193 275.195 209.842 271.733 209.47 268.29V268.28Z" fill="#343C41"/>
</g>
<path d="M145.203 257.713C145.146 257.828 143.059 257.024 140.534 255.934C138.009 254.834 135.998 253.849 136.046 253.735C136.093 253.62 138.18 254.414 140.715 255.513C143.25 256.613 145.251 257.598 145.203 257.713Z" fill="#343C41"/>
<g opacity="0.2">
<path d="M154.61 253.62C142.05 251.21 129.443 249.068 116.788 247.193L107.363 250.187C110.003 255.112 115.225 258.258 120.647 259.559C126.069 260.859 131.739 260.544 137.295 260.037C143.413 259.472 149.693 258.612 155.01 255.532C155.42 255.293 155.868 254.949 155.82 254.48C155.763 253.945 155.124 253.725 154.6 253.629L154.61 253.62Z" fill="#343C41"/>
</g>
<path d="M92.7641 216.074L108.592 251.21C109.25 252.663 110.679 253.61 112.271 253.629L158.431 254.232L164.253 251.086L155.143 250.416L140.964 216.256C140.516 215.166 139.458 214.458 138.276 214.449L94.0506 214.114C93.0405 214.114 92.3544 215.156 92.7737 216.084L92.7641 216.074Z" fill="#F2E6F2"/>
<path d="M92.7633 216.074C92.7633 216.074 92.668 215.95 92.6204 215.654C92.5727 215.367 92.6203 214.86 93.0492 214.439C93.2683 214.238 93.5733 214.066 93.9449 214.057C94.2975 214.057 94.6882 214.057 95.1075 214.057C95.9461 214.057 96.9181 214.057 97.9949 214.057C102.369 214.076 108.687 214.095 116.52 214.114C120.446 214.133 124.753 214.152 129.394 214.181C131.71 214.19 134.111 214.21 136.589 214.219C137.208 214.219 137.837 214.229 138.476 214.238C139.152 214.286 139.81 214.563 140.324 215.022C140.858 215.462 141.163 216.151 141.382 216.734C141.63 217.337 141.887 217.939 142.135 218.542C146.175 228.248 150.635 238.978 155.362 250.33L155.143 250.167C157.944 250.368 160.927 250.588 163.948 250.808C164.052 250.808 164.157 250.827 164.262 250.827L165.148 250.894L164.367 251.315C162.366 252.396 160.393 253.457 158.544 254.461L158.487 254.49H158.421C145.937 254.318 134.121 254.155 123.41 254.012C120.732 253.974 118.13 253.935 115.596 253.897C114.319 253.868 113.108 253.888 111.841 253.821C110.555 253.677 109.383 252.931 108.706 251.879C106.648 247.528 104.923 243.502 103.255 239.82C99.9865 232.475 97.3469 226.556 95.5173 222.444C94.6215 220.407 93.9259 218.829 93.4494 217.729C93.2207 217.203 93.0492 216.801 92.9253 216.505C92.8109 216.227 92.7633 216.084 92.7633 216.084C92.7633 216.084 92.8395 216.218 92.9729 216.486C93.1064 216.772 93.2969 217.174 93.5447 217.691C94.0498 218.781 94.774 220.349 95.6983 222.367C97.5661 226.46 100.253 232.361 103.579 239.677C105.256 243.32 107.038 247.423 109.059 251.65C109.668 252.597 110.726 253.266 111.889 253.39C113.07 253.448 114.347 253.429 115.605 253.457C118.14 253.486 120.741 253.515 123.419 253.543C134.13 253.677 145.947 253.821 158.43 253.974L158.306 254.002C160.155 253.008 162.128 251.937 164.129 250.856L164.234 251.344C164.138 251.344 164.024 251.325 163.919 251.325C160.908 251.105 157.925 250.885 155.114 250.674H154.952L154.895 250.512C150.187 239.151 145.747 228.421 141.716 218.704C141.468 218.092 141.211 217.49 140.963 216.897C140.725 216.275 140.496 215.74 140.029 215.348C139.591 214.955 139.019 214.716 138.447 214.669C137.828 214.669 137.208 214.649 136.589 214.64C134.111 214.621 131.71 214.592 129.394 214.573C124.763 214.525 120.456 214.487 116.52 214.439C108.687 214.343 102.378 214.267 97.9949 214.219C96.9086 214.2 95.9461 214.19 95.1075 214.171C94.6882 214.171 94.3071 214.162 93.9545 214.152C93.6114 214.152 93.3255 214.305 93.1159 214.487C92.7061 214.869 92.6394 215.348 92.668 215.625C92.6966 215.912 92.7728 216.046 92.7538 216.055L92.7633 216.074Z" fill="#343C41"/>
<path d="M153.781 254.165C153.781 254.165 153.695 254.041 153.571 253.782C153.428 253.476 153.257 253.103 153.047 252.644C152.58 251.583 151.951 250.167 151.189 248.437C149.645 244.869 147.549 239.935 145.29 234.455C143.032 228.975 141.05 223.993 139.668 220.359C138.982 218.542 138.429 217.069 138.077 216.046C137.915 215.577 137.781 215.185 137.676 214.86C137.591 214.583 137.552 214.439 137.562 214.439C137.581 214.439 137.648 214.573 137.762 214.831C137.895 215.147 138.048 215.529 138.239 215.988C138.667 217.059 139.258 218.503 139.963 220.254C141.459 223.907 143.48 228.841 145.71 234.292C147.949 239.744 149.979 244.669 151.484 248.322C152.19 250.072 152.771 251.516 153.209 252.587C153.39 253.056 153.533 253.438 153.657 253.754C153.752 254.021 153.8 254.165 153.781 254.174V254.165Z" fill="#343C41"/>
<path d="M125.145 233.107C125.145 234.359 124.135 235.383 122.877 235.383C121.619 235.383 120.609 234.369 120.609 233.107C120.609 231.844 121.619 230.831 122.877 230.831C124.135 230.831 125.145 231.844 125.145 233.107Z" fill="white"/>
<path d="M170.084 176.588C170.151 176.626 169.494 177.879 168.56 179.954C167.626 182.029 166.463 184.965 165.529 188.322C164.605 191.678 164.081 194.787 163.805 197.053C163.528 199.32 163.452 200.735 163.376 200.725C163.338 200.725 163.328 200.371 163.328 199.731C163.328 199.09 163.366 198.162 163.462 197.015C163.643 194.729 164.119 191.573 165.053 188.188C165.996 184.802 167.216 181.867 168.245 179.81C168.76 178.778 169.198 177.965 169.532 177.42C169.865 176.875 170.056 176.578 170.084 176.588Z" fill="#343C41"/>
<path d="M239.841 201.443C239.841 201.443 239.669 201.481 239.336 201.519C238.955 201.557 238.469 201.605 237.868 201.663C236.534 201.777 234.676 201.93 232.379 202.122C227.653 202.475 221.116 202.973 213.616 203.537L213.378 203.556L213.359 203.317C213.206 200.821 213.035 198.181 212.863 195.466C212.596 190.741 212.368 186.237 212.301 182.125C212.091 177.993 213.092 174.225 214.712 171.548C216.303 168.832 218.428 167.244 219.972 166.479C220.763 166.106 221.392 165.858 221.83 165.752C222.269 165.628 222.497 165.571 222.507 165.59C222.526 165.657 221.573 165.848 220.058 166.651C218.562 167.464 216.532 169.052 215.007 171.729C213.473 174.379 212.52 178.041 212.758 182.115C212.854 186.208 213.092 190.713 213.359 195.427C213.521 198.143 213.683 200.783 213.835 203.279L213.578 203.059C221.078 202.561 227.615 202.131 232.351 201.816C234.647 201.682 236.506 201.576 237.849 201.5C238.459 201.471 238.945 201.452 239.326 201.433C239.66 201.423 239.841 201.433 239.841 201.433V201.443Z" fill="#343C41"/>
<path d="M193.823 217.49C193.823 217.49 193.518 217.413 193.003 217.184C192.746 217.079 192.432 216.935 192.089 216.725C191.745 216.524 191.336 216.313 190.926 216.007C190.078 215.453 189.153 214.669 188.22 213.703C187.305 212.718 186.4 211.551 185.628 210.203C184.875 208.845 184.332 207.467 183.95 206.176C183.607 204.876 183.407 203.68 183.36 202.667C183.302 202.16 183.341 201.701 183.341 201.299C183.341 200.897 183.369 200.553 183.417 200.276C183.484 199.712 183.541 199.406 183.579 199.415C183.674 199.415 183.512 200.668 183.712 202.638C183.798 203.623 184.027 204.79 184.389 206.042C184.78 207.295 185.323 208.625 186.056 209.944C186.809 211.254 187.676 212.402 188.553 213.378C189.449 214.334 190.326 215.128 191.126 215.701C192.717 216.878 193.861 217.375 193.823 217.461V217.49Z" fill="#343C41"/>
<path d="M221.706 149.562L207.555 146.282C207.555 156.304 204.782 160.33 202.438 165.618C200.093 170.907 198.092 176.846 199.779 182.373C200.389 184.372 201.666 186.38 203.667 186.945C205.058 187.337 206.564 186.964 207.841 186.285C210.7 184.755 212.539 181.809 213.778 178.806C215.016 175.803 215.807 172.609 217.256 169.702C218.495 167.235 220.2 165.006 221.115 162.405C222.039 159.804 223.45 152.775 221.696 149.562H221.706Z" fill="#343C41"/>
</svg>
