<svg width="36" height="24" viewBox="0 0 36 24" fill="none" xmlns="http://www.w3.org/2000/svg">
<g id="Group 2609808">
<rect id="Rectangle 25383" x="0.5" y="0.5" width="35" height="23" rx="3.5" fill="#437DEE" fill-opacity="0.08" stroke="#B3C2BC"/>
<g id="Group 168056">
<path id="Path 122998" d="M9.60508 6.73129V8.16062H11.9708V8.89824H9.60508V10.6958H8.69531V6.00098H12.2718V6.73129H9.60508Z" fill="#213B65"/>
<path id="Path 122999" d="M16.6372 10.6956L15.6361 9.32052C15.5944 9.32521 15.5318 9.3273 15.4473 9.3273H14.3414V10.6956H13.4316V6.00072H15.4473C15.8258 5.99211 16.2021 6.06062 16.5532 6.20208C16.8485 6.31761 17.1028 6.51846 17.2835 6.77903C17.4557 7.0441 17.5435 7.35509 17.5355 7.67105C17.5441 7.99647 17.4485 8.31613 17.2627 8.58342C17.0714 8.84881 16.8023 9.04808 16.4927 9.15359L17.6153 10.6956H16.6372ZM16.6163 7.67001C16.6237 7.53865 16.5995 7.40744 16.5459 7.2873C16.4923 7.16717 16.4107 7.06158 16.308 6.97934C16.0424 6.8008 15.7249 6.71582 15.4056 6.73782H14.3414V8.60898H15.4056C15.7249 8.63098 16.0424 8.546 16.308 8.36746C16.4105 8.28353 16.4918 8.17667 16.5454 8.05551C16.5989 7.93435 16.6232 7.8023 16.6163 7.67001Z" fill="#213B65"/>
<path id="Path 123000" d="M22.5046 9.96554V10.6958H18.8301V6.00098H22.4065V6.73129H19.7398V7.95196H22.1055V8.66975H19.7398V9.96554H22.5046Z" fill="#213B65"/>
<path id="Path 123001" d="M27.4734 9.96554V10.6958H23.7988V6.00098H27.3753V6.73129H24.7086V7.95196H27.0743V8.66975H24.7086V9.96554H27.4734Z" fill="#213B65"/>
<path id="Path 123002" d="M8.69531 11.8594H10.3849V16.5287H13.2337V17.8787H8.69531V11.8594Z" fill="#213B65"/>
<path id="Path 123003" d="M19.64 17.8782L19.6228 14.6883L18.0855 17.2851H17.3343L15.8069 14.7744V17.8787H14.2461V11.8594H15.6373L17.7365 15.3331L19.785 11.8594H21.1757L21.1929 17.8782H19.64Z" fill="#213B65"/>
<path id="Path 123004" d="M24.8286 17.9982C24.3532 17.9994 23.8798 17.9387 23.4201 17.8177C23.0248 17.7239 22.6491 17.5609 22.3105 17.3362L22.8651 16.0806C23.1531 16.2677 23.4665 16.4125 23.7957 16.5105C24.1333 16.6171 24.485 16.6721 24.839 16.6737C25.4872 16.6737 25.8115 16.5105 25.8119 16.1839C25.8113 16.0991 25.7836 16.0167 25.733 15.9487C25.6823 15.8807 25.6113 15.8306 25.5302 15.8057C25.2442 15.6875 24.9471 15.5982 24.6434 15.5392C24.2617 15.4605 23.8855 15.3572 23.5171 15.2298C23.2174 15.1164 22.9505 14.9303 22.7404 14.6883C22.5125 14.4075 22.3969 14.0521 22.4159 13.6909C22.4111 13.3377 22.5155 12.9915 22.7148 12.6998C22.936 12.3839 23.244 12.1389 23.6016 11.9945C24.066 11.8104 24.5629 11.7227 25.0623 11.7368C25.4532 11.7367 25.8429 11.7829 26.2229 11.8745C26.5769 11.95 26.9168 12.0807 27.2303 12.2616L26.7086 13.5256C26.2046 13.2339 25.6351 13.0742 25.0529 13.0613C24.7983 13.0429 24.5438 13.0971 24.3189 13.2178C24.2493 13.2557 24.1911 13.3116 24.1505 13.3797C24.1099 13.4478 24.0885 13.5256 24.0883 13.6049C24.0902 13.6861 24.1177 13.7647 24.1667 13.8295C24.2158 13.8943 24.284 13.942 24.3617 13.9658C24.6463 14.0762 24.9406 14.1596 25.2407 14.2152C25.6237 14.2921 26.0003 14.3985 26.3669 14.5334C26.6673 14.6416 26.9347 14.8252 27.1437 15.0665C27.3781 15.3417 27.4973 15.6968 27.4765 16.0577C27.48 16.4074 27.3756 16.7496 27.1776 17.0379C26.9511 17.3524 26.6407 17.5968 26.2819 17.7431C25.8198 17.9261 25.3253 18.0129 24.8286 17.9982Z" fill="#213B65"/>
</g>
</g>
</svg>
