<svg width="352" height="138" viewBox="0 0 352 138" fill="none" xmlns="http://www.w3.org/2000/svg">
    <path d="M0.000144958 12C0.000144958 5.37258 5.37273 0 12.0001 0H340C346.628 0 352 5.37258 352 12V138H0.000144958V12Z" fill="url(#paint0_linear_230_4858)"/>
    <mask id="mask0_230_4858" style="mask-type:alpha" maskUnits="userSpaceOnUse" x="0" y="0" width="352" height="138">
        <path d="M0 0H352V138H0V0Z" fill="#E8F4FF"/>
    </mask>
    <g mask="url(#mask0_230_4858)">
        <path d="M26.5445 65.7452L37.88 67.8576L32.9057 57.4551L39.4274 66.9641L43.2658 56.0911L41.1534 67.4266L51.5559 62.4524L42.0468 68.9741L52.9198 72.8124L41.5844 70.7001L46.5586 81.1026L40.0369 71.5935L36.1985 82.4665L38.3109 71.131L27.9084 76.1053L37.4175 69.5835L26.5445 65.7452Z" fill="white"/>
        <path d="M328.029 53.2418L334.687 54.4825L331.765 48.3727L335.596 53.9578L337.85 47.5716L336.609 54.2294L342.719 51.3078L337.134 55.1383L343.52 57.3928L336.862 56.1521L339.784 62.2619L335.953 56.6768L333.699 63.063L334.94 56.4052L328.83 59.3268L334.415 55.4963L328.029 53.2418Z" fill="white"/>
        <path d="M52.1933 14.1854L59.2291 15.4965L56.1416 9.03981L60.1896 14.942L62.572 8.19323L61.2609 15.229L67.7176 12.1416L61.8154 16.1895L68.5642 18.572L61.5284 17.2608L64.6158 23.7176L60.5679 17.8154L58.1855 24.5641L59.4966 17.5283L53.0399 20.6158L58.942 16.5678L52.1933 14.1854Z" fill="white"/>
        <path d="M263.425 95.1319L270.461 96.4431L267.373 89.9863L271.421 95.8885L273.804 89.1398L272.493 96.1756L278.949 93.0881L273.047 97.1361L279.796 99.5185L272.76 98.2074L275.848 104.664L271.8 98.7619L269.417 105.511L270.728 98.4749L264.272 101.562L270.174 97.5144L263.425 95.1319Z" fill="white"/>
        <path d="M74.3199 97.3553L81.3557 98.6665L78.2682 92.2097L82.3162 98.1119L84.6986 91.3632L83.3875 98.399L89.8442 95.3115L83.942 99.3595L90.6908 101.742L83.6549 100.431L86.7424 106.887L82.6945 100.985L80.312 107.734L81.6232 100.698L75.1664 103.786L81.0686 99.7377L74.3199 97.3553Z" fill="white"/>
        <path d="M300.997 14.6366L304.906 15.365L303.191 11.7779L305.44 15.0569L306.763 11.3076L306.035 15.2164L309.622 13.5012L306.343 15.75L310.092 17.0736L306.184 16.3452L307.899 19.9323L305.65 16.6533L304.326 20.4026L305.055 16.4938L301.468 18.209L304.747 15.9602L300.997 14.6366Z" fill="white"/>
        <path d="M50.8761 106.417C50.8761 106.417 47.4269 99.9952 46.027 100C46.027 100 41.1251 102.17 38.4023 109.116H35.997C35.997 109.116 34.6501 103.579 28.151 100.597C28.151 100.597 24.5335 107.288 24.4084 107.225C26.6986 109.298 29.6442 110.5 32.7306 110.622C37.9501 110.833 45.5219 110.261 45.5219 110.261C45.5219 110.261 50.1112 108.265 50.8761 106.417Z" fill="#FF725E"/>
        <g opacity="0.3">
            <path d="M34.7366 110.03C34.7366 110.03 29.2478 106.942 24.8413 107.288C24.8413 107.288 29.9982 111.531 34.7366 110.03Z" fill="black"/>
        </g>
        <g opacity="0.3">
            <path d="M50.3373 106.384C50.3373 106.384 43.2802 106.865 39.629 110.275C39.629 110.275 46.3878 110.983 50.3373 106.384Z" fill="black"/>
        </g>
        <path d="M64.0233 109.568L63.7347 138.581L17.6736 138.653L17.0001 109.65L64.0233 109.568Z" fill="#FFC700"/>
        <path d="M50.2747 109.732C49.9206 110.181 49.5331 110.602 49.1154 110.992C48.3457 111.781 47.2152 112.916 45.8009 114.283C42.9723 117.029 38.9988 120.758 34.4913 124.745C29.9838 128.733 25.8034 132.221 22.7295 134.694C21.1949 135.93 19.9394 136.916 19.059 137.58C18.6199 137.948 18.1535 138.283 17.664 138.581C18.0581 138.165 18.4843 137.78 18.9388 137.431L22.5034 134.42C25.5148 131.88 29.6567 128.353 34.1738 124.394C38.6909 120.435 42.6837 116.731 45.57 114.047L48.9903 110.877C49.3885 110.463 49.8179 110.08 50.2747 109.732Z" fill="white"/>
        <path d="M63.9175 120.286C64.0137 120.387 59.8526 124.577 54.6235 129.647C49.3944 134.718 45.0793 138.754 45.0024 138.653C44.9254 138.552 49.0673 134.362 54.2964 129.291C59.5254 124.221 63.8213 120.19 63.9175 120.286Z" fill="white"/>
        <path d="M62.8351 110.064C62.4805 110.514 62.093 110.936 61.6758 111.329C60.9061 112.118 59.7756 113.253 58.3613 114.614C55.5327 117.366 51.5592 121.089 47.0517 125.077C42.5442 129.065 38.359 132.572 35.2899 135.03C33.7505 136.262 32.4997 137.248 31.6194 137.917C31.1828 138.287 30.7161 138.62 30.2243 138.913C30.6216 138.5 31.0476 138.116 31.4991 137.763L35.0638 134.756C38.0752 132.216 42.217 128.685 46.7197 124.702C51.2224 120.719 55.2296 117.039 58.1159 114.36L61.5363 111.185C61.94 110.778 62.3742 110.404 62.8351 110.064Z" fill="white"/>
        <path d="M38.157 109.51C37.9502 109.801 37.7078 110.064 37.4354 110.295C36.9543 110.776 36.2375 111.449 35.3428 112.277C33.5532 113.931 31.0133 116.173 28.2087 118.583C25.4042 120.993 22.7632 123.12 20.8438 124.625C19.8816 125.376 19.1023 125.972 18.5539 126.376C18.2835 126.609 17.9844 126.806 17.664 126.963C17.8888 126.688 18.1456 126.441 18.4289 126.227C18.9436 125.775 19.6892 125.135 20.6225 124.351L27.8816 118.203L35.0974 112.012C36.0211 111.218 36.7715 110.569 37.2959 110.15C37.556 109.903 37.8451 109.688 38.157 109.51Z" fill="white"/>
        <path d="M24.5527 109.732C24.6393 109.838 23.0229 111.305 20.94 113.013C18.857 114.72 17.0915 116.014 17.0097 115.899C16.928 115.783 18.5395 114.321 20.6225 112.618C22.7054 110.915 24.4757 109.626 24.5527 109.732Z" fill="white"/>
        <path d="M63.778 134.141C63.8646 134.246 62.7726 135.295 61.3727 136.546C59.9728 137.797 58.6932 138.648 58.6114 138.547C58.5296 138.446 59.6505 137.417 61.0167 136.171C62.3829 134.925 63.6914 134.015 63.778 134.141Z" fill="white"/>
        <path d="M38.6344 109.561L34.9062 109.568L34.9571 138.72L38.6853 138.713L38.6344 109.561Z" fill="#FF725E"/>
        <g opacity="0.3">
            <path d="M50.852 109.592L50.9001 138.595L63.5471 138.581L64.0233 109.568L50.852 109.592Z" fill="black"/>
        </g>
        <path d="M59.3138 109.563V138.561L56.668 138.566L56.6199 109.568L59.3138 109.563Z" fill="#FF725E"/>
        <path d="M63.8597 122.865H17.3176V125.833H63.8597V122.865Z" fill="#FF725E"/>
        <path d="M267.338 128.93L263.021 128.729L261.641 132.537L265.95 132.734L267.338 128.93Z" fill="white"/>
        <path d="M264.728 136.054L260.439 135.856L259.278 139.105L263.54 139.3L264.728 136.054Z" fill="#F5F5F5"/>
        <path d="M274.32 124.338L273.192 125.814L277.59 126.015C278.313 125.048 278.879 123.972 279.268 122.828L275.413 122.651C275.096 123.243 274.731 123.807 274.32 124.338Z" fill="white"/>
        <path d="M269.734 122.397L265.46 122.202C265.1 123.139 264.689 124.223 264.246 125.413L268.555 125.611L269.734 122.397Z" fill="white"/>
        <path d="M274.636 118.177C274.928 118.261 275.199 118.405 275.432 118.601C275.664 118.796 275.853 119.038 275.986 119.311L279.592 119.477C279.451 118.237 278.878 117.087 277.974 116.228L269.025 115.817C268.131 116.712 267.395 117.752 266.848 118.892L271.089 119.087C271.736 118.224 272.832 117.527 274.636 118.177Z" fill="white"/>
        <path d="M265.944 132.734L261.641 132.536C261.242 133.647 260.838 134.76 260.445 135.859L264.733 136.054L265.944 132.734Z" fill="#EE4743"/>
        <path d="M272.864 126.242L275.068 128.715C276.011 127.923 276.854 127.019 277.578 126.024L273.192 125.814L272.864 126.242Z" fill="#EE4743"/>
        <path d="M268.555 125.61L264.246 125.413C263.859 126.452 263.449 127.569 263.021 128.729L267.338 128.93L268.555 125.61Z" fill="#EE4743"/>
        <path d="M273.839 114.222C272.699 113.926 270.841 114.074 269.028 115.817L277.98 116.227C276.651 114.963 274.855 114.496 273.839 114.222Z" fill="#EE4743"/>
        <path d="M270.256 120.974C270.403 120.294 270.687 119.651 271.092 119.086L266.851 118.891C266.668 119.252 266.491 119.63 266.317 120.046C266.083 120.61 265.791 121.343 265.46 122.202L269.734 122.397L270.256 120.974Z" fill="#EE4743"/>
        <path d="M275.413 122.66L279.268 122.837C279.53 122.047 279.664 121.219 279.663 120.386C279.661 120.082 279.639 119.778 279.598 119.476L275.992 119.317C276.438 120.303 275.968 121.623 275.413 122.66Z" fill="#EE4743"/>
        <path d="M257.052 145.361C257.052 145.361 257.052 145.426 256.995 145.547C256.939 145.668 256.892 145.842 256.815 146.09C256.647 146.574 256.405 147.271 256.086 148.205L256.068 148.157L259.713 149.738L259.636 149.767C261.88 143.615 265.623 133.349 270.153 120.927V120.944C270.286 120.323 270.531 119.732 270.877 119.199C271.223 118.639 271.741 118.205 272.353 117.961C272.99 117.752 273.677 117.745 274.318 117.944C274.666 117.99 275 118.115 275.293 118.31C275.586 118.504 275.831 118.762 276.009 119.065C276.188 119.368 276.295 119.708 276.322 120.059C276.35 120.409 276.298 120.762 276.169 121.089C275.993 121.752 275.726 122.387 275.375 122.976C275.031 123.572 274.643 124.14 274.214 124.677L272.968 126.325V126.181L275.035 128.508L275.165 128.653H275.006C276.473 127.423 277.685 125.918 278.573 124.223C279.003 123.395 279.302 122.507 279.459 121.588C279.536 121.137 279.563 120.678 279.539 120.221L279.489 119.541C279.462 119.317 279.422 119.094 279.368 118.874C279.164 118.002 278.734 117.199 278.122 116.547C277.509 115.915 276.776 115.413 275.966 115.07C275.171 114.73 274.346 114.466 273.502 114.281C272.672 114.156 271.824 114.267 271.054 114.6C269.518 115.253 268.396 116.529 267.554 117.849C266.712 119.169 266.193 120.667 265.628 122.052C264.553 124.849 263.579 127.468 262.702 129.861C260.962 134.648 259.553 138.523 258.567 141.211C258.082 142.546 257.704 143.574 257.447 144.297C257.317 144.643 257.22 144.909 257.152 145.098C257.084 145.287 257.043 145.366 257.043 145.366C257.043 145.366 257.066 145.272 257.128 145.089L257.403 144.283C257.651 143.565 258.014 142.51 258.481 141.181C259.426 138.491 260.799 134.601 262.536 129.805C263.404 127.406 264.367 124.784 265.439 121.984C265.998 120.596 266.509 119.113 267.371 117.743C268.233 116.372 269.365 115.085 270.962 114.388C271.768 114.036 272.657 113.92 273.526 114.054C274.39 114.237 275.234 114.505 276.045 114.854C276.883 115.21 277.641 115.729 278.275 116.381C278.913 117.063 279.362 117.9 279.578 118.809C279.633 119.037 279.676 119.267 279.705 119.5L279.755 120.203C279.78 120.674 279.753 121.146 279.675 121.612C279.521 122.553 279.222 123.465 278.789 124.314C277.886 126.037 276.652 127.565 275.159 128.812L275.077 128.883L275 128.798L274.87 128.653L272.802 126.325L272.74 126.255L272.796 126.178L274.046 124.527C274.47 123.999 274.854 123.439 275.192 122.852C275.53 122.282 275.788 121.668 275.96 121.027C276.077 120.73 276.125 120.41 276.1 120.092C276.074 119.773 275.977 119.465 275.814 119.19C275.651 118.916 275.428 118.682 275.161 118.507C274.894 118.331 274.59 118.22 274.273 118.18C273.679 117.989 273.04 117.989 272.445 118.18C271.876 118.406 271.393 118.809 271.069 119.329C270.741 119.837 270.507 120.401 270.378 120.992V121.009C265.806 133.414 262.028 143.671 259.763 149.814L259.742 149.87L259.686 149.847L256.03 148.225L256 148.211V148.178L256.759 146.078C256.848 145.845 256.913 145.668 256.96 145.541C256.987 145.479 257.018 145.419 257.052 145.361Z" fill="#263238"/>
        <path d="M141.832 134.477L146.055 134.208C146.466 135.301 146.835 136.275 147.145 137.117L142.954 137.383L141.832 134.477Z" fill="white"/>
        <path d="M136.577 120.859L140.889 120.587C141.362 121.81 141.849 123.086 142.34 124.368L138.036 124.639L136.577 120.859Z" fill="white"/>
        <path d="M139.309 127.938L143.595 127.666L144.817 130.915L140.559 131.184L139.309 127.938Z" fill="white"/>
        <path d="M129.519 116.381L130.67 117.858L126.279 118.135C125.538 117.183 124.953 116.119 124.545 114.984L128.384 114.739C128.715 115.317 129.095 115.867 129.519 116.381Z" fill="white"/>
        <path d="M134.079 114.37L138.346 114.101C138.725 115.028 139.153 116.109 139.616 117.288L135.31 117.559L134.079 114.37Z" fill="white"/>
        <path d="M129.09 110.232C128.8 110.322 128.532 110.471 128.303 110.671C128.073 110.87 127.888 111.115 127.758 111.39L124.158 111.617C124.279 110.376 124.832 109.216 125.72 108.342L134.669 107.778C135.58 108.656 136.334 109.683 136.899 110.814L132.661 111.08C132.011 110.229 130.889 109.55 129.09 110.232Z" fill="white"/>
        <path d="M142.954 137.377L147.145 137.111C147.795 138.848 148.193 139.923 148.193 139.923L146.941 140.513L144.227 140.685L142.954 137.377Z" fill="#EE4743"/>
        <path d="M140.559 131.172L144.818 130.903C145.258 132.085 145.674 133.183 146.055 134.202L141.832 134.471L140.559 131.172Z" fill="#EE4743"/>
        <path d="M138.036 124.639L142.34 124.367C142.759 125.469 143.181 126.576 143.595 127.666L139.309 127.938L138.036 124.639Z" fill="#EE4743"/>
        <path d="M130.995 118.265L128.833 120.779C127.878 119.999 127.02 119.106 126.279 118.12L130.67 117.843L130.995 118.265Z" fill="#EE4743"/>
        <path d="M135.301 117.559L139.608 117.288C140.012 118.321 140.443 119.432 140.889 120.587L136.577 120.858L135.301 117.559Z" fill="#EE4743"/>
        <path d="M129.826 106.265C130.96 105.937 132.821 106.064 134.663 107.777L125.72 108.341C127.029 107.054 128.816 106.558 129.826 106.265Z" fill="#EE4743"/>
        <path d="M133.523 112.955C133.365 112.277 133.07 111.639 132.655 111.08L136.893 110.814C137.079 111.171 137.265 111.546 137.446 111.957C137.691 112.521 137.992 113.247 138.332 114.101L134.064 114.37L133.523 112.955Z" fill="#EE4743"/>
        <path d="M128.396 114.727L124.557 114.972C124.281 114.186 124.134 113.36 124.12 112.527C124.118 112.223 124.135 111.919 124.17 111.617L127.77 111.39C127.333 112.391 127.823 113.699 128.396 114.727Z" fill="#EE4743"/>
        <path d="M147.145 137.111C147.145 137.111 147.163 137.176 147.204 137.297C147.245 137.418 147.313 137.593 147.393 137.835L148.158 139.938L148.176 139.891L144.561 141.544L144.634 141.574L133.627 112.925V112.943C133.482 112.325 133.227 111.737 132.874 111.209C132.516 110.654 131.989 110.23 131.37 109.999C130.729 109.801 130.041 109.807 129.403 110.016C129.059 110.07 128.731 110.2 128.444 110.397C128.157 110.595 127.919 110.855 127.746 111.157C127.574 111.46 127.471 111.798 127.447 112.145C127.423 112.493 127.478 112.841 127.608 113.165C127.795 113.824 128.072 114.454 128.432 115.037C128.782 115.627 129.177 116.189 129.613 116.718L130.886 118.348V118.2L128.851 120.563L128.724 120.711L128.884 120.696C127.396 119.494 126.158 118.014 125.239 116.337C124.802 115.513 124.497 114.626 124.332 113.708C124.246 113.259 124.212 112.801 124.229 112.344L124.267 111.661C124.29 111.437 124.327 111.214 124.377 110.994C124.562 110.113 124.978 109.298 125.582 108.631C126.183 107.988 126.907 107.472 127.711 107.113C128.5 106.758 129.321 106.48 130.162 106.283C130.989 106.143 131.839 106.239 132.614 106.561C134.161 107.187 135.319 108.442 136.158 109.762C136.997 111.082 137.57 112.556 138.157 113.933C139.28 116.712 140.299 119.311 141.217 121.691C143.04 126.446 144.513 130.298 145.535 132.968L146.717 136.033C146.849 136.379 146.953 136.642 147.027 136.828C147.101 137.014 147.139 137.097 147.139 137.097C147.139 137.097 147.112 137.002 147.047 136.822L146.752 136.016L145.618 132.935C144.628 130.262 143.19 126.396 141.371 121.632C140.461 119.249 139.451 116.644 138.335 113.859C137.744 112.482 137.212 111.009 136.329 109.653C135.446 108.297 134.291 107.018 132.682 106.36C131.87 106.021 130.979 105.919 130.112 106.065C129.251 106.262 128.412 106.545 127.608 106.909C126.775 107.277 126.026 107.81 125.404 108.475C124.776 109.166 124.341 110.01 124.143 110.923C124.091 111.152 124.053 111.384 124.028 111.617L124.004 112.326C123.987 112.799 124.022 113.272 124.108 113.738C124.284 114.676 124.604 115.582 125.056 116.422C125.99 118.127 127.249 119.632 128.762 120.853L128.845 120.92L128.922 120.835L129.046 120.687L131.084 118.324L131.146 118.253L131.087 118.177L129.808 116.546C129.373 116.025 128.978 115.473 128.627 114.892C128.28 114.328 128.01 113.719 127.826 113.082C127.704 112.787 127.651 112.468 127.671 112.149C127.691 111.83 127.784 111.52 127.942 111.243C128.1 110.965 128.32 110.727 128.584 110.548C128.848 110.368 129.149 110.251 129.465 110.205C130.058 110.008 130.697 110.001 131.294 110.185C131.867 110.399 132.356 110.793 132.688 111.307C133.025 111.809 133.27 112.369 133.408 112.958V112.976L144.516 141.595L144.537 141.651L144.59 141.627L148.193 139.941L148.226 139.926V139.893L147.431 137.805L147.222 137.271C147.174 137.17 147.145 137.111 147.145 137.111Z" fill="#263238"/>
        <path d="M201.286 115.467L199.945 138.459L164.462 138.413L164 115.415L201.286 115.467Z" fill="#E32726"/>
        <path d="M200.309 121.652L199.771 121.97L200.112 121.449L198.841 121.189L200.101 120.86H200.135L199.841 120.334L200.32 120.669L200.627 119.392L200.916 120.669C200.925 120.692 200.937 120.713 200.95 120.733H200.997V121.241C200.994 121.253 200.994 121.265 200.997 121.276V121.79L200.708 123.12L200.309 121.652Z" fill="white"/>
        <path d="M198.251 133.142L199.517 132.807C199.517 132.807 199.517 132.807 199.546 132.807L199.257 132.281L199.737 132.616L200.037 131.338L200.286 132.425V132.726L200.234 133.616L200.187 134.384L200.055 135.02L199.748 133.656L199.211 133.98L199.546 133.46L198.251 133.142Z" fill="white"/>
        <path d="M193.575 137.841L193.281 137.315L193.766 137.65L194.067 136.373L194.356 137.65C194.356 137.679 194.356 137.691 194.39 137.714L194.968 137.419L194.622 137.887L195.916 138.217L194.593 138.477H193.558L192.286 138.222L193.546 137.887L193.575 137.841Z" fill="white"/>
        <path d="M190.42 123.033L189.148 122.773L190.408 122.443H190.443L190.148 121.918L190.633 122.253L190.94 120.975L191.229 122.253C191.238 122.275 191.25 122.296 191.263 122.316L191.841 122.016L191.495 122.484L192.789 122.819L191.466 123.073L191.419 123.102L191.766 123.68L191.24 123.31L190.951 124.64L190.651 123.282L190.113 123.599L190.42 123.033Z" fill="white"/>
        <path d="M185.044 116.23L183.767 115.97L185.033 115.64C185.033 115.64 185.033 115.64 185.062 115.64L184.969 115.461H185.877V115.49L185.929 115.461H186.235L186.085 115.664L187.379 115.993L186.056 116.253C186.056 116.253 186.027 116.253 186.015 116.253L186.362 116.831L185.83 116.461L185.547 117.79L185.247 116.432L184.709 116.75L185.044 116.23Z" fill="white"/>
        <path d="M183.264 128.2L184.524 127.871H184.559L184.264 127.339L184.744 127.674L185.05 126.397L185.339 127.674C185.348 127.697 185.36 127.718 185.374 127.738L185.952 127.437L185.599 127.911L186.894 128.241L185.576 128.501C185.576 128.501 185.547 128.501 185.53 128.501L185.877 129.079L185.351 128.709L185.062 130.038L184.761 128.68L184.224 128.998L184.565 128.478L183.264 128.2Z" fill="white"/>
        <path d="M164.682 137.535L164.988 136.257L165.272 137.535L165.312 137.598L165.89 137.298L165.543 137.766L166.838 138.101L165.514 138.355C165.514 138.355 165.514 138.355 165.474 138.384V138.413H164.468V138.361V137.783L164.434 137.719V137.43L164.665 137.592L164.682 137.535Z" fill="white"/>
        <path d="M174.421 126.258L173.15 125.998L174.41 125.663H174.444L174.149 125.137L174.629 125.472L174.936 124.195L175.224 125.472C175.224 125.501 175.224 125.512 175.259 125.536L175.837 125.241L175.485 125.709L176.779 126.038L175.456 126.298L175.415 126.327L175.762 126.905L175.23 126.535L174.947 127.865L174.647 126.507L174.109 126.83L174.444 126.304L174.421 126.258Z" fill="white"/>
        <path d="M164.607 122.877L164.908 121.6L165.197 122.877C165.205 122.898 165.216 122.918 165.231 122.935L165.809 122.64L165.462 123.108L166.757 123.443L165.434 123.698L165.387 123.726L165.734 124.304L165.208 123.935L164.919 125.264L164.619 123.9L164.202 124.154V124.039L164.422 123.703L164.208 123.657V123.166L164.422 123.108C164.422 123.108 164.422 123.108 164.457 123.108L164.15 122.64V122.605L164.601 122.917L164.607 122.877Z" fill="white"/>
        <path d="M165.422 116.207L164.145 115.947L165.405 115.612C165.405 115.612 165.405 115.612 165.439 115.612L165.341 115.433H166.254H166.3H166.607L166.462 115.629L167.757 115.964L166.433 116.219L166.387 116.247L166.734 116.825L166.208 116.45L165.919 117.785L165.618 116.421L165.087 116.745L165.422 116.224V116.207Z" fill="white"/>
        <path d="M182.386 136.338L183.646 136.003H183.68L183.386 135.477L183.871 135.812L184.177 134.535L184.466 135.812C184.474 135.833 184.486 135.853 184.501 135.87L185.079 135.575L184.732 136.043L186.027 136.378L184.703 136.633L184.657 136.662L185.004 137.24L184.478 136.864L184.189 138.199L183.888 136.835L183.357 137.159L183.692 136.639L182.386 136.338Z" fill="white"/>
        <path d="M189.16 132.385L190.42 132.055H190.454L190.16 131.529L190.645 131.865L190.946 130.587L191.235 131.865C191.244 131.887 191.255 131.908 191.269 131.928L191.847 131.628L191.5 132.102L192.795 132.431L191.472 132.685L191.425 132.714L191.772 133.292L191.246 132.922L190.957 134.252L190.657 132.893L190.125 133.211L190.46 132.691L189.16 132.385Z" fill="white"/>
        <path d="M195.413 126.727L194.471 126.536L195.402 126.287L195.188 125.894L195.541 126.143L195.766 125.201L195.974 126.143C195.974 126.143 195.974 126.172 195.974 126.189L196.39 125.969L196.13 126.316L197.084 126.559L196.107 126.75H196.078L196.332 127.189L195.945 126.911L195.731 127.894L195.506 126.894L195.113 127.131L195.361 126.75L195.413 126.727Z" fill="white"/>
        <path d="M182.178 121.582L181.201 121.773C181.201 121.773 181.201 121.773 181.172 121.773L181.426 122.212L181.039 121.94L180.825 122.923L180.6 121.917L180.201 122.154L180.449 121.767L179.513 121.576L180.444 121.334L180.23 120.946L180.582 121.195L180.808 120.253L181.016 121.195C181.024 121.211 181.034 121.226 181.045 121.241L181.455 121.021L181.201 121.368L182.178 121.582Z" fill="white"/>
        <path d="M170.913 119.629L170.693 119.236L171.051 119.484L171.277 118.542L171.491 119.484C171.491 119.484 171.491 119.513 171.491 119.531L171.907 119.311L171.647 119.658L172.606 119.9L171.629 120.091H171.595L171.849 120.53L171.462 120.253L171.248 121.236L171.028 120.236L170.635 120.473L170.884 120.091L169.942 119.9L170.872 119.652L170.913 119.629Z" fill="white"/>
        <path d="M176.138 116.357H176.103L176.357 116.797L175.97 116.519L175.756 117.508L175.537 116.502L175.144 116.739L175.392 116.357L174.45 116.167L175.381 115.918L175.167 115.531L175.525 115.774L175.6 115.456H175.889L175.964 115.774C175.964 115.774 175.964 115.803 175.964 115.82L176.38 115.6L176.12 115.947L177.08 116.196L176.138 116.357Z" fill="white"/>
        <path d="M178.051 132.333L177.109 132.142L178.022 131.888L177.802 131.5L178.161 131.743L178.386 130.801L178.6 131.743C178.598 131.759 178.598 131.774 178.6 131.789L179.01 131.57L178.756 131.917L179.71 132.165L178.733 132.35H178.698L178.958 132.789L178.565 132.512L178.357 133.5L178.132 132.495L177.733 132.732L178.051 132.333Z" fill="white"/>
        <path d="M169.78 129.327L168.844 129.136L169.774 128.888L169.56 128.495L169.913 128.743L170.138 127.801L170.346 128.743C170.346 128.743 170.346 128.772 170.375 128.79L170.786 128.57L170.531 128.917L171.485 129.159L170.508 129.35H170.479L170.734 129.789L170.346 129.512L170.132 130.495L169.907 129.495L169.508 129.732L169.763 129.35L169.78 129.327Z" fill="white"/>
        <path d="M168.595 134.841L169.526 134.598L169.352 134.2L169.705 134.448L169.93 133.5L170.138 134.448C170.138 134.448 170.138 134.477 170.167 134.494L170.578 134.275L170.323 134.622L171.277 134.864L170.3 135.055L170.554 135.494L170.167 135.223L169.953 136.205L169.728 135.199L169.329 135.436L169.578 135.049L168.595 134.841Z" fill="white"/>
        <path d="M164.503 130.489L164.913 130.27L164.659 130.616L165.613 130.859L164.636 131.05H164.607L164.861 131.489L164.474 131.212L164.33 131.865V131.102V130.524V129.547L164.52 130.397C164.52 130.397 164.497 130.472 164.503 130.489Z" fill="white"/>
        <path d="M174.415 138.165L174.201 137.777L174.554 138.026L174.774 137.084L174.988 138.026C174.986 138.041 174.986 138.057 174.988 138.072L175.398 137.853L175.144 138.199L176.097 138.448H173.421L174.352 138.205L174.415 138.165Z" fill="white"/>
        <path d="M191.05 116.432L191.304 116.872L190.917 116.594L190.703 117.583L190.477 116.577L190.079 116.814L190.333 116.432L189.397 116.242L190.327 115.993L190.113 115.606L190.466 115.849L190.553 115.473H190.818L190.899 115.849C190.899 115.849 190.899 115.878 190.928 115.895L191.339 115.675L191.084 116.022L192.038 116.265L191.05 116.432Z" fill="white"/>
        <path d="M197.529 116.184H197.494L197.754 116.623L197.361 116.352L197.147 117.334L196.928 116.329L196.535 116.566L196.783 116.178L195.841 115.988L196.772 115.745H196.8L196.65 115.479H196.754L196.939 115.606V115.496H197.321L197.35 115.606C197.357 115.623 197.367 115.638 197.378 115.652L197.673 115.496H197.743L197.529 115.78L198.488 116.028L197.529 116.184Z" fill="white"/>
        <g opacity="0.3">
            <path d="M194.552 115.456L194.523 138.454L199.945 138.459L201.286 115.467L194.552 115.456Z" fill="black"/>
        </g>
        <path d="M198.621 115.461L197.685 138.459L196.454 138.453L196.483 115.461H198.621Z" fill="#FFC700"/>
        <path d="M178.093 115.449L178.061 138.447L181.02 138.451L181.052 115.453L178.093 115.449Z" fill="#FFC700"/>
        <path d="M191.547 112.104C191.547 112.104 188.83 107.006 187.72 107C187.72 107 183.831 108.734 181.652 114.213H179.756C179.756 114.213 178.704 109.821 173.56 107.445C173.56 107.445 170.67 112.739 170.572 112.687C172.387 114.343 174.729 115.304 177.184 115.398C181.322 115.583 187.327 115.144 187.327 115.144C187.327 115.144 190.94 113.566 191.547 112.104Z" fill="#FFC700"/>
        <g opacity="0.3">
            <path d="M178.744 114.93C178.744 114.93 174.398 112.468 170.907 112.728C170.907 112.728 174.982 116.109 178.744 114.93Z" fill="black"/>
        </g>
        <g opacity="0.3">
            <path d="M191.125 112.075C191.125 112.075 185.536 112.433 182.646 115.126C182.646 115.126 187.981 115.704 191.125 112.075Z" fill="black"/>
        </g>
        <path d="M228.418 101.686C228.418 101.686 229.775 98.5844 230.422 98.5301C230.422 98.5301 232.772 99.365 234.296 102.467L235.415 102.379C235.633 101.477 236.041 100.632 236.613 99.9012C237.185 99.1703 237.906 98.5704 238.729 98.1419C238.729 98.1419 240.654 101.106 240.712 101.064C239.722 102.116 238.391 102.783 236.955 102.947C234.547 103.243 231.019 103.264 231.019 103.264C231.019 103.264 228.84 102.513 228.418 101.686Z" fill="#455A64"/>
        <path d="M228.418 101.686C228.418 101.686 228.464 101.749 228.548 101.849C228.683 101.997 228.836 102.127 229.003 102.237C229.644 102.644 230.334 102.97 231.057 103.206C232.535 103.168 234.501 103.126 236.763 102.88C237.962 102.767 239.103 102.31 240.049 101.565C240.174 101.469 240.294 101.366 240.408 101.256C240.466 101.202 240.524 101.148 240.579 101.089L240.616 101.047V101.026C240.516 100.901 240.729 101.235 240.762 101.168C240.731 101.179 240.698 101.179 240.666 101.168L240.629 101.143L240.604 101.118L240.566 101.064C240.366 100.797 240.182 100.521 239.994 100.229L238.867 98.5259L238.659 98.2045L238.8 98.2421C237.997 98.6735 237.291 99.2675 236.729 99.9861C236.167 100.705 235.761 101.532 235.536 102.417V102.496H235.461L234.338 102.584H234.221L234.192 102.525C233.24 100.559 231.75 99.1855 230.389 98.6094H230.414C230.289 98.6459 230.178 98.7203 230.097 98.8223C230.005 98.921 229.92 99.0256 229.842 99.1354C229.688 99.3483 229.554 99.5529 229.425 99.7616C229.187 100.179 229.007 100.517 228.853 100.805L228.515 101.469C228.48 101.547 228.44 101.623 228.393 101.694C228.412 101.61 228.441 101.529 228.481 101.452C228.544 101.298 228.644 101.068 228.786 100.772C228.928 100.475 229.099 100.116 229.329 99.7073C229.445 99.5028 229.575 99.2899 229.746 99.0645C229.826 98.9474 229.914 98.8358 230.009 98.7305C230.113 98.5978 230.261 98.5062 230.426 98.4717C231.854 99.0436 233.374 100.43 234.367 102.429L234.271 102.375L235.39 102.283L235.298 102.366C235.524 101.454 235.938 100.6 236.513 99.8564C237.088 99.1132 237.812 98.498 238.638 98.0501L238.725 98L238.78 98.0876L238.992 98.4091L240.115 100.108C240.299 100.384 240.487 100.663 240.675 100.918L240.712 100.964C240.712 100.964 240.712 100.964 240.712 100.989H240.683C240.68 100.992 240.677 100.996 240.675 101C240.673 101.005 240.672 101.009 240.672 101.014C240.672 101.019 240.673 101.023 240.675 101.028C240.677 101.032 240.68 101.036 240.683 101.039C240.616 100.797 240.904 101.26 240.779 101.097L240.754 101.122L240.712 101.173C240.656 101.234 240.596 101.293 240.533 101.348C240.412 101.461 240.287 101.569 240.157 101.669C239.179 102.435 238 102.901 236.763 103.009C234.484 103.239 232.518 103.26 231.036 103.268C230.309 103.017 229.618 102.67 228.982 102.237C228.817 102.118 228.668 101.978 228.54 101.82C228.493 101.781 228.452 101.736 228.418 101.686Z" fill="#263238"/>
        <g opacity="0.3">
            <path d="M236.024 102.755C236.024 102.755 238.454 101.118 240.504 101.114C240.504 101.114 238.274 103.272 236.024 102.755Z" fill="black"/>
        </g>
        <g opacity="0.3">
            <path d="M228.665 101.652C228.665 101.652 231.95 101.607 233.77 103.051C233.77 103.051 230.669 103.631 228.665 101.652Z" fill="black"/>
        </g>
        <path d="M245.425 102.959L223.693 102.887L223.575 138.312L245.307 138.384L245.425 102.959Z" fill="#F294CA"/>
        <g opacity="0.3">
            <path d="M245.425 102.959L233.16 102.919L233.043 138.343L245.307 138.384L245.425 102.959Z" fill="black"/>
        </g>
        <path d="M236.012 105.911C236.023 106.026 236.077 106.134 236.163 106.212C236.249 106.291 236.361 106.334 236.477 106.334C236.594 106.334 236.706 106.291 236.792 106.212C236.878 106.134 236.932 106.026 236.943 105.911C236.932 105.795 236.878 105.687 236.792 105.609C236.706 105.531 236.594 105.487 236.477 105.487C236.361 105.487 236.249 105.531 236.163 105.609C236.077 105.687 236.023 105.795 236.012 105.911Z" fill="white"/>
        <path d="M238.325 111.062C238.314 111.156 238.333 111.251 238.378 111.334C238.423 111.417 238.492 111.485 238.576 111.528C238.66 111.571 238.755 111.588 238.849 111.576C238.942 111.564 239.03 111.524 239.101 111.461C239.171 111.398 239.221 111.315 239.243 111.223C239.266 111.131 239.26 111.035 239.227 110.946C239.193 110.858 239.134 110.782 239.056 110.728C238.979 110.674 238.887 110.645 238.792 110.644C238.675 110.639 238.56 110.679 238.473 110.757C238.385 110.835 238.332 110.945 238.325 111.062Z" fill="white"/>
        <path d="M236.442 116.155C236.453 116.271 236.507 116.378 236.593 116.457C236.679 116.535 236.791 116.578 236.907 116.578C237.024 116.578 237.136 116.535 237.222 116.457C237.308 116.378 237.362 116.271 237.373 116.155C237.365 116.039 237.313 115.93 237.226 115.852C237.139 115.774 237.026 115.733 236.909 115.737C236.793 115.733 236.678 115.774 236.591 115.852C236.504 115.93 236.45 116.038 236.442 116.155Z" fill="white"/>
        <path d="M229.429 113.492C229.419 113.586 229.437 113.68 229.482 113.764C229.527 113.847 229.596 113.914 229.68 113.958C229.764 114.001 229.859 114.018 229.953 114.006C230.047 113.994 230.134 113.953 230.205 113.891C230.275 113.828 230.325 113.745 230.348 113.653C230.37 113.561 230.364 113.465 230.331 113.376C230.297 113.288 230.238 113.212 230.16 113.158C230.083 113.104 229.991 113.075 229.896 113.074C229.779 113.069 229.664 113.109 229.577 113.187C229.489 113.265 229.436 113.375 229.429 113.492Z" fill="white"/>
        <path d="M233.077 110.189C233.085 110.306 233.137 110.414 233.224 110.492C233.311 110.57 233.424 110.611 233.541 110.607C233.621 110.598 233.696 110.566 233.759 110.515C233.821 110.464 233.867 110.397 233.892 110.32C233.917 110.243 233.919 110.161 233.898 110.083C233.877 110.006 233.834 109.936 233.774 109.882C233.714 109.828 233.64 109.792 233.561 109.78C233.481 109.767 233.4 109.778 233.326 109.81C233.252 109.843 233.19 109.896 233.146 109.963C233.101 110.03 233.078 110.109 233.077 110.189Z" fill="white"/>
        <path d="M229.654 105.89C229.644 105.984 229.663 106.079 229.707 106.162C229.752 106.245 229.821 106.313 229.905 106.356C229.989 106.399 230.085 106.416 230.178 106.404C230.272 106.392 230.36 106.352 230.43 106.289C230.501 106.226 230.551 106.143 230.573 106.051C230.596 105.959 230.59 105.863 230.556 105.774C230.523 105.686 230.463 105.61 230.386 105.556C230.308 105.502 230.216 105.473 230.122 105.472C230.005 105.467 229.89 105.507 229.802 105.585C229.715 105.663 229.662 105.773 229.654 105.89Z" fill="white"/>
        <path d="M224.499 111.446C224.489 111.54 224.507 111.635 224.552 111.718C224.597 111.801 224.666 111.869 224.75 111.912C224.834 111.955 224.929 111.972 225.023 111.96C225.116 111.948 225.204 111.908 225.275 111.845C225.345 111.782 225.395 111.699 225.418 111.607C225.44 111.516 225.434 111.419 225.401 111.331C225.367 111.242 225.308 111.166 225.23 111.112C225.153 111.058 225.061 111.029 224.966 111.029C224.849 111.023 224.734 111.063 224.647 111.142C224.559 111.22 224.506 111.329 224.499 111.446Z" fill="white"/>
        <path d="M224.945 117.361C224.935 117.455 224.954 117.55 224.999 117.633C225.043 117.716 225.112 117.784 225.196 117.827C225.281 117.87 225.376 117.887 225.469 117.875C225.563 117.863 225.651 117.823 225.722 117.76C225.792 117.697 225.842 117.614 225.864 117.523C225.887 117.431 225.881 117.334 225.847 117.246C225.814 117.158 225.755 117.081 225.677 117.027C225.599 116.974 225.507 116.944 225.413 116.944C225.296 116.938 225.181 116.979 225.094 117.057C225.006 117.135 224.953 117.244 224.945 117.361Z" fill="white"/>
        <path d="M224.924 123.398C224.914 123.492 224.933 123.586 224.978 123.67C225.023 123.753 225.092 123.82 225.176 123.864C225.26 123.907 225.355 123.924 225.449 123.912C225.542 123.9 225.63 123.859 225.701 123.797C225.771 123.734 225.821 123.651 225.843 123.559C225.866 123.467 225.86 123.371 225.827 123.282C225.793 123.194 225.734 123.118 225.656 123.064C225.579 123.01 225.486 122.981 225.392 122.98C225.334 122.977 225.276 122.985 225.221 123.004C225.166 123.023 225.115 123.053 225.072 123.092C225.028 123.131 224.993 123.178 224.967 123.23C224.942 123.283 224.928 123.34 224.924 123.398Z" fill="white"/>
        <path d="M224.419 135.737C224.409 135.831 224.428 135.926 224.473 136.009C224.517 136.092 224.586 136.16 224.67 136.203C224.755 136.246 224.85 136.263 224.943 136.251C225.037 136.239 225.125 136.199 225.196 136.136C225.266 136.073 225.316 135.99 225.338 135.899C225.361 135.807 225.355 135.71 225.321 135.622C225.288 135.534 225.229 135.457 225.151 135.403C225.073 135.349 224.981 135.32 224.887 135.32C224.77 135.314 224.655 135.355 224.568 135.433C224.48 135.511 224.427 135.62 224.419 135.737Z" fill="white"/>
        <path d="M223.973 129.354C223.98 129.471 224.033 129.579 224.119 129.657C224.206 129.735 224.32 129.777 224.436 129.772C224.549 129.772 224.658 129.727 224.739 129.647C224.819 129.566 224.864 129.458 224.864 129.344C224.864 129.231 224.819 129.122 224.739 129.041C224.658 128.961 224.549 128.916 224.436 128.916C224.377 128.914 224.317 128.924 224.262 128.944C224.206 128.965 224.155 128.997 224.112 129.038C224.069 129.079 224.035 129.128 224.011 129.182C223.987 129.237 223.974 129.295 223.973 129.354Z" fill="white"/>
        <path d="M236.88 125.376C236.887 125.493 236.939 125.602 237.026 125.68C237.113 125.759 237.227 125.799 237.344 125.794C237.457 125.794 237.566 125.749 237.646 125.668C237.726 125.588 237.771 125.479 237.771 125.366C237.771 125.252 237.726 125.143 237.646 125.063C237.566 124.983 237.457 124.938 237.344 124.938C237.284 124.935 237.225 124.944 237.169 124.965C237.113 124.986 237.062 125.018 237.019 125.058C236.975 125.099 236.941 125.149 236.917 125.203C236.893 125.258 236.881 125.317 236.88 125.376Z" fill="white"/>
        <path d="M233.031 122.905C233.021 122.999 233.04 123.094 233.085 123.177C233.129 123.26 233.198 123.328 233.282 123.371C233.367 123.414 233.462 123.431 233.555 123.419C233.649 123.407 233.737 123.367 233.808 123.304C233.878 123.241 233.928 123.158 233.95 123.066C233.973 122.974 233.967 122.878 233.933 122.79C233.9 122.701 233.841 122.625 233.763 122.571C233.685 122.517 233.593 122.488 233.499 122.487C233.382 122.484 233.269 122.525 233.182 122.603C233.095 122.681 233.041 122.789 233.031 122.905Z" fill="white"/>
        <path d="M243.405 115.746C243.395 115.84 243.413 115.935 243.458 116.018C243.503 116.101 243.572 116.169 243.656 116.212C243.74 116.255 243.835 116.272 243.929 116.26C244.023 116.248 244.111 116.208 244.181 116.145C244.252 116.082 244.301 115.999 244.324 115.907C244.346 115.815 244.34 115.719 244.307 115.631C244.274 115.542 244.214 115.466 244.137 115.412C244.059 115.358 243.967 115.329 243.872 115.328C243.755 115.323 243.641 115.363 243.553 115.441C243.466 115.519 243.412 115.629 243.405 115.746Z" fill="white"/>
        <path d="M229.821 134.898C229.811 134.992 229.83 135.087 229.874 135.17C229.919 135.253 229.988 135.321 230.072 135.364C230.156 135.407 230.251 135.424 230.345 135.412C230.439 135.4 230.527 135.36 230.597 135.297C230.668 135.234 230.718 135.151 230.74 135.06C230.763 134.968 230.757 134.871 230.723 134.783C230.69 134.695 230.63 134.618 230.553 134.564C230.475 134.511 230.383 134.481 230.289 134.481C230.172 134.476 230.058 134.517 229.97 134.595C229.883 134.673 229.83 134.782 229.821 134.898Z" fill="white"/>
        <path d="M242.887 133.642C242.877 133.736 242.896 133.831 242.941 133.914C242.985 133.997 243.054 134.065 243.138 134.108C243.222 134.151 243.318 134.168 243.411 134.156C243.505 134.144 243.593 134.104 243.663 134.041C243.734 133.978 243.784 133.895 243.806 133.803C243.829 133.711 243.823 133.615 243.789 133.526C243.756 133.438 243.697 133.362 243.619 133.308C243.541 133.254 243.449 133.225 243.355 133.224C243.238 133.221 243.125 133.262 243.038 133.34C242.951 133.417 242.897 133.526 242.887 133.642Z" fill="white"/>
        <path d="M242.962 110.649C242.952 110.743 242.971 110.837 243.016 110.921C243.06 111.004 243.129 111.071 243.214 111.115C243.298 111.158 243.393 111.175 243.486 111.163C243.58 111.151 243.668 111.11 243.739 111.048C243.809 110.985 243.859 110.902 243.881 110.81C243.904 110.718 243.898 110.622 243.865 110.533C243.831 110.445 243.772 110.369 243.694 110.315C243.616 110.261 243.524 110.232 243.43 110.231C243.313 110.227 243.199 110.268 243.112 110.345C243.024 110.423 242.971 110.532 242.962 110.649Z" fill="white"/>
        <path d="M236.859 131.158C236.867 131.274 236.919 131.383 237.006 131.461C237.093 131.539 237.206 131.58 237.323 131.575C237.436 131.575 237.545 131.53 237.625 131.45C237.705 131.37 237.751 131.261 237.751 131.147C237.751 131.034 237.705 130.925 237.625 130.845C237.545 130.764 237.436 130.719 237.323 130.719C237.263 130.717 237.204 130.727 237.149 130.748C237.093 130.769 237.042 130.8 236.999 130.841C236.956 130.882 236.921 130.931 236.897 130.985C236.873 131.04 236.86 131.098 236.859 131.158Z" fill="white"/>
        <path d="M243.38 126.261C243.386 126.378 243.439 126.487 243.525 126.565C243.612 126.644 243.726 126.684 243.843 126.679C243.923 126.67 243.999 126.638 244.061 126.587C244.124 126.536 244.17 126.468 244.195 126.392C244.219 126.315 244.221 126.233 244.2 126.155C244.179 126.077 244.136 126.007 244.077 125.954C244.017 125.9 243.943 125.864 243.863 125.851C243.784 125.839 243.702 125.849 243.629 125.882C243.555 125.914 243.492 125.967 243.448 126.035C243.404 126.102 243.38 126.181 243.38 126.261Z" fill="white"/>
        <path d="M234.981 135.771C234.971 135.865 234.989 135.96 235.034 136.043C235.079 136.126 235.148 136.193 235.232 136.237C235.316 136.28 235.411 136.297 235.505 136.285C235.599 136.273 235.687 136.233 235.757 136.17C235.827 136.107 235.877 136.024 235.9 135.932C235.922 135.84 235.916 135.744 235.883 135.655C235.849 135.567 235.79 135.491 235.712 135.437C235.635 135.383 235.543 135.354 235.448 135.353C235.331 135.348 235.216 135.388 235.129 135.466C235.042 135.544 234.988 135.654 234.981 135.771Z" fill="white"/>
        <path d="M241.965 130.494C241.955 130.588 241.973 130.683 242.018 130.766C242.063 130.849 242.132 130.917 242.216 130.96C242.3 131.003 242.395 131.02 242.489 131.008C242.583 130.996 242.67 130.956 242.741 130.893C242.811 130.83 242.861 130.747 242.884 130.655C242.906 130.564 242.9 130.467 242.867 130.379C242.833 130.29 242.774 130.214 242.696 130.16C242.619 130.106 242.527 130.077 242.432 130.077C242.315 130.071 242.2 130.112 242.113 130.19C242.025 130.268 241.972 130.377 241.965 130.494Z" fill="white"/>
        <path d="M242.461 121.74C242.451 121.834 242.47 121.929 242.515 122.012C242.56 122.096 242.629 122.163 242.713 122.206C242.797 122.25 242.892 122.266 242.986 122.254C243.079 122.242 243.167 122.202 243.238 122.139C243.308 122.076 243.358 121.993 243.38 121.902C243.403 121.81 243.397 121.713 243.364 121.625C243.33 121.537 243.271 121.461 243.193 121.407C243.116 121.353 243.023 121.323 242.929 121.323C242.812 121.317 242.697 121.358 242.61 121.436C242.522 121.514 242.469 121.623 242.461 121.74Z" fill="white"/>
        <path d="M229.395 123.84C229.406 123.956 229.46 124.064 229.546 124.142C229.632 124.22 229.744 124.264 229.861 124.264C229.977 124.264 230.089 124.22 230.175 124.142C230.261 124.064 230.315 123.956 230.326 123.84C230.315 123.724 230.261 123.617 230.175 123.538C230.089 123.46 229.977 123.417 229.861 123.417C229.744 123.417 229.632 123.46 229.546 123.538C229.46 123.617 229.406 123.724 229.395 123.84Z" fill="white"/>
        <path d="M230.418 128.57C230.408 128.664 230.426 128.758 230.471 128.842C230.516 128.925 230.585 128.992 230.669 129.036C230.753 129.079 230.848 129.096 230.942 129.084C231.036 129.072 231.124 129.031 231.194 128.969C231.265 128.906 231.315 128.823 231.337 128.731C231.359 128.639 231.354 128.543 231.32 128.454C231.287 128.366 231.227 128.29 231.15 128.236C231.072 128.182 230.98 128.153 230.886 128.152C230.768 128.147 230.654 128.187 230.566 128.265C230.479 128.343 230.426 128.453 230.418 128.57Z" fill="white"/>
        <path d="M231.741 117.812C231.75 117.929 231.803 118.037 231.891 118.115C231.978 118.193 232.092 118.234 232.209 118.229C232.325 118.233 232.439 118.192 232.526 118.114C232.613 118.036 232.667 117.928 232.676 117.812C232.676 117.688 232.627 117.569 232.54 117.481C232.452 117.394 232.333 117.344 232.209 117.344C232.085 117.344 231.966 117.394 231.878 117.481C231.791 117.569 231.741 117.688 231.741 117.812Z" fill="white"/>
        <path d="M224.519 104.875C224.509 104.969 224.528 105.064 224.573 105.147C224.618 105.23 224.687 105.298 224.771 105.341C224.855 105.384 224.95 105.401 225.044 105.389C225.137 105.377 225.225 105.337 225.296 105.274C225.366 105.211 225.416 105.128 225.438 105.036C225.461 104.945 225.455 104.848 225.422 104.76C225.388 104.671 225.329 104.595 225.251 104.541C225.174 104.487 225.082 104.458 224.987 104.458C224.87 104.453 224.756 104.494 224.669 104.572C224.582 104.65 224.528 104.759 224.519 104.875Z" fill="white"/>
        <path d="M243.442 106.365C243.432 106.459 243.451 106.554 243.496 106.637C243.541 106.721 243.61 106.788 243.694 106.831C243.778 106.875 243.873 106.891 243.967 106.879C244.06 106.867 244.148 106.827 244.219 106.764C244.289 106.701 244.339 106.619 244.361 106.527C244.384 106.435 244.378 106.339 244.345 106.25C244.311 106.162 244.252 106.086 244.174 106.032C244.097 105.978 244.004 105.949 243.91 105.948C243.793 105.944 243.68 105.986 243.593 106.063C243.506 106.141 243.452 106.249 243.442 106.365Z" fill="white"/>
        <path d="M245.369 119.904L223.637 119.832L223.633 120.954L245.365 121.027L245.369 119.904Z" fill="#455A64"/>
        <path d="M228.631 102.895L227.583 102.892L227.466 138.32L228.514 138.324L228.631 102.895Z" fill="#455A64"/>
        <path d="M239.798 102.953L238.75 102.95L238.632 138.378L239.68 138.382L239.798 102.953Z" fill="#455A64"/>
        <path d="M311.595 131.596H318.615V150.127H311.595V131.596Z" fill="#7B858C"/>
        <path d="M317.544 57.2651L331.47 82.2777C331.908 83.067 331.628 84.0624 330.84 84.5042C330.441 84.7276 329.965 84.7723 329.531 84.6283L325.528 83.3053L338.17 105.96C338.762 107.02 338.383 108.36 337.325 108.953C336.663 109.323 335.86 109.326 335.195 108.961L330.057 106.139L341.933 126.539C343.893 129.91 340.465 133.852 336.861 132.365L332.424 130.017C332.424 130.017 336.638 140.824 331.197 141.648C325.756 142.472 320.114 133.849 320.114 133.849C320.114 133.849 315.774 143.41 308.771 141.906C302.158 140.484 305.628 132.184 305.628 132.184C305.628 132.184 300.059 140.146 294.501 135.299C291.655 132.817 296.157 125.703 296.157 125.703L289.896 127.974C288.934 128.401 287.806 127.964 287.382 127.001C287.095 126.351 287.191 125.596 287.632 125.04L302.575 106.213L297.483 107.015C295.934 107.258 294.481 106.201 294.238 104.649C294.127 103.944 294.285 103.225 294.68 102.631L308.985 81.3395L304.677 82.8039C303.824 83.0968 302.897 82.6401 302.607 81.7862C302.446 81.3146 302.51 80.7934 302.778 80.3739L317.544 57.2651Z" fill="#00A94F"/>
        <path d="M337.594 111.8C338.697 111.671 339.84 112.284 340.568 113.116C341.312 113.97 341.602 115.129 341.347 116.233C340.306 115.936 339.265 115.516 338.491 114.757C337.718 113.997 337.267 112.835 337.586 111.8" fill="#6ECF8B"/>
        <path d="M303.17 84.0569C303.151 85.1689 302.395 86.2213 301.473 86.8443C300.528 87.4674 299.343 87.6014 298.285 87.2043C298.716 86.2114 299.276 85.2185 300.124 84.5657C300.972 83.9129 302.189 83.6027 303.17 84.0569Z" fill="#6ECF8B"/>
        <path d="M301.782 81.6789C301.326 82.2374 300.523 82.4707 299.799 82.4235C299.071 82.364 298.414 81.9569 298.034 81.3289C298.634 80.9665 299.316 80.758 300.017 80.7233C300.719 80.7233 301.453 81.0584 301.772 81.6839" fill="#6ECF8B"/>
        <path d="M338.038 109.197C338.533 108.596 339.398 108.345 340.174 108.405C340.962 108.472 341.669 108.914 342.075 109.591C341.424 109.983 340.685 110.204 339.926 110.239C339.17 110.239 338.38 109.872 338.038 109.197Z" fill="#6ECF8B"/>
        <path d="M318.486 50.1564L316.619 55.5675L311.617 54.9544L315.774 57.8089L314.133 62.5696L317.643 59.3056L320.645 62.52L319.644 57.9901L323.461 56.0639L319.009 55.6767L318.486 50.1564Z" fill="#FFD200"/>
        <g opacity="0.6">
            <path d="M317.797 57.1511L318.493 50L316.619 55.5675L317.797 57.1511Z" fill="#FFF4DE"/>
        </g>
        <g opacity="0.6">
            <path d="M317.643 59.3054L317.797 57.1509L314.133 62.5694L317.643 59.3054Z" fill="#FFF4DE"/>
        </g>
        <g opacity="0.6">
            <path d="M315.774 57.8088L317.797 57.1511L311.617 54.9544L315.774 57.8088Z" fill="#FFF4DE"/>
        </g>
        <g opacity="0.6">
            <path d="M319.644 57.9901L320.645 62.52L317.797 57.1511L319.644 57.9901Z" fill="#FFF4DE"/>
        </g>
        <g opacity="0.6">
            <path d="M319.009 55.6767L323.461 56.0639L317.797 57.1511L319.009 55.6767Z" fill="#FFF4DE"/>
        </g>
        <path d="M303.893 96.2273C303.958 95.6564 303.98 95.0806 303.958 94.5047C303.98 93.9289 303.958 93.353 303.893 92.7821C303.829 93.353 303.809 93.9289 303.829 94.5047C303.809 95.0806 303.829 95.6564 303.893 96.2273Z" fill="#343C41"/>
        <path d="M303.935 101.381C302.271 101.381 300.921 100.029 300.921 98.3623C300.921 96.6954 302.271 95.344 303.935 95.344C305.6 95.344 306.95 96.6954 306.95 98.3623C306.95 100.029 305.6 101.381 303.935 101.381Z" fill="#FFDB44"/>
        <path d="M300.919 98.4489L300.946 98.4812C300.973 98.5135 300.996 98.5308 301.038 98.5631C301.162 98.6649 301.301 98.7468 301.447 98.8113C301.682 98.9131 301.935 98.9578 302.19 98.9478C302.533 98.9354 302.86 98.7964 303.108 98.5606C303.417 98.2777 303.596 97.878 303.603 97.4586C303.611 97.2203 303.531 96.9869 303.38 96.8033C303.298 96.7015 303.184 96.6295 303.056 96.6047C302.917 96.5824 302.775 96.6295 302.676 96.7288C302.498 96.9249 302.396 97.1781 302.386 97.4437C302.361 97.7117 302.399 97.9823 302.493 98.233C302.686 98.7691 303.085 99.2035 303.603 99.4393C304.124 99.6999 304.744 99.6553 305.22 99.3226C305.648 98.9851 305.834 98.4216 305.69 97.8929C305.616 97.6472 305.443 97.4461 305.212 97.3369C305.098 97.2848 304.974 97.2674 304.85 97.2848C304.729 97.3047 304.617 97.3692 304.538 97.4635C304.404 97.6447 304.352 97.8731 304.392 98.094C304.416 98.2926 304.488 98.4837 304.602 98.6475C304.791 98.9305 305.056 99.1539 305.366 99.2904C305.599 99.3946 305.854 99.4492 306.109 99.4468C306.271 99.4443 306.429 99.417 306.58 99.3673C306.632 99.3499 306.682 99.3276 306.732 99.3003C306.531 99.3624 306.32 99.3946 306.109 99.3971C305.864 99.3872 305.624 99.3301 305.403 99.2258C305.11 99.0868 304.86 98.8709 304.684 98.5979C304.582 98.444 304.518 98.2677 304.498 98.0841C304.463 97.8904 304.511 97.6919 304.627 97.533C304.766 97.3791 304.991 97.3419 305.172 97.4412C305.376 97.5405 305.527 97.7192 305.586 97.9376C305.713 98.4167 305.539 98.9255 305.15 99.2308C304.709 99.5311 304.139 99.5684 303.663 99.3276C303.177 99.1067 302.8 98.6996 302.619 98.1982C302.53 97.9599 302.493 97.7068 302.515 97.4536C302.523 97.2178 302.609 96.9944 302.763 96.8157C302.835 96.7412 302.939 96.704 303.041 96.7189C303.14 96.7412 303.227 96.7983 303.289 96.8777C303.425 97.0391 303.497 97.2476 303.489 97.4586C303.489 97.8507 303.328 98.2231 303.046 98.4936C302.815 98.722 302.508 98.856 302.185 98.8759C301.943 98.8908 301.697 98.8535 301.469 98.7642C301.273 98.6823 301.09 98.5755 300.919 98.4489Z" fill="#FFEEB1"/>
        <path d="M316.312 68.7948C316.376 68.2239 316.396 67.6481 316.376 67.0722C316.396 66.4964 316.376 65.9205 316.312 65.3496C316.248 65.9205 316.228 66.4964 316.248 67.0722C316.228 67.6481 316.248 68.2239 316.312 68.7948Z" fill="#343C41"/>
        <path d="M316.344 73.9478C314.68 73.9478 313.33 72.5965 313.33 70.9295C313.33 69.2626 314.68 67.9112 316.344 67.9112C318.009 67.9112 319.358 69.2626 319.358 70.9295C319.358 72.5965 318.009 73.9478 316.344 73.9478Z" fill="#FFD200"/>
        <path d="M315.132 110.013C315.197 109.353 315.216 108.69 315.197 108.028C315.216 107.365 315.197 106.702 315.132 106.042C315.068 106.702 315.045 107.365 315.068 108.028C315.045 108.69 315.068 109.353 315.132 110.013Z" fill="#343C41"/>
        <path d="M314.855 116.566C312.928 116.566 311.367 115.003 311.367 113.074C311.367 111.145 312.928 109.582 314.855 109.582C316.781 109.582 318.342 111.145 318.342 113.074C318.342 115.003 316.781 116.566 314.855 116.566Z" fill="#E56A69"/>
        <path d="M314.322 113.59C314.22 113.62 314.118 113.652 314.019 113.687C313.858 113.742 313.704 113.806 313.543 113.856C313.459 114.062 313.362 114.263 313.583 114.407C313.803 114.551 313.92 114.407 314.027 114.278C314.059 114.228 314.086 114.176 314.103 114.121L314.322 113.59Z" fill="white"/>
        <path d="M314.775 112.533L314.463 112.627C314.314 112.674 314.141 112.704 313.987 112.758C313.89 112.989 313.796 113.225 313.707 113.449C313.774 113.424 313.841 113.396 313.91 113.374C314.101 113.312 314.297 113.262 314.485 113.198C314.515 113.131 314.542 113.064 314.572 112.999C314.639 112.843 314.708 112.687 314.775 112.533Z" fill="white"/>
        <path d="M315.154 111.773C315.088 111.726 315.011 111.691 314.931 111.674C314.78 111.649 314.626 111.659 314.48 111.704C314.369 111.907 314.26 112.136 314.153 112.374C314.198 112.364 314.242 112.352 314.287 112.337L314.936 112.146C314.976 112.044 315.023 111.944 315.083 111.853L315.154 111.773Z" fill="white"/>
        <path d="M315.692 111.413C315.626 111.302 315.536 111.207 315.43 111.135C315.172 111.056 314.889 111.14 314.716 111.346C314.812 111.341 314.909 111.351 315.003 111.376C315.212 111.431 315.397 111.547 315.539 111.709C315.64 111.743 315.732 111.798 315.811 111.87C315.819 111.709 315.777 111.55 315.692 111.413Z" fill="white"/>
        <path d="M316.557 112.136C316.473 111.753 316.22 111.428 315.868 111.257C315.903 111.304 315.933 111.356 315.958 111.411C316.059 111.642 316.129 111.942 315.982 112.131C315.982 112.203 315.933 112.28 315.963 112.354C316.029 112.518 316.21 112.605 316.379 112.55C316.53 112.473 316.605 112.3 316.557 112.136Z" fill="white"/>
        <path d="M317.579 114.354C317.708 114.186 317.802 113.99 317.854 113.784C318.174 112.776 317.928 111.676 317.209 110.902C317.073 110.735 316.904 110.599 316.714 110.502C316.701 110.52 316.895 110.666 317.14 110.961C317.792 111.736 318.027 112.778 317.775 113.759C317.673 114.131 317.559 114.345 317.579 114.354Z" fill="white"/>
        <path d="M316.419 115.576C316.419 115.611 316.612 115.598 316.778 115.447C316.944 115.295 316.974 115.112 316.942 115.104C316.91 115.097 316.83 115.228 316.694 115.352C316.558 115.476 316.411 115.539 316.419 115.576Z" fill="white"/>
        <path d="M323.255 90.8288C323.319 90.1685 323.339 89.5058 323.319 88.8431C323.339 88.1803 323.319 87.5176 323.255 86.8573C323.191 87.5176 323.168 88.1803 323.191 88.8431C323.168 89.5058 323.191 90.1685 323.255 90.8288Z" fill="#343C41"/>
        <path d="M320.528 96.0616C319.166 94.6978 319.166 92.4865 320.528 91.1227C321.89 89.7588 324.099 89.7588 325.461 91.1227C326.823 92.4865 326.823 94.6978 325.461 96.0616C324.099 97.4255 321.89 97.4255 320.528 96.0616Z" fill="#F09493"/>
        <path d="M320.221 91.3077C320.221 91.3077 320.278 91.3822 320.402 91.4988C320.474 91.5708 320.551 91.6378 320.633 91.6999C320.727 91.7743 320.831 91.8637 320.957 91.9481C321.247 92.1516 321.555 92.3303 321.874 92.4818C322.269 92.663 322.678 92.8094 323.099 92.9186C323.523 93.0179 323.954 93.08 324.388 93.1023C324.742 93.1172 325.097 93.1023 325.449 93.0576C325.6 93.0427 325.731 93.0105 325.85 92.9906C325.952 92.9732 326.051 92.9484 326.148 92.9186C326.235 92.9012 326.316 92.8739 326.396 92.8342C326.396 92.8094 326.029 92.9087 325.436 92.9658C325.089 92.998 324.74 93.003 324.39 92.9832C323.533 92.9335 322.692 92.7275 321.912 92.3725C321.594 92.2311 321.289 92.0648 320.997 91.8761C320.501 91.546 320.236 91.2903 320.221 91.3077Z" fill="white"/>
        <path d="M319.723 93.7924C319.762 93.8718 319.809 93.9438 319.867 94.0108C319.924 94.0927 319.988 94.1721 320.057 94.2466C320.139 94.3335 320.226 94.4402 320.337 94.5395C320.593 94.7827 320.868 95.0012 321.165 95.1898C321.899 95.6515 322.727 95.9419 323.587 96.0362C323.937 96.071 324.289 96.071 324.638 96.0362C324.772 96.0263 324.908 96.0089 325.04 95.9816C325.141 95.9692 325.241 95.9469 325.337 95.9171C325.421 95.8997 325.506 95.8749 325.585 95.8377C325.585 95.8128 325.221 95.9121 324.633 95.9444C324.289 95.9642 323.942 95.9518 323.6 95.9096C322.759 95.8054 321.951 95.5224 321.23 95.0806C320.935 94.8994 320.657 94.6934 320.399 94.465C319.961 94.0778 319.743 93.7775 319.723 93.7924Z" fill="white"/>
        <path d="M325.672 95.3216C325.821 95.1577 325.932 94.9666 326.002 94.7581C326.197 94.2642 326.267 93.728 326.202 93.1993C326.14 92.6681 325.942 92.1618 325.63 91.7299C325.511 91.5462 325.357 91.3874 325.179 91.2608C325.161 91.2757 325.34 91.4494 325.555 91.782C326.126 92.6557 326.255 93.7479 325.907 94.7308C325.786 95.1006 325.655 95.3116 325.672 95.3216Z" fill="white"/>
        <path d="M324.17 90.6525C324.157 90.6848 324.279 90.7667 324.44 90.8362C324.601 90.9057 324.747 90.9355 324.762 90.9032C324.777 90.871 324.656 90.7866 324.492 90.7171C324.328 90.6476 324.185 90.6178 324.17 90.6525Z" fill="white"/>
        <path d="M331.891 125.219C331.958 124.559 331.98 123.896 331.958 123.233C331.98 122.571 331.958 121.908 331.891 121.248C331.827 121.908 331.807 122.571 331.827 123.233C331.807 123.896 331.827 124.559 331.891 125.219Z" fill="#343C41"/>
        <path d="M331.631 131.461C329.705 131.461 328.143 129.898 328.143 127.969C328.143 126.04 329.705 124.477 331.631 124.477C333.557 124.477 335.119 126.04 335.119 127.969C335.119 129.898 333.557 131.461 331.631 131.461Z" fill="#FFB900"/>
        <path d="M334.31 129.707C334.452 129.54 334.561 129.349 334.63 129.141C335.039 128.136 334.903 126.991 334.268 126.11C334.149 125.924 333.996 125.763 333.815 125.639C333.8 125.653 333.978 125.827 334.194 126.162C334.472 126.594 334.65 127.083 334.714 127.594C334.771 128.106 334.714 128.622 334.546 129.109C334.424 129.483 334.291 129.687 334.31 129.707Z" fill="white"/>
        <path d="M332.808 125.035C332.808 125.067 332.915 125.152 333.079 125.221C333.242 125.291 333.386 125.321 333.401 125.286C333.416 125.251 333.294 125.172 333.131 125.102C332.967 125.033 332.823 125.003 332.808 125.035Z" fill="white"/>
        <path d="M302.986 117.147C303.048 117.147 303.095 115.946 303.095 114.464C303.095 112.982 303.048 111.783 302.986 111.783C302.924 111.783 302.877 112.982 302.877 114.464C302.877 115.946 302.927 117.147 302.986 117.147Z" fill="#6ECF8B"/>
        <path d="M300.782 114.546C300.782 114.605 301.804 114.618 303.058 114.576C304.312 114.533 305.328 114.449 305.326 114.389C305.324 114.33 304.305 114.315 303.05 114.357C301.796 114.399 300.78 114.481 300.782 114.546Z" fill="#6ECF8B"/>
        <path d="M301.291 113.071C301.251 113.118 302.049 113.841 303.07 114.687C304.092 115.534 304.949 116.176 304.987 116.132C305.024 116.087 304.228 115.362 303.209 114.518C302.19 113.674 301.328 113.027 301.291 113.071Z" fill="#6ECF8B"/>
        <path d="M301.385 116.512C301.6 116.355 301.791 116.167 301.952 115.956C302.277 115.593 302.708 115.072 303.152 114.466C303.596 113.861 303.97 113.305 304.223 112.885C304.379 112.669 304.501 112.433 304.59 112.183C304.397 112.366 304.23 112.572 304.094 112.801C303.809 113.195 303.417 113.742 302.976 114.337C302.535 114.933 302.126 115.464 301.833 115.854C301.657 116.052 301.506 116.273 301.385 116.512Z" fill="#6ECF8B"/>
        <path d="M330.491 103.316C330.543 103.316 330.587 102.244 330.587 100.921C330.587 99.5982 330.543 98.5284 330.491 98.5284C330.439 98.5284 330.392 99.6007 330.392 100.921C330.392 102.242 330.436 103.316 330.491 103.316Z" fill="#6ECF8B"/>
        <path d="M328.523 100.991C328.523 101.045 329.435 101.058 330.553 101.021C331.671 100.983 332.58 100.906 332.578 100.854C332.575 100.802 331.666 100.787 330.548 100.825C329.43 100.862 328.52 100.939 328.523 100.991Z" fill="#6ECF8B"/>
        <path d="M328.976 99.68C328.941 99.7222 329.653 100.365 330.562 101.12C331.472 101.874 332.241 102.45 332.275 102.41C332.31 102.371 331.599 101.723 330.686 100.968C329.774 100.214 329.011 99.6378 328.976 99.68Z" fill="#6ECF8B"/>
        <path d="M329.06 102.748C329.249 102.607 329.415 102.44 329.556 102.252C329.846 101.929 330.23 101.462 330.627 100.929C331.024 100.395 331.356 99.891 331.581 99.5187C331.72 99.3276 331.832 99.1141 331.909 98.8907C331.738 99.0546 331.591 99.2407 331.467 99.4418C331.219 99.7942 330.865 100.281 330.476 100.812C330.087 101.343 329.717 101.82 329.455 102.165C329.298 102.341 329.167 102.537 329.06 102.748Z" fill="#6ECF8B"/>
        <path d="M320.843 130.771C320.905 130.771 320.952 129.57 320.952 128.088C320.952 126.606 320.905 125.407 320.843 125.407C320.781 125.407 320.734 126.606 320.734 128.088C320.734 129.57 320.784 130.771 320.843 130.771Z" fill="#F9F9F9"/>
        <path d="M318.64 128.165C318.64 128.227 319.661 128.24 320.915 128.198C322.169 128.155 323.186 128.071 323.183 128.012C323.181 127.952 322.162 127.937 320.908 127.979C319.654 128.021 318.637 128.106 318.64 128.165Z" fill="#F9F9F9"/>
        <path d="M319.148 126.708C319.108 126.755 319.906 127.478 320.928 128.322C321.949 129.166 322.806 129.811 322.844 129.769C322.881 129.727 322.088 128.999 321.066 128.155C320.045 127.311 319.185 126.651 319.148 126.708Z" fill="#F9F9F9"/>
        <path d="M319.242 130.136C319.458 129.98 319.648 129.791 319.81 129.58C320.134 129.215 320.566 128.697 321.009 128.091C321.453 127.485 321.827 126.929 322.08 126.51C322.236 126.294 322.358 126.058 322.447 125.807C322.254 125.991 322.088 126.197 321.951 126.425C321.666 126.82 321.275 127.366 320.833 127.962C320.392 128.558 319.983 129.089 319.691 129.478C319.515 129.677 319.363 129.898 319.242 130.136Z" fill="#F9F9F9"/>
        <path d="M316.352 89.0193C316.411 89.0193 316.461 87.818 316.461 86.3386C316.461 84.8592 316.411 83.6554 316.352 83.6554C316.292 83.6554 316.243 84.8568 316.243 86.3386C316.243 87.8204 316.287 89.0193 316.352 89.0193Z" fill="#F9F9F9"/>
        <path d="M314.146 86.4154C314.146 86.475 315.167 86.4899 316.424 86.4452C317.68 86.4005 318.694 86.3211 318.692 86.2591C318.689 86.197 317.67 86.1846 316.416 86.2293C315.162 86.274 314.146 86.3534 314.146 86.4154Z" fill="#F9F9F9"/>
        <path d="M314.654 84.9461C314.616 84.9908 315.412 85.7131 316.433 86.5595C317.455 87.4059 318.315 88.0488 318.352 88.0041C318.389 87.9594 317.594 87.2347 316.572 86.3907C315.551 85.5468 314.693 84.899 314.654 84.9461Z" fill="#F9F9F9"/>
        <path d="M314.75 88.3839C314.966 88.2275 315.157 88.0414 315.316 87.8279C315.643 87.4655 316.072 86.9443 316.518 86.3386C316.964 85.733 317.333 85.177 317.589 84.76C317.745 84.544 317.866 84.3057 317.953 84.055C317.762 84.2387 317.596 84.4472 317.457 84.6731C317.172 85.0678 316.781 85.6138 316.339 86.2095C315.898 86.8053 315.489 87.3389 315.194 87.7261C315.018 87.9247 314.869 88.1456 314.75 88.3839Z" fill="#F9F9F9"/>
        <path d="M326.296 80.8729C326.344 80.8729 326.378 79.962 326.378 78.8351C326.378 77.7082 326.344 76.7973 326.296 76.7973C326.249 76.7973 326.215 77.7082 326.215 78.8351C326.215 79.962 326.252 80.8729 326.296 80.8729Z" fill="#6ECF8B"/>
        <path d="M324.621 78.8947C324.621 78.9394 325.397 78.9493 326.356 78.917C327.315 78.8848 328.091 78.8227 328.079 78.7755C328.066 78.7284 327.303 78.7209 326.344 78.7532C325.384 78.7855 324.618 78.8475 324.621 78.8947Z" fill="#6ECF8B"/>
        <path d="M325.008 77.7776C324.978 77.8123 325.583 78.3609 326.359 79.0037C327.134 79.6466 327.789 80.1381 327.816 80.1009C327.843 80.0636 327.241 79.5176 326.465 78.8747C325.689 78.2318 325.037 77.7403 325.008 77.7776Z" fill="#6ECF8B"/>
        <path d="M325.079 80.3914C325.243 80.2722 325.387 80.1282 325.511 79.9694C325.759 79.6914 326.083 79.2967 326.423 78.84C326.763 78.3833 327.043 77.9564 327.236 77.6387C327.355 77.4748 327.449 77.2961 327.514 77.105C327.37 77.244 327.243 77.4028 327.139 77.5741C326.921 77.8745 326.624 78.289 326.289 78.7407C325.954 79.1925 325.642 79.5995 325.419 79.8949C325.285 80.0439 325.169 80.2102 325.079 80.3914Z" fill="#6ECF8B"/>
        <path d="M308.37 81.6102C308.37 81.64 308.378 81.6698 308.385 81.6996L308.444 81.9478C308.499 82.1737 308.566 82.5088 308.692 82.9407C309.01 84.147 309.391 85.3334 309.842 86.4976C312.862 94.2468 318.588 100.638 325.955 104.483C327.058 105.062 328.193 105.575 329.355 106.025C329.764 106.188 330.099 106.29 330.31 106.372L330.558 106.457L330.644 106.481C330.62 106.466 330.592 106.454 330.563 106.444L330.315 106.347C330.102 106.258 329.777 106.149 329.37 105.977C328.218 105.513 327.092 104.987 325.994 104.404C322.365 102.478 319.103 99.9285 316.357 96.8729C313.62 93.8075 311.444 90.2853 309.927 86.4653C309.466 85.3086 309.064 84.1321 308.727 82.9332C308.601 82.5112 308.526 82.1886 308.464 81.9528L308.395 81.7046C308.39 81.6723 308.382 81.64 308.37 81.6102Z" fill="#343C41"/>
        <path d="M308.556 81.4836C308.623 81.4761 308.69 81.4637 308.757 81.4439L309.324 81.3049C309.572 81.2478 309.87 81.1684 310.217 81.0567C310.564 80.945 310.96 80.8506 311.392 80.7092C311.823 80.5677 312.296 80.4212 312.797 80.2376C313.298 80.0539 313.833 79.8528 314.391 79.6319C315.598 79.1404 316.776 78.5795 317.918 77.954C319.056 77.321 320.149 76.6111 321.188 75.8243C321.646 75.4371 322.105 75.0921 322.487 74.7173L323.052 74.1886L323.548 73.6698C323.867 73.3471 324.123 73.022 324.351 72.744L324.663 72.3493L324.911 72.0018L325.243 71.5203C325.285 71.4657 325.32 71.4086 325.35 71.3465C325.303 71.3962 325.26 71.4483 325.221 71.5054L324.871 71.972L324.623 72.3121L324.301 72.6943C324.068 72.9698 323.805 73.2876 323.486 73.6053L322.99 74.1166L322.422 74.6354C322.04 75.0052 321.582 75.3453 321.121 75.7275C320.085 76.5069 318.996 77.2168 317.864 77.8497C316.726 78.4728 315.553 79.0362 314.354 79.5326C313.798 79.7535 313.273 79.972 312.77 80.1457C312.267 80.3195 311.801 80.4907 311.369 80.6421C310.938 80.7936 310.549 80.8904 310.204 81.007C309.86 81.1237 309.562 81.2006 309.317 81.2552L308.757 81.4166C308.687 81.4315 308.62 81.4538 308.556 81.4836Z" fill="#343C41"/>
        <path d="M295.637 126.413C295.671 126.415 295.708 126.415 295.743 126.413H296.055L297.265 126.435L298.138 126.448C298.457 126.448 298.804 126.42 299.176 126.405C299.92 126.363 300.77 126.356 301.702 126.237L303.167 126.08C303.678 126.023 304.201 125.919 304.746 125.832L305.576 125.695C305.718 125.671 305.859 125.651 306 125.623L306.429 125.527L308.199 125.134C310.812 124.479 313.37 123.615 315.846 122.558C318.307 121.463 320.68 120.175 322.94 118.706L324.428 117.676L324.787 117.427C324.906 117.343 325.018 117.251 325.129 117.164L325.796 116.648C326.227 116.305 326.661 115.993 327.05 115.655L328.161 114.685C328.884 114.084 329.469 113.466 330.007 112.947C330.27 112.684 330.523 112.451 330.751 112.215L331.336 111.565L332.151 110.693L332.36 110.445C332.384 110.418 332.407 110.391 332.427 110.361C332.399 110.383 332.372 110.408 332.35 110.435L332.132 110.664L331.309 111.547L330.714 112.185C330.493 112.413 330.238 112.649 329.97 112.91C329.43 113.421 328.84 114.034 328.116 114.63L327.001 115.591C326.611 115.921 326.178 116.231 325.746 116.571L325.079 117.085C324.965 117.169 324.854 117.261 324.737 117.346L324.376 117.594L322.888 118.616C318.384 121.573 313.412 123.74 308.184 125.028L306.419 125.427L305.993 125.522C305.852 125.551 305.708 125.571 305.569 125.596L304.741 125.735C304.196 125.822 303.675 125.929 303.167 125.983L301.705 126.145C300.778 126.271 299.927 126.284 299.186 126.333C298.814 126.351 298.467 126.378 298.15 126.385H295.756C295.716 126.39 295.676 126.4 295.637 126.413Z" fill="#343C41"/>
        <path d="M326.133 105.436C326.225 105.317 326.346 105.225 326.482 105.163C326.648 105.113 326.824 105.21 326.874 105.377C326.884 105.406 326.886 105.439 326.886 105.468C326.904 106.566 326.52 107.63 325.808 108.464C325.724 108.566 325.62 108.651 325.501 108.713C325.382 108.777 325.238 108.777 325.119 108.713C324.963 108.566 324.898 108.348 324.948 108.139C325.05 107.136 325.464 106.191 326.133 105.436Z" fill="#FFC800"/>
        <path d="M326.483 104.716L327.211 105.072L326.944 105.619L326.216 105.262L326.483 104.716Z" fill="#343C41"/>
        <path d="M325.62 108.291C325.731 108.229 325.831 108.144 325.91 108.043C326.113 107.809 326.272 107.541 326.381 107.251C326.49 106.963 326.574 106.665 326.629 106.362C326.658 106.24 326.676 106.114 326.678 105.987C326.631 106.104 326.597 106.228 326.577 106.352C326.51 106.648 326.423 106.938 326.316 107.221C326.21 107.504 326.064 107.767 325.88 108.005C325.724 108.189 325.612 108.281 325.62 108.291Z" fill="white"/>
        <path d="M314.009 95.2941C314.143 95.2271 314.289 95.1923 314.438 95.1948C314.612 95.2147 314.733 95.371 314.713 95.5448C314.708 95.5771 314.701 95.6118 314.686 95.6416C314.242 96.6419 313.449 97.4461 312.455 97.9028C312.334 97.9599 312.205 97.9947 312.071 98.0046C311.935 98.012 311.806 97.9475 311.726 97.8383C311.645 97.6422 311.679 97.4163 311.813 97.25C312.321 96.3838 313.09 95.6987 314.009 95.2941Z" fill="#FFC800"/>
        <path d="M314.624 94.7991L315.134 95.43L314.662 95.8126L314.152 95.1818L314.624 94.7991Z" fill="#343C41"/>
        <path d="M312.341 97.6671C312.47 97.6596 312.594 97.6249 312.708 97.5653C312.99 97.4387 313.246 97.2625 313.466 97.0465C313.685 96.8306 313.883 96.5973 314.056 96.3441C314.138 96.2448 314.205 96.1381 314.26 96.0214C314.168 96.1108 314.086 96.2076 314.012 96.3093C313.826 96.5476 313.625 96.776 313.409 96.9894C313.196 97.2004 312.951 97.3767 312.683 97.5157C312.477 97.6199 312.339 97.6671 312.341 97.6671Z" fill="white"/>
        <path d="M310.147 88.5999C310.261 88.5652 310.383 88.5577 310.499 88.5801C310.631 88.6198 310.702 88.7588 310.663 88.8903C310.655 88.9176 310.643 88.9424 310.626 88.9648C310.137 89.6921 309.401 90.2183 308.553 90.4417C308.449 90.4714 308.343 90.4814 308.236 90.4665C308.13 90.4541 308.035 90.3871 307.988 90.2903C307.951 90.1239 308.008 89.9502 308.137 89.836C308.66 89.2204 309.364 88.7886 310.147 88.5999Z" fill="#FFC800"/>
        <path d="M310.705 88.2856L311.021 88.8536L310.597 89.0905L310.28 88.5225L310.705 88.2856Z" fill="#343C41"/>
        <path d="M308.509 90.2407C308.61 90.2556 308.715 90.2481 308.814 90.2159C309.054 90.1563 309.282 90.0545 309.485 89.913C309.686 89.7716 309.875 89.6127 310.046 89.4365C310.123 89.3695 310.189 89.2925 310.246 89.2081C310.224 89.1833 309.902 89.5233 309.441 89.8485C309.243 89.985 309.027 90.0893 308.799 90.1637C308.623 90.2208 308.506 90.2208 308.509 90.2407Z" fill="white"/>
        <path d="M318.887 78.1649C318.843 78.0532 318.826 77.9316 318.838 77.8124C318.865 77.6784 318.997 77.5915 319.13 77.6188C319.158 77.6238 319.185 77.6362 319.21 77.6511C319.976 78.0755 320.561 78.7681 320.856 79.5946C320.895 79.6939 320.913 79.8006 320.91 79.9074C320.905 80.0166 320.848 80.1159 320.754 80.173C320.59 80.2226 320.414 80.1804 320.29 80.0637C319.636 79.5946 319.145 78.9294 318.887 78.1649Z" fill="#FFEB9D"/>
        <path d="M319.078 77.2796L319.35 77.6825L318.812 78.047L318.54 77.6441L319.078 77.2796Z" fill="#343C41"/>
        <path d="M320.662 79.6566C320.667 79.5549 320.65 79.4506 320.61 79.3563C320.531 79.1205 320.409 78.9021 320.251 78.7109C320.092 78.5223 319.919 78.3485 319.728 78.1922C319.653 78.1202 319.569 78.0606 319.48 78.0134C319.46 78.0358 319.824 78.3287 320.186 78.7581C320.34 78.9443 320.464 79.1503 320.558 79.3712C320.628 79.5474 320.65 79.6591 320.662 79.6566Z" fill="white"/>
        <path d="M323.461 74.3748C323.414 74.3003 323.387 74.2134 323.379 74.1266C323.387 74.0198 323.478 73.9379 323.585 73.9454C323.605 73.9454 323.622 73.9503 323.639 73.9578C324.269 74.1762 324.797 74.618 325.127 75.1989C325.166 75.2708 325.194 75.3478 325.206 75.4297C325.216 75.5116 325.184 75.5935 325.122 75.6481C325.005 75.7077 324.866 75.6978 324.76 75.6233C324.205 75.3552 323.751 74.9184 323.461 74.3748Z" fill="#FFEB9D"/>
        <path d="M323.484 73.681L323.74 73.9508L323.383 74.2912L323.126 74.0213L323.484 73.681Z" fill="#343C41"/>
        <path d="M324.983 75.2759C324.98 75.1965 324.955 75.1195 324.913 75.0525C324.824 74.8837 324.705 74.7348 324.561 74.6107C324.418 74.4866 324.264 74.3773 324.1 74.2855C324.036 74.2408 323.964 74.2086 323.89 74.1887C323.875 74.211 324.185 74.3898 324.509 74.6678C324.7 74.844 324.859 75.05 324.983 75.2759Z" fill="white"/>
        <path d="M313.89 80.2448C313.878 80.1555 313.885 80.0611 313.918 79.9767C313.965 79.8824 314.079 79.8427 314.173 79.8899C314.19 79.8998 314.208 79.9097 314.222 79.9246C314.716 80.3764 315.026 80.9969 315.092 81.6621C315.105 81.744 315.1 81.8309 315.075 81.9103C315.053 81.9898 314.993 82.0543 314.914 82.0791C314.79 82.1089 314.666 82.0096 314.589 81.9128C314.185 81.4462 313.94 80.8604 313.89 80.2448Z" fill="#FFEB9D"/>
        <path d="M314.191 79.6203L314.321 79.9692L313.859 80.1415L313.729 79.7925L314.191 79.6203Z" fill="#343C41"/>
        <path d="M314.936 81.6721C314.966 81.5976 314.973 81.5182 314.961 81.4388C314.946 81.2476 314.894 81.064 314.81 80.8927C314.728 80.7239 314.629 80.5626 314.515 80.4136C314.428 80.2995 314.369 80.2349 314.359 80.2399C314.349 80.2449 314.55 80.5427 314.74 80.925C314.847 81.1608 314.914 81.4139 314.936 81.6721Z" fill="white"/>
        <path d="M319.48 100.772C319.564 100.688 319.668 100.628 319.782 100.593C319.916 100.569 320.045 100.661 320.07 100.795C320.075 100.822 320.075 100.849 320.07 100.876C319.966 101.745 319.549 102.547 318.897 103.13C318.821 103.202 318.729 103.259 318.63 103.297C318.528 103.334 318.414 103.316 318.327 103.252C318.218 103.12 318.191 102.942 318.253 102.783C318.439 101.998 318.868 101.296 319.48 100.772Z" fill="#FFC800"/>
        <path d="M319.83 100.247L320.368 100.607L320.098 101.012L319.56 100.652L319.83 100.247Z" fill="#343C41"/>
        <path d="M318.766 102.974C318.863 102.942 318.952 102.887 319.026 102.815C319.212 102.651 319.368 102.455 319.485 102.237C319.599 102.021 319.693 101.795 319.765 101.562C319.802 101.467 319.827 101.368 319.839 101.266C319.812 101.266 319.678 101.703 319.415 102.2C319.304 102.411 319.16 102.604 318.989 102.773C318.86 102.902 318.766 102.964 318.766 102.974Z" fill="white"/>
        <path d="M328.094 115.727C328.024 115.596 327.987 115.447 327.987 115.298C328.009 115.124 328.166 115.002 328.339 115.025C328.369 115.03 328.401 115.037 328.428 115.05C329.435 115.479 330.253 116.263 330.724 117.254C330.786 117.373 330.82 117.504 330.83 117.638C330.84 117.775 330.781 117.904 330.672 117.986C330.476 118.07 330.25 118.041 330.082 117.909C329.204 117.41 328.51 116.648 328.094 115.727Z" fill="#FFEB9D"/>
        <path d="M328.197 114.595L328.587 115.061L327.966 115.582L327.575 115.116L328.197 114.595Z" fill="#343C41"/>
        <path d="M330.491 117.355C330.481 117.229 330.444 117.105 330.384 116.991C330.253 116.713 330.072 116.462 329.851 116.246C329.633 116.032 329.395 115.839 329.14 115.668C329.038 115.591 328.929 115.524 328.815 115.469C328.904 115.561 329.001 115.645 329.108 115.717C329.348 115.891 329.578 116.082 329.797 116.283C330.01 116.497 330.191 116.737 330.335 117.003C330.441 117.219 330.478 117.36 330.491 117.355Z" fill="white"/>
        <path d="M321.233 120.267C321.203 120.165 321.198 120.056 321.218 119.952C321.257 119.833 321.386 119.771 321.503 119.81C321.523 119.818 321.542 119.828 321.562 119.84C322.204 120.282 322.665 120.945 322.859 121.702C322.886 121.794 322.893 121.89 322.881 121.985C322.869 122.081 322.807 122.163 322.72 122.206C322.583 122.263 322.432 122.168 322.318 122.072C321.775 121.6 321.396 120.967 321.233 120.267Z" fill="#FFEB9D"/>
        <path d="M321.474 119.497L321.682 119.878L321.175 120.155L320.967 119.774L321.474 119.497Z" fill="#343C41"/>
        <path d="M322.682 121.744C322.697 121.652 322.69 121.56 322.665 121.471C322.613 121.255 322.524 121.051 322.4 120.868C322.273 120.689 322.135 120.523 321.979 120.371C321.86 120.255 321.783 120.188 321.773 120.195C321.763 120.203 322.05 120.505 322.333 120.917C322.454 121.094 322.549 121.287 322.611 121.493C322.66 121.64 322.67 121.744 322.682 121.744Z" fill="white"/>
        <path d="M312.277 124.658C312.254 124.512 312.272 124.365 312.321 124.226C312.403 124.072 312.591 124.013 312.745 124.095C312.77 124.107 312.795 124.124 312.817 124.144C313.618 124.894 314.116 125.911 314.22 127.004C314.237 127.135 314.225 127.269 314.19 127.398C314.151 127.53 314.049 127.632 313.92 127.674C313.717 127.721 313.528 127.557 313.392 127.398C312.74 126.626 312.348 125.666 312.277 124.658Z" fill="#FFEB9D"/>
        <path d="M312.777 123.64L312.984 124.212L312.222 124.488L312.015 123.917L312.777 123.64Z" fill="#343C41"/>
        <path d="M313.972 127.013C314.004 126.889 314.012 126.758 313.994 126.631C313.967 126.323 313.883 126.023 313.746 125.745C313.615 125.467 313.456 125.204 313.276 124.956C313.209 124.849 313.129 124.75 313.04 124.658C313.092 124.775 313.157 124.884 313.231 124.986C313.397 125.239 313.546 125.504 313.677 125.777C313.804 126.05 313.888 126.341 313.925 126.639C313.97 126.867 313.96 127.011 313.972 127.013Z" fill="white"/>
        <path d="M302.287 126.741C302.304 126.639 302.347 126.542 302.406 126.46C302.493 126.371 302.637 126.371 302.726 126.46C302.743 126.475 302.756 126.495 302.766 126.515C303.152 127.2 303.274 128.002 303.11 128.771C303.093 128.865 303.056 128.955 303.003 129.037C302.946 129.119 302.855 129.166 302.756 129.166C302.604 129.166 302.508 129.002 302.453 128.863C302.176 128.193 302.116 127.451 302.287 126.743V126.741Z" fill="#FFEB9D"/>
        <path d="M302.84 126.14L302.858 126.576L302.279 126.601L302.26 126.164L302.84 126.14Z" fill="#343C41"/>
        <path d="M302.939 128.716C302.994 128.642 303.031 128.557 303.046 128.468C303.095 128.252 303.105 128.029 303.073 127.808C303.043 127.589 302.991 127.373 302.919 127.165C302.897 127.078 302.86 126.994 302.813 126.917C302.785 126.917 302.924 127.319 302.996 127.82C303.028 128.034 303.028 128.247 302.996 128.461C302.966 128.612 302.929 128.711 302.939 128.716Z" fill="white"/>
        <path d="M105.866 127.001C108.623 127.001 110.858 124.761 110.858 121.998C110.858 119.235 108.623 116.995 105.866 116.995C103.109 116.995 100.874 119.235 100.874 121.998C100.874 124.761 103.109 127.001 105.866 127.001Z" fill="#FFD200"/>
        <path d="M107.161 116.041H104.61V117.619H107.161V116.041Z" fill="#FFD200"/>
        <path d="M102.032 124.48C101.819 124.25 101.655 123.973 101.554 123.673C101.267 122.964 101.158 122.193 101.247 121.429C101.344 120.669 101.624 119.945 102.071 119.321C102.239 119.052 102.464 118.822 102.728 118.651C102.752 118.674 102.495 118.924 102.192 119.403C101.795 120.023 101.539 120.724 101.449 121.452C101.368 122.185 101.449 122.925 101.686 123.623C101.873 124.16 102.06 124.464 102.032 124.48Z" fill="white"/>
        <path d="M104.182 117.786C104.206 117.836 104.035 117.957 103.794 118.058C103.553 118.16 103.354 118.195 103.331 118.144C103.308 118.093 103.483 117.969 103.72 117.871C103.957 117.774 104.163 117.739 104.182 117.786Z" fill="white"/>
        <path d="M98.1641 127.001C101.185 127.001 103.634 124.546 103.634 121.519C103.634 118.491 101.185 116.037 98.1641 116.037C95.1429 116.037 92.6938 118.491 92.6938 121.519C92.6938 124.546 95.1429 127.001 98.1641 127.001Z" fill="#F09493"/>
        <path d="M93.9613 124.242C93.7319 123.981 93.5569 123.681 93.4442 123.354C92.8027 121.776 93.0165 119.98 94.0118 118.597C94.1984 118.304 94.4395 118.051 94.7233 117.856C94.7466 117.88 94.4667 118.153 94.1284 118.675C93.2342 120.046 93.0321 121.76 93.5764 123.303C93.7902 123.892 93.9924 124.223 93.9613 124.242Z" fill="white"/>
        <path d="M96.3173 116.91C96.3406 116.96 96.1501 117.089 95.8935 117.198C95.6369 117.307 95.4114 117.354 95.3881 117.303C95.3648 117.253 95.5553 117.12 95.8119 117.011C96.0685 116.902 96.294 116.859 96.3173 116.91Z" fill="white"/>
        <path d="M99.5753 115H96.7839V116.726H99.5753V115Z" fill="#F09493"/>
        <path d="M89.9606 129.744C92.9818 129.744 95.4309 127.289 95.4309 124.262C95.4309 121.234 92.9818 118.78 89.9606 118.78C86.9395 118.78 84.4904 121.234 84.4904 124.262C84.4904 127.289 86.9395 129.744 89.9606 129.744Z" fill="#FFD200"/>
        <path d="M85.7618 126.981C85.5324 126.724 85.3574 126.42 85.2486 126.093C84.9298 125.317 84.817 124.476 84.9142 123.642C85.0153 122.808 85.3263 122.017 85.8123 121.336C85.9989 121.043 86.24 120.794 86.5238 120.595C86.551 120.619 86.2672 120.891 85.9328 121.413C85.4974 122.095 85.2175 122.863 85.1164 123.665C85.0231 124.468 85.1164 125.279 85.3807 126.042C85.5829 126.631 85.7929 126.962 85.7618 126.981Z" fill="white"/>
        <path d="M88.1178 119.648C88.1411 119.699 87.9506 119.832 87.694 119.941C87.4374 120.05 87.2119 120.097 87.1925 120.042C87.173 119.987 87.3597 119.863 87.6163 119.754C87.8729 119.645 88.0983 119.598 88.1178 119.648Z" fill="white"/>
        <path d="M91.3758 117.739H88.5843V119.465H91.3758V117.739Z" fill="#FFD200"/>
        <path d="M112.156 120.896H80.968V138.343H112.156V120.896Z" fill="#6ECF8B"/>
        <path d="M112.157 120.896H99.5754V138.343H112.157V120.896Z" fill="#00A94F"/>
        <path d="M81.3996 120.896L75.0001 125.742H94.6805L99.5754 120.896H80.968" fill="#9BE9B2"/>
        <path d="M100.139 120.896L105.866 125.516H118.194L112.156 120.896H100.139Z" fill="#6ECF8B"/>
    </g>
    <defs>
        <linearGradient id="paint0_linear_230_4858" x1="0.000145805" y1="51.0269" x2="351.999" y2="49.9857" gradientUnits="userSpaceOnUse">
            <stop stop-color="#B1E2F1"/>
            <stop offset="0.359079" stop-color="#F2FCFF"/>
            <stop offset="0.650442" stop-color="#F2FCFF"/>
            <stop offset="0.989583" stop-color="#B1E2F1"/>
        </linearGradient>
    </defs>
</svg>