<svg width="174" height="126" viewBox="0 0 174 126" fill="none" xmlns="http://www.w3.org/2000/svg">
<g id="Group 2610629">
<g id="job-hunt/rafiki">
<g id="Briefcases">
<path id="Vector" d="M120.631 109.724H87.626C87.1605 109.724 86.7832 110.102 86.7832 110.567V124.333C86.7832 124.799 87.1605 125.176 87.626 125.176H120.631C121.097 125.176 121.474 124.799 121.474 124.333V110.567C121.474 110.102 121.097 109.724 120.631 109.724Z" fill="#0093C9"/>
<path id="Vector_2" opacity="0.6" d="M120.631 109.724H87.626C87.1605 109.724 86.7832 110.102 86.7832 110.567V124.333C86.7832 124.799 87.1605 125.176 87.626 125.176H120.631C121.097 125.176 121.474 124.799 121.474 124.333V110.567C121.474 110.102 121.097 109.724 120.631 109.724Z" fill="white"/>
<path id="Vector_3" opacity="0.1" d="M120.625 109.724H87.6094C87.3859 109.724 87.1715 109.813 87.0135 109.971C86.8554 110.129 86.7666 110.344 86.7666 110.567V114.981L103.947 118.363C104.052 118.385 104.161 118.385 104.266 118.363L121.452 114.981V110.567C121.452 110.346 121.365 110.134 121.211 109.977C121.056 109.819 120.846 109.728 120.625 109.724Z" fill="black"/>
<path id="Vector_4" d="M121.35 104.073H111.268V102.382C111.267 101.683 110.989 101.013 110.495 100.519C110.001 100.025 109.331 99.7466 108.632 99.7452H99.6256C98.9268 99.7466 98.257 100.025 97.7629 100.519C97.2688 101.013 96.9905 101.683 96.9891 102.382V104.073H86.9131C86.6924 104.073 86.4808 104.16 86.3247 104.316C86.1687 104.472 86.0811 104.684 86.0811 104.905V113.23C86.0821 113.423 86.1493 113.609 86.2713 113.757C86.3933 113.906 86.5627 114.008 86.751 114.046L103.969 117.434C104.075 117.45 104.183 117.45 104.288 117.434L121.507 114.046C121.695 114.008 121.866 113.906 121.988 113.758C122.111 113.609 122.18 113.423 122.182 113.23V104.905C122.182 104.684 122.094 104.472 121.938 104.316C121.782 104.16 121.571 104.073 121.35 104.073ZM98.9935 102.382C98.9949 102.214 99.0618 102.053 99.1799 101.934C99.298 101.815 99.4579 101.747 99.6256 101.744H108.632C108.8 101.747 108.96 101.815 109.078 101.934C109.196 102.053 109.263 102.214 109.264 102.382V104.073H98.9989L98.9935 102.382Z" fill="#0093C9"/>
<path id="Vector_5" opacity="0.6" d="M121.35 104.073H111.268V102.382C111.267 101.683 110.989 101.013 110.495 100.519C110.001 100.025 109.331 99.7466 108.632 99.7452H99.6256C98.9268 99.7466 98.257 100.025 97.7629 100.519C97.2688 101.013 96.9905 101.683 96.9891 102.382V104.073H86.9131C86.6924 104.073 86.4808 104.16 86.3247 104.316C86.1687 104.472 86.0811 104.684 86.0811 104.905V113.23C86.0821 113.423 86.1493 113.609 86.2713 113.757C86.3933 113.906 86.5627 114.008 86.751 114.046L103.969 117.434C104.075 117.45 104.183 117.45 104.288 117.434L121.507 114.046C121.695 114.008 121.866 113.906 121.988 113.758C122.111 113.609 122.18 113.423 122.182 113.23V104.905C122.182 104.684 122.094 104.472 121.938 104.316C121.782 104.16 121.571 104.073 121.35 104.073ZM98.9935 102.382C98.9949 102.214 99.0618 102.053 99.1799 101.934C99.298 101.815 99.4579 101.747 99.6256 101.744H108.632C108.8 101.747 108.96 101.815 109.078 101.934C109.196 102.053 109.263 102.214 109.264 102.382V104.073H98.9989L98.9935 102.382Z" fill="white"/>
<path id="Vector_6" d="M105.908 115.159H102.353C101.912 115.159 101.554 115.517 101.554 115.959V118.207C101.554 118.648 101.912 119.006 102.353 119.006H105.908C106.35 119.006 106.708 118.648 106.708 118.207V115.959C106.708 115.517 106.35 115.159 105.908 115.159Z" fill="#0093C9"/>
<path id="Vector_7" opacity="0.3" d="M105.908 115.159H102.353C101.912 115.159 101.554 115.517 101.554 115.959V118.207C101.554 118.648 101.912 119.006 102.353 119.006H105.908C106.35 119.006 106.708 118.648 106.708 118.207V115.959C106.708 115.517 106.35 115.159 105.908 115.159Z" fill="white"/>
<path id="Vector_8" d="M120.631 10.3365H87.626C87.1605 10.3365 86.7832 10.7138 86.7832 11.1793V24.9454C86.7832 25.4108 87.1605 25.7882 87.626 25.7882H120.631C121.097 25.7882 121.474 25.4108 121.474 24.9454V11.1793C121.474 10.7138 121.097 10.3365 120.631 10.3365Z" fill="#0093C9"/>
<path id="Vector_9" opacity="0.6" d="M120.631 10.3365H87.626C87.1605 10.3365 86.7832 10.7138 86.7832 11.1793V24.9454C86.7832 25.4108 87.1605 25.7882 87.626 25.7882H120.631C121.097 25.7882 121.474 25.4108 121.474 24.9454V11.1793C121.474 10.7138 121.097 10.3365 120.631 10.3365Z" fill="white"/>
<path id="Vector_10" opacity="0.1" d="M120.625 10.3365H87.6094C87.3859 10.3365 87.1715 10.4253 87.0135 10.5833C86.8554 10.7414 86.7666 10.9558 86.7666 11.1793V15.5933L103.947 18.9754C104.052 18.9969 104.161 18.9969 104.266 18.9754L121.452 15.5933V11.1793C121.452 10.9585 121.365 10.7466 121.211 10.589C121.056 10.4314 120.846 10.3407 120.625 10.3365Z" fill="black"/>
<path id="Vector_11" d="M121.35 4.68499H111.268V2.99394C111.267 2.29513 110.989 1.62535 110.495 1.13122C110.001 0.637084 109.331 0.358849 108.632 0.357422H99.6256C98.9268 0.358849 98.257 0.637084 97.7629 1.13122C97.2688 1.62535 96.9905 2.29513 96.9891 2.99394V4.68499H86.9131C86.6924 4.68499 86.4808 4.77265 86.3247 4.92868C86.1687 5.08471 86.0811 5.29634 86.0811 5.517V13.8426C86.0811 14.0351 86.1479 14.2216 86.2701 14.3703C86.3922 14.5191 86.5622 14.6209 86.751 14.6584L103.969 18.0243C104.075 18.0458 104.183 18.0458 104.288 18.0243L121.507 14.6368C121.693 14.6013 121.862 14.5034 121.986 14.359C122.11 14.2147 122.181 14.0326 122.187 13.8426V5.517C122.187 5.40728 122.166 5.29865 122.123 5.19735C122.081 5.09605 122.02 5.00409 121.942 4.92676C121.864 4.84943 121.772 4.78825 121.67 4.74676C121.568 4.70527 121.46 4.68427 121.35 4.68499ZM98.9935 2.99394C98.9935 2.82579 99.0599 2.66445 99.1783 2.54505C99.2967 2.42564 99.4575 2.35785 99.6256 2.35642H108.632C108.799 2.35783 108.959 2.42489 109.077 2.54313C109.196 2.66137 109.263 2.82133 109.264 2.98854V4.67959H98.9989L98.9935 2.99394Z" fill="#0093C9"/>
<path id="Vector_12" opacity="0.6" d="M121.35 4.68499H111.268V2.99394C111.267 2.29513 110.989 1.62535 110.495 1.13122C110.001 0.637084 109.331 0.358849 108.632 0.357422H99.6256C98.9268 0.358849 98.257 0.637084 97.7629 1.13122C97.2688 1.62535 96.9905 2.29513 96.9891 2.99394V4.68499H86.9131C86.6924 4.68499 86.4808 4.77265 86.3247 4.92868C86.1687 5.08471 86.0811 5.29634 86.0811 5.517V13.8426C86.0811 14.0351 86.1479 14.2216 86.2701 14.3703C86.3922 14.5191 86.5622 14.6209 86.751 14.6584L103.969 18.0243C104.075 18.0458 104.183 18.0458 104.288 18.0243L121.507 14.6368C121.693 14.6013 121.862 14.5034 121.986 14.359C122.11 14.2147 122.181 14.0326 122.187 13.8426V5.517C122.187 5.40728 122.166 5.29865 122.123 5.19735C122.081 5.09605 122.02 5.00409 121.942 4.92676C121.864 4.84943 121.772 4.78825 121.67 4.74676C121.568 4.70527 121.46 4.68427 121.35 4.68499ZM98.9935 2.99394C98.9935 2.82579 99.0599 2.66445 99.1783 2.54505C99.2967 2.42564 99.4575 2.35785 99.6256 2.35642H108.632C108.799 2.35783 108.959 2.42489 109.077 2.54313C109.196 2.66137 109.263 2.82133 109.264 2.98854V4.67959H98.9989L98.9935 2.99394Z" fill="white"/>
<path id="Vector_13" d="M105.908 15.7764H102.353C101.912 15.7764 101.554 16.1344 101.554 16.576V18.8235C101.554 19.2651 101.912 19.6231 102.353 19.6231H105.908C106.35 19.6231 106.708 19.2651 106.708 18.8235V16.576C106.708 16.1344 106.35 15.7764 105.908 15.7764Z" fill="#0093C9"/>
<path id="Vector_14" opacity="0.3" d="M105.908 15.7764H102.353C101.912 15.7764 101.554 16.1344 101.554 16.576V18.8235C101.554 19.2651 101.912 19.6231 102.353 19.6231H105.908C106.35 19.6231 106.708 19.2651 106.708 18.8235V16.576C106.708 16.1344 106.35 15.7764 105.908 15.7764Z" fill="white"/>
<path id="Vector_15" d="M69.219 109.724H36.2139C35.7484 109.724 35.3711 110.102 35.3711 110.567V124.333C35.3711 124.799 35.7484 125.176 36.2139 125.176H69.219C69.6845 125.176 70.0619 124.799 70.0619 124.333V110.567C70.0619 110.102 69.6845 109.724 69.219 109.724Z" fill="#0093C9"/>
<path id="Vector_16" opacity="0.6" d="M69.219 109.724H36.2139C35.7484 109.724 35.3711 110.102 35.3711 110.567V124.333C35.3711 124.799 35.7484 125.176 36.2139 125.176H69.219C69.6845 125.176 70.0619 124.799 70.0619 124.333V110.567C70.0619 110.102 69.6845 109.724 69.219 109.724Z" fill="white"/>
<path id="Vector_17" opacity="0.1" d="M69.2406 109.724H36.2139C35.9904 109.724 35.776 109.813 35.618 109.971C35.4599 110.129 35.3711 110.344 35.3711 110.567V114.981L52.5517 118.363C52.6587 118.385 52.7689 118.385 52.8759 118.363L70.0619 114.981V110.567C70.0619 110.347 69.9761 110.136 69.8227 109.979C69.6693 109.821 69.4604 109.73 69.2406 109.724Z" fill="black"/>
<path id="Vector_18" d="M69.9319 104.073H59.8505V102.382C59.8491 101.683 59.5708 101.013 59.0767 100.519C58.5826 100.025 57.9128 99.7466 57.214 99.7452H48.2131C47.5143 99.7466 46.8445 100.025 46.3503 100.519C45.8562 101.013 45.578 101.683 45.5765 102.382V104.073H35.4951C35.2744 104.073 35.0628 104.16 34.9068 104.316C34.7507 104.472 34.6631 104.684 34.6631 104.905V113.23C34.6642 113.423 34.7313 113.609 34.8533 113.757C34.9753 113.906 35.1447 114.008 35.333 114.046L52.5514 117.434C52.6589 117.45 52.7682 117.45 52.8756 117.434L70.094 114.046C70.2823 114.008 70.4517 113.906 70.5737 113.757C70.6957 113.609 70.7629 113.423 70.764 113.23V104.905C70.764 104.684 70.6763 104.472 70.5203 104.316C70.3642 104.16 70.1526 104.073 69.9319 104.073ZM47.5755 102.382C47.5783 102.213 47.6464 102.053 47.7653 101.934C47.8843 101.815 48.0449 101.747 48.2131 101.744H57.214C57.3822 101.747 57.5427 101.815 57.6617 101.934C57.7806 102.053 57.8487 102.213 57.8515 102.382V104.073H47.5864L47.5755 102.382Z" fill="#0093C9"/>
<path id="Vector_19" opacity="0.6" d="M69.9319 104.073H59.8505V102.382C59.8491 101.683 59.5708 101.013 59.0767 100.519C58.5826 100.025 57.9128 99.7466 57.214 99.7452H48.2131C47.5143 99.7466 46.8445 100.025 46.3503 100.519C45.8562 101.013 45.578 101.683 45.5765 102.382V104.073H35.4951C35.2744 104.073 35.0628 104.16 34.9068 104.316C34.7507 104.472 34.6631 104.684 34.6631 104.905V113.23C34.6642 113.423 34.7313 113.609 34.8533 113.757C34.9753 113.906 35.1447 114.008 35.333 114.046L52.5514 117.434C52.6589 117.45 52.7682 117.45 52.8756 117.434L70.094 114.046C70.2823 114.008 70.4517 113.906 70.5737 113.757C70.6957 113.609 70.7629 113.423 70.764 113.23V104.905C70.764 104.684 70.6763 104.472 70.5203 104.316C70.3642 104.16 70.1526 104.073 69.9319 104.073ZM47.5755 102.382C47.5783 102.213 47.6464 102.053 47.7653 101.934C47.8843 101.815 48.0449 101.747 48.2131 101.744H57.214C57.3822 101.747 57.5427 101.815 57.6617 101.934C57.7806 102.053 57.8487 102.213 57.8515 102.382V104.073H47.5864L47.5755 102.382Z" fill="white"/>
<path id="Vector_20" d="M54.4913 115.159H50.9363C50.4947 115.159 50.1367 115.517 50.1367 115.959V118.207C50.1367 118.648 50.4947 119.006 50.9363 119.006H54.4913C54.9329 119.006 55.2909 118.648 55.2909 118.207V115.959C55.2909 115.517 54.9329 115.159 54.4913 115.159Z" fill="#0093C9"/>
<path id="Vector_21" opacity="0.3" d="M54.4913 115.159H50.9363C50.4947 115.159 50.1367 115.517 50.1367 115.959V118.207C50.1367 118.648 50.4947 119.006 50.9363 119.006H54.4913C54.9329 119.006 55.2909 118.648 55.2909 118.207V115.959C55.2909 115.517 54.9329 115.159 54.4913 115.159Z" fill="white"/>
<path id="Vector_22" d="M69.219 10.3365H36.2139C35.7484 10.3365 35.3711 10.7138 35.3711 11.1793V24.9454C35.3711 25.4108 35.7484 25.7882 36.2139 25.7882H69.219C69.6845 25.7882 70.0619 25.4108 70.0619 24.9454V11.1793C70.0619 10.7138 69.6845 10.3365 69.219 10.3365Z" fill="#0093C9"/>
<path id="Vector_23" opacity="0.6" d="M69.219 10.3365H36.2139C35.7484 10.3365 35.3711 10.7138 35.3711 11.1793V24.9454C35.3711 25.4108 35.7484 25.7882 36.2139 25.7882H69.219C69.6845 25.7882 70.0619 25.4108 70.0619 24.9454V11.1793C70.0619 10.7138 69.6845 10.3365 69.219 10.3365Z" fill="white"/>
<path id="Vector_24" opacity="0.1" d="M69.2406 10.3365H36.2139C35.9904 10.3365 35.776 10.4253 35.618 10.5833C35.4599 10.7414 35.3711 10.9558 35.3711 11.1793V15.5933L52.5517 18.9754C52.6587 18.9971 52.7689 18.9971 52.8759 18.9754L70.0619 15.5933V11.1793C70.0619 10.9594 69.9761 10.7483 69.8227 10.5908C69.6693 10.4334 69.4604 10.3421 69.2406 10.3365Z" fill="black"/>
<path id="Vector_25" d="M69.9319 4.68499H59.8505V2.99394C59.8491 2.29513 59.5708 1.62535 59.0767 1.13122C58.5826 0.637084 57.9128 0.358849 57.214 0.357422H48.2131C47.5143 0.358849 46.8445 0.637084 46.3503 1.13122C45.8562 1.62535 45.578 2.29513 45.5765 2.99394V4.68499H35.4951C35.2744 4.68499 35.0628 4.77265 34.9068 4.92868C34.7507 5.08471 34.6631 5.29634 34.6631 5.517V13.8426C34.6631 14.0351 34.7299 14.2216 34.8521 14.3703C34.9743 14.5191 35.1442 14.6209 35.333 14.6584L52.5514 18.0243C52.6584 18.0459 52.7686 18.0459 52.8756 18.0243L70.094 14.6368C70.2828 14.5993 70.4528 14.4975 70.5749 14.3487C70.6971 14.2 70.7639 14.0134 70.764 13.821V5.517C70.764 5.29634 70.6763 5.08471 70.5203 4.92868C70.3642 4.77265 70.1526 4.68499 69.9319 4.68499ZM47.5755 2.99394C47.577 2.8253 47.6446 2.66396 47.7638 2.54471C47.8831 2.42545 48.0444 2.35783 48.2131 2.35642H57.214C57.3817 2.35781 57.5422 2.42468 57.6613 2.54278C57.7804 2.66087 57.8487 2.82083 57.8515 2.98854V4.67959H47.5864L47.5755 2.99394Z" fill="#0093C9"/>
<path id="Vector_26" opacity="0.6" d="M69.9319 4.68499H59.8505V2.99394C59.8491 2.29513 59.5708 1.62535 59.0767 1.13122C58.5826 0.637084 57.9128 0.358849 57.214 0.357422H48.2131C47.5143 0.358849 46.8445 0.637084 46.3503 1.13122C45.8562 1.62535 45.578 2.29513 45.5765 2.99394V4.68499H35.4951C35.2744 4.68499 35.0628 4.77265 34.9068 4.92868C34.7507 5.08471 34.6631 5.29634 34.6631 5.517V13.8426C34.6631 14.0351 34.7299 14.2216 34.8521 14.3703C34.9743 14.5191 35.1442 14.6209 35.333 14.6584L52.5514 18.0243C52.6584 18.0459 52.7686 18.0459 52.8756 18.0243L70.094 14.6368C70.2828 14.5993 70.4528 14.4975 70.5749 14.3487C70.6971 14.2 70.7639 14.0134 70.764 13.821V5.517C70.764 5.29634 70.6763 5.08471 70.5203 4.92868C70.3642 4.77265 70.1526 4.68499 69.9319 4.68499ZM47.5755 2.99394C47.577 2.8253 47.6446 2.66396 47.7638 2.54471C47.8831 2.42545 48.0444 2.35783 48.2131 2.35642H57.214C57.3817 2.35781 57.5422 2.42468 57.6613 2.54278C57.7804 2.66087 57.8487 2.82083 57.8515 2.98854V4.67959H47.5864L47.5755 2.99394Z" fill="white"/>
<path id="Vector_27" d="M54.4913 15.7764H50.9363C50.4947 15.7764 50.1367 16.1344 50.1367 16.576V18.8235C50.1367 19.2651 50.4947 19.6231 50.9363 19.6231H54.4913C54.9329 19.6231 55.2909 19.2651 55.2909 18.8235V16.576C55.2909 16.1344 54.9329 15.7764 54.4913 15.7764Z" fill="#0093C9"/>
<path id="Vector_28" opacity="0.3" d="M54.4913 15.7764H50.9363C50.4947 15.7764 50.1367 16.1344 50.1367 16.576V18.8235C50.1367 19.2651 50.4947 19.6231 50.9363 19.6231H54.4913C54.9329 19.6231 55.2909 19.2651 55.2909 18.8235V16.576C55.2909 16.1344 54.9329 15.7764 54.4913 15.7764Z" fill="white"/>
<path id="Vector_29" d="M64.918 75.4821H36.2135C35.9885 75.4821 35.7727 75.3927 35.6137 75.2337C35.4546 75.0746 35.3652 74.8588 35.3652 74.6339V60.8732C35.3661 60.7597 35.39 60.6476 35.4355 60.5436C35.4574 60.4951 35.4827 60.4482 35.5111 60.4032C35.5412 60.3569 35.5775 60.3151 35.6192 60.2789C35.7765 60.1206 35.9903 60.0312 36.2135 60.0304H63.3837C63.1576 61.9159 63.0835 63.8166 63.1621 65.714C63.1621 66.022 63.1621 66.3299 63.2108 66.6325C63.2486 67.1998 63.2918 67.7724 63.3566 68.3397C63.6347 70.7671 64.1578 73.1601 64.918 75.4821Z" fill="#0093C9"/>
<path id="Vector_30" opacity="0.6" d="M64.918 75.4821H36.2135C35.9885 75.4821 35.7727 75.3927 35.6137 75.2337C35.4546 75.0746 35.3652 74.8588 35.3652 74.6339V60.8732C35.3661 60.7597 35.39 60.6476 35.4355 60.5436C35.4574 60.4951 35.4827 60.4482 35.5111 60.4032C35.5412 60.3569 35.5775 60.3151 35.6192 60.2789C35.7765 60.1206 35.9903 60.0312 36.2135 60.0304H63.3837C63.1576 61.9159 63.0835 63.8166 63.1621 65.714C63.1621 66.022 63.1621 66.3299 63.2108 66.6325C63.2486 67.1998 63.2918 67.7724 63.3566 68.3397C63.6347 70.7671 64.1578 73.1601 64.918 75.4821Z" fill="white"/>
<path id="Vector_31" opacity="0.1" d="M63.3841 60.0304C63.1581 61.9159 63.084 63.8166 63.1626 65.714C63.1626 66.022 63.1626 66.3299 63.2112 66.6325L55.2909 68.1884L52.8704 68.6639C52.7659 68.6909 52.6562 68.6909 52.5517 68.6639L50.1367 68.1938L35.3711 65.2872V60.8678C35.3728 60.7567 35.3948 60.6468 35.4359 60.5436C35.4579 60.4951 35.4832 60.4482 35.5116 60.4032C35.5416 60.3569 35.578 60.3151 35.6196 60.2789C35.777 60.1206 35.9907 60.0312 36.2139 60.0304H63.3841Z" fill="black"/>
<path id="Vector_32" d="M64.513 54.3789H59.8559V52.6878C59.853 51.9885 59.5736 51.3187 59.0786 50.8248C58.5836 50.3308 57.9133 50.0527 57.214 50.0513H48.2131C47.5138 50.0513 46.8432 50.3291 46.3488 50.8235C45.8543 51.318 45.5765 51.9886 45.5765 52.6878V54.3789H35.4951C35.3858 54.3789 35.2776 54.4004 35.1767 54.4422C35.0758 54.484 34.984 54.5453 34.9068 54.6226C34.8295 54.6998 34.7682 54.7915 34.7264 54.8925C34.6846 54.9934 34.6631 55.1016 34.6631 55.2109V63.531C34.6632 63.7249 34.7305 63.9128 34.8537 64.0626C34.9769 64.2123 35.1482 64.3147 35.3384 64.3523H35.3708L50.1364 67.2643L52.5514 67.7343C52.6566 67.7559 52.765 67.7559 52.8702 67.7343L55.2906 67.2589L63.1623 65.7083C63.0837 63.8109 63.1578 61.9102 63.3839 60.0247C63.6082 58.1155 63.9858 56.2275 64.513 54.3789ZM47.5755 52.6878C47.5784 52.5201 47.6466 52.3602 47.7657 52.2421C47.8848 52.124 48.0453 52.0571 48.2131 52.0557H57.214C57.3812 52.0571 57.5411 52.1242 57.6594 52.2424C57.7776 52.3606 57.8447 52.5206 57.8461 52.6878V54.3789H47.5809L47.5755 52.6878Z" fill="#0093C9"/>
<path id="Vector_33" opacity="0.6" d="M64.513 54.3789H59.8559V52.6878C59.853 51.9885 59.5736 51.3187 59.0786 50.8248C58.5836 50.3308 57.9133 50.0527 57.214 50.0513H48.2131C47.5138 50.0513 46.8432 50.3291 46.3488 50.8235C45.8543 51.318 45.5765 51.9886 45.5765 52.6878V54.3789H35.4951C35.3858 54.3789 35.2776 54.4004 35.1767 54.4422C35.0758 54.484 34.984 54.5453 34.9068 54.6226C34.8295 54.6998 34.7682 54.7915 34.7264 54.8925C34.6846 54.9934 34.6631 55.1016 34.6631 55.2109V63.531C34.6632 63.7249 34.7305 63.9128 34.8537 64.0626C34.9769 64.2123 35.1482 64.3147 35.3384 64.3523H35.3708L50.1364 67.2643L52.5514 67.7343C52.6566 67.7559 52.765 67.7559 52.8702 67.7343L55.2906 67.2589L63.1623 65.7083C63.0837 63.8109 63.1578 61.9102 63.3839 60.0247C63.6082 58.1155 63.9858 56.2275 64.513 54.3789ZM47.5755 52.6878C47.5784 52.5201 47.6466 52.3602 47.7657 52.2421C47.8848 52.124 48.0453 52.0571 48.2131 52.0557H57.214C57.3812 52.0571 57.5411 52.1242 57.6594 52.2424C57.7776 52.3606 57.8447 52.5206 57.8461 52.6878V54.3789H47.5809L47.5755 52.6878Z" fill="white"/>
<path id="Vector_34" d="M54.4913 65.4655H50.9363C50.4947 65.4655 50.1367 65.8235 50.1367 66.2651V68.5126C50.1367 68.9542 50.4947 69.3122 50.9363 69.3122H54.4913C54.9329 69.3122 55.2909 68.9542 55.2909 68.5126V66.2651C55.2909 65.8235 54.9329 65.4655 54.4913 65.4655Z" fill="#0093C9"/>
<path id="Vector_35" opacity="0.3" d="M54.4913 65.4655H50.9363C50.4947 65.4655 50.1367 65.8235 50.1367 66.2651V68.5126C50.1367 68.9542 50.4947 69.3122 50.9363 69.3122H54.4913C54.9329 69.3122 55.2909 68.9542 55.2909 68.5126V66.2651C55.2909 65.8235 54.9329 65.4655 54.4913 65.4655Z" fill="white"/>
<path id="Vector_36" d="M139.038 125.171H172.043C172.508 125.171 172.886 124.794 172.886 124.328V110.562C172.886 110.097 172.508 109.719 172.043 109.719H139.038C138.572 109.719 138.195 110.097 138.195 110.562V124.328C138.195 124.794 138.572 125.171 139.038 125.171Z" fill="#0093C9"/>
<path id="Vector_37" opacity="0.6" d="M139.038 125.171H172.043C172.508 125.171 172.886 124.794 172.886 124.328V110.562C172.886 110.097 172.508 109.719 172.043 109.719H139.038C138.572 109.719 138.195 110.097 138.195 110.562V124.328C138.195 124.794 138.572 125.171 139.038 125.171Z" fill="white"/>
<path id="Vector_38" opacity="0.1" d="M139.043 109.725H172.043C172.266 109.725 172.481 109.813 172.639 109.971C172.797 110.129 172.886 110.344 172.886 110.567V114.981L155.683 118.363C155.578 118.385 155.47 118.385 155.365 118.363L138.179 114.981V110.567C138.179 110.455 138.201 110.343 138.245 110.24C138.289 110.136 138.353 110.042 138.433 109.964C138.514 109.885 138.609 109.823 138.714 109.782C138.819 109.741 138.931 109.722 139.043 109.725Z" fill="black"/>
<path id="Vector_39" d="M138.324 104.073H148.406V102.382C148.407 101.683 148.685 101.013 149.18 100.519C149.674 100.025 150.343 99.7466 151.042 99.7452H160.049C160.747 99.7466 161.417 100.025 161.911 100.519C162.405 101.013 162.684 101.683 162.685 102.382V104.073H172.761C172.87 104.073 172.979 104.094 173.08 104.136C173.181 104.178 173.272 104.239 173.349 104.316C173.427 104.394 173.488 104.485 173.53 104.586C173.572 104.687 173.593 104.796 173.593 104.905V113.23C173.592 113.423 173.525 113.609 173.403 113.757C173.281 113.906 173.112 114.008 172.923 114.046L155.683 117.434C155.576 117.45 155.466 117.45 155.359 117.434L138.141 114.046C137.952 114.008 137.783 113.906 137.661 113.757C137.539 113.609 137.472 113.423 137.471 113.23V104.905C137.471 104.794 137.493 104.684 137.536 104.581C137.579 104.479 137.642 104.386 137.722 104.309C137.802 104.231 137.896 104.17 137.999 104.13C138.103 104.089 138.213 104.07 138.324 104.073ZM160.681 102.382C160.679 102.214 160.612 102.053 160.494 101.934C160.376 101.815 160.216 101.747 160.049 101.744H151.042C150.874 101.747 150.714 101.815 150.595 101.934C150.476 102.053 150.408 102.213 150.405 102.382V104.073H160.67L160.681 102.382Z" fill="#0093C9"/>
<path id="Vector_40" opacity="0.6" d="M138.324 104.073H148.406V102.382C148.407 101.683 148.685 101.013 149.18 100.519C149.674 100.025 150.343 99.7466 151.042 99.7452H160.049C160.747 99.7466 161.417 100.025 161.911 100.519C162.405 101.013 162.684 101.683 162.685 102.382V104.073H172.761C172.87 104.073 172.979 104.094 173.08 104.136C173.181 104.178 173.272 104.239 173.349 104.316C173.427 104.394 173.488 104.485 173.53 104.586C173.572 104.687 173.593 104.796 173.593 104.905V113.23C173.592 113.423 173.525 113.609 173.403 113.757C173.281 113.906 173.112 114.008 172.923 114.046L155.683 117.434C155.576 117.45 155.466 117.45 155.359 117.434L138.141 114.046C137.952 114.008 137.783 113.906 137.661 113.757C137.539 113.609 137.472 113.423 137.471 113.23V104.905C137.471 104.794 137.493 104.684 137.536 104.581C137.579 104.479 137.642 104.386 137.722 104.309C137.802 104.231 137.896 104.17 137.999 104.13C138.103 104.089 138.213 104.07 138.324 104.073ZM160.681 102.382C160.679 102.214 160.612 102.053 160.494 101.934C160.376 101.815 160.216 101.747 160.049 101.744H151.042C150.874 101.747 150.714 101.815 150.595 101.934C150.476 102.053 150.408 102.213 150.405 102.382V104.073H160.67L160.681 102.382Z" fill="white"/>
<path id="Vector_41" d="M153.766 119.006H157.321C157.762 119.006 158.12 118.648 158.12 118.207V115.959C158.12 115.517 157.762 115.159 157.321 115.159H153.766C153.324 115.159 152.966 115.517 152.966 115.959V118.207C152.966 118.648 153.324 119.006 153.766 119.006Z" fill="#0093C9"/>
<path id="Vector_42" opacity="0.3" d="M153.766 119.006H157.321C157.762 119.006 158.12 118.648 158.12 118.207V115.959C158.12 115.517 157.762 115.159 157.321 115.159H153.766C153.324 115.159 152.966 115.517 152.966 115.959V118.207C152.966 118.648 153.324 119.006 153.766 119.006Z" fill="white"/>
<path id="Vector_43" d="M139.038 25.7825L172.043 25.7825C172.508 25.7825 172.886 25.4052 172.886 24.9397V11.1736C172.886 10.7081 172.508 10.3308 172.043 10.3308L139.038 10.3308C138.572 10.3308 138.195 10.7081 138.195 11.1736V24.9397C138.195 25.4052 138.572 25.7825 139.038 25.7825Z" fill="#0093C9"/>
<path id="Vector_44" opacity="0.6" d="M139.038 25.7825L172.043 25.7825C172.508 25.7825 172.886 25.4052 172.886 24.9397V11.1736C172.886 10.7081 172.508 10.3308 172.043 10.3308L139.038 10.3308C138.572 10.3308 138.195 10.7081 138.195 11.1736V24.9397C138.195 25.4052 138.572 25.7825 139.038 25.7825Z" fill="white"/>
<path id="Vector_45" opacity="0.1" d="M139.043 10.3365H172.043C172.266 10.3365 172.481 10.4253 172.639 10.5833C172.797 10.7414 172.886 10.9558 172.886 11.1793V15.5933L155.683 18.9754C155.578 18.9969 155.47 18.9969 155.365 18.9754L138.2 15.5933V11.1793C138.2 10.9558 138.289 10.7414 138.447 10.5833C138.605 10.4253 138.819 10.3365 139.043 10.3365Z" fill="black"/>
<path id="Vector_46" d="M138.324 4.68504H148.406V2.99399C148.407 2.29518 148.685 1.6254 149.18 1.13127C149.674 0.637134 150.343 0.358899 151.042 0.357472H160.049C160.396 0.355337 160.741 0.421918 161.063 0.553393C161.385 0.684868 161.678 0.878648 161.925 1.12361C162.172 1.36858 162.368 1.65991 162.503 1.98088C162.637 2.30184 162.706 2.64614 162.707 2.99399V4.68504H172.783C173.003 4.68504 173.215 4.7727 173.371 4.92873C173.527 5.08476 173.615 5.29639 173.615 5.51705V13.8426C173.615 14.0351 173.548 14.2216 173.426 14.3704C173.304 14.5191 173.134 14.6209 172.945 14.6584L155.683 18.0243C155.576 18.046 155.466 18.046 155.359 18.0243L138.141 14.6368C137.952 14.5993 137.782 14.4975 137.66 14.3488C137.538 14.2 137.471 14.0135 137.471 13.821V5.51705C137.471 5.40595 137.493 5.29596 137.536 5.19358C137.579 5.0912 137.642 4.9985 137.722 4.92095C137.802 4.84341 137.896 4.78258 137.999 4.74206C138.103 4.70154 138.213 4.68215 138.324 4.68504ZM160.681 2.99399C160.681 2.82584 160.614 2.6645 160.496 2.5451C160.378 2.42569 160.217 2.3579 160.049 2.35647H151.042C150.875 2.35786 150.714 2.42473 150.595 2.54283C150.476 2.66092 150.408 2.82088 150.405 2.98859V4.67964H160.67L160.681 2.99399Z" fill="#0093C9"/>
<path id="Vector_47" opacity="0.6" d="M138.324 4.68504H148.406V2.99399C148.407 2.29518 148.685 1.6254 149.18 1.13127C149.674 0.637134 150.343 0.358899 151.042 0.357472H160.049C160.396 0.355337 160.741 0.421918 161.063 0.553393C161.385 0.684868 161.678 0.878648 161.925 1.12361C162.172 1.36858 162.368 1.65991 162.503 1.98088C162.637 2.30184 162.706 2.64614 162.707 2.99399V4.68504H172.783C173.003 4.68504 173.215 4.7727 173.371 4.92873C173.527 5.08476 173.615 5.29639 173.615 5.51705V13.8426C173.615 14.0351 173.548 14.2216 173.426 14.3704C173.304 14.5191 173.134 14.6209 172.945 14.6584L155.683 18.0243C155.576 18.046 155.466 18.046 155.359 18.0243L138.141 14.6368C137.952 14.5993 137.782 14.4975 137.66 14.3488C137.538 14.2 137.471 14.0135 137.471 13.821V5.51705C137.471 5.40595 137.493 5.29596 137.536 5.19358C137.579 5.0912 137.642 4.9985 137.722 4.92095C137.802 4.84341 137.896 4.78258 137.999 4.74206C138.103 4.70154 138.213 4.68215 138.324 4.68504ZM160.681 2.99399C160.681 2.82584 160.614 2.6645 160.496 2.5451C160.378 2.42569 160.217 2.3579 160.049 2.35647H151.042C150.875 2.35786 150.714 2.42473 150.595 2.54283C150.476 2.66092 150.408 2.82088 150.405 2.98859V4.67964H160.67L160.681 2.99399Z" fill="white"/>
<path id="Vector_48" d="M153.766 19.6184H157.321C157.762 19.6184 158.12 19.2604 158.12 18.8188V16.5713C158.12 16.1297 157.762 15.7717 157.321 15.7717H153.766C153.324 15.7717 152.966 16.1297 152.966 16.5713V18.8188C152.966 19.2604 153.324 19.6184 153.766 19.6184Z" fill="#0093C9"/>
<path id="Vector_49" opacity="0.3" d="M153.766 19.6184H157.321C157.762 19.6184 158.12 19.2604 158.12 18.8188V16.5713C158.12 16.1297 157.762 15.7717 157.321 15.7717H153.766C153.324 15.7717 152.966 16.1297 152.966 16.5713V18.8188C152.966 19.2604 153.324 19.6184 153.766 19.6184Z" fill="white"/>
<path id="Vector_50" d="M143.36 75.4821H172.049C172.273 75.4807 172.487 75.3907 172.645 75.2318C172.803 75.0728 172.892 74.8579 172.892 74.6339V60.8732C172.891 60.7597 172.867 60.6476 172.821 60.5436C172.801 60.4941 172.776 60.447 172.746 60.4032C172.716 60.3569 172.679 60.3151 172.638 60.2789C172.56 60.2 172.468 60.1375 172.365 60.0948C172.263 60.0521 172.154 60.0302 172.043 60.0304H144.879C145.105 61.9159 145.179 63.8166 145.1 65.714C145.1 66.022 145.1 66.3299 145.051 66.6325C145.019 67.1998 144.97 67.7724 144.906 68.3397C144.633 70.7665 144.115 73.1595 143.36 75.4821Z" fill="#0093C9"/>
<path id="Vector_51" opacity="0.6" d="M143.36 75.4821H172.049C172.273 75.4807 172.487 75.3907 172.645 75.2318C172.803 75.0728 172.892 74.8579 172.892 74.6339V60.8732C172.891 60.7597 172.867 60.6476 172.821 60.5436C172.801 60.4941 172.776 60.447 172.746 60.4032C172.716 60.3569 172.679 60.3151 172.638 60.2789C172.56 60.2 172.468 60.1375 172.365 60.0948C172.263 60.0521 172.154 60.0302 172.043 60.0304H144.879C145.105 61.9159 145.179 63.8166 145.1 65.714C145.1 66.022 145.1 66.3299 145.051 66.6325C145.019 67.1998 144.97 67.7724 144.906 68.3397C144.633 70.7665 144.115 73.1595 143.36 75.4821Z" fill="white"/>
<path id="Vector_52" opacity="0.1" d="M144.878 60.0304C145.104 61.9159 145.178 63.8166 145.099 65.714C145.099 66.022 145.099 66.3299 145.051 66.6325L152.982 68.1885L155.402 68.6639C155.507 68.6909 155.617 68.6909 155.721 68.6639L158.136 68.1939L172.902 65.2872V60.8678C172.9 60.7567 172.878 60.6468 172.837 60.5436C172.817 60.4941 172.792 60.447 172.761 60.4032C172.731 60.3569 172.695 60.3151 172.653 60.2789C172.576 60.2 172.483 60.1375 172.381 60.0948C172.279 60.0521 172.17 60.0302 172.059 60.0304H144.878Z" fill="black"/>
<path id="Vector_53" d="M143.743 54.3789H148.406V52.6878C148.407 51.989 148.685 51.3192 149.18 50.8251C149.674 50.331 150.344 50.0527 151.042 50.0513H160.043C160.743 50.0513 161.414 50.3289 161.909 50.8232C162.405 51.3175 162.684 51.9881 162.685 52.6878V54.3789H172.761C172.982 54.3789 173.194 54.4665 173.35 54.6226C173.506 54.7786 173.593 54.9902 173.593 55.2109V63.531C173.593 63.7242 173.527 63.9114 173.405 64.0611C173.283 64.2108 173.113 64.3136 172.923 64.3523H172.885L158.12 67.2643L155.683 67.7289C155.578 67.7505 155.47 67.7505 155.365 67.7289L152.944 67.2535L145.072 65.7029C145.226 61.8734 144.77 58.0438 143.722 54.3573L143.743 54.3789ZM160.681 52.6878C160.678 52.5201 160.61 52.3602 160.491 52.2421C160.372 52.124 160.211 52.0571 160.043 52.0557H151.042C150.875 52.0571 150.715 52.1242 150.597 52.2424C150.479 52.3606 150.412 52.5206 150.41 52.6878V54.3789H160.675L160.681 52.6878Z" fill="#0093C9"/>
<path id="Vector_54" opacity="0.6" d="M143.743 54.3789H148.406V52.6878C148.407 51.989 148.685 51.3192 149.18 50.8251C149.674 50.331 150.344 50.0527 151.042 50.0513H160.043C160.743 50.0513 161.414 50.3289 161.909 50.8232C162.405 51.3175 162.684 51.9881 162.685 52.6878V54.3789H172.761C172.982 54.3789 173.194 54.4665 173.35 54.6226C173.506 54.7786 173.593 54.9902 173.593 55.2109V63.531C173.593 63.7242 173.527 63.9114 173.405 64.0611C173.283 64.2108 173.113 64.3136 172.923 64.3523H172.885L158.12 67.2643L155.683 67.7289C155.578 67.7505 155.47 67.7505 155.365 67.7289L152.944 67.2535L145.072 65.7029C145.226 61.8734 144.77 58.0438 143.722 54.3573L143.743 54.3789ZM160.681 52.6878C160.678 52.5201 160.61 52.3602 160.491 52.2421C160.372 52.124 160.211 52.0571 160.043 52.0557H151.042C150.875 52.0571 150.715 52.1242 150.597 52.2424C150.479 52.3606 150.412 52.5206 150.41 52.6878V54.3789H160.675L160.681 52.6878Z" fill="white"/>
<path id="Vector_55" d="M153.766 69.3179H157.321C157.762 69.3179 158.12 68.9599 158.12 68.5183V66.2707C158.12 65.8291 157.762 65.4711 157.321 65.4711H153.766C153.324 65.4711 152.966 65.8291 152.966 66.2707V68.5183C152.966 68.9599 153.324 69.3179 153.766 69.3179Z" fill="#0093C9"/>
<path id="Vector_56" opacity="0.3" d="M153.766 69.3179H157.321C157.762 69.3179 158.12 68.9599 158.12 68.5183V66.2707C158.12 65.8291 157.762 65.4711 157.321 65.4711H153.766C153.324 65.4711 152.966 65.8291 152.966 66.2707V68.5183C152.966 68.9599 153.324 69.3179 153.766 69.3179Z" fill="white"/>
<path id="Vector_57" d="M129.588 56.6754H82.1633C81.495 56.6754 80.9531 57.2172 80.9531 57.8856V77.6649C80.9531 78.3332 81.495 78.8751 82.1633 78.8751H129.588C130.257 78.8751 130.798 78.3332 130.798 77.6649V57.8856C130.798 57.2172 130.257 56.6754 129.588 56.6754Z" fill="#0093C9"/>
<path id="Vector_58" d="M112.343 53.1418H99.404C98.4229 53.1404 97.4824 52.75 96.7887 52.0563C96.0949 51.3625 95.7046 50.422 95.7031 49.4409V46.1183C95.7046 45.1372 96.0949 44.1967 96.7887 43.503C97.4824 42.8092 98.4229 42.4188 99.404 42.4174H112.343C113.325 42.4174 114.266 42.8073 114.96 43.5014C115.654 44.1954 116.044 45.1367 116.044 46.1183V49.4247C116.046 49.9121 115.952 50.3951 115.767 50.846C115.582 51.2968 115.31 51.7067 114.966 52.0521C114.622 52.3975 114.214 52.6715 113.763 52.8585C113.313 53.0455 112.831 53.1418 112.343 53.1418ZM99.404 45.135C99.1436 45.1378 98.8945 45.2421 98.7098 45.4257C98.5252 45.6094 98.4195 45.8579 98.4153 46.1183V49.4247C98.4153 49.6898 98.5206 49.944 98.708 50.1315C98.8955 50.3189 99.1497 50.4242 99.4148 50.4242H112.354C112.619 50.4242 112.874 50.3189 113.061 50.1315C113.248 49.944 113.354 49.6898 113.354 49.4247V46.1183C113.354 45.8532 113.248 45.599 113.061 45.4115C112.874 45.2241 112.619 45.1188 112.354 45.1188L99.404 45.135Z" fill="#0093C9"/>
<path id="Vector_59" opacity="0.2" d="M129.583 56.6754H82.1687C82.0094 56.6747 81.8514 56.7054 81.704 56.7659C81.5565 56.8264 81.4225 56.9155 81.3095 57.0279C81.1965 57.1404 81.1069 57.274 81.0458 57.4212C80.9846 57.5684 80.9531 57.7262 80.9531 57.8856V64.2338L105.643 69.0962C105.795 69.1291 105.951 69.1291 106.103 69.0962L130.798 64.2338V57.8856C130.798 57.7262 130.767 57.5684 130.706 57.4212C130.645 57.274 130.555 57.1404 130.442 57.0279C130.329 56.9155 130.195 56.8264 130.048 56.7659C129.9 56.7054 129.742 56.6747 129.583 56.6754Z" fill="black"/>
<path id="Vector_60" d="M130.832 62.8664L106.093 67.7288C105.939 67.7559 105.782 67.7559 105.628 67.7288L80.889 62.8664C80.6172 62.8127 80.3723 62.6666 80.196 62.4529C80.0197 62.2392 79.9229 61.971 79.9219 61.694V49.754C79.9219 49.5972 79.9528 49.442 80.0128 49.2971C80.0728 49.1522 80.1607 49.0206 80.2716 48.9097C80.3825 48.7989 80.5141 48.7109 80.6589 48.6509C80.8038 48.5909 80.9591 48.56 81.1159 48.56H130.615C130.772 48.56 130.928 48.5909 131.072 48.6509C131.217 48.7109 131.349 48.7989 131.46 48.9097C131.571 49.0206 131.659 49.1522 131.719 49.2971C131.779 49.442 131.809 49.5972 131.809 49.754V61.7156C131.804 61.9907 131.704 62.2555 131.526 62.4652C131.347 62.6749 131.102 62.8166 130.832 62.8664Z" fill="#0093C9"/>
<path id="Vector_61" d="M108.437 64.4931H103.32C102.688 64.4931 102.175 65.0059 102.175 65.6385V68.8747C102.175 69.5072 102.688 70.02 103.32 70.02H108.437C109.069 70.02 109.582 69.5072 109.582 68.8747V65.6385C109.582 65.0059 109.069 64.4931 108.437 64.4931Z" fill="#0093C9"/>
<path id="Vector_62" opacity="0.4" d="M108.437 64.4931H103.32C102.688 64.4931 102.175 65.0059 102.175 65.6385V68.8747C102.175 69.5072 102.688 70.02 103.32 70.02H108.437C109.069 70.02 109.582 69.5072 109.582 68.8747V65.6385C109.582 65.0059 109.069 64.4931 108.437 64.4931Z" fill="black"/>
</g>
<g id="magnifying-glass">
<path id="Vector_63" d="M86.6151 102.083C80.7753 99.2892 75.6778 95.1559 71.738 90.0193C67.7981 84.8828 65.1272 78.8883 63.9428 72.524C62.7584 66.1597 63.094 59.6057 64.9223 53.3956C66.7506 47.1856 70.0198 41.4953 74.4637 36.788C78.9077 32.0808 84.4006 28.4897 90.4952 26.3074C96.5898 24.125 103.114 23.4131 109.536 24.2296C115.957 25.0461 122.096 27.3679 127.45 31.0059C132.805 34.6438 137.224 39.4952 140.349 45.1647C144.557 52.7891 146.234 61.5532 145.139 70.1926C144.043 78.8319 140.231 86.8999 134.253 93.2323C128.274 99.5648 120.439 103.834 111.877 105.425C103.315 107.016 94.4688 105.845 86.6151 102.083ZM120.883 30.4106C112.635 26.4734 103.252 25.6124 94.4252 27.9829C85.5985 30.3534 77.909 35.7994 72.7431 43.3389C67.5772 50.8784 65.2749 60.0155 66.2512 69.1027C67.2275 78.19 71.4181 86.6295 78.0676 92.8996C84.7172 99.1698 93.388 102.858 102.517 103.3C111.646 103.741 120.632 100.906 127.855 95.3071C135.079 89.7078 140.064 81.712 141.913 72.7614C143.761 63.8107 142.351 54.4942 137.937 46.4914C134.071 39.4818 128.108 33.8585 120.883 30.4106Z" fill="#343C41"/>
<path id="Vector_64" d="M87.604 100.008C81.7606 97.2163 76.6595 93.0833 72.7163 87.9461C68.773 82.8089 66.0992 76.8128 64.9127 70.4463C63.7262 64.0798 64.0605 57.523 65.8885 51.3103C67.7165 45.0975 70.9863 39.4044 75.4317 34.695C79.8771 29.9855 85.3722 26.3929 91.4692 24.2099C97.5663 22.0268 104.093 21.3151 110.517 22.1326C116.942 22.9502 123.082 25.2739 128.438 28.9145C133.794 32.5551 138.214 37.4095 141.338 43.0822C145.543 50.7071 147.218 59.4705 146.122 68.1088C145.025 76.7471 141.213 84.8139 135.236 91.1461C129.259 97.4783 121.425 101.749 112.865 103.341C104.304 104.934 95.4586 103.767 87.604 100.008ZM121.872 28.3361C113.624 24.399 104.241 23.538 95.4142 25.9085C86.5874 28.279 78.8979 33.7249 73.7321 41.2645C68.5662 48.804 66.2638 57.9411 67.2401 67.0283C68.2164 76.1155 72.4071 84.555 79.0566 90.8252C85.7061 97.0954 94.3769 100.784 103.506 101.225C112.635 101.667 121.621 98.832 128.844 93.2327C136.068 87.6334 141.053 79.6376 142.902 70.6869C144.75 61.7363 143.34 52.4197 138.926 44.4169C135.06 37.4073 129.097 31.784 121.872 28.3361Z" fill="#889AA7"/>
<path id="Vector_65" d="M74.6426 53.1649C74.6806 52.7357 74.7559 52.3106 74.8677 51.8945C74.9628 51.3993 75.089 50.9105 75.2456 50.4312C75.4275 49.7855 75.6422 49.1494 75.8888 48.5256L76.2989 47.4401C76.4517 47.0622 76.6527 46.6924 76.8376 46.2904C77.1994 45.4863 77.6899 44.6823 78.1803 43.838C79.3212 42.0272 80.6411 40.3356 82.1201 38.7887C83.6267 37.2721 85.2805 35.9093 87.057 34.7202C87.8369 34.2111 88.642 33.7415 89.4691 33.3132C89.855 33.1121 90.2249 32.9031 90.5947 32.7342L91.6721 32.2759C92.2864 32.0119 92.9145 31.7811 93.5536 31.5845C94.029 31.4133 94.5151 31.2736 95.0089 31.1664C95.423 31.0489 95.8448 30.9602 96.2712 30.901C95.8748 31.0684 95.4663 31.2055 95.0491 31.3111C94.5658 31.4443 94.0906 31.6054 93.6259 31.7935C92.9996 32.0074 92.385 32.2543 91.7847 32.5332L90.7314 33.0076C90.3616 33.1765 89.9997 33.3936 89.6218 33.5946C88.8178 33.9885 88.0781 34.5031 87.2499 35.0177C85.5162 36.1994 83.9006 37.5457 82.4257 39.0379C80.9657 40.5633 79.6546 42.2245 78.51 43.9988C78.0195 44.8029 77.521 45.6069 77.1512 46.411C76.9662 46.7969 76.7572 47.1587 76.5964 47.5286L76.1461 48.598C75.8406 49.2653 75.6557 49.9085 75.4547 50.4633C75.282 50.9342 75.137 51.4148 75.0205 51.9026C74.9284 52.3328 74.8021 52.7549 74.6426 53.1649Z" fill="white"/>
</g>
<g id="Character">
<path id="Vector_66" d="M17.9222 49.9884L17.874 71.7532L27.2161 72.1984L27.4889 66.9036C27.4889 66.9036 30.8061 67.5615 31.6605 64.4969C32.21 62.5274 32.0616 47.313 32.0616 47.313L17.9222 49.9884Z" fill="#B78876"/>
<path id="Vector_67" d="M33.2808 48.8405C31.8087 49.2617 31.4878 51.6484 31.4878 51.6484L29.1814 56.7466C28.0061 55.828 26.4257 55.8802 26.1289 57.95C25.9123 59.4421 27.7695 59.743 27.7695 59.743C26.6864 61.5841 25.9564 63.0723 24.38 64.8211C22.6873 66.7265 21.7246 66.915 19.8794 66.939H17.8417C17.8417 66.939 16.843 63.702 14.9978 55.6114C12.9521 46.6344 23.5657 47.7896 25.5352 45.4992C28.7402 41.7728 37.9298 47.5128 33.2808 48.8405Z" fill="#343C41"/>
<path id="Vector_68" d="M35.8726 46.8836C35.7913 46.4049 35.5418 45.9708 35.169 45.6598C34.7961 45.3487 34.3244 45.181 33.8389 45.1869C33.9907 44.931 34.0474 44.6299 33.9989 44.3364C33.9505 44.0429 33.8001 43.7759 33.5741 43.5824C33.3396 43.3982 33.0679 43.2669 32.7777 43.1977C32.4876 43.1284 32.1859 43.1228 31.8935 43.1813C31.3084 43.2997 30.7436 43.5023 30.2168 43.7829C30.0199 43.2012 29.6399 42.6988 29.1337 42.3509C28.589 42.0317 27.9635 41.8771 27.3327 41.9057C24.4647 41.9057 22.9565 43.8672 21.4162 45.8688C21.1915 46.2417 20.8699 46.5467 20.4856 46.7512C20.206 46.8334 19.9141 46.866 19.6232 46.8475C18.5274 46.8822 17.4602 47.2053 16.5292 47.7842C15.5981 48.3631 14.8363 49.1773 14.3204 50.1447C13.3176 52.0821 12.5675 56.5626 15.1668 59.3704L16.7311 62.8642L31.7049 50.9991C31.8132 51.0552 32.7519 51.5125 33.4739 51.1355C35.2669 50.1888 34.5128 48.6164 34.5128 48.6164C34.6572 48.5162 36.025 47.8463 35.8726 46.8836Z" fill="#343C41"/>
<path id="Vector_69" d="M22.0138 58.5602C22.1389 59.1063 22.1209 59.6755 21.9617 60.2128C21.8774 60.7673 21.6492 61.2901 21.2998 61.729C21.2357 61.6969 21.5365 61.031 21.729 60.1606C21.9216 59.2902 21.9456 58.5602 22.0138 58.5602Z" fill="#889AA7"/>
<path id="Vector_70" d="M23.1441 57.4895C23.2225 58.0248 23.1925 58.5704 23.0559 59.0939C22.9962 59.6276 22.8283 60.1436 22.5625 60.6102C22.6019 60.0832 22.6892 59.561 22.8232 59.0498C22.8807 58.5207 22.9881 57.9983 23.1441 57.4895Z" fill="#889AA7"/>
<path id="Vector_71" d="M26.3781 53.895C26.4021 53.9271 26.1374 54.1196 25.8005 54.5127C25.371 55.0334 25.0308 55.6217 24.7936 56.2536C24.5635 56.8926 24.3772 57.5466 24.2361 58.211C24.1965 58.488 24.1182 58.7581 24.0034 59.0133C23.9865 58.7267 24.0095 58.4392 24.0716 58.1589C24.1667 57.4744 24.3348 56.802 24.573 56.1533C24.8172 55.4953 25.194 54.8945 25.6801 54.3884C25.8703 54.1709 26.1096 54.0017 26.3781 53.895Z" fill="#889AA7"/>
<path id="Vector_72" d="M27.685 51.4525C27.7131 51.4525 27.8094 51.6611 27.8696 52.0381C27.9372 52.535 27.9086 53.0402 27.7853 53.5263C27.6679 54.0132 27.4537 54.4716 27.1556 54.874C26.9269 55.1829 26.7544 55.3313 26.7183 55.3113C26.6822 55.2912 27.2919 54.5612 27.5567 53.4701C27.8214 52.3791 27.6128 51.4605 27.685 51.4525Z" fill="#889AA7"/>
<path id="Vector_73" d="M16.5388 56.8879C16.5066 56.9481 16.2217 56.8478 15.9007 56.6672C15.5796 56.4866 15.3429 56.298 15.375 56.2378C15.4071 56.1776 15.692 56.2819 16.0131 56.4625C16.3341 56.6431 16.5709 56.8317 16.5388 56.8879Z" fill="#889AA7"/>
<path id="Vector_74" d="M21.0513 54.5654C21.0879 54.9033 20.9931 55.2424 20.7865 55.5124C20.4976 55.99 20.1083 56.2388 20.0682 56.1906C20.028 56.1425 20.321 55.8294 20.5818 55.388C20.8427 54.9466 20.9831 54.5493 21.0513 54.5654Z" fill="#889AA7"/>
<path id="Vector_75" d="M22.4383 53.8183C22.4334 54.2293 22.2924 54.6272 22.0372 54.9494C21.6641 55.519 21.1948 55.8239 21.1587 55.7517C21.1226 55.6795 21.4916 55.3505 21.8406 54.801C22.0206 54.4621 22.2202 54.134 22.4383 53.8183Z" fill="#889AA7"/>
<path id="Vector_76" d="M29.3378 44.6974C29.3378 44.6974 29.1613 44.5651 28.8243 44.3725C28.342 44.1168 27.8059 43.9793 27.26 43.9714C26.4507 43.95 25.6525 44.1631 24.9616 44.5851C24.1317 45.1302 23.4584 45.8823 23.0081 46.7672C22.6633 47.4148 22.3942 48.0999 22.2059 48.8089L22.1658 48.9453L22.0414 48.8771C21.3981 48.5405 20.6855 48.3579 19.9596 48.3436C19.3834 48.3305 18.8094 48.4173 18.2629 48.6003C17.7765 48.7807 17.3112 49.0134 16.875 49.2943C16.9649 49.187 17.0704 49.0937 17.1879 49.0175C17.5032 48.7878 17.8487 48.6029 18.2147 48.468C18.7719 48.2558 19.3634 48.1484 19.9596 48.1511C20.7211 48.1492 21.472 48.3293 22.1497 48.6765L21.9853 48.7487C22.1706 48.0221 22.4398 47.3194 22.7875 46.6549C23.257 45.7338 23.9648 44.9554 24.8372 44.4006C25.5629 43.9683 26.4003 43.7603 27.2439 43.8029C27.8122 43.8273 28.3647 43.9972 28.8484 44.2963C28.9774 44.378 29.0971 44.4735 29.2054 44.5811C29.3057 44.6533 29.3418 44.6934 29.3378 44.6974Z" fill="#889AA7"/>
<path id="Vector_77" d="M34.2515 45.8841C34.2314 45.8841 34.5082 45.8119 34.785 46.1247C34.8648 46.2181 34.9252 46.3266 34.9624 46.4437C34.9996 46.5609 35.0129 46.6843 35.0016 46.8067C34.9772 46.9698 34.9153 47.125 34.8206 47.2601C34.7259 47.3952 34.6011 47.5063 34.456 47.5848C34.1116 47.7802 33.7053 47.8362 33.3209 47.7413C32.8981 47.63 32.5015 47.4364 32.1536 47.1717C31.7885 46.8804 31.4053 46.6124 31.0064 46.3694C30.5749 46.136 30.1092 45.9722 29.6266 45.8841C28.6891 45.7153 27.7244 45.7814 26.8187 46.0766C26.075 46.3217 25.373 46.6788 24.7369 47.1356C23.6459 47.9178 23.1084 48.5756 23.0723 48.5395C23.1802 48.3731 23.3052 48.2185 23.4453 48.0782C23.8126 47.6825 24.2154 47.3213 24.6487 46.9992C25.2882 46.5114 26.0019 46.1294 26.7626 45.868C27.7045 45.5487 28.7121 45.4742 29.6907 45.6514C30.1976 45.7447 30.6864 45.918 31.1388 46.1649C31.5422 46.4069 31.9294 46.6749 32.298 46.9671C32.6207 47.2209 32.99 47.4089 33.3851 47.5206C33.7236 47.6137 34.0848 47.575 34.3959 47.4123C34.5217 47.3481 34.6314 47.2564 34.7169 47.1438C34.8023 47.0313 34.8612 46.901 34.8893 46.7625C34.9181 46.548 34.8619 46.3306 34.7328 46.1568C34.6098 46.0117 34.4392 45.915 34.2515 45.8841Z" fill="#889AA7"/>
<path id="Vector_78" d="M77.7731 62.591C77.4201 62.2782 72.6628 64.2717 72.6628 64.2717C72.6628 64.2717 69.1129 67.0796 67.6528 68.7041L66.7503 69.4542L53.2486 79.9515L36.6423 73.0442L33.0322 82.306C33.0322 82.306 51.6763 89.7308 54.5162 88.4592C57.6008 87.0794 69.0929 75.0498 69.1209 75.0097L70.7816 73.4052C70.7816 73.4052 71.66 73.4052 72.3259 73.349C72.9917 73.2929 74.9412 72.0133 74.9412 72.0133C75.1262 71.6573 75.2535 71.2741 75.3182 70.8782C75.359 70.7205 75.3456 70.5536 75.2801 70.4045C75.2146 70.2554 75.1009 70.1326 74.9572 70.0559C75.025 69.7476 75.0359 69.4295 74.9893 69.1172C74.9131 68.5878 74.1871 67.9741 74.1871 67.9741C74.4133 67.7435 74.568 67.4523 74.6323 67.1357C74.7928 66.522 74.0026 65.9324 74.0026 65.9324C74.0026 65.9324 76.7663 64.0551 77.4361 63.7222C78.106 63.3893 78.1261 62.9039 77.7731 62.591Z" fill="#B78876"/>
<path id="Vector_79" d="M39.0853 157.469C39.1415 156.859 39.1695 156.39 39.1695 156.097L41.0468 126.162C41.0468 126.162 39.4704 117.417 38.7243 115.099L32.0216 112.504L23.0887 115.981C23.0325 115.263 22.9964 114.818 22.9964 114.818L9.85173 119.367C9.85173 119.367 9.51078 128.34 9.85173 131.071C9.96404 131.95 10.305 134.216 10.7222 136.888C10.7222 136.888 11.1473 142.692 11.2356 143.017C11.5525 144.2 11.6367 147.1 11.6367 150.004C11.6367 153.695 11.8373 158.087 12.0699 160.173C12.3026 162.258 12.4109 185.219 12.4109 185.219H22.118L23.3654 148.653C23.574 144.734 23.8869 138.741 24.0875 134.405L26.3658 147.906C26.3658 148.4 27.7537 156.121 27.7537 156.121C27.4332 158.551 27.2351 160.996 27.16 163.446C26.9996 170.265 26.2014 185.219 26.2014 185.219H35.6999C35.6999 185.219 38.5558 163.606 39.1094 157.469H39.0853Z" fill="#343C41"/>
<path id="Vector_80" d="M40.7378 124.367C40.426 124.25 40.1307 124.092 39.8594 123.898C39.1856 123.466 38.5567 122.967 37.9821 122.41C37.4076 121.854 36.889 121.242 36.4338 120.585C36.2287 120.323 36.0626 120.032 35.9404 119.722C36.1605 119.967 36.3641 120.225 36.5501 120.497C37.0338 121.122 37.5605 121.713 38.1265 122.265C38.6928 122.812 39.2973 123.317 39.9356 123.778C40.2167 123.955 40.4848 124.152 40.7378 124.367Z" fill="#889AA7"/>
<path id="Vector_81" d="M23.778 129.807C23.7018 129.718 23.6396 129.618 23.5934 129.51C23.4443 129.229 23.3104 128.94 23.1923 128.644C22.786 127.67 22.4887 126.654 22.3058 125.615C22.1274 124.576 22.0628 123.52 22.1133 122.467C22.1374 122.065 22.1695 121.741 22.2056 121.516C22.2126 121.398 22.2383 121.281 22.2818 121.171C22.3139 121.171 22.2818 121.672 22.2617 122.471C22.2497 123.512 22.3329 124.553 22.5104 125.579C22.6876 126.605 22.9561 127.613 23.3127 128.592C23.5975 129.342 23.806 129.791 23.778 129.807Z" fill="#889AA7"/>
<path id="Vector_82" d="M2.28277 91.1475C2.28277 91.1475 1.00319 100.169 0.76252 103.329C0.618117 105.235 2.55151 107.742 4.02763 107.946C5.50375 108.151 10.4776 108.428 10.4776 108.428L10.8788 102.768L10.7504 101.641L9.20608 101.352L9.67138 92.3749L2.28277 91.1475Z" fill="#B78876"/>
<path id="Vector_83" d="M9.4786 92.6796C9.51835 92.8397 9.53855 93.004 9.53877 93.169C9.56283 93.4859 9.57888 93.9432 9.59091 94.5127C9.61899 95.6439 9.59091 97.2123 9.49464 98.9251C9.39837 100.638 9.25798 102.214 9.14968 103.337C9.08951 103.899 9.04138 104.356 9.00127 104.669C8.99224 104.834 8.96396 104.997 8.91703 105.154C8.89875 104.99 8.89875 104.825 8.91703 104.661C8.93709 104.3 8.96516 103.859 8.99725 103.321C9.07347 102.146 9.16974 100.61 9.27804 98.909C9.38634 97.2083 9.42645 95.6279 9.43849 94.4967C9.43849 93.9672 9.43849 93.518 9.43849 93.157C9.43514 92.9969 9.44858 92.8369 9.4786 92.6796Z" fill="#AA6550"/>
<g id="Group" opacity="0.3">
<path id="Vector_84" d="M9.96781 119.531C12.4949 120.469 15.2626 120.545 17.9461 120.313C20.6296 120.08 23.285 119.539 25.9685 119.286C30.0353 118.906 34.1368 119.177 38.1184 120.088C38.3962 120.173 38.6881 120.2 38.9768 120.168C39.1201 120.15 39.2546 120.089 39.3626 119.993C39.4707 119.897 39.5473 119.771 39.5825 119.631C39.6547 119.182 39.1613 118.869 38.7441 118.696C34.153 116.798 29.2174 115.874 24.2504 115.985C19.2835 116.095 14.3937 117.237 9.8916 119.338" fill="black"/>
</g>
<path id="Vector_85" d="M48.6598 77.1447L34.412 70.053C32.1653 69.7894 29.9023 69.6902 27.6411 69.7561H18.2108C18.2108 69.7561 6.78694 73.1255 4.89766 76.2342L0 90.9152L9.68302 92.3753L10.8864 102.925C10.8864 102.925 9.68302 115.139 9.68302 116.912C9.65678 117.733 9.70646 118.555 9.83143 119.367C9.83143 119.367 29.2055 116.422 33.9748 117.975C38.7441 119.527 40.0317 119.367 40.0317 119.367C40.0317 119.367 39.6306 114.296 39.2816 111.344L38.1826 96.6231L37.3803 85.3918L46.3453 88.1354L48.6598 77.1447Z" fill="#F57621"/>
<path id="Vector_86" d="M9.59451 92.4913C9.55841 92.4913 9.46214 91.8856 9.24955 90.9068C8.96637 89.6338 8.591 88.383 8.12641 87.1644C7.65199 85.9366 7.09725 84.7413 6.46578 83.5864L5.88014 82.5355C5.79724 82.411 5.73115 82.2762 5.68359 82.1344C5.78833 82.2421 5.87989 82.362 5.95635 82.4914C6.12081 82.728 6.35747 83.077 6.60215 83.5182C7.27936 84.6586 7.85904 85.8542 8.33499 87.0922C8.80425 88.3196 9.16137 89.587 9.40197 90.8788C9.49022 91.3721 9.54637 91.7733 9.57445 92.0541C9.59917 92.1984 9.60591 92.3453 9.59451 92.4913Z" fill="#343C41"/>
<path id="Vector_87" d="M27.8656 96.6588C27.8581 96.7266 27.8405 96.7928 27.8134 96.8554L27.6329 97.3969C27.5527 97.6336 27.4524 97.9184 27.32 98.2473C27.1877 98.5762 27.0473 98.9532 26.8628 99.3544C26.5138 100.157 26.0605 101.127 25.4909 102.162C24.9214 103.197 24.2475 104.296 23.4853 105.411C22.7232 106.526 21.8809 107.533 21.1228 108.424C20.3646 109.314 19.6065 110.064 18.9567 110.674C18.6398 110.987 18.331 111.248 18.0702 111.476C17.8095 111.705 17.5729 111.909 17.3803 112.066L16.9311 112.419C16.8805 112.463 16.8254 112.502 16.7666 112.535C16.7666 112.535 16.8107 112.479 16.907 112.387L17.3282 111.986C17.5127 111.825 17.7293 111.621 17.994 111.376C18.2588 111.131 18.5476 110.866 18.8564 110.55C19.4902 109.932 20.2122 109.162 20.9784 108.279C21.7445 107.397 22.5387 106.378 23.3169 105.275C24.0951 104.172 24.7609 103.069 25.3225 102.066C25.884 101.063 26.3614 100.1 26.7264 99.2942C26.9189 98.8931 27.0673 98.52 27.2077 98.1991C27.3481 97.8782 27.4645 97.5975 27.5567 97.3648C27.649 97.1322 27.7131 96.9637 27.7733 96.8353C27.7966 96.7729 27.8276 96.7136 27.8656 96.6588Z" fill="#343C41"/>
<path id="Vector_88" d="M34.448 71.0223C34.0732 71.5583 33.8174 72.1683 33.698 72.8113C33.5776 73.5081 33.5776 74.2204 33.698 74.9172C33.8535 75.7749 34.0543 76.6238 34.2996 77.4603C34.793 79.2573 35.3104 80.8578 35.7076 82.013C35.8961 82.5585 36.0525 83.0158 36.1809 83.3808C36.2473 83.5455 36.2984 83.7161 36.3333 83.8902C36.2397 83.738 36.1618 83.5768 36.1007 83.4089C35.9683 83.096 35.7798 82.6387 35.5632 82.0651C35.1299 80.9219 34.5844 79.3175 34.091 77.5164C33.8512 76.6764 33.6597 75.8233 33.5174 74.9613C33.3997 74.2444 33.4105 73.5123 33.5495 72.7993C33.648 72.3181 33.8357 71.8596 34.1031 71.4475C34.1912 71.286 34.3081 71.1419 34.448 71.0223Z" fill="#343C41"/>
<path id="Vector_89" d="M7.56488 86.4782C7.35358 86.7065 7.0929 86.8834 6.80275 86.9956C6.12113 87.3084 5.3628 87.4147 4.62143 87.3014C3.88006 87.1881 3.18813 86.86 2.63111 86.3578C2.38838 86.1657 2.19342 85.9199 2.06152 85.6398C2.0896 85.6158 2.29819 85.9006 2.72738 86.2455C3.28572 86.6969 3.95407 86.9916 4.66389 87.0995C5.37371 87.2073 6.09945 87.1244 6.76665 86.8592C7.26003 86.6587 7.54483 86.4501 7.56488 86.4782Z" fill="white"/>
<path id="Vector_90" d="M34.8696 79.8545C34.8415 79.9612 34.8026 80.0647 34.7533 80.1634C34.665 80.3639 34.5287 80.6527 34.3321 81.0137C33.7675 82.0376 33.0537 82.9717 32.2142 83.7855C30.9592 85.0034 29.3942 85.8539 27.6896 86.2443C26.6846 86.4746 25.6461 86.5195 24.625 86.3767C23.5324 86.2029 22.4813 85.8289 21.5244 85.2736C19.5549 84.1746 17.8902 82.7827 16.0691 82.1168C14.4583 81.5214 12.7055 81.4249 11.0391 81.84C9.91442 82.1099 8.85307 82.5963 7.91438 83.272C7.25655 83.7574 6.94769 84.0983 6.93164 84.0743C7.21245 83.7528 7.52564 83.4611 7.86625 83.2038C9.03071 82.3214 10.3967 81.743 11.8408 81.521C13.2849 81.299 14.7616 81.4403 16.1373 81.9323C18.0025 82.6062 19.6792 84.0021 21.6246 85.0851C22.5584 85.6352 23.5847 86.0103 24.6531 86.1922C25.651 86.3326 26.666 86.2918 27.6495 86.0718C29.3239 85.6966 30.8654 84.8746 32.1099 83.6932C32.9524 82.8997 33.6764 81.9892 34.2599 80.9897C34.4645 80.6367 34.6169 80.3519 34.7132 80.1593C34.7572 80.0538 34.8095 79.9518 34.8696 79.8545Z" fill="white"/>
<path id="Vector_91" d="M43.7897 74.7095C43.869 74.857 43.931 75.0131 43.9743 75.1748C44.1064 75.6088 44.1846 76.0574 44.2069 76.5106C44.2847 78.0299 43.8039 79.5251 42.8551 80.7143C42.304 81.3245 41.7058 81.8905 41.0661 82.407C40.5641 82.8282 40.1545 83.3485 39.8628 83.9353C39.6656 84.3305 39.5731 84.7697 39.594 85.2108C39.6181 85.5237 39.6863 85.6922 39.6662 85.6962C39.6462 85.7002 39.6381 85.6601 39.6061 85.5799C39.5607 85.4638 39.5297 85.3425 39.5138 85.2189C39.4588 84.7599 39.5324 84.2947 39.7264 83.8751C40.0084 83.2605 40.4187 82.7134 40.9298 82.2706C41.5523 81.7517 42.138 81.1901 42.6826 80.5899C43.5986 79.4349 44.0824 77.9963 44.0505 76.5226C44.0197 75.9115 43.9324 75.3045 43.7897 74.7095Z" fill="white"/>
<path id="Vector_92" d="M20.6179 108.528C20.4916 108.595 20.3566 108.645 20.2168 108.676C19.8301 108.787 19.436 108.87 19.0375 108.925C18.4369 109.024 17.8216 108.989 17.2365 108.82C16.8894 108.71 16.5686 108.53 16.2938 108.291C16.0176 108.029 15.7603 107.747 15.5237 107.449C15.2917 107.164 15.0217 106.913 14.7214 106.702C14.4357 106.516 14.1269 106.368 13.8029 106.261C13.2477 106.084 12.6608 106.028 12.0821 106.097C11.6898 106.14 11.3075 106.248 10.9509 106.418C10.8223 106.49 10.6881 106.551 10.5498 106.602C10.6548 106.497 10.7769 106.41 10.9108 106.345C11.2658 106.14 11.6564 106.004 12.062 105.944C12.6627 105.848 13.2774 105.891 13.859 106.069C14.2038 106.175 14.532 106.328 14.8338 106.526C15.1542 106.742 15.4408 107.004 15.6841 107.304C15.9144 107.594 16.1636 107.869 16.4302 108.126C16.6847 108.35 16.9803 108.522 17.3006 108.632C17.8597 108.797 18.447 108.845 19.0255 108.772C20.0002 108.656 20.6099 108.491 20.6179 108.528Z" fill="white"/>
<path id="Vector_93" d="M39.065 107.673C39.0269 107.714 38.9838 107.751 38.9367 107.781C38.8084 107.877 38.6745 107.966 38.5356 108.046C38.0373 108.35 37.4965 108.579 36.9311 108.724C36.0813 108.942 35.1973 108.994 34.3278 108.876C33.2554 108.731 32.2371 108.317 31.3676 107.673C30.5413 107.006 29.7513 106.295 29.001 105.543C28.3871 104.946 27.6763 104.458 26.8991 104.099C26.3774 103.857 25.8095 103.731 25.2345 103.73C24.8333 103.73 24.6007 103.798 24.5967 103.774C24.6478 103.75 24.7017 103.733 24.7571 103.722C24.9118 103.68 25.0705 103.655 25.2304 103.646C25.8233 103.619 26.4145 103.727 26.9593 103.963C27.7618 104.311 28.4964 104.799 29.1293 105.403C29.8634 106.052 30.5934 106.843 31.4919 107.504C32.334 108.124 33.3168 108.523 34.3519 108.668C35.1986 108.79 36.0606 108.756 36.895 108.567C37.4534 108.435 37.9926 108.231 38.4995 107.962C38.6819 107.854 38.8708 107.757 39.065 107.673Z" fill="white"/>
</g>
</g>
</g>
</svg>
