<svg width="29" height="18" viewBox="0 0 29 18" fill="none" xmlns="http://www.w3.org/2000/svg">
<g id="Group 168056">
<path id="Path 122998" d="M1.36464 1.09644V3.24042H4.91316V4.34684H1.36464V7.04324H0V0.000976562H5.36464V1.09644H1.36464Z" fill="#407bff"/>
<path id="Path 122999" d="M11.9118 7.04335L10.4102 4.98075C10.3476 4.98779 10.2538 4.99092 10.127 4.99092H8.46815V7.04335H7.10352V0.00108289H10.127C10.6947 -0.0118344 11.2591 0.0909293 11.7858 0.303117C12.2288 0.47641 12.6102 0.777682 12.8813 1.16853C13.1395 1.56615 13.2713 2.03262 13.2592 2.50656C13.2721 2.99469 13.1287 3.47417 12.85 3.87511C12.5631 4.27318 12.1595 4.57209 11.6951 4.73035L13.379 7.04335H11.9118ZM11.8805 2.505C11.8915 2.30796 11.8553 2.11115 11.7749 1.93094C11.6944 1.75074 11.5721 1.59236 11.4181 1.469C11.0196 1.20119 10.5433 1.07372 10.0644 1.10672H8.46815V3.91345H10.0644C10.5433 3.94645 11.0196 3.81898 11.4181 3.55117C11.5718 3.42527 11.6938 3.26498 11.7741 3.08325C11.8544 2.90151 11.8909 2.70343 11.8805 2.505Z" fill="#407bff"/>
<path id="Path 123000" d="M20.7149 5.94778V7.04324H15.2031V0.000976562H20.5678V1.09644H16.5678V2.92743H20.1163V4.00411H16.5678V5.94778H20.7149Z" fill="#407bff"/>
<path id="Path 123001" d="M28.168 5.94778V7.04324H22.6562V0.000976562H28.0209V1.09644H24.0209V2.92743H27.5694V4.00411H24.0209V5.94778H28.168Z" fill="#407bff"/>
<path id="Path 123002" d="M0 8.78906H2.53443V15.793H6.80752V17.818H0V8.78906Z" fill="#407bff"/>
<path id="Path 123003" d="M16.4169 17.8172L16.3911 13.0324L14.0852 16.9276H12.9584L10.6673 13.1615V17.818H8.32617V8.78906H10.413L13.5617 13.9996L16.6345 8.78906H18.7205L18.7464 17.8172H16.4169Z" fill="#407bff"/>
<path id="Path 123004" d="M24.1989 17.9978C23.4859 17.9995 22.7757 17.9085 22.0862 17.727C21.4932 17.5863 20.9297 17.3418 20.4219 17.0048L21.2536 15.1214C21.6857 15.4021 22.1558 15.6192 22.6496 15.7661C23.1559 15.9261 23.6835 16.0087 24.2145 16.0111C25.1869 16.0111 25.6733 15.7661 25.6738 15.2763C25.6729 15.1491 25.6315 15.0255 25.5555 14.9235C25.4795 14.8214 25.3729 14.7463 25.2513 14.709C24.8224 14.5316 24.3767 14.3977 23.9211 14.3092C23.3485 14.1913 22.7842 14.0363 22.2317 13.8452C21.7821 13.6751 21.3818 13.396 21.0666 13.033C20.7248 12.6117 20.5513 12.0786 20.5799 11.5369C20.5727 11.007 20.7293 10.4877 21.0283 10.0502C21.36 9.57628 21.8221 9.2088 22.3585 8.99227C23.055 8.71603 23.8005 8.58451 24.5494 8.60573C25.1359 8.60551 25.7203 8.67485 26.2904 8.8123C26.8214 8.92556 27.3312 9.12148 27.8014 9.3929L27.0189 11.2888C26.2629 10.8513 25.4086 10.6118 24.5353 10.5924C24.1535 10.5648 23.7717 10.6462 23.4344 10.8272C23.3299 10.884 23.2427 10.9678 23.1818 11.07C23.1209 11.1722 23.0887 11.2888 23.0885 11.4078C23.0914 11.5296 23.1325 11.6475 23.2061 11.7447C23.2797 11.8419 23.382 11.9135 23.4986 11.9492C23.9254 12.1147 24.3669 12.2399 24.817 12.3233C25.3916 12.4386 25.9564 12.5982 26.5064 12.8006C26.9569 12.9628 27.3581 13.2382 27.6715 13.6003C28.0231 14.0131 28.2019 14.5456 28.1707 15.087C28.1759 15.6115 28.0194 16.1249 27.7224 16.5572C27.3827 17.029 26.9171 17.3956 26.3789 17.6151C25.6858 17.8895 24.944 18.0197 24.1989 17.9978Z" fill="#407bff"/>
</g>
</svg>
